%TF.GenerationSoftware,KiCad,Pcbnew,(5.99.0-8928-gc255dede17)*%
%TF.CreationDate,2021-03-20T17:48:22-07:00*%
%TF.ProjectId,smbpcb,736d6270-6362-42e6-9b69-6361645f7063,rev?*%
%TF.SameCoordinates,Original*%
%TF.FileFunction,Soldermask,Bot*%
%TF.FilePolarity,Negative*%
%FSLAX46Y46*%
G04 Gerber Fmt 4.6, Leading zero omitted, Abs format (unit mm)*
G04 Created by KiCad (PCBNEW (5.99.0-8928-gc255dede17)) date 2021-03-20 17:48:22*
%MOMM*%
%LPD*%
G01*
G04 APERTURE LIST*
G04 Aperture macros list*
%AMRoundRect*
0 Rectangle with rounded corners*
0 $1 Rounding radius*
0 $2 $3 $4 $5 $6 $7 $8 $9 X,Y pos of 4 corners*
0 Add a 4 corners polygon primitive as box body*
4,1,4,$2,$3,$4,$5,$6,$7,$8,$9,$2,$3,0*
0 Add four circle primitives for the rounded corners*
1,1,$1+$1,$2,$3*
1,1,$1+$1,$4,$5*
1,1,$1+$1,$6,$7*
1,1,$1+$1,$8,$9*
0 Add four rect primitives between the rounded corners*
20,1,$1+$1,$2,$3,$4,$5,0*
20,1,$1+$1,$4,$5,$6,$7,0*
20,1,$1+$1,$6,$7,$8,$9,0*
20,1,$1+$1,$8,$9,$2,$3,0*%
G04 Aperture macros list end*
%ADD10R,1.700000X1.700000*%
%ADD11O,1.700000X1.700000*%
%ADD12R,1.524000X1.524000*%
%ADD13C,1.524000*%
%ADD14O,1.900000X1.200000*%
%ADD15C,1.450000*%
%ADD16C,1.000000*%
%ADD17C,5.700000*%
%ADD18RoundRect,0.250000X-0.600000X-0.750000X0.600000X-0.750000X0.600000X0.750000X-0.600000X0.750000X0*%
%ADD19O,1.700000X2.000000*%
G04 APERTURE END LIST*
D10*
%TO.C,EXT_BATT1*%
X73335000Y-33815000D03*
D11*
X75875000Y-33815000D03*
%TD*%
D10*
%TO.C,AUX_CONN2*%
X101860000Y-89315000D03*
D11*
X101860000Y-86775000D03*
X101860000Y-84235000D03*
X101860000Y-81695000D03*
%TD*%
D12*
%TO.C,U6*%
X120115000Y-77452500D03*
D13*
X122655000Y-77452500D03*
X125195000Y-77452500D03*
X127735000Y-77452500D03*
X130275000Y-77452500D03*
X120115000Y-48242500D03*
X122655000Y-48242500D03*
X125195000Y-48242500D03*
X127735000Y-48242500D03*
%TD*%
D14*
%TO.C,J1*%
X53122500Y-33715000D03*
X53122500Y-40715000D03*
D15*
X55822500Y-34715000D03*
X55822500Y-39715000D03*
%TD*%
D16*
%TO.C,J2*%
X61680000Y-85555000D03*
X62840000Y-85555000D03*
X61680000Y-84285000D03*
X62840000Y-84285000D03*
X61680000Y-83015000D03*
X62840000Y-83015000D03*
X61680000Y-81745000D03*
X62840000Y-81745000D03*
X61680000Y-80475000D03*
X62840000Y-80475000D03*
%TD*%
D17*
%TO.C,*%
X55755000Y-87900000D03*
%TD*%
D10*
%TO.C,5V_IN1*%
X59960000Y-35540000D03*
D11*
X59960000Y-38080000D03*
%TD*%
D17*
%TO.C,REF\u002A\u002A*%
X132755000Y-25900000D03*
%TD*%
D10*
%TO.C,AUX_CONN1*%
X105210000Y-69865000D03*
D11*
X105210000Y-72405000D03*
X105210000Y-74945000D03*
X105210000Y-77485000D03*
%TD*%
D17*
%TO.C,MOUNT4*%
X132755000Y-87900000D03*
%TD*%
D18*
%TO.C,BT1*%
X73305000Y-29315000D03*
D19*
X75805000Y-29315000D03*
%TD*%
D17*
%TO.C,REF\u002A\u002A*%
X55755000Y-25900000D03*
%TD*%
D10*
%TO.C,AUX_CONN3*%
X113160000Y-89315000D03*
D11*
X113160000Y-86775000D03*
X113160000Y-84235000D03*
X113160000Y-81695000D03*
%TD*%
D10*
%TO.C,AUX_CONN4*%
X122460000Y-89315000D03*
D11*
X122460000Y-86775000D03*
X122460000Y-84235000D03*
X122460000Y-81695000D03*
%TD*%
M02*
