%TF.GenerationSoftware,KiCad,Pcbnew,(5.99.0-8928-gc255dede17)*%
%TF.CreationDate,2021-03-21T11:37:15-07:00*%
%TF.ProjectId,smbpcb,736d6270-6362-42e6-9b69-6361645f7063,rev?*%
%TF.SameCoordinates,Original*%
%TF.FileFunction,Copper,L2,Bot*%
%TF.FilePolarity,Positive*%
%FSLAX46Y46*%
G04 Gerber Fmt 4.6, Leading zero omitted, Abs format (unit mm)*
G04 Created by KiCad (PCBNEW (5.99.0-8928-gc255dede17)) date 2021-03-21 11:37:15*
%MOMM*%
%LPD*%
G01*
G04 APERTURE LIST*
G04 Aperture macros list*
%AMRoundRect*
0 Rectangle with rounded corners*
0 $1 Rounding radius*
0 $2 $3 $4 $5 $6 $7 $8 $9 X,Y pos of 4 corners*
0 Add a 4 corners polygon primitive as box body*
4,1,4,$2,$3,$4,$5,$6,$7,$8,$9,$2,$3,0*
0 Add four circle primitives for the rounded corners*
1,1,$1+$1,$2,$3*
1,1,$1+$1,$4,$5*
1,1,$1+$1,$6,$7*
1,1,$1+$1,$8,$9*
0 Add four rect primitives between the rounded corners*
20,1,$1+$1,$2,$3,$4,$5,0*
20,1,$1+$1,$4,$5,$6,$7,0*
20,1,$1+$1,$6,$7,$8,$9,0*
20,1,$1+$1,$8,$9,$2,$3,0*%
G04 Aperture macros list end*
%TA.AperFunction,ComponentPad*%
%ADD10R,1.700000X1.700000*%
%TD*%
%TA.AperFunction,ComponentPad*%
%ADD11O,1.700000X1.700000*%
%TD*%
%TA.AperFunction,ComponentPad*%
%ADD12R,1.524000X1.524000*%
%TD*%
%TA.AperFunction,ComponentPad*%
%ADD13C,1.524000*%
%TD*%
%TA.AperFunction,ComponentPad*%
%ADD14O,1.900000X1.200000*%
%TD*%
%TA.AperFunction,ComponentPad*%
%ADD15C,1.450000*%
%TD*%
%TA.AperFunction,ComponentPad*%
%ADD16C,1.000000*%
%TD*%
%TA.AperFunction,ComponentPad*%
%ADD17C,5.700000*%
%TD*%
%TA.AperFunction,ComponentPad*%
%ADD18RoundRect,0.250000X-0.600000X-0.750000X0.600000X-0.750000X0.600000X0.750000X-0.600000X0.750000X0*%
%TD*%
%TA.AperFunction,ComponentPad*%
%ADD19O,1.700000X2.000000*%
%TD*%
%TA.AperFunction,ViaPad*%
%ADD20C,1.000000*%
%TD*%
%TA.AperFunction,ViaPad*%
%ADD21C,0.800000*%
%TD*%
%TA.AperFunction,Conductor*%
%ADD22C,0.300000*%
%TD*%
%TA.AperFunction,Conductor*%
%ADD23C,0.400000*%
%TD*%
%TA.AperFunction,Conductor*%
%ADD24C,0.500000*%
%TD*%
G04 APERTURE END LIST*
D10*
%TO.P,EXT_BATT1,1,Pin_1*%
%TO.N,Net-(BT1-Pad1)*%
X73335000Y-33815000D03*
D11*
%TO.P,EXT_BATT1,2,Pin_2*%
%TO.N,GND*%
X75875000Y-33815000D03*
%TD*%
D10*
%TO.P,AUX_CONN2,1,Pin_1*%
%TO.N,SDA*%
X104250000Y-89450000D03*
D11*
%TO.P,AUX_CONN2,2,Pin_2*%
%TO.N,SCL*%
X104250000Y-86910000D03*
%TO.P,AUX_CONN2,3,Pin_3*%
%TO.N,GND*%
X104250000Y-84370000D03*
%TO.P,AUX_CONN2,4,Pin_4*%
%TO.N,+5V*%
X104250000Y-81830000D03*
%TD*%
D12*
%TO.P,U6,1,Vout*%
%TO.N,unconnected-(U6-Pad1)*%
X120115000Y-77452500D03*
D13*
%TO.P,U6,2,RXD*%
%TO.N,unconnected-(U6-Pad2)*%
X122655000Y-77452500D03*
%TO.P,U6,3,TXD*%
%TO.N,unconnected-(U6-Pad3)*%
X125195000Y-77452500D03*
%TO.P,U6,4,SR*%
%TO.N,unconnected-(U6-Pad4)*%
X127735000Y-77452500D03*
%TO.P,U6,5,HD*%
%TO.N,unconnected-(U6-Pad5)*%
X130275000Y-77452500D03*
%TO.P,U6,6,Vin*%
%TO.N,+5V*%
X120115000Y-48242500D03*
%TO.P,U6,7,GND*%
%TO.N,GND*%
X122655000Y-48242500D03*
%TO.P,U6,8,A0T*%
%TO.N,unconnected-(U6-Pad8)*%
X125195000Y-48242500D03*
%TO.P,U6,9,PWM*%
%TO.N,pwm_mhz19b*%
X127735000Y-48242500D03*
%TD*%
D14*
%TO.P,J1,6,Shield*%
%TO.N,GND*%
X53122500Y-33715000D03*
X53122500Y-40715000D03*
D15*
X55822500Y-34715000D03*
X55822500Y-39715000D03*
%TD*%
D16*
%TO.P,J2,1,Pin_1*%
%TO.N,+5V*%
X61680000Y-85555000D03*
%TO.P,J2,2,Pin_2*%
X62840000Y-85555000D03*
%TO.P,J2,3,Pin_3*%
%TO.N,GND*%
X61680000Y-84285000D03*
%TO.P,J2,4,Pin_4*%
X62840000Y-84285000D03*
%TO.P,J2,5,Pin_5*%
%TO.N,Net-(J2-Pad5)*%
X61680000Y-83015000D03*
%TO.P,J2,6,Pin_6*%
%TO.N,unconnected-(J2-Pad6)*%
X62840000Y-83015000D03*
%TO.P,J2,7,Pin_7*%
%TO.N,ESP_RX2*%
X61680000Y-81745000D03*
%TO.P,J2,8,Pin_8*%
%TO.N,unconnected-(J2-Pad8)*%
X62840000Y-81745000D03*
%TO.P,J2,9,Pin_9*%
%TO.N,ESP_TX2*%
X61680000Y-80475000D03*
%TO.P,J2,10,Pin_10*%
%TO.N,Net-(J2-Pad10)*%
X62840000Y-80475000D03*
%TD*%
D17*
%TO.P,,1*%
%TO.N,GND*%
X55755000Y-87900000D03*
%TD*%
D10*
%TO.P,5V_IN1,1,Pin_1*%
%TO.N,Net-(5V_IN1-Pad1)*%
X59960000Y-35540000D03*
D11*
%TO.P,5V_IN1,2,Pin_2*%
%TO.N,GND*%
X59960000Y-38080000D03*
%TD*%
D17*
%TO.P,REF\u002A\u002A,1*%
%TO.N,GND*%
X132755000Y-25900000D03*
%TD*%
D10*
%TO.P,AUX_CONN1,1,Pin_1*%
%TO.N,ESP_TX1*%
X104250000Y-70450000D03*
D11*
%TO.P,AUX_CONN1,2,Pin_2*%
%TO.N,ESP_RX1*%
X104250000Y-72990000D03*
%TO.P,AUX_CONN1,3,Pin_3*%
%TO.N,ESP_TX0*%
X104250000Y-75530000D03*
%TO.P,AUX_CONN1,4,Pin_4*%
%TO.N,ESP_RX0*%
X104250000Y-78070000D03*
%TD*%
D17*
%TO.P,MOUNT4,1*%
%TO.N,GND*%
X132755000Y-87900000D03*
%TD*%
D18*
%TO.P,BT1,1,+*%
%TO.N,Net-(BT1-Pad1)*%
X73305000Y-29315000D03*
D19*
%TO.P,BT1,2,-*%
%TO.N,GND*%
X75805000Y-29315000D03*
%TD*%
D17*
%TO.P,REF\u002A\u002A,1*%
%TO.N,GND*%
X55755000Y-25900000D03*
%TD*%
D10*
%TO.P,AUX_CONN3,1,Pin_1*%
%TO.N,SDA*%
X113160000Y-89315000D03*
D11*
%TO.P,AUX_CONN3,2,Pin_2*%
%TO.N,SCL*%
X113160000Y-86775000D03*
%TO.P,AUX_CONN3,3,Pin_3*%
%TO.N,GND*%
X113160000Y-84235000D03*
%TO.P,AUX_CONN3,4,Pin_4*%
%TO.N,+5V*%
X113160000Y-81695000D03*
%TD*%
D10*
%TO.P,AUX_CONN4,1,Pin_1*%
%TO.N,SDA*%
X122460000Y-89315000D03*
D11*
%TO.P,AUX_CONN4,2,Pin_2*%
%TO.N,SCL*%
X122460000Y-86775000D03*
%TO.P,AUX_CONN4,3,Pin_3*%
%TO.N,GND*%
X122460000Y-84235000D03*
%TO.P,AUX_CONN4,4,Pin_4*%
%TO.N,+3V3*%
X122460000Y-81695000D03*
%TD*%
D20*
%TO.N,+3V3*%
X92650000Y-76000000D03*
D21*
%TO.N,LED_BLUE*%
X112400000Y-71950000D03*
%TO.N,LED_GREEN*%
X109850000Y-72100000D03*
D20*
%TO.N,SCL*%
X111860000Y-43315000D03*
D21*
%TO.N,LED_BLUE*%
X95900000Y-68323000D03*
%TO.N,LED_GREEN*%
X94600000Y-68400000D03*
%TO.N,GND*%
X90960000Y-54915000D03*
X66260000Y-40715000D03*
X126560000Y-39415000D03*
X81560000Y-50115000D03*
X78260000Y-51965000D03*
X70460000Y-61215000D03*
X106560000Y-66715000D03*
X95985000Y-38940000D03*
X103210000Y-52815000D03*
D20*
X80160000Y-38715000D03*
D21*
%TO.N,+3V3*%
X111760000Y-41315000D03*
X106005000Y-41350000D03*
X94455000Y-53900000D03*
X123860000Y-40915000D03*
X128560000Y-40815000D03*
D20*
%TO.N,+5V*%
X103260000Y-44615000D03*
X109355000Y-47900000D03*
D21*
%TO.N,SCL*%
X97258200Y-64052800D03*
%TO.N,EN*%
X100605000Y-51750000D03*
X78460000Y-57815000D03*
%TO.N,NO2*%
X90460000Y-51215000D03*
X78210000Y-53115000D03*
%TO.N,ESP_RX2*%
X91860000Y-69215000D03*
%TO.N,ESP_TX2*%
X90860000Y-70115000D03*
%TO.N,Net-(C1-Pad1)*%
X67665400Y-35689600D03*
X68060000Y-41715000D03*
%TO.N,Net-(BT1-Pad1)*%
X71805600Y-43659600D03*
X70860000Y-38915000D03*
%TD*%
D22*
%TO.N,+3V3*%
X99860000Y-83015000D02*
X121140000Y-83015000D01*
X92650000Y-76000000D02*
X92845000Y-76000000D01*
X92845000Y-76000000D02*
X99860000Y-83015000D01*
X121140000Y-83015000D02*
X122460000Y-81695000D01*
D23*
X92650000Y-76000000D02*
X92655000Y-75995000D01*
X92655000Y-75995000D02*
X92655000Y-55700000D01*
X92655000Y-55700000D02*
X94455000Y-53900000D01*
%TO.N,GND*%
X62840000Y-84285000D02*
X61680000Y-84285000D01*
X61680000Y-84285000D02*
X59370000Y-84285000D01*
D22*
%TO.N,LED_BLUE*%
X96550000Y-68400000D02*
X95977000Y-68400000D01*
X112400000Y-71950000D02*
X108750000Y-68300000D01*
X108750000Y-68300000D02*
X96650000Y-68300000D01*
X96650000Y-68300000D02*
X96550000Y-68400000D01*
X95977000Y-68400000D02*
X95900000Y-68323000D01*
%TO.N,LED_GREEN*%
X109850000Y-72100000D02*
X106750000Y-69000000D01*
X106750000Y-69000000D02*
X95200000Y-69000000D01*
X95200000Y-69000000D02*
X94600000Y-68400000D01*
D23*
%TO.N,GND*%
X59370000Y-84285000D02*
X55755000Y-87900000D01*
%TO.N,ESP_RX2*%
X60660000Y-80815000D02*
X61590000Y-81745000D01*
%TO.N,ESP_TX2*%
X61680000Y-80275000D02*
X61680000Y-80475000D01*
%TO.N,ESP_RX2*%
X61590000Y-81745000D02*
X61680000Y-81745000D01*
X60660000Y-80215000D02*
X60660000Y-80815000D01*
%TO.N,ESP_TX2*%
X71976023Y-70115000D02*
X62012989Y-80078034D01*
X90860000Y-70115000D02*
X71976023Y-70115000D01*
D22*
%TO.N,GND*%
X90881010Y-54993990D02*
X90960000Y-54915000D01*
D23*
%TO.N,+3V3*%
X111760000Y-41315000D02*
X112260000Y-40815000D01*
X128560000Y-40815000D02*
X123960000Y-40815000D01*
X111760000Y-41315000D02*
X111725000Y-41350000D01*
X107805000Y-41350000D02*
X106005000Y-41350000D01*
X123760000Y-40815000D02*
X123860000Y-40915000D01*
X111725000Y-41350000D02*
X107805000Y-41350000D01*
X108005000Y-41350000D02*
X107805000Y-41350000D01*
X106105000Y-41250000D02*
X106005000Y-41350000D01*
X112260000Y-40815000D02*
X123760000Y-40815000D01*
X123960000Y-40815000D02*
X123860000Y-40915000D01*
D24*
%TO.N,+5V*%
X104360000Y-44615000D02*
X107570000Y-47825000D01*
X107570000Y-47825000D02*
X109280000Y-47825000D01*
D23*
X109280000Y-47825000D02*
X109355000Y-47900000D01*
D24*
X103260000Y-44615000D02*
X104360000Y-44615000D01*
D23*
%TO.N,SCL*%
X110960000Y-50515000D02*
X97422200Y-64052800D01*
X97422200Y-64052800D02*
X97258200Y-64052800D01*
X110960000Y-44215000D02*
X110960000Y-50515000D01*
X111860000Y-43315000D02*
X110960000Y-44215000D01*
D22*
%TO.N,EN*%
X99240000Y-53115000D02*
X100605000Y-51750000D01*
X86240000Y-57815000D02*
X90940000Y-53115000D01*
X78460000Y-57815000D02*
X86240000Y-57815000D01*
X90940000Y-53115000D02*
X99240000Y-53115000D01*
D23*
%TO.N,NO2*%
X86060000Y-51215000D02*
X90460000Y-51215000D01*
X78210000Y-53115000D02*
X84160000Y-53115000D01*
X84160000Y-53115000D02*
X86060000Y-51215000D01*
%TO.N,ESP_RX2*%
X71660000Y-69215000D02*
X60660000Y-80215000D01*
X91860000Y-69215000D02*
X71660000Y-69215000D01*
D22*
%TO.N,Net-(C1-Pad1)*%
X68060000Y-41715000D02*
X68060000Y-35926200D01*
X68060000Y-35926200D02*
X67665400Y-35531600D01*
D23*
%TO.N,Net-(BT1-Pad1)*%
X71760000Y-39815000D02*
X71760000Y-43614000D01*
X70860000Y-38915000D02*
X71760000Y-39815000D01*
X71760000Y-43614000D02*
X71805600Y-43659600D01*
%TD*%
%TA.AperFunction,Conductor*%
%TO.N,GND*%
G36*
X132694204Y-22209751D02*
G01*
X132705636Y-22211677D01*
X132705652Y-22211678D01*
X132710440Y-22212485D01*
X132873313Y-22214509D01*
X132877894Y-22214649D01*
X132967372Y-22219045D01*
X132972280Y-22219286D01*
X132978444Y-22219741D01*
X133049357Y-22226725D01*
X133253841Y-22246866D01*
X133259977Y-22247623D01*
X133302260Y-22253895D01*
X133332008Y-22258307D01*
X133338069Y-22259359D01*
X133609503Y-22313350D01*
X133615533Y-22314704D01*
X133686189Y-22332403D01*
X133692149Y-22334053D01*
X133956948Y-22414379D01*
X133962819Y-22416318D01*
X134005451Y-22431571D01*
X134031366Y-22440844D01*
X134037112Y-22443060D01*
X134292817Y-22548977D01*
X134298471Y-22551484D01*
X134364287Y-22582613D01*
X134369811Y-22585393D01*
X134613894Y-22715859D01*
X134619215Y-22718873D01*
X134681689Y-22756318D01*
X134686897Y-22759616D01*
X134852734Y-22870424D01*
X134917014Y-22913375D01*
X134922070Y-22916936D01*
X134980542Y-22960302D01*
X134985418Y-22964107D01*
X135199361Y-23139686D01*
X135204043Y-23143725D01*
X135257971Y-23192602D01*
X135262450Y-23196867D01*
X135458132Y-23392549D01*
X135462397Y-23397028D01*
X135511288Y-23450971D01*
X135515327Y-23455654D01*
X135690883Y-23669570D01*
X135694688Y-23674445D01*
X135738062Y-23732928D01*
X135741623Y-23737984D01*
X135844644Y-23892164D01*
X135895372Y-23968084D01*
X135898681Y-23973310D01*
X135936114Y-24035764D01*
X135939162Y-24041144D01*
X136069610Y-24285197D01*
X136072390Y-24290720D01*
X136081772Y-24310556D01*
X136103532Y-24356565D01*
X136106014Y-24362164D01*
X136211923Y-24617848D01*
X136214141Y-24623597D01*
X136238685Y-24692192D01*
X136240624Y-24698064D01*
X136320945Y-24962846D01*
X136322595Y-24968806D01*
X136340297Y-25039474D01*
X136341652Y-25045509D01*
X136381006Y-25243353D01*
X136395636Y-25316905D01*
X136396693Y-25322998D01*
X136407378Y-25395032D01*
X136408135Y-25401170D01*
X136435259Y-25676567D01*
X136435714Y-25682728D01*
X136440350Y-25777104D01*
X136440490Y-25781650D01*
X136441772Y-25884862D01*
X136442315Y-25928537D01*
X136442473Y-25941284D01*
X136443164Y-25945713D01*
X136445496Y-25960671D01*
X136447000Y-25980083D01*
X136447000Y-87818267D01*
X136445249Y-87839197D01*
X136443322Y-87850635D01*
X136443321Y-87850651D01*
X136442514Y-87855439D01*
X136440490Y-88018341D01*
X136440350Y-88022900D01*
X136436020Y-88111045D01*
X136435714Y-88117272D01*
X136435260Y-88123429D01*
X136408136Y-88398816D01*
X136408135Y-88398829D01*
X136407379Y-88404958D01*
X136398585Y-88464246D01*
X136396691Y-88477012D01*
X136395636Y-88483095D01*
X136385578Y-88533660D01*
X136341654Y-88754478D01*
X136340299Y-88760512D01*
X136322599Y-88831174D01*
X136320950Y-88837134D01*
X136240621Y-89101945D01*
X136238683Y-89107810D01*
X136214138Y-89176410D01*
X136211937Y-89182115D01*
X136106024Y-89437813D01*
X136103517Y-89443468D01*
X136072393Y-89509273D01*
X136069613Y-89514796D01*
X135939163Y-89758850D01*
X135936116Y-89764229D01*
X135898669Y-89826708D01*
X135895370Y-89831917D01*
X135741632Y-90062003D01*
X135738072Y-90067058D01*
X135726452Y-90082726D01*
X135694678Y-90125568D01*
X135690879Y-90130435D01*
X135538184Y-90316495D01*
X135515344Y-90344326D01*
X135511305Y-90349009D01*
X135462394Y-90402974D01*
X135458129Y-90407453D01*
X135262454Y-90603128D01*
X135257975Y-90607393D01*
X135204023Y-90656292D01*
X135199343Y-90660330D01*
X135110126Y-90733548D01*
X134985435Y-90835879D01*
X134980577Y-90839671D01*
X134922029Y-90883093D01*
X134917019Y-90886621D01*
X134686905Y-91040377D01*
X134681707Y-91043669D01*
X134619231Y-91081116D01*
X134613898Y-91084138D01*
X134369799Y-91214611D01*
X134364274Y-91217392D01*
X134298469Y-91248515D01*
X134292816Y-91251021D01*
X134037144Y-91356924D01*
X134031375Y-91359149D01*
X133962797Y-91383687D01*
X133956947Y-91385620D01*
X133692152Y-91465945D01*
X133686198Y-91467593D01*
X133615524Y-91485295D01*
X133609492Y-91486650D01*
X133441251Y-91520116D01*
X133338099Y-91540634D01*
X133332018Y-91541689D01*
X133259943Y-91552380D01*
X133253835Y-91553134D01*
X133000653Y-91578070D01*
X132978434Y-91580258D01*
X132972267Y-91580713D01*
X132966229Y-91581010D01*
X132877897Y-91585349D01*
X132873351Y-91585489D01*
X132760845Y-91586887D01*
X132718204Y-91587416D01*
X132718200Y-91587416D01*
X132713717Y-91587472D01*
X132694328Y-91590495D01*
X132674918Y-91591999D01*
X94543556Y-91591999D01*
X55988268Y-91592000D01*
X55836733Y-91592000D01*
X55815803Y-91590249D01*
X55804365Y-91588322D01*
X55804349Y-91588321D01*
X55799561Y-91587514D01*
X55636659Y-91585490D01*
X55632100Y-91585350D01*
X55537718Y-91580713D01*
X55531571Y-91580260D01*
X55256164Y-91553134D01*
X55250042Y-91552379D01*
X55177978Y-91541689D01*
X55171905Y-91540636D01*
X55092055Y-91524753D01*
X54900522Y-91486654D01*
X54894488Y-91485299D01*
X54823826Y-91467599D01*
X54817866Y-91465950D01*
X54582052Y-91394417D01*
X54553049Y-91385619D01*
X54547184Y-91383681D01*
X54478590Y-91359138D01*
X54472885Y-91356937D01*
X54217180Y-91251021D01*
X54211532Y-91248517D01*
X54145727Y-91217393D01*
X54140204Y-91214613D01*
X53896150Y-91084163D01*
X53890771Y-91081116D01*
X53828292Y-91043669D01*
X53823079Y-91040368D01*
X53592994Y-90886630D01*
X53587941Y-90883071D01*
X53587938Y-90883069D01*
X53529424Y-90839671D01*
X53524557Y-90835873D01*
X53497296Y-90813500D01*
X53310668Y-90660339D01*
X53305991Y-90656305D01*
X53303402Y-90653958D01*
X53252025Y-90607393D01*
X53247547Y-90603129D01*
X53096211Y-90451793D01*
X53568747Y-90451793D01*
X53568823Y-90452863D01*
X53572008Y-90457697D01*
X53852304Y-90672776D01*
X53857934Y-90676631D01*
X54162897Y-90862052D01*
X54168899Y-90865270D01*
X54492114Y-91016674D01*
X54498419Y-91019222D01*
X54836099Y-91134836D01*
X54842650Y-91136689D01*
X55190827Y-91215154D01*
X55197546Y-91216291D01*
X55552170Y-91256696D01*
X55558960Y-91257099D01*
X55915869Y-91258967D01*
X55922670Y-91258635D01*
X56277697Y-91221947D01*
X56284425Y-91220881D01*
X56633419Y-91146062D01*
X56639968Y-91144283D01*
X56978845Y-91032211D01*
X56985187Y-91029725D01*
X57309949Y-90881723D01*
X57316008Y-90878556D01*
X57622888Y-90696343D01*
X57628552Y-90692551D01*
X57913962Y-90478259D01*
X57919188Y-90473874D01*
X57932037Y-90461850D01*
X57940105Y-90448172D01*
X57940077Y-90447446D01*
X57934935Y-90439145D01*
X55767812Y-88272022D01*
X55753868Y-88264408D01*
X55752035Y-88264539D01*
X55745420Y-88268790D01*
X53576361Y-90437849D01*
X53568747Y-90451793D01*
X53096211Y-90451793D01*
X53051872Y-90407454D01*
X53047607Y-90402975D01*
X52998708Y-90349023D01*
X52994669Y-90344341D01*
X52978439Y-90324564D01*
X52819121Y-90130435D01*
X52815329Y-90125577D01*
X52771907Y-90067029D01*
X52768370Y-90062006D01*
X52692936Y-89949110D01*
X52614623Y-89831905D01*
X52611324Y-89826696D01*
X52573875Y-89764216D01*
X52570862Y-89758898D01*
X52440387Y-89514795D01*
X52437608Y-89509274D01*
X52406485Y-89443469D01*
X52403979Y-89437816D01*
X52298076Y-89182144D01*
X52295851Y-89176375D01*
X52271313Y-89107797D01*
X52269380Y-89101945D01*
X52189055Y-88837152D01*
X52187407Y-88831198D01*
X52169705Y-88760524D01*
X52168350Y-88754492D01*
X52114368Y-88483111D01*
X52113311Y-88477018D01*
X52111416Y-88464246D01*
X52102620Y-88404943D01*
X52101864Y-88398816D01*
X52100670Y-88386684D01*
X52074742Y-88123434D01*
X52074287Y-88117267D01*
X52072742Y-88085821D01*
X52069651Y-88022896D01*
X52069511Y-88018351D01*
X52067937Y-87891657D01*
X52392192Y-87891657D01*
X52410251Y-88248134D01*
X52410961Y-88254890D01*
X52467411Y-88607319D01*
X52468850Y-88613974D01*
X52563030Y-88958237D01*
X52565179Y-88964698D01*
X52695991Y-89296784D01*
X52698822Y-89302967D01*
X52864734Y-89618984D01*
X52868217Y-89624826D01*
X53067292Y-89921081D01*
X53071385Y-89926511D01*
X53195892Y-90074369D01*
X53208631Y-90082813D01*
X53219074Y-90076716D01*
X55382978Y-87912812D01*
X55389356Y-87901132D01*
X56119408Y-87901132D01*
X56119539Y-87902965D01*
X56123790Y-87909580D01*
X58289511Y-90075301D01*
X58303108Y-90082726D01*
X58312717Y-90076029D01*
X58417251Y-89954498D01*
X58421400Y-89949110D01*
X58623561Y-89654964D01*
X58627108Y-89649153D01*
X58796311Y-89334908D01*
X58799218Y-89328730D01*
X58933499Y-88998038D01*
X58935713Y-88991608D01*
X59033493Y-88648346D01*
X59035000Y-88641716D01*
X59042131Y-88600000D01*
X102886500Y-88600000D01*
X102886500Y-90300000D01*
X102891727Y-90373079D01*
X102909739Y-90434421D01*
X102927142Y-90493691D01*
X102932904Y-90513316D01*
X102957426Y-90551472D01*
X103007051Y-90628691D01*
X103007053Y-90628694D01*
X103011923Y-90636271D01*
X103018733Y-90642172D01*
X103115569Y-90726082D01*
X103115572Y-90726084D01*
X103122381Y-90731984D01*
X103255330Y-90792700D01*
X103264245Y-90793982D01*
X103264246Y-90793982D01*
X103395552Y-90812861D01*
X103395559Y-90812862D01*
X103400000Y-90813500D01*
X105100000Y-90813500D01*
X105173079Y-90808273D01*
X105251165Y-90785345D01*
X105304670Y-90769635D01*
X105304672Y-90769634D01*
X105313316Y-90767096D01*
X105390546Y-90717463D01*
X105428691Y-90692949D01*
X105428694Y-90692947D01*
X105436271Y-90688077D01*
X105449099Y-90673273D01*
X105526082Y-90584431D01*
X105526084Y-90584428D01*
X105531984Y-90577619D01*
X105592700Y-90444670D01*
X105598695Y-90402974D01*
X105612861Y-90304448D01*
X105612862Y-90304441D01*
X105613500Y-90300000D01*
X105613500Y-88600000D01*
X105608273Y-88526921D01*
X105590092Y-88465000D01*
X111796500Y-88465000D01*
X111796500Y-90165000D01*
X111801727Y-90238079D01*
X111803631Y-90244562D01*
X111839388Y-90366340D01*
X111842904Y-90378316D01*
X111847775Y-90385895D01*
X111917051Y-90493691D01*
X111917053Y-90493694D01*
X111921923Y-90501271D01*
X111928733Y-90507172D01*
X112025569Y-90591082D01*
X112025572Y-90591084D01*
X112032381Y-90596984D01*
X112040579Y-90600728D01*
X112131329Y-90642172D01*
X112165330Y-90657700D01*
X112174245Y-90658982D01*
X112174246Y-90658982D01*
X112305552Y-90677861D01*
X112305559Y-90677862D01*
X112310000Y-90678500D01*
X114010000Y-90678500D01*
X114083079Y-90673273D01*
X114161165Y-90650345D01*
X114214670Y-90634635D01*
X114214672Y-90634634D01*
X114223316Y-90632096D01*
X114297484Y-90584431D01*
X114338691Y-90557949D01*
X114338694Y-90557947D01*
X114346271Y-90553077D01*
X114374157Y-90520895D01*
X114436082Y-90449431D01*
X114436084Y-90449428D01*
X114441984Y-90442619D01*
X114484728Y-90349023D01*
X114498958Y-90317864D01*
X114498958Y-90317863D01*
X114502700Y-90309670D01*
X114504415Y-90297743D01*
X114522861Y-90169448D01*
X114522862Y-90169441D01*
X114523500Y-90165000D01*
X114523500Y-88465000D01*
X121096500Y-88465000D01*
X121096500Y-90165000D01*
X121101727Y-90238079D01*
X121103631Y-90244562D01*
X121139388Y-90366340D01*
X121142904Y-90378316D01*
X121147775Y-90385895D01*
X121217051Y-90493691D01*
X121217053Y-90493694D01*
X121221923Y-90501271D01*
X121228733Y-90507172D01*
X121325569Y-90591082D01*
X121325572Y-90591084D01*
X121332381Y-90596984D01*
X121340579Y-90600728D01*
X121431329Y-90642172D01*
X121465330Y-90657700D01*
X121474245Y-90658982D01*
X121474246Y-90658982D01*
X121605552Y-90677861D01*
X121605559Y-90677862D01*
X121610000Y-90678500D01*
X123310000Y-90678500D01*
X123383079Y-90673273D01*
X123461165Y-90650345D01*
X123514670Y-90634635D01*
X123514672Y-90634634D01*
X123523316Y-90632096D01*
X123597484Y-90584431D01*
X123638691Y-90557949D01*
X123638694Y-90557947D01*
X123646271Y-90553077D01*
X123674157Y-90520895D01*
X123734035Y-90451793D01*
X130568747Y-90451793D01*
X130568823Y-90452863D01*
X130572008Y-90457697D01*
X130852304Y-90672776D01*
X130857934Y-90676631D01*
X131162897Y-90862052D01*
X131168899Y-90865270D01*
X131492114Y-91016674D01*
X131498419Y-91019222D01*
X131836099Y-91134836D01*
X131842650Y-91136689D01*
X132190827Y-91215154D01*
X132197546Y-91216291D01*
X132552170Y-91256696D01*
X132558960Y-91257099D01*
X132915869Y-91258967D01*
X132922670Y-91258635D01*
X133277697Y-91221947D01*
X133284425Y-91220881D01*
X133633419Y-91146062D01*
X133639968Y-91144283D01*
X133978845Y-91032211D01*
X133985187Y-91029725D01*
X134309949Y-90881723D01*
X134316008Y-90878556D01*
X134622888Y-90696343D01*
X134628552Y-90692551D01*
X134913962Y-90478259D01*
X134919188Y-90473874D01*
X134932037Y-90461850D01*
X134940105Y-90448172D01*
X134940077Y-90447446D01*
X134934935Y-90439145D01*
X132767812Y-88272022D01*
X132753868Y-88264408D01*
X132752035Y-88264539D01*
X132745420Y-88268790D01*
X130576361Y-90437849D01*
X130568747Y-90451793D01*
X123734035Y-90451793D01*
X123736082Y-90449431D01*
X123736084Y-90449428D01*
X123741984Y-90442619D01*
X123784728Y-90349023D01*
X123798958Y-90317864D01*
X123798958Y-90317863D01*
X123802700Y-90309670D01*
X123804415Y-90297743D01*
X123822861Y-90169448D01*
X123822862Y-90169441D01*
X123823500Y-90165000D01*
X123823500Y-88465000D01*
X123818273Y-88391921D01*
X123783068Y-88272022D01*
X123779635Y-88260330D01*
X123779634Y-88260328D01*
X123777096Y-88251684D01*
X123731393Y-88180569D01*
X123702949Y-88136309D01*
X123702947Y-88136306D01*
X123698077Y-88128729D01*
X123677669Y-88111045D01*
X123594431Y-88038918D01*
X123594428Y-88038916D01*
X123587619Y-88033016D01*
X123454670Y-87972300D01*
X123447612Y-87971285D01*
X123388687Y-87933417D01*
X123369615Y-87891657D01*
X129392192Y-87891657D01*
X129410251Y-88248134D01*
X129410961Y-88254890D01*
X129467411Y-88607319D01*
X129468850Y-88613974D01*
X129563030Y-88958237D01*
X129565179Y-88964698D01*
X129695991Y-89296784D01*
X129698822Y-89302967D01*
X129864734Y-89618984D01*
X129868217Y-89624826D01*
X130067292Y-89921081D01*
X130071385Y-89926511D01*
X130195892Y-90074369D01*
X130208631Y-90082813D01*
X130219074Y-90076716D01*
X132382978Y-87912812D01*
X132389356Y-87901132D01*
X133119408Y-87901132D01*
X133119539Y-87902965D01*
X133123790Y-87909580D01*
X135289511Y-90075301D01*
X135303108Y-90082726D01*
X135312717Y-90076029D01*
X135417251Y-89954498D01*
X135421400Y-89949110D01*
X135623561Y-89654964D01*
X135627108Y-89649153D01*
X135796311Y-89334908D01*
X135799218Y-89328730D01*
X135933499Y-88998038D01*
X135935713Y-88991608D01*
X136033493Y-88648346D01*
X136035000Y-88641716D01*
X136095141Y-88289881D01*
X136095921Y-88283141D01*
X136117808Y-87925275D01*
X136117924Y-87921673D01*
X136117994Y-87901820D01*
X136117902Y-87898193D01*
X136098514Y-87540200D01*
X136097779Y-87533434D01*
X136040101Y-87181218D01*
X136038634Y-87174546D01*
X135943258Y-86830634D01*
X135941084Y-86824170D01*
X135809115Y-86492547D01*
X135806259Y-86486367D01*
X135639249Y-86170939D01*
X135635749Y-86165114D01*
X135435637Y-85869550D01*
X135431523Y-85864130D01*
X135314089Y-85725656D01*
X135301263Y-85717219D01*
X135290938Y-85723272D01*
X133127022Y-87887188D01*
X133119408Y-87901132D01*
X132389356Y-87901132D01*
X132390592Y-87898868D01*
X132390461Y-87897035D01*
X132386210Y-87890420D01*
X130220479Y-85724689D01*
X130206942Y-85717297D01*
X130197241Y-85724084D01*
X130085595Y-85854806D01*
X130081461Y-85860214D01*
X129880336Y-86155051D01*
X129876801Y-86160888D01*
X129708694Y-86475725D01*
X129705813Y-86481904D01*
X129572689Y-86813060D01*
X129570498Y-86819495D01*
X129473913Y-87163106D01*
X129472430Y-87169742D01*
X129413521Y-87521765D01*
X129412762Y-87528537D01*
X129392216Y-87884862D01*
X129392192Y-87891657D01*
X123369615Y-87891657D01*
X123359193Y-87868836D01*
X123369296Y-87798562D01*
X123394427Y-87762197D01*
X123396199Y-87760410D01*
X123495162Y-87660580D01*
X123502277Y-87653403D01*
X123502278Y-87653402D01*
X123506030Y-87649617D01*
X123582787Y-87540200D01*
X123635375Y-87465236D01*
X123635376Y-87465234D01*
X123638439Y-87460868D01*
X123737153Y-87252508D01*
X123799349Y-87030494D01*
X123823249Y-86801176D01*
X123823500Y-86775000D01*
X123823250Y-86772052D01*
X123804458Y-86550576D01*
X123804457Y-86550572D01*
X123804007Y-86545265D01*
X123791515Y-86497133D01*
X123761954Y-86383242D01*
X123746084Y-86322098D01*
X123717677Y-86259036D01*
X123653578Y-86116743D01*
X123653577Y-86116741D01*
X123651388Y-86111882D01*
X123522627Y-85920626D01*
X123363482Y-85753799D01*
X123178504Y-85616171D01*
X123173742Y-85613750D01*
X123169967Y-85611409D01*
X123122613Y-85558512D01*
X123111374Y-85488410D01*
X123139819Y-85423361D01*
X123163107Y-85401809D01*
X123233583Y-85351446D01*
X130569532Y-85351446D01*
X130569567Y-85352286D01*
X130574618Y-85360408D01*
X132742188Y-87527978D01*
X132756132Y-87535592D01*
X132757965Y-87535461D01*
X132764580Y-87531210D01*
X134933214Y-85362576D01*
X134940828Y-85348632D01*
X134940760Y-85347677D01*
X134935817Y-85340202D01*
X134931915Y-85336881D01*
X134647993Y-85120590D01*
X134642369Y-85116768D01*
X134336755Y-84932409D01*
X134330738Y-84929210D01*
X134007006Y-84778939D01*
X134000670Y-84776405D01*
X133662612Y-84661979D01*
X133656044Y-84660145D01*
X133307606Y-84582899D01*
X133300867Y-84581783D01*
X132946109Y-84542617D01*
X132939328Y-84542238D01*
X132582391Y-84541615D01*
X132575618Y-84541970D01*
X132220704Y-84579899D01*
X132213994Y-84580986D01*
X131865271Y-84657020D01*
X131858696Y-84658831D01*
X131520225Y-84772082D01*
X131513903Y-84774585D01*
X131189649Y-84923725D01*
X131183606Y-84926911D01*
X130877362Y-85110195D01*
X130871716Y-85114003D01*
X130587038Y-85329303D01*
X130581848Y-85333690D01*
X130577555Y-85337735D01*
X130569532Y-85351446D01*
X123233583Y-85351446D01*
X123339034Y-85276089D01*
X123347149Y-85269182D01*
X123501893Y-85113082D01*
X123508706Y-85104933D01*
X123634940Y-84924988D01*
X123640295Y-84915787D01*
X123734399Y-84717156D01*
X123738123Y-84707197D01*
X123795968Y-84500718D01*
X123794430Y-84492351D01*
X123782137Y-84489000D01*
X121143403Y-84489000D01*
X121130222Y-84492870D01*
X121128255Y-84507423D01*
X121136638Y-84559471D01*
X121139212Y-84569793D01*
X121210230Y-84777810D01*
X121214497Y-84787533D01*
X121319556Y-84980625D01*
X121325402Y-84989491D01*
X121461486Y-85162113D01*
X121468750Y-85169875D01*
X121631967Y-85317094D01*
X121640444Y-85323528D01*
X121758717Y-85398442D01*
X121805562Y-85451790D01*
X121816129Y-85521996D01*
X121787062Y-85586770D01*
X121756662Y-85612605D01*
X121700512Y-85646678D01*
X121656631Y-85673306D01*
X121652601Y-85676803D01*
X121504245Y-85805539D01*
X121482492Y-85824415D01*
X121479109Y-85828541D01*
X121479105Y-85828545D01*
X121426538Y-85892656D01*
X121336304Y-86002705D01*
X121333665Y-86007341D01*
X121333663Y-86007344D01*
X121243855Y-86165114D01*
X121222245Y-86203077D01*
X121143578Y-86419802D01*
X121142629Y-86425051D01*
X121142628Y-86425054D01*
X121119166Y-86554802D01*
X121102551Y-86646683D01*
X121102500Y-86652023D01*
X121101097Y-86798210D01*
X121100338Y-86877233D01*
X121137002Y-87104861D01*
X121211494Y-87323056D01*
X121321685Y-87525580D01*
X121464424Y-87706644D01*
X121524034Y-87760411D01*
X121561219Y-87820888D01*
X121559805Y-87891871D01*
X121520240Y-87950821D01*
X121475138Y-87974868D01*
X121405330Y-87995365D01*
X121405328Y-87995366D01*
X121396684Y-87997904D01*
X121389105Y-88002775D01*
X121281309Y-88072051D01*
X121281306Y-88072053D01*
X121273729Y-88076923D01*
X121267828Y-88083733D01*
X121183918Y-88180569D01*
X121183916Y-88180572D01*
X121178016Y-88187381D01*
X121174272Y-88195579D01*
X121147186Y-88254890D01*
X121117300Y-88320330D01*
X121116018Y-88329245D01*
X121116018Y-88329246D01*
X121097139Y-88460552D01*
X121097138Y-88460559D01*
X121096500Y-88465000D01*
X114523500Y-88465000D01*
X114518273Y-88391921D01*
X114483068Y-88272022D01*
X114479635Y-88260330D01*
X114479634Y-88260328D01*
X114477096Y-88251684D01*
X114431393Y-88180569D01*
X114402949Y-88136309D01*
X114402947Y-88136306D01*
X114398077Y-88128729D01*
X114377669Y-88111045D01*
X114294431Y-88038918D01*
X114294428Y-88038916D01*
X114287619Y-88033016D01*
X114154670Y-87972300D01*
X114147612Y-87971285D01*
X114088687Y-87933417D01*
X114059193Y-87868836D01*
X114069296Y-87798562D01*
X114094427Y-87762197D01*
X114096199Y-87760410D01*
X114195162Y-87660580D01*
X114202277Y-87653403D01*
X114202278Y-87653402D01*
X114206030Y-87649617D01*
X114282787Y-87540200D01*
X114335375Y-87465236D01*
X114335376Y-87465234D01*
X114338439Y-87460868D01*
X114437153Y-87252508D01*
X114499349Y-87030494D01*
X114523249Y-86801176D01*
X114523500Y-86775000D01*
X114523250Y-86772052D01*
X114504458Y-86550576D01*
X114504457Y-86550572D01*
X114504007Y-86545265D01*
X114491515Y-86497133D01*
X114461954Y-86383242D01*
X114446084Y-86322098D01*
X114417677Y-86259036D01*
X114353578Y-86116743D01*
X114353577Y-86116741D01*
X114351388Y-86111882D01*
X114222627Y-85920626D01*
X114063482Y-85753799D01*
X113878504Y-85616171D01*
X113873742Y-85613750D01*
X113869967Y-85611409D01*
X113822613Y-85558512D01*
X113811374Y-85488410D01*
X113839819Y-85423361D01*
X113863107Y-85401809D01*
X114039034Y-85276089D01*
X114047149Y-85269182D01*
X114201893Y-85113082D01*
X114208706Y-85104933D01*
X114334940Y-84924988D01*
X114340295Y-84915787D01*
X114434399Y-84717156D01*
X114438123Y-84707197D01*
X114495968Y-84500718D01*
X114494430Y-84492351D01*
X114482137Y-84489000D01*
X111843403Y-84489000D01*
X111830222Y-84492870D01*
X111828255Y-84507423D01*
X111836638Y-84559471D01*
X111839212Y-84569793D01*
X111910230Y-84777810D01*
X111914497Y-84787533D01*
X112019556Y-84980625D01*
X112025402Y-84989491D01*
X112161486Y-85162113D01*
X112168750Y-85169875D01*
X112331967Y-85317094D01*
X112340444Y-85323528D01*
X112458717Y-85398442D01*
X112505562Y-85451790D01*
X112516129Y-85521996D01*
X112487062Y-85586770D01*
X112456662Y-85612605D01*
X112400512Y-85646678D01*
X112356631Y-85673306D01*
X112352601Y-85676803D01*
X112204245Y-85805539D01*
X112182492Y-85824415D01*
X112179109Y-85828541D01*
X112179105Y-85828545D01*
X112126538Y-85892656D01*
X112036304Y-86002705D01*
X112033665Y-86007341D01*
X112033663Y-86007344D01*
X111943855Y-86165114D01*
X111922245Y-86203077D01*
X111843578Y-86419802D01*
X111842629Y-86425051D01*
X111842628Y-86425054D01*
X111819166Y-86554802D01*
X111802551Y-86646683D01*
X111802500Y-86652023D01*
X111801097Y-86798210D01*
X111800338Y-86877233D01*
X111837002Y-87104861D01*
X111911494Y-87323056D01*
X112021685Y-87525580D01*
X112164424Y-87706644D01*
X112224034Y-87760411D01*
X112261219Y-87820888D01*
X112259805Y-87891871D01*
X112220240Y-87950821D01*
X112175138Y-87974868D01*
X112105330Y-87995365D01*
X112105328Y-87995366D01*
X112096684Y-87997904D01*
X112089105Y-88002775D01*
X111981309Y-88072051D01*
X111981306Y-88072053D01*
X111973729Y-88076923D01*
X111967828Y-88083733D01*
X111883918Y-88180569D01*
X111883916Y-88180572D01*
X111878016Y-88187381D01*
X111874272Y-88195579D01*
X111847186Y-88254890D01*
X111817300Y-88320330D01*
X111816018Y-88329245D01*
X111816018Y-88329246D01*
X111797139Y-88460552D01*
X111797138Y-88460559D01*
X111796500Y-88465000D01*
X105590092Y-88465000D01*
X105572462Y-88404958D01*
X105569635Y-88395330D01*
X105569634Y-88395328D01*
X105567096Y-88386684D01*
X105504884Y-88289881D01*
X105492949Y-88271309D01*
X105492947Y-88271306D01*
X105488077Y-88263729D01*
X105477876Y-88254890D01*
X105384431Y-88173918D01*
X105384428Y-88173916D01*
X105377619Y-88168016D01*
X105244670Y-88107300D01*
X105237612Y-88106285D01*
X105178687Y-88068417D01*
X105149193Y-88003836D01*
X105159296Y-87933562D01*
X105184427Y-87897197D01*
X105186199Y-87895410D01*
X105218125Y-87863204D01*
X105292277Y-87788403D01*
X105292278Y-87788402D01*
X105296030Y-87784617D01*
X105383043Y-87660580D01*
X105425375Y-87600236D01*
X105425376Y-87600234D01*
X105428439Y-87595868D01*
X105527153Y-87387508D01*
X105589349Y-87165494D01*
X105613249Y-86936176D01*
X105613500Y-86910000D01*
X105606766Y-86830634D01*
X105594458Y-86685576D01*
X105594457Y-86685572D01*
X105594007Y-86680265D01*
X105536084Y-86457098D01*
X105519284Y-86419802D01*
X105443578Y-86251743D01*
X105443577Y-86251741D01*
X105441388Y-86246882D01*
X105312627Y-86055626D01*
X105153482Y-85888799D01*
X104968504Y-85751171D01*
X104963742Y-85748750D01*
X104959967Y-85746409D01*
X104912613Y-85693512D01*
X104901374Y-85623410D01*
X104929819Y-85558361D01*
X104953107Y-85536809D01*
X105129034Y-85411089D01*
X105137149Y-85404182D01*
X105291893Y-85248082D01*
X105298706Y-85239933D01*
X105424940Y-85059988D01*
X105430295Y-85050787D01*
X105524399Y-84852156D01*
X105528123Y-84842197D01*
X105585968Y-84635718D01*
X105584430Y-84627351D01*
X105572137Y-84624000D01*
X102933403Y-84624000D01*
X102920222Y-84627870D01*
X102918255Y-84642423D01*
X102926638Y-84694471D01*
X102929212Y-84704793D01*
X103000230Y-84912810D01*
X103004497Y-84922533D01*
X103109556Y-85115625D01*
X103115402Y-85124491D01*
X103251486Y-85297113D01*
X103258750Y-85304875D01*
X103421967Y-85452094D01*
X103430444Y-85458528D01*
X103548717Y-85533442D01*
X103595562Y-85586790D01*
X103606129Y-85656996D01*
X103577062Y-85721770D01*
X103546662Y-85747605D01*
X103464057Y-85797731D01*
X103446631Y-85808306D01*
X103442601Y-85811803D01*
X103302275Y-85933571D01*
X103272492Y-85959415D01*
X103269109Y-85963541D01*
X103269105Y-85963545D01*
X103196768Y-86051767D01*
X103126304Y-86137705D01*
X103012245Y-86338077D01*
X102933578Y-86554802D01*
X102932629Y-86560051D01*
X102932628Y-86560054D01*
X102893759Y-86775000D01*
X102892551Y-86781683D01*
X102892364Y-86801176D01*
X102891097Y-86933210D01*
X102890338Y-87012233D01*
X102927002Y-87239861D01*
X103001494Y-87458056D01*
X103004044Y-87462743D01*
X103004045Y-87462745D01*
X103035682Y-87520891D01*
X103111685Y-87660580D01*
X103254424Y-87841644D01*
X103314034Y-87895411D01*
X103351219Y-87955888D01*
X103349805Y-88026871D01*
X103310240Y-88085821D01*
X103265138Y-88109868D01*
X103195330Y-88130365D01*
X103195328Y-88130366D01*
X103186684Y-88132904D01*
X103179105Y-88137775D01*
X103071309Y-88207051D01*
X103071306Y-88207053D01*
X103063729Y-88211923D01*
X103057828Y-88218733D01*
X102973918Y-88315569D01*
X102973916Y-88315572D01*
X102968016Y-88322381D01*
X102907300Y-88455330D01*
X102906018Y-88464245D01*
X102906018Y-88464246D01*
X102887139Y-88595552D01*
X102887138Y-88595559D01*
X102886500Y-88600000D01*
X59042131Y-88600000D01*
X59095141Y-88289881D01*
X59095921Y-88283141D01*
X59117808Y-87925275D01*
X59117924Y-87921673D01*
X59117994Y-87901820D01*
X59117902Y-87898193D01*
X59098514Y-87540200D01*
X59097779Y-87533434D01*
X59040101Y-87181218D01*
X59038634Y-87174546D01*
X58943258Y-86830634D01*
X58941084Y-86824170D01*
X58809115Y-86492547D01*
X58806259Y-86486367D01*
X58639249Y-86170939D01*
X58635749Y-86165114D01*
X58435637Y-85869550D01*
X58431523Y-85864130D01*
X58314089Y-85725656D01*
X58301263Y-85717219D01*
X58290938Y-85723272D01*
X56127022Y-87887188D01*
X56119408Y-87901132D01*
X55389356Y-87901132D01*
X55390592Y-87898868D01*
X55390461Y-87897035D01*
X55386210Y-87890420D01*
X53220479Y-85724689D01*
X53206942Y-85717297D01*
X53197241Y-85724084D01*
X53085595Y-85854806D01*
X53081461Y-85860214D01*
X52880336Y-86155051D01*
X52876801Y-86160888D01*
X52708694Y-86475725D01*
X52705813Y-86481904D01*
X52572689Y-86813060D01*
X52570498Y-86819495D01*
X52473913Y-87163106D01*
X52472430Y-87169742D01*
X52413521Y-87521765D01*
X52412762Y-87528537D01*
X52392216Y-87884862D01*
X52392192Y-87891657D01*
X52067937Y-87891657D01*
X52067853Y-87884862D01*
X52067584Y-87863204D01*
X52067584Y-87863200D01*
X52067528Y-87858717D01*
X52064504Y-87839323D01*
X52063000Y-87819911D01*
X52063000Y-85351446D01*
X53569532Y-85351446D01*
X53569567Y-85352286D01*
X53574618Y-85360408D01*
X55742188Y-87527978D01*
X55756132Y-87535592D01*
X55757965Y-87535461D01*
X55764580Y-87531210D01*
X57933214Y-85362576D01*
X57940828Y-85348632D01*
X57940760Y-85347677D01*
X57935817Y-85340202D01*
X57931915Y-85336881D01*
X57647993Y-85120590D01*
X57642369Y-85116768D01*
X57336755Y-84932409D01*
X57330738Y-84929210D01*
X57007006Y-84778939D01*
X57000670Y-84776405D01*
X56662612Y-84661979D01*
X56656044Y-84660145D01*
X56307606Y-84582899D01*
X56300867Y-84581783D01*
X55946109Y-84542617D01*
X55939328Y-84542238D01*
X55582391Y-84541615D01*
X55575618Y-84541970D01*
X55220704Y-84579899D01*
X55213994Y-84580986D01*
X54865271Y-84657020D01*
X54858696Y-84658831D01*
X54520225Y-84772082D01*
X54513903Y-84774585D01*
X54189649Y-84923725D01*
X54183606Y-84926911D01*
X53877362Y-85110195D01*
X53871716Y-85114003D01*
X53587038Y-85329303D01*
X53581848Y-85333690D01*
X53577555Y-85337735D01*
X53569532Y-85351446D01*
X52063000Y-85351446D01*
X52063000Y-80852342D01*
X59947477Y-80852342D01*
X59958461Y-80915273D01*
X59959421Y-80921766D01*
X59967096Y-80985194D01*
X59969781Y-80992298D01*
X59970418Y-80994893D01*
X59974872Y-81011175D01*
X59975648Y-81013745D01*
X59976953Y-81021224D01*
X59980004Y-81028175D01*
X59980006Y-81028181D01*
X60002624Y-81079705D01*
X60005117Y-81085814D01*
X60019198Y-81123077D01*
X60027694Y-81145562D01*
X60032000Y-81151827D01*
X60033250Y-81154218D01*
X60041433Y-81168920D01*
X60042807Y-81171243D01*
X60045861Y-81178201D01*
X60050486Y-81184228D01*
X60050488Y-81184232D01*
X60084746Y-81228878D01*
X60088615Y-81234203D01*
X60124796Y-81286846D01*
X60130466Y-81291898D01*
X60130467Y-81291899D01*
X60168682Y-81325947D01*
X60173958Y-81330928D01*
X60642493Y-81799463D01*
X60676519Y-81861775D01*
X60678956Y-81878014D01*
X60683150Y-81927956D01*
X60737672Y-82118094D01*
X60828086Y-82294021D01*
X60831911Y-82298847D01*
X60833689Y-82301090D01*
X60834250Y-82302475D01*
X60835251Y-82304029D01*
X60834956Y-82304219D01*
X60860325Y-82366901D01*
X60847153Y-82436665D01*
X60843743Y-82442404D01*
X60843747Y-82442406D01*
X60748456Y-82615740D01*
X60688647Y-82804282D01*
X60666599Y-83000849D01*
X60683150Y-83197956D01*
X60693319Y-83233419D01*
X60734514Y-83377080D01*
X60737672Y-83388094D01*
X60740487Y-83393571D01*
X60821797Y-83551783D01*
X60828086Y-83564021D01*
X60831910Y-83568846D01*
X60831918Y-83568858D01*
X60834017Y-83571506D01*
X60834679Y-83573141D01*
X60835251Y-83574029D01*
X60835082Y-83574138D01*
X60860651Y-83637317D01*
X60847476Y-83707081D01*
X60844147Y-83712681D01*
X60844160Y-83712688D01*
X60751882Y-83880542D01*
X60747054Y-83891806D01*
X60690998Y-84068516D01*
X60688450Y-84080503D01*
X60667786Y-84264731D01*
X60667615Y-84277000D01*
X60683126Y-84461725D01*
X60685341Y-84473790D01*
X60736436Y-84651983D01*
X60740955Y-84663395D01*
X60825688Y-84828268D01*
X60832330Y-84838573D01*
X60833977Y-84840651D01*
X60834497Y-84841936D01*
X60835672Y-84843759D01*
X60835326Y-84843982D01*
X60860619Y-84906460D01*
X60847453Y-84976225D01*
X60843857Y-84982275D01*
X60843747Y-84982406D01*
X60748456Y-85155740D01*
X60746595Y-85161607D01*
X60746594Y-85161609D01*
X60693399Y-85329303D01*
X60688647Y-85344282D01*
X60666599Y-85540849D01*
X60683150Y-85737956D01*
X60707942Y-85824415D01*
X60735531Y-85920626D01*
X60737672Y-85928094D01*
X60740487Y-85933571D01*
X60805490Y-86060053D01*
X60828086Y-86104021D01*
X60950949Y-86259036D01*
X60955636Y-86263025D01*
X60955639Y-86263028D01*
X61049721Y-86343098D01*
X61101582Y-86387235D01*
X61106960Y-86390241D01*
X61106962Y-86390242D01*
X61268866Y-86480727D01*
X61274246Y-86483734D01*
X61462366Y-86544857D01*
X61658775Y-86568278D01*
X61664910Y-86567806D01*
X61664912Y-86567806D01*
X61849850Y-86553576D01*
X61849854Y-86553575D01*
X61855992Y-86553103D01*
X62046507Y-86499910D01*
X62140899Y-86452229D01*
X62205573Y-86419560D01*
X62275396Y-86406700D01*
X62323855Y-86422038D01*
X62434246Y-86483734D01*
X62622366Y-86544857D01*
X62818775Y-86568278D01*
X62824910Y-86567806D01*
X62824912Y-86567806D01*
X63009850Y-86553576D01*
X63009854Y-86553575D01*
X63015992Y-86553103D01*
X63206507Y-86499910D01*
X63383060Y-86410726D01*
X63409279Y-86390242D01*
X63534073Y-86292742D01*
X63538929Y-86288948D01*
X63561303Y-86263028D01*
X63664147Y-86143882D01*
X63664148Y-86143880D01*
X63668176Y-86139214D01*
X63765878Y-85967228D01*
X63828314Y-85779539D01*
X63853105Y-85583299D01*
X63853500Y-85555000D01*
X63834198Y-85358143D01*
X63777027Y-85168785D01*
X63684166Y-84994138D01*
X63680268Y-84989358D01*
X63679548Y-84988275D01*
X63658508Y-84920467D01*
X63674937Y-84856306D01*
X63762374Y-84702389D01*
X63767370Y-84691167D01*
X63825878Y-84515285D01*
X63828599Y-84503307D01*
X63852162Y-84316789D01*
X63852654Y-84309760D01*
X63852951Y-84288505D01*
X63852658Y-84281512D01*
X63834309Y-84094374D01*
X63831926Y-84082339D01*
X63778346Y-83904876D01*
X63773671Y-83893534D01*
X63686645Y-83729862D01*
X63679575Y-83719219D01*
X63658540Y-83651410D01*
X63674969Y-83587257D01*
X63735102Y-83481403D01*
X63765878Y-83427228D01*
X63828314Y-83239539D01*
X63853105Y-83043299D01*
X63853500Y-83015000D01*
X63834198Y-82818143D01*
X63777027Y-82628785D01*
X63684166Y-82454138D01*
X63680268Y-82449359D01*
X63679857Y-82448740D01*
X63658816Y-82380933D01*
X63675245Y-82316770D01*
X63683366Y-82302475D01*
X63765878Y-82157228D01*
X63828314Y-81969539D01*
X63853105Y-81773299D01*
X63853500Y-81745000D01*
X63834198Y-81548143D01*
X63777027Y-81358785D01*
X63684166Y-81184138D01*
X63680268Y-81179359D01*
X63679857Y-81178740D01*
X63658816Y-81110933D01*
X63675245Y-81046770D01*
X63685805Y-81028181D01*
X63765878Y-80887228D01*
X63828314Y-80699539D01*
X63853105Y-80503299D01*
X63853500Y-80475000D01*
X63834198Y-80278143D01*
X63777027Y-80088785D01*
X63684166Y-79914138D01*
X63584988Y-79792533D01*
X63563045Y-79765628D01*
X63563042Y-79765625D01*
X63559150Y-79760853D01*
X63541609Y-79746342D01*
X63501872Y-79687510D01*
X63500249Y-79616532D01*
X63532830Y-79560163D01*
X72232588Y-70860405D01*
X72294900Y-70826379D01*
X72321683Y-70823500D01*
X90248601Y-70823500D01*
X90322661Y-70847563D01*
X90403250Y-70906114D01*
X90409278Y-70908798D01*
X90409280Y-70908799D01*
X90571682Y-70981105D01*
X90577713Y-70983790D01*
X90671113Y-71003643D01*
X90758056Y-71022124D01*
X90758061Y-71022124D01*
X90764513Y-71023496D01*
X90955487Y-71023496D01*
X90961939Y-71022124D01*
X90961944Y-71022124D01*
X91048887Y-71003643D01*
X91142287Y-70983790D01*
X91148318Y-70981105D01*
X91310720Y-70908799D01*
X91310722Y-70908798D01*
X91316750Y-70906114D01*
X91322092Y-70902233D01*
X91465907Y-70797746D01*
X91465909Y-70797744D01*
X91471251Y-70793863D01*
X91599037Y-70651942D01*
X91694524Y-70486554D01*
X91700667Y-70467646D01*
X91740741Y-70409042D01*
X91806137Y-70381405D01*
X91876094Y-70393512D01*
X91928400Y-70441518D01*
X91946500Y-70506584D01*
X91946500Y-75223337D01*
X91926498Y-75291458D01*
X91917021Y-75304328D01*
X91817710Y-75422682D01*
X91817706Y-75422688D01*
X91813747Y-75427406D01*
X91810783Y-75432798D01*
X91810780Y-75432802D01*
X91744586Y-75553210D01*
X91718456Y-75600740D01*
X91658647Y-75789282D01*
X91636599Y-75985849D01*
X91653150Y-76182956D01*
X91707672Y-76373094D01*
X91721631Y-76400255D01*
X91782020Y-76517759D01*
X91798086Y-76549021D01*
X91920949Y-76704036D01*
X91925636Y-76708025D01*
X91925639Y-76708028D01*
X92054016Y-76817285D01*
X92071582Y-76832235D01*
X92076960Y-76835241D01*
X92076962Y-76835242D01*
X92222784Y-76916739D01*
X92244246Y-76928734D01*
X92432366Y-76989857D01*
X92628775Y-77013278D01*
X92634910Y-77012806D01*
X92634912Y-77012806D01*
X92819849Y-76998576D01*
X92819852Y-76998575D01*
X92825992Y-76998103D01*
X92831926Y-76996446D01*
X92833861Y-76996105D01*
X92904420Y-77003974D01*
X92944836Y-77031096D01*
X99338094Y-83424353D01*
X99344878Y-83431808D01*
X99348764Y-83437931D01*
X99354541Y-83443356D01*
X99395057Y-83481403D01*
X99397899Y-83484158D01*
X99422357Y-83508616D01*
X99425486Y-83511043D01*
X99427317Y-83512464D01*
X99436331Y-83520163D01*
X99454075Y-83536825D01*
X99470004Y-83551783D01*
X99476949Y-83555601D01*
X99488792Y-83562112D01*
X99505315Y-83572965D01*
X99522251Y-83586102D01*
X99529526Y-83589250D01*
X99564618Y-83604436D01*
X99575278Y-83609658D01*
X99608807Y-83628091D01*
X99608810Y-83628092D01*
X99615749Y-83631907D01*
X99636515Y-83637239D01*
X99655212Y-83643641D01*
X99667616Y-83649008D01*
X99667621Y-83649009D01*
X99674890Y-83652155D01*
X99682710Y-83653394D01*
X99682718Y-83653396D01*
X99720498Y-83659380D01*
X99732118Y-83661786D01*
X99771086Y-83671791D01*
X99771092Y-83671792D01*
X99776841Y-83673268D01*
X99780528Y-83673500D01*
X99799737Y-83673500D01*
X99819447Y-83675051D01*
X99839159Y-83678173D01*
X99847051Y-83677427D01*
X99872186Y-83675051D01*
X99882681Y-83674059D01*
X99894538Y-83673500D01*
X102878215Y-83673500D01*
X102946336Y-83693502D01*
X102992829Y-83747158D01*
X103002933Y-83817432D01*
X102996654Y-83842491D01*
X102935882Y-84009917D01*
X102933111Y-84020184D01*
X102919008Y-84098174D01*
X102920427Y-84111414D01*
X102935062Y-84116000D01*
X105569079Y-84116000D01*
X105582610Y-84112027D01*
X105583876Y-84103218D01*
X105536954Y-83922433D01*
X105533419Y-83912395D01*
X105505875Y-83851250D01*
X105496134Y-83780925D01*
X105525959Y-83716497D01*
X105585883Y-83678422D01*
X105620757Y-83673500D01*
X111739212Y-83673500D01*
X111807333Y-83693502D01*
X111853826Y-83747158D01*
X111863930Y-83817432D01*
X111857651Y-83842490D01*
X111845883Y-83874912D01*
X111843111Y-83885184D01*
X111829008Y-83963174D01*
X111830427Y-83976414D01*
X111845062Y-83981000D01*
X114479079Y-83981000D01*
X114492610Y-83977027D01*
X114493876Y-83968218D01*
X114458301Y-83831155D01*
X114460548Y-83760194D01*
X114500802Y-83701712D01*
X114566284Y-83674278D01*
X114580260Y-83673500D01*
X121039212Y-83673500D01*
X121107333Y-83693502D01*
X121153826Y-83747158D01*
X121163930Y-83817432D01*
X121157651Y-83842490D01*
X121145883Y-83874912D01*
X121143111Y-83885184D01*
X121129008Y-83963174D01*
X121130427Y-83976414D01*
X121145062Y-83981000D01*
X123779079Y-83981000D01*
X123792610Y-83977027D01*
X123793876Y-83968218D01*
X123746954Y-83787433D01*
X123743419Y-83777395D01*
X123653147Y-83576998D01*
X123647967Y-83567692D01*
X123525218Y-83385366D01*
X123518557Y-83377080D01*
X123366830Y-83218030D01*
X123358873Y-83210990D01*
X123182524Y-83079783D01*
X123169981Y-83072005D01*
X123122628Y-83019107D01*
X123111391Y-82949005D01*
X123139838Y-82883957D01*
X123163122Y-82862409D01*
X123343711Y-82733357D01*
X123441527Y-82634685D01*
X123502277Y-82573403D01*
X123502278Y-82573402D01*
X123506030Y-82569617D01*
X123583224Y-82459577D01*
X123635375Y-82385236D01*
X123635376Y-82385234D01*
X123638439Y-82380868D01*
X123737153Y-82172508D01*
X123799349Y-81950494D01*
X123823249Y-81721176D01*
X123823500Y-81695000D01*
X123823250Y-81692052D01*
X123804458Y-81470576D01*
X123804457Y-81470572D01*
X123804007Y-81465265D01*
X123782466Y-81382269D01*
X123756074Y-81280587D01*
X123746084Y-81242098D01*
X123717301Y-81178201D01*
X123653578Y-81036743D01*
X123653577Y-81036741D01*
X123651388Y-81031882D01*
X123522627Y-80840626D01*
X123481599Y-80797617D01*
X123393619Y-80705391D01*
X123363482Y-80673799D01*
X123178504Y-80536171D01*
X123173753Y-80533755D01*
X123173749Y-80533753D01*
X122977740Y-80434097D01*
X122977739Y-80434097D01*
X122972982Y-80431678D01*
X122832033Y-80387912D01*
X122757895Y-80364891D01*
X122757889Y-80364890D01*
X122752792Y-80363307D01*
X122647798Y-80349391D01*
X122529515Y-80333714D01*
X122529510Y-80333714D01*
X122524230Y-80333014D01*
X122518900Y-80333214D01*
X122518899Y-80333214D01*
X122409030Y-80337339D01*
X122293831Y-80341663D01*
X122211368Y-80358966D01*
X122073411Y-80387912D01*
X122073408Y-80387913D01*
X122068184Y-80389009D01*
X121853740Y-80473697D01*
X121656631Y-80593306D01*
X121652601Y-80596803D01*
X121504245Y-80725539D01*
X121482492Y-80744415D01*
X121479109Y-80748541D01*
X121479105Y-80748545D01*
X121426538Y-80812656D01*
X121336304Y-80922705D01*
X121222245Y-81123077D01*
X121143578Y-81339802D01*
X121142629Y-81345051D01*
X121142628Y-81345054D01*
X121103501Y-81561429D01*
X121102551Y-81566683D01*
X121102500Y-81572023D01*
X121100602Y-81769775D01*
X121100338Y-81797233D01*
X121101187Y-81802504D01*
X121135344Y-82014567D01*
X121126429Y-82085002D01*
X121100042Y-82123699D01*
X120904146Y-82319595D01*
X120841834Y-82353621D01*
X120815051Y-82356500D01*
X114549103Y-82356500D01*
X114480982Y-82336498D01*
X114434489Y-82282842D01*
X114424385Y-82212568D01*
X114433447Y-82182491D01*
X114433001Y-82182324D01*
X114434869Y-82177330D01*
X114437153Y-82172508D01*
X114438593Y-82167371D01*
X114492374Y-81975391D01*
X114499349Y-81950494D01*
X114523249Y-81721176D01*
X114523500Y-81695000D01*
X114523250Y-81692052D01*
X114504458Y-81470576D01*
X114504457Y-81470572D01*
X114504007Y-81465265D01*
X114482466Y-81382269D01*
X114456074Y-81280587D01*
X114446084Y-81242098D01*
X114417301Y-81178201D01*
X114353578Y-81036743D01*
X114353577Y-81036741D01*
X114351388Y-81031882D01*
X114222627Y-80840626D01*
X114181599Y-80797617D01*
X114093619Y-80705391D01*
X114063482Y-80673799D01*
X113878504Y-80536171D01*
X113873753Y-80533755D01*
X113873749Y-80533753D01*
X113677740Y-80434097D01*
X113677739Y-80434097D01*
X113672982Y-80431678D01*
X113532033Y-80387912D01*
X113457895Y-80364891D01*
X113457889Y-80364890D01*
X113452792Y-80363307D01*
X113347798Y-80349391D01*
X113229515Y-80333714D01*
X113229510Y-80333714D01*
X113224230Y-80333014D01*
X113218900Y-80333214D01*
X113218899Y-80333214D01*
X113109030Y-80337339D01*
X112993831Y-80341663D01*
X112911368Y-80358966D01*
X112773411Y-80387912D01*
X112773408Y-80387913D01*
X112768184Y-80389009D01*
X112553740Y-80473697D01*
X112356631Y-80593306D01*
X112352601Y-80596803D01*
X112204245Y-80725539D01*
X112182492Y-80744415D01*
X112179109Y-80748541D01*
X112179105Y-80748545D01*
X112126538Y-80812656D01*
X112036304Y-80922705D01*
X111922245Y-81123077D01*
X111843578Y-81339802D01*
X111842629Y-81345051D01*
X111842628Y-81345054D01*
X111803501Y-81561429D01*
X111802551Y-81566683D01*
X111802500Y-81572023D01*
X111800602Y-81769775D01*
X111800338Y-81797233D01*
X111837002Y-82024861D01*
X111855888Y-82080180D01*
X111893309Y-82189791D01*
X111896389Y-82260720D01*
X111860633Y-82322055D01*
X111797392Y-82354322D01*
X111774067Y-82356500D01*
X105679577Y-82356500D01*
X105611456Y-82336498D01*
X105564963Y-82282842D01*
X105554859Y-82212568D01*
X105558248Y-82196510D01*
X105589349Y-82085494D01*
X105613249Y-81856176D01*
X105613500Y-81830000D01*
X105604517Y-81724127D01*
X105594458Y-81605576D01*
X105594457Y-81605572D01*
X105594007Y-81600265D01*
X105536084Y-81377098D01*
X105530493Y-81364685D01*
X105443578Y-81171743D01*
X105443577Y-81171741D01*
X105441388Y-81166882D01*
X105312627Y-80975626D01*
X105261262Y-80921781D01*
X105233416Y-80892591D01*
X105153482Y-80808799D01*
X105126935Y-80789047D01*
X104972786Y-80674357D01*
X104972787Y-80674357D01*
X104968504Y-80671171D01*
X104963753Y-80668755D01*
X104963749Y-80668753D01*
X104767740Y-80569097D01*
X104767739Y-80569097D01*
X104762982Y-80566678D01*
X104622033Y-80522912D01*
X104547895Y-80499891D01*
X104547889Y-80499890D01*
X104542792Y-80498307D01*
X104437798Y-80484391D01*
X104319515Y-80468714D01*
X104319510Y-80468714D01*
X104314230Y-80468014D01*
X104308900Y-80468214D01*
X104308899Y-80468214D01*
X104221047Y-80471512D01*
X104083831Y-80476663D01*
X104001368Y-80493966D01*
X103863411Y-80522912D01*
X103863408Y-80522913D01*
X103858184Y-80524009D01*
X103643740Y-80608697D01*
X103446631Y-80728306D01*
X103442601Y-80731803D01*
X103295068Y-80859825D01*
X103272492Y-80879415D01*
X103269109Y-80883541D01*
X103269105Y-80883545D01*
X103196768Y-80971767D01*
X103126304Y-81057705D01*
X103123665Y-81062341D01*
X103123663Y-81062344D01*
X103071365Y-81154218D01*
X103012245Y-81258077D01*
X102933578Y-81474802D01*
X102932629Y-81480051D01*
X102932628Y-81480054D01*
X102893759Y-81695000D01*
X102892551Y-81701683D01*
X102891864Y-81773299D01*
X102891097Y-81853210D01*
X102890338Y-81932233D01*
X102891187Y-81937504D01*
X102921157Y-82123571D01*
X102927002Y-82159861D01*
X102928725Y-82164907D01*
X102928725Y-82164908D01*
X102937220Y-82189790D01*
X102940300Y-82260720D01*
X102904544Y-82322055D01*
X102841304Y-82354322D01*
X102817978Y-82356500D01*
X100184950Y-82356500D01*
X100116829Y-82336498D01*
X100095855Y-82319595D01*
X93683144Y-75906885D01*
X93649118Y-75844573D01*
X93646840Y-75830087D01*
X93644799Y-75809275D01*
X93644198Y-75803143D01*
X93587027Y-75613785D01*
X93494166Y-75439138D01*
X93391857Y-75313694D01*
X93364303Y-75248263D01*
X93363500Y-75234059D01*
X93363500Y-68400000D01*
X93686500Y-68400000D01*
X93687190Y-68406565D01*
X93699683Y-68525424D01*
X93706462Y-68589927D01*
X93765476Y-68771554D01*
X93860963Y-68936942D01*
X93988749Y-69078863D01*
X93994091Y-69082744D01*
X93994093Y-69082746D01*
X94119137Y-69173595D01*
X94143250Y-69191114D01*
X94149278Y-69193798D01*
X94149280Y-69193799D01*
X94311682Y-69266105D01*
X94317713Y-69268790D01*
X94411113Y-69288643D01*
X94498056Y-69307124D01*
X94498061Y-69307124D01*
X94504513Y-69308496D01*
X94525046Y-69308496D01*
X94593167Y-69328498D01*
X94614142Y-69345401D01*
X94678100Y-69409360D01*
X94684878Y-69416809D01*
X94688764Y-69422931D01*
X94694542Y-69428357D01*
X94735057Y-69466403D01*
X94737899Y-69469158D01*
X94762357Y-69493616D01*
X94765486Y-69496043D01*
X94767317Y-69497464D01*
X94776331Y-69505163D01*
X94802098Y-69529359D01*
X94810004Y-69536783D01*
X94816949Y-69540601D01*
X94828792Y-69547112D01*
X94845315Y-69557965D01*
X94862251Y-69571102D01*
X94869526Y-69574250D01*
X94904618Y-69589436D01*
X94915278Y-69594658D01*
X94948807Y-69613091D01*
X94948810Y-69613092D01*
X94955749Y-69616907D01*
X94976515Y-69622239D01*
X94995212Y-69628641D01*
X95007616Y-69634008D01*
X95007621Y-69634009D01*
X95014890Y-69637155D01*
X95022710Y-69638394D01*
X95022718Y-69638396D01*
X95060498Y-69644380D01*
X95072118Y-69646786D01*
X95111086Y-69656791D01*
X95111092Y-69656792D01*
X95116841Y-69658268D01*
X95120528Y-69658500D01*
X95139737Y-69658500D01*
X95159447Y-69660051D01*
X95179159Y-69663173D01*
X95187051Y-69662427D01*
X95222680Y-69659059D01*
X95234538Y-69658500D01*
X102760500Y-69658500D01*
X102828621Y-69678502D01*
X102875114Y-69732158D01*
X102886500Y-69784500D01*
X102886500Y-71300000D01*
X102891727Y-71373079D01*
X102932904Y-71513316D01*
X102937775Y-71520895D01*
X103007051Y-71628691D01*
X103007053Y-71628694D01*
X103011923Y-71636271D01*
X103018733Y-71642172D01*
X103115569Y-71726082D01*
X103115572Y-71726084D01*
X103122381Y-71731984D01*
X103255330Y-71792700D01*
X103261639Y-71793607D01*
X103320244Y-71831269D01*
X103349738Y-71895849D01*
X103339636Y-71966123D01*
X103307601Y-72008949D01*
X103272492Y-72039415D01*
X103269109Y-72043541D01*
X103269105Y-72043545D01*
X103206544Y-72119845D01*
X103126304Y-72217705D01*
X103123665Y-72222341D01*
X103123663Y-72222344D01*
X103081619Y-72296205D01*
X103012245Y-72418077D01*
X102933578Y-72634802D01*
X102932629Y-72640051D01*
X102932628Y-72640054D01*
X102910890Y-72760265D01*
X102892551Y-72861683D01*
X102892243Y-72893799D01*
X102891097Y-73013210D01*
X102890338Y-73092233D01*
X102927002Y-73319861D01*
X103001494Y-73538056D01*
X103111685Y-73740580D01*
X103254424Y-73921644D01*
X103258389Y-73925220D01*
X103421659Y-74072489D01*
X103421665Y-74072494D01*
X103425629Y-74076069D01*
X103430142Y-74078928D01*
X103430144Y-74078929D01*
X103548242Y-74153731D01*
X103595087Y-74207079D01*
X103605654Y-74277285D01*
X103576587Y-74342058D01*
X103546186Y-74367894D01*
X103451196Y-74425535D01*
X103451189Y-74425540D01*
X103446631Y-74428306D01*
X103442601Y-74431803D01*
X103349426Y-74512656D01*
X103272492Y-74579415D01*
X103269109Y-74583541D01*
X103269105Y-74583545D01*
X103196768Y-74671767D01*
X103126304Y-74757705D01*
X103012245Y-74958077D01*
X102933578Y-75174802D01*
X102932629Y-75180051D01*
X102932628Y-75180054D01*
X102910890Y-75300265D01*
X102892551Y-75401683D01*
X102892139Y-75444580D01*
X102891097Y-75553210D01*
X102890338Y-75632233D01*
X102927002Y-75859861D01*
X103001494Y-76078056D01*
X103111685Y-76280580D01*
X103254424Y-76461644D01*
X103258389Y-76465220D01*
X103421659Y-76612489D01*
X103421665Y-76612494D01*
X103425629Y-76616069D01*
X103430142Y-76618928D01*
X103430144Y-76618929D01*
X103548242Y-76693731D01*
X103595087Y-76747079D01*
X103605654Y-76817285D01*
X103576587Y-76882058D01*
X103546186Y-76907894D01*
X103451196Y-76965535D01*
X103451189Y-76965540D01*
X103446631Y-76968306D01*
X103442601Y-76971803D01*
X103349426Y-77052656D01*
X103272492Y-77119415D01*
X103269109Y-77123541D01*
X103269105Y-77123545D01*
X103184583Y-77226628D01*
X103126304Y-77297705D01*
X103012245Y-77498077D01*
X102933578Y-77714802D01*
X102932629Y-77720051D01*
X102932628Y-77720054D01*
X102910890Y-77840265D01*
X102892551Y-77941683D01*
X102892500Y-77947023D01*
X102890519Y-78153423D01*
X102890338Y-78172233D01*
X102927002Y-78399861D01*
X103001494Y-78618056D01*
X103111685Y-78820580D01*
X103254424Y-79001644D01*
X103258389Y-79005220D01*
X103421659Y-79152489D01*
X103421665Y-79152494D01*
X103425629Y-79156069D01*
X103620406Y-79279439D01*
X103833184Y-79368228D01*
X103838387Y-79369425D01*
X103838392Y-79369426D01*
X104052678Y-79418701D01*
X104052683Y-79418702D01*
X104057881Y-79419897D01*
X104063209Y-79420200D01*
X104063212Y-79420200D01*
X104219293Y-79429063D01*
X104288071Y-79432968D01*
X104293378Y-79432368D01*
X104293380Y-79432368D01*
X104414272Y-79418701D01*
X104517173Y-79407068D01*
X104522288Y-79405587D01*
X104522292Y-79405586D01*
X104651298Y-79368228D01*
X104738635Y-79342937D01*
X104946125Y-79242409D01*
X104950463Y-79239309D01*
X104950468Y-79239306D01*
X105129370Y-79111459D01*
X105133711Y-79108357D01*
X105296030Y-78944617D01*
X105383043Y-78820580D01*
X105425375Y-78760236D01*
X105425376Y-78760234D01*
X105428439Y-78755868D01*
X105527153Y-78547508D01*
X105589349Y-78325494D01*
X105613249Y-78096176D01*
X105613500Y-78070000D01*
X105605947Y-77980980D01*
X105594458Y-77845576D01*
X105594457Y-77845572D01*
X105594007Y-77840265D01*
X105572331Y-77756749D01*
X105537426Y-77622269D01*
X105536084Y-77617098D01*
X105505394Y-77548968D01*
X105443578Y-77411743D01*
X105443577Y-77411741D01*
X105441388Y-77406882D01*
X105312627Y-77215626D01*
X105153482Y-77048799D01*
X104968504Y-76911171D01*
X104963743Y-76908751D01*
X104960425Y-76906693D01*
X104913071Y-76853796D01*
X104901832Y-76783695D01*
X104930277Y-76718645D01*
X104953564Y-76697093D01*
X104962790Y-76690500D01*
X118839500Y-76690500D01*
X118839500Y-78214500D01*
X118844727Y-78287579D01*
X118885904Y-78427816D01*
X118890775Y-78435395D01*
X118960051Y-78543191D01*
X118960053Y-78543194D01*
X118964923Y-78550771D01*
X118971733Y-78556672D01*
X119068569Y-78640582D01*
X119068572Y-78640584D01*
X119075381Y-78646484D01*
X119208330Y-78707200D01*
X119217245Y-78708482D01*
X119217246Y-78708482D01*
X119348552Y-78727361D01*
X119348559Y-78727362D01*
X119353000Y-78728000D01*
X120877000Y-78728000D01*
X120950079Y-78722773D01*
X121028165Y-78699845D01*
X121081670Y-78684135D01*
X121081672Y-78684134D01*
X121090316Y-78681596D01*
X121154135Y-78640582D01*
X121205691Y-78607449D01*
X121205694Y-78607447D01*
X121213271Y-78602577D01*
X121256810Y-78552331D01*
X121303082Y-78498931D01*
X121303084Y-78498928D01*
X121308984Y-78492119D01*
X121351117Y-78399861D01*
X121365958Y-78367364D01*
X121365958Y-78367363D01*
X121369700Y-78359170D01*
X121386552Y-78241960D01*
X121416045Y-78177379D01*
X121475771Y-78138995D01*
X121546768Y-78138995D01*
X121608774Y-78180085D01*
X121743690Y-78344921D01*
X121747953Y-78348562D01*
X121747958Y-78348567D01*
X121897028Y-78475884D01*
X121916127Y-78492196D01*
X121927653Y-78498931D01*
X122107072Y-78603775D01*
X122107075Y-78603776D01*
X122111919Y-78606607D01*
X122117189Y-78608536D01*
X122117190Y-78608536D01*
X122319612Y-78682612D01*
X122319616Y-78682613D01*
X122324876Y-78684538D01*
X122330393Y-78685501D01*
X122330397Y-78685502D01*
X122513812Y-78717513D01*
X122548269Y-78723527D01*
X122553875Y-78723498D01*
X122553879Y-78723498D01*
X122657475Y-78722955D01*
X122775035Y-78722339D01*
X122780553Y-78721316D01*
X122780556Y-78721316D01*
X122992488Y-78682037D01*
X122992489Y-78682037D01*
X122998007Y-78681014D01*
X123003252Y-78679032D01*
X123003256Y-78679031D01*
X123177996Y-78613002D01*
X123210137Y-78600857D01*
X123404720Y-78484401D01*
X123408940Y-78480719D01*
X123408945Y-78480716D01*
X123571375Y-78339019D01*
X123575605Y-78335329D01*
X123670605Y-78216750D01*
X123713885Y-78162728D01*
X123713888Y-78162723D01*
X123717391Y-78158351D01*
X123720068Y-78153422D01*
X123766962Y-78067052D01*
X123813696Y-77980979D01*
X123863777Y-77930659D01*
X123933115Y-77915402D01*
X123999694Y-77940054D01*
X124034520Y-77979822D01*
X124140059Y-78169437D01*
X124143612Y-78173777D01*
X124143614Y-78173781D01*
X124148774Y-78180085D01*
X124283690Y-78344921D01*
X124287953Y-78348562D01*
X124287958Y-78348567D01*
X124437028Y-78475884D01*
X124456127Y-78492196D01*
X124467653Y-78498931D01*
X124647072Y-78603775D01*
X124647075Y-78603776D01*
X124651919Y-78606607D01*
X124657189Y-78608536D01*
X124657190Y-78608536D01*
X124859612Y-78682612D01*
X124859616Y-78682613D01*
X124864876Y-78684538D01*
X124870393Y-78685501D01*
X124870397Y-78685502D01*
X125053812Y-78717513D01*
X125088269Y-78723527D01*
X125093875Y-78723498D01*
X125093879Y-78723498D01*
X125197475Y-78722955D01*
X125315035Y-78722339D01*
X125320553Y-78721316D01*
X125320556Y-78721316D01*
X125532488Y-78682037D01*
X125532489Y-78682037D01*
X125538007Y-78681014D01*
X125543252Y-78679032D01*
X125543256Y-78679031D01*
X125717996Y-78613002D01*
X125750137Y-78600857D01*
X125944720Y-78484401D01*
X125948940Y-78480719D01*
X125948945Y-78480716D01*
X126111375Y-78339019D01*
X126115605Y-78335329D01*
X126210605Y-78216750D01*
X126253885Y-78162728D01*
X126253888Y-78162723D01*
X126257391Y-78158351D01*
X126260068Y-78153422D01*
X126306962Y-78067052D01*
X126353696Y-77980979D01*
X126403777Y-77930659D01*
X126473115Y-77915402D01*
X126539694Y-77940054D01*
X126574520Y-77979822D01*
X126680059Y-78169437D01*
X126683612Y-78173777D01*
X126683614Y-78173781D01*
X126688774Y-78180085D01*
X126823690Y-78344921D01*
X126827953Y-78348562D01*
X126827958Y-78348567D01*
X126977028Y-78475884D01*
X126996127Y-78492196D01*
X127007653Y-78498931D01*
X127187072Y-78603775D01*
X127187075Y-78603776D01*
X127191919Y-78606607D01*
X127197189Y-78608536D01*
X127197190Y-78608536D01*
X127399612Y-78682612D01*
X127399616Y-78682613D01*
X127404876Y-78684538D01*
X127410393Y-78685501D01*
X127410397Y-78685502D01*
X127593812Y-78717513D01*
X127628269Y-78723527D01*
X127633875Y-78723498D01*
X127633879Y-78723498D01*
X127737475Y-78722955D01*
X127855035Y-78722339D01*
X127860553Y-78721316D01*
X127860556Y-78721316D01*
X128072488Y-78682037D01*
X128072489Y-78682037D01*
X128078007Y-78681014D01*
X128083252Y-78679032D01*
X128083256Y-78679031D01*
X128257996Y-78613002D01*
X128290137Y-78600857D01*
X128484720Y-78484401D01*
X128488940Y-78480719D01*
X128488945Y-78480716D01*
X128651375Y-78339019D01*
X128655605Y-78335329D01*
X128750605Y-78216750D01*
X128793885Y-78162728D01*
X128793888Y-78162723D01*
X128797391Y-78158351D01*
X128800068Y-78153422D01*
X128846962Y-78067052D01*
X128893696Y-77980979D01*
X128943777Y-77930659D01*
X129013115Y-77915402D01*
X129079694Y-77940054D01*
X129114520Y-77979822D01*
X129220059Y-78169437D01*
X129223612Y-78173777D01*
X129223614Y-78173781D01*
X129228774Y-78180085D01*
X129363690Y-78344921D01*
X129367953Y-78348562D01*
X129367958Y-78348567D01*
X129517028Y-78475884D01*
X129536127Y-78492196D01*
X129547653Y-78498931D01*
X129727072Y-78603775D01*
X129727075Y-78603776D01*
X129731919Y-78606607D01*
X129737189Y-78608536D01*
X129737190Y-78608536D01*
X129939612Y-78682612D01*
X129939616Y-78682613D01*
X129944876Y-78684538D01*
X129950393Y-78685501D01*
X129950397Y-78685502D01*
X130133812Y-78717513D01*
X130168269Y-78723527D01*
X130173875Y-78723498D01*
X130173879Y-78723498D01*
X130277475Y-78722955D01*
X130395035Y-78722339D01*
X130400553Y-78721316D01*
X130400556Y-78721316D01*
X130612488Y-78682037D01*
X130612489Y-78682037D01*
X130618007Y-78681014D01*
X130623252Y-78679032D01*
X130623256Y-78679031D01*
X130797996Y-78613002D01*
X130830137Y-78600857D01*
X131024720Y-78484401D01*
X131028940Y-78480719D01*
X131028945Y-78480716D01*
X131191375Y-78339019D01*
X131195605Y-78335329D01*
X131290605Y-78216750D01*
X131333885Y-78162728D01*
X131333888Y-78162723D01*
X131337391Y-78158351D01*
X131445596Y-77959062D01*
X131516800Y-77743762D01*
X131535520Y-77612229D01*
X131548241Y-77522846D01*
X131548241Y-77522845D01*
X131548752Y-77519255D01*
X131550500Y-77452500D01*
X131546863Y-77411743D01*
X131537416Y-77305898D01*
X131530341Y-77226628D01*
X131470503Y-77007896D01*
X131372876Y-76803218D01*
X131240547Y-76619062D01*
X131077698Y-76461250D01*
X130955257Y-76378973D01*
X130894130Y-76337897D01*
X130894124Y-76337894D01*
X130889477Y-76334771D01*
X130884345Y-76332518D01*
X130884341Y-76332516D01*
X130686975Y-76245878D01*
X130686973Y-76245877D01*
X130681833Y-76243621D01*
X130517628Y-76204199D01*
X130466786Y-76191993D01*
X130466785Y-76191993D01*
X130461329Y-76190683D01*
X130347699Y-76184131D01*
X130240542Y-76177952D01*
X130240539Y-76177952D01*
X130234936Y-76177629D01*
X130009809Y-76204873D01*
X130004447Y-76206523D01*
X130004445Y-76206523D01*
X129933739Y-76228275D01*
X129793064Y-76271552D01*
X129775573Y-76280580D01*
X129607801Y-76367174D01*
X129591553Y-76375560D01*
X129411645Y-76513608D01*
X129407872Y-76517754D01*
X129407867Y-76517759D01*
X129317182Y-76617421D01*
X129259026Y-76681334D01*
X129256043Y-76686089D01*
X129256041Y-76686092D01*
X129150841Y-76853796D01*
X129138521Y-76873435D01*
X129136429Y-76878639D01*
X129136428Y-76878641D01*
X129121113Y-76916739D01*
X129077146Y-76972483D01*
X129010021Y-76995608D01*
X128941050Y-76978771D01*
X128890480Y-76923987D01*
X128864099Y-76868679D01*
X128832876Y-76803218D01*
X128700547Y-76619062D01*
X128537698Y-76461250D01*
X128415257Y-76378973D01*
X128354130Y-76337897D01*
X128354124Y-76337894D01*
X128349477Y-76334771D01*
X128344345Y-76332518D01*
X128344341Y-76332516D01*
X128146975Y-76245878D01*
X128146973Y-76245877D01*
X128141833Y-76243621D01*
X127977628Y-76204199D01*
X127926786Y-76191993D01*
X127926785Y-76191993D01*
X127921329Y-76190683D01*
X127807699Y-76184131D01*
X127700542Y-76177952D01*
X127700539Y-76177952D01*
X127694936Y-76177629D01*
X127469809Y-76204873D01*
X127464447Y-76206523D01*
X127464445Y-76206523D01*
X127393739Y-76228275D01*
X127253064Y-76271552D01*
X127235573Y-76280580D01*
X127067801Y-76367174D01*
X127051553Y-76375560D01*
X126871645Y-76513608D01*
X126867872Y-76517754D01*
X126867867Y-76517759D01*
X126777182Y-76617421D01*
X126719026Y-76681334D01*
X126716043Y-76686089D01*
X126716041Y-76686092D01*
X126610841Y-76853796D01*
X126598521Y-76873435D01*
X126596429Y-76878639D01*
X126596428Y-76878641D01*
X126581113Y-76916739D01*
X126537146Y-76972483D01*
X126470021Y-76995608D01*
X126401050Y-76978771D01*
X126350480Y-76923987D01*
X126324099Y-76868679D01*
X126292876Y-76803218D01*
X126160547Y-76619062D01*
X125997698Y-76461250D01*
X125875257Y-76378973D01*
X125814130Y-76337897D01*
X125814124Y-76337894D01*
X125809477Y-76334771D01*
X125804345Y-76332518D01*
X125804341Y-76332516D01*
X125606975Y-76245878D01*
X125606973Y-76245877D01*
X125601833Y-76243621D01*
X125437628Y-76204199D01*
X125386786Y-76191993D01*
X125386785Y-76191993D01*
X125381329Y-76190683D01*
X125267699Y-76184131D01*
X125160542Y-76177952D01*
X125160539Y-76177952D01*
X125154936Y-76177629D01*
X124929809Y-76204873D01*
X124924447Y-76206523D01*
X124924445Y-76206523D01*
X124853739Y-76228275D01*
X124713064Y-76271552D01*
X124695573Y-76280580D01*
X124527801Y-76367174D01*
X124511553Y-76375560D01*
X124331645Y-76513608D01*
X124327872Y-76517754D01*
X124327867Y-76517759D01*
X124237182Y-76617421D01*
X124179026Y-76681334D01*
X124176043Y-76686089D01*
X124176041Y-76686092D01*
X124070841Y-76853796D01*
X124058521Y-76873435D01*
X124056429Y-76878639D01*
X124056428Y-76878641D01*
X124041113Y-76916739D01*
X123997146Y-76972483D01*
X123930021Y-76995608D01*
X123861050Y-76978771D01*
X123810480Y-76923987D01*
X123784099Y-76868679D01*
X123752876Y-76803218D01*
X123620547Y-76619062D01*
X123457698Y-76461250D01*
X123335257Y-76378973D01*
X123274130Y-76337897D01*
X123274124Y-76337894D01*
X123269477Y-76334771D01*
X123264345Y-76332518D01*
X123264341Y-76332516D01*
X123066975Y-76245878D01*
X123066973Y-76245877D01*
X123061833Y-76243621D01*
X122897628Y-76204199D01*
X122846786Y-76191993D01*
X122846785Y-76191993D01*
X122841329Y-76190683D01*
X122727699Y-76184131D01*
X122620542Y-76177952D01*
X122620539Y-76177952D01*
X122614936Y-76177629D01*
X122389809Y-76204873D01*
X122384447Y-76206523D01*
X122384445Y-76206523D01*
X122313739Y-76228275D01*
X122173064Y-76271552D01*
X122155573Y-76280580D01*
X121987801Y-76367174D01*
X121971553Y-76375560D01*
X121791645Y-76513608D01*
X121787872Y-76517754D01*
X121787867Y-76517759D01*
X121697182Y-76617421D01*
X121639026Y-76681334D01*
X121620254Y-76711258D01*
X121567113Y-76758335D01*
X121496954Y-76769208D01*
X121432054Y-76740425D01*
X121393018Y-76681123D01*
X121387839Y-76653293D01*
X121385755Y-76624159D01*
X121385755Y-76624158D01*
X121385273Y-76617421D01*
X121344096Y-76477184D01*
X121297460Y-76404617D01*
X121269949Y-76361809D01*
X121269947Y-76361806D01*
X121265077Y-76354229D01*
X121246229Y-76337897D01*
X121161431Y-76264418D01*
X121161428Y-76264416D01*
X121154619Y-76258516D01*
X121061233Y-76215868D01*
X121029864Y-76201542D01*
X121029863Y-76201542D01*
X121021670Y-76197800D01*
X121012755Y-76196518D01*
X121012754Y-76196518D01*
X120881448Y-76177639D01*
X120881441Y-76177638D01*
X120877000Y-76177000D01*
X119353000Y-76177000D01*
X119279921Y-76182227D01*
X119226884Y-76197800D01*
X119148330Y-76220865D01*
X119148328Y-76220866D01*
X119139684Y-76223404D01*
X119132105Y-76228275D01*
X119024309Y-76297551D01*
X119024306Y-76297553D01*
X119016729Y-76302423D01*
X119010828Y-76309233D01*
X118926918Y-76406069D01*
X118926916Y-76406072D01*
X118921016Y-76412881D01*
X118917272Y-76421079D01*
X118898927Y-76461250D01*
X118860300Y-76545830D01*
X118859018Y-76554745D01*
X118859018Y-76554746D01*
X118840139Y-76686052D01*
X118840138Y-76686059D01*
X118839500Y-76690500D01*
X104962790Y-76690500D01*
X104981428Y-76677181D01*
X105133711Y-76568357D01*
X105239498Y-76461644D01*
X105292277Y-76408403D01*
X105292278Y-76408402D01*
X105296030Y-76404617D01*
X105299090Y-76400255D01*
X105425375Y-76220236D01*
X105425376Y-76220234D01*
X105428439Y-76215868D01*
X105527153Y-76007508D01*
X105589349Y-75785494D01*
X105613249Y-75556176D01*
X105613500Y-75530000D01*
X105606252Y-75444580D01*
X105594458Y-75305576D01*
X105594457Y-75305572D01*
X105594007Y-75300265D01*
X105590267Y-75285853D01*
X105537426Y-75082269D01*
X105536084Y-75077098D01*
X105484731Y-74963098D01*
X105443578Y-74871743D01*
X105443577Y-74871741D01*
X105441388Y-74866882D01*
X105312627Y-74675626D01*
X105153482Y-74508799D01*
X104968504Y-74371171D01*
X104963743Y-74368751D01*
X104960425Y-74366693D01*
X104913071Y-74313796D01*
X104901832Y-74243695D01*
X104930277Y-74178645D01*
X104953564Y-74157093D01*
X104962304Y-74150847D01*
X105133711Y-74028357D01*
X105296030Y-73864617D01*
X105383043Y-73740580D01*
X105425375Y-73680236D01*
X105425376Y-73680234D01*
X105428439Y-73675868D01*
X105527153Y-73467508D01*
X105589349Y-73245494D01*
X105613249Y-73016176D01*
X105613500Y-72990000D01*
X105611473Y-72966105D01*
X105594458Y-72765576D01*
X105594457Y-72765572D01*
X105594007Y-72760265D01*
X105589734Y-72743799D01*
X105537426Y-72542269D01*
X105536084Y-72537098D01*
X105513491Y-72486942D01*
X105443578Y-72331743D01*
X105443577Y-72331741D01*
X105441388Y-72326882D01*
X105312627Y-72135626D01*
X105278642Y-72100000D01*
X105180868Y-71997507D01*
X105148321Y-71934410D01*
X105155052Y-71863733D01*
X105198926Y-71807916D01*
X105236538Y-71789640D01*
X105269545Y-71779948D01*
X105304670Y-71769635D01*
X105304672Y-71769634D01*
X105313316Y-71767096D01*
X105377135Y-71726082D01*
X105428691Y-71692949D01*
X105428694Y-71692947D01*
X105436271Y-71688077D01*
X105476048Y-71642172D01*
X105526082Y-71584431D01*
X105526084Y-71584428D01*
X105531984Y-71577619D01*
X105535728Y-71569421D01*
X105588958Y-71452864D01*
X105588958Y-71452863D01*
X105592700Y-71444670D01*
X105593982Y-71435754D01*
X105612861Y-71304448D01*
X105612862Y-71304441D01*
X105613500Y-71300000D01*
X105613500Y-69784500D01*
X105633502Y-69716379D01*
X105687158Y-69669886D01*
X105739500Y-69658500D01*
X106425050Y-69658500D01*
X106493171Y-69678502D01*
X106514145Y-69695405D01*
X108907035Y-72088294D01*
X108941060Y-72150606D01*
X108943249Y-72164216D01*
X108956462Y-72289927D01*
X109015476Y-72471554D01*
X109110963Y-72636942D01*
X109238749Y-72778863D01*
X109244091Y-72782744D01*
X109244093Y-72782746D01*
X109360091Y-72867023D01*
X109393250Y-72891114D01*
X109399278Y-72893798D01*
X109399280Y-72893799D01*
X109561682Y-72966105D01*
X109567713Y-72968790D01*
X109653628Y-72987052D01*
X109748056Y-73007124D01*
X109748061Y-73007124D01*
X109754513Y-73008496D01*
X109945487Y-73008496D01*
X109951939Y-73007124D01*
X109951944Y-73007124D01*
X110046372Y-72987052D01*
X110132287Y-72968790D01*
X110138318Y-72966105D01*
X110300720Y-72893799D01*
X110300722Y-72893798D01*
X110306750Y-72891114D01*
X110339909Y-72867023D01*
X110455907Y-72782746D01*
X110455909Y-72782744D01*
X110461251Y-72778863D01*
X110589037Y-72636942D01*
X110684524Y-72471554D01*
X110731531Y-72326882D01*
X110741498Y-72296206D01*
X110741498Y-72296205D01*
X110743538Y-72289927D01*
X110763500Y-72100000D01*
X110749429Y-71966123D01*
X110744228Y-71916637D01*
X110744228Y-71916636D01*
X110743538Y-71910073D01*
X110738917Y-71895849D01*
X110686566Y-71734731D01*
X110684524Y-71728446D01*
X110589037Y-71563058D01*
X110461251Y-71421137D01*
X110455909Y-71417256D01*
X110455907Y-71417254D01*
X110312092Y-71312767D01*
X110312091Y-71312766D01*
X110306750Y-71308886D01*
X110300722Y-71306202D01*
X110300720Y-71306201D01*
X110138318Y-71233895D01*
X110138317Y-71233895D01*
X110132287Y-71231210D01*
X110038887Y-71211357D01*
X109951944Y-71192876D01*
X109951939Y-71192876D01*
X109945487Y-71191504D01*
X109924954Y-71191504D01*
X109856833Y-71171502D01*
X109835859Y-71154599D01*
X108986187Y-70304927D01*
X107854854Y-69173595D01*
X107820829Y-69111283D01*
X107825893Y-69040468D01*
X107868440Y-68983632D01*
X107934960Y-68958821D01*
X107943949Y-68958500D01*
X108425050Y-68958500D01*
X108493171Y-68978502D01*
X108514145Y-68995405D01*
X111457035Y-71938295D01*
X111491061Y-72000607D01*
X111493250Y-72014220D01*
X111502956Y-72106565D01*
X111506462Y-72139927D01*
X111565476Y-72321554D01*
X111568779Y-72327276D01*
X111568780Y-72327277D01*
X111602689Y-72386008D01*
X111660963Y-72486942D01*
X111665381Y-72491849D01*
X111665382Y-72491850D01*
X111784327Y-72623952D01*
X111788749Y-72628863D01*
X111794091Y-72632744D01*
X111794093Y-72632746D01*
X111804152Y-72640054D01*
X111943250Y-72741114D01*
X111949278Y-72743798D01*
X111949280Y-72743799D01*
X112111682Y-72816105D01*
X112117713Y-72818790D01*
X112211113Y-72838643D01*
X112298056Y-72857124D01*
X112298061Y-72857124D01*
X112304513Y-72858496D01*
X112495487Y-72858496D01*
X112501939Y-72857124D01*
X112501944Y-72857124D01*
X112588887Y-72838643D01*
X112682287Y-72818790D01*
X112688318Y-72816105D01*
X112850720Y-72743799D01*
X112850722Y-72743798D01*
X112856750Y-72741114D01*
X112995848Y-72640054D01*
X113005907Y-72632746D01*
X113005909Y-72632744D01*
X113011251Y-72628863D01*
X113015673Y-72623952D01*
X113134618Y-72491850D01*
X113134619Y-72491849D01*
X113139037Y-72486942D01*
X113197311Y-72386008D01*
X113231220Y-72327277D01*
X113231221Y-72327276D01*
X113234524Y-72321554D01*
X113266759Y-72222344D01*
X113291498Y-72146206D01*
X113291498Y-72146205D01*
X113293538Y-72139927D01*
X113297045Y-72106565D01*
X113312810Y-71956565D01*
X113313500Y-71950000D01*
X113298604Y-71808273D01*
X113294228Y-71766637D01*
X113294228Y-71766636D01*
X113293538Y-71760073D01*
X113267933Y-71681267D01*
X113253312Y-71636271D01*
X113234524Y-71578446D01*
X113229314Y-71569421D01*
X113157288Y-71444670D01*
X113139037Y-71413058D01*
X113011251Y-71271137D01*
X113005909Y-71267256D01*
X113005907Y-71267254D01*
X112862092Y-71162767D01*
X112862091Y-71162766D01*
X112856750Y-71158886D01*
X112850722Y-71156202D01*
X112850720Y-71156201D01*
X112688318Y-71083895D01*
X112688317Y-71083895D01*
X112682287Y-71081210D01*
X112588887Y-71061357D01*
X112501944Y-71042876D01*
X112501939Y-71042876D01*
X112495487Y-71041504D01*
X112474953Y-71041504D01*
X112406832Y-71021502D01*
X112385858Y-71004599D01*
X109271906Y-67890647D01*
X109265122Y-67883192D01*
X109261236Y-67877069D01*
X109214942Y-67833596D01*
X109212101Y-67830842D01*
X109187643Y-67806384D01*
X109182685Y-67802538D01*
X109173667Y-67794836D01*
X109145778Y-67768646D01*
X109145775Y-67768644D01*
X109139996Y-67763217D01*
X109133049Y-67759398D01*
X109133045Y-67759395D01*
X109121210Y-67752889D01*
X109104682Y-67742032D01*
X109101825Y-67739816D01*
X109087749Y-67728897D01*
X109045359Y-67710553D01*
X109034722Y-67705343D01*
X108994251Y-67683093D01*
X108985211Y-67680772D01*
X108973486Y-67677761D01*
X108954783Y-67671358D01*
X108942387Y-67665994D01*
X108942386Y-67665994D01*
X108935110Y-67662845D01*
X108927280Y-67661605D01*
X108927274Y-67661603D01*
X108889502Y-67655620D01*
X108877882Y-67653214D01*
X108838914Y-67643209D01*
X108838908Y-67643208D01*
X108833159Y-67641732D01*
X108829472Y-67641500D01*
X108810263Y-67641500D01*
X108790552Y-67639949D01*
X108778670Y-67638067D01*
X108770841Y-67636827D01*
X108762949Y-67637573D01*
X108727320Y-67640941D01*
X108715462Y-67641500D01*
X96729580Y-67641500D01*
X96719516Y-67641026D01*
X96712441Y-67639444D01*
X96664814Y-67640941D01*
X96649002Y-67641438D01*
X96645044Y-67641500D01*
X96610421Y-67641500D01*
X96604192Y-67642287D01*
X96592366Y-67643218D01*
X96556519Y-67644345D01*
X96487803Y-67626492D01*
X96478501Y-67620343D01*
X96362092Y-67535767D01*
X96362091Y-67535766D01*
X96356750Y-67531886D01*
X96350722Y-67529202D01*
X96350720Y-67529201D01*
X96188318Y-67456895D01*
X96188317Y-67456895D01*
X96182287Y-67454210D01*
X96088887Y-67434357D01*
X96001944Y-67415876D01*
X96001939Y-67415876D01*
X95995487Y-67414504D01*
X95804513Y-67414504D01*
X95798061Y-67415876D01*
X95798056Y-67415876D01*
X95711113Y-67434357D01*
X95617713Y-67454210D01*
X95611683Y-67456895D01*
X95611682Y-67456895D01*
X95449280Y-67529201D01*
X95449278Y-67529202D01*
X95443250Y-67531886D01*
X95288749Y-67644137D01*
X95284335Y-67649040D01*
X95283207Y-67650055D01*
X95219199Y-67680772D01*
X95148746Y-67672007D01*
X95124837Y-67658354D01*
X95117763Y-67653214D01*
X95056750Y-67608886D01*
X95050722Y-67606202D01*
X95050720Y-67606201D01*
X94888318Y-67533895D01*
X94888317Y-67533895D01*
X94882287Y-67531210D01*
X94788887Y-67511357D01*
X94701944Y-67492876D01*
X94701939Y-67492876D01*
X94695487Y-67491504D01*
X94504513Y-67491504D01*
X94498061Y-67492876D01*
X94498056Y-67492876D01*
X94411113Y-67511357D01*
X94317713Y-67531210D01*
X94311683Y-67533895D01*
X94311682Y-67533895D01*
X94149280Y-67606201D01*
X94149278Y-67606202D01*
X94143250Y-67608886D01*
X94137909Y-67612766D01*
X94137908Y-67612767D01*
X93994093Y-67717254D01*
X93994091Y-67717256D01*
X93988749Y-67721137D01*
X93860963Y-67863058D01*
X93765476Y-68028446D01*
X93763434Y-68034731D01*
X93716070Y-68180504D01*
X93706462Y-68210073D01*
X93705772Y-68216636D01*
X93705772Y-68216637D01*
X93691871Y-68348895D01*
X93686500Y-68400000D01*
X93363500Y-68400000D01*
X93363500Y-64052800D01*
X96344700Y-64052800D01*
X96364662Y-64242727D01*
X96423676Y-64424354D01*
X96519163Y-64589742D01*
X96646949Y-64731663D01*
X96652291Y-64735544D01*
X96652293Y-64735546D01*
X96796108Y-64840033D01*
X96801450Y-64843914D01*
X96807478Y-64846598D01*
X96807480Y-64846599D01*
X96969882Y-64918905D01*
X96975913Y-64921590D01*
X97069313Y-64941443D01*
X97156256Y-64959924D01*
X97156261Y-64959924D01*
X97162713Y-64961296D01*
X97353687Y-64961296D01*
X97360139Y-64959924D01*
X97360144Y-64959924D01*
X97447087Y-64941443D01*
X97540487Y-64921590D01*
X97546518Y-64918905D01*
X97708920Y-64846599D01*
X97708922Y-64846598D01*
X97714950Y-64843914D01*
X97720292Y-64840033D01*
X97864107Y-64735546D01*
X97864109Y-64735544D01*
X97869451Y-64731663D01*
X97997237Y-64589742D01*
X98092724Y-64424354D01*
X98102681Y-64393709D01*
X98133419Y-64343551D01*
X111442629Y-51034341D01*
X111448895Y-51028487D01*
X111484509Y-50997419D01*
X111490234Y-50992425D01*
X111526973Y-50940151D01*
X111530905Y-50934857D01*
X111565615Y-50890590D01*
X111565616Y-50890588D01*
X111570302Y-50884612D01*
X111573428Y-50877688D01*
X111574829Y-50875375D01*
X111583166Y-50860759D01*
X111584441Y-50858382D01*
X111588810Y-50852165D01*
X111592210Y-50843446D01*
X111612010Y-50792659D01*
X111614566Y-50786577D01*
X111637724Y-50735289D01*
X111637725Y-50735287D01*
X111640850Y-50728365D01*
X111642234Y-50720895D01*
X111643038Y-50718330D01*
X111647662Y-50702098D01*
X111648325Y-50699517D01*
X111651084Y-50692440D01*
X111659422Y-50629104D01*
X111660453Y-50622596D01*
X111664482Y-50600861D01*
X111672092Y-50559801D01*
X111670728Y-50536137D01*
X111669420Y-50513463D01*
X111668709Y-50501131D01*
X111668500Y-50493880D01*
X111668500Y-48322589D01*
X118842017Y-48322589D01*
X118876318Y-48546749D01*
X118949773Y-48761293D01*
X119060059Y-48959437D01*
X119203690Y-49134921D01*
X119207953Y-49138562D01*
X119207958Y-49138567D01*
X119357028Y-49265884D01*
X119376127Y-49282196D01*
X119395232Y-49293360D01*
X119567072Y-49393775D01*
X119567075Y-49393776D01*
X119571919Y-49396607D01*
X119577189Y-49398536D01*
X119577190Y-49398536D01*
X119779612Y-49472612D01*
X119779616Y-49472613D01*
X119784876Y-49474538D01*
X119790393Y-49475501D01*
X119790397Y-49475502D01*
X119973812Y-49507513D01*
X120008269Y-49513527D01*
X120013875Y-49513498D01*
X120013879Y-49513498D01*
X120117475Y-49512955D01*
X120235035Y-49512339D01*
X120240553Y-49511316D01*
X120240556Y-49511316D01*
X120452488Y-49472037D01*
X120452489Y-49472037D01*
X120458007Y-49471014D01*
X120463252Y-49469032D01*
X120463256Y-49469031D01*
X120582839Y-49423844D01*
X120670137Y-49390857D01*
X120675705Y-49387525D01*
X120726950Y-49356855D01*
X120817045Y-49302934D01*
X121959396Y-49302934D01*
X121964677Y-49309988D01*
X122107287Y-49393323D01*
X122117401Y-49398083D01*
X122319742Y-49472129D01*
X122330527Y-49475019D01*
X122542788Y-49512064D01*
X122553920Y-49512999D01*
X122769373Y-49511871D01*
X122780507Y-49510819D01*
X122992353Y-49471555D01*
X123003124Y-49468548D01*
X123204674Y-49392388D01*
X123214734Y-49387525D01*
X123340622Y-49312182D01*
X123350193Y-49301823D01*
X123346650Y-49293360D01*
X122667812Y-48614522D01*
X122653868Y-48606908D01*
X122652035Y-48607039D01*
X122645420Y-48611290D01*
X121966156Y-49290554D01*
X121959396Y-49302934D01*
X120817045Y-49302934D01*
X120864720Y-49274401D01*
X120868940Y-49270719D01*
X120868945Y-49270716D01*
X121031375Y-49129019D01*
X121035605Y-49125329D01*
X121046882Y-49111253D01*
X121173885Y-48952728D01*
X121173888Y-48952723D01*
X121177391Y-48948351D01*
X121273977Y-48770462D01*
X121324060Y-48720140D01*
X121393398Y-48704884D01*
X121459977Y-48729536D01*
X121494804Y-48769306D01*
X121584032Y-48929620D01*
X121594083Y-48939509D01*
X121601688Y-48936602D01*
X122282978Y-48255312D01*
X122289356Y-48243632D01*
X123019408Y-48243632D01*
X123019539Y-48245465D01*
X123023790Y-48252080D01*
X123705151Y-48933441D01*
X123717531Y-48940201D01*
X123723795Y-48935512D01*
X123813409Y-48770465D01*
X123863492Y-48720143D01*
X123932830Y-48704887D01*
X123999409Y-48729540D01*
X124034234Y-48769308D01*
X124140059Y-48959437D01*
X124283690Y-49134921D01*
X124287953Y-49138562D01*
X124287958Y-49138567D01*
X124437028Y-49265884D01*
X124456127Y-49282196D01*
X124475232Y-49293360D01*
X124647072Y-49393775D01*
X124647075Y-49393776D01*
X124651919Y-49396607D01*
X124657189Y-49398536D01*
X124657190Y-49398536D01*
X124859612Y-49472612D01*
X124859616Y-49472613D01*
X124864876Y-49474538D01*
X124870393Y-49475501D01*
X124870397Y-49475502D01*
X125053812Y-49507513D01*
X125088269Y-49513527D01*
X125093875Y-49513498D01*
X125093879Y-49513498D01*
X125197475Y-49512955D01*
X125315035Y-49512339D01*
X125320553Y-49511316D01*
X125320556Y-49511316D01*
X125532488Y-49472037D01*
X125532489Y-49472037D01*
X125538007Y-49471014D01*
X125543252Y-49469032D01*
X125543256Y-49469031D01*
X125662839Y-49423844D01*
X125750137Y-49390857D01*
X125755705Y-49387525D01*
X125806950Y-49356855D01*
X125944720Y-49274401D01*
X125948940Y-49270719D01*
X125948945Y-49270716D01*
X126111375Y-49129019D01*
X126115605Y-49125329D01*
X126126882Y-49111253D01*
X126253885Y-48952728D01*
X126253888Y-48952723D01*
X126257391Y-48948351D01*
X126260068Y-48943422D01*
X126313555Y-48844910D01*
X126353696Y-48770979D01*
X126403777Y-48720659D01*
X126473115Y-48705402D01*
X126539694Y-48730054D01*
X126574520Y-48769822D01*
X126680059Y-48959437D01*
X126823690Y-49134921D01*
X126827953Y-49138562D01*
X126827958Y-49138567D01*
X126977028Y-49265884D01*
X126996127Y-49282196D01*
X127015232Y-49293360D01*
X127187072Y-49393775D01*
X127187075Y-49393776D01*
X127191919Y-49396607D01*
X127197189Y-49398536D01*
X127197190Y-49398536D01*
X127399612Y-49472612D01*
X127399616Y-49472613D01*
X127404876Y-49474538D01*
X127410393Y-49475501D01*
X127410397Y-49475502D01*
X127593812Y-49507513D01*
X127628269Y-49513527D01*
X127633875Y-49513498D01*
X127633879Y-49513498D01*
X127737475Y-49512955D01*
X127855035Y-49512339D01*
X127860553Y-49511316D01*
X127860556Y-49511316D01*
X128072488Y-49472037D01*
X128072489Y-49472037D01*
X128078007Y-49471014D01*
X128083252Y-49469032D01*
X128083256Y-49469031D01*
X128202839Y-49423844D01*
X128290137Y-49390857D01*
X128295705Y-49387525D01*
X128346950Y-49356855D01*
X128484720Y-49274401D01*
X128488940Y-49270719D01*
X128488945Y-49270716D01*
X128651375Y-49129019D01*
X128655605Y-49125329D01*
X128666882Y-49111253D01*
X128793885Y-48952728D01*
X128793888Y-48952723D01*
X128797391Y-48948351D01*
X128905596Y-48749062D01*
X128976800Y-48533762D01*
X129008752Y-48309255D01*
X129010500Y-48242500D01*
X128990341Y-48016628D01*
X128950359Y-47870478D01*
X128931985Y-47803312D01*
X128931984Y-47803308D01*
X128930503Y-47797896D01*
X128832876Y-47593218D01*
X128700547Y-47409062D01*
X128537698Y-47251250D01*
X128438267Y-47184435D01*
X128354130Y-47127897D01*
X128354124Y-47127894D01*
X128349477Y-47124771D01*
X128344345Y-47122518D01*
X128344341Y-47122516D01*
X128146975Y-47035878D01*
X128146973Y-47035877D01*
X128141833Y-47033621D01*
X127980435Y-46994873D01*
X127926786Y-46981993D01*
X127926785Y-46981993D01*
X127921329Y-46980683D01*
X127822389Y-46974978D01*
X127700542Y-46967952D01*
X127700539Y-46967952D01*
X127694936Y-46967629D01*
X127469809Y-46994873D01*
X127464447Y-46996523D01*
X127464445Y-46996523D01*
X127380448Y-47022364D01*
X127253064Y-47061552D01*
X127152309Y-47113556D01*
X127058662Y-47161891D01*
X127051553Y-47165560D01*
X126871645Y-47303608D01*
X126867872Y-47307754D01*
X126867867Y-47307759D01*
X126779244Y-47405155D01*
X126719026Y-47471334D01*
X126716043Y-47476090D01*
X126716041Y-47476092D01*
X126670903Y-47548049D01*
X126598521Y-47663435D01*
X126596429Y-47668639D01*
X126596428Y-47668641D01*
X126581113Y-47706739D01*
X126537146Y-47762483D01*
X126470021Y-47785608D01*
X126401050Y-47768771D01*
X126350480Y-47713987D01*
X126347322Y-47707366D01*
X126292876Y-47593218D01*
X126160547Y-47409062D01*
X125997698Y-47251250D01*
X125898267Y-47184435D01*
X125814130Y-47127897D01*
X125814124Y-47127894D01*
X125809477Y-47124771D01*
X125804345Y-47122518D01*
X125804341Y-47122516D01*
X125606975Y-47035878D01*
X125606973Y-47035877D01*
X125601833Y-47033621D01*
X125440435Y-46994873D01*
X125386786Y-46981993D01*
X125386785Y-46981993D01*
X125381329Y-46980683D01*
X125282389Y-46974978D01*
X125160542Y-46967952D01*
X125160539Y-46967952D01*
X125154936Y-46967629D01*
X124929809Y-46994873D01*
X124924447Y-46996523D01*
X124924445Y-46996523D01*
X124840448Y-47022364D01*
X124713064Y-47061552D01*
X124612309Y-47113556D01*
X124518662Y-47161891D01*
X124511553Y-47165560D01*
X124331645Y-47303608D01*
X124327872Y-47307754D01*
X124327867Y-47307759D01*
X124239244Y-47405155D01*
X124179026Y-47471334D01*
X124176043Y-47476090D01*
X124176041Y-47476092D01*
X124130903Y-47548049D01*
X124058521Y-47663435D01*
X124056429Y-47668639D01*
X124056428Y-47668641D01*
X124040861Y-47707366D01*
X123996894Y-47763110D01*
X123929769Y-47786235D01*
X123860798Y-47769398D01*
X123810228Y-47714614D01*
X123754861Y-47598534D01*
X123749171Y-47588915D01*
X123725717Y-47556275D01*
X123714927Y-47547865D01*
X123701890Y-47554820D01*
X123027022Y-48229688D01*
X123019408Y-48243632D01*
X122289356Y-48243632D01*
X122290592Y-48241368D01*
X122290461Y-48239535D01*
X122286210Y-48232920D01*
X121608099Y-47554809D01*
X121595719Y-47548049D01*
X121587747Y-47554017D01*
X121521953Y-47658903D01*
X121516873Y-47668871D01*
X121501406Y-47707348D01*
X121457439Y-47763093D01*
X121390315Y-47786219D01*
X121321343Y-47769383D01*
X121270773Y-47714598D01*
X121215295Y-47598287D01*
X121215289Y-47598277D01*
X121212876Y-47593218D01*
X121080547Y-47409062D01*
X120917698Y-47251250D01*
X120818267Y-47184435D01*
X120813697Y-47181364D01*
X121958419Y-47181364D01*
X121965052Y-47193342D01*
X122642188Y-47870478D01*
X122656132Y-47878092D01*
X122657965Y-47877961D01*
X122664580Y-47873710D01*
X123342457Y-47195833D01*
X123348681Y-47184435D01*
X123338870Y-47172001D01*
X123273896Y-47128341D01*
X123264096Y-47122953D01*
X123066815Y-47036352D01*
X123056216Y-47032785D01*
X122846713Y-46982488D01*
X122835651Y-46980855D01*
X122620558Y-46968452D01*
X122609374Y-46968804D01*
X122395485Y-46994688D01*
X122384551Y-46997012D01*
X122178614Y-47060366D01*
X122168269Y-47064587D01*
X121976802Y-47163411D01*
X121967371Y-47169396D01*
X121966884Y-47169770D01*
X121958419Y-47181364D01*
X120813697Y-47181364D01*
X120734130Y-47127897D01*
X120734124Y-47127894D01*
X120729477Y-47124771D01*
X120724345Y-47122518D01*
X120724341Y-47122516D01*
X120526975Y-47035878D01*
X120526973Y-47035877D01*
X120521833Y-47033621D01*
X120360435Y-46994873D01*
X120306786Y-46981993D01*
X120306785Y-46981993D01*
X120301329Y-46980683D01*
X120202389Y-46974978D01*
X120080542Y-46967952D01*
X120080539Y-46967952D01*
X120074936Y-46967629D01*
X119849809Y-46994873D01*
X119844447Y-46996523D01*
X119844445Y-46996523D01*
X119760448Y-47022364D01*
X119633064Y-47061552D01*
X119532309Y-47113556D01*
X119438662Y-47161891D01*
X119431553Y-47165560D01*
X119251645Y-47303608D01*
X119247872Y-47307754D01*
X119247867Y-47307759D01*
X119159244Y-47405155D01*
X119099026Y-47471334D01*
X119096043Y-47476090D01*
X119096041Y-47476092D01*
X119050903Y-47548049D01*
X118978521Y-47663435D01*
X118893939Y-47873840D01*
X118847953Y-48095898D01*
X118842017Y-48322589D01*
X111668500Y-48322589D01*
X111668500Y-44560660D01*
X111688502Y-44492539D01*
X111705405Y-44471565D01*
X111816561Y-44360409D01*
X111878873Y-44326383D01*
X111895985Y-44323876D01*
X111950115Y-44319711D01*
X112029851Y-44313576D01*
X112029856Y-44313575D01*
X112035992Y-44313103D01*
X112041924Y-44311447D01*
X112041928Y-44311446D01*
X112131250Y-44286506D01*
X112226507Y-44259910D01*
X112403060Y-44170726D01*
X112413290Y-44162734D01*
X112554073Y-44052742D01*
X112558929Y-44048948D01*
X112564576Y-44042406D01*
X112684147Y-43903882D01*
X112684148Y-43903880D01*
X112688176Y-43899214D01*
X112785878Y-43727228D01*
X112848314Y-43539539D01*
X112873105Y-43343299D01*
X112873500Y-43315000D01*
X112854198Y-43118143D01*
X112797027Y-42928785D01*
X112704166Y-42754138D01*
X112633973Y-42668073D01*
X112583045Y-42605628D01*
X112583042Y-42605625D01*
X112579150Y-42600853D01*
X112574401Y-42596924D01*
X112431491Y-42478698D01*
X112431486Y-42478695D01*
X112426742Y-42474770D01*
X112421323Y-42471840D01*
X112421320Y-42471838D01*
X112258165Y-42383621D01*
X112258161Y-42383619D01*
X112252747Y-42380692D01*
X112246867Y-42378872D01*
X112246865Y-42378871D01*
X112187954Y-42360635D01*
X112128795Y-42321383D01*
X112100248Y-42256379D01*
X112111377Y-42186260D01*
X112158648Y-42133289D01*
X112173965Y-42125163D01*
X112210720Y-42108799D01*
X112210722Y-42108798D01*
X112216750Y-42106114D01*
X112249164Y-42082564D01*
X112365907Y-41997746D01*
X112365909Y-41997744D01*
X112371251Y-41993863D01*
X112451329Y-41904927D01*
X112494618Y-41856850D01*
X112494619Y-41856849D01*
X112499037Y-41851942D01*
X112557841Y-41750091D01*
X112591220Y-41692277D01*
X112591221Y-41692276D01*
X112594524Y-41686554D01*
X112619214Y-41610565D01*
X112659287Y-41551959D01*
X112724683Y-41524321D01*
X112739047Y-41523500D01*
X123129296Y-41523500D01*
X123197417Y-41543502D01*
X123222928Y-41565186D01*
X123248749Y-41593863D01*
X123254091Y-41597744D01*
X123254093Y-41597746D01*
X123374412Y-41685162D01*
X123403250Y-41706114D01*
X123409278Y-41708798D01*
X123409280Y-41708799D01*
X123569025Y-41779922D01*
X123577713Y-41783790D01*
X123671113Y-41803643D01*
X123758056Y-41822124D01*
X123758061Y-41822124D01*
X123764513Y-41823496D01*
X123955487Y-41823496D01*
X123961939Y-41822124D01*
X123961944Y-41822124D01*
X124048887Y-41803643D01*
X124142287Y-41783790D01*
X124150975Y-41779922D01*
X124310720Y-41708799D01*
X124310722Y-41708798D01*
X124316750Y-41706114D01*
X124345588Y-41685162D01*
X124465907Y-41597746D01*
X124465909Y-41597744D01*
X124471251Y-41593863D01*
X124497070Y-41565188D01*
X124557513Y-41527950D01*
X124590704Y-41523500D01*
X127948601Y-41523500D01*
X128022661Y-41547563D01*
X128103250Y-41606114D01*
X128109278Y-41608798D01*
X128109280Y-41608799D01*
X128113247Y-41610565D01*
X128277713Y-41683790D01*
X128364480Y-41702233D01*
X128458056Y-41722124D01*
X128458061Y-41722124D01*
X128464513Y-41723496D01*
X128655487Y-41723496D01*
X128661939Y-41722124D01*
X128661944Y-41722124D01*
X128755520Y-41702233D01*
X128842287Y-41683790D01*
X129006753Y-41610565D01*
X129010720Y-41608799D01*
X129010722Y-41608798D01*
X129016750Y-41606114D01*
X129040365Y-41588957D01*
X129165907Y-41497746D01*
X129165909Y-41497744D01*
X129171251Y-41493863D01*
X129299037Y-41351942D01*
X129394524Y-41186554D01*
X129453538Y-41004927D01*
X129456895Y-40972992D01*
X129472810Y-40821565D01*
X129473500Y-40815000D01*
X129458896Y-40676048D01*
X129454228Y-40631637D01*
X129454228Y-40631636D01*
X129453538Y-40625073D01*
X129394524Y-40443446D01*
X129373196Y-40406504D01*
X129302338Y-40283776D01*
X129299037Y-40278058D01*
X129171251Y-40136137D01*
X129165909Y-40132256D01*
X129165907Y-40132254D01*
X129022092Y-40027767D01*
X129022091Y-40027766D01*
X129016750Y-40023886D01*
X129010722Y-40021202D01*
X129010720Y-40021201D01*
X128848318Y-39948895D01*
X128848317Y-39948895D01*
X128842287Y-39946210D01*
X128748887Y-39926357D01*
X128661944Y-39907876D01*
X128661939Y-39907876D01*
X128655487Y-39906504D01*
X128464513Y-39906504D01*
X128458061Y-39907876D01*
X128458056Y-39907876D01*
X128371113Y-39926357D01*
X128277713Y-39946210D01*
X128271683Y-39948895D01*
X128271682Y-39948895D01*
X128109280Y-40021201D01*
X128109278Y-40021202D01*
X128103250Y-40023886D01*
X128068828Y-40048895D01*
X128022661Y-40082437D01*
X127948601Y-40106500D01*
X124304483Y-40106500D01*
X124253234Y-40095607D01*
X124148318Y-40048895D01*
X124148316Y-40048894D01*
X124142287Y-40046210D01*
X124037262Y-40023886D01*
X123961944Y-40007876D01*
X123961939Y-40007876D01*
X123955487Y-40006504D01*
X123764513Y-40006504D01*
X123758061Y-40007876D01*
X123758056Y-40007876D01*
X123682738Y-40023886D01*
X123577713Y-40046210D01*
X123571684Y-40048894D01*
X123571682Y-40048895D01*
X123466766Y-40095607D01*
X123415517Y-40106500D01*
X112285954Y-40106500D01*
X112277383Y-40106208D01*
X112222659Y-40102477D01*
X112159691Y-40113466D01*
X112153201Y-40114424D01*
X112089806Y-40122096D01*
X112082698Y-40124782D01*
X112080088Y-40125423D01*
X112063831Y-40129870D01*
X112061263Y-40130645D01*
X112053776Y-40131952D01*
X112033055Y-40141048D01*
X111995294Y-40157624D01*
X111989186Y-40160117D01*
X111987744Y-40160662D01*
X111929438Y-40182694D01*
X111923173Y-40187000D01*
X111920782Y-40188250D01*
X111906080Y-40196433D01*
X111903757Y-40197807D01*
X111896799Y-40200861D01*
X111890772Y-40205486D01*
X111890768Y-40205488D01*
X111846122Y-40239746D01*
X111840797Y-40243615D01*
X111788154Y-40279796D01*
X111783097Y-40285472D01*
X111749061Y-40323672D01*
X111744082Y-40328947D01*
X111707627Y-40365403D01*
X111693461Y-40379569D01*
X111630563Y-40413720D01*
X111477713Y-40446210D01*
X111471683Y-40448895D01*
X111471682Y-40448895D01*
X111309280Y-40521201D01*
X111309278Y-40521202D01*
X111303250Y-40523886D01*
X111297909Y-40527766D01*
X111297908Y-40527767D01*
X111174489Y-40617436D01*
X111100428Y-40641500D01*
X106616399Y-40641500D01*
X106542339Y-40617437D01*
X106534039Y-40611407D01*
X106461750Y-40558886D01*
X106455722Y-40556202D01*
X106455720Y-40556201D01*
X106293318Y-40483895D01*
X106293317Y-40483895D01*
X106287287Y-40481210D01*
X106193887Y-40461357D01*
X106106944Y-40442876D01*
X106106939Y-40442876D01*
X106100487Y-40441504D01*
X105909513Y-40441504D01*
X105903061Y-40442876D01*
X105903056Y-40442876D01*
X105816113Y-40461357D01*
X105722713Y-40481210D01*
X105716683Y-40483895D01*
X105716682Y-40483895D01*
X105554280Y-40556201D01*
X105554278Y-40556202D01*
X105548250Y-40558886D01*
X105542909Y-40562766D01*
X105542908Y-40562767D01*
X105399093Y-40667254D01*
X105399091Y-40667256D01*
X105393749Y-40671137D01*
X105389328Y-40676047D01*
X105389327Y-40676048D01*
X105315707Y-40757812D01*
X105265963Y-40813058D01*
X105212643Y-40905411D01*
X105175930Y-40969000D01*
X105170476Y-40978446D01*
X105168434Y-40984731D01*
X105128263Y-41108366D01*
X105111462Y-41160073D01*
X105110772Y-41166636D01*
X105110772Y-41166637D01*
X105109572Y-41178058D01*
X105091500Y-41350000D01*
X105092190Y-41356565D01*
X105109863Y-41524709D01*
X105111462Y-41539927D01*
X105170476Y-41721554D01*
X105265963Y-41886942D01*
X105393749Y-42028863D01*
X105399091Y-42032744D01*
X105399093Y-42032746D01*
X105500076Y-42106114D01*
X105548250Y-42141114D01*
X105554278Y-42143798D01*
X105554280Y-42143799D01*
X105649649Y-42186260D01*
X105722713Y-42218790D01*
X105816113Y-42238643D01*
X105903056Y-42257124D01*
X105903061Y-42257124D01*
X105909513Y-42258496D01*
X106100487Y-42258496D01*
X106106939Y-42257124D01*
X106106944Y-42257124D01*
X106193887Y-42238643D01*
X106287287Y-42218790D01*
X106360351Y-42186260D01*
X106455720Y-42143799D01*
X106455722Y-42143798D01*
X106461750Y-42141114D01*
X106542339Y-42082563D01*
X106616399Y-42058500D01*
X111196775Y-42058500D01*
X111270836Y-42082564D01*
X111303250Y-42106114D01*
X111309278Y-42108798D01*
X111309280Y-42108799D01*
X111438856Y-42166490D01*
X111492952Y-42212470D01*
X111513601Y-42280398D01*
X111494249Y-42348706D01*
X111445982Y-42393259D01*
X111305045Y-42466939D01*
X111150891Y-42590882D01*
X111146933Y-42595599D01*
X111146931Y-42595601D01*
X111063347Y-42695213D01*
X111023747Y-42742406D01*
X111020783Y-42747798D01*
X111020780Y-42747802D01*
X110943031Y-42889227D01*
X110928456Y-42915740D01*
X110926595Y-42921607D01*
X110926594Y-42921609D01*
X110889641Y-43038099D01*
X110868647Y-43104282D01*
X110860380Y-43177987D01*
X110848285Y-43285814D01*
X110820814Y-43351281D01*
X110812165Y-43360864D01*
X110477363Y-43695666D01*
X110471098Y-43701519D01*
X110429766Y-43737575D01*
X110393039Y-43789833D01*
X110389107Y-43795127D01*
X110349698Y-43845388D01*
X110346572Y-43852312D01*
X110345171Y-43854625D01*
X110336834Y-43869241D01*
X110335559Y-43871618D01*
X110331190Y-43877835D01*
X110328430Y-43884914D01*
X110328429Y-43884916D01*
X110307990Y-43937341D01*
X110305434Y-43943423D01*
X110289008Y-43979803D01*
X110279150Y-44001635D01*
X110277766Y-44009105D01*
X110276962Y-44011670D01*
X110272338Y-44027902D01*
X110271675Y-44030483D01*
X110268916Y-44037560D01*
X110260579Y-44100887D01*
X110259550Y-44107388D01*
X110247908Y-44170199D01*
X110248345Y-44177779D01*
X110248345Y-44177780D01*
X110251291Y-44228874D01*
X110251500Y-44236127D01*
X110251500Y-47064806D01*
X110231498Y-47132927D01*
X110177842Y-47179420D01*
X110107568Y-47189524D01*
X110045185Y-47161891D01*
X109926491Y-47063698D01*
X109926486Y-47063695D01*
X109921742Y-47059770D01*
X109916323Y-47056840D01*
X109916320Y-47056838D01*
X109753165Y-46968621D01*
X109753161Y-46968619D01*
X109747747Y-46965692D01*
X109741867Y-46963872D01*
X109741865Y-46963871D01*
X109692317Y-46948533D01*
X109558792Y-46907200D01*
X109552674Y-46906557D01*
X109552669Y-46906556D01*
X109368205Y-46887169D01*
X109368203Y-46887169D01*
X109362076Y-46886525D01*
X109279226Y-46894065D01*
X109171228Y-46903893D01*
X109171225Y-46903894D01*
X109165089Y-46904452D01*
X109159183Y-46906190D01*
X109159179Y-46906191D01*
X109017779Y-46947808D01*
X108975336Y-46960299D01*
X108800045Y-47051939D01*
X108798718Y-47049401D01*
X108741329Y-47066500D01*
X107936371Y-47066500D01*
X107868250Y-47046498D01*
X107847276Y-47029595D01*
X104943003Y-44125322D01*
X104930615Y-44110908D01*
X104918389Y-44094294D01*
X104879650Y-44061382D01*
X104872133Y-44054452D01*
X104866016Y-44048335D01*
X104863143Y-44046062D01*
X104863134Y-44046054D01*
X104842657Y-44029854D01*
X104839253Y-44027063D01*
X104789206Y-43984545D01*
X104789204Y-43984544D01*
X104783624Y-43979803D01*
X104777106Y-43976475D01*
X104772081Y-43973123D01*
X104766936Y-43969946D01*
X104761198Y-43965406D01*
X104714163Y-43943423D01*
X104695095Y-43934511D01*
X104691145Y-43932580D01*
X104632655Y-43902714D01*
X104632653Y-43902713D01*
X104626135Y-43899385D01*
X104619028Y-43897646D01*
X104613377Y-43895544D01*
X104607627Y-43893631D01*
X104600998Y-43890533D01*
X104593838Y-43889044D01*
X104593827Y-43889040D01*
X104529507Y-43875661D01*
X104525220Y-43874691D01*
X104459828Y-43858690D01*
X104459822Y-43858689D01*
X104454370Y-43857355D01*
X104448766Y-43857007D01*
X104448764Y-43857007D01*
X104441976Y-43856586D01*
X104438579Y-43856329D01*
X104435039Y-43856013D01*
X104427871Y-43854522D01*
X104420554Y-43854720D01*
X104380427Y-43855806D01*
X104361103Y-43856329D01*
X104356484Y-43856454D01*
X104353075Y-43856500D01*
X103970899Y-43856500D01*
X103902778Y-43836498D01*
X103890591Y-43827591D01*
X103826742Y-43774770D01*
X103821325Y-43771841D01*
X103821322Y-43771839D01*
X103658165Y-43683621D01*
X103658161Y-43683619D01*
X103652747Y-43680692D01*
X103646867Y-43678872D01*
X103646865Y-43678871D01*
X103597317Y-43663533D01*
X103463792Y-43622200D01*
X103457674Y-43621557D01*
X103457669Y-43621556D01*
X103273205Y-43602169D01*
X103273203Y-43602169D01*
X103267076Y-43601525D01*
X103184226Y-43609065D01*
X103076228Y-43618893D01*
X103076225Y-43618894D01*
X103070089Y-43619452D01*
X103064183Y-43621190D01*
X103064179Y-43621191D01*
X102955983Y-43653035D01*
X102880336Y-43675299D01*
X102705045Y-43766939D01*
X102550891Y-43890882D01*
X102546933Y-43895599D01*
X102546931Y-43895601D01*
X102506804Y-43943423D01*
X102423747Y-44042406D01*
X102420783Y-44047798D01*
X102420780Y-44047802D01*
X102357596Y-44162734D01*
X102328456Y-44215740D01*
X102326595Y-44221607D01*
X102326594Y-44221609D01*
X102293358Y-44326383D01*
X102268647Y-44404282D01*
X102246599Y-44600849D01*
X102263150Y-44797956D01*
X102317672Y-44988094D01*
X102408086Y-45164021D01*
X102530949Y-45319036D01*
X102535636Y-45323025D01*
X102535639Y-45323028D01*
X102595570Y-45374033D01*
X102681582Y-45447235D01*
X102686960Y-45450241D01*
X102686962Y-45450242D01*
X102728585Y-45473504D01*
X102854246Y-45543734D01*
X103042366Y-45604857D01*
X103238775Y-45628278D01*
X103244910Y-45627806D01*
X103244912Y-45627806D01*
X103429850Y-45613576D01*
X103429854Y-45613575D01*
X103435992Y-45613103D01*
X103626507Y-45559910D01*
X103803060Y-45470726D01*
X103829279Y-45450242D01*
X103847894Y-45435698D01*
X103893316Y-45400211D01*
X103959309Y-45374033D01*
X103970888Y-45373500D01*
X103993629Y-45373500D01*
X104061750Y-45393502D01*
X104082724Y-45410405D01*
X106986997Y-48314678D01*
X106999382Y-48329089D01*
X107011611Y-48345706D01*
X107017194Y-48350449D01*
X107050351Y-48378618D01*
X107057867Y-48385548D01*
X107063985Y-48391666D01*
X107087376Y-48410171D01*
X107090724Y-48412916D01*
X107146376Y-48460197D01*
X107152895Y-48463525D01*
X107157914Y-48466873D01*
X107163060Y-48470051D01*
X107168803Y-48474595D01*
X107234939Y-48505505D01*
X107238836Y-48507410D01*
X107303865Y-48540615D01*
X107310976Y-48542355D01*
X107316633Y-48544459D01*
X107322371Y-48546368D01*
X107329002Y-48549467D01*
X107336162Y-48550956D01*
X107336173Y-48550960D01*
X107400493Y-48564339D01*
X107404780Y-48565309D01*
X107470172Y-48581310D01*
X107470178Y-48581311D01*
X107475630Y-48582645D01*
X107481234Y-48582993D01*
X107481236Y-48582993D01*
X107488023Y-48583414D01*
X107491420Y-48583671D01*
X107494962Y-48583987D01*
X107502129Y-48585478D01*
X107573531Y-48583546D01*
X107576939Y-48583500D01*
X108555460Y-48583500D01*
X108623581Y-48603502D01*
X108637123Y-48613546D01*
X108776582Y-48732235D01*
X108781960Y-48735241D01*
X108781962Y-48735242D01*
X108845908Y-48770980D01*
X108949246Y-48828734D01*
X109137366Y-48889857D01*
X109333775Y-48913278D01*
X109339910Y-48912806D01*
X109339912Y-48912806D01*
X109524850Y-48898576D01*
X109524854Y-48898575D01*
X109530992Y-48898103D01*
X109721507Y-48844910D01*
X109898060Y-48755726D01*
X109924279Y-48735242D01*
X110047927Y-48638637D01*
X110113921Y-48612459D01*
X110183592Y-48626116D01*
X110234819Y-48675273D01*
X110251500Y-48737926D01*
X110251500Y-50169339D01*
X110231498Y-50237460D01*
X110214595Y-50258434D01*
X97365630Y-63107399D01*
X97303318Y-63141425D01*
X97276535Y-63144304D01*
X97162713Y-63144304D01*
X97156261Y-63145676D01*
X97156256Y-63145676D01*
X97069313Y-63164157D01*
X96975913Y-63184010D01*
X96969883Y-63186695D01*
X96969882Y-63186695D01*
X96807480Y-63259001D01*
X96807478Y-63259002D01*
X96801450Y-63261686D01*
X96796109Y-63265566D01*
X96796108Y-63265567D01*
X96652293Y-63370054D01*
X96652291Y-63370056D01*
X96646949Y-63373937D01*
X96519163Y-63515858D01*
X96423676Y-63681246D01*
X96364662Y-63862873D01*
X96344700Y-64052800D01*
X93363500Y-64052800D01*
X93363500Y-56045660D01*
X93383502Y-55977539D01*
X93400405Y-55956565D01*
X94521538Y-54835432D01*
X94584436Y-54801280D01*
X94620597Y-54793593D01*
X94737287Y-54768790D01*
X94743318Y-54766105D01*
X94905720Y-54693799D01*
X94905722Y-54693798D01*
X94911750Y-54691114D01*
X94917092Y-54687233D01*
X95060907Y-54582746D01*
X95060909Y-54582744D01*
X95066251Y-54578863D01*
X95194037Y-54436942D01*
X95289524Y-54271554D01*
X95348538Y-54089927D01*
X95368500Y-53900000D01*
X95368279Y-53897901D01*
X95387812Y-53831379D01*
X95441468Y-53784886D01*
X95493810Y-53773500D01*
X99160420Y-53773500D01*
X99170484Y-53773974D01*
X99177559Y-53775556D01*
X99241011Y-53773562D01*
X99244969Y-53773500D01*
X99279579Y-53773500D01*
X99283510Y-53773003D01*
X99283516Y-53773003D01*
X99285805Y-53772714D01*
X99297630Y-53771783D01*
X99334114Y-53770636D01*
X99343794Y-53770332D01*
X99351410Y-53768119D01*
X99351412Y-53768119D01*
X99364386Y-53764350D01*
X99383745Y-53760341D01*
X99397141Y-53758649D01*
X99397144Y-53758648D01*
X99405006Y-53757655D01*
X99412372Y-53754738D01*
X99412378Y-53754737D01*
X99447932Y-53740660D01*
X99459161Y-53736815D01*
X99464503Y-53735263D01*
X99503508Y-53723931D01*
X99521964Y-53713016D01*
X99539713Y-53704320D01*
X99559644Y-53696429D01*
X99582936Y-53679506D01*
X99597002Y-53669287D01*
X99606923Y-53662770D01*
X99646663Y-53639268D01*
X99649435Y-53636825D01*
X99663021Y-53623239D01*
X99678048Y-53610404D01*
X99694197Y-53598671D01*
X99699251Y-53592562D01*
X99699253Y-53592560D01*
X99722067Y-53564983D01*
X99730057Y-53556203D01*
X100590859Y-52695401D01*
X100653171Y-52661375D01*
X100679954Y-52658496D01*
X100700487Y-52658496D01*
X100706939Y-52657124D01*
X100706944Y-52657124D01*
X100799570Y-52637435D01*
X100887287Y-52618790D01*
X100942888Y-52594035D01*
X101055720Y-52543799D01*
X101055722Y-52543798D01*
X101061750Y-52541114D01*
X101072132Y-52533571D01*
X101210907Y-52432746D01*
X101210909Y-52432744D01*
X101216251Y-52428863D01*
X101344037Y-52286942D01*
X101439524Y-52121554D01*
X101498538Y-51939927D01*
X101503380Y-51893863D01*
X101517810Y-51756565D01*
X101518500Y-51750000D01*
X101498538Y-51560073D01*
X101439524Y-51378446D01*
X101344037Y-51213058D01*
X101216251Y-51071137D01*
X101210909Y-51067256D01*
X101210907Y-51067254D01*
X101067092Y-50962767D01*
X101067091Y-50962766D01*
X101061750Y-50958886D01*
X101055722Y-50956202D01*
X101055720Y-50956201D01*
X100893318Y-50883895D01*
X100893317Y-50883895D01*
X100887287Y-50881210D01*
X100791074Y-50860759D01*
X100706944Y-50842876D01*
X100706939Y-50842876D01*
X100700487Y-50841504D01*
X100509513Y-50841504D01*
X100503061Y-50842876D01*
X100503056Y-50842876D01*
X100418926Y-50860759D01*
X100322713Y-50881210D01*
X100316683Y-50883895D01*
X100316682Y-50883895D01*
X100154280Y-50956201D01*
X100154278Y-50956202D01*
X100148250Y-50958886D01*
X100142909Y-50962766D01*
X100142908Y-50962767D01*
X99999093Y-51067254D01*
X99999091Y-51067256D01*
X99993749Y-51071137D01*
X99865963Y-51213058D01*
X99770476Y-51378446D01*
X99711462Y-51560073D01*
X99710772Y-51566634D01*
X99710772Y-51566636D01*
X99698250Y-51685781D01*
X99671237Y-51751438D01*
X99662035Y-51761706D01*
X99004146Y-52419595D01*
X98941834Y-52453621D01*
X98915051Y-52456500D01*
X91019580Y-52456500D01*
X91009516Y-52456026D01*
X91002441Y-52454444D01*
X90938989Y-52456438D01*
X90935031Y-52456500D01*
X90900421Y-52456500D01*
X90896490Y-52456997D01*
X90896484Y-52456997D01*
X90894195Y-52457286D01*
X90882370Y-52458217D01*
X90845886Y-52459364D01*
X90836206Y-52459668D01*
X90828590Y-52461881D01*
X90828588Y-52461881D01*
X90815614Y-52465650D01*
X90796255Y-52469659D01*
X90782859Y-52471351D01*
X90782856Y-52471352D01*
X90774994Y-52472345D01*
X90767628Y-52475262D01*
X90767626Y-52475262D01*
X90732067Y-52489341D01*
X90720836Y-52493186D01*
X90684106Y-52503857D01*
X90684104Y-52503858D01*
X90676493Y-52506069D01*
X90669671Y-52510103D01*
X90669672Y-52510103D01*
X90658035Y-52516985D01*
X90640288Y-52525679D01*
X90620356Y-52533571D01*
X90613941Y-52538232D01*
X90613939Y-52538233D01*
X90582999Y-52560712D01*
X90573077Y-52567230D01*
X90533337Y-52590732D01*
X90530566Y-52593175D01*
X90516986Y-52606755D01*
X90501952Y-52619596D01*
X90492216Y-52626669D01*
X90492213Y-52626672D01*
X90485803Y-52631329D01*
X90460947Y-52661375D01*
X90457928Y-52665024D01*
X90449938Y-52673803D01*
X86004146Y-57119595D01*
X85941834Y-57153621D01*
X85915051Y-57156500D01*
X79140218Y-57156500D01*
X79066157Y-57132436D01*
X78922092Y-57027767D01*
X78922091Y-57027766D01*
X78916750Y-57023886D01*
X78910722Y-57021202D01*
X78910720Y-57021201D01*
X78748318Y-56948895D01*
X78748317Y-56948895D01*
X78742287Y-56946210D01*
X78648887Y-56926357D01*
X78561944Y-56907876D01*
X78561939Y-56907876D01*
X78555487Y-56906504D01*
X78364513Y-56906504D01*
X78358061Y-56907876D01*
X78358056Y-56907876D01*
X78271113Y-56926357D01*
X78177713Y-56946210D01*
X78171683Y-56948895D01*
X78171682Y-56948895D01*
X78009280Y-57021201D01*
X78009278Y-57021202D01*
X78003250Y-57023886D01*
X77997909Y-57027766D01*
X77997908Y-57027767D01*
X77854093Y-57132254D01*
X77854091Y-57132256D01*
X77848749Y-57136137D01*
X77720963Y-57278058D01*
X77625476Y-57443446D01*
X77566462Y-57625073D01*
X77546500Y-57815000D01*
X77566462Y-58004927D01*
X77625476Y-58186554D01*
X77720963Y-58351942D01*
X77725381Y-58356849D01*
X77725382Y-58356850D01*
X77830414Y-58473500D01*
X77848749Y-58493863D01*
X77854091Y-58497744D01*
X77854093Y-58497746D01*
X77997908Y-58602233D01*
X78003250Y-58606114D01*
X78009278Y-58608798D01*
X78009280Y-58608799D01*
X78171682Y-58681105D01*
X78177713Y-58683790D01*
X78271113Y-58703643D01*
X78358056Y-58722124D01*
X78358061Y-58722124D01*
X78364513Y-58723496D01*
X78555487Y-58723496D01*
X78561939Y-58722124D01*
X78561944Y-58722124D01*
X78648887Y-58703643D01*
X78742287Y-58683790D01*
X78748318Y-58681105D01*
X78910720Y-58608799D01*
X78910722Y-58608798D01*
X78916750Y-58606114D01*
X79066157Y-58497564D01*
X79140218Y-58473500D01*
X86160420Y-58473500D01*
X86170484Y-58473974D01*
X86177559Y-58475556D01*
X86241011Y-58473562D01*
X86244969Y-58473500D01*
X86279579Y-58473500D01*
X86283510Y-58473003D01*
X86283516Y-58473003D01*
X86285805Y-58472714D01*
X86297630Y-58471783D01*
X86334114Y-58470636D01*
X86343794Y-58470332D01*
X86351410Y-58468119D01*
X86351412Y-58468119D01*
X86364386Y-58464350D01*
X86383745Y-58460341D01*
X86397141Y-58458649D01*
X86397144Y-58458648D01*
X86405006Y-58457655D01*
X86412372Y-58454738D01*
X86412374Y-58454738D01*
X86447933Y-58440659D01*
X86459164Y-58436814D01*
X86495895Y-58426143D01*
X86495897Y-58426142D01*
X86503508Y-58423931D01*
X86521964Y-58413016D01*
X86539713Y-58404320D01*
X86559644Y-58396429D01*
X86582936Y-58379506D01*
X86597002Y-58369287D01*
X86606923Y-58362770D01*
X86646663Y-58339268D01*
X86649435Y-58336825D01*
X86663021Y-58323239D01*
X86678048Y-58310404D01*
X86694197Y-58298671D01*
X86699251Y-58292562D01*
X86699253Y-58292560D01*
X86722067Y-58264983D01*
X86730057Y-58256203D01*
X91175855Y-53810405D01*
X91238167Y-53776379D01*
X91264950Y-53773500D01*
X93275339Y-53773500D01*
X93343460Y-53793502D01*
X93389953Y-53847158D01*
X93400057Y-53917432D01*
X93370563Y-53982012D01*
X93364434Y-53988595D01*
X92172363Y-55180666D01*
X92166098Y-55186519D01*
X92124766Y-55222575D01*
X92088039Y-55274833D01*
X92084107Y-55280127D01*
X92044698Y-55330388D01*
X92041572Y-55337312D01*
X92040171Y-55339625D01*
X92031834Y-55354241D01*
X92030559Y-55356618D01*
X92026190Y-55362835D01*
X92023430Y-55369914D01*
X92023429Y-55369916D01*
X92002990Y-55422341D01*
X92000437Y-55428417D01*
X91974150Y-55486635D01*
X91972766Y-55494105D01*
X91971962Y-55496670D01*
X91967338Y-55512902D01*
X91966675Y-55515483D01*
X91963916Y-55522560D01*
X91962925Y-55530091D01*
X91955579Y-55585887D01*
X91954550Y-55592388D01*
X91942908Y-55655199D01*
X91943345Y-55662779D01*
X91943345Y-55662780D01*
X91946291Y-55713874D01*
X91946500Y-55721127D01*
X91946500Y-68180504D01*
X91926498Y-68248625D01*
X91872842Y-68295118D01*
X91820500Y-68306504D01*
X91764513Y-68306504D01*
X91758061Y-68307876D01*
X91758056Y-68307876D01*
X91671113Y-68326357D01*
X91577713Y-68346210D01*
X91571683Y-68348895D01*
X91571682Y-68348895D01*
X91409280Y-68421201D01*
X91409278Y-68421202D01*
X91403250Y-68423886D01*
X91397910Y-68427766D01*
X91322661Y-68482437D01*
X91248601Y-68506500D01*
X71685938Y-68506500D01*
X71677368Y-68506208D01*
X71630234Y-68502994D01*
X71630230Y-68502994D01*
X71622658Y-68502478D01*
X71559708Y-68513465D01*
X71553218Y-68514422D01*
X71489806Y-68522096D01*
X71482697Y-68524783D01*
X71480085Y-68525424D01*
X71463825Y-68529872D01*
X71461255Y-68530648D01*
X71453776Y-68531953D01*
X71446825Y-68535004D01*
X71446819Y-68535006D01*
X71395295Y-68557624D01*
X71389186Y-68560117D01*
X71336548Y-68580007D01*
X71336546Y-68580008D01*
X71329438Y-68582694D01*
X71323173Y-68587000D01*
X71320782Y-68588250D01*
X71306073Y-68596437D01*
X71303756Y-68597807D01*
X71296799Y-68600861D01*
X71290776Y-68605482D01*
X71290770Y-68605486D01*
X71246108Y-68639755D01*
X71240775Y-68643630D01*
X71188154Y-68679796D01*
X71183097Y-68685472D01*
X71149061Y-68723673D01*
X71144080Y-68728949D01*
X60177363Y-79695666D01*
X60171098Y-79701519D01*
X60129766Y-79737575D01*
X60093039Y-79789833D01*
X60089107Y-79795127D01*
X60049698Y-79845388D01*
X60046572Y-79852312D01*
X60045171Y-79854625D01*
X60036834Y-79869241D01*
X60035559Y-79871618D01*
X60031190Y-79877835D01*
X60014915Y-79919580D01*
X60007990Y-79937341D01*
X60005437Y-79943417D01*
X59979150Y-80001635D01*
X59977766Y-80009105D01*
X59976962Y-80011670D01*
X59972338Y-80027902D01*
X59971675Y-80030483D01*
X59968916Y-80037560D01*
X59960579Y-80100887D01*
X59959550Y-80107388D01*
X59947908Y-80170199D01*
X59948345Y-80177779D01*
X59948345Y-80177780D01*
X59951291Y-80228874D01*
X59951500Y-80236127D01*
X59951500Y-80789047D01*
X59951208Y-80797617D01*
X59947477Y-80852342D01*
X52063000Y-80852342D01*
X52063000Y-53115000D01*
X77296500Y-53115000D01*
X77316462Y-53304927D01*
X77375476Y-53486554D01*
X77470963Y-53651942D01*
X77475381Y-53656849D01*
X77475382Y-53656850D01*
X77580414Y-53773500D01*
X77598749Y-53793863D01*
X77604091Y-53797744D01*
X77604093Y-53797746D01*
X77744835Y-53900000D01*
X77753250Y-53906114D01*
X77759278Y-53908798D01*
X77759280Y-53908799D01*
X77921682Y-53981105D01*
X77927713Y-53983790D01*
X78021113Y-54003643D01*
X78108056Y-54022124D01*
X78108061Y-54022124D01*
X78114513Y-54023496D01*
X78305487Y-54023496D01*
X78311939Y-54022124D01*
X78311944Y-54022124D01*
X78398887Y-54003643D01*
X78492287Y-53983790D01*
X78498318Y-53981105D01*
X78660720Y-53908799D01*
X78660722Y-53908798D01*
X78666750Y-53906114D01*
X78747339Y-53847563D01*
X78821399Y-53823500D01*
X84134047Y-53823500D01*
X84142617Y-53823792D01*
X84197342Y-53827523D01*
X84204824Y-53826217D01*
X84204825Y-53826217D01*
X84213976Y-53824620D01*
X84260273Y-53816539D01*
X84266766Y-53815579D01*
X84330194Y-53807904D01*
X84337298Y-53805219D01*
X84339893Y-53804582D01*
X84356175Y-53800128D01*
X84358745Y-53799352D01*
X84366224Y-53798047D01*
X84373175Y-53794996D01*
X84373181Y-53794994D01*
X84424705Y-53772376D01*
X84430814Y-53769883D01*
X84483452Y-53749993D01*
X84483454Y-53749992D01*
X84490562Y-53747306D01*
X84496827Y-53743000D01*
X84499218Y-53741750D01*
X84513920Y-53733567D01*
X84516243Y-53732193D01*
X84523201Y-53729139D01*
X84529228Y-53724514D01*
X84529232Y-53724512D01*
X84573878Y-53690254D01*
X84579203Y-53686385D01*
X84609158Y-53665797D01*
X84625587Y-53654506D01*
X84625588Y-53654505D01*
X84631846Y-53650204D01*
X84643767Y-53636825D01*
X84670947Y-53606318D01*
X84675928Y-53601042D01*
X86316565Y-51960405D01*
X86378877Y-51926379D01*
X86405660Y-51923500D01*
X89848601Y-51923500D01*
X89922661Y-51947563D01*
X90003250Y-52006114D01*
X90009278Y-52008798D01*
X90009280Y-52008799D01*
X90171682Y-52081105D01*
X90177713Y-52083790D01*
X90271113Y-52103643D01*
X90358056Y-52122124D01*
X90358061Y-52122124D01*
X90364513Y-52123496D01*
X90555487Y-52123496D01*
X90561939Y-52122124D01*
X90561944Y-52122124D01*
X90648887Y-52103643D01*
X90742287Y-52083790D01*
X90748318Y-52081105D01*
X90910720Y-52008799D01*
X90910722Y-52008798D01*
X90916750Y-52006114D01*
X90922092Y-52002233D01*
X91065907Y-51897746D01*
X91065909Y-51897744D01*
X91071251Y-51893863D01*
X91075673Y-51888952D01*
X91194618Y-51756850D01*
X91194619Y-51756849D01*
X91199037Y-51751942D01*
X91294524Y-51586554D01*
X91353538Y-51404927D01*
X91373500Y-51215000D01*
X91358896Y-51076048D01*
X91354228Y-51031637D01*
X91354228Y-51031636D01*
X91353538Y-51025073D01*
X91294524Y-50843446D01*
X91199037Y-50678058D01*
X91071251Y-50536137D01*
X91065909Y-50532256D01*
X91065907Y-50532254D01*
X90922092Y-50427767D01*
X90922091Y-50427766D01*
X90916750Y-50423886D01*
X90910722Y-50421202D01*
X90910720Y-50421201D01*
X90748318Y-50348895D01*
X90748317Y-50348895D01*
X90742287Y-50346210D01*
X90648887Y-50326357D01*
X90561944Y-50307876D01*
X90561939Y-50307876D01*
X90555487Y-50306504D01*
X90364513Y-50306504D01*
X90358061Y-50307876D01*
X90358056Y-50307876D01*
X90271113Y-50326357D01*
X90177713Y-50346210D01*
X90171683Y-50348895D01*
X90171682Y-50348895D01*
X90009280Y-50421201D01*
X90009278Y-50421202D01*
X90003250Y-50423886D01*
X89930961Y-50476407D01*
X89922661Y-50482437D01*
X89848601Y-50506500D01*
X86085954Y-50506500D01*
X86077383Y-50506208D01*
X86022659Y-50502477D01*
X85959691Y-50513466D01*
X85953201Y-50514424D01*
X85889806Y-50522096D01*
X85882698Y-50524782D01*
X85880088Y-50525423D01*
X85863831Y-50529870D01*
X85861263Y-50530645D01*
X85853776Y-50531952D01*
X85833055Y-50541048D01*
X85795294Y-50557624D01*
X85789186Y-50560117D01*
X85770267Y-50567266D01*
X85729438Y-50582694D01*
X85723173Y-50587000D01*
X85720782Y-50588250D01*
X85706080Y-50596433D01*
X85703757Y-50597807D01*
X85696799Y-50600861D01*
X85690772Y-50605486D01*
X85690768Y-50605488D01*
X85646122Y-50639746D01*
X85640797Y-50643615D01*
X85588154Y-50679796D01*
X85583102Y-50685466D01*
X85583101Y-50685467D01*
X85549053Y-50723682D01*
X85544072Y-50728958D01*
X83903434Y-52369595D01*
X83841122Y-52403621D01*
X83814339Y-52406500D01*
X78821399Y-52406500D01*
X78747339Y-52382437D01*
X78729663Y-52369595D01*
X78666750Y-52323886D01*
X78660722Y-52321202D01*
X78660720Y-52321201D01*
X78498318Y-52248895D01*
X78498317Y-52248895D01*
X78492287Y-52246210D01*
X78398887Y-52226357D01*
X78311944Y-52207876D01*
X78311939Y-52207876D01*
X78305487Y-52206504D01*
X78114513Y-52206504D01*
X78108061Y-52207876D01*
X78108056Y-52207876D01*
X78021113Y-52226357D01*
X77927713Y-52246210D01*
X77921683Y-52248895D01*
X77921682Y-52248895D01*
X77759280Y-52321201D01*
X77759278Y-52321202D01*
X77753250Y-52323886D01*
X77747909Y-52327766D01*
X77747908Y-52327767D01*
X77604093Y-52432254D01*
X77604091Y-52432256D01*
X77598749Y-52436137D01*
X77594328Y-52441047D01*
X77594327Y-52441048D01*
X77480713Y-52567230D01*
X77470963Y-52578058D01*
X77375476Y-52743446D01*
X77316462Y-52925073D01*
X77296500Y-53115000D01*
X52063000Y-53115000D01*
X52063000Y-41807086D01*
X52083002Y-41738965D01*
X52136658Y-41692472D01*
X52206932Y-41682368D01*
X52249351Y-41698243D01*
X52249931Y-41697124D01*
X52265864Y-41705382D01*
X52450822Y-41779922D01*
X52462281Y-41783316D01*
X52659444Y-41821820D01*
X52668412Y-41822909D01*
X52668728Y-41822925D01*
X52671821Y-41823000D01*
X52850385Y-41823000D01*
X52865624Y-41818525D01*
X52866829Y-41817135D01*
X52868500Y-41809452D01*
X52868500Y-40982548D01*
X53376500Y-40982548D01*
X53376500Y-41804885D01*
X53380975Y-41820124D01*
X53382365Y-41821329D01*
X53390048Y-41823000D01*
X53521913Y-41823000D01*
X53527890Y-41822715D01*
X53676986Y-41808490D01*
X53688720Y-41806231D01*
X53880084Y-41750091D01*
X53891160Y-41745661D01*
X54068456Y-41654348D01*
X54078502Y-41647898D01*
X54235329Y-41524709D01*
X54243979Y-41516472D01*
X54374679Y-41365853D01*
X54381616Y-41356127D01*
X54481474Y-41183517D01*
X54486448Y-41172653D01*
X54551868Y-40984264D01*
X54552106Y-40983284D01*
X54550639Y-40972992D01*
X54537072Y-40969000D01*
X53394615Y-40969000D01*
X53379376Y-40973475D01*
X53378171Y-40974865D01*
X53376500Y-40982548D01*
X52868500Y-40982548D01*
X52868500Y-40748493D01*
X55153837Y-40748493D01*
X55159118Y-40755548D01*
X55290541Y-40832345D01*
X55300655Y-40837105D01*
X55496818Y-40908890D01*
X55507603Y-40911780D01*
X55713384Y-40947694D01*
X55724516Y-40948629D01*
X55933391Y-40947535D01*
X55944525Y-40946483D01*
X56149903Y-40908418D01*
X56160674Y-40905411D01*
X56356070Y-40831577D01*
X56366127Y-40826716D01*
X56481255Y-40757812D01*
X56490825Y-40747454D01*
X56487282Y-40738992D01*
X55835312Y-40087022D01*
X55821368Y-40079408D01*
X55819535Y-40079539D01*
X55812920Y-40083790D01*
X55160597Y-40736113D01*
X55153837Y-40748493D01*
X52868500Y-40748493D01*
X52868500Y-39625115D01*
X52867159Y-39620548D01*
X53376500Y-39620548D01*
X53376500Y-40442885D01*
X53380975Y-40458124D01*
X53382365Y-40459329D01*
X53390048Y-40461000D01*
X54532861Y-40461000D01*
X54546392Y-40457027D01*
X54550280Y-40429983D01*
X54579773Y-40365403D01*
X54639499Y-40327019D01*
X54710495Y-40327019D01*
X54765600Y-40362433D01*
X54765715Y-40362317D01*
X54766272Y-40362865D01*
X54770221Y-40365403D01*
X54773257Y-40369738D01*
X54788679Y-40384913D01*
X54796284Y-40382006D01*
X55450478Y-39727812D01*
X55456856Y-39716132D01*
X56186908Y-39716132D01*
X56187039Y-39717965D01*
X56191290Y-39724580D01*
X56845472Y-40378762D01*
X56857852Y-40385522D01*
X56864116Y-40380833D01*
X56956006Y-40211595D01*
X56960439Y-40201349D01*
X57026028Y-40003028D01*
X57028582Y-39992137D01*
X57058291Y-39783387D01*
X57058898Y-39776164D01*
X57060405Y-39718631D01*
X57060177Y-39711379D01*
X57041433Y-39501364D01*
X57039451Y-39490350D01*
X56984335Y-39288879D01*
X56980441Y-39278406D01*
X56890513Y-39089869D01*
X56884827Y-39080254D01*
X56866811Y-39055181D01*
X56856021Y-39046771D01*
X56842985Y-39053725D01*
X56194522Y-39702188D01*
X56186908Y-39716132D01*
X55456856Y-39716132D01*
X55458092Y-39713868D01*
X55457961Y-39712035D01*
X55453710Y-39705420D01*
X54802333Y-39054043D01*
X54789953Y-39047283D01*
X54781981Y-39053251D01*
X54722413Y-39148212D01*
X54717342Y-39158164D01*
X54639431Y-39351973D01*
X54636200Y-39362672D01*
X54593844Y-39567210D01*
X54592558Y-39578319D01*
X54587090Y-39787129D01*
X54587792Y-39798281D01*
X54619313Y-40004275D01*
X54609845Y-40074638D01*
X54563840Y-40128712D01*
X54495902Y-40149329D01*
X54427604Y-40129944D01*
X54391993Y-40096234D01*
X54318501Y-39992629D01*
X54310708Y-39983600D01*
X54166644Y-39845689D01*
X54157279Y-39838293D01*
X53989740Y-39730114D01*
X53979136Y-39724618D01*
X53794178Y-39650078D01*
X53782719Y-39646684D01*
X53585556Y-39608180D01*
X53576588Y-39607091D01*
X53576272Y-39607075D01*
X53573179Y-39607000D01*
X53394615Y-39607000D01*
X53379376Y-39611475D01*
X53378171Y-39612865D01*
X53376500Y-39620548D01*
X52867159Y-39620548D01*
X52864025Y-39609876D01*
X52862635Y-39608671D01*
X52854952Y-39607000D01*
X52723087Y-39607000D01*
X52717110Y-39607285D01*
X52568014Y-39621510D01*
X52556280Y-39623769D01*
X52364916Y-39679909D01*
X52353840Y-39684339D01*
X52246692Y-39739524D01*
X52176973Y-39752933D01*
X52111073Y-39726520D01*
X52069914Y-39668671D01*
X52063000Y-39627508D01*
X52063000Y-38680149D01*
X55152202Y-38680149D01*
X55158833Y-38692123D01*
X55809688Y-39342978D01*
X55823632Y-39350592D01*
X55825465Y-39350461D01*
X55832080Y-39346210D01*
X56483401Y-38694889D01*
X56489625Y-38683491D01*
X56479814Y-38671057D01*
X56423571Y-38633263D01*
X56413773Y-38627877D01*
X56222509Y-38543918D01*
X56211917Y-38540353D01*
X56008808Y-38491591D01*
X55997746Y-38489958D01*
X55789220Y-38477934D01*
X55778036Y-38478286D01*
X55570677Y-38503379D01*
X55559743Y-38505703D01*
X55360095Y-38567123D01*
X55349749Y-38571344D01*
X55164130Y-38667150D01*
X55159589Y-38670032D01*
X55152202Y-38680149D01*
X52063000Y-38680149D01*
X52063000Y-38352423D01*
X58628255Y-38352423D01*
X58636638Y-38404471D01*
X58639212Y-38414793D01*
X58710230Y-38622810D01*
X58714497Y-38632533D01*
X58819556Y-38825625D01*
X58825402Y-38834491D01*
X58961486Y-39007113D01*
X58968750Y-39014875D01*
X59131967Y-39162094D01*
X59140444Y-39168528D01*
X59326122Y-39286136D01*
X59335567Y-39291053D01*
X59538406Y-39375694D01*
X59548545Y-39378950D01*
X59688345Y-39411096D01*
X59702422Y-39410257D01*
X59706000Y-39400999D01*
X59706000Y-38352115D01*
X59704659Y-38347548D01*
X60214000Y-38347548D01*
X60214000Y-39399941D01*
X60218151Y-39414079D01*
X60228798Y-39415774D01*
X60232192Y-39415096D01*
X60443333Y-39353954D01*
X60453259Y-39350143D01*
X60651065Y-39254307D01*
X60660212Y-39248876D01*
X60839041Y-39121083D01*
X60847149Y-39114182D01*
X61001893Y-38958082D01*
X61008706Y-38949933D01*
X61134940Y-38769988D01*
X61140295Y-38760787D01*
X61234399Y-38562156D01*
X61238123Y-38552197D01*
X61295968Y-38345718D01*
X61294430Y-38337351D01*
X61282137Y-38334000D01*
X60232115Y-38334000D01*
X60216876Y-38338475D01*
X60215671Y-38339865D01*
X60214000Y-38347548D01*
X59704659Y-38347548D01*
X59701525Y-38336876D01*
X59700135Y-38335671D01*
X59692452Y-38334000D01*
X58643403Y-38334000D01*
X58630222Y-38337870D01*
X58628255Y-38352423D01*
X52063000Y-38352423D01*
X52063000Y-35748493D01*
X55153837Y-35748493D01*
X55159118Y-35755548D01*
X55290541Y-35832345D01*
X55300655Y-35837105D01*
X55496818Y-35908890D01*
X55507603Y-35911780D01*
X55713384Y-35947694D01*
X55724516Y-35948629D01*
X55933391Y-35947535D01*
X55944525Y-35946483D01*
X56149903Y-35908418D01*
X56160674Y-35905411D01*
X56356070Y-35831577D01*
X56366127Y-35826716D01*
X56481255Y-35757812D01*
X56490825Y-35747454D01*
X56487282Y-35738992D01*
X55835312Y-35087022D01*
X55821368Y-35079408D01*
X55819535Y-35079539D01*
X55812920Y-35083790D01*
X55160597Y-35736113D01*
X55153837Y-35748493D01*
X52063000Y-35748493D01*
X52063000Y-34807086D01*
X52083002Y-34738965D01*
X52136658Y-34692472D01*
X52206932Y-34682368D01*
X52249351Y-34698243D01*
X52249931Y-34697124D01*
X52265864Y-34705382D01*
X52450822Y-34779922D01*
X52462281Y-34783316D01*
X52659444Y-34821820D01*
X52668412Y-34822909D01*
X52668728Y-34822925D01*
X52671821Y-34823000D01*
X52850385Y-34823000D01*
X52865624Y-34818525D01*
X52866829Y-34817135D01*
X52868500Y-34809452D01*
X52868500Y-33982548D01*
X53376500Y-33982548D01*
X53376500Y-34804885D01*
X53380975Y-34820124D01*
X53382365Y-34821329D01*
X53390048Y-34823000D01*
X53521913Y-34823000D01*
X53527890Y-34822715D01*
X53676986Y-34808490D01*
X53688720Y-34806231D01*
X53880084Y-34750091D01*
X53891160Y-34745661D01*
X54068456Y-34654348D01*
X54078502Y-34647898D01*
X54235329Y-34524709D01*
X54243979Y-34516472D01*
X54374679Y-34365853D01*
X54381616Y-34356127D01*
X54389616Y-34342299D01*
X54441041Y-34293351D01*
X54510766Y-34279975D01*
X54576654Y-34306419D01*
X54617786Y-34364287D01*
X54622062Y-34430945D01*
X54593844Y-34567210D01*
X54592558Y-34578319D01*
X54587090Y-34787129D01*
X54587792Y-34798281D01*
X54619387Y-35004753D01*
X54622054Y-35015614D01*
X54689714Y-35213232D01*
X54694262Y-35223446D01*
X54778627Y-35375022D01*
X54788679Y-35384913D01*
X54796284Y-35382006D01*
X55450478Y-34727812D01*
X55456856Y-34716132D01*
X56186908Y-34716132D01*
X56187039Y-34717965D01*
X56191290Y-34724580D01*
X56845472Y-35378762D01*
X56857852Y-35385522D01*
X56864116Y-35380833D01*
X56956006Y-35211595D01*
X56960439Y-35201349D01*
X57026028Y-35003028D01*
X57028582Y-34992137D01*
X57058291Y-34783387D01*
X57058898Y-34776164D01*
X57060405Y-34718631D01*
X57060177Y-34711379D01*
X57058269Y-34690000D01*
X58596500Y-34690000D01*
X58596500Y-36390000D01*
X58601727Y-36463079D01*
X58642904Y-36603316D01*
X58647775Y-36610895D01*
X58717051Y-36718691D01*
X58717053Y-36718694D01*
X58721923Y-36726271D01*
X58728733Y-36732172D01*
X58825569Y-36816082D01*
X58825572Y-36816084D01*
X58832381Y-36821984D01*
X58965330Y-36882700D01*
X58972035Y-36883664D01*
X59030813Y-36921437D01*
X59060306Y-36986017D01*
X59050203Y-37056291D01*
X59018171Y-37099115D01*
X58986879Y-37126269D01*
X58979464Y-37133895D01*
X58840100Y-37303860D01*
X58834075Y-37312627D01*
X58725342Y-37503644D01*
X58720877Y-37513308D01*
X58645882Y-37719916D01*
X58643111Y-37730184D01*
X58629008Y-37808174D01*
X58630427Y-37821414D01*
X58645062Y-37826000D01*
X61279079Y-37826000D01*
X61292610Y-37822027D01*
X61293876Y-37813218D01*
X61246954Y-37632433D01*
X61243419Y-37622395D01*
X61153147Y-37421998D01*
X61147967Y-37412692D01*
X61025218Y-37230366D01*
X61018557Y-37222080D01*
X60890331Y-37087665D01*
X60857784Y-37024568D01*
X60864515Y-36953891D01*
X60908389Y-36898074D01*
X60946003Y-36879797D01*
X61014670Y-36859635D01*
X61014672Y-36859634D01*
X61023316Y-36857096D01*
X61087135Y-36816082D01*
X61138691Y-36782949D01*
X61138694Y-36782947D01*
X61146271Y-36778077D01*
X61186048Y-36732172D01*
X61236082Y-36674431D01*
X61236084Y-36674428D01*
X61241984Y-36667619D01*
X61302700Y-36534670D01*
X61313962Y-36456340D01*
X61322861Y-36394448D01*
X61322862Y-36394441D01*
X61323500Y-36390000D01*
X61323500Y-35689600D01*
X66751900Y-35689600D01*
X66771862Y-35879527D01*
X66773902Y-35885805D01*
X66773902Y-35885806D01*
X66804741Y-35980719D01*
X66830876Y-36061154D01*
X66926363Y-36226542D01*
X67054149Y-36368463D01*
X67059491Y-36372344D01*
X67059493Y-36372346D01*
X67203308Y-36476833D01*
X67208650Y-36480714D01*
X67214678Y-36483398D01*
X67214680Y-36483399D01*
X67294521Y-36518946D01*
X67309812Y-36525754D01*
X67326749Y-36533295D01*
X67380845Y-36579275D01*
X67401500Y-36648402D01*
X67401500Y-41040245D01*
X67381498Y-41108366D01*
X67369137Y-41124555D01*
X67320963Y-41178058D01*
X67317661Y-41183777D01*
X67317659Y-41183780D01*
X67228780Y-41337723D01*
X67225476Y-41343446D01*
X67221356Y-41356127D01*
X67169257Y-41516472D01*
X67166462Y-41525073D01*
X67165772Y-41531636D01*
X67165772Y-41531637D01*
X67159232Y-41593863D01*
X67146500Y-41715000D01*
X67147190Y-41721565D01*
X67165088Y-41891850D01*
X67166462Y-41904927D01*
X67225476Y-42086554D01*
X67228779Y-42092276D01*
X67228780Y-42092277D01*
X67254736Y-42137233D01*
X67320963Y-42251942D01*
X67325381Y-42256849D01*
X67325382Y-42256850D01*
X67418830Y-42360635D01*
X67448749Y-42393863D01*
X67454091Y-42397744D01*
X67454093Y-42397746D01*
X67549330Y-42466939D01*
X67603250Y-42506114D01*
X67609278Y-42508798D01*
X67609280Y-42508799D01*
X67771682Y-42581105D01*
X67777713Y-42583790D01*
X67871113Y-42603643D01*
X67958056Y-42622124D01*
X67958061Y-42622124D01*
X67964513Y-42623496D01*
X68155487Y-42623496D01*
X68161939Y-42622124D01*
X68161944Y-42622124D01*
X68248887Y-42603643D01*
X68342287Y-42583790D01*
X68348318Y-42581105D01*
X68510720Y-42508799D01*
X68510722Y-42508798D01*
X68516750Y-42506114D01*
X68570670Y-42466939D01*
X68665907Y-42397746D01*
X68665909Y-42397744D01*
X68671251Y-42393863D01*
X68701170Y-42360635D01*
X68794618Y-42256850D01*
X68794619Y-42256849D01*
X68799037Y-42251942D01*
X68865264Y-42137233D01*
X68891220Y-42092277D01*
X68891221Y-42092276D01*
X68894524Y-42086554D01*
X68953538Y-41904927D01*
X68954913Y-41891850D01*
X68972810Y-41721565D01*
X68973500Y-41715000D01*
X68960768Y-41593863D01*
X68954228Y-41531637D01*
X68954228Y-41531636D01*
X68953538Y-41525073D01*
X68950744Y-41516472D01*
X68898644Y-41356127D01*
X68894524Y-41343446D01*
X68891220Y-41337723D01*
X68802341Y-41183780D01*
X68802339Y-41183777D01*
X68799037Y-41178058D01*
X68750863Y-41124555D01*
X68720146Y-41060547D01*
X68718500Y-41040245D01*
X68718500Y-38915000D01*
X69946500Y-38915000D01*
X69947190Y-38921565D01*
X69961234Y-39055181D01*
X69966462Y-39104927D01*
X70025476Y-39286554D01*
X70120963Y-39451942D01*
X70125381Y-39456849D01*
X70125382Y-39456850D01*
X70234753Y-39578319D01*
X70248749Y-39593863D01*
X70254091Y-39597744D01*
X70254093Y-39597746D01*
X70373279Y-39684339D01*
X70403250Y-39706114D01*
X70409278Y-39708798D01*
X70409280Y-39708799D01*
X70563940Y-39777658D01*
X70577713Y-39783790D01*
X70730563Y-39816280D01*
X70793461Y-39850431D01*
X71014596Y-40071567D01*
X71048621Y-40133879D01*
X71051500Y-40160662D01*
X71051500Y-43114987D01*
X71034619Y-43177986D01*
X70971076Y-43288046D01*
X70912062Y-43469673D01*
X70892100Y-43659600D01*
X70912062Y-43849527D01*
X70914102Y-43855805D01*
X70914102Y-43855806D01*
X70928206Y-43899214D01*
X70971076Y-44031154D01*
X70974379Y-44036876D01*
X70974380Y-44036877D01*
X70980688Y-44047802D01*
X71066563Y-44196542D01*
X71194349Y-44338463D01*
X71199691Y-44342344D01*
X71199693Y-44342346D01*
X71293362Y-44410400D01*
X71348850Y-44450714D01*
X71354878Y-44453398D01*
X71354880Y-44453399D01*
X71395682Y-44471565D01*
X71523313Y-44528390D01*
X71616713Y-44548243D01*
X71703656Y-44566724D01*
X71703661Y-44566724D01*
X71710113Y-44568096D01*
X71901087Y-44568096D01*
X71907539Y-44566724D01*
X71907544Y-44566724D01*
X71994487Y-44548243D01*
X72087887Y-44528390D01*
X72215518Y-44471565D01*
X72256320Y-44453399D01*
X72256322Y-44453398D01*
X72262350Y-44450714D01*
X72317838Y-44410400D01*
X72411507Y-44342346D01*
X72411509Y-44342344D01*
X72416851Y-44338463D01*
X72544637Y-44196542D01*
X72630512Y-44047802D01*
X72636820Y-44036877D01*
X72636821Y-44036876D01*
X72640124Y-44031154D01*
X72682994Y-43899214D01*
X72697098Y-43855806D01*
X72697098Y-43855805D01*
X72699138Y-43849527D01*
X72719100Y-43659600D01*
X72699138Y-43469673D01*
X72640124Y-43288046D01*
X72544637Y-43122658D01*
X72500864Y-43074043D01*
X72470146Y-43010036D01*
X72468500Y-42989733D01*
X72468500Y-39840938D01*
X72468792Y-39832368D01*
X72472006Y-39785234D01*
X72472006Y-39785230D01*
X72472522Y-39777658D01*
X72461535Y-39714708D01*
X72460576Y-39708205D01*
X72459854Y-39702233D01*
X72452904Y-39644806D01*
X72450217Y-39637697D01*
X72449576Y-39635085D01*
X72445128Y-39618825D01*
X72444352Y-39616255D01*
X72443047Y-39608776D01*
X72439996Y-39601825D01*
X72439994Y-39601819D01*
X72417376Y-39550295D01*
X72414883Y-39544186D01*
X72394993Y-39491548D01*
X72394992Y-39491546D01*
X72392306Y-39484438D01*
X72388000Y-39478173D01*
X72386750Y-39475782D01*
X72378563Y-39461073D01*
X72377193Y-39458756D01*
X72374139Y-39451799D01*
X72369518Y-39445776D01*
X72369514Y-39445770D01*
X72335245Y-39401108D01*
X72331370Y-39395775D01*
X72317568Y-39375694D01*
X72295204Y-39343154D01*
X72251326Y-39304060D01*
X72246051Y-39299080D01*
X71794660Y-38847689D01*
X71760634Y-38785377D01*
X71758445Y-38771763D01*
X71758259Y-38769988D01*
X71753538Y-38725073D01*
X71694524Y-38543446D01*
X71599037Y-38378058D01*
X71563397Y-38338475D01*
X71475673Y-38241048D01*
X71475672Y-38241047D01*
X71471251Y-38236137D01*
X71465909Y-38232256D01*
X71465907Y-38232254D01*
X71322092Y-38127767D01*
X71322091Y-38127766D01*
X71316750Y-38123886D01*
X71310722Y-38121202D01*
X71310720Y-38121201D01*
X71148318Y-38048895D01*
X71148317Y-38048895D01*
X71142287Y-38046210D01*
X71048887Y-38026357D01*
X70961944Y-38007876D01*
X70961939Y-38007876D01*
X70955487Y-38006504D01*
X70764513Y-38006504D01*
X70758061Y-38007876D01*
X70758056Y-38007876D01*
X70671113Y-38026357D01*
X70577713Y-38046210D01*
X70571683Y-38048895D01*
X70571682Y-38048895D01*
X70409280Y-38121201D01*
X70409278Y-38121202D01*
X70403250Y-38123886D01*
X70397909Y-38127766D01*
X70397908Y-38127767D01*
X70254093Y-38232254D01*
X70254091Y-38232256D01*
X70248749Y-38236137D01*
X70244328Y-38241047D01*
X70244327Y-38241048D01*
X70156604Y-38338475D01*
X70120963Y-38378058D01*
X70025476Y-38543446D01*
X69966462Y-38725073D01*
X69946500Y-38915000D01*
X68718500Y-38915000D01*
X68718500Y-36005780D01*
X68718974Y-35995716D01*
X68720556Y-35988641D01*
X68718562Y-35925189D01*
X68718500Y-35921231D01*
X68718500Y-35886621D01*
X68718003Y-35882684D01*
X68717714Y-35880395D01*
X68716783Y-35868570D01*
X68715581Y-35830331D01*
X68715332Y-35822406D01*
X68709350Y-35801814D01*
X68705341Y-35782455D01*
X68703649Y-35769059D01*
X68703648Y-35769056D01*
X68702655Y-35761194D01*
X68697215Y-35747454D01*
X68685659Y-35718267D01*
X68681814Y-35707036D01*
X68671143Y-35670306D01*
X68671142Y-35670304D01*
X68668931Y-35662693D01*
X68658014Y-35644234D01*
X68649321Y-35626488D01*
X68649065Y-35625843D01*
X68641429Y-35606556D01*
X68636767Y-35600139D01*
X68614288Y-35569199D01*
X68607770Y-35559277D01*
X68587292Y-35524651D01*
X68584268Y-35519537D01*
X68581825Y-35516766D01*
X68577540Y-35512481D01*
X68546802Y-35462322D01*
X68501966Y-35324331D01*
X68499924Y-35318046D01*
X68404437Y-35152658D01*
X68338601Y-35079539D01*
X68281073Y-35015648D01*
X68281072Y-35015647D01*
X68276651Y-35010737D01*
X68271309Y-35006856D01*
X68271307Y-35006854D01*
X68127492Y-34902367D01*
X68127491Y-34902366D01*
X68122150Y-34898486D01*
X68116122Y-34895802D01*
X68116120Y-34895801D01*
X67953718Y-34823495D01*
X67953717Y-34823495D01*
X67947687Y-34820810D01*
X67841698Y-34798281D01*
X67767344Y-34782476D01*
X67767339Y-34782476D01*
X67760887Y-34781104D01*
X67569913Y-34781104D01*
X67563461Y-34782476D01*
X67563456Y-34782476D01*
X67489102Y-34798281D01*
X67383113Y-34820810D01*
X67377083Y-34823495D01*
X67377082Y-34823495D01*
X67214680Y-34895801D01*
X67214678Y-34895802D01*
X67208650Y-34898486D01*
X67203309Y-34902366D01*
X67203308Y-34902367D01*
X67059493Y-35006854D01*
X67059491Y-35006856D01*
X67054149Y-35010737D01*
X67049728Y-35015647D01*
X67049727Y-35015648D01*
X66992200Y-35079539D01*
X66926363Y-35152658D01*
X66830876Y-35318046D01*
X66771862Y-35499673D01*
X66771172Y-35506236D01*
X66771172Y-35506237D01*
X66758533Y-35626488D01*
X66751900Y-35689600D01*
X61323500Y-35689600D01*
X61323500Y-34690000D01*
X61318273Y-34616921D01*
X61277096Y-34476684D01*
X61205869Y-34365853D01*
X61202949Y-34361309D01*
X61202947Y-34361306D01*
X61198077Y-34353729D01*
X61184886Y-34342299D01*
X61094431Y-34263918D01*
X61094428Y-34263916D01*
X61087619Y-34258016D01*
X60954670Y-34197300D01*
X60945755Y-34196018D01*
X60945754Y-34196018D01*
X60814448Y-34177139D01*
X60814441Y-34177138D01*
X60810000Y-34176500D01*
X59110000Y-34176500D01*
X59036921Y-34181727D01*
X58983884Y-34197300D01*
X58905330Y-34220365D01*
X58905328Y-34220366D01*
X58896684Y-34222904D01*
X58889105Y-34227775D01*
X58781309Y-34297051D01*
X58781306Y-34297053D01*
X58773729Y-34301923D01*
X58767828Y-34308733D01*
X58683918Y-34405569D01*
X58683916Y-34405572D01*
X58678016Y-34412381D01*
X58617300Y-34545330D01*
X58616018Y-34554245D01*
X58616018Y-34554246D01*
X58597139Y-34685552D01*
X58597138Y-34685559D01*
X58596500Y-34690000D01*
X57058269Y-34690000D01*
X57041433Y-34501364D01*
X57039451Y-34490350D01*
X56984335Y-34288879D01*
X56980441Y-34278406D01*
X56890513Y-34089869D01*
X56884827Y-34080254D01*
X56866811Y-34055181D01*
X56856021Y-34046771D01*
X56842985Y-34053725D01*
X56194522Y-34702188D01*
X56186908Y-34716132D01*
X55456856Y-34716132D01*
X55458092Y-34713868D01*
X55457961Y-34712035D01*
X55453710Y-34705420D01*
X54802333Y-34054043D01*
X54789953Y-34047283D01*
X54764162Y-34066590D01*
X54764076Y-34066475D01*
X54732549Y-34094400D01*
X54662389Y-34105267D01*
X54597492Y-34076478D01*
X54558461Y-34017173D01*
X54554225Y-33998146D01*
X54550639Y-33972992D01*
X54537072Y-33969000D01*
X53394615Y-33969000D01*
X53379376Y-33973475D01*
X53378171Y-33974865D01*
X53376500Y-33982548D01*
X52868500Y-33982548D01*
X52868500Y-33680149D01*
X55152202Y-33680149D01*
X55158833Y-33692123D01*
X55809688Y-34342978D01*
X55823632Y-34350592D01*
X55825465Y-34350461D01*
X55832080Y-34346210D01*
X56483401Y-33694889D01*
X56489625Y-33683491D01*
X56479814Y-33671057D01*
X56423571Y-33633263D01*
X56413773Y-33627877D01*
X56222509Y-33543918D01*
X56211917Y-33540353D01*
X56008808Y-33491591D01*
X55997746Y-33489958D01*
X55789220Y-33477934D01*
X55778036Y-33478286D01*
X55570677Y-33503379D01*
X55559743Y-33505703D01*
X55360095Y-33567123D01*
X55349749Y-33571344D01*
X55164130Y-33667150D01*
X55159589Y-33670032D01*
X55152202Y-33680149D01*
X52868500Y-33680149D01*
X52868500Y-32625115D01*
X52867159Y-32620548D01*
X53376500Y-32620548D01*
X53376500Y-33442885D01*
X53380975Y-33458124D01*
X53382365Y-33459329D01*
X53390048Y-33461000D01*
X54532861Y-33461000D01*
X54546392Y-33457027D01*
X54547747Y-33447601D01*
X54526268Y-33358476D01*
X54522379Y-33347181D01*
X54439836Y-33165638D01*
X54433889Y-33155296D01*
X54318501Y-32992629D01*
X54310708Y-32983600D01*
X54291278Y-32965000D01*
X71971500Y-32965000D01*
X71971500Y-34665000D01*
X71976727Y-34738079D01*
X71979370Y-34747079D01*
X72009350Y-34849182D01*
X72017904Y-34878316D01*
X72022775Y-34885895D01*
X72092051Y-34993691D01*
X72092053Y-34993694D01*
X72096923Y-35001271D01*
X72103733Y-35007172D01*
X72200569Y-35091082D01*
X72200572Y-35091084D01*
X72207381Y-35096984D01*
X72215579Y-35100728D01*
X72329290Y-35152658D01*
X72340330Y-35157700D01*
X72349245Y-35158982D01*
X72349246Y-35158982D01*
X72480552Y-35177861D01*
X72480559Y-35177862D01*
X72485000Y-35178500D01*
X74185000Y-35178500D01*
X74258079Y-35173273D01*
X74350636Y-35146096D01*
X74389670Y-35134635D01*
X74389672Y-35134634D01*
X74398316Y-35132096D01*
X74480096Y-35079539D01*
X74513691Y-35057949D01*
X74513694Y-35057947D01*
X74521271Y-35053077D01*
X74561324Y-35006854D01*
X74611082Y-34949431D01*
X74611084Y-34949428D01*
X74616984Y-34942619D01*
X74677700Y-34809670D01*
X74678373Y-34804987D01*
X74715589Y-34747079D01*
X74780171Y-34717586D01*
X74850444Y-34727691D01*
X74882493Y-34748741D01*
X75046967Y-34897094D01*
X75055444Y-34903528D01*
X75241122Y-35021136D01*
X75250567Y-35026053D01*
X75453406Y-35110694D01*
X75463545Y-35113950D01*
X75603345Y-35146096D01*
X75617422Y-35145257D01*
X75621000Y-35135999D01*
X75621000Y-34082548D01*
X76129000Y-34082548D01*
X76129000Y-35134941D01*
X76133151Y-35149079D01*
X76143798Y-35150774D01*
X76147192Y-35150096D01*
X76358333Y-35088954D01*
X76368259Y-35085143D01*
X76566065Y-34989307D01*
X76575212Y-34983876D01*
X76754041Y-34856083D01*
X76762149Y-34849182D01*
X76916893Y-34693082D01*
X76923706Y-34684933D01*
X77049940Y-34504988D01*
X77055295Y-34495787D01*
X77149399Y-34297156D01*
X77153123Y-34287197D01*
X77210968Y-34080718D01*
X77209430Y-34072351D01*
X77197137Y-34069000D01*
X76147115Y-34069000D01*
X76131876Y-34073475D01*
X76130671Y-34074865D01*
X76129000Y-34082548D01*
X75621000Y-34082548D01*
X75621000Y-32498717D01*
X75620328Y-32496430D01*
X76129000Y-32496430D01*
X76129000Y-33542885D01*
X76133475Y-33558124D01*
X76134865Y-33559329D01*
X76142548Y-33561000D01*
X77194079Y-33561000D01*
X77207610Y-33557027D01*
X77208876Y-33548218D01*
X77161954Y-33367433D01*
X77158419Y-33357395D01*
X77068147Y-33156998D01*
X77062967Y-33147692D01*
X76940218Y-32965366D01*
X76933557Y-32957080D01*
X76781830Y-32798030D01*
X76773873Y-32790990D01*
X76597523Y-32659782D01*
X76588486Y-32654178D01*
X76392550Y-32554559D01*
X76382699Y-32550559D01*
X76172778Y-32485378D01*
X76162396Y-32483095D01*
X76146959Y-32481049D01*
X76132792Y-32483246D01*
X76129000Y-32496430D01*
X75620328Y-32496430D01*
X75617027Y-32485186D01*
X75606420Y-32483661D01*
X75488554Y-32508391D01*
X75478358Y-32511451D01*
X75273932Y-32592182D01*
X75264396Y-32596916D01*
X75076486Y-32710942D01*
X75067896Y-32717206D01*
X74901884Y-32861264D01*
X74894472Y-32868886D01*
X74892513Y-32871276D01*
X74891431Y-32872014D01*
X74890749Y-32872715D01*
X74890606Y-32872576D01*
X74833855Y-32911273D01*
X74762885Y-32913209D01*
X74702135Y-32876468D01*
X74674178Y-32826888D01*
X74654635Y-32760330D01*
X74654634Y-32760328D01*
X74652096Y-32751684D01*
X74605969Y-32679909D01*
X74577949Y-32636309D01*
X74577947Y-32636306D01*
X74573077Y-32628729D01*
X74549929Y-32608671D01*
X74469431Y-32538918D01*
X74469428Y-32538916D01*
X74462619Y-32533016D01*
X74454421Y-32529272D01*
X74337864Y-32476042D01*
X74337863Y-32476042D01*
X74329670Y-32472300D01*
X74320755Y-32471018D01*
X74320754Y-32471018D01*
X74189448Y-32452139D01*
X74189441Y-32452138D01*
X74185000Y-32451500D01*
X72485000Y-32451500D01*
X72411921Y-32456727D01*
X72358884Y-32472300D01*
X72280330Y-32495365D01*
X72280328Y-32495366D01*
X72271684Y-32497904D01*
X72264105Y-32502775D01*
X72156309Y-32572051D01*
X72156306Y-32572053D01*
X72148729Y-32576923D01*
X72142828Y-32583733D01*
X72058918Y-32680569D01*
X72058916Y-32680572D01*
X72053016Y-32687381D01*
X71992300Y-32820330D01*
X71991018Y-32829245D01*
X71991018Y-32829246D01*
X71972139Y-32960552D01*
X71972138Y-32960559D01*
X71971500Y-32965000D01*
X54291278Y-32965000D01*
X54166644Y-32845689D01*
X54157279Y-32838293D01*
X53989740Y-32730114D01*
X53979136Y-32724618D01*
X53794178Y-32650078D01*
X53782719Y-32646684D01*
X53585556Y-32608180D01*
X53576588Y-32607091D01*
X53576272Y-32607075D01*
X53573179Y-32607000D01*
X53394615Y-32607000D01*
X53379376Y-32611475D01*
X53378171Y-32612865D01*
X53376500Y-32620548D01*
X52867159Y-32620548D01*
X52864025Y-32609876D01*
X52862635Y-32608671D01*
X52854952Y-32607000D01*
X52723087Y-32607000D01*
X52717110Y-32607285D01*
X52568014Y-32621510D01*
X52556280Y-32623769D01*
X52364916Y-32679909D01*
X52353840Y-32684339D01*
X52246692Y-32739524D01*
X52176973Y-32752933D01*
X52111073Y-32726520D01*
X52069914Y-32668671D01*
X52063000Y-32627508D01*
X52063000Y-28451793D01*
X53568747Y-28451793D01*
X53568823Y-28452863D01*
X53572008Y-28457697D01*
X53852304Y-28672776D01*
X53857934Y-28676631D01*
X54162897Y-28862052D01*
X54168899Y-28865270D01*
X54492114Y-29016674D01*
X54498419Y-29019222D01*
X54836099Y-29134836D01*
X54842650Y-29136689D01*
X55190827Y-29215154D01*
X55197546Y-29216291D01*
X55552170Y-29256696D01*
X55558960Y-29257099D01*
X55915869Y-29258967D01*
X55922670Y-29258635D01*
X56277697Y-29221947D01*
X56284425Y-29220881D01*
X56633419Y-29146062D01*
X56639968Y-29144283D01*
X56978845Y-29032211D01*
X56985187Y-29029725D01*
X57309949Y-28881723D01*
X57316008Y-28878556D01*
X57622888Y-28696343D01*
X57628552Y-28692551D01*
X57873048Y-28508978D01*
X71946500Y-28508978D01*
X71946500Y-30107886D01*
X71961978Y-30240643D01*
X72022313Y-30406864D01*
X72119269Y-30554747D01*
X72247645Y-30676358D01*
X72400555Y-30765175D01*
X72569796Y-30816433D01*
X72576236Y-30817008D01*
X72576237Y-30817008D01*
X72646185Y-30823251D01*
X72646191Y-30823251D01*
X72648978Y-30823500D01*
X73947886Y-30823500D01*
X74043106Y-30812398D01*
X74073371Y-30808870D01*
X74073372Y-30808870D01*
X74080643Y-30808022D01*
X74087521Y-30805526D01*
X74087523Y-30805525D01*
X74239985Y-30750184D01*
X74246864Y-30747687D01*
X74394747Y-30650731D01*
X74516358Y-30522355D01*
X74520033Y-30516028D01*
X74520036Y-30516024D01*
X74591146Y-30393598D01*
X74642657Y-30344739D01*
X74712405Y-30331485D01*
X74778247Y-30358045D01*
X74791270Y-30369911D01*
X74898170Y-30481970D01*
X74906127Y-30489010D01*
X75082477Y-30620218D01*
X75091514Y-30625822D01*
X75287450Y-30725441D01*
X75297301Y-30729441D01*
X75507222Y-30794622D01*
X75517604Y-30796905D01*
X75533041Y-30798951D01*
X75547208Y-30796754D01*
X75551000Y-30783570D01*
X75551000Y-29582548D01*
X76059000Y-29582548D01*
X76059000Y-30781283D01*
X76062973Y-30794814D01*
X76073580Y-30796339D01*
X76191446Y-30771609D01*
X76201642Y-30768549D01*
X76406068Y-30687818D01*
X76415604Y-30683084D01*
X76603514Y-30569058D01*
X76612104Y-30562794D01*
X76778116Y-30418736D01*
X76785536Y-30411105D01*
X76924900Y-30241140D01*
X76930925Y-30232373D01*
X77039658Y-30041356D01*
X77044123Y-30031692D01*
X77119118Y-29825084D01*
X77121889Y-29814816D01*
X77161212Y-29597354D01*
X77162147Y-29589124D01*
X77162346Y-29584889D01*
X77158525Y-29571876D01*
X77157135Y-29570671D01*
X77149452Y-29569000D01*
X76077115Y-29569000D01*
X76061876Y-29573475D01*
X76060671Y-29574865D01*
X76059000Y-29582548D01*
X75551000Y-29582548D01*
X75551000Y-27848717D01*
X75550328Y-27846430D01*
X76059000Y-27846430D01*
X76059000Y-29042885D01*
X76063475Y-29058124D01*
X76064865Y-29059329D01*
X76072548Y-29061000D01*
X77141061Y-29061000D01*
X77155739Y-29056690D01*
X77157802Y-29044807D01*
X77148965Y-28940669D01*
X77147173Y-28930181D01*
X77091952Y-28717427D01*
X77088420Y-28707399D01*
X76998147Y-28506998D01*
X76992967Y-28497692D01*
X76962066Y-28451793D01*
X130568747Y-28451793D01*
X130568823Y-28452863D01*
X130572008Y-28457697D01*
X130852304Y-28672776D01*
X130857934Y-28676631D01*
X131162897Y-28862052D01*
X131168899Y-28865270D01*
X131492114Y-29016674D01*
X131498419Y-29019222D01*
X131836099Y-29134836D01*
X131842650Y-29136689D01*
X132190827Y-29215154D01*
X132197546Y-29216291D01*
X132552170Y-29256696D01*
X132558960Y-29257099D01*
X132915869Y-29258967D01*
X132922670Y-29258635D01*
X133277697Y-29221947D01*
X133284425Y-29220881D01*
X133633419Y-29146062D01*
X133639968Y-29144283D01*
X133978845Y-29032211D01*
X133985187Y-29029725D01*
X134309949Y-28881723D01*
X134316008Y-28878556D01*
X134622888Y-28696343D01*
X134628552Y-28692551D01*
X134913962Y-28478259D01*
X134919188Y-28473874D01*
X134932037Y-28461850D01*
X134940105Y-28448172D01*
X134940077Y-28447446D01*
X134934935Y-28439145D01*
X132767812Y-26272022D01*
X132753868Y-26264408D01*
X132752035Y-26264539D01*
X132745420Y-26268790D01*
X130576361Y-28437849D01*
X130568747Y-28451793D01*
X76962066Y-28451793D01*
X76870218Y-28315366D01*
X76863557Y-28307080D01*
X76711830Y-28148030D01*
X76703873Y-28140990D01*
X76527523Y-28009782D01*
X76518486Y-28004178D01*
X76322550Y-27904559D01*
X76312699Y-27900559D01*
X76102778Y-27835378D01*
X76092396Y-27833095D01*
X76076959Y-27831049D01*
X76062792Y-27833246D01*
X76059000Y-27846430D01*
X75550328Y-27846430D01*
X75547027Y-27835186D01*
X75536420Y-27833661D01*
X75418554Y-27858391D01*
X75408358Y-27861451D01*
X75203932Y-27942182D01*
X75194396Y-27946916D01*
X75006486Y-28060942D01*
X74997896Y-28067206D01*
X74831884Y-28211264D01*
X74824464Y-28218895D01*
X74798695Y-28250322D01*
X74740035Y-28290317D01*
X74669065Y-28292248D01*
X74608316Y-28255503D01*
X74589522Y-28228192D01*
X74587687Y-28223136D01*
X74495688Y-28082813D01*
X74494743Y-28081372D01*
X74494742Y-28081371D01*
X74490731Y-28075253D01*
X74362355Y-27953642D01*
X74209445Y-27864825D01*
X74040204Y-27813567D01*
X74033764Y-27812992D01*
X74033763Y-27812992D01*
X73963815Y-27806749D01*
X73963809Y-27806749D01*
X73961022Y-27806500D01*
X72662114Y-27806500D01*
X72566894Y-27817602D01*
X72536629Y-27821130D01*
X72536628Y-27821130D01*
X72529357Y-27821978D01*
X72522479Y-27824474D01*
X72522477Y-27824475D01*
X72429040Y-27858391D01*
X72363136Y-27882313D01*
X72215253Y-27979269D01*
X72093642Y-28107645D01*
X72004825Y-28260555D01*
X71953567Y-28429796D01*
X71952992Y-28436236D01*
X71952992Y-28436237D01*
X71949242Y-28478259D01*
X71946500Y-28508978D01*
X57873048Y-28508978D01*
X57913962Y-28478259D01*
X57919188Y-28473874D01*
X57932037Y-28461850D01*
X57940105Y-28448172D01*
X57940077Y-28447446D01*
X57934935Y-28439145D01*
X55767812Y-26272022D01*
X55753868Y-26264408D01*
X55752035Y-26264539D01*
X55745420Y-26268790D01*
X53576361Y-28437849D01*
X53568747Y-28451793D01*
X52063000Y-28451793D01*
X52063000Y-25981733D01*
X52064751Y-25960803D01*
X52066678Y-25949365D01*
X52066679Y-25949349D01*
X52067486Y-25944561D01*
X52068143Y-25891657D01*
X52392192Y-25891657D01*
X52410251Y-26248134D01*
X52410961Y-26254890D01*
X52467411Y-26607319D01*
X52468850Y-26613974D01*
X52563030Y-26958237D01*
X52565179Y-26964698D01*
X52695991Y-27296784D01*
X52698822Y-27302967D01*
X52864734Y-27618984D01*
X52868217Y-27624826D01*
X53067292Y-27921081D01*
X53071385Y-27926511D01*
X53195892Y-28074369D01*
X53208631Y-28082813D01*
X53219074Y-28076716D01*
X55382978Y-25912812D01*
X55389356Y-25901132D01*
X56119408Y-25901132D01*
X56119539Y-25902965D01*
X56123790Y-25909580D01*
X58289511Y-28075301D01*
X58303108Y-28082726D01*
X58312717Y-28076029D01*
X58417251Y-27954498D01*
X58421400Y-27949110D01*
X58623561Y-27654964D01*
X58627108Y-27649153D01*
X58796311Y-27334908D01*
X58799218Y-27328730D01*
X58933499Y-26998038D01*
X58935713Y-26991608D01*
X59033493Y-26648346D01*
X59035000Y-26641716D01*
X59095141Y-26289881D01*
X59095921Y-26283141D01*
X59117808Y-25925275D01*
X59117924Y-25921673D01*
X59117994Y-25901820D01*
X59117902Y-25898193D01*
X59117548Y-25891657D01*
X129392192Y-25891657D01*
X129410251Y-26248134D01*
X129410961Y-26254890D01*
X129467411Y-26607319D01*
X129468850Y-26613974D01*
X129563030Y-26958237D01*
X129565179Y-26964698D01*
X129695991Y-27296784D01*
X129698822Y-27302967D01*
X129864734Y-27618984D01*
X129868217Y-27624826D01*
X130067292Y-27921081D01*
X130071385Y-27926511D01*
X130195892Y-28074369D01*
X130208631Y-28082813D01*
X130219074Y-28076716D01*
X132382978Y-25912812D01*
X132389356Y-25901132D01*
X133119408Y-25901132D01*
X133119539Y-25902965D01*
X133123790Y-25909580D01*
X135289511Y-28075301D01*
X135303108Y-28082726D01*
X135312717Y-28076029D01*
X135417251Y-27954498D01*
X135421400Y-27949110D01*
X135623561Y-27654964D01*
X135627108Y-27649153D01*
X135796311Y-27334908D01*
X135799218Y-27328730D01*
X135933499Y-26998038D01*
X135935713Y-26991608D01*
X136033493Y-26648346D01*
X136035000Y-26641716D01*
X136095141Y-26289881D01*
X136095921Y-26283141D01*
X136117808Y-25925275D01*
X136117924Y-25921673D01*
X136117994Y-25901820D01*
X136117902Y-25898193D01*
X136098514Y-25540200D01*
X136097779Y-25533434D01*
X136040101Y-25181218D01*
X136038634Y-25174546D01*
X135943258Y-24830634D01*
X135941084Y-24824170D01*
X135809115Y-24492547D01*
X135806259Y-24486367D01*
X135639249Y-24170939D01*
X135635749Y-24165114D01*
X135435637Y-23869550D01*
X135431523Y-23864130D01*
X135314089Y-23725656D01*
X135301263Y-23717219D01*
X135290938Y-23723272D01*
X133127022Y-25887188D01*
X133119408Y-25901132D01*
X132389356Y-25901132D01*
X132390592Y-25898868D01*
X132390461Y-25897035D01*
X132386210Y-25890420D01*
X130220479Y-23724689D01*
X130206942Y-23717297D01*
X130197241Y-23724084D01*
X130085595Y-23854806D01*
X130081461Y-23860214D01*
X129880336Y-24155051D01*
X129876801Y-24160888D01*
X129708694Y-24475725D01*
X129705813Y-24481904D01*
X129572689Y-24813060D01*
X129570498Y-24819495D01*
X129473913Y-25163106D01*
X129472430Y-25169742D01*
X129413521Y-25521765D01*
X129412762Y-25528537D01*
X129392216Y-25884862D01*
X129392192Y-25891657D01*
X59117548Y-25891657D01*
X59098514Y-25540200D01*
X59097779Y-25533434D01*
X59040101Y-25181218D01*
X59038634Y-25174546D01*
X58943258Y-24830634D01*
X58941084Y-24824170D01*
X58809115Y-24492547D01*
X58806259Y-24486367D01*
X58639249Y-24170939D01*
X58635749Y-24165114D01*
X58435637Y-23869550D01*
X58431523Y-23864130D01*
X58314089Y-23725656D01*
X58301263Y-23717219D01*
X58290938Y-23723272D01*
X56127022Y-25887188D01*
X56119408Y-25901132D01*
X55389356Y-25901132D01*
X55390592Y-25898868D01*
X55390461Y-25897035D01*
X55386210Y-25890420D01*
X53220479Y-23724689D01*
X53206942Y-23717297D01*
X53197241Y-23724084D01*
X53085595Y-23854806D01*
X53081461Y-23860214D01*
X52880336Y-24155051D01*
X52876801Y-24160888D01*
X52708694Y-24475725D01*
X52705813Y-24481904D01*
X52572689Y-24813060D01*
X52570498Y-24819495D01*
X52473913Y-25163106D01*
X52472430Y-25169742D01*
X52413521Y-25521765D01*
X52412762Y-25528537D01*
X52392216Y-25884862D01*
X52392192Y-25891657D01*
X52068143Y-25891657D01*
X52069510Y-25781659D01*
X52069650Y-25777100D01*
X52074287Y-25682718D01*
X52074741Y-25676561D01*
X52101866Y-25401158D01*
X52102618Y-25395062D01*
X52107294Y-25363538D01*
X52113312Y-25322975D01*
X52114369Y-25316885D01*
X52168342Y-25045536D01*
X52169697Y-25039502D01*
X52187409Y-24968790D01*
X52189054Y-24962846D01*
X52269368Y-24698090D01*
X52271307Y-24692221D01*
X52295856Y-24623607D01*
X52298077Y-24617848D01*
X52403977Y-24362184D01*
X52406482Y-24356534D01*
X52437607Y-24290727D01*
X52440387Y-24285204D01*
X52570840Y-24041144D01*
X52573888Y-24035763D01*
X52611329Y-23973296D01*
X52614638Y-23968072D01*
X52768358Y-23738012D01*
X52771920Y-23732954D01*
X52815324Y-23674432D01*
X52819127Y-23669558D01*
X52994692Y-23455632D01*
X52998704Y-23450981D01*
X53047606Y-23397026D01*
X53051871Y-23392547D01*
X53092972Y-23351446D01*
X53569532Y-23351446D01*
X53569567Y-23352286D01*
X53574618Y-23360408D01*
X55742188Y-25527978D01*
X55756132Y-25535592D01*
X55757965Y-25535461D01*
X55764580Y-25531210D01*
X57933214Y-23362576D01*
X57939291Y-23351446D01*
X130569532Y-23351446D01*
X130569567Y-23352286D01*
X130574618Y-23360408D01*
X132742188Y-25527978D01*
X132756132Y-25535592D01*
X132757965Y-25535461D01*
X132764580Y-25531210D01*
X134933214Y-23362576D01*
X134940828Y-23348632D01*
X134940760Y-23347677D01*
X134935817Y-23340202D01*
X134931915Y-23336881D01*
X134647993Y-23120590D01*
X134642369Y-23116768D01*
X134336755Y-22932409D01*
X134330738Y-22929210D01*
X134007006Y-22778939D01*
X134000670Y-22776405D01*
X133662612Y-22661979D01*
X133656044Y-22660145D01*
X133307606Y-22582899D01*
X133300867Y-22581783D01*
X132946109Y-22542617D01*
X132939328Y-22542238D01*
X132582391Y-22541615D01*
X132575618Y-22541970D01*
X132220704Y-22579899D01*
X132213994Y-22580986D01*
X131865271Y-22657020D01*
X131858696Y-22658831D01*
X131520225Y-22772082D01*
X131513903Y-22774585D01*
X131189649Y-22923725D01*
X131183606Y-22926911D01*
X130877362Y-23110195D01*
X130871716Y-23114003D01*
X130587038Y-23329303D01*
X130581848Y-23333690D01*
X130577555Y-23337735D01*
X130569532Y-23351446D01*
X57939291Y-23351446D01*
X57940828Y-23348632D01*
X57940760Y-23347677D01*
X57935817Y-23340202D01*
X57931915Y-23336881D01*
X57647993Y-23120590D01*
X57642369Y-23116768D01*
X57336755Y-22932409D01*
X57330738Y-22929210D01*
X57007006Y-22778939D01*
X57000670Y-22776405D01*
X56662612Y-22661979D01*
X56656044Y-22660145D01*
X56307606Y-22582899D01*
X56300867Y-22581783D01*
X55946109Y-22542617D01*
X55939328Y-22542238D01*
X55582391Y-22541615D01*
X55575618Y-22541970D01*
X55220704Y-22579899D01*
X55213994Y-22580986D01*
X54865271Y-22657020D01*
X54858696Y-22658831D01*
X54520225Y-22772082D01*
X54513903Y-22774585D01*
X54189649Y-22923725D01*
X54183606Y-22926911D01*
X53877362Y-23110195D01*
X53871716Y-23114003D01*
X53587038Y-23329303D01*
X53581848Y-23333690D01*
X53577555Y-23337735D01*
X53569532Y-23351446D01*
X53092972Y-23351446D01*
X53247546Y-23196872D01*
X53252025Y-23192607D01*
X53305977Y-23143708D01*
X53310660Y-23139669D01*
X53524565Y-22964122D01*
X53529439Y-22960318D01*
X53587929Y-22916938D01*
X53592974Y-22913385D01*
X53823086Y-22759629D01*
X53828311Y-22756320D01*
X53890759Y-22718890D01*
X53896132Y-22715847D01*
X54140205Y-22585387D01*
X54145726Y-22582608D01*
X54211531Y-22551485D01*
X54217184Y-22548979D01*
X54472855Y-22443077D01*
X54478623Y-22440852D01*
X54525974Y-22423909D01*
X54547229Y-22416304D01*
X54553067Y-22414376D01*
X54817865Y-22334050D01*
X54823793Y-22332409D01*
X54845821Y-22326891D01*
X54894478Y-22314704D01*
X54900511Y-22313349D01*
X55171890Y-22259369D01*
X55177980Y-22258312D01*
X55217070Y-22252513D01*
X55250067Y-22247618D01*
X55256164Y-22246866D01*
X55531564Y-22219742D01*
X55537733Y-22219287D01*
X55543771Y-22218990D01*
X55632103Y-22214651D01*
X55636649Y-22214511D01*
X55749155Y-22213113D01*
X55791796Y-22212584D01*
X55791800Y-22212584D01*
X55796283Y-22212528D01*
X55815672Y-22209505D01*
X55835082Y-22208001D01*
X93792725Y-22208001D01*
X132673274Y-22208000D01*
X132694204Y-22209751D01*
G37*
%TD.AperFunction*%
%TA.AperFunction,Conductor*%
G36*
X62095800Y-83966914D02*
G01*
X62155010Y-84006090D01*
X62183639Y-84071058D01*
X62172600Y-84141191D01*
X62147789Y-84176421D01*
X62052022Y-84272188D01*
X62044408Y-84286132D01*
X62044539Y-84287965D01*
X62048790Y-84294580D01*
X62150351Y-84396141D01*
X62184377Y-84458453D01*
X62179312Y-84529268D01*
X62136765Y-84586104D01*
X62070245Y-84610915D01*
X62023996Y-84605601D01*
X61883792Y-84562200D01*
X61877674Y-84561557D01*
X61877669Y-84561556D01*
X61693205Y-84542169D01*
X61693203Y-84542169D01*
X61687076Y-84541525D01*
X61645250Y-84545331D01*
X61575599Y-84531588D01*
X61544736Y-84508946D01*
X61409885Y-84374095D01*
X61375859Y-84311783D01*
X61380924Y-84240968D01*
X61409885Y-84195905D01*
X61542907Y-84062883D01*
X61605219Y-84028857D01*
X61646926Y-84026865D01*
X61658775Y-84028278D01*
X61664910Y-84027806D01*
X61664912Y-84027806D01*
X61849850Y-84013576D01*
X61849854Y-84013575D01*
X61855992Y-84013103D01*
X61963712Y-83983027D01*
X62024810Y-83965968D01*
X62095800Y-83966914D01*
G37*
%TD.AperFunction*%
%TA.AperFunction,Conductor*%
G36*
X62496810Y-83964062D02*
G01*
X62622366Y-84004857D01*
X62818775Y-84028278D01*
X62824910Y-84027806D01*
X62824912Y-84027806D01*
X62875867Y-84023885D01*
X62945322Y-84038602D01*
X62974629Y-84060419D01*
X63110115Y-84195905D01*
X63144141Y-84258217D01*
X63139076Y-84329032D01*
X63110115Y-84374095D01*
X62976089Y-84508121D01*
X62913777Y-84542147D01*
X62873825Y-84544336D01*
X62853206Y-84542169D01*
X62853203Y-84542169D01*
X62847076Y-84541525D01*
X62764226Y-84549065D01*
X62656228Y-84558893D01*
X62656225Y-84558894D01*
X62650089Y-84559452D01*
X62644183Y-84561190D01*
X62644179Y-84561191D01*
X62495471Y-84604958D01*
X62424474Y-84605003D01*
X62364724Y-84566657D01*
X62335190Y-84502094D01*
X62345249Y-84431814D01*
X62370801Y-84394989D01*
X62467978Y-84297812D01*
X62475592Y-84283868D01*
X62475461Y-84282035D01*
X62471210Y-84275420D01*
X62368780Y-84172990D01*
X62334754Y-84110678D01*
X62339819Y-84039863D01*
X62382366Y-83983027D01*
X62448886Y-83958216D01*
X62496810Y-83964062D01*
G37*
%TD.AperFunction*%
%TD*%
M02*
