%TF.GenerationSoftware,KiCad,Pcbnew,(5.99.0-8928-gc255dede17)*%
%TF.CreationDate,2021-03-20T17:48:22-07:00*%
%TF.ProjectId,smbpcb,736d6270-6362-42e6-9b69-6361645f7063,rev?*%
%TF.SameCoordinates,Original*%
%TF.FileFunction,Legend,Bot*%
%TF.FilePolarity,Positive*%
%FSLAX46Y46*%
G04 Gerber Fmt 4.6, Leading zero omitted, Abs format (unit mm)*
G04 Created by KiCad (PCBNEW (5.99.0-8928-gc255dede17)) date 2021-03-20 17:48:22*
%MOMM*%
%LPD*%
G01*
G04 APERTURE LIST*
%ADD10C,0.300000*%
%ADD11C,0.100000*%
G04 APERTURE END LIST*
D10*
X104143333Y-59685166D02*
X103524285Y-59685166D01*
X104267142Y-60056595D02*
X103833809Y-58756595D01*
X103400476Y-60056595D01*
X102781428Y-60056595D02*
X102905238Y-59994690D01*
X102967142Y-59870880D01*
X102967142Y-58756595D01*
X102286190Y-60056595D02*
X102286190Y-58756595D01*
X102286190Y-59251833D02*
X102162380Y-59189928D01*
X101914761Y-59189928D01*
X101790952Y-59251833D01*
X101729047Y-59313738D01*
X101667142Y-59437547D01*
X101667142Y-59808976D01*
X101729047Y-59932785D01*
X101790952Y-59994690D01*
X101914761Y-60056595D01*
X102162380Y-60056595D01*
X102286190Y-59994690D01*
X100552857Y-60056595D02*
X100552857Y-59375642D01*
X100614761Y-59251833D01*
X100738571Y-59189928D01*
X100986190Y-59189928D01*
X101110000Y-59251833D01*
X100552857Y-59994690D02*
X100676666Y-60056595D01*
X100986190Y-60056595D01*
X101110000Y-59994690D01*
X101171904Y-59870880D01*
X101171904Y-59747071D01*
X101110000Y-59623261D01*
X100986190Y-59561357D01*
X100676666Y-59561357D01*
X100552857Y-59499452D01*
X99933809Y-59189928D02*
X99933809Y-60056595D01*
X99933809Y-59313738D02*
X99871904Y-59251833D01*
X99748095Y-59189928D01*
X99562380Y-59189928D01*
X99438571Y-59251833D01*
X99376666Y-59375642D01*
X99376666Y-60056595D01*
X98881428Y-59189928D02*
X98571904Y-60056595D01*
X98262380Y-59189928D02*
X98571904Y-60056595D01*
X98695714Y-60366119D01*
X98757619Y-60428023D01*
X98881428Y-60489928D01*
X96157619Y-60056595D02*
X96776666Y-60056595D01*
X96776666Y-58756595D01*
X95538571Y-60056595D02*
X95662380Y-59994690D01*
X95724285Y-59932785D01*
X95786190Y-59808976D01*
X95786190Y-59437547D01*
X95724285Y-59313738D01*
X95662380Y-59251833D01*
X95538571Y-59189928D01*
X95352857Y-59189928D01*
X95229047Y-59251833D01*
X95167142Y-59313738D01*
X95105238Y-59437547D01*
X95105238Y-59808976D01*
X95167142Y-59932785D01*
X95229047Y-59994690D01*
X95352857Y-60056595D01*
X95538571Y-60056595D01*
X94671904Y-59189928D02*
X94362380Y-60056595D01*
X94052857Y-59189928D01*
X93062380Y-59994690D02*
X93186190Y-60056595D01*
X93433809Y-60056595D01*
X93557619Y-59994690D01*
X93619523Y-59870880D01*
X93619523Y-59375642D01*
X93557619Y-59251833D01*
X93433809Y-59189928D01*
X93186190Y-59189928D01*
X93062380Y-59251833D01*
X93000476Y-59375642D01*
X93000476Y-59499452D01*
X93619523Y-59623261D01*
X92505238Y-59994690D02*
X92381428Y-60056595D01*
X92133809Y-60056595D01*
X92010000Y-59994690D01*
X91948095Y-59870880D01*
X91948095Y-59808976D01*
X92010000Y-59685166D01*
X92133809Y-59623261D01*
X92319523Y-59623261D01*
X92443333Y-59561357D01*
X92505238Y-59437547D01*
X92505238Y-59375642D01*
X92443333Y-59251833D01*
X92319523Y-59189928D01*
X92133809Y-59189928D01*
X92010000Y-59251833D01*
X90586190Y-59189928D02*
X90090952Y-59189928D01*
X90400476Y-58756595D02*
X90400476Y-59870880D01*
X90338571Y-59994690D01*
X90214761Y-60056595D01*
X90090952Y-60056595D01*
X89657619Y-60056595D02*
X89657619Y-58756595D01*
X89100476Y-60056595D02*
X89100476Y-59375642D01*
X89162380Y-59251833D01*
X89286190Y-59189928D01*
X89471904Y-59189928D01*
X89595714Y-59251833D01*
X89657619Y-59313738D01*
X87986190Y-59994690D02*
X88110000Y-60056595D01*
X88357619Y-60056595D01*
X88481428Y-59994690D01*
X88543333Y-59870880D01*
X88543333Y-59375642D01*
X88481428Y-59251833D01*
X88357619Y-59189928D01*
X88110000Y-59189928D01*
X87986190Y-59251833D01*
X87924285Y-59375642D01*
X87924285Y-59499452D01*
X88543333Y-59623261D01*
X86438571Y-59685166D02*
X85819523Y-59685166D01*
X86562380Y-60056595D02*
X86129047Y-58756595D01*
X85695714Y-60056595D01*
X85262380Y-60056595D02*
X85262380Y-59189928D01*
X85262380Y-58756595D02*
X85324285Y-58818500D01*
X85262380Y-58880404D01*
X85200476Y-58818500D01*
X85262380Y-58756595D01*
X85262380Y-58880404D01*
X84643333Y-60056595D02*
X84643333Y-59189928D01*
X84643333Y-59437547D02*
X84581428Y-59313738D01*
X84519523Y-59251833D01*
X84395714Y-59189928D01*
X84271904Y-59189928D01*
X83838571Y-59932785D02*
X83776666Y-59994690D01*
X83838571Y-60056595D01*
X83900476Y-59994690D01*
X83838571Y-59932785D01*
X83838571Y-60056595D01*
X83838571Y-59561357D02*
X83900476Y-58818500D01*
X83838571Y-58756595D01*
X83776666Y-58818500D01*
X83838571Y-59561357D01*
X83838571Y-58756595D01*
X135157619Y-62149595D02*
X135157619Y-60849595D01*
X134848095Y-60849595D01*
X134662380Y-60911500D01*
X134538571Y-61035309D01*
X134476666Y-61159119D01*
X134414761Y-61406738D01*
X134414761Y-61592452D01*
X134476666Y-61840071D01*
X134538571Y-61963880D01*
X134662380Y-62087690D01*
X134848095Y-62149595D01*
X135157619Y-62149595D01*
X133362380Y-62087690D02*
X133486190Y-62149595D01*
X133733809Y-62149595D01*
X133857619Y-62087690D01*
X133919523Y-61963880D01*
X133919523Y-61468642D01*
X133857619Y-61344833D01*
X133733809Y-61282928D01*
X133486190Y-61282928D01*
X133362380Y-61344833D01*
X133300476Y-61468642D01*
X133300476Y-61592452D01*
X133919523Y-61716261D01*
X132805238Y-62087690D02*
X132681428Y-62149595D01*
X132433809Y-62149595D01*
X132309999Y-62087690D01*
X132248095Y-61963880D01*
X132248095Y-61901976D01*
X132309999Y-61778166D01*
X132433809Y-61716261D01*
X132619523Y-61716261D01*
X132743333Y-61654357D01*
X132805238Y-61530547D01*
X132805238Y-61468642D01*
X132743333Y-61344833D01*
X132619523Y-61282928D01*
X132433809Y-61282928D01*
X132309999Y-61344833D01*
X131690952Y-62149595D02*
X131690952Y-61282928D01*
X131690952Y-60849595D02*
X131752857Y-60911500D01*
X131690952Y-60973404D01*
X131629047Y-60911500D01*
X131690952Y-60849595D01*
X131690952Y-60973404D01*
X130514761Y-61282928D02*
X130514761Y-62335309D01*
X130576666Y-62459119D01*
X130638571Y-62521023D01*
X130762380Y-62582928D01*
X130948095Y-62582928D01*
X131071904Y-62521023D01*
X130514761Y-62087690D02*
X130638571Y-62149595D01*
X130886190Y-62149595D01*
X131009999Y-62087690D01*
X131071904Y-62025785D01*
X131133809Y-61901976D01*
X131133809Y-61530547D01*
X131071904Y-61406738D01*
X131009999Y-61344833D01*
X130886190Y-61282928D01*
X130638571Y-61282928D01*
X130514761Y-61344833D01*
X129895714Y-61282928D02*
X129895714Y-62149595D01*
X129895714Y-61406738D02*
X129833809Y-61344833D01*
X129709999Y-61282928D01*
X129524285Y-61282928D01*
X129400476Y-61344833D01*
X129338571Y-61468642D01*
X129338571Y-62149595D01*
X128224285Y-62087690D02*
X128348095Y-62149595D01*
X128595714Y-62149595D01*
X128719523Y-62087690D01*
X128781428Y-61963880D01*
X128781428Y-61468642D01*
X128719523Y-61344833D01*
X128595714Y-61282928D01*
X128348095Y-61282928D01*
X128224285Y-61344833D01*
X128162380Y-61468642D01*
X128162380Y-61592452D01*
X128781428Y-61716261D01*
X127048095Y-62149595D02*
X127048095Y-60849595D01*
X127048095Y-62087690D02*
X127171904Y-62149595D01*
X127419523Y-62149595D01*
X127543333Y-62087690D01*
X127605238Y-62025785D01*
X127667142Y-61901976D01*
X127667142Y-61530547D01*
X127605238Y-61406738D01*
X127543333Y-61344833D01*
X127419523Y-61282928D01*
X127171904Y-61282928D01*
X127048095Y-61344833D01*
X125562380Y-61282928D02*
X125314761Y-62149595D01*
X125067142Y-61530547D01*
X124819523Y-62149595D01*
X124571904Y-61282928D01*
X124076666Y-62149595D02*
X124076666Y-61282928D01*
X124076666Y-60849595D02*
X124138571Y-60911500D01*
X124076666Y-60973404D01*
X124014761Y-60911500D01*
X124076666Y-60849595D01*
X124076666Y-60973404D01*
X123643333Y-61282928D02*
X123148095Y-61282928D01*
X123457619Y-60849595D02*
X123457619Y-61963880D01*
X123395714Y-62087690D01*
X123271904Y-62149595D01*
X123148095Y-62149595D01*
X122714761Y-62149595D02*
X122714761Y-60849595D01*
X122157619Y-62149595D02*
X122157619Y-61468642D01*
X122219523Y-61344833D01*
X122343333Y-61282928D01*
X122529047Y-61282928D01*
X122652857Y-61344833D01*
X122714761Y-61406738D01*
X119557619Y-61282928D02*
X120548095Y-61654357D01*
X119557619Y-62025785D01*
X119062380Y-60849595D02*
X118257619Y-60849595D01*
X118690952Y-61344833D01*
X118505238Y-61344833D01*
X118381428Y-61406738D01*
X118319523Y-61468642D01*
X118257619Y-61592452D01*
X118257619Y-61901976D01*
X118319523Y-62025785D01*
X118381428Y-62087690D01*
X118505238Y-62149595D01*
X118876666Y-62149595D01*
X119000476Y-62087690D01*
X119062380Y-62025785D01*
X116709999Y-62149595D02*
X116709999Y-60849595D01*
X116709999Y-61344833D02*
X116586190Y-61282928D01*
X116338571Y-61282928D01*
X116214761Y-61344833D01*
X116152857Y-61406738D01*
X116090952Y-61530547D01*
X116090952Y-61901976D01*
X116152857Y-62025785D01*
X116214761Y-62087690D01*
X116338571Y-62149595D01*
X116586190Y-62149595D01*
X116709999Y-62087690D01*
X115657619Y-61282928D02*
X115348095Y-62149595D01*
X115038571Y-61282928D02*
X115348095Y-62149595D01*
X115471904Y-62459119D01*
X115533809Y-62521023D01*
X115657619Y-62582928D01*
X113552857Y-61468642D02*
X113119523Y-61468642D01*
X112933809Y-62149595D02*
X113552857Y-62149595D01*
X113552857Y-60849595D01*
X112933809Y-60849595D01*
X112190952Y-62149595D02*
X112314761Y-62087690D01*
X112376666Y-61963880D01*
X112376666Y-60849595D01*
X111138571Y-62149595D02*
X111138571Y-61468642D01*
X111200476Y-61344833D01*
X111324285Y-61282928D01*
X111571904Y-61282928D01*
X111695714Y-61344833D01*
X111138571Y-62087690D02*
X111262380Y-62149595D01*
X111571904Y-62149595D01*
X111695714Y-62087690D01*
X111757619Y-61963880D01*
X111757619Y-61840071D01*
X111695714Y-61716261D01*
X111571904Y-61654357D01*
X111262380Y-61654357D01*
X111138571Y-61592452D01*
X110519523Y-62149595D02*
X110519523Y-61282928D01*
X110519523Y-61406738D02*
X110457619Y-61344833D01*
X110333809Y-61282928D01*
X110148095Y-61282928D01*
X110024285Y-61344833D01*
X109962380Y-61468642D01*
X109962380Y-62149595D01*
X109962380Y-61468642D02*
X109900476Y-61344833D01*
X109776666Y-61282928D01*
X109590952Y-61282928D01*
X109467142Y-61344833D01*
X109405238Y-61468642D01*
X109405238Y-62149595D01*
X107795714Y-62149595D02*
X107795714Y-60849595D01*
X107486190Y-60849595D01*
X107300476Y-60911500D01*
X107176666Y-61035309D01*
X107114761Y-61159119D01*
X107052857Y-61406738D01*
X107052857Y-61592452D01*
X107114761Y-61840071D01*
X107176666Y-61963880D01*
X107300476Y-62087690D01*
X107486190Y-62149595D01*
X107795714Y-62149595D01*
X105938571Y-62149595D02*
X105938571Y-61468642D01*
X106000476Y-61344833D01*
X106124285Y-61282928D01*
X106371904Y-61282928D01*
X106495714Y-61344833D01*
X105938571Y-62087690D02*
X106062380Y-62149595D01*
X106371904Y-62149595D01*
X106495714Y-62087690D01*
X106557619Y-61963880D01*
X106557619Y-61840071D01*
X106495714Y-61716261D01*
X106371904Y-61654357D01*
X106062380Y-61654357D01*
X105938571Y-61592452D01*
X105443333Y-61282928D02*
X105133809Y-62149595D01*
X104824285Y-61282928D02*
X105133809Y-62149595D01*
X105257619Y-62459119D01*
X105319523Y-62521023D01*
X105443333Y-62582928D01*
X104329047Y-61654357D02*
X103338571Y-61654357D01*
X102286190Y-61468642D02*
X102719523Y-61468642D01*
X102719523Y-62149595D02*
X102719523Y-60849595D01*
X102100476Y-60849595D01*
X101605238Y-62149595D02*
X101605238Y-61282928D01*
X101605238Y-61530547D02*
X101543333Y-61406738D01*
X101481428Y-61344833D01*
X101357619Y-61282928D01*
X101233809Y-61282928D01*
X100800476Y-62149595D02*
X100800476Y-61282928D01*
X100800476Y-60849595D02*
X100862380Y-60911500D01*
X100800476Y-60973404D01*
X100738571Y-60911500D01*
X100800476Y-60849595D01*
X100800476Y-60973404D01*
X99686190Y-62087690D02*
X99809999Y-62149595D01*
X100057619Y-62149595D01*
X100181428Y-62087690D01*
X100243333Y-61963880D01*
X100243333Y-61468642D01*
X100181428Y-61344833D01*
X100057619Y-61282928D01*
X99809999Y-61282928D01*
X99686190Y-61344833D01*
X99624285Y-61468642D01*
X99624285Y-61592452D01*
X100243333Y-61716261D01*
X98509999Y-62149595D02*
X98509999Y-60849595D01*
X98509999Y-62087690D02*
X98633809Y-62149595D01*
X98881428Y-62149595D01*
X99005238Y-62087690D01*
X99067142Y-62025785D01*
X99129047Y-61901976D01*
X99129047Y-61530547D01*
X99067142Y-61406738D01*
X99005238Y-61344833D01*
X98881428Y-61282928D01*
X98633809Y-61282928D01*
X98509999Y-61344833D01*
X97705238Y-62149595D02*
X97829047Y-62087690D01*
X97890952Y-61963880D01*
X97890952Y-60849595D01*
X96652857Y-62149595D02*
X96652857Y-61468642D01*
X96714761Y-61344833D01*
X96838571Y-61282928D01*
X97086190Y-61282928D01*
X97209999Y-61344833D01*
X96652857Y-62087690D02*
X96776666Y-62149595D01*
X97086190Y-62149595D01*
X97209999Y-62087690D01*
X97271904Y-61963880D01*
X97271904Y-61840071D01*
X97209999Y-61716261D01*
X97086190Y-61654357D01*
X96776666Y-61654357D01*
X96652857Y-61592452D01*
X96033809Y-61282928D02*
X96033809Y-62149595D01*
X96033809Y-61406738D02*
X95971904Y-61344833D01*
X95848095Y-61282928D01*
X95662380Y-61282928D01*
X95538571Y-61344833D01*
X95476666Y-61468642D01*
X95476666Y-62149595D01*
X94300476Y-62149595D02*
X94300476Y-60849595D01*
X94300476Y-62087690D02*
X94424285Y-62149595D01*
X94671904Y-62149595D01*
X94795714Y-62087690D01*
X94857619Y-62025785D01*
X94919523Y-61901976D01*
X94919523Y-61530547D01*
X94857619Y-61406738D01*
X94795714Y-61344833D01*
X94671904Y-61282928D01*
X94424285Y-61282928D01*
X94300476Y-61344833D01*
X92814761Y-61282928D02*
X92567142Y-62149595D01*
X92319523Y-61530547D01*
X92071904Y-62149595D01*
X91824285Y-61282928D01*
X91329047Y-62149595D02*
X91329047Y-61282928D01*
X91329047Y-60849595D02*
X91390952Y-60911500D01*
X91329047Y-60973404D01*
X91267142Y-60911500D01*
X91329047Y-60849595D01*
X91329047Y-60973404D01*
X90895714Y-61282928D02*
X90400476Y-61282928D01*
X90709999Y-60849595D02*
X90709999Y-61963880D01*
X90648095Y-62087690D01*
X90524285Y-62149595D01*
X90400476Y-62149595D01*
X89967142Y-62149595D02*
X89967142Y-60849595D01*
X89409999Y-62149595D02*
X89409999Y-61468642D01*
X89471904Y-61344833D01*
X89595714Y-61282928D01*
X89781428Y-61282928D01*
X89905238Y-61344833D01*
X89967142Y-61406738D01*
X87800476Y-62149595D02*
X87800476Y-61282928D01*
X87800476Y-60849595D02*
X87862380Y-60911500D01*
X87800476Y-60973404D01*
X87738571Y-60911500D01*
X87800476Y-60849595D01*
X87800476Y-60973404D01*
X87181428Y-61282928D02*
X87181428Y-62149595D01*
X87181428Y-61406738D02*
X87119523Y-61344833D01*
X86995714Y-61282928D01*
X86809999Y-61282928D01*
X86686190Y-61344833D01*
X86624285Y-61468642D01*
X86624285Y-62149595D01*
X86005238Y-61282928D02*
X86005238Y-62582928D01*
X86005238Y-61344833D02*
X85881428Y-61282928D01*
X85633809Y-61282928D01*
X85509999Y-61344833D01*
X85448095Y-61406738D01*
X85386190Y-61530547D01*
X85386190Y-61901976D01*
X85448095Y-62025785D01*
X85509999Y-62087690D01*
X85633809Y-62149595D01*
X85881428Y-62149595D01*
X86005238Y-62087690D01*
X84271904Y-61282928D02*
X84271904Y-62149595D01*
X84829047Y-61282928D02*
X84829047Y-61963880D01*
X84767142Y-62087690D01*
X84643333Y-62149595D01*
X84457619Y-62149595D01*
X84333809Y-62087690D01*
X84271904Y-62025785D01*
X83838571Y-61282928D02*
X83343333Y-61282928D01*
X83652857Y-60849595D02*
X83652857Y-61963880D01*
X83590952Y-62087690D01*
X83467142Y-62149595D01*
X83343333Y-62149595D01*
X82105238Y-61282928D02*
X81609999Y-61282928D01*
X81919523Y-62149595D02*
X81919523Y-61035309D01*
X81857619Y-60911500D01*
X81733809Y-60849595D01*
X81609999Y-60849595D01*
X81176666Y-62149595D02*
X81176666Y-61282928D01*
X81176666Y-61530547D02*
X81114761Y-61406738D01*
X81052857Y-61344833D01*
X80929047Y-61282928D01*
X80805238Y-61282928D01*
X80186190Y-62149595D02*
X80309999Y-62087690D01*
X80371904Y-62025785D01*
X80433809Y-61901976D01*
X80433809Y-61530547D01*
X80371904Y-61406738D01*
X80309999Y-61344833D01*
X80186190Y-61282928D01*
X80000476Y-61282928D01*
X79876666Y-61344833D01*
X79814761Y-61406738D01*
X79752857Y-61530547D01*
X79752857Y-61901976D01*
X79814761Y-62025785D01*
X79876666Y-62087690D01*
X80000476Y-62149595D01*
X80186190Y-62149595D01*
X79195714Y-62149595D02*
X79195714Y-61282928D01*
X79195714Y-61406738D02*
X79133809Y-61344833D01*
X79009999Y-61282928D01*
X78824285Y-61282928D01*
X78700476Y-61344833D01*
X78638571Y-61468642D01*
X78638571Y-62149595D01*
X78638571Y-61468642D02*
X78576666Y-61344833D01*
X78452857Y-61282928D01*
X78267142Y-61282928D01*
X78143333Y-61344833D01*
X78081428Y-61468642D01*
X78081428Y-62149595D01*
X76657619Y-61282928D02*
X76162380Y-61282928D01*
X76471904Y-60849595D02*
X76471904Y-61963880D01*
X76409999Y-62087690D01*
X76286190Y-62149595D01*
X76162380Y-62149595D01*
X75729047Y-62149595D02*
X75729047Y-60849595D01*
X75171904Y-62149595D02*
X75171904Y-61468642D01*
X75233809Y-61344833D01*
X75357619Y-61282928D01*
X75543333Y-61282928D01*
X75667142Y-61344833D01*
X75729047Y-61406738D01*
X74057619Y-62087690D02*
X74181428Y-62149595D01*
X74429047Y-62149595D01*
X74552857Y-62087690D01*
X74614761Y-61963880D01*
X74614761Y-61468642D01*
X74552857Y-61344833D01*
X74429047Y-61282928D01*
X74181428Y-61282928D01*
X74057619Y-61344833D01*
X73995714Y-61468642D01*
X73995714Y-61592452D01*
X74614761Y-61716261D01*
X72509999Y-61778166D02*
X71890952Y-61778166D01*
X72633809Y-62149595D02*
X72200476Y-60849595D01*
X71767142Y-62149595D01*
X71333809Y-62149595D02*
X71333809Y-60849595D01*
X71333809Y-61468642D02*
X70590952Y-61468642D01*
X70590952Y-62149595D02*
X70590952Y-60849595D01*
X70033809Y-62087690D02*
X69848095Y-62149595D01*
X69538571Y-62149595D01*
X69414761Y-62087690D01*
X69352857Y-62025785D01*
X69290952Y-61901976D01*
X69290952Y-61778166D01*
X69352857Y-61654357D01*
X69414761Y-61592452D01*
X69538571Y-61530547D01*
X69786190Y-61468642D01*
X69909999Y-61406738D01*
X69971904Y-61344833D01*
X70033809Y-61221023D01*
X70033809Y-61097214D01*
X69971904Y-60973404D01*
X69909999Y-60911500D01*
X69786190Y-60849595D01*
X69476666Y-60849595D01*
X69290952Y-60911500D01*
X67805238Y-61778166D02*
X67186190Y-61778166D01*
X67929047Y-62149595D02*
X67495714Y-60849595D01*
X67062380Y-62149595D01*
X66629047Y-62149595D02*
X66629047Y-61282928D01*
X66629047Y-60849595D02*
X66690952Y-60911500D01*
X66629047Y-60973404D01*
X66567142Y-60911500D01*
X66629047Y-60849595D01*
X66629047Y-60973404D01*
X66009999Y-62149595D02*
X66009999Y-61282928D01*
X66009999Y-61530547D02*
X65948095Y-61406738D01*
X65886190Y-61344833D01*
X65762380Y-61282928D01*
X65638571Y-61282928D01*
X63348095Y-62273404D02*
X63471904Y-62211500D01*
X63595714Y-62087690D01*
X63781428Y-61901976D01*
X63905238Y-61840071D01*
X64029047Y-61840071D01*
X63967142Y-62149595D02*
X64090952Y-62087690D01*
X64214761Y-61963880D01*
X64276666Y-61716261D01*
X64276666Y-61282928D01*
X64214761Y-61035309D01*
X64090952Y-60911500D01*
X63967142Y-60849595D01*
X63719523Y-60849595D01*
X63595714Y-60911500D01*
X63471904Y-61035309D01*
X63409999Y-61282928D01*
X63409999Y-61716261D01*
X63471904Y-61963880D01*
X63595714Y-62087690D01*
X63719523Y-62149595D01*
X63967142Y-62149595D01*
X62295714Y-61282928D02*
X62295714Y-62149595D01*
X62852857Y-61282928D02*
X62852857Y-61963880D01*
X62790952Y-62087690D01*
X62667142Y-62149595D01*
X62481428Y-62149595D01*
X62357619Y-62087690D01*
X62295714Y-62025785D01*
X61119523Y-62149595D02*
X61119523Y-61468642D01*
X61181428Y-61344833D01*
X61305238Y-61282928D01*
X61552857Y-61282928D01*
X61676666Y-61344833D01*
X61119523Y-62087690D02*
X61243333Y-62149595D01*
X61552857Y-62149595D01*
X61676666Y-62087690D01*
X61738571Y-61963880D01*
X61738571Y-61840071D01*
X61676666Y-61716261D01*
X61552857Y-61654357D01*
X61243333Y-61654357D01*
X61119523Y-61592452D01*
X60314761Y-62149595D02*
X60438571Y-62087690D01*
X60500476Y-61963880D01*
X60500476Y-60849595D01*
X59819523Y-62149595D02*
X59819523Y-61282928D01*
X59819523Y-60849595D02*
X59881428Y-60911500D01*
X59819523Y-60973404D01*
X59757619Y-60911500D01*
X59819523Y-60849595D01*
X59819523Y-60973404D01*
X59386190Y-61282928D02*
X58890952Y-61282928D01*
X59200476Y-60849595D02*
X59200476Y-61963880D01*
X59138571Y-62087690D01*
X59014761Y-62149595D01*
X58890952Y-62149595D01*
X58581428Y-61282928D02*
X58271904Y-62149595D01*
X57962380Y-61282928D02*
X58271904Y-62149595D01*
X58395714Y-62459119D01*
X58457619Y-62521023D01*
X58581428Y-62582928D01*
X55733809Y-62025785D02*
X55795714Y-62087690D01*
X55981428Y-62149595D01*
X56105238Y-62149595D01*
X56290952Y-62087690D01*
X56414761Y-61963880D01*
X56476666Y-61840071D01*
X56538571Y-61592452D01*
X56538571Y-61406738D01*
X56476666Y-61159119D01*
X56414761Y-61035309D01*
X56290952Y-60911500D01*
X56105238Y-60849595D01*
X55981428Y-60849595D01*
X55795714Y-60911500D01*
X55733809Y-60973404D01*
X54990952Y-62149595D02*
X55114761Y-62087690D01*
X55176666Y-61963880D01*
X55176666Y-60849595D01*
X53938571Y-61282928D02*
X53938571Y-62149595D01*
X54495714Y-61282928D02*
X54495714Y-61963880D01*
X54433809Y-62087690D01*
X54309999Y-62149595D01*
X54124285Y-62149595D01*
X54000476Y-62087690D01*
X53938571Y-62025785D01*
X53319523Y-62149595D02*
X53319523Y-60849595D01*
X53319523Y-61344833D02*
X53195714Y-61282928D01*
X52948095Y-61282928D01*
X52824285Y-61344833D01*
X52762380Y-61406738D01*
X52700476Y-61530547D01*
X52700476Y-61901976D01*
X52762380Y-62025785D01*
X52824285Y-62087690D01*
X52948095Y-62149595D01*
X53195714Y-62149595D01*
X53319523Y-62087690D01*
D11*
X67324285Y-90304285D02*
X67324285Y-90840000D01*
X67360000Y-90947142D01*
X67431428Y-91018571D01*
X67538571Y-91054285D01*
X67610000Y-91054285D01*
X66610000Y-91054285D02*
X66967142Y-91054285D01*
X66967142Y-90304285D01*
X65931428Y-90982857D02*
X65967142Y-91018571D01*
X66074285Y-91054285D01*
X66145714Y-91054285D01*
X66252857Y-91018571D01*
X66324285Y-90947142D01*
X66360000Y-90875714D01*
X66395714Y-90732857D01*
X66395714Y-90625714D01*
X66360000Y-90482857D01*
X66324285Y-90411428D01*
X66252857Y-90340000D01*
X66145714Y-90304285D01*
X66074285Y-90304285D01*
X65967142Y-90340000D01*
X65931428Y-90375714D01*
X65395714Y-90304285D02*
X65395714Y-90840000D01*
X65431428Y-90947142D01*
X65502857Y-91018571D01*
X65610000Y-91054285D01*
X65681428Y-91054285D01*
X64681428Y-91054285D02*
X65038571Y-91054285D01*
X65038571Y-90304285D01*
X64002857Y-90982857D02*
X64038571Y-91018571D01*
X64145714Y-91054285D01*
X64217142Y-91054285D01*
X64324285Y-91018571D01*
X64395714Y-90947142D01*
X64431428Y-90875714D01*
X64467142Y-90732857D01*
X64467142Y-90625714D01*
X64431428Y-90482857D01*
X64395714Y-90411428D01*
X64324285Y-90340000D01*
X64217142Y-90304285D01*
X64145714Y-90304285D01*
X64038571Y-90340000D01*
X64002857Y-90375714D01*
X63467142Y-90304285D02*
X63467142Y-90840000D01*
X63502857Y-90947142D01*
X63574285Y-91018571D01*
X63681428Y-91054285D01*
X63752857Y-91054285D01*
X62752857Y-91054285D02*
X63110000Y-91054285D01*
X63110000Y-90304285D01*
X62074285Y-90982857D02*
X62110000Y-91018571D01*
X62217142Y-91054285D01*
X62288571Y-91054285D01*
X62395714Y-91018571D01*
X62467142Y-90947142D01*
X62502857Y-90875714D01*
X62538571Y-90732857D01*
X62538571Y-90625714D01*
X62502857Y-90482857D01*
X62467142Y-90411428D01*
X62395714Y-90340000D01*
X62288571Y-90304285D01*
X62217142Y-90304285D01*
X62110000Y-90340000D01*
X62074285Y-90375714D01*
X61538571Y-90304285D02*
X61538571Y-90840000D01*
X61574285Y-90947142D01*
X61645714Y-91018571D01*
X61752857Y-91054285D01*
X61824285Y-91054285D01*
X60824285Y-91054285D02*
X61181428Y-91054285D01*
X61181428Y-90304285D01*
X60145714Y-90982857D02*
X60181428Y-91018571D01*
X60288571Y-91054285D01*
X60360000Y-91054285D01*
X60467142Y-91018571D01*
X60538571Y-90947142D01*
X60574285Y-90875714D01*
X60610000Y-90732857D01*
X60610000Y-90625714D01*
X60574285Y-90482857D01*
X60538571Y-90411428D01*
X60467142Y-90340000D01*
X60360000Y-90304285D01*
X60288571Y-90304285D01*
X60181428Y-90340000D01*
X60145714Y-90375714D01*
M02*
