M48
; DRILL file {KiCad (5.99.0-8928-gc255dede17)} date Sat Mar 20 17:48:36 2021
; FORMAT={-:-/ absolute / metric / decimal}
; #@! TF.CreationDate,2021-03-20T17:48:36-07:00
; #@! TF.GenerationSoftware,Kicad,Pcbnew,(5.99.0-8928-gc255dede17)
; #@! TF.FileFunction,Plated,1,2,PTH
FMAT,2
METRIC
T1C0.400
T2C0.500
T3C0.600
T4C0.762
T5C0.850
T6C1.000
T7C3.200
%
G90
G05
T1
X66.26Y-40.715
X67.665Y-35.69
X68.06Y-41.715
X70.46Y-61.215
X70.86Y-38.915
X71.806Y-43.66
X78.21Y-53.115
X78.26Y-51.965
X78.46Y-57.815
X81.56Y-50.115
X90.46Y-51.215
X90.86Y-70.115
X90.96Y-54.915
X91.86Y-69.215
X94.455Y-53.9
X95.985Y-38.94
X97.258Y-64.053
X100.605Y-51.75
X103.21Y-52.815
X103.26Y-44.615
X106.005Y-41.35
X106.56Y-66.715
X109.355Y-47.9
X111.76Y-41.315
X123.86Y-40.915
X126.56Y-39.415
X128.56Y-40.815
T2
X92.66Y-75.815
T3
X61.68Y-80.475
X61.68Y-81.745
X61.68Y-83.015
X61.68Y-84.285
X61.68Y-85.555
X62.84Y-80.475
X62.84Y-81.745
X62.84Y-83.015
X62.84Y-84.285
X62.84Y-85.555
X80.16Y-38.715
X108.46Y-45.515
X111.86Y-43.315
T4
X120.115Y-48.242
X120.115Y-77.453
X122.655Y-48.242
X122.655Y-77.453
X125.195Y-48.242
X125.195Y-77.453
X127.735Y-48.242
X127.735Y-77.453
X130.275Y-77.453
T5
X55.822Y-34.715
X55.822Y-39.715
T6
X59.96Y-35.54
X59.96Y-38.08
X73.305Y-29.315
X73.335Y-33.815
X75.805Y-29.315
X75.875Y-33.815
X101.86Y-81.695
X101.86Y-84.235
X101.86Y-86.775
X101.86Y-89.315
X105.21Y-69.865
X105.21Y-72.405
X105.21Y-74.945
X105.21Y-77.485
X113.16Y-81.695
X113.16Y-84.235
X113.16Y-86.775
X113.16Y-89.315
X122.46Y-81.695
X122.46Y-84.235
X122.46Y-86.775
X122.46Y-89.315
T7
X55.755Y-25.9
X55.755Y-87.9
X132.755Y-25.9
X132.755Y-87.9
T3
G00X52.773Y-33.715
M15
G01X53.472Y-33.715
M16
G05
G00X53.472Y-40.715
M15
G01X52.773Y-40.715
M16
G05
T0
M30
