%TF.GenerationSoftware,KiCad,Pcbnew,(5.99.0-8928-gc255dede17)*%
%TF.CreationDate,2021-03-21T11:37:16-07:00*%
%TF.ProjectId,smbpcb,736d6270-6362-42e6-9b69-6361645f7063,rev?*%
%TF.SameCoordinates,Original*%
%TF.FileFunction,Legend,Top*%
%TF.FilePolarity,Positive*%
%FSLAX46Y46*%
G04 Gerber Fmt 4.6, Leading zero omitted, Abs format (unit mm)*
G04 Created by KiCad (PCBNEW (5.99.0-8928-gc255dede17)) date 2021-03-21 11:37:16*
%MOMM*%
%LPD*%
G01*
G04 APERTURE LIST*
%ADD10C,0.000352*%
%ADD11C,0.200000*%
%ADD12C,0.100000*%
%ADD13C,0.075000*%
%ADD14C,0.300000*%
%ADD15C,0.150000*%
%ADD16C,0.250000*%
%ADD17C,0.085000*%
%ADD18C,0.120000*%
%ADD19C,0.127000*%
%ADD20C,1.000000*%
G04 APERTURE END LIST*
D10*
X64275745Y-24777130D02*
X64299028Y-24903425D01*
X64299028Y-24903425D02*
X64327195Y-25052495D01*
X64327195Y-25052495D02*
X64336570Y-25098067D01*
X64336570Y-25098067D02*
X64344184Y-25129202D01*
X64344184Y-25129202D02*
X64347653Y-25140498D01*
X64347653Y-25140498D02*
X64351070Y-25149556D01*
X64351070Y-25149556D02*
X64354563Y-25156832D01*
X64354563Y-25156832D02*
X64358262Y-25162782D01*
X64358262Y-25162782D02*
X64362296Y-25167865D01*
X64362296Y-25167865D02*
X64366793Y-25172536D01*
X64366793Y-25172536D02*
X64377698Y-25182472D01*
X64377698Y-25182472D02*
X64381336Y-25185746D01*
X64381336Y-25185746D02*
X64384809Y-25188739D01*
X64384809Y-25188739D02*
X64388267Y-25191525D01*
X64388267Y-25191525D02*
X64391858Y-25194180D01*
X64391858Y-25194180D02*
X64393751Y-25195480D01*
X64393751Y-25195480D02*
X64395733Y-25196776D01*
X64395733Y-25196776D02*
X64397823Y-25198075D01*
X64397823Y-25198075D02*
X64400041Y-25199389D01*
X64400041Y-25199389D02*
X64404930Y-25202092D01*
X64404930Y-25202092D02*
X64410550Y-25204961D01*
X64410550Y-25204961D02*
X64417051Y-25208070D01*
X64417051Y-25208070D02*
X64424582Y-25211493D01*
X64424582Y-25211493D02*
X64433292Y-25215305D01*
X64433292Y-25215305D02*
X64443331Y-25219580D01*
X64443331Y-25219580D02*
X64454848Y-25224392D01*
X64454848Y-25224392D02*
X64467992Y-25229816D01*
X64467992Y-25229816D02*
X64499759Y-25242797D01*
X64499759Y-25242797D02*
X64578561Y-25274767D01*
X64578561Y-25274767D02*
X64683556Y-25317586D01*
X64683556Y-25317586D02*
X64692807Y-25321259D01*
X64692807Y-25321259D02*
X64702137Y-25324812D01*
X64702137Y-25324812D02*
X64711294Y-25328159D01*
X64711294Y-25328159D02*
X64720024Y-25331212D01*
X64720024Y-25331212D02*
X64728077Y-25333884D01*
X64728077Y-25333884D02*
X64735199Y-25336090D01*
X64735199Y-25336090D02*
X64741140Y-25337741D01*
X64741140Y-25337741D02*
X64745645Y-25338752D01*
X64745645Y-25338752D02*
X64749869Y-25339444D01*
X64749869Y-25339444D02*
X64754433Y-25339936D01*
X64754433Y-25339936D02*
X64759280Y-25340236D01*
X64759280Y-25340236D02*
X64764353Y-25340351D01*
X64764353Y-25340351D02*
X64769596Y-25340288D01*
X64769596Y-25340288D02*
X64774952Y-25340054D01*
X64774952Y-25340054D02*
X64780363Y-25339658D01*
X64780363Y-25339658D02*
X64785773Y-25339105D01*
X64785773Y-25339105D02*
X64791126Y-25338403D01*
X64791126Y-25338403D02*
X64796364Y-25337560D01*
X64796364Y-25337560D02*
X64801430Y-25336583D01*
X64801430Y-25336583D02*
X64806268Y-25335478D01*
X64806268Y-25335478D02*
X64810820Y-25334253D01*
X64810820Y-25334253D02*
X64815030Y-25332916D01*
X64815030Y-25332916D02*
X64818842Y-25331474D01*
X64818842Y-25331474D02*
X64822198Y-25329933D01*
X64822198Y-25329933D02*
X64829649Y-25325586D01*
X64829649Y-25325586D02*
X64842322Y-25317586D01*
X64842322Y-25317586D02*
X64859584Y-25306344D01*
X64859584Y-25306344D02*
X64880803Y-25292274D01*
X64880803Y-25292274D02*
X64932579Y-25257305D01*
X64932579Y-25257305D02*
X64992589Y-25215986D01*
X64992589Y-25215986D02*
X65048240Y-25177841D01*
X65048240Y-25177841D02*
X65105478Y-25138374D01*
X65105478Y-25138374D02*
X65164039Y-25098158D01*
X65164039Y-25098158D02*
X65277987Y-25212105D01*
X65277987Y-25212105D02*
X65391934Y-25326052D01*
X65391934Y-25326052D02*
X65373236Y-25352863D01*
X65373236Y-25352863D02*
X65331609Y-25413188D01*
X65331609Y-25413188D02*
X65306429Y-25449745D01*
X65306429Y-25449745D02*
X65278340Y-25490800D01*
X65278340Y-25490800D02*
X65263837Y-25512286D01*
X65263837Y-25512286D02*
X65246192Y-25538072D01*
X65246192Y-25538072D02*
X65210606Y-25589577D01*
X65210606Y-25589577D02*
X65202848Y-25600904D01*
X65202848Y-25600904D02*
X65195304Y-25612194D01*
X65195304Y-25612194D02*
X65188158Y-25623144D01*
X65188158Y-25623144D02*
X65181590Y-25633454D01*
X65181590Y-25633454D02*
X65175783Y-25642821D01*
X65175783Y-25642821D02*
X65170919Y-25650944D01*
X65170919Y-25650944D02*
X65167179Y-25657521D01*
X65167179Y-25657521D02*
X65164745Y-25662249D01*
X65164745Y-25662249D02*
X65162844Y-25666528D01*
X65162844Y-25666528D02*
X65161110Y-25671011D01*
X65161110Y-25671011D02*
X65159545Y-25675672D01*
X65159545Y-25675672D02*
X65158152Y-25680484D01*
X65158152Y-25680484D02*
X65156933Y-25685419D01*
X65156933Y-25685419D02*
X65155890Y-25690452D01*
X65155890Y-25690452D02*
X65155024Y-25695556D01*
X65155024Y-25695556D02*
X65154338Y-25700702D01*
X65154338Y-25700702D02*
X65153834Y-25705865D01*
X65153834Y-25705865D02*
X65153514Y-25711018D01*
X65153514Y-25711018D02*
X65153380Y-25716134D01*
X65153380Y-25716134D02*
X65153434Y-25721185D01*
X65153434Y-25721185D02*
X65153678Y-25726146D01*
X65153678Y-25726146D02*
X65154115Y-25730989D01*
X65154115Y-25730989D02*
X65154745Y-25735687D01*
X65154745Y-25735687D02*
X65155573Y-25740213D01*
X65155573Y-25740213D02*
X65163124Y-25761597D01*
X65163124Y-25761597D02*
X65180069Y-25803862D01*
X65180069Y-25803862D02*
X65230097Y-25922908D01*
X65230097Y-25922908D02*
X65281581Y-26041094D01*
X65281581Y-26041094D02*
X65300344Y-26082284D01*
X65300344Y-26082284D02*
X65310442Y-26102163D01*
X65310442Y-26102163D02*
X65312945Y-26105578D01*
X65312945Y-26105578D02*
X65315800Y-26109055D01*
X65315800Y-26109055D02*
X65318969Y-26112567D01*
X65318969Y-26112567D02*
X65322415Y-26116087D01*
X65322415Y-26116087D02*
X65326100Y-26119586D01*
X65326100Y-26119586D02*
X65329988Y-26123036D01*
X65329988Y-26123036D02*
X65334042Y-26126410D01*
X65334042Y-26126410D02*
X65338223Y-26129680D01*
X65338223Y-26129680D02*
X65342496Y-26132817D01*
X65342496Y-26132817D02*
X65346822Y-26135794D01*
X65346822Y-26135794D02*
X65351165Y-26138583D01*
X65351165Y-26138583D02*
X65355488Y-26141156D01*
X65355488Y-26141156D02*
X65359752Y-26143485D01*
X65359752Y-26143485D02*
X65363921Y-26145543D01*
X65363921Y-26145543D02*
X65367958Y-26147300D01*
X65367958Y-26147300D02*
X65371826Y-26148730D01*
X65371826Y-26148730D02*
X65377083Y-26150153D01*
X65377083Y-26150153D02*
X65386174Y-26152241D01*
X65386174Y-26152241D02*
X65413850Y-26158035D01*
X65413850Y-26158035D02*
X65450853Y-26165349D01*
X65450853Y-26165349D02*
X65493181Y-26173425D01*
X65493181Y-26173425D02*
X65591826Y-26191504D01*
X65591826Y-26191504D02*
X65680153Y-26207997D01*
X65680153Y-26207997D02*
X65761292Y-26223166D01*
X65761292Y-26223166D02*
X65762350Y-26384033D01*
X65762350Y-26384033D02*
X65762615Y-26473098D01*
X65762615Y-26473098D02*
X65762474Y-26501644D01*
X65762474Y-26501644D02*
X65762086Y-26521616D01*
X65762086Y-26521616D02*
X65761399Y-26534577D01*
X65761399Y-26534577D02*
X65760366Y-26542088D01*
X65760366Y-26542088D02*
X65759703Y-26544289D01*
X65759703Y-26544289D02*
X65758936Y-26545714D01*
X65758936Y-26545714D02*
X65758056Y-26546558D01*
X65758056Y-26546558D02*
X65757059Y-26547016D01*
X65757059Y-26547016D02*
X65743190Y-26549844D01*
X65743190Y-26549844D02*
X65710139Y-26556144D01*
X65710139Y-26556144D02*
X65606070Y-26575591D01*
X65606070Y-26575591D02*
X65425448Y-26609105D01*
X65425448Y-26609105D02*
X65417793Y-26610550D01*
X65417793Y-26610550D02*
X65410047Y-26612197D01*
X65410047Y-26612197D02*
X65402417Y-26613985D01*
X65402417Y-26613985D02*
X65395109Y-26615852D01*
X65395109Y-26615852D02*
X65388330Y-26617735D01*
X65388330Y-26617735D02*
X65382288Y-26619573D01*
X65382288Y-26619573D02*
X65377187Y-26621303D01*
X65377187Y-26621303D02*
X65373236Y-26622863D01*
X65373236Y-26622863D02*
X65369245Y-26624792D01*
X65369245Y-26624792D02*
X65365103Y-26627113D01*
X65365103Y-26627113D02*
X65360850Y-26629790D01*
X65360850Y-26629790D02*
X65356524Y-26632785D01*
X65356524Y-26632785D02*
X65352165Y-26636062D01*
X65352165Y-26636062D02*
X65347812Y-26639582D01*
X65347812Y-26639582D02*
X65343504Y-26643309D01*
X65343504Y-26643309D02*
X65339282Y-26647205D01*
X65339282Y-26647205D02*
X65335183Y-26651234D01*
X65335183Y-26651234D02*
X65331248Y-26655357D01*
X65331248Y-26655357D02*
X65327515Y-26659539D01*
X65327515Y-26659539D02*
X65324024Y-26663741D01*
X65324024Y-26663741D02*
X65320814Y-26667927D01*
X65320814Y-26667927D02*
X65317925Y-26672059D01*
X65317925Y-26672059D02*
X65315395Y-26676100D01*
X65315395Y-26676100D02*
X65313264Y-26680013D01*
X65313264Y-26680013D02*
X65310192Y-26686698D01*
X65310192Y-26686698D02*
X65304627Y-26699626D01*
X65304627Y-26699626D02*
X65287291Y-26741132D01*
X65287291Y-26741132D02*
X65263804Y-26798381D01*
X65263804Y-26798381D02*
X65236711Y-26865222D01*
X65236711Y-26865222D02*
X65168626Y-27034202D01*
X65168626Y-27034202D02*
X65168626Y-27073008D01*
X65168626Y-27073008D02*
X65168735Y-27088016D01*
X65168735Y-27088016D02*
X65168958Y-27094391D01*
X65168958Y-27094391D02*
X65169370Y-27100205D01*
X65169370Y-27100205D02*
X65170027Y-27105601D01*
X65170027Y-27105601D02*
X65170988Y-27110723D01*
X65170988Y-27110723D02*
X65171600Y-27113227D01*
X65171600Y-27113227D02*
X65172310Y-27115715D01*
X65172310Y-27115715D02*
X65173124Y-27118208D01*
X65173124Y-27118208D02*
X65174050Y-27120721D01*
X65174050Y-27120721D02*
X65176265Y-27125884D01*
X65176265Y-27125884D02*
X65179013Y-27131347D01*
X65179013Y-27131347D02*
X65182351Y-27137255D01*
X65182351Y-27137255D02*
X65186336Y-27143751D01*
X65186336Y-27143751D02*
X65191027Y-27150978D01*
X65191027Y-27150978D02*
X65196479Y-27159081D01*
X65196479Y-27159081D02*
X65209901Y-27178488D01*
X65209901Y-27178488D02*
X65236006Y-27216632D01*
X65236006Y-27216632D02*
X65250779Y-27238267D01*
X65250779Y-27238267D02*
X65264228Y-27258216D01*
X65264228Y-27258216D02*
X65292318Y-27299271D01*
X65292318Y-27299271D02*
X65317498Y-27335827D01*
X65317498Y-27335827D02*
X65366534Y-27406736D01*
X65366534Y-27406736D02*
X65392287Y-27444130D01*
X65392287Y-27444130D02*
X65278340Y-27557724D01*
X65278340Y-27557724D02*
X65164392Y-27671672D01*
X65164392Y-27671672D02*
X65021870Y-27573600D01*
X65021870Y-27573600D02*
X64964703Y-27534568D01*
X64964703Y-27534568D02*
X64914317Y-27500795D01*
X64914317Y-27500795D02*
X64876167Y-27475819D01*
X64876167Y-27475819D02*
X64863386Y-27467736D01*
X64863386Y-27467736D02*
X64855711Y-27463180D01*
X64855711Y-27463180D02*
X64848252Y-27459524D01*
X64848252Y-27459524D02*
X64844985Y-27458010D01*
X64844985Y-27458010D02*
X64841942Y-27456687D01*
X64841942Y-27456687D02*
X64839061Y-27455541D01*
X64839061Y-27455541D02*
X64836277Y-27454560D01*
X64836277Y-27454560D02*
X64833529Y-27453730D01*
X64833529Y-27453730D02*
X64830753Y-27453038D01*
X64830753Y-27453038D02*
X64827885Y-27452469D01*
X64827885Y-27452469D02*
X64824864Y-27452011D01*
X64824864Y-27452011D02*
X64821626Y-27451650D01*
X64821626Y-27451650D02*
X64818108Y-27451373D01*
X64818108Y-27451373D02*
X64814246Y-27451166D01*
X64814246Y-27451166D02*
X64809979Y-27451016D01*
X64809979Y-27451016D02*
X64799973Y-27450833D01*
X64799973Y-27450833D02*
X64767870Y-27450833D01*
X64767870Y-27450833D02*
X64717070Y-27476938D01*
X64717070Y-27476938D02*
X64697105Y-27486992D01*
X64697105Y-27486992D02*
X64680646Y-27494930D01*
X64680646Y-27494930D02*
X64674247Y-27497857D01*
X64674247Y-27497857D02*
X64669346Y-27499957D01*
X64669346Y-27499957D02*
X64666147Y-27501131D01*
X64666147Y-27501131D02*
X64665251Y-27501340D01*
X64665251Y-27501340D02*
X64664859Y-27501280D01*
X64664859Y-27501280D02*
X64663940Y-27499433D01*
X64663940Y-27499433D02*
X64661805Y-27494638D01*
X64661805Y-27494638D02*
X64654452Y-27477512D01*
X64654452Y-27477512D02*
X64643924Y-27452514D01*
X64643924Y-27452514D02*
X64631345Y-27422258D01*
X64631345Y-27422258D02*
X64434407Y-26943627D01*
X64434407Y-26943627D02*
X64420829Y-26908491D01*
X64420829Y-26908491D02*
X64415544Y-26892132D01*
X64415544Y-26892132D02*
X64415568Y-26887035D01*
X64415568Y-26887035D02*
X64417915Y-26885683D01*
X64417915Y-26885683D02*
X64419521Y-26884421D01*
X64419521Y-26884421D02*
X64421635Y-26882800D01*
X64421635Y-26882800D02*
X64427043Y-26878759D01*
X64427043Y-26878759D02*
X64430162Y-26876481D01*
X64430162Y-26876481D02*
X64433442Y-26874124D01*
X64433442Y-26874124D02*
X64436797Y-26871758D01*
X64436797Y-26871758D02*
X64440139Y-26869455D01*
X64440139Y-26869455D02*
X64461494Y-26853834D01*
X64461494Y-26853834D02*
X64482139Y-26837170D01*
X64482139Y-26837170D02*
X64502036Y-26819523D01*
X64502036Y-26819523D02*
X64521146Y-26800950D01*
X64521146Y-26800950D02*
X64539429Y-26781509D01*
X64539429Y-26781509D02*
X64556845Y-26761257D01*
X64556845Y-26761257D02*
X64573357Y-26740253D01*
X64573357Y-26740253D02*
X64588923Y-26718554D01*
X64588923Y-26718554D02*
X64603506Y-26696219D01*
X64603506Y-26696219D02*
X64617066Y-26673305D01*
X64617066Y-26673305D02*
X64629563Y-26649870D01*
X64629563Y-26649870D02*
X64640958Y-26625972D01*
X64640958Y-26625972D02*
X64651212Y-26601669D01*
X64651212Y-26601669D02*
X64660287Y-26577019D01*
X64660287Y-26577019D02*
X64668141Y-26552079D01*
X64668141Y-26552079D02*
X64674737Y-26526908D01*
X64674737Y-26526908D02*
X64679410Y-26505976D01*
X64679410Y-26505976D02*
X64683154Y-26486454D01*
X64683154Y-26486454D02*
X64686029Y-26467767D01*
X64686029Y-26467767D02*
X64687160Y-26458557D01*
X64687160Y-26458557D02*
X64688098Y-26449341D01*
X64688098Y-26449341D02*
X64689423Y-26430600D01*
X64689423Y-26430600D02*
X64690066Y-26410971D01*
X64690066Y-26410971D02*
X64690089Y-26389878D01*
X64690089Y-26389878D02*
X64689553Y-26366747D01*
X64689553Y-26366747D02*
X64688200Y-26338429D01*
X64688200Y-26338429D02*
X64687188Y-26324977D01*
X64687188Y-26324977D02*
X64685937Y-26311923D01*
X64685937Y-26311923D02*
X64684439Y-26299212D01*
X64684439Y-26299212D02*
X64682682Y-26286789D01*
X64682682Y-26286789D02*
X64680657Y-26274600D01*
X64680657Y-26274600D02*
X64678353Y-26262589D01*
X64678353Y-26262589D02*
X64675759Y-26250703D01*
X64675759Y-26250703D02*
X64672865Y-26238885D01*
X64672865Y-26238885D02*
X64669662Y-26227083D01*
X64669662Y-26227083D02*
X64666138Y-26215240D01*
X64666138Y-26215240D02*
X64662283Y-26203302D01*
X64662283Y-26203302D02*
X64658087Y-26191214D01*
X64658087Y-26191214D02*
X64648631Y-26166369D01*
X64648631Y-26166369D02*
X64635928Y-26137219D01*
X64635928Y-26137219D02*
X64621549Y-26108818D01*
X64621549Y-26108818D02*
X64605574Y-26081238D01*
X64605574Y-26081238D02*
X64588080Y-26054549D01*
X64588080Y-26054549D02*
X64569145Y-26028824D01*
X64569145Y-26028824D02*
X64548848Y-26004134D01*
X64548848Y-26004134D02*
X64527266Y-25980549D01*
X64527266Y-25980549D02*
X64504477Y-25958142D01*
X64504477Y-25958142D02*
X64480560Y-25936983D01*
X64480560Y-25936983D02*
X64455592Y-25917144D01*
X64455592Y-25917144D02*
X64429652Y-25898696D01*
X64429652Y-25898696D02*
X64402817Y-25881710D01*
X64402817Y-25881710D02*
X64375165Y-25866259D01*
X64375165Y-25866259D02*
X64346775Y-25852412D01*
X64346775Y-25852412D02*
X64317725Y-25840242D01*
X64317725Y-25840242D02*
X64288092Y-25829819D01*
X64288092Y-25829819D02*
X64263383Y-25822301D01*
X64263383Y-25822301D02*
X64252130Y-25819124D01*
X64252130Y-25819124D02*
X64241426Y-25816309D01*
X64241426Y-25816309D02*
X64231132Y-25813834D01*
X64231132Y-25813834D02*
X64221107Y-25811680D01*
X64221107Y-25811680D02*
X64211213Y-25809828D01*
X64211213Y-25809828D02*
X64201309Y-25808255D01*
X64201309Y-25808255D02*
X64191256Y-25806944D01*
X64191256Y-25806944D02*
X64180915Y-25805872D01*
X64180915Y-25805872D02*
X64170147Y-25805021D01*
X64170147Y-25805021D02*
X64158810Y-25804369D01*
X64158810Y-25804369D02*
X64133877Y-25803586D01*
X64133877Y-25803586D02*
X64105001Y-25803361D01*
X64105001Y-25803361D02*
X64075451Y-25803618D01*
X64075451Y-25803618D02*
X64049846Y-25804496D01*
X64049846Y-25804496D02*
X64038184Y-25805217D01*
X64038184Y-25805217D02*
X64027101Y-25806151D01*
X64027101Y-25806151D02*
X64016464Y-25807319D01*
X64016464Y-25807319D02*
X64006135Y-25808740D01*
X64006135Y-25808740D02*
X63995979Y-25810435D01*
X63995979Y-25810435D02*
X63985862Y-25812421D01*
X63985862Y-25812421D02*
X63975648Y-25814720D01*
X63975648Y-25814720D02*
X63965201Y-25817350D01*
X63965201Y-25817350D02*
X63943069Y-25823685D01*
X63943069Y-25823685D02*
X63918381Y-25831583D01*
X63918381Y-25831583D02*
X63884147Y-25844207D01*
X63884147Y-25844207D02*
X63850952Y-25858872D01*
X63850952Y-25858872D02*
X63818873Y-25875495D01*
X63818873Y-25875495D02*
X63787991Y-25893991D01*
X63787991Y-25893991D02*
X63758385Y-25914278D01*
X63758385Y-25914278D02*
X63730132Y-25936271D01*
X63730132Y-25936271D02*
X63703313Y-25959887D01*
X63703313Y-25959887D02*
X63678007Y-25985041D01*
X63678007Y-25985041D02*
X63654293Y-26011651D01*
X63654293Y-26011651D02*
X63632249Y-26039632D01*
X63632249Y-26039632D02*
X63611955Y-26068901D01*
X63611955Y-26068901D02*
X63593489Y-26099374D01*
X63593489Y-26099374D02*
X63576932Y-26130968D01*
X63576932Y-26130968D02*
X63562362Y-26163598D01*
X63562362Y-26163598D02*
X63549857Y-26197181D01*
X63549857Y-26197181D02*
X63539498Y-26231633D01*
X63539498Y-26231633D02*
X63534051Y-26253010D01*
X63534051Y-26253010D02*
X63529791Y-26271420D01*
X63529791Y-26271420D02*
X63528063Y-26279906D01*
X63528063Y-26279906D02*
X63526581Y-26288126D01*
X63526581Y-26288126D02*
X63525327Y-26296235D01*
X63525327Y-26296235D02*
X63524284Y-26304393D01*
X63524284Y-26304393D02*
X63523436Y-26312758D01*
X63523436Y-26312758D02*
X63522765Y-26321488D01*
X63522765Y-26321488D02*
X63522254Y-26330741D01*
X63522254Y-26330741D02*
X63521886Y-26340674D01*
X63521886Y-26340674D02*
X63521512Y-26363218D01*
X63521512Y-26363218D02*
X63521506Y-26390383D01*
X63521506Y-26390383D02*
X63521565Y-26412568D01*
X63521565Y-26412568D02*
X63521782Y-26430941D01*
X63521782Y-26430941D02*
X63522213Y-26446255D01*
X63522213Y-26446255D02*
X63522917Y-26459263D01*
X63522917Y-26459263D02*
X63523952Y-26470716D01*
X63523952Y-26470716D02*
X63525376Y-26481366D01*
X63525376Y-26481366D02*
X63527246Y-26491968D01*
X63527246Y-26491968D02*
X63529620Y-26503272D01*
X63529620Y-26503272D02*
X63536389Y-26531748D01*
X63536389Y-26531748D02*
X63544383Y-26559616D01*
X63544383Y-26559616D02*
X63553586Y-26586853D01*
X63553586Y-26586853D02*
X63563983Y-26613438D01*
X63563983Y-26613438D02*
X63575558Y-26639349D01*
X63575558Y-26639349D02*
X63588295Y-26664564D01*
X63588295Y-26664564D02*
X63602180Y-26689062D01*
X63602180Y-26689062D02*
X63617197Y-26712822D01*
X63617197Y-26712822D02*
X63633330Y-26735820D01*
X63633330Y-26735820D02*
X63650564Y-26758037D01*
X63650564Y-26758037D02*
X63668882Y-26779449D01*
X63668882Y-26779449D02*
X63688271Y-26800035D01*
X63688271Y-26800035D02*
X63708714Y-26819774D01*
X63708714Y-26819774D02*
X63730195Y-26838643D01*
X63730195Y-26838643D02*
X63752699Y-26856622D01*
X63752699Y-26856622D02*
X63776212Y-26873688D01*
X63776212Y-26873688D02*
X63780595Y-26876718D01*
X63780595Y-26876718D02*
X63784689Y-26879669D01*
X63784689Y-26879669D02*
X63788403Y-26882463D01*
X63788403Y-26882463D02*
X63791646Y-26885021D01*
X63791646Y-26885021D02*
X63794326Y-26887265D01*
X63794326Y-26887265D02*
X63796353Y-26889117D01*
X63796353Y-26889117D02*
X63797093Y-26889871D01*
X63797093Y-26889871D02*
X63797636Y-26890497D01*
X63797636Y-26890497D02*
X63797970Y-26890986D01*
X63797970Y-26890986D02*
X63798084Y-26891327D01*
X63798084Y-26891327D02*
X63798023Y-26891672D01*
X63798023Y-26891672D02*
X63797843Y-26892298D01*
X63797843Y-26892298D02*
X63797152Y-26894331D01*
X63797152Y-26894331D02*
X63796056Y-26897299D01*
X63796056Y-26897299D02*
X63794600Y-26901073D01*
X63794600Y-26901073D02*
X63792830Y-26905524D01*
X63792830Y-26905524D02*
X63790791Y-26910526D01*
X63790791Y-26910526D02*
X63788529Y-26915949D01*
X63788529Y-26915949D02*
X63786090Y-26921666D01*
X63786090Y-26921666D02*
X63779100Y-26937988D01*
X63779100Y-26937988D02*
X63769068Y-26962015D01*
X63769068Y-26962015D02*
X63745167Y-27020091D01*
X63745167Y-27020091D02*
X63720826Y-27079181D01*
X63720826Y-27079181D02*
X63702834Y-27122397D01*
X63702834Y-27122397D02*
X63684842Y-27165480D01*
X63684842Y-27165480D02*
X63660501Y-27224702D01*
X63660501Y-27224702D02*
X63636159Y-27283792D01*
X63636159Y-27283792D02*
X63618167Y-27327008D01*
X63618167Y-27327008D02*
X63600176Y-27370091D01*
X63600176Y-27370091D02*
X63575834Y-27429313D01*
X63575834Y-27429313D02*
X63564495Y-27456830D01*
X63564495Y-27456830D02*
X63554976Y-27479584D01*
X63554976Y-27479584D02*
X63548301Y-27495195D01*
X63548301Y-27495195D02*
X63545495Y-27501280D01*
X63545495Y-27501280D02*
X63545331Y-27501343D01*
X63545331Y-27501343D02*
X63545040Y-27501336D01*
X63545040Y-27501336D02*
X63544090Y-27501117D01*
X63544090Y-27501117D02*
X63542670Y-27500636D01*
X63542670Y-27500636D02*
X63540804Y-27499907D01*
X63540804Y-27499907D02*
X63535840Y-27497764D01*
X63535840Y-27497764D02*
X63529400Y-27494798D01*
X63529400Y-27494798D02*
X63521686Y-27491120D01*
X63521686Y-27491120D02*
X63512902Y-27486844D01*
X63512902Y-27486844D02*
X63492931Y-27476938D01*
X63492931Y-27476938D02*
X63442131Y-27450833D01*
X63442131Y-27450833D02*
X63411087Y-27450833D01*
X63411087Y-27450833D02*
X63395784Y-27450833D01*
X63395784Y-27450833D02*
X63392488Y-27450922D01*
X63392488Y-27450922D02*
X63389294Y-27451108D01*
X63389294Y-27451108D02*
X63386146Y-27451422D01*
X63386146Y-27451422D02*
X63382991Y-27451897D01*
X63382991Y-27451897D02*
X63379774Y-27452561D01*
X63379774Y-27452561D02*
X63376439Y-27453448D01*
X63376439Y-27453448D02*
X63372932Y-27454587D01*
X63372932Y-27454587D02*
X63369198Y-27456011D01*
X63369198Y-27456011D02*
X63365182Y-27457749D01*
X63365182Y-27457749D02*
X63360829Y-27459833D01*
X63360829Y-27459833D02*
X63356085Y-27462295D01*
X63356085Y-27462295D02*
X63350894Y-27465164D01*
X63350894Y-27465164D02*
X63345202Y-27468473D01*
X63345202Y-27468473D02*
X63338954Y-27472252D01*
X63338954Y-27472252D02*
X63324570Y-27481346D01*
X63324570Y-27481346D02*
X63307304Y-27492694D01*
X63307304Y-27492694D02*
X63286716Y-27506544D01*
X63286716Y-27506544D02*
X63262368Y-27523146D01*
X63262368Y-27523146D02*
X63233822Y-27542747D01*
X63233822Y-27542747D02*
X63162378Y-27591944D01*
X63162378Y-27591944D02*
X63124896Y-27617653D01*
X63124896Y-27617653D02*
X63104335Y-27631681D01*
X63104335Y-27631681D02*
X63085826Y-27644155D01*
X63085826Y-27644155D02*
X63045962Y-27671672D01*
X63045962Y-27671672D02*
X62932015Y-27558077D01*
X62932015Y-27558077D02*
X62818067Y-27444130D01*
X62818067Y-27444130D02*
X62847701Y-27401444D01*
X62847701Y-27401444D02*
X62966532Y-27227976D01*
X62966532Y-27227976D02*
X63001775Y-27175039D01*
X63001775Y-27175039D02*
X63024442Y-27138448D01*
X63024442Y-27138448D02*
X63031889Y-27124833D01*
X63031889Y-27124833D02*
X63037188Y-27113565D01*
X63037188Y-27113565D02*
X63040669Y-27104064D01*
X63040669Y-27104064D02*
X63042665Y-27095751D01*
X63042665Y-27095751D02*
X63043508Y-27088045D01*
X63043508Y-27088045D02*
X63043530Y-27080368D01*
X63043530Y-27080368D02*
X63042434Y-27062777D01*
X63042434Y-27062777D02*
X63042072Y-27057853D01*
X63042072Y-27057853D02*
X63041589Y-27053102D01*
X63041589Y-27053102D02*
X63040898Y-27048274D01*
X63040898Y-27048274D02*
X63039909Y-27043121D01*
X63039909Y-27043121D02*
X63038537Y-27037393D01*
X63038537Y-27037393D02*
X63036692Y-27030841D01*
X63036692Y-27030841D02*
X63034287Y-27023217D01*
X63034287Y-27023217D02*
X63031233Y-27014270D01*
X63031233Y-27014270D02*
X63027444Y-27003753D01*
X63027444Y-27003753D02*
X63022831Y-26991415D01*
X63022831Y-26991415D02*
X63017307Y-26977009D01*
X63017307Y-26977009D02*
X63010783Y-26960284D01*
X63010783Y-26960284D02*
X62994386Y-26918884D01*
X62994386Y-26918884D02*
X62972937Y-26865222D01*
X62972937Y-26865222D02*
X62922534Y-26741132D01*
X62922534Y-26741132D02*
X62905319Y-26699626D01*
X62905319Y-26699626D02*
X62896737Y-26680013D01*
X62896737Y-26680013D02*
X62894606Y-26676100D01*
X62894606Y-26676100D02*
X62892075Y-26672059D01*
X62892075Y-26672059D02*
X62889184Y-26667927D01*
X62889184Y-26667927D02*
X62885971Y-26663741D01*
X62885971Y-26663741D02*
X62882475Y-26659539D01*
X62882475Y-26659539D02*
X62878735Y-26655357D01*
X62878735Y-26655357D02*
X62874788Y-26651234D01*
X62874788Y-26651234D02*
X62870675Y-26647205D01*
X62870675Y-26647205D02*
X62866434Y-26643309D01*
X62866434Y-26643309D02*
X62862103Y-26639582D01*
X62862103Y-26639582D02*
X62857722Y-26636062D01*
X62857722Y-26636062D02*
X62853329Y-26632785D01*
X62853329Y-26632785D02*
X62848962Y-26629790D01*
X62848962Y-26629790D02*
X62844661Y-26627113D01*
X62844661Y-26627113D02*
X62840465Y-26624792D01*
X62840465Y-26624792D02*
X62836412Y-26622863D01*
X62836412Y-26622863D02*
X62833845Y-26621923D01*
X62833845Y-26621923D02*
X62829636Y-26620701D01*
X62829636Y-26620701D02*
X62816601Y-26617472D01*
X62816601Y-26617472D02*
X62797927Y-26613301D01*
X62797927Y-26613301D02*
X62774235Y-26608311D01*
X62774235Y-26608311D02*
X62714273Y-26596372D01*
X62714273Y-26596372D02*
X62641678Y-26582647D01*
X62641678Y-26582647D02*
X62454706Y-26547369D01*
X62454706Y-26547369D02*
X62446945Y-26545605D01*
X62446945Y-26545605D02*
X62447651Y-26384386D01*
X62447651Y-26384386D02*
X62448709Y-26223166D01*
X62448709Y-26223166D02*
X62633917Y-26188947D01*
X62633917Y-26188947D02*
X62707284Y-26175017D01*
X62707284Y-26175017D02*
X62770001Y-26162709D01*
X62770001Y-26162709D02*
X62815388Y-26153377D01*
X62815388Y-26153377D02*
X62836764Y-26148377D01*
X62836764Y-26148377D02*
X62840822Y-26146947D01*
X62840822Y-26146947D02*
X62845033Y-26145190D01*
X62845033Y-26145190D02*
X62849361Y-26143133D01*
X62849361Y-26143133D02*
X62853769Y-26140804D01*
X62853769Y-26140804D02*
X62858221Y-26138231D01*
X62858221Y-26138231D02*
X62862679Y-26135442D01*
X62862679Y-26135442D02*
X62867107Y-26132465D01*
X62867107Y-26132465D02*
X62871469Y-26129327D01*
X62871469Y-26129327D02*
X62875727Y-26126058D01*
X62875727Y-26126058D02*
X62879845Y-26122684D01*
X62879845Y-26122684D02*
X62883787Y-26119233D01*
X62883787Y-26119233D02*
X62887515Y-26115734D01*
X62887515Y-26115734D02*
X62890993Y-26112215D01*
X62890993Y-26112215D02*
X62894184Y-26108702D01*
X62894184Y-26108702D02*
X62897052Y-26105225D01*
X62897052Y-26105225D02*
X62899559Y-26101811D01*
X62899559Y-26101811D02*
X62909657Y-26081948D01*
X62909657Y-26081948D02*
X62928415Y-26040802D01*
X62928415Y-26040802D02*
X62979860Y-25922776D01*
X62979860Y-25922776D02*
X63029784Y-25803956D01*
X63029784Y-25803956D02*
X63046640Y-25761818D01*
X63046640Y-25761818D02*
X63054076Y-25740566D01*
X63054076Y-25740566D02*
X63054965Y-25735978D01*
X63054965Y-25735978D02*
X63055651Y-25731225D01*
X63055651Y-25731225D02*
X63056136Y-25726335D01*
X63056136Y-25726335D02*
X63056424Y-25721334D01*
X63056424Y-25721334D02*
X63056517Y-25716249D01*
X63056517Y-25716249D02*
X63056420Y-25711104D01*
X63056420Y-25711104D02*
X63056134Y-25705928D01*
X63056134Y-25705928D02*
X63055663Y-25700746D01*
X63055663Y-25700746D02*
X63055010Y-25695585D01*
X63055010Y-25695585D02*
X63054179Y-25690471D01*
X63054179Y-25690471D02*
X63053172Y-25685430D01*
X63053172Y-25685430D02*
X63051992Y-25680489D01*
X63051992Y-25680489D02*
X63050643Y-25675674D01*
X63050643Y-25675674D02*
X63049127Y-25671012D01*
X63049127Y-25671012D02*
X63047448Y-25666528D01*
X63047448Y-25666528D02*
X63045609Y-25662249D01*
X63045609Y-25662249D02*
X63044477Y-25660009D01*
X63044477Y-25660009D02*
X63042823Y-25657024D01*
X63042823Y-25657024D02*
X63038074Y-25649020D01*
X63038074Y-25649020D02*
X63031613Y-25638635D01*
X63031613Y-25638635D02*
X63023693Y-25626266D01*
X63023693Y-25626266D02*
X63014565Y-25612309D01*
X63014565Y-25612309D02*
X63004483Y-25597162D01*
X63004483Y-25597162D02*
X62993698Y-25581221D01*
X62993698Y-25581221D02*
X62982462Y-25564883D01*
X62982462Y-25564883D02*
X62848362Y-25369268D01*
X62848362Y-25369268D02*
X62826143Y-25335787D01*
X62826143Y-25335787D02*
X62822001Y-25328848D01*
X62822001Y-25328848D02*
X62820890Y-25326052D01*
X62820890Y-25326052D02*
X62821471Y-25325202D01*
X62821471Y-25325202D02*
X62823178Y-25323222D01*
X62823178Y-25323222D02*
X62829742Y-25316114D01*
X62829742Y-25316114D02*
X62840126Y-25305210D01*
X62840126Y-25305210D02*
X62853874Y-25290995D01*
X62853874Y-25290995D02*
X62870533Y-25273952D01*
X62870533Y-25273952D02*
X62889648Y-25254565D01*
X62889648Y-25254565D02*
X62910764Y-25233318D01*
X62910764Y-25233318D02*
X62933426Y-25210694D01*
X62933426Y-25210694D02*
X63045962Y-25098158D01*
X63045962Y-25098158D02*
X63102053Y-25136611D01*
X63102053Y-25136611D02*
X63222351Y-25219161D01*
X63222351Y-25219161D02*
X63331006Y-25293597D01*
X63331006Y-25293597D02*
X63347452Y-25304886D01*
X63347452Y-25304886D02*
X63361433Y-25314058D01*
X63361433Y-25314058D02*
X63367671Y-25317933D01*
X63367671Y-25317933D02*
X63373497Y-25321378D01*
X63373497Y-25321378D02*
X63378979Y-25324426D01*
X63378979Y-25324426D02*
X63384187Y-25327111D01*
X63384187Y-25327111D02*
X63389189Y-25329464D01*
X63389189Y-25329464D02*
X63394051Y-25331520D01*
X63394051Y-25331520D02*
X63398844Y-25333312D01*
X63398844Y-25333312D02*
X63403634Y-25334872D01*
X63403634Y-25334872D02*
X63408491Y-25336233D01*
X63408491Y-25336233D02*
X63413482Y-25337429D01*
X63413482Y-25337429D02*
X63418675Y-25338493D01*
X63418675Y-25338493D02*
X63424139Y-25339458D01*
X63424139Y-25339458D02*
X63430469Y-25340412D01*
X63430469Y-25340412D02*
X63436444Y-25341085D01*
X63436444Y-25341085D02*
X63439400Y-25341284D01*
X63439400Y-25341284D02*
X63442388Y-25341372D01*
X63442388Y-25341372D02*
X63445449Y-25341338D01*
X63445449Y-25341338D02*
X63448625Y-25341167D01*
X63448625Y-25341167D02*
X63451954Y-25340846D01*
X63451954Y-25340846D02*
X63455477Y-25340361D01*
X63455477Y-25340361D02*
X63459235Y-25339701D01*
X63459235Y-25339701D02*
X63463269Y-25338850D01*
X63463269Y-25338850D02*
X63467618Y-25337797D01*
X63467618Y-25337797D02*
X63472324Y-25336527D01*
X63472324Y-25336527D02*
X63477426Y-25335027D01*
X63477426Y-25335027D02*
X63482965Y-25333284D01*
X63482965Y-25333284D02*
X63488982Y-25331285D01*
X63488982Y-25331285D02*
X63495517Y-25329017D01*
X63495517Y-25329017D02*
X63510301Y-25323617D01*
X63510301Y-25323617D02*
X63527643Y-25316980D01*
X63527643Y-25316980D02*
X63547865Y-25308998D01*
X63547865Y-25308998D02*
X63571291Y-25299565D01*
X63571291Y-25299565D02*
X63598245Y-25288574D01*
X63598245Y-25288574D02*
X63664028Y-25261494D01*
X63664028Y-25261494D02*
X63741639Y-25229744D01*
X63741639Y-25229744D02*
X63763141Y-25220959D01*
X63763141Y-25220959D02*
X63780037Y-25213902D01*
X63780037Y-25213902D02*
X63793146Y-25208152D01*
X63793146Y-25208152D02*
X63803287Y-25203286D01*
X63803287Y-25203286D02*
X63807501Y-25201053D01*
X63807501Y-25201053D02*
X63811279Y-25198883D01*
X63811279Y-25198883D02*
X63814724Y-25196723D01*
X63814724Y-25196723D02*
X63817939Y-25194521D01*
X63817939Y-25194521D02*
X63824086Y-25189779D01*
X63824086Y-25189779D02*
X63830539Y-25184236D01*
X63830539Y-25184236D02*
X63835885Y-25179339D01*
X63835885Y-25179339D02*
X63840713Y-25174616D01*
X63840713Y-25174616D02*
X63842949Y-25172277D01*
X63842949Y-25172277D02*
X63845074Y-25169931D01*
X63845074Y-25169931D02*
X63847096Y-25167562D01*
X63847096Y-25167562D02*
X63849022Y-25165153D01*
X63849022Y-25165153D02*
X63850857Y-25162686D01*
X63850857Y-25162686D02*
X63852607Y-25160147D01*
X63852607Y-25160147D02*
X63854281Y-25157517D01*
X63854281Y-25157517D02*
X63855884Y-25154780D01*
X63855884Y-25154780D02*
X63857422Y-25151920D01*
X63857422Y-25151920D02*
X63858902Y-25148919D01*
X63858902Y-25148919D02*
X63860332Y-25145762D01*
X63860332Y-25145762D02*
X63861716Y-25142431D01*
X63861716Y-25142431D02*
X63863062Y-25138911D01*
X63863062Y-25138911D02*
X63864377Y-25135183D01*
X63864377Y-25135183D02*
X63865666Y-25131232D01*
X63865666Y-25131232D02*
X63866937Y-25127040D01*
X63866937Y-25127040D02*
X63869448Y-25117870D01*
X63869448Y-25117870D02*
X63871963Y-25107540D01*
X63871963Y-25107540D02*
X63874534Y-25095915D01*
X63874534Y-25095915D02*
X63877213Y-25082863D01*
X63877213Y-25082863D02*
X63880052Y-25068250D01*
X63880052Y-25068250D02*
X63883103Y-25051944D01*
X63883103Y-25051944D02*
X63907092Y-24922827D01*
X63907092Y-24922827D02*
X63932140Y-24787714D01*
X63932140Y-24787714D02*
X63943781Y-24725272D01*
X63943781Y-24725272D02*
X64105001Y-24725272D01*
X64105001Y-24725272D02*
X64265867Y-24725272D01*
X64265867Y-24725272D02*
X64275745Y-24777130D01*
X64275745Y-24777130D02*
X64275745Y-24777130D01*
G36*
X64275745Y-24777130D02*
G01*
X64299028Y-24903425D01*
X64327195Y-25052495D01*
X64336570Y-25098067D01*
X64344184Y-25129202D01*
X64347653Y-25140498D01*
X64351070Y-25149556D01*
X64354563Y-25156832D01*
X64358262Y-25162782D01*
X64362296Y-25167865D01*
X64366793Y-25172536D01*
X64377698Y-25182472D01*
X64381336Y-25185746D01*
X64384809Y-25188739D01*
X64388267Y-25191525D01*
X64391858Y-25194180D01*
X64393751Y-25195480D01*
X64395733Y-25196776D01*
X64397823Y-25198075D01*
X64400041Y-25199389D01*
X64404930Y-25202092D01*
X64410550Y-25204961D01*
X64417051Y-25208070D01*
X64424582Y-25211493D01*
X64433292Y-25215305D01*
X64443331Y-25219580D01*
X64454848Y-25224392D01*
X64467992Y-25229816D01*
X64499759Y-25242797D01*
X64578561Y-25274767D01*
X64683556Y-25317586D01*
X64692807Y-25321259D01*
X64702137Y-25324812D01*
X64711294Y-25328159D01*
X64720024Y-25331212D01*
X64728077Y-25333884D01*
X64735199Y-25336090D01*
X64741140Y-25337741D01*
X64745645Y-25338752D01*
X64749869Y-25339444D01*
X64754433Y-25339936D01*
X64759280Y-25340236D01*
X64764353Y-25340351D01*
X64769596Y-25340288D01*
X64774952Y-25340054D01*
X64780363Y-25339658D01*
X64785773Y-25339105D01*
X64791126Y-25338403D01*
X64796364Y-25337560D01*
X64801430Y-25336583D01*
X64806268Y-25335478D01*
X64810820Y-25334253D01*
X64815030Y-25332916D01*
X64818842Y-25331474D01*
X64822198Y-25329933D01*
X64829649Y-25325586D01*
X64842322Y-25317586D01*
X64859584Y-25306344D01*
X64880803Y-25292274D01*
X64932579Y-25257305D01*
X64992589Y-25215986D01*
X65048240Y-25177841D01*
X65105478Y-25138374D01*
X65164039Y-25098158D01*
X65277987Y-25212105D01*
X65391934Y-25326052D01*
X65373236Y-25352863D01*
X65331609Y-25413188D01*
X65306429Y-25449745D01*
X65278340Y-25490800D01*
X65263837Y-25512286D01*
X65246192Y-25538072D01*
X65210606Y-25589577D01*
X65202848Y-25600904D01*
X65195304Y-25612194D01*
X65188158Y-25623144D01*
X65181590Y-25633454D01*
X65175783Y-25642821D01*
X65170919Y-25650944D01*
X65167179Y-25657521D01*
X65164745Y-25662249D01*
X65162844Y-25666528D01*
X65161110Y-25671011D01*
X65159545Y-25675672D01*
X65158152Y-25680484D01*
X65156933Y-25685419D01*
X65155890Y-25690452D01*
X65155024Y-25695556D01*
X65154338Y-25700702D01*
X65153834Y-25705865D01*
X65153514Y-25711018D01*
X65153380Y-25716134D01*
X65153434Y-25721185D01*
X65153678Y-25726146D01*
X65154115Y-25730989D01*
X65154745Y-25735687D01*
X65155573Y-25740213D01*
X65163124Y-25761597D01*
X65180069Y-25803862D01*
X65230097Y-25922908D01*
X65281581Y-26041094D01*
X65300344Y-26082284D01*
X65310442Y-26102163D01*
X65312945Y-26105578D01*
X65315800Y-26109055D01*
X65318969Y-26112567D01*
X65322415Y-26116087D01*
X65326100Y-26119586D01*
X65329988Y-26123036D01*
X65334042Y-26126410D01*
X65338223Y-26129680D01*
X65342496Y-26132817D01*
X65346822Y-26135794D01*
X65351165Y-26138583D01*
X65355488Y-26141156D01*
X65359752Y-26143485D01*
X65363921Y-26145543D01*
X65367958Y-26147300D01*
X65371826Y-26148730D01*
X65377083Y-26150153D01*
X65386174Y-26152241D01*
X65413850Y-26158035D01*
X65450853Y-26165349D01*
X65493181Y-26173425D01*
X65591826Y-26191504D01*
X65680153Y-26207997D01*
X65761292Y-26223166D01*
X65762350Y-26384033D01*
X65762615Y-26473098D01*
X65762474Y-26501644D01*
X65762086Y-26521616D01*
X65761399Y-26534577D01*
X65760366Y-26542088D01*
X65759703Y-26544289D01*
X65758936Y-26545714D01*
X65758056Y-26546558D01*
X65757059Y-26547016D01*
X65743190Y-26549844D01*
X65710139Y-26556144D01*
X65606070Y-26575591D01*
X65425448Y-26609105D01*
X65417793Y-26610550D01*
X65410047Y-26612197D01*
X65402417Y-26613985D01*
X65395109Y-26615852D01*
X65388330Y-26617735D01*
X65382288Y-26619573D01*
X65377187Y-26621303D01*
X65373236Y-26622863D01*
X65369245Y-26624792D01*
X65365103Y-26627113D01*
X65360850Y-26629790D01*
X65356524Y-26632785D01*
X65352165Y-26636062D01*
X65347812Y-26639582D01*
X65343504Y-26643309D01*
X65339282Y-26647205D01*
X65335183Y-26651234D01*
X65331248Y-26655357D01*
X65327515Y-26659539D01*
X65324024Y-26663741D01*
X65320814Y-26667927D01*
X65317925Y-26672059D01*
X65315395Y-26676100D01*
X65313264Y-26680013D01*
X65310192Y-26686698D01*
X65304627Y-26699626D01*
X65287291Y-26741132D01*
X65263804Y-26798381D01*
X65236711Y-26865222D01*
X65168626Y-27034202D01*
X65168626Y-27073008D01*
X65168735Y-27088016D01*
X65168958Y-27094391D01*
X65169370Y-27100205D01*
X65170027Y-27105601D01*
X65170988Y-27110723D01*
X65171600Y-27113227D01*
X65172310Y-27115715D01*
X65173124Y-27118208D01*
X65174050Y-27120721D01*
X65176265Y-27125884D01*
X65179013Y-27131347D01*
X65182351Y-27137255D01*
X65186336Y-27143751D01*
X65191027Y-27150978D01*
X65196479Y-27159081D01*
X65209901Y-27178488D01*
X65236006Y-27216632D01*
X65250779Y-27238267D01*
X65264228Y-27258216D01*
X65292318Y-27299271D01*
X65317498Y-27335827D01*
X65366534Y-27406736D01*
X65392287Y-27444130D01*
X65278340Y-27557724D01*
X65164392Y-27671672D01*
X65021870Y-27573600D01*
X64964703Y-27534568D01*
X64914317Y-27500795D01*
X64876167Y-27475819D01*
X64863386Y-27467736D01*
X64855711Y-27463180D01*
X64848252Y-27459524D01*
X64844985Y-27458010D01*
X64841942Y-27456687D01*
X64839061Y-27455541D01*
X64836277Y-27454560D01*
X64833529Y-27453730D01*
X64830753Y-27453038D01*
X64827885Y-27452469D01*
X64824864Y-27452011D01*
X64821626Y-27451650D01*
X64818108Y-27451373D01*
X64814246Y-27451166D01*
X64809979Y-27451016D01*
X64799973Y-27450833D01*
X64767870Y-27450833D01*
X64717070Y-27476938D01*
X64697105Y-27486992D01*
X64680646Y-27494930D01*
X64674247Y-27497857D01*
X64669346Y-27499957D01*
X64666147Y-27501131D01*
X64665251Y-27501340D01*
X64664859Y-27501280D01*
X64663940Y-27499433D01*
X64661805Y-27494638D01*
X64654452Y-27477512D01*
X64643924Y-27452514D01*
X64631345Y-27422258D01*
X64434407Y-26943627D01*
X64420829Y-26908491D01*
X64415544Y-26892132D01*
X64415568Y-26887035D01*
X64417915Y-26885683D01*
X64419521Y-26884421D01*
X64421635Y-26882800D01*
X64427043Y-26878759D01*
X64430162Y-26876481D01*
X64433442Y-26874124D01*
X64436797Y-26871758D01*
X64440139Y-26869455D01*
X64461494Y-26853834D01*
X64482139Y-26837170D01*
X64502036Y-26819523D01*
X64521146Y-26800950D01*
X64539429Y-26781509D01*
X64556845Y-26761257D01*
X64573357Y-26740253D01*
X64588923Y-26718554D01*
X64603506Y-26696219D01*
X64617066Y-26673305D01*
X64629563Y-26649870D01*
X64640958Y-26625972D01*
X64651212Y-26601669D01*
X64660287Y-26577019D01*
X64668141Y-26552079D01*
X64674737Y-26526908D01*
X64679410Y-26505976D01*
X64683154Y-26486454D01*
X64686029Y-26467767D01*
X64687160Y-26458557D01*
X64688098Y-26449341D01*
X64689423Y-26430600D01*
X64690066Y-26410971D01*
X64690089Y-26389878D01*
X64689553Y-26366747D01*
X64688200Y-26338429D01*
X64687188Y-26324977D01*
X64685937Y-26311923D01*
X64684439Y-26299212D01*
X64682682Y-26286789D01*
X64680657Y-26274600D01*
X64678353Y-26262589D01*
X64675759Y-26250703D01*
X64672865Y-26238885D01*
X64669662Y-26227083D01*
X64666138Y-26215240D01*
X64662283Y-26203302D01*
X64658087Y-26191214D01*
X64648631Y-26166369D01*
X64635928Y-26137219D01*
X64621549Y-26108818D01*
X64605574Y-26081238D01*
X64588080Y-26054549D01*
X64569145Y-26028824D01*
X64548848Y-26004134D01*
X64527266Y-25980549D01*
X64504477Y-25958142D01*
X64480560Y-25936983D01*
X64455592Y-25917144D01*
X64429652Y-25898696D01*
X64402817Y-25881710D01*
X64375165Y-25866259D01*
X64346775Y-25852412D01*
X64317725Y-25840242D01*
X64288092Y-25829819D01*
X64263383Y-25822301D01*
X64252130Y-25819124D01*
X64241426Y-25816309D01*
X64231132Y-25813834D01*
X64221107Y-25811680D01*
X64211213Y-25809828D01*
X64201309Y-25808255D01*
X64191256Y-25806944D01*
X64180915Y-25805872D01*
X64170147Y-25805021D01*
X64158810Y-25804369D01*
X64133877Y-25803586D01*
X64105001Y-25803361D01*
X64075451Y-25803618D01*
X64049846Y-25804496D01*
X64038184Y-25805217D01*
X64027101Y-25806151D01*
X64016464Y-25807319D01*
X64006135Y-25808740D01*
X63995979Y-25810435D01*
X63985862Y-25812421D01*
X63975648Y-25814720D01*
X63965201Y-25817350D01*
X63943069Y-25823685D01*
X63918381Y-25831583D01*
X63884147Y-25844207D01*
X63850952Y-25858872D01*
X63818873Y-25875495D01*
X63787991Y-25893991D01*
X63758385Y-25914278D01*
X63730132Y-25936271D01*
X63703313Y-25959887D01*
X63678007Y-25985041D01*
X63654293Y-26011651D01*
X63632249Y-26039632D01*
X63611955Y-26068901D01*
X63593489Y-26099374D01*
X63576932Y-26130968D01*
X63562362Y-26163598D01*
X63549857Y-26197181D01*
X63539498Y-26231633D01*
X63534051Y-26253010D01*
X63529791Y-26271420D01*
X63528063Y-26279906D01*
X63526581Y-26288126D01*
X63525327Y-26296235D01*
X63524284Y-26304393D01*
X63523436Y-26312758D01*
X63522765Y-26321488D01*
X63522254Y-26330741D01*
X63521886Y-26340674D01*
X63521512Y-26363218D01*
X63521506Y-26390383D01*
X63521565Y-26412568D01*
X63521782Y-26430941D01*
X63522213Y-26446255D01*
X63522917Y-26459263D01*
X63523952Y-26470716D01*
X63525376Y-26481366D01*
X63527246Y-26491968D01*
X63529620Y-26503272D01*
X63536389Y-26531748D01*
X63544383Y-26559616D01*
X63553586Y-26586853D01*
X63563983Y-26613438D01*
X63575558Y-26639349D01*
X63588295Y-26664564D01*
X63602180Y-26689062D01*
X63617197Y-26712822D01*
X63633330Y-26735820D01*
X63650564Y-26758037D01*
X63668882Y-26779449D01*
X63688271Y-26800035D01*
X63708714Y-26819774D01*
X63730195Y-26838643D01*
X63752699Y-26856622D01*
X63776212Y-26873688D01*
X63780595Y-26876718D01*
X63784689Y-26879669D01*
X63788403Y-26882463D01*
X63791646Y-26885021D01*
X63794326Y-26887265D01*
X63796353Y-26889117D01*
X63797093Y-26889871D01*
X63797636Y-26890497D01*
X63797970Y-26890986D01*
X63798084Y-26891327D01*
X63798023Y-26891672D01*
X63797843Y-26892298D01*
X63797152Y-26894331D01*
X63796056Y-26897299D01*
X63794600Y-26901073D01*
X63792830Y-26905524D01*
X63790791Y-26910526D01*
X63788529Y-26915949D01*
X63786090Y-26921666D01*
X63779100Y-26937988D01*
X63769068Y-26962015D01*
X63745167Y-27020091D01*
X63720826Y-27079181D01*
X63702834Y-27122397D01*
X63684842Y-27165480D01*
X63660501Y-27224702D01*
X63636159Y-27283792D01*
X63618167Y-27327008D01*
X63600176Y-27370091D01*
X63575834Y-27429313D01*
X63564495Y-27456830D01*
X63554976Y-27479584D01*
X63548301Y-27495195D01*
X63545495Y-27501280D01*
X63545331Y-27501343D01*
X63545040Y-27501336D01*
X63544090Y-27501117D01*
X63542670Y-27500636D01*
X63540804Y-27499907D01*
X63535840Y-27497764D01*
X63529400Y-27494798D01*
X63521686Y-27491120D01*
X63512902Y-27486844D01*
X63492931Y-27476938D01*
X63442131Y-27450833D01*
X63395784Y-27450833D01*
X63392488Y-27450922D01*
X63389294Y-27451108D01*
X63386146Y-27451422D01*
X63382991Y-27451897D01*
X63379774Y-27452561D01*
X63376439Y-27453448D01*
X63372932Y-27454587D01*
X63369198Y-27456011D01*
X63365182Y-27457749D01*
X63360829Y-27459833D01*
X63356085Y-27462295D01*
X63350894Y-27465164D01*
X63345202Y-27468473D01*
X63338954Y-27472252D01*
X63324570Y-27481346D01*
X63307304Y-27492694D01*
X63286716Y-27506544D01*
X63262368Y-27523146D01*
X63233822Y-27542747D01*
X63162378Y-27591944D01*
X63124896Y-27617653D01*
X63104335Y-27631681D01*
X63085826Y-27644155D01*
X63045962Y-27671672D01*
X62932015Y-27558077D01*
X62818067Y-27444130D01*
X62847701Y-27401444D01*
X62966532Y-27227976D01*
X63001775Y-27175039D01*
X63024442Y-27138448D01*
X63031889Y-27124833D01*
X63037188Y-27113565D01*
X63040669Y-27104064D01*
X63042665Y-27095751D01*
X63043508Y-27088045D01*
X63043530Y-27080368D01*
X63042434Y-27062777D01*
X63042072Y-27057853D01*
X63041589Y-27053102D01*
X63040898Y-27048274D01*
X63039909Y-27043121D01*
X63038537Y-27037393D01*
X63036692Y-27030841D01*
X63034287Y-27023217D01*
X63031233Y-27014270D01*
X63027444Y-27003753D01*
X63022831Y-26991415D01*
X63017307Y-26977009D01*
X63010783Y-26960284D01*
X62994386Y-26918884D01*
X62972937Y-26865222D01*
X62922534Y-26741132D01*
X62905319Y-26699626D01*
X62896737Y-26680013D01*
X62894606Y-26676100D01*
X62892075Y-26672059D01*
X62889184Y-26667927D01*
X62885971Y-26663741D01*
X62882475Y-26659539D01*
X62878735Y-26655357D01*
X62874788Y-26651234D01*
X62870675Y-26647205D01*
X62866434Y-26643309D01*
X62862103Y-26639582D01*
X62857722Y-26636062D01*
X62853329Y-26632785D01*
X62848962Y-26629790D01*
X62844661Y-26627113D01*
X62840465Y-26624792D01*
X62836412Y-26622863D01*
X62833845Y-26621923D01*
X62829636Y-26620701D01*
X62816601Y-26617472D01*
X62797927Y-26613301D01*
X62774235Y-26608311D01*
X62714273Y-26596372D01*
X62641678Y-26582647D01*
X62454706Y-26547369D01*
X62446945Y-26545605D01*
X62447651Y-26384386D01*
X62448709Y-26223166D01*
X62633917Y-26188947D01*
X62707284Y-26175017D01*
X62770001Y-26162709D01*
X62815388Y-26153377D01*
X62836764Y-26148377D01*
X62840822Y-26146947D01*
X62845033Y-26145190D01*
X62849361Y-26143133D01*
X62853769Y-26140804D01*
X62858221Y-26138231D01*
X62862679Y-26135442D01*
X62867107Y-26132465D01*
X62871469Y-26129327D01*
X62875727Y-26126058D01*
X62879845Y-26122684D01*
X62883787Y-26119233D01*
X62887515Y-26115734D01*
X62890993Y-26112215D01*
X62894184Y-26108702D01*
X62897052Y-26105225D01*
X62899559Y-26101811D01*
X62909657Y-26081948D01*
X62928415Y-26040802D01*
X62979860Y-25922776D01*
X63029784Y-25803956D01*
X63046640Y-25761818D01*
X63054076Y-25740566D01*
X63054965Y-25735978D01*
X63055651Y-25731225D01*
X63056136Y-25726335D01*
X63056424Y-25721334D01*
X63056517Y-25716249D01*
X63056420Y-25711104D01*
X63056134Y-25705928D01*
X63055663Y-25700746D01*
X63055010Y-25695585D01*
X63054179Y-25690471D01*
X63053172Y-25685430D01*
X63051992Y-25680489D01*
X63050643Y-25675674D01*
X63049127Y-25671012D01*
X63047448Y-25666528D01*
X63045609Y-25662249D01*
X63044477Y-25660009D01*
X63042823Y-25657024D01*
X63038074Y-25649020D01*
X63031613Y-25638635D01*
X63023693Y-25626266D01*
X63014565Y-25612309D01*
X63004483Y-25597162D01*
X62993698Y-25581221D01*
X62982462Y-25564883D01*
X62848362Y-25369268D01*
X62826143Y-25335787D01*
X62822001Y-25328848D01*
X62820890Y-25326052D01*
X62821471Y-25325202D01*
X62823178Y-25323222D01*
X62829742Y-25316114D01*
X62840126Y-25305210D01*
X62853874Y-25290995D01*
X62870533Y-25273952D01*
X62889648Y-25254565D01*
X62910764Y-25233318D01*
X62933426Y-25210694D01*
X63045962Y-25098158D01*
X63102053Y-25136611D01*
X63222351Y-25219161D01*
X63331006Y-25293597D01*
X63347452Y-25304886D01*
X63361433Y-25314058D01*
X63367671Y-25317933D01*
X63373497Y-25321378D01*
X63378979Y-25324426D01*
X63384187Y-25327111D01*
X63389189Y-25329464D01*
X63394051Y-25331520D01*
X63398844Y-25333312D01*
X63403634Y-25334872D01*
X63408491Y-25336233D01*
X63413482Y-25337429D01*
X63418675Y-25338493D01*
X63424139Y-25339458D01*
X63430469Y-25340412D01*
X63436444Y-25341085D01*
X63439400Y-25341284D01*
X63442388Y-25341372D01*
X63445449Y-25341338D01*
X63448625Y-25341167D01*
X63451954Y-25340846D01*
X63455477Y-25340361D01*
X63459235Y-25339701D01*
X63463269Y-25338850D01*
X63467618Y-25337797D01*
X63472324Y-25336527D01*
X63477426Y-25335027D01*
X63482965Y-25333284D01*
X63488982Y-25331285D01*
X63495517Y-25329017D01*
X63510301Y-25323617D01*
X63527643Y-25316980D01*
X63547865Y-25308998D01*
X63571291Y-25299565D01*
X63598245Y-25288574D01*
X63664028Y-25261494D01*
X63741639Y-25229744D01*
X63763141Y-25220959D01*
X63780037Y-25213902D01*
X63793146Y-25208152D01*
X63803287Y-25203286D01*
X63807501Y-25201053D01*
X63811279Y-25198883D01*
X63814724Y-25196723D01*
X63817939Y-25194521D01*
X63824086Y-25189779D01*
X63830539Y-25184236D01*
X63835885Y-25179339D01*
X63840713Y-25174616D01*
X63842949Y-25172277D01*
X63845074Y-25169931D01*
X63847096Y-25167562D01*
X63849022Y-25165153D01*
X63850857Y-25162686D01*
X63852607Y-25160147D01*
X63854281Y-25157517D01*
X63855884Y-25154780D01*
X63857422Y-25151920D01*
X63858902Y-25148919D01*
X63860332Y-25145762D01*
X63861716Y-25142431D01*
X63863062Y-25138911D01*
X63864377Y-25135183D01*
X63865666Y-25131232D01*
X63866937Y-25127040D01*
X63869448Y-25117870D01*
X63871963Y-25107540D01*
X63874534Y-25095915D01*
X63877213Y-25082863D01*
X63880052Y-25068250D01*
X63883103Y-25051944D01*
X63907092Y-24922827D01*
X63932140Y-24787714D01*
X63943781Y-24725272D01*
X64265867Y-24725272D01*
X64275745Y-24777130D01*
G37*
X64275745Y-24777130D02*
X64299028Y-24903425D01*
X64327195Y-25052495D01*
X64336570Y-25098067D01*
X64344184Y-25129202D01*
X64347653Y-25140498D01*
X64351070Y-25149556D01*
X64354563Y-25156832D01*
X64358262Y-25162782D01*
X64362296Y-25167865D01*
X64366793Y-25172536D01*
X64377698Y-25182472D01*
X64381336Y-25185746D01*
X64384809Y-25188739D01*
X64388267Y-25191525D01*
X64391858Y-25194180D01*
X64393751Y-25195480D01*
X64395733Y-25196776D01*
X64397823Y-25198075D01*
X64400041Y-25199389D01*
X64404930Y-25202092D01*
X64410550Y-25204961D01*
X64417051Y-25208070D01*
X64424582Y-25211493D01*
X64433292Y-25215305D01*
X64443331Y-25219580D01*
X64454848Y-25224392D01*
X64467992Y-25229816D01*
X64499759Y-25242797D01*
X64578561Y-25274767D01*
X64683556Y-25317586D01*
X64692807Y-25321259D01*
X64702137Y-25324812D01*
X64711294Y-25328159D01*
X64720024Y-25331212D01*
X64728077Y-25333884D01*
X64735199Y-25336090D01*
X64741140Y-25337741D01*
X64745645Y-25338752D01*
X64749869Y-25339444D01*
X64754433Y-25339936D01*
X64759280Y-25340236D01*
X64764353Y-25340351D01*
X64769596Y-25340288D01*
X64774952Y-25340054D01*
X64780363Y-25339658D01*
X64785773Y-25339105D01*
X64791126Y-25338403D01*
X64796364Y-25337560D01*
X64801430Y-25336583D01*
X64806268Y-25335478D01*
X64810820Y-25334253D01*
X64815030Y-25332916D01*
X64818842Y-25331474D01*
X64822198Y-25329933D01*
X64829649Y-25325586D01*
X64842322Y-25317586D01*
X64859584Y-25306344D01*
X64880803Y-25292274D01*
X64932579Y-25257305D01*
X64992589Y-25215986D01*
X65048240Y-25177841D01*
X65105478Y-25138374D01*
X65164039Y-25098158D01*
X65277987Y-25212105D01*
X65391934Y-25326052D01*
X65373236Y-25352863D01*
X65331609Y-25413188D01*
X65306429Y-25449745D01*
X65278340Y-25490800D01*
X65263837Y-25512286D01*
X65246192Y-25538072D01*
X65210606Y-25589577D01*
X65202848Y-25600904D01*
X65195304Y-25612194D01*
X65188158Y-25623144D01*
X65181590Y-25633454D01*
X65175783Y-25642821D01*
X65170919Y-25650944D01*
X65167179Y-25657521D01*
X65164745Y-25662249D01*
X65162844Y-25666528D01*
X65161110Y-25671011D01*
X65159545Y-25675672D01*
X65158152Y-25680484D01*
X65156933Y-25685419D01*
X65155890Y-25690452D01*
X65155024Y-25695556D01*
X65154338Y-25700702D01*
X65153834Y-25705865D01*
X65153514Y-25711018D01*
X65153380Y-25716134D01*
X65153434Y-25721185D01*
X65153678Y-25726146D01*
X65154115Y-25730989D01*
X65154745Y-25735687D01*
X65155573Y-25740213D01*
X65163124Y-25761597D01*
X65180069Y-25803862D01*
X65230097Y-25922908D01*
X65281581Y-26041094D01*
X65300344Y-26082284D01*
X65310442Y-26102163D01*
X65312945Y-26105578D01*
X65315800Y-26109055D01*
X65318969Y-26112567D01*
X65322415Y-26116087D01*
X65326100Y-26119586D01*
X65329988Y-26123036D01*
X65334042Y-26126410D01*
X65338223Y-26129680D01*
X65342496Y-26132817D01*
X65346822Y-26135794D01*
X65351165Y-26138583D01*
X65355488Y-26141156D01*
X65359752Y-26143485D01*
X65363921Y-26145543D01*
X65367958Y-26147300D01*
X65371826Y-26148730D01*
X65377083Y-26150153D01*
X65386174Y-26152241D01*
X65413850Y-26158035D01*
X65450853Y-26165349D01*
X65493181Y-26173425D01*
X65591826Y-26191504D01*
X65680153Y-26207997D01*
X65761292Y-26223166D01*
X65762350Y-26384033D01*
X65762615Y-26473098D01*
X65762474Y-26501644D01*
X65762086Y-26521616D01*
X65761399Y-26534577D01*
X65760366Y-26542088D01*
X65759703Y-26544289D01*
X65758936Y-26545714D01*
X65758056Y-26546558D01*
X65757059Y-26547016D01*
X65743190Y-26549844D01*
X65710139Y-26556144D01*
X65606070Y-26575591D01*
X65425448Y-26609105D01*
X65417793Y-26610550D01*
X65410047Y-26612197D01*
X65402417Y-26613985D01*
X65395109Y-26615852D01*
X65388330Y-26617735D01*
X65382288Y-26619573D01*
X65377187Y-26621303D01*
X65373236Y-26622863D01*
X65369245Y-26624792D01*
X65365103Y-26627113D01*
X65360850Y-26629790D01*
X65356524Y-26632785D01*
X65352165Y-26636062D01*
X65347812Y-26639582D01*
X65343504Y-26643309D01*
X65339282Y-26647205D01*
X65335183Y-26651234D01*
X65331248Y-26655357D01*
X65327515Y-26659539D01*
X65324024Y-26663741D01*
X65320814Y-26667927D01*
X65317925Y-26672059D01*
X65315395Y-26676100D01*
X65313264Y-26680013D01*
X65310192Y-26686698D01*
X65304627Y-26699626D01*
X65287291Y-26741132D01*
X65263804Y-26798381D01*
X65236711Y-26865222D01*
X65168626Y-27034202D01*
X65168626Y-27073008D01*
X65168735Y-27088016D01*
X65168958Y-27094391D01*
X65169370Y-27100205D01*
X65170027Y-27105601D01*
X65170988Y-27110723D01*
X65171600Y-27113227D01*
X65172310Y-27115715D01*
X65173124Y-27118208D01*
X65174050Y-27120721D01*
X65176265Y-27125884D01*
X65179013Y-27131347D01*
X65182351Y-27137255D01*
X65186336Y-27143751D01*
X65191027Y-27150978D01*
X65196479Y-27159081D01*
X65209901Y-27178488D01*
X65236006Y-27216632D01*
X65250779Y-27238267D01*
X65264228Y-27258216D01*
X65292318Y-27299271D01*
X65317498Y-27335827D01*
X65366534Y-27406736D01*
X65392287Y-27444130D01*
X65278340Y-27557724D01*
X65164392Y-27671672D01*
X65021870Y-27573600D01*
X64964703Y-27534568D01*
X64914317Y-27500795D01*
X64876167Y-27475819D01*
X64863386Y-27467736D01*
X64855711Y-27463180D01*
X64848252Y-27459524D01*
X64844985Y-27458010D01*
X64841942Y-27456687D01*
X64839061Y-27455541D01*
X64836277Y-27454560D01*
X64833529Y-27453730D01*
X64830753Y-27453038D01*
X64827885Y-27452469D01*
X64824864Y-27452011D01*
X64821626Y-27451650D01*
X64818108Y-27451373D01*
X64814246Y-27451166D01*
X64809979Y-27451016D01*
X64799973Y-27450833D01*
X64767870Y-27450833D01*
X64717070Y-27476938D01*
X64697105Y-27486992D01*
X64680646Y-27494930D01*
X64674247Y-27497857D01*
X64669346Y-27499957D01*
X64666147Y-27501131D01*
X64665251Y-27501340D01*
X64664859Y-27501280D01*
X64663940Y-27499433D01*
X64661805Y-27494638D01*
X64654452Y-27477512D01*
X64643924Y-27452514D01*
X64631345Y-27422258D01*
X64434407Y-26943627D01*
X64420829Y-26908491D01*
X64415544Y-26892132D01*
X64415568Y-26887035D01*
X64417915Y-26885683D01*
X64419521Y-26884421D01*
X64421635Y-26882800D01*
X64427043Y-26878759D01*
X64430162Y-26876481D01*
X64433442Y-26874124D01*
X64436797Y-26871758D01*
X64440139Y-26869455D01*
X64461494Y-26853834D01*
X64482139Y-26837170D01*
X64502036Y-26819523D01*
X64521146Y-26800950D01*
X64539429Y-26781509D01*
X64556845Y-26761257D01*
X64573357Y-26740253D01*
X64588923Y-26718554D01*
X64603506Y-26696219D01*
X64617066Y-26673305D01*
X64629563Y-26649870D01*
X64640958Y-26625972D01*
X64651212Y-26601669D01*
X64660287Y-26577019D01*
X64668141Y-26552079D01*
X64674737Y-26526908D01*
X64679410Y-26505976D01*
X64683154Y-26486454D01*
X64686029Y-26467767D01*
X64687160Y-26458557D01*
X64688098Y-26449341D01*
X64689423Y-26430600D01*
X64690066Y-26410971D01*
X64690089Y-26389878D01*
X64689553Y-26366747D01*
X64688200Y-26338429D01*
X64687188Y-26324977D01*
X64685937Y-26311923D01*
X64684439Y-26299212D01*
X64682682Y-26286789D01*
X64680657Y-26274600D01*
X64678353Y-26262589D01*
X64675759Y-26250703D01*
X64672865Y-26238885D01*
X64669662Y-26227083D01*
X64666138Y-26215240D01*
X64662283Y-26203302D01*
X64658087Y-26191214D01*
X64648631Y-26166369D01*
X64635928Y-26137219D01*
X64621549Y-26108818D01*
X64605574Y-26081238D01*
X64588080Y-26054549D01*
X64569145Y-26028824D01*
X64548848Y-26004134D01*
X64527266Y-25980549D01*
X64504477Y-25958142D01*
X64480560Y-25936983D01*
X64455592Y-25917144D01*
X64429652Y-25898696D01*
X64402817Y-25881710D01*
X64375165Y-25866259D01*
X64346775Y-25852412D01*
X64317725Y-25840242D01*
X64288092Y-25829819D01*
X64263383Y-25822301D01*
X64252130Y-25819124D01*
X64241426Y-25816309D01*
X64231132Y-25813834D01*
X64221107Y-25811680D01*
X64211213Y-25809828D01*
X64201309Y-25808255D01*
X64191256Y-25806944D01*
X64180915Y-25805872D01*
X64170147Y-25805021D01*
X64158810Y-25804369D01*
X64133877Y-25803586D01*
X64105001Y-25803361D01*
X64075451Y-25803618D01*
X64049846Y-25804496D01*
X64038184Y-25805217D01*
X64027101Y-25806151D01*
X64016464Y-25807319D01*
X64006135Y-25808740D01*
X63995979Y-25810435D01*
X63985862Y-25812421D01*
X63975648Y-25814720D01*
X63965201Y-25817350D01*
X63943069Y-25823685D01*
X63918381Y-25831583D01*
X63884147Y-25844207D01*
X63850952Y-25858872D01*
X63818873Y-25875495D01*
X63787991Y-25893991D01*
X63758385Y-25914278D01*
X63730132Y-25936271D01*
X63703313Y-25959887D01*
X63678007Y-25985041D01*
X63654293Y-26011651D01*
X63632249Y-26039632D01*
X63611955Y-26068901D01*
X63593489Y-26099374D01*
X63576932Y-26130968D01*
X63562362Y-26163598D01*
X63549857Y-26197181D01*
X63539498Y-26231633D01*
X63534051Y-26253010D01*
X63529791Y-26271420D01*
X63528063Y-26279906D01*
X63526581Y-26288126D01*
X63525327Y-26296235D01*
X63524284Y-26304393D01*
X63523436Y-26312758D01*
X63522765Y-26321488D01*
X63522254Y-26330741D01*
X63521886Y-26340674D01*
X63521512Y-26363218D01*
X63521506Y-26390383D01*
X63521565Y-26412568D01*
X63521782Y-26430941D01*
X63522213Y-26446255D01*
X63522917Y-26459263D01*
X63523952Y-26470716D01*
X63525376Y-26481366D01*
X63527246Y-26491968D01*
X63529620Y-26503272D01*
X63536389Y-26531748D01*
X63544383Y-26559616D01*
X63553586Y-26586853D01*
X63563983Y-26613438D01*
X63575558Y-26639349D01*
X63588295Y-26664564D01*
X63602180Y-26689062D01*
X63617197Y-26712822D01*
X63633330Y-26735820D01*
X63650564Y-26758037D01*
X63668882Y-26779449D01*
X63688271Y-26800035D01*
X63708714Y-26819774D01*
X63730195Y-26838643D01*
X63752699Y-26856622D01*
X63776212Y-26873688D01*
X63780595Y-26876718D01*
X63784689Y-26879669D01*
X63788403Y-26882463D01*
X63791646Y-26885021D01*
X63794326Y-26887265D01*
X63796353Y-26889117D01*
X63797093Y-26889871D01*
X63797636Y-26890497D01*
X63797970Y-26890986D01*
X63798084Y-26891327D01*
X63798023Y-26891672D01*
X63797843Y-26892298D01*
X63797152Y-26894331D01*
X63796056Y-26897299D01*
X63794600Y-26901073D01*
X63792830Y-26905524D01*
X63790791Y-26910526D01*
X63788529Y-26915949D01*
X63786090Y-26921666D01*
X63779100Y-26937988D01*
X63769068Y-26962015D01*
X63745167Y-27020091D01*
X63720826Y-27079181D01*
X63702834Y-27122397D01*
X63684842Y-27165480D01*
X63660501Y-27224702D01*
X63636159Y-27283792D01*
X63618167Y-27327008D01*
X63600176Y-27370091D01*
X63575834Y-27429313D01*
X63564495Y-27456830D01*
X63554976Y-27479584D01*
X63548301Y-27495195D01*
X63545495Y-27501280D01*
X63545331Y-27501343D01*
X63545040Y-27501336D01*
X63544090Y-27501117D01*
X63542670Y-27500636D01*
X63540804Y-27499907D01*
X63535840Y-27497764D01*
X63529400Y-27494798D01*
X63521686Y-27491120D01*
X63512902Y-27486844D01*
X63492931Y-27476938D01*
X63442131Y-27450833D01*
X63395784Y-27450833D01*
X63392488Y-27450922D01*
X63389294Y-27451108D01*
X63386146Y-27451422D01*
X63382991Y-27451897D01*
X63379774Y-27452561D01*
X63376439Y-27453448D01*
X63372932Y-27454587D01*
X63369198Y-27456011D01*
X63365182Y-27457749D01*
X63360829Y-27459833D01*
X63356085Y-27462295D01*
X63350894Y-27465164D01*
X63345202Y-27468473D01*
X63338954Y-27472252D01*
X63324570Y-27481346D01*
X63307304Y-27492694D01*
X63286716Y-27506544D01*
X63262368Y-27523146D01*
X63233822Y-27542747D01*
X63162378Y-27591944D01*
X63124896Y-27617653D01*
X63104335Y-27631681D01*
X63085826Y-27644155D01*
X63045962Y-27671672D01*
X62932015Y-27558077D01*
X62818067Y-27444130D01*
X62847701Y-27401444D01*
X62966532Y-27227976D01*
X63001775Y-27175039D01*
X63024442Y-27138448D01*
X63031889Y-27124833D01*
X63037188Y-27113565D01*
X63040669Y-27104064D01*
X63042665Y-27095751D01*
X63043508Y-27088045D01*
X63043530Y-27080368D01*
X63042434Y-27062777D01*
X63042072Y-27057853D01*
X63041589Y-27053102D01*
X63040898Y-27048274D01*
X63039909Y-27043121D01*
X63038537Y-27037393D01*
X63036692Y-27030841D01*
X63034287Y-27023217D01*
X63031233Y-27014270D01*
X63027444Y-27003753D01*
X63022831Y-26991415D01*
X63017307Y-26977009D01*
X63010783Y-26960284D01*
X62994386Y-26918884D01*
X62972937Y-26865222D01*
X62922534Y-26741132D01*
X62905319Y-26699626D01*
X62896737Y-26680013D01*
X62894606Y-26676100D01*
X62892075Y-26672059D01*
X62889184Y-26667927D01*
X62885971Y-26663741D01*
X62882475Y-26659539D01*
X62878735Y-26655357D01*
X62874788Y-26651234D01*
X62870675Y-26647205D01*
X62866434Y-26643309D01*
X62862103Y-26639582D01*
X62857722Y-26636062D01*
X62853329Y-26632785D01*
X62848962Y-26629790D01*
X62844661Y-26627113D01*
X62840465Y-26624792D01*
X62836412Y-26622863D01*
X62833845Y-26621923D01*
X62829636Y-26620701D01*
X62816601Y-26617472D01*
X62797927Y-26613301D01*
X62774235Y-26608311D01*
X62714273Y-26596372D01*
X62641678Y-26582647D01*
X62454706Y-26547369D01*
X62446945Y-26545605D01*
X62447651Y-26384386D01*
X62448709Y-26223166D01*
X62633917Y-26188947D01*
X62707284Y-26175017D01*
X62770001Y-26162709D01*
X62815388Y-26153377D01*
X62836764Y-26148377D01*
X62840822Y-26146947D01*
X62845033Y-26145190D01*
X62849361Y-26143133D01*
X62853769Y-26140804D01*
X62858221Y-26138231D01*
X62862679Y-26135442D01*
X62867107Y-26132465D01*
X62871469Y-26129327D01*
X62875727Y-26126058D01*
X62879845Y-26122684D01*
X62883787Y-26119233D01*
X62887515Y-26115734D01*
X62890993Y-26112215D01*
X62894184Y-26108702D01*
X62897052Y-26105225D01*
X62899559Y-26101811D01*
X62909657Y-26081948D01*
X62928415Y-26040802D01*
X62979860Y-25922776D01*
X63029784Y-25803956D01*
X63046640Y-25761818D01*
X63054076Y-25740566D01*
X63054965Y-25735978D01*
X63055651Y-25731225D01*
X63056136Y-25726335D01*
X63056424Y-25721334D01*
X63056517Y-25716249D01*
X63056420Y-25711104D01*
X63056134Y-25705928D01*
X63055663Y-25700746D01*
X63055010Y-25695585D01*
X63054179Y-25690471D01*
X63053172Y-25685430D01*
X63051992Y-25680489D01*
X63050643Y-25675674D01*
X63049127Y-25671012D01*
X63047448Y-25666528D01*
X63045609Y-25662249D01*
X63044477Y-25660009D01*
X63042823Y-25657024D01*
X63038074Y-25649020D01*
X63031613Y-25638635D01*
X63023693Y-25626266D01*
X63014565Y-25612309D01*
X63004483Y-25597162D01*
X62993698Y-25581221D01*
X62982462Y-25564883D01*
X62848362Y-25369268D01*
X62826143Y-25335787D01*
X62822001Y-25328848D01*
X62820890Y-25326052D01*
X62821471Y-25325202D01*
X62823178Y-25323222D01*
X62829742Y-25316114D01*
X62840126Y-25305210D01*
X62853874Y-25290995D01*
X62870533Y-25273952D01*
X62889648Y-25254565D01*
X62910764Y-25233318D01*
X62933426Y-25210694D01*
X63045962Y-25098158D01*
X63102053Y-25136611D01*
X63222351Y-25219161D01*
X63331006Y-25293597D01*
X63347452Y-25304886D01*
X63361433Y-25314058D01*
X63367671Y-25317933D01*
X63373497Y-25321378D01*
X63378979Y-25324426D01*
X63384187Y-25327111D01*
X63389189Y-25329464D01*
X63394051Y-25331520D01*
X63398844Y-25333312D01*
X63403634Y-25334872D01*
X63408491Y-25336233D01*
X63413482Y-25337429D01*
X63418675Y-25338493D01*
X63424139Y-25339458D01*
X63430469Y-25340412D01*
X63436444Y-25341085D01*
X63439400Y-25341284D01*
X63442388Y-25341372D01*
X63445449Y-25341338D01*
X63448625Y-25341167D01*
X63451954Y-25340846D01*
X63455477Y-25340361D01*
X63459235Y-25339701D01*
X63463269Y-25338850D01*
X63467618Y-25337797D01*
X63472324Y-25336527D01*
X63477426Y-25335027D01*
X63482965Y-25333284D01*
X63488982Y-25331285D01*
X63495517Y-25329017D01*
X63510301Y-25323617D01*
X63527643Y-25316980D01*
X63547865Y-25308998D01*
X63571291Y-25299565D01*
X63598245Y-25288574D01*
X63664028Y-25261494D01*
X63741639Y-25229744D01*
X63763141Y-25220959D01*
X63780037Y-25213902D01*
X63793146Y-25208152D01*
X63803287Y-25203286D01*
X63807501Y-25201053D01*
X63811279Y-25198883D01*
X63814724Y-25196723D01*
X63817939Y-25194521D01*
X63824086Y-25189779D01*
X63830539Y-25184236D01*
X63835885Y-25179339D01*
X63840713Y-25174616D01*
X63842949Y-25172277D01*
X63845074Y-25169931D01*
X63847096Y-25167562D01*
X63849022Y-25165153D01*
X63850857Y-25162686D01*
X63852607Y-25160147D01*
X63854281Y-25157517D01*
X63855884Y-25154780D01*
X63857422Y-25151920D01*
X63858902Y-25148919D01*
X63860332Y-25145762D01*
X63861716Y-25142431D01*
X63863062Y-25138911D01*
X63864377Y-25135183D01*
X63865666Y-25131232D01*
X63866937Y-25127040D01*
X63869448Y-25117870D01*
X63871963Y-25107540D01*
X63874534Y-25095915D01*
X63877213Y-25082863D01*
X63880052Y-25068250D01*
X63883103Y-25051944D01*
X63907092Y-24922827D01*
X63932140Y-24787714D01*
X63943781Y-24725272D01*
X64265867Y-24725272D01*
X64275745Y-24777130D01*
D11*
X112250000Y-72757142D02*
X112297619Y-72804761D01*
X112250000Y-72852380D01*
X112202380Y-72804761D01*
X112250000Y-72757142D01*
X112250000Y-72852380D01*
D12*
X125163571Y-90511428D02*
X125199285Y-90404285D01*
X125199285Y-90225714D01*
X125163571Y-90154285D01*
X125127857Y-90118571D01*
X125056428Y-90082857D01*
X124985000Y-90082857D01*
X124913571Y-90118571D01*
X124877857Y-90154285D01*
X124842142Y-90225714D01*
X124806428Y-90368571D01*
X124770714Y-90440000D01*
X124735000Y-90475714D01*
X124663571Y-90511428D01*
X124592142Y-90511428D01*
X124520714Y-90475714D01*
X124485000Y-90440000D01*
X124449285Y-90368571D01*
X124449285Y-90190000D01*
X124485000Y-90082857D01*
X125199285Y-89761428D02*
X124449285Y-89761428D01*
X124449285Y-89582857D01*
X124485000Y-89475714D01*
X124556428Y-89404285D01*
X124627857Y-89368571D01*
X124770714Y-89332857D01*
X124877857Y-89332857D01*
X125020714Y-89368571D01*
X125092142Y-89404285D01*
X125163571Y-89475714D01*
X125199285Y-89582857D01*
X125199285Y-89761428D01*
X124985000Y-89047142D02*
X124985000Y-88690000D01*
X125199285Y-89118571D02*
X124449285Y-88868571D01*
X125199285Y-88618571D01*
X125449285Y-88190000D02*
X124377857Y-88190000D01*
X125163571Y-87690000D02*
X125199285Y-87582857D01*
X125199285Y-87404285D01*
X125163571Y-87332857D01*
X125127857Y-87297142D01*
X125056428Y-87261428D01*
X124985000Y-87261428D01*
X124913571Y-87297142D01*
X124877857Y-87332857D01*
X124842142Y-87404285D01*
X124806428Y-87547142D01*
X124770714Y-87618571D01*
X124735000Y-87654285D01*
X124663571Y-87690000D01*
X124592142Y-87690000D01*
X124520714Y-87654285D01*
X124485000Y-87618571D01*
X124449285Y-87547142D01*
X124449285Y-87368571D01*
X124485000Y-87261428D01*
X125127857Y-86511428D02*
X125163571Y-86547142D01*
X125199285Y-86654285D01*
X125199285Y-86725714D01*
X125163571Y-86832857D01*
X125092142Y-86904285D01*
X125020714Y-86940000D01*
X124877857Y-86975714D01*
X124770714Y-86975714D01*
X124627857Y-86940000D01*
X124556428Y-86904285D01*
X124485000Y-86832857D01*
X124449285Y-86725714D01*
X124449285Y-86654285D01*
X124485000Y-86547142D01*
X124520714Y-86511428D01*
X125199285Y-85832857D02*
X125199285Y-86190000D01*
X124449285Y-86190000D01*
X125449285Y-85404285D02*
X124377857Y-85404285D01*
X124485000Y-84475714D02*
X124449285Y-84547142D01*
X124449285Y-84654285D01*
X124485000Y-84761428D01*
X124556428Y-84832857D01*
X124627857Y-84868571D01*
X124770714Y-84904285D01*
X124877857Y-84904285D01*
X125020714Y-84868571D01*
X125092142Y-84832857D01*
X125163571Y-84761428D01*
X125199285Y-84654285D01*
X125199285Y-84582857D01*
X125163571Y-84475714D01*
X125127857Y-84440000D01*
X124877857Y-84440000D01*
X124877857Y-84582857D01*
X125199285Y-84118571D02*
X124449285Y-84118571D01*
X125199285Y-83690000D01*
X124449285Y-83690000D01*
X125199285Y-83332857D02*
X124449285Y-83332857D01*
X124449285Y-83154285D01*
X124485000Y-83047142D01*
X124556428Y-82975714D01*
X124627857Y-82940000D01*
X124770714Y-82904285D01*
X124877857Y-82904285D01*
X125020714Y-82940000D01*
X125092142Y-82975714D01*
X125163571Y-83047142D01*
X125199285Y-83154285D01*
X125199285Y-83332857D01*
X125449285Y-82404285D02*
X124377857Y-82404285D01*
X124449285Y-81940000D02*
X124449285Y-81475714D01*
X124735000Y-81725714D01*
X124735000Y-81618571D01*
X124770714Y-81547142D01*
X124806428Y-81511428D01*
X124877857Y-81475714D01*
X125056428Y-81475714D01*
X125127857Y-81511428D01*
X125163571Y-81547142D01*
X125199285Y-81618571D01*
X125199285Y-81832857D01*
X125163571Y-81904285D01*
X125127857Y-81940000D01*
X124449285Y-81261428D02*
X125199285Y-81011428D01*
X124449285Y-80761428D01*
X124449285Y-80582857D02*
X124449285Y-80118571D01*
X124735000Y-80368571D01*
X124735000Y-80261428D01*
X124770714Y-80190000D01*
X124806428Y-80154285D01*
X124877857Y-80118571D01*
X125056428Y-80118571D01*
X125127857Y-80154285D01*
X125163571Y-80190000D01*
X125199285Y-80261428D01*
X125199285Y-80475714D01*
X125163571Y-80547142D01*
X125127857Y-80582857D01*
X115963571Y-89854285D02*
X115999285Y-89747142D01*
X115999285Y-89568571D01*
X115963571Y-89497142D01*
X115927857Y-89461428D01*
X115856428Y-89425714D01*
X115785000Y-89425714D01*
X115713571Y-89461428D01*
X115677857Y-89497142D01*
X115642142Y-89568571D01*
X115606428Y-89711428D01*
X115570714Y-89782857D01*
X115535000Y-89818571D01*
X115463571Y-89854285D01*
X115392142Y-89854285D01*
X115320714Y-89818571D01*
X115285000Y-89782857D01*
X115249285Y-89711428D01*
X115249285Y-89532857D01*
X115285000Y-89425714D01*
X115999285Y-89104285D02*
X115249285Y-89104285D01*
X115249285Y-88925714D01*
X115285000Y-88818571D01*
X115356428Y-88747142D01*
X115427857Y-88711428D01*
X115570714Y-88675714D01*
X115677857Y-88675714D01*
X115820714Y-88711428D01*
X115892142Y-88747142D01*
X115963571Y-88818571D01*
X115999285Y-88925714D01*
X115999285Y-89104285D01*
X115785000Y-88390000D02*
X115785000Y-88032857D01*
X115999285Y-88461428D02*
X115249285Y-88211428D01*
X115999285Y-87961428D01*
X116249285Y-87532857D02*
X115177857Y-87532857D01*
X115963571Y-87032857D02*
X115999285Y-86925714D01*
X115999285Y-86747142D01*
X115963571Y-86675714D01*
X115927857Y-86640000D01*
X115856428Y-86604285D01*
X115785000Y-86604285D01*
X115713571Y-86640000D01*
X115677857Y-86675714D01*
X115642142Y-86747142D01*
X115606428Y-86890000D01*
X115570714Y-86961428D01*
X115535000Y-86997142D01*
X115463571Y-87032857D01*
X115392142Y-87032857D01*
X115320714Y-86997142D01*
X115285000Y-86961428D01*
X115249285Y-86890000D01*
X115249285Y-86711428D01*
X115285000Y-86604285D01*
X115927857Y-85854285D02*
X115963571Y-85890000D01*
X115999285Y-85997142D01*
X115999285Y-86068571D01*
X115963571Y-86175714D01*
X115892142Y-86247142D01*
X115820714Y-86282857D01*
X115677857Y-86318571D01*
X115570714Y-86318571D01*
X115427857Y-86282857D01*
X115356428Y-86247142D01*
X115285000Y-86175714D01*
X115249285Y-86068571D01*
X115249285Y-85997142D01*
X115285000Y-85890000D01*
X115320714Y-85854285D01*
X115999285Y-85175714D02*
X115999285Y-85532857D01*
X115249285Y-85532857D01*
X116249285Y-84747142D02*
X115177857Y-84747142D01*
X115285000Y-83818571D02*
X115249285Y-83890000D01*
X115249285Y-83997142D01*
X115285000Y-84104285D01*
X115356428Y-84175714D01*
X115427857Y-84211428D01*
X115570714Y-84247142D01*
X115677857Y-84247142D01*
X115820714Y-84211428D01*
X115892142Y-84175714D01*
X115963571Y-84104285D01*
X115999285Y-83997142D01*
X115999285Y-83925714D01*
X115963571Y-83818571D01*
X115927857Y-83782857D01*
X115677857Y-83782857D01*
X115677857Y-83925714D01*
X115999285Y-83461428D02*
X115249285Y-83461428D01*
X115999285Y-83032857D01*
X115249285Y-83032857D01*
X115999285Y-82675714D02*
X115249285Y-82675714D01*
X115249285Y-82497142D01*
X115285000Y-82390000D01*
X115356428Y-82318571D01*
X115427857Y-82282857D01*
X115570714Y-82247142D01*
X115677857Y-82247142D01*
X115820714Y-82282857D01*
X115892142Y-82318571D01*
X115963571Y-82390000D01*
X115999285Y-82497142D01*
X115999285Y-82675714D01*
X116249285Y-81747142D02*
X115177857Y-81747142D01*
X115249285Y-80854285D02*
X115249285Y-81211428D01*
X115606428Y-81247142D01*
X115570714Y-81211428D01*
X115535000Y-81140000D01*
X115535000Y-80961428D01*
X115570714Y-80890000D01*
X115606428Y-80854285D01*
X115677857Y-80818571D01*
X115856428Y-80818571D01*
X115927857Y-80854285D01*
X115963571Y-80890000D01*
X115999285Y-80961428D01*
X115999285Y-81140000D01*
X115963571Y-81211428D01*
X115927857Y-81247142D01*
X115249285Y-80604285D02*
X115999285Y-80354285D01*
X115249285Y-80104285D01*
D13*
X61333809Y-48393571D02*
X61310000Y-48417380D01*
X61238571Y-48441190D01*
X61190952Y-48441190D01*
X61119523Y-48417380D01*
X61071904Y-48369761D01*
X61048095Y-48322142D01*
X61024285Y-48226904D01*
X61024285Y-48155476D01*
X61048095Y-48060238D01*
X61071904Y-48012619D01*
X61119523Y-47965000D01*
X61190952Y-47941190D01*
X61238571Y-47941190D01*
X61310000Y-47965000D01*
X61333809Y-47988809D01*
X61548095Y-48441190D02*
X61548095Y-47941190D01*
X61548095Y-48179285D02*
X61833809Y-48179285D01*
X61833809Y-48441190D02*
X61833809Y-47941190D01*
X62333809Y-47965000D02*
X62286190Y-47941190D01*
X62214761Y-47941190D01*
X62143333Y-47965000D01*
X62095714Y-48012619D01*
X62071904Y-48060238D01*
X62048095Y-48155476D01*
X62048095Y-48226904D01*
X62071904Y-48322142D01*
X62095714Y-48369761D01*
X62143333Y-48417380D01*
X62214761Y-48441190D01*
X62262380Y-48441190D01*
X62333809Y-48417380D01*
X62357619Y-48393571D01*
X62357619Y-48226904D01*
X62262380Y-48226904D01*
X62452857Y-48488809D02*
X62833809Y-48488809D01*
X63190952Y-48441190D02*
X62952857Y-48441190D01*
X62952857Y-47941190D01*
X63357619Y-48179285D02*
X63524285Y-48179285D01*
X63595714Y-48441190D02*
X63357619Y-48441190D01*
X63357619Y-47941190D01*
X63595714Y-47941190D01*
X63810000Y-48441190D02*
X63810000Y-47941190D01*
X63929047Y-47941190D01*
X64000476Y-47965000D01*
X64048095Y-48012619D01*
X64071904Y-48060238D01*
X64095714Y-48155476D01*
X64095714Y-48226904D01*
X64071904Y-48322142D01*
X64048095Y-48369761D01*
X64000476Y-48417380D01*
X63929047Y-48441190D01*
X63810000Y-48441190D01*
D12*
X107103571Y-90439285D02*
X107139285Y-90332142D01*
X107139285Y-90153571D01*
X107103571Y-90082142D01*
X107067857Y-90046428D01*
X106996428Y-90010714D01*
X106925000Y-90010714D01*
X106853571Y-90046428D01*
X106817857Y-90082142D01*
X106782142Y-90153571D01*
X106746428Y-90296428D01*
X106710714Y-90367857D01*
X106675000Y-90403571D01*
X106603571Y-90439285D01*
X106532142Y-90439285D01*
X106460714Y-90403571D01*
X106425000Y-90367857D01*
X106389285Y-90296428D01*
X106389285Y-90117857D01*
X106425000Y-90010714D01*
X107139285Y-89689285D02*
X106389285Y-89689285D01*
X106389285Y-89510714D01*
X106425000Y-89403571D01*
X106496428Y-89332142D01*
X106567857Y-89296428D01*
X106710714Y-89260714D01*
X106817857Y-89260714D01*
X106960714Y-89296428D01*
X107032142Y-89332142D01*
X107103571Y-89403571D01*
X107139285Y-89510714D01*
X107139285Y-89689285D01*
X106925000Y-88975000D02*
X106925000Y-88617857D01*
X107139285Y-89046428D02*
X106389285Y-88796428D01*
X107139285Y-88546428D01*
X107389285Y-88117857D02*
X106317857Y-88117857D01*
X107103571Y-87617857D02*
X107139285Y-87510714D01*
X107139285Y-87332142D01*
X107103571Y-87260714D01*
X107067857Y-87225000D01*
X106996428Y-87189285D01*
X106925000Y-87189285D01*
X106853571Y-87225000D01*
X106817857Y-87260714D01*
X106782142Y-87332142D01*
X106746428Y-87475000D01*
X106710714Y-87546428D01*
X106675000Y-87582142D01*
X106603571Y-87617857D01*
X106532142Y-87617857D01*
X106460714Y-87582142D01*
X106425000Y-87546428D01*
X106389285Y-87475000D01*
X106389285Y-87296428D01*
X106425000Y-87189285D01*
X107067857Y-86439285D02*
X107103571Y-86475000D01*
X107139285Y-86582142D01*
X107139285Y-86653571D01*
X107103571Y-86760714D01*
X107032142Y-86832142D01*
X106960714Y-86867857D01*
X106817857Y-86903571D01*
X106710714Y-86903571D01*
X106567857Y-86867857D01*
X106496428Y-86832142D01*
X106425000Y-86760714D01*
X106389285Y-86653571D01*
X106389285Y-86582142D01*
X106425000Y-86475000D01*
X106460714Y-86439285D01*
X107139285Y-85760714D02*
X107139285Y-86117857D01*
X106389285Y-86117857D01*
X107389285Y-85332142D02*
X106317857Y-85332142D01*
X106425000Y-84403571D02*
X106389285Y-84475000D01*
X106389285Y-84582142D01*
X106425000Y-84689285D01*
X106496428Y-84760714D01*
X106567857Y-84796428D01*
X106710714Y-84832142D01*
X106817857Y-84832142D01*
X106960714Y-84796428D01*
X107032142Y-84760714D01*
X107103571Y-84689285D01*
X107139285Y-84582142D01*
X107139285Y-84510714D01*
X107103571Y-84403571D01*
X107067857Y-84367857D01*
X106817857Y-84367857D01*
X106817857Y-84510714D01*
X107139285Y-84046428D02*
X106389285Y-84046428D01*
X107139285Y-83617857D01*
X106389285Y-83617857D01*
X107139285Y-83260714D02*
X106389285Y-83260714D01*
X106389285Y-83082142D01*
X106425000Y-82975000D01*
X106496428Y-82903571D01*
X106567857Y-82867857D01*
X106710714Y-82832142D01*
X106817857Y-82832142D01*
X106960714Y-82867857D01*
X107032142Y-82903571D01*
X107103571Y-82975000D01*
X107139285Y-83082142D01*
X107139285Y-83260714D01*
X107389285Y-82332142D02*
X106317857Y-82332142D01*
X106389285Y-81439285D02*
X106389285Y-81796428D01*
X106746428Y-81832142D01*
X106710714Y-81796428D01*
X106675000Y-81725000D01*
X106675000Y-81546428D01*
X106710714Y-81475000D01*
X106746428Y-81439285D01*
X106817857Y-81403571D01*
X106996428Y-81403571D01*
X107067857Y-81439285D01*
X107103571Y-81475000D01*
X107139285Y-81546428D01*
X107139285Y-81725000D01*
X107103571Y-81796428D01*
X107067857Y-81832142D01*
X106389285Y-81189285D02*
X107139285Y-80939285D01*
X106389285Y-80689285D01*
D14*
X77388571Y-31972142D02*
X78531428Y-31972142D01*
X58567142Y-41381428D02*
X58567142Y-40238571D01*
X58517142Y-33336428D02*
X58517142Y-32193571D01*
X59088571Y-32765000D02*
X57945714Y-32765000D01*
D15*
X103012380Y-25172142D02*
X102964761Y-25219761D01*
X102821904Y-25267380D01*
X102726666Y-25267380D01*
X102583809Y-25219761D01*
X102488571Y-25124523D01*
X102440952Y-25029285D01*
X102393333Y-24838809D01*
X102393333Y-24695952D01*
X102440952Y-24505476D01*
X102488571Y-24410238D01*
X102583809Y-24315000D01*
X102726666Y-24267380D01*
X102821904Y-24267380D01*
X102964761Y-24315000D01*
X103012380Y-24362619D01*
X103583809Y-25267380D02*
X103488571Y-25219761D01*
X103440952Y-25172142D01*
X103393333Y-25076904D01*
X103393333Y-24791190D01*
X103440952Y-24695952D01*
X103488571Y-24648333D01*
X103583809Y-24600714D01*
X103726666Y-24600714D01*
X103821904Y-24648333D01*
X103869523Y-24695952D01*
X103917142Y-24791190D01*
X103917142Y-25076904D01*
X103869523Y-25172142D01*
X103821904Y-25219761D01*
X103726666Y-25267380D01*
X103583809Y-25267380D01*
X104345714Y-24600714D02*
X104345714Y-25600714D01*
X104345714Y-24648333D02*
X104440952Y-24600714D01*
X104631428Y-24600714D01*
X104726666Y-24648333D01*
X104774285Y-24695952D01*
X104821904Y-24791190D01*
X104821904Y-25076904D01*
X104774285Y-25172142D01*
X104726666Y-25219761D01*
X104631428Y-25267380D01*
X104440952Y-25267380D01*
X104345714Y-25219761D01*
X105155238Y-24600714D02*
X105393333Y-25267380D01*
X105631428Y-24600714D02*
X105393333Y-25267380D01*
X105298095Y-25505476D01*
X105250476Y-25553095D01*
X105155238Y-25600714D01*
X106155238Y-25267380D02*
X106059999Y-25219761D01*
X106012380Y-25124523D01*
X106012380Y-24267380D01*
X106917142Y-25219761D02*
X106821904Y-25267380D01*
X106631428Y-25267380D01*
X106536190Y-25219761D01*
X106488571Y-25124523D01*
X106488571Y-24743571D01*
X106536190Y-24648333D01*
X106631428Y-24600714D01*
X106821904Y-24600714D01*
X106917142Y-24648333D01*
X106964761Y-24743571D01*
X106964761Y-24838809D01*
X106488571Y-24934047D01*
X107250476Y-24600714D02*
X107631428Y-24600714D01*
X107393333Y-25267380D02*
X107393333Y-24410238D01*
X107440952Y-24315000D01*
X107536190Y-24267380D01*
X107631428Y-24267380D01*
X107821904Y-24600714D02*
X108202857Y-24600714D01*
X107964761Y-24267380D02*
X107964761Y-25124523D01*
X108012380Y-25219761D01*
X108107619Y-25267380D01*
X108202857Y-25267380D01*
X109298095Y-24743571D02*
X109631428Y-24743571D01*
X109774285Y-25267380D02*
X109298095Y-25267380D01*
X109298095Y-24267380D01*
X109774285Y-24267380D01*
X110345714Y-25267380D02*
X110250476Y-25219761D01*
X110202857Y-25124523D01*
X110202857Y-24267380D01*
X111155238Y-25267380D02*
X111155238Y-24743571D01*
X111107619Y-24648333D01*
X111012380Y-24600714D01*
X110821904Y-24600714D01*
X110726666Y-24648333D01*
X111155238Y-25219761D02*
X111059999Y-25267380D01*
X110821904Y-25267380D01*
X110726666Y-25219761D01*
X110679047Y-25124523D01*
X110679047Y-25029285D01*
X110726666Y-24934047D01*
X110821904Y-24886428D01*
X111059999Y-24886428D01*
X111155238Y-24838809D01*
X111631428Y-25267380D02*
X111631428Y-24600714D01*
X111631428Y-24695952D02*
X111679047Y-24648333D01*
X111774285Y-24600714D01*
X111917142Y-24600714D01*
X112012380Y-24648333D01*
X112059999Y-24743571D01*
X112059999Y-25267380D01*
X112059999Y-24743571D02*
X112107619Y-24648333D01*
X112202857Y-24600714D01*
X112345714Y-24600714D01*
X112440952Y-24648333D01*
X112488571Y-24743571D01*
X112488571Y-25267380D01*
X113726666Y-25267380D02*
X113726666Y-24267380D01*
X113964761Y-24267380D01*
X114107619Y-24315000D01*
X114202857Y-24410238D01*
X114250476Y-24505476D01*
X114298095Y-24695952D01*
X114298095Y-24838809D01*
X114250476Y-25029285D01*
X114202857Y-25124523D01*
X114107619Y-25219761D01*
X113964761Y-25267380D01*
X113726666Y-25267380D01*
X115155238Y-25267380D02*
X115155238Y-24743571D01*
X115107619Y-24648333D01*
X115012380Y-24600714D01*
X114821904Y-24600714D01*
X114726666Y-24648333D01*
X115155238Y-25219761D02*
X115059999Y-25267380D01*
X114821904Y-25267380D01*
X114726666Y-25219761D01*
X114679047Y-25124523D01*
X114679047Y-25029285D01*
X114726666Y-24934047D01*
X114821904Y-24886428D01*
X115059999Y-24886428D01*
X115155238Y-24838809D01*
X115536190Y-24600714D02*
X115774285Y-25267380D01*
X116012380Y-24600714D02*
X115774285Y-25267380D01*
X115679047Y-25505476D01*
X115631428Y-25553095D01*
X115536190Y-25600714D01*
X116393333Y-24886428D02*
X117155238Y-24886428D01*
X117964761Y-24743571D02*
X117631428Y-24743571D01*
X117631428Y-25267380D02*
X117631428Y-24267380D01*
X118107619Y-24267380D01*
X118488571Y-25267380D02*
X118488571Y-24600714D01*
X118488571Y-24791190D02*
X118536190Y-24695952D01*
X118583809Y-24648333D01*
X118679047Y-24600714D01*
X118774285Y-24600714D01*
X119107619Y-25267380D02*
X119107619Y-24600714D01*
X119107619Y-24267380D02*
X119059999Y-24315000D01*
X119107619Y-24362619D01*
X119155238Y-24315000D01*
X119107619Y-24267380D01*
X119107619Y-24362619D01*
X119964761Y-25219761D02*
X119869523Y-25267380D01*
X119679047Y-25267380D01*
X119583809Y-25219761D01*
X119536190Y-25124523D01*
X119536190Y-24743571D01*
X119583809Y-24648333D01*
X119679047Y-24600714D01*
X119869523Y-24600714D01*
X119964761Y-24648333D01*
X120012380Y-24743571D01*
X120012380Y-24838809D01*
X119536190Y-24934047D01*
X120869523Y-25267380D02*
X120869523Y-24267380D01*
X120869523Y-25219761D02*
X120774285Y-25267380D01*
X120583809Y-25267380D01*
X120488571Y-25219761D01*
X120440952Y-25172142D01*
X120393333Y-25076904D01*
X120393333Y-24791190D01*
X120440952Y-24695952D01*
X120488571Y-24648333D01*
X120583809Y-24600714D01*
X120774285Y-24600714D01*
X120869523Y-24648333D01*
X121488571Y-25267380D02*
X121393333Y-25219761D01*
X121345714Y-25124523D01*
X121345714Y-24267380D01*
X122298095Y-25267380D02*
X122298095Y-24743571D01*
X122250476Y-24648333D01*
X122155238Y-24600714D01*
X121964761Y-24600714D01*
X121869523Y-24648333D01*
X122298095Y-25219761D02*
X122202857Y-25267380D01*
X121964761Y-25267380D01*
X121869523Y-25219761D01*
X121821904Y-25124523D01*
X121821904Y-25029285D01*
X121869523Y-24934047D01*
X121964761Y-24886428D01*
X122202857Y-24886428D01*
X122298095Y-24838809D01*
X122774285Y-24600714D02*
X122774285Y-25267380D01*
X122774285Y-24695952D02*
X122821904Y-24648333D01*
X122917142Y-24600714D01*
X123059999Y-24600714D01*
X123155238Y-24648333D01*
X123202857Y-24743571D01*
X123202857Y-25267380D01*
X124107619Y-25267380D02*
X124107619Y-24267380D01*
X124107619Y-25219761D02*
X124012380Y-25267380D01*
X123821904Y-25267380D01*
X123726666Y-25219761D01*
X123679047Y-25172142D01*
X123631428Y-25076904D01*
X123631428Y-24791190D01*
X123679047Y-24695952D01*
X123726666Y-24648333D01*
X123821904Y-24600714D01*
X124012380Y-24600714D01*
X124107619Y-24648333D01*
X125298095Y-24362619D02*
X125345714Y-24315000D01*
X125440952Y-24267380D01*
X125679047Y-24267380D01*
X125774285Y-24315000D01*
X125821904Y-24362619D01*
X125869523Y-24457857D01*
X125869523Y-24553095D01*
X125821904Y-24695952D01*
X125250476Y-25267380D01*
X125869523Y-25267380D01*
X126488571Y-24267380D02*
X126583809Y-24267380D01*
X126679047Y-24315000D01*
X126726666Y-24362619D01*
X126774285Y-24457857D01*
X126821904Y-24648333D01*
X126821904Y-24886428D01*
X126774285Y-25076904D01*
X126726666Y-25172142D01*
X126679047Y-25219761D01*
X126583809Y-25267380D01*
X126488571Y-25267380D01*
X126393333Y-25219761D01*
X126345714Y-25172142D01*
X126298095Y-25076904D01*
X126250476Y-24886428D01*
X126250476Y-24648333D01*
X126298095Y-24457857D01*
X126345714Y-24362619D01*
X126393333Y-24315000D01*
X126488571Y-24267380D01*
X127202857Y-24362619D02*
X127250476Y-24315000D01*
X127345714Y-24267380D01*
X127583809Y-24267380D01*
X127679047Y-24315000D01*
X127726666Y-24362619D01*
X127774285Y-24457857D01*
X127774285Y-24553095D01*
X127726666Y-24695952D01*
X127155238Y-25267380D01*
X127774285Y-25267380D01*
X128726666Y-25267380D02*
X128155238Y-25267380D01*
X128440952Y-25267380D02*
X128440952Y-24267380D01*
X128345714Y-24410238D01*
X128250476Y-24505476D01*
X128155238Y-24553095D01*
D12*
X107039285Y-79342857D02*
X106682142Y-79592857D01*
X107039285Y-79771428D02*
X106289285Y-79771428D01*
X106289285Y-79485714D01*
X106325000Y-79414285D01*
X106360714Y-79378571D01*
X106432142Y-79342857D01*
X106539285Y-79342857D01*
X106610714Y-79378571D01*
X106646428Y-79414285D01*
X106682142Y-79485714D01*
X106682142Y-79771428D01*
X106289285Y-79092857D02*
X107039285Y-78592857D01*
X106289285Y-78592857D02*
X107039285Y-79092857D01*
X106289285Y-78164285D02*
X106289285Y-78092857D01*
X106325000Y-78021428D01*
X106360714Y-77985714D01*
X106432142Y-77950000D01*
X106575000Y-77914285D01*
X106753571Y-77914285D01*
X106896428Y-77950000D01*
X106967857Y-77985714D01*
X107003571Y-78021428D01*
X107039285Y-78092857D01*
X107039285Y-78164285D01*
X107003571Y-78235714D01*
X106967857Y-78271428D01*
X106896428Y-78307142D01*
X106753571Y-78342857D01*
X106575000Y-78342857D01*
X106432142Y-78307142D01*
X106360714Y-78271428D01*
X106325000Y-78235714D01*
X106289285Y-78164285D01*
X107289285Y-77414285D02*
X106217857Y-77414285D01*
X106289285Y-76985714D02*
X106289285Y-76557142D01*
X107039285Y-76771428D02*
X106289285Y-76771428D01*
X106289285Y-76378571D02*
X107039285Y-75878571D01*
X106289285Y-75878571D02*
X107039285Y-76378571D01*
X106289285Y-75450000D02*
X106289285Y-75378571D01*
X106325000Y-75307142D01*
X106360714Y-75271428D01*
X106432142Y-75235714D01*
X106575000Y-75200000D01*
X106753571Y-75200000D01*
X106896428Y-75235714D01*
X106967857Y-75271428D01*
X107003571Y-75307142D01*
X107039285Y-75378571D01*
X107039285Y-75450000D01*
X107003571Y-75521428D01*
X106967857Y-75557142D01*
X106896428Y-75592857D01*
X106753571Y-75628571D01*
X106575000Y-75628571D01*
X106432142Y-75592857D01*
X106360714Y-75557142D01*
X106325000Y-75521428D01*
X106289285Y-75450000D01*
X107289285Y-74700000D02*
X106217857Y-74700000D01*
X107039285Y-73735714D02*
X106682142Y-73985714D01*
X107039285Y-74164285D02*
X106289285Y-74164285D01*
X106289285Y-73878571D01*
X106325000Y-73807142D01*
X106360714Y-73771428D01*
X106432142Y-73735714D01*
X106539285Y-73735714D01*
X106610714Y-73771428D01*
X106646428Y-73807142D01*
X106682142Y-73878571D01*
X106682142Y-74164285D01*
X106289285Y-73485714D02*
X107039285Y-72985714D01*
X106289285Y-72985714D02*
X107039285Y-73485714D01*
X107039285Y-72307142D02*
X107039285Y-72735714D01*
X107039285Y-72521428D02*
X106289285Y-72521428D01*
X106396428Y-72592857D01*
X106467857Y-72664285D01*
X106503571Y-72735714D01*
X107289285Y-71807142D02*
X106217857Y-71807142D01*
X106289285Y-71378571D02*
X106289285Y-70950000D01*
X107039285Y-71164285D02*
X106289285Y-71164285D01*
X106289285Y-70771428D02*
X107039285Y-70271428D01*
X106289285Y-70271428D02*
X107039285Y-70771428D01*
X107039285Y-69592857D02*
X107039285Y-70021428D01*
X107039285Y-69807142D02*
X106289285Y-69807142D01*
X106396428Y-69878571D01*
X106467857Y-69950000D01*
X106503571Y-70021428D01*
D14*
X53738571Y-49736428D02*
X53024285Y-50236428D01*
X53738571Y-50593571D02*
X52238571Y-50593571D01*
X52238571Y-50022142D01*
X52310000Y-49879285D01*
X52381428Y-49807857D01*
X52524285Y-49736428D01*
X52738571Y-49736428D01*
X52881428Y-49807857D01*
X52952857Y-49879285D01*
X53024285Y-50022142D01*
X53024285Y-50593571D01*
X53667142Y-49165000D02*
X53738571Y-48950714D01*
X53738571Y-48593571D01*
X53667142Y-48450714D01*
X53595714Y-48379285D01*
X53452857Y-48307857D01*
X53310000Y-48307857D01*
X53167142Y-48379285D01*
X53095714Y-48450714D01*
X53024285Y-48593571D01*
X52952857Y-48879285D01*
X52881428Y-49022142D01*
X52810000Y-49093571D01*
X52667142Y-49165000D01*
X52524285Y-49165000D01*
X52381428Y-49093571D01*
X52310000Y-49022142D01*
X52238571Y-48879285D01*
X52238571Y-48522142D01*
X52310000Y-48307857D01*
X52238571Y-47879285D02*
X52238571Y-47022142D01*
X53738571Y-47450714D02*
X52238571Y-47450714D01*
X128160000Y-45250714D02*
X128231428Y-45322142D01*
X128160000Y-45393571D01*
X128088571Y-45322142D01*
X128160000Y-45250714D01*
X128160000Y-45393571D01*
X75200000Y-68628571D02*
X75200000Y-67128571D01*
X76200000Y-67128571D02*
X76485714Y-67128571D01*
X76628571Y-67200000D01*
X76771428Y-67342857D01*
X76842857Y-67628571D01*
X76842857Y-68128571D01*
X76771428Y-68414285D01*
X76628571Y-68557142D01*
X76485714Y-68628571D01*
X76200000Y-68628571D01*
X76057142Y-68557142D01*
X75914285Y-68414285D01*
X75842857Y-68128571D01*
X75842857Y-67628571D01*
X75914285Y-67342857D01*
X76057142Y-67200000D01*
X76200000Y-67128571D01*
X77771428Y-67128571D02*
X77914285Y-67128571D01*
X78057142Y-67200000D01*
X78128571Y-67271428D01*
X78200000Y-67414285D01*
X78271428Y-67700000D01*
X78271428Y-68057142D01*
X78200000Y-68342857D01*
X78128571Y-68485714D01*
X78057142Y-68557142D01*
X77914285Y-68628571D01*
X77771428Y-68628571D01*
X77628571Y-68557142D01*
X77557142Y-68485714D01*
X77485714Y-68342857D01*
X77414285Y-68057142D01*
X77414285Y-67700000D01*
X77485714Y-67414285D01*
X77557142Y-67271428D01*
X77628571Y-67200000D01*
X77771428Y-67128571D01*
D13*
X65224285Y-48541190D02*
X65224285Y-48041190D01*
X65414761Y-48041190D01*
X65462380Y-48065000D01*
X65486190Y-48088809D01*
X65510000Y-48136428D01*
X65510000Y-48207857D01*
X65486190Y-48255476D01*
X65462380Y-48279285D01*
X65414761Y-48303095D01*
X65224285Y-48303095D01*
X65676666Y-48041190D02*
X65795714Y-48541190D01*
X65890952Y-48184047D01*
X65986190Y-48541190D01*
X66105238Y-48041190D01*
X66581428Y-48541190D02*
X66414761Y-48303095D01*
X66295714Y-48541190D02*
X66295714Y-48041190D01*
X66486190Y-48041190D01*
X66533809Y-48065000D01*
X66557619Y-48088809D01*
X66581428Y-48136428D01*
X66581428Y-48207857D01*
X66557619Y-48255476D01*
X66533809Y-48279285D01*
X66486190Y-48303095D01*
X66295714Y-48303095D01*
X66676666Y-48588809D02*
X67057619Y-48588809D01*
X67414761Y-48541190D02*
X67176666Y-48541190D01*
X67176666Y-48041190D01*
X67581428Y-48279285D02*
X67748095Y-48279285D01*
X67819523Y-48541190D02*
X67581428Y-48541190D01*
X67581428Y-48041190D01*
X67819523Y-48041190D01*
X68033809Y-48541190D02*
X68033809Y-48041190D01*
X68152857Y-48041190D01*
X68224285Y-48065000D01*
X68271904Y-48112619D01*
X68295714Y-48160238D01*
X68319523Y-48255476D01*
X68319523Y-48326904D01*
X68295714Y-48422142D01*
X68271904Y-48469761D01*
X68224285Y-48517380D01*
X68152857Y-48541190D01*
X68033809Y-48541190D01*
X99938571Y-45341190D02*
X100224285Y-45341190D01*
X100081428Y-45841190D02*
X100081428Y-45341190D01*
X100390952Y-45841190D02*
X100390952Y-45341190D01*
X100581428Y-45341190D01*
X100629047Y-45365000D01*
X100652857Y-45388809D01*
X100676666Y-45436428D01*
X100676666Y-45507857D01*
X100652857Y-45555476D01*
X100629047Y-45579285D01*
X100581428Y-45603095D01*
X100390952Y-45603095D01*
X100771904Y-45888809D02*
X101152857Y-45888809D01*
X101224285Y-45341190D02*
X101533809Y-45341190D01*
X101367142Y-45531666D01*
X101438571Y-45531666D01*
X101486190Y-45555476D01*
X101510000Y-45579285D01*
X101533809Y-45626904D01*
X101533809Y-45745952D01*
X101510000Y-45793571D01*
X101486190Y-45817380D01*
X101438571Y-45841190D01*
X101295714Y-45841190D01*
X101248095Y-45817380D01*
X101224285Y-45793571D01*
X101700476Y-45507857D02*
X101819523Y-45841190D01*
X101938571Y-45507857D01*
X102081428Y-45341190D02*
X102390952Y-45341190D01*
X102224285Y-45531666D01*
X102295714Y-45531666D01*
X102343333Y-45555476D01*
X102367142Y-45579285D01*
X102390952Y-45626904D01*
X102390952Y-45745952D01*
X102367142Y-45793571D01*
X102343333Y-45817380D01*
X102295714Y-45841190D01*
X102152857Y-45841190D01*
X102105238Y-45817380D01*
X102081428Y-45793571D01*
X102486190Y-45888809D02*
X102867142Y-45888809D01*
X102986190Y-45841190D02*
X102986190Y-45341190D01*
X103224285Y-45841190D02*
X103224285Y-45341190D01*
X103510000Y-45841190D01*
X103510000Y-45341190D01*
D14*
X70638571Y-32272142D02*
X71781428Y-32272142D01*
X71210000Y-32843571D02*
X71210000Y-31700714D01*
D16*
X80246904Y-24080476D02*
X80246904Y-22830476D01*
X80544523Y-22830476D01*
X80723095Y-22890000D01*
X80842142Y-23009047D01*
X80901666Y-23128095D01*
X80961190Y-23366190D01*
X80961190Y-23544761D01*
X80901666Y-23782857D01*
X80842142Y-23901904D01*
X80723095Y-24020952D01*
X80544523Y-24080476D01*
X80246904Y-24080476D01*
X81496904Y-24080476D02*
X81496904Y-22830476D01*
X82330238Y-23485238D02*
X82330238Y-24080476D01*
X81913571Y-22830476D02*
X82330238Y-23485238D01*
X82746904Y-22830476D01*
X83104047Y-23723333D02*
X83699285Y-23723333D01*
X82985000Y-24080476D02*
X83401666Y-22830476D01*
X83818333Y-24080476D01*
X85068333Y-24199523D02*
X84949285Y-24140000D01*
X84830238Y-24020952D01*
X84651666Y-23842380D01*
X84532619Y-23782857D01*
X84413571Y-23782857D01*
X84473095Y-24080476D02*
X84354047Y-24020952D01*
X84235000Y-23901904D01*
X84175476Y-23663809D01*
X84175476Y-23247142D01*
X84235000Y-23009047D01*
X84354047Y-22890000D01*
X84473095Y-22830476D01*
X84711190Y-22830476D01*
X84830238Y-22890000D01*
X84949285Y-23009047D01*
X85008809Y-23247142D01*
X85008809Y-23663809D01*
X84949285Y-23901904D01*
X84830238Y-24020952D01*
X84711190Y-24080476D01*
X84473095Y-24080476D01*
X85544523Y-24080476D02*
X85544523Y-22830476D01*
X87806428Y-23961428D02*
X87746904Y-24020952D01*
X87568333Y-24080476D01*
X87449285Y-24080476D01*
X87270714Y-24020952D01*
X87151666Y-23901904D01*
X87092142Y-23782857D01*
X87032619Y-23544761D01*
X87032619Y-23366190D01*
X87092142Y-23128095D01*
X87151666Y-23009047D01*
X87270714Y-22890000D01*
X87449285Y-22830476D01*
X87568333Y-22830476D01*
X87746904Y-22890000D01*
X87806428Y-22949523D01*
X88520714Y-24080476D02*
X88401666Y-24020952D01*
X88342142Y-23901904D01*
X88342142Y-22830476D01*
X89532619Y-23247142D02*
X89532619Y-24080476D01*
X88996904Y-23247142D02*
X88996904Y-23901904D01*
X89056428Y-24020952D01*
X89175476Y-24080476D01*
X89354047Y-24080476D01*
X89473095Y-24020952D01*
X89532619Y-23961428D01*
X90068333Y-24020952D02*
X90187380Y-24080476D01*
X90425476Y-24080476D01*
X90544523Y-24020952D01*
X90604047Y-23901904D01*
X90604047Y-23842380D01*
X90544523Y-23723333D01*
X90425476Y-23663809D01*
X90246904Y-23663809D01*
X90127857Y-23604285D01*
X90068333Y-23485238D01*
X90068333Y-23425714D01*
X90127857Y-23306666D01*
X90246904Y-23247142D01*
X90425476Y-23247142D01*
X90544523Y-23306666D01*
X90961190Y-23247142D02*
X91437380Y-23247142D01*
X91139761Y-22830476D02*
X91139761Y-23901904D01*
X91199285Y-24020952D01*
X91318333Y-24080476D01*
X91437380Y-24080476D01*
X92330238Y-24020952D02*
X92211190Y-24080476D01*
X91973095Y-24080476D01*
X91854047Y-24020952D01*
X91794523Y-23901904D01*
X91794523Y-23425714D01*
X91854047Y-23306666D01*
X91973095Y-23247142D01*
X92211190Y-23247142D01*
X92330238Y-23306666D01*
X92389761Y-23425714D01*
X92389761Y-23544761D01*
X91794523Y-23663809D01*
X92925476Y-24080476D02*
X92925476Y-23247142D01*
X92925476Y-23485238D02*
X92985000Y-23366190D01*
X93044523Y-23306666D01*
X93163571Y-23247142D01*
X93282619Y-23247142D01*
X95068333Y-23425714D02*
X95246904Y-23485238D01*
X95306428Y-23544761D01*
X95365952Y-23663809D01*
X95365952Y-23842380D01*
X95306428Y-23961428D01*
X95246904Y-24020952D01*
X95127857Y-24080476D01*
X94651666Y-24080476D01*
X94651666Y-22830476D01*
X95068333Y-22830476D01*
X95187380Y-22890000D01*
X95246904Y-22949523D01*
X95306428Y-23068571D01*
X95306428Y-23187619D01*
X95246904Y-23306666D01*
X95187380Y-23366190D01*
X95068333Y-23425714D01*
X94651666Y-23425714D01*
X96080238Y-24080476D02*
X95961190Y-24020952D01*
X95901666Y-23961428D01*
X95842142Y-23842380D01*
X95842142Y-23485238D01*
X95901666Y-23366190D01*
X95961190Y-23306666D01*
X96080238Y-23247142D01*
X96258809Y-23247142D01*
X96377857Y-23306666D01*
X96437380Y-23366190D01*
X96496904Y-23485238D01*
X96496904Y-23842380D01*
X96437380Y-23961428D01*
X96377857Y-24020952D01*
X96258809Y-24080476D01*
X96080238Y-24080476D01*
X97568333Y-24080476D02*
X97568333Y-23425714D01*
X97508809Y-23306666D01*
X97389761Y-23247142D01*
X97151666Y-23247142D01*
X97032619Y-23306666D01*
X97568333Y-24020952D02*
X97449285Y-24080476D01*
X97151666Y-24080476D01*
X97032619Y-24020952D01*
X96973095Y-23901904D01*
X96973095Y-23782857D01*
X97032619Y-23663809D01*
X97151666Y-23604285D01*
X97449285Y-23604285D01*
X97568333Y-23544761D01*
X98163571Y-24080476D02*
X98163571Y-23247142D01*
X98163571Y-23485238D02*
X98223095Y-23366190D01*
X98282619Y-23306666D01*
X98401666Y-23247142D01*
X98520714Y-23247142D01*
X99473095Y-24080476D02*
X99473095Y-22830476D01*
X99473095Y-24020952D02*
X99354047Y-24080476D01*
X99115952Y-24080476D01*
X98996904Y-24020952D01*
X98937380Y-23961428D01*
X98877857Y-23842380D01*
X98877857Y-23485238D01*
X98937380Y-23366190D01*
X98996904Y-23306666D01*
X99115952Y-23247142D01*
X99354047Y-23247142D01*
X99473095Y-23306666D01*
D13*
%TO.C,*%
D15*
%TO.C,D5*%
X63821904Y-33817380D02*
X63821904Y-32817380D01*
X64060000Y-32817380D01*
X64202857Y-32865000D01*
X64298095Y-32960238D01*
X64345714Y-33055476D01*
X64393333Y-33245952D01*
X64393333Y-33388809D01*
X64345714Y-33579285D01*
X64298095Y-33674523D01*
X64202857Y-33769761D01*
X64060000Y-33817380D01*
X63821904Y-33817380D01*
X65298095Y-32817380D02*
X64821904Y-32817380D01*
X64774285Y-33293571D01*
X64821904Y-33245952D01*
X64917142Y-33198333D01*
X65155238Y-33198333D01*
X65250476Y-33245952D01*
X65298095Y-33293571D01*
X65345714Y-33388809D01*
X65345714Y-33626904D01*
X65298095Y-33722142D01*
X65250476Y-33769761D01*
X65155238Y-33817380D01*
X64917142Y-33817380D01*
X64821904Y-33769761D01*
X64774285Y-33722142D01*
D13*
%TO.C,R12*%
X109026190Y-78721428D02*
X108788095Y-78888095D01*
X109026190Y-79007142D02*
X108526190Y-79007142D01*
X108526190Y-78816666D01*
X108550000Y-78769047D01*
X108573809Y-78745238D01*
X108621428Y-78721428D01*
X108692857Y-78721428D01*
X108740476Y-78745238D01*
X108764285Y-78769047D01*
X108788095Y-78816666D01*
X108788095Y-79007142D01*
X109026190Y-78245238D02*
X109026190Y-78530952D01*
X109026190Y-78388095D02*
X108526190Y-78388095D01*
X108597619Y-78435714D01*
X108645238Y-78483333D01*
X108669047Y-78530952D01*
X108573809Y-78054761D02*
X108550000Y-78030952D01*
X108526190Y-77983333D01*
X108526190Y-77864285D01*
X108550000Y-77816666D01*
X108573809Y-77792857D01*
X108621428Y-77769047D01*
X108669047Y-77769047D01*
X108740476Y-77792857D01*
X109026190Y-78078571D01*
X109026190Y-77769047D01*
D12*
%TO.C,R9*%
X91589285Y-46625000D02*
X91232142Y-46875000D01*
X91589285Y-47053571D02*
X90839285Y-47053571D01*
X90839285Y-46767857D01*
X90875000Y-46696428D01*
X90910714Y-46660714D01*
X90982142Y-46625000D01*
X91089285Y-46625000D01*
X91160714Y-46660714D01*
X91196428Y-46696428D01*
X91232142Y-46767857D01*
X91232142Y-47053571D01*
X91589285Y-46267857D02*
X91589285Y-46125000D01*
X91553571Y-46053571D01*
X91517857Y-46017857D01*
X91410714Y-45946428D01*
X91267857Y-45910714D01*
X90982142Y-45910714D01*
X90910714Y-45946428D01*
X90875000Y-45982142D01*
X90839285Y-46053571D01*
X90839285Y-46196428D01*
X90875000Y-46267857D01*
X90910714Y-46303571D01*
X90982142Y-46339285D01*
X91160714Y-46339285D01*
X91232142Y-46303571D01*
X91267857Y-46267857D01*
X91303571Y-46196428D01*
X91303571Y-46053571D01*
X91267857Y-45982142D01*
X91232142Y-45946428D01*
X91160714Y-45910714D01*
%TO.C,R28*%
X64177857Y-53254285D02*
X63927857Y-52897142D01*
X63749285Y-53254285D02*
X63749285Y-52504285D01*
X64035000Y-52504285D01*
X64106428Y-52540000D01*
X64142142Y-52575714D01*
X64177857Y-52647142D01*
X64177857Y-52754285D01*
X64142142Y-52825714D01*
X64106428Y-52861428D01*
X64035000Y-52897142D01*
X63749285Y-52897142D01*
X64463571Y-52575714D02*
X64499285Y-52540000D01*
X64570714Y-52504285D01*
X64749285Y-52504285D01*
X64820714Y-52540000D01*
X64856428Y-52575714D01*
X64892142Y-52647142D01*
X64892142Y-52718571D01*
X64856428Y-52825714D01*
X64427857Y-53254285D01*
X64892142Y-53254285D01*
X65320714Y-52825714D02*
X65249285Y-52790000D01*
X65213571Y-52754285D01*
X65177857Y-52682857D01*
X65177857Y-52647142D01*
X65213571Y-52575714D01*
X65249285Y-52540000D01*
X65320714Y-52504285D01*
X65463571Y-52504285D01*
X65535000Y-52540000D01*
X65570714Y-52575714D01*
X65606428Y-52647142D01*
X65606428Y-52682857D01*
X65570714Y-52754285D01*
X65535000Y-52790000D01*
X65463571Y-52825714D01*
X65320714Y-52825714D01*
X65249285Y-52861428D01*
X65213571Y-52897142D01*
X65177857Y-52968571D01*
X65177857Y-53111428D01*
X65213571Y-53182857D01*
X65249285Y-53218571D01*
X65320714Y-53254285D01*
X65463571Y-53254285D01*
X65535000Y-53218571D01*
X65570714Y-53182857D01*
X65606428Y-53111428D01*
X65606428Y-52968571D01*
X65570714Y-52897142D01*
X65535000Y-52861428D01*
X65463571Y-52825714D01*
D15*
%TO.C,R26*%
X66712380Y-64102857D02*
X66236190Y-64436190D01*
X66712380Y-64674285D02*
X65712380Y-64674285D01*
X65712380Y-64293333D01*
X65760000Y-64198095D01*
X65807619Y-64150476D01*
X65902857Y-64102857D01*
X66045714Y-64102857D01*
X66140952Y-64150476D01*
X66188571Y-64198095D01*
X66236190Y-64293333D01*
X66236190Y-64674285D01*
X65807619Y-63721904D02*
X65760000Y-63674285D01*
X65712380Y-63579047D01*
X65712380Y-63340952D01*
X65760000Y-63245714D01*
X65807619Y-63198095D01*
X65902857Y-63150476D01*
X65998095Y-63150476D01*
X66140952Y-63198095D01*
X66712380Y-63769523D01*
X66712380Y-63150476D01*
X65712380Y-62293333D02*
X65712380Y-62483809D01*
X65760000Y-62579047D01*
X65807619Y-62626666D01*
X65950476Y-62721904D01*
X66140952Y-62769523D01*
X66521904Y-62769523D01*
X66617142Y-62721904D01*
X66664761Y-62674285D01*
X66712380Y-62579047D01*
X66712380Y-62388571D01*
X66664761Y-62293333D01*
X66617142Y-62245714D01*
X66521904Y-62198095D01*
X66283809Y-62198095D01*
X66188571Y-62245714D01*
X66140952Y-62293333D01*
X66093333Y-62388571D01*
X66093333Y-62579047D01*
X66140952Y-62674285D01*
X66188571Y-62721904D01*
X66283809Y-62769523D01*
D12*
%TO.C,R2*%
X110835000Y-38554285D02*
X110585000Y-38197142D01*
X110406428Y-38554285D02*
X110406428Y-37804285D01*
X110692142Y-37804285D01*
X110763571Y-37840000D01*
X110799285Y-37875714D01*
X110835000Y-37947142D01*
X110835000Y-38054285D01*
X110799285Y-38125714D01*
X110763571Y-38161428D01*
X110692142Y-38197142D01*
X110406428Y-38197142D01*
X111120714Y-37875714D02*
X111156428Y-37840000D01*
X111227857Y-37804285D01*
X111406428Y-37804285D01*
X111477857Y-37840000D01*
X111513571Y-37875714D01*
X111549285Y-37947142D01*
X111549285Y-38018571D01*
X111513571Y-38125714D01*
X111085000Y-38554285D01*
X111549285Y-38554285D01*
D15*
%TO.C,U7*%
X99993095Y-36252380D02*
X99993095Y-37061904D01*
X100040714Y-37157142D01*
X100088333Y-37204761D01*
X100183571Y-37252380D01*
X100374047Y-37252380D01*
X100469285Y-37204761D01*
X100516904Y-37157142D01*
X100564523Y-37061904D01*
X100564523Y-36252380D01*
X100945476Y-36252380D02*
X101612142Y-36252380D01*
X101183571Y-37252380D01*
D12*
%TO.C,R6*%
X122135000Y-30354285D02*
X121885000Y-29997142D01*
X121706428Y-30354285D02*
X121706428Y-29604285D01*
X121992142Y-29604285D01*
X122063571Y-29640000D01*
X122099285Y-29675714D01*
X122135000Y-29747142D01*
X122135000Y-29854285D01*
X122099285Y-29925714D01*
X122063571Y-29961428D01*
X121992142Y-29997142D01*
X121706428Y-29997142D01*
X122777857Y-29604285D02*
X122635000Y-29604285D01*
X122563571Y-29640000D01*
X122527857Y-29675714D01*
X122456428Y-29782857D01*
X122420714Y-29925714D01*
X122420714Y-30211428D01*
X122456428Y-30282857D01*
X122492142Y-30318571D01*
X122563571Y-30354285D01*
X122706428Y-30354285D01*
X122777857Y-30318571D01*
X122813571Y-30282857D01*
X122849285Y-30211428D01*
X122849285Y-30032857D01*
X122813571Y-29961428D01*
X122777857Y-29925714D01*
X122706428Y-29890000D01*
X122563571Y-29890000D01*
X122492142Y-29925714D01*
X122456428Y-29961428D01*
X122420714Y-30032857D01*
D15*
%TO.C,D2*%
X112761904Y-77102380D02*
X112761904Y-76102380D01*
X113000000Y-76102380D01*
X113142857Y-76150000D01*
X113238095Y-76245238D01*
X113285714Y-76340476D01*
X113333333Y-76530952D01*
X113333333Y-76673809D01*
X113285714Y-76864285D01*
X113238095Y-76959523D01*
X113142857Y-77054761D01*
X113000000Y-77102380D01*
X112761904Y-77102380D01*
X113714285Y-76197619D02*
X113761904Y-76150000D01*
X113857142Y-76102380D01*
X114095238Y-76102380D01*
X114190476Y-76150000D01*
X114238095Y-76197619D01*
X114285714Y-76292857D01*
X114285714Y-76388095D01*
X114238095Y-76530952D01*
X113666666Y-77102380D01*
X114285714Y-77102380D01*
%TO.C,U1*%
X62807380Y-39011904D02*
X63616904Y-39011904D01*
X63712142Y-38964285D01*
X63759761Y-38916666D01*
X63807380Y-38821428D01*
X63807380Y-38630952D01*
X63759761Y-38535714D01*
X63712142Y-38488095D01*
X63616904Y-38440476D01*
X62807380Y-38440476D01*
X63807380Y-37440476D02*
X63807380Y-38011904D01*
X63807380Y-37726190D02*
X62807380Y-37726190D01*
X62950238Y-37821428D01*
X63045476Y-37916666D01*
X63093095Y-38011904D01*
%TO.C,EXT_BATT1*%
X70930952Y-36293571D02*
X71264285Y-36293571D01*
X71407142Y-36817380D02*
X70930952Y-36817380D01*
X70930952Y-35817380D01*
X71407142Y-35817380D01*
X71740476Y-35817380D02*
X72407142Y-36817380D01*
X72407142Y-35817380D02*
X71740476Y-36817380D01*
X72645238Y-35817380D02*
X73216666Y-35817380D01*
X72930952Y-36817380D02*
X72930952Y-35817380D01*
X73311904Y-36912619D02*
X74073809Y-36912619D01*
X74645238Y-36293571D02*
X74788095Y-36341190D01*
X74835714Y-36388809D01*
X74883333Y-36484047D01*
X74883333Y-36626904D01*
X74835714Y-36722142D01*
X74788095Y-36769761D01*
X74692857Y-36817380D01*
X74311904Y-36817380D01*
X74311904Y-35817380D01*
X74645238Y-35817380D01*
X74740476Y-35865000D01*
X74788095Y-35912619D01*
X74835714Y-36007857D01*
X74835714Y-36103095D01*
X74788095Y-36198333D01*
X74740476Y-36245952D01*
X74645238Y-36293571D01*
X74311904Y-36293571D01*
X75264285Y-36531666D02*
X75740476Y-36531666D01*
X75169047Y-36817380D02*
X75502380Y-35817380D01*
X75835714Y-36817380D01*
X76026190Y-35817380D02*
X76597619Y-35817380D01*
X76311904Y-36817380D02*
X76311904Y-35817380D01*
X76788095Y-35817380D02*
X77359523Y-35817380D01*
X77073809Y-36817380D02*
X77073809Y-35817380D01*
X78216666Y-36817380D02*
X77645238Y-36817380D01*
X77930952Y-36817380D02*
X77930952Y-35817380D01*
X77835714Y-35960238D01*
X77740476Y-36055476D01*
X77645238Y-36103095D01*
D13*
%TO.C,C3*%
X83095866Y-45088371D02*
X83072057Y-45112180D01*
X83000628Y-45135990D01*
X82953009Y-45135990D01*
X82881580Y-45112180D01*
X82833961Y-45064561D01*
X82810152Y-45016942D01*
X82786342Y-44921704D01*
X82786342Y-44850276D01*
X82810152Y-44755038D01*
X82833961Y-44707419D01*
X82881580Y-44659800D01*
X82953009Y-44635990D01*
X83000628Y-44635990D01*
X83072057Y-44659800D01*
X83095866Y-44683609D01*
X83262533Y-44635990D02*
X83572057Y-44635990D01*
X83405390Y-44826466D01*
X83476819Y-44826466D01*
X83524438Y-44850276D01*
X83548247Y-44874085D01*
X83572057Y-44921704D01*
X83572057Y-45040752D01*
X83548247Y-45088371D01*
X83524438Y-45112180D01*
X83476819Y-45135990D01*
X83333961Y-45135990D01*
X83286342Y-45112180D01*
X83262533Y-45088371D01*
%TO.C,Q1*%
X73690180Y-44032009D02*
X73642561Y-44008200D01*
X73594942Y-43960580D01*
X73523514Y-43889152D01*
X73475895Y-43865342D01*
X73428276Y-43865342D01*
X73452085Y-43984390D02*
X73404466Y-43960580D01*
X73356847Y-43912961D01*
X73333038Y-43817723D01*
X73333038Y-43651057D01*
X73356847Y-43555819D01*
X73404466Y-43508200D01*
X73452085Y-43484390D01*
X73547323Y-43484390D01*
X73594942Y-43508200D01*
X73642561Y-43555819D01*
X73666371Y-43651057D01*
X73666371Y-43817723D01*
X73642561Y-43912961D01*
X73594942Y-43960580D01*
X73547323Y-43984390D01*
X73452085Y-43984390D01*
X74142561Y-43984390D02*
X73856847Y-43984390D01*
X73999704Y-43984390D02*
X73999704Y-43484390D01*
X73952085Y-43555819D01*
X73904466Y-43603438D01*
X73856847Y-43627247D01*
D12*
%TO.C,R1*%
X62135000Y-40954285D02*
X61885000Y-40597142D01*
X61706428Y-40954285D02*
X61706428Y-40204285D01*
X61992142Y-40204285D01*
X62063571Y-40240000D01*
X62099285Y-40275714D01*
X62135000Y-40347142D01*
X62135000Y-40454285D01*
X62099285Y-40525714D01*
X62063571Y-40561428D01*
X61992142Y-40597142D01*
X61706428Y-40597142D01*
X62849285Y-40954285D02*
X62420714Y-40954285D01*
X62635000Y-40954285D02*
X62635000Y-40204285D01*
X62563571Y-40311428D01*
X62492142Y-40382857D01*
X62420714Y-40418571D01*
%TO.C,C6*%
X114535000Y-38532857D02*
X114499285Y-38568571D01*
X114392142Y-38604285D01*
X114320714Y-38604285D01*
X114213571Y-38568571D01*
X114142142Y-38497142D01*
X114106428Y-38425714D01*
X114070714Y-38282857D01*
X114070714Y-38175714D01*
X114106428Y-38032857D01*
X114142142Y-37961428D01*
X114213571Y-37890000D01*
X114320714Y-37854285D01*
X114392142Y-37854285D01*
X114499285Y-37890000D01*
X114535000Y-37925714D01*
X115177857Y-37854285D02*
X115035000Y-37854285D01*
X114963571Y-37890000D01*
X114927857Y-37925714D01*
X114856428Y-38032857D01*
X114820714Y-38175714D01*
X114820714Y-38461428D01*
X114856428Y-38532857D01*
X114892142Y-38568571D01*
X114963571Y-38604285D01*
X115106428Y-38604285D01*
X115177857Y-38568571D01*
X115213571Y-38532857D01*
X115249285Y-38461428D01*
X115249285Y-38282857D01*
X115213571Y-38211428D01*
X115177857Y-38175714D01*
X115106428Y-38140000D01*
X114963571Y-38140000D01*
X114892142Y-38175714D01*
X114856428Y-38211428D01*
X114820714Y-38282857D01*
D15*
%TO.C,C4*%
X94193333Y-43772142D02*
X94145714Y-43819761D01*
X94002857Y-43867380D01*
X93907619Y-43867380D01*
X93764761Y-43819761D01*
X93669523Y-43724523D01*
X93621904Y-43629285D01*
X93574285Y-43438809D01*
X93574285Y-43295952D01*
X93621904Y-43105476D01*
X93669523Y-43010238D01*
X93764761Y-42915000D01*
X93907619Y-42867380D01*
X94002857Y-42867380D01*
X94145714Y-42915000D01*
X94193333Y-42962619D01*
X95050476Y-43200714D02*
X95050476Y-43867380D01*
X94812380Y-42819761D02*
X94574285Y-43534047D01*
X95193333Y-43534047D01*
D13*
%TO.C,U5*%
X126479047Y-42941190D02*
X126479047Y-43345952D01*
X126502857Y-43393571D01*
X126526666Y-43417380D01*
X126574285Y-43441190D01*
X126669523Y-43441190D01*
X126717142Y-43417380D01*
X126740952Y-43393571D01*
X126764761Y-43345952D01*
X126764761Y-42941190D01*
X127240952Y-42941190D02*
X127002857Y-42941190D01*
X126979047Y-43179285D01*
X127002857Y-43155476D01*
X127050476Y-43131666D01*
X127169523Y-43131666D01*
X127217142Y-43155476D01*
X127240952Y-43179285D01*
X127264761Y-43226904D01*
X127264761Y-43345952D01*
X127240952Y-43393571D01*
X127217142Y-43417380D01*
X127169523Y-43441190D01*
X127050476Y-43441190D01*
X127002857Y-43417380D01*
X126979047Y-43393571D01*
D12*
%TO.C,R22*%
X62977857Y-74954285D02*
X62727857Y-74597142D01*
X62549285Y-74954285D02*
X62549285Y-74204285D01*
X62835000Y-74204285D01*
X62906428Y-74240000D01*
X62942142Y-74275714D01*
X62977857Y-74347142D01*
X62977857Y-74454285D01*
X62942142Y-74525714D01*
X62906428Y-74561428D01*
X62835000Y-74597142D01*
X62549285Y-74597142D01*
X63263571Y-74275714D02*
X63299285Y-74240000D01*
X63370714Y-74204285D01*
X63549285Y-74204285D01*
X63620714Y-74240000D01*
X63656428Y-74275714D01*
X63692142Y-74347142D01*
X63692142Y-74418571D01*
X63656428Y-74525714D01*
X63227857Y-74954285D01*
X63692142Y-74954285D01*
X63977857Y-74275714D02*
X64013571Y-74240000D01*
X64085000Y-74204285D01*
X64263571Y-74204285D01*
X64335000Y-74240000D01*
X64370714Y-74275714D01*
X64406428Y-74347142D01*
X64406428Y-74418571D01*
X64370714Y-74525714D01*
X63942142Y-74954285D01*
X64406428Y-74954285D01*
%TO.C,R3*%
X106935000Y-41754285D02*
X106685000Y-41397142D01*
X106506428Y-41754285D02*
X106506428Y-41004285D01*
X106792142Y-41004285D01*
X106863571Y-41040000D01*
X106899285Y-41075714D01*
X106935000Y-41147142D01*
X106935000Y-41254285D01*
X106899285Y-41325714D01*
X106863571Y-41361428D01*
X106792142Y-41397142D01*
X106506428Y-41397142D01*
X107185000Y-41004285D02*
X107649285Y-41004285D01*
X107399285Y-41290000D01*
X107506428Y-41290000D01*
X107577857Y-41325714D01*
X107613571Y-41361428D01*
X107649285Y-41432857D01*
X107649285Y-41611428D01*
X107613571Y-41682857D01*
X107577857Y-41718571D01*
X107506428Y-41754285D01*
X107292142Y-41754285D01*
X107220714Y-41718571D01*
X107185000Y-41682857D01*
D13*
%TO.C,L1*%
X87776666Y-42441190D02*
X87538571Y-42441190D01*
X87538571Y-41941190D01*
X88205238Y-42441190D02*
X87919523Y-42441190D01*
X88062380Y-42441190D02*
X88062380Y-41941190D01*
X88014761Y-42012619D01*
X87967142Y-42060238D01*
X87919523Y-42084047D01*
D12*
%TO.C,C10*%
X126177857Y-30282857D02*
X126142142Y-30318571D01*
X126035000Y-30354285D01*
X125963571Y-30354285D01*
X125856428Y-30318571D01*
X125785000Y-30247142D01*
X125749285Y-30175714D01*
X125713571Y-30032857D01*
X125713571Y-29925714D01*
X125749285Y-29782857D01*
X125785000Y-29711428D01*
X125856428Y-29640000D01*
X125963571Y-29604285D01*
X126035000Y-29604285D01*
X126142142Y-29640000D01*
X126177857Y-29675714D01*
X126892142Y-30354285D02*
X126463571Y-30354285D01*
X126677857Y-30354285D02*
X126677857Y-29604285D01*
X126606428Y-29711428D01*
X126535000Y-29782857D01*
X126463571Y-29818571D01*
X127356428Y-29604285D02*
X127427857Y-29604285D01*
X127499285Y-29640000D01*
X127535000Y-29675714D01*
X127570714Y-29747142D01*
X127606428Y-29890000D01*
X127606428Y-30068571D01*
X127570714Y-30211428D01*
X127535000Y-30282857D01*
X127499285Y-30318571D01*
X127427857Y-30354285D01*
X127356428Y-30354285D01*
X127285000Y-30318571D01*
X127249285Y-30282857D01*
X127213571Y-30211428D01*
X127177857Y-30068571D01*
X127177857Y-29890000D01*
X127213571Y-29747142D01*
X127249285Y-29675714D01*
X127285000Y-29640000D01*
X127356428Y-29604285D01*
D13*
%TO.C,C5*%
X122276666Y-34693571D02*
X122252857Y-34717380D01*
X122181428Y-34741190D01*
X122133809Y-34741190D01*
X122062380Y-34717380D01*
X122014761Y-34669761D01*
X121990952Y-34622142D01*
X121967142Y-34526904D01*
X121967142Y-34455476D01*
X121990952Y-34360238D01*
X122014761Y-34312619D01*
X122062380Y-34265000D01*
X122133809Y-34241190D01*
X122181428Y-34241190D01*
X122252857Y-34265000D01*
X122276666Y-34288809D01*
X122729047Y-34241190D02*
X122490952Y-34241190D01*
X122467142Y-34479285D01*
X122490952Y-34455476D01*
X122538571Y-34431666D01*
X122657619Y-34431666D01*
X122705238Y-34455476D01*
X122729047Y-34479285D01*
X122752857Y-34526904D01*
X122752857Y-34645952D01*
X122729047Y-34693571D01*
X122705238Y-34717380D01*
X122657619Y-34741190D01*
X122538571Y-34741190D01*
X122490952Y-34717380D01*
X122467142Y-34693571D01*
D12*
%TO.C,C12*%
X129377857Y-41182857D02*
X129342142Y-41218571D01*
X129235000Y-41254285D01*
X129163571Y-41254285D01*
X129056428Y-41218571D01*
X128985000Y-41147142D01*
X128949285Y-41075714D01*
X128913571Y-40932857D01*
X128913571Y-40825714D01*
X128949285Y-40682857D01*
X128985000Y-40611428D01*
X129056428Y-40540000D01*
X129163571Y-40504285D01*
X129235000Y-40504285D01*
X129342142Y-40540000D01*
X129377857Y-40575714D01*
X130092142Y-41254285D02*
X129663571Y-41254285D01*
X129877857Y-41254285D02*
X129877857Y-40504285D01*
X129806428Y-40611428D01*
X129735000Y-40682857D01*
X129663571Y-40718571D01*
X130377857Y-40575714D02*
X130413571Y-40540000D01*
X130485000Y-40504285D01*
X130663571Y-40504285D01*
X130735000Y-40540000D01*
X130770714Y-40575714D01*
X130806428Y-40647142D01*
X130806428Y-40718571D01*
X130770714Y-40825714D01*
X130342142Y-41254285D01*
X130806428Y-41254285D01*
D15*
%TO.C,R24*%
X83377857Y-68754285D02*
X83127857Y-68397142D01*
X82949285Y-68754285D02*
X82949285Y-68004285D01*
X83235000Y-68004285D01*
X83306428Y-68040000D01*
X83342142Y-68075714D01*
X83377857Y-68147142D01*
X83377857Y-68254285D01*
X83342142Y-68325714D01*
X83306428Y-68361428D01*
X83235000Y-68397142D01*
X82949285Y-68397142D01*
X83663571Y-68075714D02*
X83699285Y-68040000D01*
X83770714Y-68004285D01*
X83949285Y-68004285D01*
X84020714Y-68040000D01*
X84056428Y-68075714D01*
X84092142Y-68147142D01*
X84092142Y-68218571D01*
X84056428Y-68325714D01*
X83627857Y-68754285D01*
X84092142Y-68754285D01*
X84735000Y-68254285D02*
X84735000Y-68754285D01*
X84556428Y-67968571D02*
X84377857Y-68504285D01*
X84842142Y-68504285D01*
D13*
%TO.C,U6*%
X126229047Y-61641190D02*
X126229047Y-62045952D01*
X126252857Y-62093571D01*
X126276666Y-62117380D01*
X126324285Y-62141190D01*
X126419523Y-62141190D01*
X126467142Y-62117380D01*
X126490952Y-62093571D01*
X126514761Y-62045952D01*
X126514761Y-61641190D01*
X126967142Y-61641190D02*
X126871904Y-61641190D01*
X126824285Y-61665000D01*
X126800476Y-61688809D01*
X126752857Y-61760238D01*
X126729047Y-61855476D01*
X126729047Y-62045952D01*
X126752857Y-62093571D01*
X126776666Y-62117380D01*
X126824285Y-62141190D01*
X126919523Y-62141190D01*
X126967142Y-62117380D01*
X126990952Y-62093571D01*
X127014761Y-62045952D01*
X127014761Y-61926904D01*
X126990952Y-61879285D01*
X126967142Y-61855476D01*
X126919523Y-61831666D01*
X126824285Y-61831666D01*
X126776666Y-61855476D01*
X126752857Y-61879285D01*
X126729047Y-61926904D01*
D15*
%TO.C,C16*%
X68617142Y-63902857D02*
X68664761Y-63950476D01*
X68712380Y-64093333D01*
X68712380Y-64188571D01*
X68664761Y-64331428D01*
X68569523Y-64426666D01*
X68474285Y-64474285D01*
X68283809Y-64521904D01*
X68140952Y-64521904D01*
X67950476Y-64474285D01*
X67855238Y-64426666D01*
X67760000Y-64331428D01*
X67712380Y-64188571D01*
X67712380Y-64093333D01*
X67760000Y-63950476D01*
X67807619Y-63902857D01*
X68712380Y-62950476D02*
X68712380Y-63521904D01*
X68712380Y-63236190D02*
X67712380Y-63236190D01*
X67855238Y-63331428D01*
X67950476Y-63426666D01*
X67998095Y-63521904D01*
X67712380Y-62093333D02*
X67712380Y-62283809D01*
X67760000Y-62379047D01*
X67807619Y-62426666D01*
X67950476Y-62521904D01*
X68140952Y-62569523D01*
X68521904Y-62569523D01*
X68617142Y-62521904D01*
X68664761Y-62474285D01*
X68712380Y-62379047D01*
X68712380Y-62188571D01*
X68664761Y-62093333D01*
X68617142Y-62045714D01*
X68521904Y-61998095D01*
X68283809Y-61998095D01*
X68188571Y-62045714D01*
X68140952Y-62093333D01*
X68093333Y-62188571D01*
X68093333Y-62379047D01*
X68140952Y-62474285D01*
X68188571Y-62521904D01*
X68283809Y-62569523D01*
D12*
%TO.C,R20*%
X72938571Y-52741190D02*
X72771904Y-52503095D01*
X72652857Y-52741190D02*
X72652857Y-52241190D01*
X72843333Y-52241190D01*
X72890952Y-52265000D01*
X72914761Y-52288809D01*
X72938571Y-52336428D01*
X72938571Y-52407857D01*
X72914761Y-52455476D01*
X72890952Y-52479285D01*
X72843333Y-52503095D01*
X72652857Y-52503095D01*
X73129047Y-52288809D02*
X73152857Y-52265000D01*
X73200476Y-52241190D01*
X73319523Y-52241190D01*
X73367142Y-52265000D01*
X73390952Y-52288809D01*
X73414761Y-52336428D01*
X73414761Y-52384047D01*
X73390952Y-52455476D01*
X73105238Y-52741190D01*
X73414761Y-52741190D01*
X73724285Y-52241190D02*
X73771904Y-52241190D01*
X73819523Y-52265000D01*
X73843333Y-52288809D01*
X73867142Y-52336428D01*
X73890952Y-52431666D01*
X73890952Y-52550714D01*
X73867142Y-52645952D01*
X73843333Y-52693571D01*
X73819523Y-52717380D01*
X73771904Y-52741190D01*
X73724285Y-52741190D01*
X73676666Y-52717380D01*
X73652857Y-52693571D01*
X73629047Y-52645952D01*
X73605238Y-52550714D01*
X73605238Y-52431666D01*
X73629047Y-52336428D01*
X73652857Y-52288809D01*
X73676666Y-52265000D01*
X73724285Y-52241190D01*
D15*
%TO.C,SW2*%
X57914761Y-50198333D02*
X57962380Y-50055476D01*
X57962380Y-49817380D01*
X57914761Y-49722142D01*
X57867142Y-49674523D01*
X57771904Y-49626904D01*
X57676666Y-49626904D01*
X57581428Y-49674523D01*
X57533809Y-49722142D01*
X57486190Y-49817380D01*
X57438571Y-50007857D01*
X57390952Y-50103095D01*
X57343333Y-50150714D01*
X57248095Y-50198333D01*
X57152857Y-50198333D01*
X57057619Y-50150714D01*
X57010000Y-50103095D01*
X56962380Y-50007857D01*
X56962380Y-49769761D01*
X57010000Y-49626904D01*
X56962380Y-49293571D02*
X57962380Y-49055476D01*
X57248095Y-48865000D01*
X57962380Y-48674523D01*
X56962380Y-48436428D01*
X57057619Y-48103095D02*
X57010000Y-48055476D01*
X56962380Y-47960238D01*
X56962380Y-47722142D01*
X57010000Y-47626904D01*
X57057619Y-47579285D01*
X57152857Y-47531666D01*
X57248095Y-47531666D01*
X57390952Y-47579285D01*
X57962380Y-48150714D01*
X57962380Y-47531666D01*
%TO.C,D6*%
X110261904Y-77102380D02*
X110261904Y-76102380D01*
X110500000Y-76102380D01*
X110642857Y-76150000D01*
X110738095Y-76245238D01*
X110785714Y-76340476D01*
X110833333Y-76530952D01*
X110833333Y-76673809D01*
X110785714Y-76864285D01*
X110738095Y-76959523D01*
X110642857Y-77054761D01*
X110500000Y-77102380D01*
X110261904Y-77102380D01*
X111690476Y-76102380D02*
X111500000Y-76102380D01*
X111404761Y-76150000D01*
X111357142Y-76197619D01*
X111261904Y-76340476D01*
X111214285Y-76530952D01*
X111214285Y-76911904D01*
X111261904Y-77007142D01*
X111309523Y-77054761D01*
X111404761Y-77102380D01*
X111595238Y-77102380D01*
X111690476Y-77054761D01*
X111738095Y-77007142D01*
X111785714Y-76911904D01*
X111785714Y-76673809D01*
X111738095Y-76578571D01*
X111690476Y-76530952D01*
X111595238Y-76483333D01*
X111404761Y-76483333D01*
X111309523Y-76530952D01*
X111261904Y-76578571D01*
X111214285Y-76673809D01*
%TO.C,U2*%
X90198095Y-42867380D02*
X90198095Y-43676904D01*
X90245714Y-43772142D01*
X90293333Y-43819761D01*
X90388571Y-43867380D01*
X90579047Y-43867380D01*
X90674285Y-43819761D01*
X90721904Y-43772142D01*
X90769523Y-43676904D01*
X90769523Y-42867380D01*
X91198095Y-42962619D02*
X91245714Y-42915000D01*
X91340952Y-42867380D01*
X91579047Y-42867380D01*
X91674285Y-42915000D01*
X91721904Y-42962619D01*
X91769523Y-43057857D01*
X91769523Y-43153095D01*
X91721904Y-43295952D01*
X91150476Y-43867380D01*
X91769523Y-43867380D01*
%TO.C,J1*%
X53812380Y-32248333D02*
X54526666Y-32248333D01*
X54669523Y-32295952D01*
X54764761Y-32391190D01*
X54812380Y-32534047D01*
X54812380Y-32629285D01*
X54812380Y-31248333D02*
X54812380Y-31819761D01*
X54812380Y-31534047D02*
X53812380Y-31534047D01*
X53955238Y-31629285D01*
X54050476Y-31724523D01*
X54098095Y-31819761D01*
%TO.C,*%
%TO.C,5V_IN1*%
X57121904Y-38062619D02*
X57121904Y-38443571D01*
X57502857Y-38481666D01*
X57464761Y-38443571D01*
X57426666Y-38367380D01*
X57426666Y-38176904D01*
X57464761Y-38100714D01*
X57502857Y-38062619D01*
X57579047Y-38024523D01*
X57769523Y-38024523D01*
X57845714Y-38062619D01*
X57883809Y-38100714D01*
X57921904Y-38176904D01*
X57921904Y-38367380D01*
X57883809Y-38443571D01*
X57845714Y-38481666D01*
X57121904Y-37795952D02*
X57921904Y-37529285D01*
X57121904Y-37262619D01*
X57998095Y-37186428D02*
X57998095Y-36576904D01*
X57921904Y-36386428D02*
X57121904Y-36386428D01*
X57921904Y-36005476D02*
X57121904Y-36005476D01*
X57921904Y-35548333D01*
X57121904Y-35548333D01*
X57921904Y-34748333D02*
X57921904Y-35205476D01*
X57921904Y-34976904D02*
X57121904Y-34976904D01*
X57236190Y-35053095D01*
X57312380Y-35129285D01*
X57350476Y-35205476D01*
D13*
%TO.C,C7*%
X126676666Y-34693571D02*
X126652857Y-34717380D01*
X126581428Y-34741190D01*
X126533809Y-34741190D01*
X126462380Y-34717380D01*
X126414761Y-34669761D01*
X126390952Y-34622142D01*
X126367142Y-34526904D01*
X126367142Y-34455476D01*
X126390952Y-34360238D01*
X126414761Y-34312619D01*
X126462380Y-34265000D01*
X126533809Y-34241190D01*
X126581428Y-34241190D01*
X126652857Y-34265000D01*
X126676666Y-34288809D01*
X126843333Y-34241190D02*
X127176666Y-34241190D01*
X126962380Y-34741190D01*
%TO.C,C2*%
X77366666Y-38178571D02*
X77342857Y-38202380D01*
X77271428Y-38226190D01*
X77223809Y-38226190D01*
X77152380Y-38202380D01*
X77104761Y-38154761D01*
X77080952Y-38107142D01*
X77057142Y-38011904D01*
X77057142Y-37940476D01*
X77080952Y-37845238D01*
X77104761Y-37797619D01*
X77152380Y-37750000D01*
X77223809Y-37726190D01*
X77271428Y-37726190D01*
X77342857Y-37750000D01*
X77366666Y-37773809D01*
X77557142Y-37773809D02*
X77580952Y-37750000D01*
X77628571Y-37726190D01*
X77747619Y-37726190D01*
X77795238Y-37750000D01*
X77819047Y-37773809D01*
X77842857Y-37821428D01*
X77842857Y-37869047D01*
X77819047Y-37940476D01*
X77533333Y-38226190D01*
X77842857Y-38226190D01*
D12*
%TO.C,R25*%
X68377857Y-53154285D02*
X68127857Y-52797142D01*
X67949285Y-53154285D02*
X67949285Y-52404285D01*
X68235000Y-52404285D01*
X68306428Y-52440000D01*
X68342142Y-52475714D01*
X68377857Y-52547142D01*
X68377857Y-52654285D01*
X68342142Y-52725714D01*
X68306428Y-52761428D01*
X68235000Y-52797142D01*
X67949285Y-52797142D01*
X68663571Y-52475714D02*
X68699285Y-52440000D01*
X68770714Y-52404285D01*
X68949285Y-52404285D01*
X69020714Y-52440000D01*
X69056428Y-52475714D01*
X69092142Y-52547142D01*
X69092142Y-52618571D01*
X69056428Y-52725714D01*
X68627857Y-53154285D01*
X69092142Y-53154285D01*
X69770714Y-52404285D02*
X69413571Y-52404285D01*
X69377857Y-52761428D01*
X69413571Y-52725714D01*
X69485000Y-52690000D01*
X69663571Y-52690000D01*
X69735000Y-52725714D01*
X69770714Y-52761428D01*
X69806428Y-52832857D01*
X69806428Y-53011428D01*
X69770714Y-53082857D01*
X69735000Y-53118571D01*
X69663571Y-53154285D01*
X69485000Y-53154285D01*
X69413571Y-53118571D01*
X69377857Y-53082857D01*
D15*
%TO.C,BT1*%
X73769285Y-21343571D02*
X73912142Y-21391190D01*
X73959761Y-21438809D01*
X74007380Y-21534047D01*
X74007380Y-21676904D01*
X73959761Y-21772142D01*
X73912142Y-21819761D01*
X73816904Y-21867380D01*
X73435952Y-21867380D01*
X73435952Y-20867380D01*
X73769285Y-20867380D01*
X73864523Y-20915000D01*
X73912142Y-20962619D01*
X73959761Y-21057857D01*
X73959761Y-21153095D01*
X73912142Y-21248333D01*
X73864523Y-21295952D01*
X73769285Y-21343571D01*
X73435952Y-21343571D01*
X74293095Y-20867380D02*
X74864523Y-20867380D01*
X74578809Y-21867380D02*
X74578809Y-20867380D01*
X75721666Y-21867380D02*
X75150238Y-21867380D01*
X75435952Y-21867380D02*
X75435952Y-20867380D01*
X75340714Y-21010238D01*
X75245476Y-21105476D01*
X75150238Y-21153095D01*
D13*
%TO.C,C1*%
X70089066Y-41734171D02*
X70065257Y-41757980D01*
X69993828Y-41781790D01*
X69946209Y-41781790D01*
X69874780Y-41757980D01*
X69827161Y-41710361D01*
X69803352Y-41662742D01*
X69779542Y-41567504D01*
X69779542Y-41496076D01*
X69803352Y-41400838D01*
X69827161Y-41353219D01*
X69874780Y-41305600D01*
X69946209Y-41281790D01*
X69993828Y-41281790D01*
X70065257Y-41305600D01*
X70089066Y-41329409D01*
X70565257Y-41781790D02*
X70279542Y-41781790D01*
X70422400Y-41781790D02*
X70422400Y-41281790D01*
X70374780Y-41353219D01*
X70327161Y-41400838D01*
X70279542Y-41424647D01*
D12*
%TO.C,R8*%
X97189285Y-46625000D02*
X96832142Y-46875000D01*
X97189285Y-47053571D02*
X96439285Y-47053571D01*
X96439285Y-46767857D01*
X96475000Y-46696428D01*
X96510714Y-46660714D01*
X96582142Y-46625000D01*
X96689285Y-46625000D01*
X96760714Y-46660714D01*
X96796428Y-46696428D01*
X96832142Y-46767857D01*
X96832142Y-47053571D01*
X96760714Y-46196428D02*
X96725000Y-46267857D01*
X96689285Y-46303571D01*
X96617857Y-46339285D01*
X96582142Y-46339285D01*
X96510714Y-46303571D01*
X96475000Y-46267857D01*
X96439285Y-46196428D01*
X96439285Y-46053571D01*
X96475000Y-45982142D01*
X96510714Y-45946428D01*
X96582142Y-45910714D01*
X96617857Y-45910714D01*
X96689285Y-45946428D01*
X96725000Y-45982142D01*
X96760714Y-46053571D01*
X96760714Y-46196428D01*
X96796428Y-46267857D01*
X96832142Y-46303571D01*
X96903571Y-46339285D01*
X97046428Y-46339285D01*
X97117857Y-46303571D01*
X97153571Y-46267857D01*
X97189285Y-46196428D01*
X97189285Y-46053571D01*
X97153571Y-45982142D01*
X97117857Y-45946428D01*
X97046428Y-45910714D01*
X96903571Y-45910714D01*
X96832142Y-45946428D01*
X96796428Y-45982142D01*
X96760714Y-46053571D01*
D13*
%TO.C,D1*%
X68790952Y-44769190D02*
X68790952Y-44269190D01*
X68910000Y-44269190D01*
X68981428Y-44293000D01*
X69029047Y-44340619D01*
X69052857Y-44388238D01*
X69076666Y-44483476D01*
X69076666Y-44554904D01*
X69052857Y-44650142D01*
X69029047Y-44697761D01*
X68981428Y-44745380D01*
X68910000Y-44769190D01*
X68790952Y-44769190D01*
X69552857Y-44769190D02*
X69267142Y-44769190D01*
X69410000Y-44769190D02*
X69410000Y-44269190D01*
X69362380Y-44340619D01*
X69314761Y-44388238D01*
X69267142Y-44412047D01*
D12*
%TO.C,R23*%
X60677857Y-74954285D02*
X60427857Y-74597142D01*
X60249285Y-74954285D02*
X60249285Y-74204285D01*
X60535000Y-74204285D01*
X60606428Y-74240000D01*
X60642142Y-74275714D01*
X60677857Y-74347142D01*
X60677857Y-74454285D01*
X60642142Y-74525714D01*
X60606428Y-74561428D01*
X60535000Y-74597142D01*
X60249285Y-74597142D01*
X60963571Y-74275714D02*
X60999285Y-74240000D01*
X61070714Y-74204285D01*
X61249285Y-74204285D01*
X61320714Y-74240000D01*
X61356428Y-74275714D01*
X61392142Y-74347142D01*
X61392142Y-74418571D01*
X61356428Y-74525714D01*
X60927857Y-74954285D01*
X61392142Y-74954285D01*
X61642142Y-74204285D02*
X62106428Y-74204285D01*
X61856428Y-74490000D01*
X61963571Y-74490000D01*
X62035000Y-74525714D01*
X62070714Y-74561428D01*
X62106428Y-74632857D01*
X62106428Y-74811428D01*
X62070714Y-74882857D01*
X62035000Y-74918571D01*
X61963571Y-74954285D01*
X61749285Y-74954285D01*
X61677857Y-74918571D01*
X61642142Y-74882857D01*
%TO.C,R18*%
X121227857Y-45854285D02*
X120977857Y-45497142D01*
X120799285Y-45854285D02*
X120799285Y-45104285D01*
X121085000Y-45104285D01*
X121156428Y-45140000D01*
X121192142Y-45175714D01*
X121227857Y-45247142D01*
X121227857Y-45354285D01*
X121192142Y-45425714D01*
X121156428Y-45461428D01*
X121085000Y-45497142D01*
X120799285Y-45497142D01*
X121942142Y-45854285D02*
X121513571Y-45854285D01*
X121727857Y-45854285D02*
X121727857Y-45104285D01*
X121656428Y-45211428D01*
X121585000Y-45282857D01*
X121513571Y-45318571D01*
X122370714Y-45425714D02*
X122299285Y-45390000D01*
X122263571Y-45354285D01*
X122227857Y-45282857D01*
X122227857Y-45247142D01*
X122263571Y-45175714D01*
X122299285Y-45140000D01*
X122370714Y-45104285D01*
X122513571Y-45104285D01*
X122585000Y-45140000D01*
X122620714Y-45175714D01*
X122656428Y-45247142D01*
X122656428Y-45282857D01*
X122620714Y-45354285D01*
X122585000Y-45390000D01*
X122513571Y-45425714D01*
X122370714Y-45425714D01*
X122299285Y-45461428D01*
X122263571Y-45497142D01*
X122227857Y-45568571D01*
X122227857Y-45711428D01*
X122263571Y-45782857D01*
X122299285Y-45818571D01*
X122370714Y-45854285D01*
X122513571Y-45854285D01*
X122585000Y-45818571D01*
X122620714Y-45782857D01*
X122656428Y-45711428D01*
X122656428Y-45568571D01*
X122620714Y-45497142D01*
X122585000Y-45461428D01*
X122513571Y-45425714D01*
%TO.C,R5*%
X106835000Y-38654285D02*
X106585000Y-38297142D01*
X106406428Y-38654285D02*
X106406428Y-37904285D01*
X106692142Y-37904285D01*
X106763571Y-37940000D01*
X106799285Y-37975714D01*
X106835000Y-38047142D01*
X106835000Y-38154285D01*
X106799285Y-38225714D01*
X106763571Y-38261428D01*
X106692142Y-38297142D01*
X106406428Y-38297142D01*
X107513571Y-37904285D02*
X107156428Y-37904285D01*
X107120714Y-38261428D01*
X107156428Y-38225714D01*
X107227857Y-38190000D01*
X107406428Y-38190000D01*
X107477857Y-38225714D01*
X107513571Y-38261428D01*
X107549285Y-38332857D01*
X107549285Y-38511428D01*
X107513571Y-38582857D01*
X107477857Y-38618571D01*
X107406428Y-38654285D01*
X107227857Y-38654285D01*
X107156428Y-38618571D01*
X107120714Y-38582857D01*
D15*
%TO.C,C17*%
X105857142Y-45857142D02*
X105809523Y-45904761D01*
X105666666Y-45952380D01*
X105571428Y-45952380D01*
X105428571Y-45904761D01*
X105333333Y-45809523D01*
X105285714Y-45714285D01*
X105238095Y-45523809D01*
X105238095Y-45380952D01*
X105285714Y-45190476D01*
X105333333Y-45095238D01*
X105428571Y-45000000D01*
X105571428Y-44952380D01*
X105666666Y-44952380D01*
X105809523Y-45000000D01*
X105857142Y-45047619D01*
X106809523Y-45952380D02*
X106238095Y-45952380D01*
X106523809Y-45952380D02*
X106523809Y-44952380D01*
X106428571Y-45095238D01*
X106333333Y-45190476D01*
X106238095Y-45238095D01*
X107142857Y-44952380D02*
X107809523Y-44952380D01*
X107380952Y-45952380D01*
D13*
%TO.C,C8*%
X124476666Y-34693571D02*
X124452857Y-34717380D01*
X124381428Y-34741190D01*
X124333809Y-34741190D01*
X124262380Y-34717380D01*
X124214761Y-34669761D01*
X124190952Y-34622142D01*
X124167142Y-34526904D01*
X124167142Y-34455476D01*
X124190952Y-34360238D01*
X124214761Y-34312619D01*
X124262380Y-34265000D01*
X124333809Y-34241190D01*
X124381428Y-34241190D01*
X124452857Y-34265000D01*
X124476666Y-34288809D01*
X124762380Y-34455476D02*
X124714761Y-34431666D01*
X124690952Y-34407857D01*
X124667142Y-34360238D01*
X124667142Y-34336428D01*
X124690952Y-34288809D01*
X124714761Y-34265000D01*
X124762380Y-34241190D01*
X124857619Y-34241190D01*
X124905238Y-34265000D01*
X124929047Y-34288809D01*
X124952857Y-34336428D01*
X124952857Y-34360238D01*
X124929047Y-34407857D01*
X124905238Y-34431666D01*
X124857619Y-34455476D01*
X124762380Y-34455476D01*
X124714761Y-34479285D01*
X124690952Y-34503095D01*
X124667142Y-34550714D01*
X124667142Y-34645952D01*
X124690952Y-34693571D01*
X124714761Y-34717380D01*
X124762380Y-34741190D01*
X124857619Y-34741190D01*
X124905238Y-34717380D01*
X124929047Y-34693571D01*
X124952857Y-34645952D01*
X124952857Y-34550714D01*
X124929047Y-34503095D01*
X124905238Y-34479285D01*
X124857619Y-34455476D01*
D12*
%TO.C,C15*%
X83427857Y-60282857D02*
X83392142Y-60318571D01*
X83285000Y-60354285D01*
X83213571Y-60354285D01*
X83106428Y-60318571D01*
X83035000Y-60247142D01*
X82999285Y-60175714D01*
X82963571Y-60032857D01*
X82963571Y-59925714D01*
X82999285Y-59782857D01*
X83035000Y-59711428D01*
X83106428Y-59640000D01*
X83213571Y-59604285D01*
X83285000Y-59604285D01*
X83392142Y-59640000D01*
X83427857Y-59675714D01*
X84142142Y-60354285D02*
X83713571Y-60354285D01*
X83927857Y-60354285D02*
X83927857Y-59604285D01*
X83856428Y-59711428D01*
X83785000Y-59782857D01*
X83713571Y-59818571D01*
X84820714Y-59604285D02*
X84463571Y-59604285D01*
X84427857Y-59961428D01*
X84463571Y-59925714D01*
X84535000Y-59890000D01*
X84713571Y-59890000D01*
X84785000Y-59925714D01*
X84820714Y-59961428D01*
X84856428Y-60032857D01*
X84856428Y-60211428D01*
X84820714Y-60282857D01*
X84785000Y-60318571D01*
X84713571Y-60354285D01*
X84535000Y-60354285D01*
X84463571Y-60318571D01*
X84427857Y-60282857D01*
D15*
%TO.C,SW1*%
X74976666Y-63284761D02*
X75119523Y-63332380D01*
X75357619Y-63332380D01*
X75452857Y-63284761D01*
X75500476Y-63237142D01*
X75548095Y-63141904D01*
X75548095Y-63046666D01*
X75500476Y-62951428D01*
X75452857Y-62903809D01*
X75357619Y-62856190D01*
X75167142Y-62808571D01*
X75071904Y-62760952D01*
X75024285Y-62713333D01*
X74976666Y-62618095D01*
X74976666Y-62522857D01*
X75024285Y-62427619D01*
X75071904Y-62380000D01*
X75167142Y-62332380D01*
X75405238Y-62332380D01*
X75548095Y-62380000D01*
X75881428Y-62332380D02*
X76119523Y-63332380D01*
X76310000Y-62618095D01*
X76500476Y-63332380D01*
X76738571Y-62332380D01*
X77643333Y-63332380D02*
X77071904Y-63332380D01*
X77357619Y-63332380D02*
X77357619Y-62332380D01*
X77262380Y-62475238D01*
X77167142Y-62570476D01*
X77071904Y-62618095D01*
D12*
%TO.C,R27*%
X99399285Y-46697142D02*
X99042142Y-46947142D01*
X99399285Y-47125714D02*
X98649285Y-47125714D01*
X98649285Y-46840000D01*
X98685000Y-46768571D01*
X98720714Y-46732857D01*
X98792142Y-46697142D01*
X98899285Y-46697142D01*
X98970714Y-46732857D01*
X99006428Y-46768571D01*
X99042142Y-46840000D01*
X99042142Y-47125714D01*
X98720714Y-46411428D02*
X98685000Y-46375714D01*
X98649285Y-46304285D01*
X98649285Y-46125714D01*
X98685000Y-46054285D01*
X98720714Y-46018571D01*
X98792142Y-45982857D01*
X98863571Y-45982857D01*
X98970714Y-46018571D01*
X99399285Y-46447142D01*
X99399285Y-45982857D01*
X98649285Y-45732857D02*
X98649285Y-45232857D01*
X99399285Y-45554285D01*
D15*
%TO.C,U4*%
X80087895Y-24490780D02*
X80087895Y-25300304D01*
X80135514Y-25395542D01*
X80183133Y-25443161D01*
X80278371Y-25490780D01*
X80468847Y-25490780D01*
X80564085Y-25443161D01*
X80611704Y-25395542D01*
X80659323Y-25300304D01*
X80659323Y-24490780D01*
X81564085Y-24824114D02*
X81564085Y-25490780D01*
X81325990Y-24443161D02*
X81087895Y-25157447D01*
X81706942Y-25157447D01*
D13*
%TO.C,IC1*%
X76521904Y-52691190D02*
X76521904Y-52191190D01*
X77045714Y-52643571D02*
X77021904Y-52667380D01*
X76950476Y-52691190D01*
X76902857Y-52691190D01*
X76831428Y-52667380D01*
X76783809Y-52619761D01*
X76760000Y-52572142D01*
X76736190Y-52476904D01*
X76736190Y-52405476D01*
X76760000Y-52310238D01*
X76783809Y-52262619D01*
X76831428Y-52215000D01*
X76902857Y-52191190D01*
X76950476Y-52191190D01*
X77021904Y-52215000D01*
X77045714Y-52238809D01*
X77521904Y-52691190D02*
X77236190Y-52691190D01*
X77379047Y-52691190D02*
X77379047Y-52191190D01*
X77331428Y-52262619D01*
X77283809Y-52310238D01*
X77236190Y-52334047D01*
%TO.C,R11*%
X112626190Y-78721428D02*
X112388095Y-78888095D01*
X112626190Y-79007142D02*
X112126190Y-79007142D01*
X112126190Y-78816666D01*
X112150000Y-78769047D01*
X112173809Y-78745238D01*
X112221428Y-78721428D01*
X112292857Y-78721428D01*
X112340476Y-78745238D01*
X112364285Y-78769047D01*
X112388095Y-78816666D01*
X112388095Y-79007142D01*
X112626190Y-78245238D02*
X112626190Y-78530952D01*
X112626190Y-78388095D02*
X112126190Y-78388095D01*
X112197619Y-78435714D01*
X112245238Y-78483333D01*
X112269047Y-78530952D01*
X112626190Y-77769047D02*
X112626190Y-78054761D01*
X112626190Y-77911904D02*
X112126190Y-77911904D01*
X112197619Y-77959523D01*
X112245238Y-78007142D01*
X112269047Y-78054761D01*
D12*
%TO.C,C9*%
X124335000Y-30282857D02*
X124299285Y-30318571D01*
X124192142Y-30354285D01*
X124120714Y-30354285D01*
X124013571Y-30318571D01*
X123942142Y-30247142D01*
X123906428Y-30175714D01*
X123870714Y-30032857D01*
X123870714Y-29925714D01*
X123906428Y-29782857D01*
X123942142Y-29711428D01*
X124013571Y-29640000D01*
X124120714Y-29604285D01*
X124192142Y-29604285D01*
X124299285Y-29640000D01*
X124335000Y-29675714D01*
X124692142Y-30354285D02*
X124835000Y-30354285D01*
X124906428Y-30318571D01*
X124942142Y-30282857D01*
X125013571Y-30175714D01*
X125049285Y-30032857D01*
X125049285Y-29747142D01*
X125013571Y-29675714D01*
X124977857Y-29640000D01*
X124906428Y-29604285D01*
X124763571Y-29604285D01*
X124692142Y-29640000D01*
X124656428Y-29675714D01*
X124620714Y-29747142D01*
X124620714Y-29925714D01*
X124656428Y-29997142D01*
X124692142Y-30032857D01*
X124763571Y-30068571D01*
X124906428Y-30068571D01*
X124977857Y-30032857D01*
X125013571Y-29997142D01*
X125049285Y-29925714D01*
%TO.C,R10*%
X84438571Y-47491190D02*
X84271904Y-47253095D01*
X84152857Y-47491190D02*
X84152857Y-46991190D01*
X84343333Y-46991190D01*
X84390952Y-47015000D01*
X84414761Y-47038809D01*
X84438571Y-47086428D01*
X84438571Y-47157857D01*
X84414761Y-47205476D01*
X84390952Y-47229285D01*
X84343333Y-47253095D01*
X84152857Y-47253095D01*
X84914761Y-47491190D02*
X84629047Y-47491190D01*
X84771904Y-47491190D02*
X84771904Y-46991190D01*
X84724285Y-47062619D01*
X84676666Y-47110238D01*
X84629047Y-47134047D01*
X85224285Y-46991190D02*
X85271904Y-46991190D01*
X85319523Y-47015000D01*
X85343333Y-47038809D01*
X85367142Y-47086428D01*
X85390952Y-47181666D01*
X85390952Y-47300714D01*
X85367142Y-47395952D01*
X85343333Y-47443571D01*
X85319523Y-47467380D01*
X85271904Y-47491190D01*
X85224285Y-47491190D01*
X85176666Y-47467380D01*
X85152857Y-47443571D01*
X85129047Y-47395952D01*
X85105238Y-47300714D01*
X85105238Y-47181666D01*
X85129047Y-47086428D01*
X85152857Y-47038809D01*
X85176666Y-47015000D01*
X85224285Y-46991190D01*
%TO.C,C13*%
X131677857Y-41182857D02*
X131642142Y-41218571D01*
X131535000Y-41254285D01*
X131463571Y-41254285D01*
X131356428Y-41218571D01*
X131285000Y-41147142D01*
X131249285Y-41075714D01*
X131213571Y-40932857D01*
X131213571Y-40825714D01*
X131249285Y-40682857D01*
X131285000Y-40611428D01*
X131356428Y-40540000D01*
X131463571Y-40504285D01*
X131535000Y-40504285D01*
X131642142Y-40540000D01*
X131677857Y-40575714D01*
X132392142Y-41254285D02*
X131963571Y-41254285D01*
X132177857Y-41254285D02*
X132177857Y-40504285D01*
X132106428Y-40611428D01*
X132035000Y-40682857D01*
X131963571Y-40718571D01*
X132642142Y-40504285D02*
X133106428Y-40504285D01*
X132856428Y-40790000D01*
X132963571Y-40790000D01*
X133035000Y-40825714D01*
X133070714Y-40861428D01*
X133106428Y-40932857D01*
X133106428Y-41111428D01*
X133070714Y-41182857D01*
X133035000Y-41218571D01*
X132963571Y-41254285D01*
X132749285Y-41254285D01*
X132677857Y-41218571D01*
X132642142Y-41182857D01*
%TO.C,R7*%
X88489285Y-46625000D02*
X88132142Y-46875000D01*
X88489285Y-47053571D02*
X87739285Y-47053571D01*
X87739285Y-46767857D01*
X87775000Y-46696428D01*
X87810714Y-46660714D01*
X87882142Y-46625000D01*
X87989285Y-46625000D01*
X88060714Y-46660714D01*
X88096428Y-46696428D01*
X88132142Y-46767857D01*
X88132142Y-47053571D01*
X87739285Y-46375000D02*
X87739285Y-45875000D01*
X88489285Y-46196428D01*
%TO.C,R17*%
X123577857Y-45854285D02*
X123327857Y-45497142D01*
X123149285Y-45854285D02*
X123149285Y-45104285D01*
X123435000Y-45104285D01*
X123506428Y-45140000D01*
X123542142Y-45175714D01*
X123577857Y-45247142D01*
X123577857Y-45354285D01*
X123542142Y-45425714D01*
X123506428Y-45461428D01*
X123435000Y-45497142D01*
X123149285Y-45497142D01*
X124292142Y-45854285D02*
X123863571Y-45854285D01*
X124077857Y-45854285D02*
X124077857Y-45104285D01*
X124006428Y-45211428D01*
X123935000Y-45282857D01*
X123863571Y-45318571D01*
X124542142Y-45104285D02*
X125042142Y-45104285D01*
X124720714Y-45854285D01*
%TO.C,R4*%
X65735000Y-40954285D02*
X65485000Y-40597142D01*
X65306428Y-40954285D02*
X65306428Y-40204285D01*
X65592142Y-40204285D01*
X65663571Y-40240000D01*
X65699285Y-40275714D01*
X65735000Y-40347142D01*
X65735000Y-40454285D01*
X65699285Y-40525714D01*
X65663571Y-40561428D01*
X65592142Y-40597142D01*
X65306428Y-40597142D01*
X66377857Y-40454285D02*
X66377857Y-40954285D01*
X66199285Y-40168571D02*
X66020714Y-40704285D01*
X66485000Y-40704285D01*
D13*
%TO.C,U3*%
X96574047Y-53176190D02*
X96574047Y-53580952D01*
X96597857Y-53628571D01*
X96621666Y-53652380D01*
X96669285Y-53676190D01*
X96764523Y-53676190D01*
X96812142Y-53652380D01*
X96835952Y-53628571D01*
X96859761Y-53580952D01*
X96859761Y-53176190D01*
X97050238Y-53176190D02*
X97359761Y-53176190D01*
X97193095Y-53366666D01*
X97264523Y-53366666D01*
X97312142Y-53390476D01*
X97335952Y-53414285D01*
X97359761Y-53461904D01*
X97359761Y-53580952D01*
X97335952Y-53628571D01*
X97312142Y-53652380D01*
X97264523Y-53676190D01*
X97121666Y-53676190D01*
X97074047Y-53652380D01*
X97050238Y-53628571D01*
D17*
%TO.C,R19*%
X83578571Y-56926190D02*
X83411904Y-56688095D01*
X83292857Y-56926190D02*
X83292857Y-56426190D01*
X83483333Y-56426190D01*
X83530952Y-56450000D01*
X83554761Y-56473809D01*
X83578571Y-56521428D01*
X83578571Y-56592857D01*
X83554761Y-56640476D01*
X83530952Y-56664285D01*
X83483333Y-56688095D01*
X83292857Y-56688095D01*
X84054761Y-56926190D02*
X83769047Y-56926190D01*
X83911904Y-56926190D02*
X83911904Y-56426190D01*
X83864285Y-56497619D01*
X83816666Y-56545238D01*
X83769047Y-56569047D01*
X84292857Y-56926190D02*
X84388095Y-56926190D01*
X84435714Y-56902380D01*
X84459523Y-56878571D01*
X84507142Y-56807142D01*
X84530952Y-56711904D01*
X84530952Y-56521428D01*
X84507142Y-56473809D01*
X84483333Y-56450000D01*
X84435714Y-56426190D01*
X84340476Y-56426190D01*
X84292857Y-56450000D01*
X84269047Y-56473809D01*
X84245238Y-56521428D01*
X84245238Y-56640476D01*
X84269047Y-56688095D01*
X84292857Y-56711904D01*
X84340476Y-56735714D01*
X84435714Y-56735714D01*
X84483333Y-56711904D01*
X84507142Y-56688095D01*
X84530952Y-56640476D01*
D18*
%TO.C,D5*%
X62310000Y-34115000D02*
X62310000Y-36115000D01*
X62310000Y-36115000D02*
X66210000Y-36115000D01*
X62310000Y-34115000D02*
X66210000Y-34115000D01*
%TO.C,R12*%
X110588748Y-79135000D02*
X111111252Y-79135000D01*
X110588748Y-77665000D02*
X111111252Y-77665000D01*
%TO.C,R9*%
X93435000Y-46238748D02*
X93435000Y-46761252D01*
X91965000Y-46238748D02*
X91965000Y-46761252D01*
%TO.C,R28*%
X63925000Y-50776252D02*
X63925000Y-50253748D01*
X65395000Y-50776252D02*
X65395000Y-50253748D01*
%TO.C,R26*%
X66995000Y-60371252D02*
X66995000Y-59848748D01*
X65525000Y-60371252D02*
X65525000Y-59848748D01*
%TO.C,R2*%
X111221252Y-40450000D02*
X110698748Y-40450000D01*
X111221252Y-38980000D02*
X110698748Y-38980000D01*
%TO.C,U7*%
X96655000Y-37890000D02*
X102665000Y-37890000D01*
X102665000Y-44710000D02*
X102665000Y-43450000D01*
X102665000Y-37890000D02*
X102665000Y-39150000D01*
X98905000Y-44710000D02*
X102665000Y-44710000D01*
%TO.C,R6*%
X121525000Y-32476252D02*
X121525000Y-31953748D01*
X122995000Y-32476252D02*
X122995000Y-31953748D01*
%TO.C,D2*%
X112815000Y-74511252D02*
X112815000Y-73988748D01*
X114285000Y-74511252D02*
X114285000Y-73988748D01*
%TO.C,U1*%
X67865000Y-39150000D02*
X67865000Y-37350000D01*
X64645000Y-37350000D02*
X64645000Y-39800000D01*
%TO.C,EXT_BATT1*%
X73335000Y-35145000D02*
X72005000Y-35145000D01*
X72005000Y-35145000D02*
X72005000Y-33815000D01*
X77205000Y-35145000D02*
X77205000Y-32485000D01*
X74605000Y-35145000D02*
X77205000Y-35145000D01*
X74605000Y-32485000D02*
X77205000Y-32485000D01*
X74605000Y-35145000D02*
X74605000Y-32485000D01*
%TO.C,C3*%
X84070000Y-42826252D02*
X84070000Y-41403748D01*
X82250000Y-42826252D02*
X82250000Y-41403748D01*
%TO.C,AUX_CONN2*%
X105580000Y-88180000D02*
X105580000Y-80500000D01*
X102920000Y-88180000D02*
X102920000Y-80500000D01*
X105580000Y-90780000D02*
X104250000Y-90780000D01*
X105580000Y-89450000D02*
X105580000Y-90780000D01*
X105580000Y-80500000D02*
X102920000Y-80500000D01*
X105580000Y-88180000D02*
X102920000Y-88180000D01*
%TO.C,Q1*%
X73757000Y-47208200D02*
X73757000Y-46938200D01*
X73757000Y-40308200D02*
X73757000Y-40578200D01*
X73757000Y-46938200D02*
X72657000Y-46938200D01*
X73757000Y-40578200D02*
X70927000Y-40578200D01*
X75257000Y-40308200D02*
X73757000Y-40308200D01*
X75257000Y-47208200D02*
X73757000Y-47208200D01*
%TO.C,R1*%
X61998748Y-41380000D02*
X62521252Y-41380000D01*
X61998748Y-42850000D02*
X62521252Y-42850000D01*
%TO.C,C6*%
X114921252Y-40450000D02*
X114398748Y-40450000D01*
X114921252Y-38980000D02*
X114398748Y-38980000D01*
%TO.C,C4*%
X95270000Y-41126252D02*
X95270000Y-39703748D01*
X93450000Y-41126252D02*
X93450000Y-39703748D01*
%TO.C,U5*%
X128568300Y-43129900D02*
X128568300Y-41629900D01*
X125348300Y-44629900D02*
X125348300Y-41629900D01*
%TO.C,R22*%
X62725000Y-77053748D02*
X62725000Y-77576252D01*
X64195000Y-77053748D02*
X64195000Y-77576252D01*
%TO.C,R3*%
X106798748Y-42080000D02*
X107321252Y-42080000D01*
X106798748Y-43550000D02*
X107321252Y-43550000D01*
%TO.C,L1*%
X87125000Y-40376252D02*
X87125000Y-39853748D01*
X88595000Y-40376252D02*
X88595000Y-39853748D01*
%TO.C,C10*%
X125925000Y-32476252D02*
X125925000Y-31953748D01*
X127395000Y-32476252D02*
X127395000Y-31953748D01*
%TO.C,C5*%
X123095000Y-36876252D02*
X123095000Y-36353748D01*
X121625000Y-36876252D02*
X121625000Y-36353748D01*
%TO.C,C12*%
X130595000Y-42853748D02*
X130595000Y-43376252D01*
X129125000Y-42853748D02*
X129125000Y-43376252D01*
%TO.C,R24*%
X84595000Y-65753748D02*
X84595000Y-66276252D01*
X83125000Y-65753748D02*
X83125000Y-66276252D01*
D15*
%TO.C,U6*%
X136085000Y-49702500D02*
X116335000Y-49702500D01*
X118085000Y-46802500D02*
X118085000Y-49702500D01*
X136085000Y-76252500D02*
X136085000Y-49702500D01*
X118845000Y-78722500D02*
X118845000Y-76247500D01*
X116335000Y-49702500D02*
X116335000Y-76252500D01*
X136085000Y-76252500D02*
X116335000Y-76252500D01*
X131545000Y-76182500D02*
X131545000Y-78722500D01*
X131545000Y-78727500D02*
X118845000Y-78727500D01*
X129335000Y-49702500D02*
X129335000Y-46802500D01*
X129335000Y-46802500D02*
X118085000Y-46802500D01*
X124136562Y-71127500D02*
G75*
G03*
X124136562Y-71127500I-3201562J0D01*
G01*
X123479345Y-71121844D02*
G75*
G03*
X123479345Y-71121844I-2594345J0D01*
G01*
X134085000Y-67292500D02*
X127735000Y-67292500D01*
X127735000Y-67292500D02*
X127735000Y-76182500D01*
X127735000Y-76182500D02*
X134085000Y-76182500D01*
X134085000Y-76182500D02*
X134085000Y-67292500D01*
G36*
X134085000Y-76182500D02*
G01*
X127735000Y-76182500D01*
X127735000Y-67292500D01*
X134085000Y-67292500D01*
X134085000Y-76182500D01*
G37*
X134085000Y-76182500D02*
X127735000Y-76182500D01*
X127735000Y-67292500D01*
X134085000Y-67292500D01*
X134085000Y-76182500D01*
D18*
%TO.C,C16*%
X67525000Y-59853748D02*
X67525000Y-60376252D01*
X68995000Y-59853748D02*
X68995000Y-60376252D01*
%TO.C,R20*%
X72525000Y-54353748D02*
X72525000Y-54876252D01*
X73995000Y-54353748D02*
X73995000Y-54876252D01*
%TO.C,SW2*%
X54210000Y-46115000D02*
X54210000Y-51915000D01*
X60710000Y-46015000D02*
X60710000Y-52015000D01*
X55160000Y-54115000D02*
X54160000Y-54115000D01*
X56160000Y-52115000D02*
X58760000Y-52115000D01*
X54160000Y-54115000D02*
X54160000Y-53115000D01*
X56160000Y-45915000D02*
X58760000Y-45915000D01*
%TO.C,D6*%
X111785000Y-74511252D02*
X111785000Y-73988748D01*
X110315000Y-74511252D02*
X110315000Y-73988748D01*
%TO.C,U2*%
X89350000Y-39815000D02*
X89350000Y-41615000D01*
X92570000Y-41615000D02*
X92570000Y-39165000D01*
%TO.C,J1*%
X54272500Y-33315000D02*
X56122500Y-33315000D01*
X51722500Y-33315000D02*
X51972500Y-33315000D01*
X51722500Y-41115000D02*
X51972500Y-41115000D01*
X54272500Y-41115000D02*
X56122500Y-41115000D01*
X56672500Y-35515000D02*
X56222500Y-35515000D01*
X56672500Y-35515000D02*
X56672500Y-35965000D01*
X56122500Y-33315000D02*
X56122500Y-33765000D01*
X56122500Y-41115000D02*
X56122500Y-40665000D01*
%TO.C,5V_IN1*%
X58630000Y-36810000D02*
X58630000Y-39410000D01*
X58630000Y-36810000D02*
X61290000Y-36810000D01*
X58630000Y-35540000D02*
X58630000Y-34210000D01*
X58630000Y-39410000D02*
X61290000Y-39410000D01*
X61290000Y-36810000D02*
X61290000Y-39410000D01*
X58630000Y-34210000D02*
X59960000Y-34210000D01*
%TO.C,C7*%
X126025000Y-36353748D02*
X126025000Y-36876252D01*
X127495000Y-36353748D02*
X127495000Y-36876252D01*
%TO.C,AUX_CONN1*%
X102920000Y-79400000D02*
X105580000Y-79400000D01*
X102920000Y-71720000D02*
X102920000Y-79400000D01*
X102920000Y-70450000D02*
X102920000Y-69120000D01*
X105580000Y-71720000D02*
X105580000Y-79400000D01*
X102920000Y-71720000D02*
X105580000Y-71720000D01*
X102920000Y-69120000D02*
X104250000Y-69120000D01*
%TO.C,C2*%
X73848748Y-37690000D02*
X75271252Y-37690000D01*
X73848748Y-39510000D02*
X75271252Y-39510000D01*
%TO.C,R25*%
X69595000Y-50153748D02*
X69595000Y-50676252D01*
X68125000Y-50153748D02*
X68125000Y-50676252D01*
%TO.C,BT1*%
X77195000Y-30925000D02*
X77195000Y-28725000D01*
X73305000Y-27725000D02*
X72985000Y-27725000D01*
X75485000Y-24305000D02*
X75805000Y-24225000D01*
X78415000Y-30925000D02*
X77195000Y-30925000D01*
X71915000Y-28725000D02*
X71915000Y-30925000D01*
X70695000Y-22505000D02*
X78415000Y-22505000D01*
X78415000Y-23725000D02*
X77195000Y-23725000D01*
X70695000Y-30925000D02*
X70695000Y-22505000D01*
X74475000Y-28725000D02*
X74635000Y-28725000D01*
X75485000Y-27725000D02*
X75485000Y-24305000D01*
X71915000Y-27725000D02*
X77195000Y-27725000D01*
X70695000Y-23725000D02*
X71915000Y-23725000D01*
X71915000Y-28725000D02*
X70695000Y-28725000D01*
X73305000Y-24225000D02*
X73625000Y-24305000D01*
X73005000Y-31415000D02*
X73605000Y-31415000D01*
X72985000Y-27725000D02*
X72985000Y-24305000D01*
X72985000Y-24305000D02*
X73305000Y-24225000D01*
X73625000Y-27725000D02*
X73305000Y-27725000D01*
X75805000Y-24225000D02*
X76125000Y-24305000D01*
X76125000Y-24305000D02*
X76125000Y-27725000D01*
X73625000Y-24305000D02*
X73625000Y-27725000D01*
X73605000Y-31415000D02*
X73305000Y-30815000D01*
X78415000Y-22505000D02*
X78415000Y-30925000D01*
X73305000Y-30815000D02*
X73005000Y-31415000D01*
X71915000Y-23725000D02*
X71915000Y-28725000D01*
X75805000Y-27725000D02*
X75485000Y-27725000D01*
X77195000Y-23725000D02*
X77195000Y-28725000D01*
X77195000Y-28725000D02*
X78415000Y-28725000D01*
X76125000Y-27725000D02*
X75805000Y-27725000D01*
X71915000Y-30925000D02*
X70695000Y-30925000D01*
%TO.C,C1*%
X70320000Y-38153748D02*
X70320000Y-39576252D01*
X68500000Y-38153748D02*
X68500000Y-39576252D01*
%TO.C,D3*%
X67720000Y-52100000D02*
X67720000Y-49415000D01*
X65800000Y-49415000D02*
X65800000Y-52100000D01*
X65800000Y-52100000D02*
X67720000Y-52100000D01*
%TO.C,R8*%
X96035000Y-46238748D02*
X96035000Y-46761252D01*
X94565000Y-46238748D02*
X94565000Y-46761252D01*
%TO.C,D1*%
X68410000Y-43515000D02*
X64510000Y-43515000D01*
X68410000Y-45515000D02*
X68410000Y-43515000D01*
X68410000Y-45515000D02*
X64510000Y-45515000D01*
%TO.C,R23*%
X61895000Y-77576252D02*
X61895000Y-77053748D01*
X60425000Y-77576252D02*
X60425000Y-77053748D01*
%TO.C,R18*%
X121025000Y-42903748D02*
X121025000Y-43426252D01*
X122495000Y-42903748D02*
X122495000Y-43426252D01*
%TO.C,R5*%
X106698748Y-40500000D02*
X107221252Y-40500000D01*
X106698748Y-39030000D02*
X107221252Y-39030000D01*
%TO.C,C17*%
X103998748Y-46480000D02*
X104521252Y-46480000D01*
X103998748Y-47950000D02*
X104521252Y-47950000D01*
%TO.C,C8*%
X123825000Y-36353748D02*
X123825000Y-36876252D01*
X125295000Y-36353748D02*
X125295000Y-36876252D01*
%TO.C,AUX_CONN3*%
X114490000Y-88045000D02*
X114490000Y-80365000D01*
X111830000Y-88045000D02*
X111830000Y-80365000D01*
X114490000Y-89315000D02*
X114490000Y-90645000D01*
X114490000Y-88045000D02*
X111830000Y-88045000D01*
X114490000Y-90645000D02*
X113160000Y-90645000D01*
X114490000Y-80365000D02*
X111830000Y-80365000D01*
%TO.C,C15*%
X83125000Y-62153748D02*
X83125000Y-62676252D01*
X84595000Y-62153748D02*
X84595000Y-62676252D01*
%TO.C,SW1*%
X73360000Y-66565000D02*
X79160000Y-66565000D01*
X81360000Y-66615000D02*
X80360000Y-66615000D01*
X81360000Y-65615000D02*
X81360000Y-66615000D01*
X79360000Y-64615000D02*
X79360000Y-62015000D01*
X73160000Y-64615000D02*
X73160000Y-62015000D01*
X73260000Y-60065000D02*
X79260000Y-60065000D01*
%TO.C,D4*%
X61400000Y-48830000D02*
X61400000Y-51515000D01*
X63320000Y-51515000D02*
X63320000Y-48830000D01*
X63320000Y-48830000D02*
X61400000Y-48830000D01*
%TO.C,R27*%
X101195000Y-46876252D02*
X101195000Y-46353748D01*
X99725000Y-46876252D02*
X99725000Y-46353748D01*
D15*
%TO.C,U4*%
X79071800Y-37554400D02*
X109071800Y-37554400D01*
D12*
X103551800Y-28154400D02*
X103551800Y-33734400D01*
D15*
X119071800Y-37554400D02*
X114071800Y-37554400D01*
X114071800Y-28554400D02*
X113071800Y-29554400D01*
D12*
X81171800Y-33734400D02*
X103551800Y-33734400D01*
D15*
X79071800Y-26054400D02*
X109071800Y-26054400D01*
X109071800Y-26054400D02*
X109071800Y-37554400D01*
X113071800Y-29554400D02*
X109071800Y-29554400D01*
D12*
X81171800Y-28154400D02*
X81171800Y-33734400D01*
X105071800Y-26054400D02*
X105071800Y-37554400D01*
D15*
X79071800Y-37554400D02*
X79071800Y-26054400D01*
X119071800Y-28554400D02*
X114071800Y-28554400D01*
X113671800Y-37154400D02*
X109071800Y-37154400D01*
X114071800Y-37554400D02*
X113671800Y-37154400D01*
D12*
X81171800Y-28154400D02*
X103551800Y-28154400D01*
D19*
%TO.C,IC1*%
X82755000Y-50500000D02*
X82755000Y-49900000D01*
X75755000Y-50500000D02*
X75755000Y-49900000D01*
X82755000Y-54900000D02*
X81155000Y-54900000D01*
X75755000Y-54300000D02*
X75755000Y-54900000D01*
X75755000Y-49900000D02*
X77355000Y-49900000D01*
X75755000Y-54900000D02*
X77355000Y-54900000D01*
X82755000Y-49900000D02*
X81155000Y-49900000D01*
X82755000Y-54300000D02*
X82755000Y-54900000D01*
D14*
X78196419Y-56100000D02*
G75*
G03*
X78196419Y-56100000I-141419J0D01*
G01*
D18*
%TO.C,R11*%
X114388748Y-79135000D02*
X114911252Y-79135000D01*
X114388748Y-77665000D02*
X114911252Y-77665000D01*
%TO.C,C9*%
X125195000Y-32476252D02*
X125195000Y-31953748D01*
X123725000Y-32476252D02*
X123725000Y-31953748D01*
%TO.C,R10*%
X85495000Y-49203748D02*
X85495000Y-49726252D01*
X84025000Y-49203748D02*
X84025000Y-49726252D01*
%TO.C,C13*%
X131425000Y-43376252D02*
X131425000Y-42853748D01*
X132895000Y-43376252D02*
X132895000Y-42853748D01*
%TO.C,R7*%
X90485000Y-46238748D02*
X90485000Y-46761252D01*
X89015000Y-46238748D02*
X89015000Y-46761252D01*
%TO.C,R17*%
X124795000Y-42903748D02*
X124795000Y-43426252D01*
X123325000Y-42903748D02*
X123325000Y-43426252D01*
%TO.C,R4*%
X66121252Y-41380000D02*
X65598748Y-41380000D01*
X66121252Y-42850000D02*
X65598748Y-42850000D01*
%TO.C,U3*%
X87400000Y-49030000D02*
X86620000Y-49030000D01*
X112365000Y-49030000D02*
X105945000Y-49030000D01*
X86620000Y-67270000D02*
X86620000Y-66270000D01*
X86620000Y-49030000D02*
X86620000Y-50030000D01*
X112365000Y-67270000D02*
X105945000Y-67270000D01*
X87400000Y-67270000D02*
X86620000Y-67270000D01*
X105945000Y-49030000D02*
X105945000Y-48650000D01*
X112365000Y-49030000D02*
X112365000Y-67270000D01*
%TO.C,R19*%
X81198748Y-57450000D02*
X81721252Y-57450000D01*
X81198748Y-55980000D02*
X81721252Y-55980000D01*
%TO.C,AUX_CONN4*%
X123790000Y-89315000D02*
X123790000Y-90645000D01*
X123790000Y-88045000D02*
X123790000Y-80365000D01*
X123790000Y-80365000D02*
X121130000Y-80365000D01*
X121130000Y-88045000D02*
X121130000Y-80365000D01*
X123790000Y-90645000D02*
X122460000Y-90645000D01*
X123790000Y-88045000D02*
X121130000Y-88045000D01*
%TD*%
D20*
%TO.C,J2*%
X61680000Y-85555000D03*
X62840000Y-85555000D03*
X61680000Y-84285000D03*
X62840000Y-84285000D03*
X61680000Y-83015000D03*
X62840000Y-83015000D03*
X61680000Y-81745000D03*
X62840000Y-81745000D03*
X61680000Y-80475000D03*
X62840000Y-80475000D03*
%TD*%
M02*
