%TF.GenerationSoftware,KiCad,Pcbnew,(5.99.0-8928-gc255dede17)*%
%TF.CreationDate,2021-02-09T19:48:58-08:00*%
%TF.ProjectId,smbpcb,736d6270-6362-42e6-9b69-6361645f7063,rev?*%
%TF.SameCoordinates,Original*%
%TF.FileFunction,Paste,Top*%
%TF.FilePolarity,Positive*%
%FSLAX46Y46*%
G04 Gerber Fmt 4.6, Leading zero omitted, Abs format (unit mm)*
G04 Created by KiCad (PCBNEW (5.99.0-8928-gc255dede17)) date 2021-02-09 19:48:58*
%MOMM*%
%LPD*%
G01*
G04 APERTURE LIST*
G04 Aperture macros list*
%AMRoundRect*
0 Rectangle with rounded corners*
0 $1 Rounding radius*
0 $2 $3 $4 $5 $6 $7 $8 $9 X,Y pos of 4 corners*
0 Add a 4 corners polygon primitive as box body*
4,1,4,$2,$3,$4,$5,$6,$7,$8,$9,$2,$3,0*
0 Add four circle primitives for the rounded corners*
1,1,$1+$1,$2,$3*
1,1,$1+$1,$4,$5*
1,1,$1+$1,$6,$7*
1,1,$1+$1,$8,$9*
0 Add four rect primitives between the rounded corners*
20,1,$1+$1,$2,$3,$4,$5,0*
20,1,$1+$1,$4,$5,$6,$7,0*
20,1,$1+$1,$6,$7,$8,$9,0*
20,1,$1+$1,$8,$9,$2,$3,0*%
G04 Aperture macros list end*
%ADD10RoundRect,0.250000X-0.250000X-0.475000X0.250000X-0.475000X0.250000X0.475000X-0.250000X0.475000X0*%
%ADD11RoundRect,0.250000X0.475000X-0.250000X0.475000X0.250000X-0.475000X0.250000X-0.475000X-0.250000X0*%
%ADD12RoundRect,0.250000X0.250000X0.475000X-0.250000X0.475000X-0.250000X-0.475000X0.250000X-0.475000X0*%
%ADD13R,0.900000X1.200000*%
%ADD14RoundRect,0.079500X-0.079500X-0.100500X0.079500X-0.100500X0.079500X0.100500X-0.079500X0.100500X0*%
%ADD15R,0.650000X1.060000*%
%ADD16RoundRect,0.250000X0.650000X-0.325000X0.650000X0.325000X-0.650000X0.325000X-0.650000X-0.325000X0*%
%ADD17R,2.200000X1.200000*%
%ADD18R,3.050000X2.750000*%
%ADD19RoundRect,0.250000X-0.325000X-0.650000X0.325000X-0.650000X0.325000X0.650000X-0.325000X0.650000X0*%
%ADD20RoundRect,0.079500X-0.100500X0.079500X-0.100500X-0.079500X0.100500X-0.079500X0.100500X0.079500X0*%
%ADD21RoundRect,0.079500X0.079500X0.100500X-0.079500X0.100500X-0.079500X-0.100500X0.079500X-0.100500X0*%
%ADD22RoundRect,0.250000X-0.475000X0.250000X-0.475000X-0.250000X0.475000X-0.250000X0.475000X0.250000X0*%
%ADD23RoundRect,0.125000X0.125000X0.137500X-0.125000X0.137500X-0.125000X-0.137500X0.125000X-0.137500X0*%
%ADD24O,0.800000X0.230000*%
%ADD25R,0.230000X0.230000*%
%ADD26R,0.260000X0.500000*%
%ADD27R,0.680000X1.050000*%
%ADD28RoundRect,0.079500X0.100500X-0.079500X0.100500X0.079500X-0.100500X0.079500X-0.100500X-0.079500X0*%
%ADD29R,1.600000X1.400000*%
%ADD30R,1.400000X0.400000*%
%ADD31R,1.900000X1.750000*%
%ADD32R,1.450000X1.150000*%
%ADD33R,1.200000X0.900000*%
%ADD34R,1.300000X0.600000*%
%ADD35RoundRect,0.250000X-0.650000X0.325000X-0.650000X-0.325000X0.650000X-0.325000X0.650000X0.325000X0*%
%ADD36RoundRect,0.243750X-0.243750X-0.456250X0.243750X-0.456250X0.243750X0.456250X-0.243750X0.456250X0*%
%ADD37O,4.000000X0.320000*%
%ADD38R,0.600000X1.500000*%
%ADD39R,1.500000X0.600000*%
%ADD40R,0.900000X2.000000*%
%ADD41R,2.000000X0.900000*%
%ADD42R,5.000000X5.000000*%
G04 APERTURE END LIST*
D10*
%TO.C,R27*%
X102800000Y-59350000D03*
X100900000Y-59350000D03*
%TD*%
%TO.C,R23*%
X86050000Y-74400000D03*
X84150000Y-74400000D03*
%TD*%
%TO.C,R22*%
X86150000Y-72300000D03*
X84250000Y-72300000D03*
%TD*%
%TO.C,R18*%
X139278400Y-33959800D03*
X137378400Y-33959800D03*
%TD*%
%TO.C,R17*%
X139380000Y-31546800D03*
X137480000Y-31546800D03*
%TD*%
%TO.C,R9*%
X124750000Y-28925000D03*
X122850000Y-28925000D03*
%TD*%
%TO.C,R8*%
X124625000Y-31050000D03*
X122725000Y-31050000D03*
%TD*%
D11*
%TO.C,R7*%
X129286000Y-27955200D03*
X129286000Y-29855200D03*
%TD*%
D12*
%TO.C,R4*%
X82750000Y-32000000D03*
X84650000Y-32000000D03*
%TD*%
D13*
%TO.C,D5*%
X78600000Y-23850000D03*
X81900000Y-23850000D03*
%TD*%
D14*
%TO.C,R28*%
X83005000Y-39850000D03*
X83695000Y-39850000D03*
%TD*%
%TO.C,R26*%
X85055000Y-48500000D03*
X85745000Y-48500000D03*
%TD*%
D15*
%TO.C,U1*%
X82550000Y-27250000D03*
X84450000Y-27250000D03*
X84450000Y-29450000D03*
X83500000Y-29450000D03*
X82550000Y-29450000D03*
%TD*%
D10*
%TO.C,C9*%
X118550000Y-31750000D03*
X120450000Y-31750000D03*
%TD*%
D16*
%TO.C,C3*%
X100380800Y-28830200D03*
X100380800Y-31780200D03*
%TD*%
D17*
%TO.C,Q1*%
X89272000Y-36138200D03*
X89272000Y-31578200D03*
D18*
X93897000Y-35383200D03*
X97247000Y-32333200D03*
X97247000Y-35383200D03*
X93897000Y-32333200D03*
%TD*%
D19*
%TO.C,R1*%
X78025000Y-32600000D03*
X80975000Y-32600000D03*
%TD*%
D20*
%TO.C,R11*%
X116757500Y-59219000D03*
X116757500Y-59909000D03*
%TD*%
D12*
%TO.C,C7*%
X133331000Y-28827300D03*
X131431000Y-28827300D03*
%TD*%
D21*
%TO.C,R15*%
X119995000Y-68100000D03*
X119305000Y-68100000D03*
%TD*%
D22*
%TO.C,C10*%
X146456400Y-25161200D03*
X146456400Y-27061200D03*
%TD*%
%TO.C,C8*%
X143154400Y-25212000D03*
X143154400Y-27112000D03*
%TD*%
D23*
%TO.C,U5*%
X145403300Y-34417400D03*
X144603300Y-34417400D03*
X143803300Y-34417400D03*
X143003300Y-34417400D03*
X143003300Y-32042400D03*
X143803300Y-32042400D03*
X144603300Y-32042400D03*
X145403300Y-32042400D03*
%TD*%
D11*
%TO.C,C14*%
X145389600Y-21930400D03*
X145389600Y-20030400D03*
%TD*%
D10*
%TO.C,L1*%
X103950200Y-34242200D03*
X105850200Y-34242200D03*
%TD*%
D24*
%TO.C,U2*%
X109042200Y-31330600D03*
D25*
X109327200Y-31330600D03*
D24*
X109042200Y-30830600D03*
D25*
X109327200Y-30830600D03*
D24*
X109042200Y-30330600D03*
D25*
X109327200Y-30330600D03*
D24*
X109042200Y-29830600D03*
D25*
X109327200Y-29830600D03*
D24*
X109042200Y-29330600D03*
D25*
X109327200Y-29330600D03*
D24*
X106092200Y-29330600D03*
D25*
X105807200Y-29330600D03*
D24*
X106092200Y-29830600D03*
D25*
X105807200Y-29830600D03*
X105807200Y-30330600D03*
D24*
X106092200Y-30330600D03*
D25*
X105807200Y-30830600D03*
D24*
X106092200Y-30830600D03*
D25*
X105807200Y-31330600D03*
D24*
X106092200Y-31330600D03*
D26*
X107317200Y-28700600D03*
D27*
X108017200Y-30965600D03*
X107117200Y-30965600D03*
X107117200Y-29695600D03*
D26*
X107817200Y-31960600D03*
D27*
X108017200Y-29695600D03*
D26*
X107317200Y-31960600D03*
X107817200Y-28700600D03*
%TD*%
D14*
%TO.C,C12*%
X146499900Y-33636300D03*
X147189900Y-33636300D03*
%TD*%
%TO.C,R24*%
X101505000Y-55400000D03*
X102195000Y-55400000D03*
%TD*%
D11*
%TO.C,C5*%
X83132400Y-36767000D03*
X83132400Y-34867000D03*
%TD*%
D28*
%TO.C,R2*%
X101979200Y-30544400D03*
X101979200Y-31234400D03*
%TD*%
D21*
%TO.C,C16*%
X84795000Y-50600000D03*
X84105000Y-50600000D03*
%TD*%
%TO.C,R20*%
X91495000Y-43815000D03*
X90805000Y-43815000D03*
%TD*%
D29*
%TO.C,SW2*%
X88350000Y-57150000D03*
X80350000Y-57150000D03*
X88350000Y-52650000D03*
X80350000Y-52650000D03*
%TD*%
D30*
%TO.C,J1*%
X74600000Y-23750000D03*
X74600000Y-24400000D03*
X74600000Y-25050000D03*
X74600000Y-25700000D03*
X74600000Y-26350000D03*
D31*
X71950000Y-26175000D03*
X71950000Y-23925000D03*
D32*
X74180000Y-27370000D03*
X74180000Y-22730000D03*
%TD*%
D33*
%TO.C,D2*%
X120500000Y-36900000D03*
X120500000Y-33600000D03*
%TD*%
D14*
%TO.C,R6*%
X119915000Y-29500000D03*
X119225000Y-29500000D03*
%TD*%
%TO.C,R13*%
X115745000Y-64600000D03*
X115055000Y-64600000D03*
%TD*%
D19*
%TO.C,C2*%
X93925000Y-28700000D03*
X90975000Y-28700000D03*
%TD*%
D14*
%TO.C,R25*%
X90655000Y-39250000D03*
X91345000Y-39250000D03*
%TD*%
D34*
%TO.C,Q2*%
X115140500Y-61784000D03*
X115140500Y-59884000D03*
X113040500Y-60834000D03*
%TD*%
D28*
%TO.C,R14*%
X123000000Y-62155000D03*
X123000000Y-62845000D03*
%TD*%
D35*
%TO.C,C1*%
X86637600Y-30459400D03*
X86637600Y-27509400D03*
%TD*%
D36*
%TO.C,D3*%
X87387500Y-40050000D03*
X89262500Y-40050000D03*
%TD*%
D28*
%TO.C,R3*%
X101979200Y-28650000D03*
X101979200Y-29340000D03*
%TD*%
D33*
%TO.C,D1*%
X86028000Y-37263800D03*
X86028000Y-33963800D03*
%TD*%
D28*
%TO.C,R21*%
X139192000Y-21223800D03*
X139192000Y-20533800D03*
%TD*%
D37*
%TO.C,U4*%
X136316800Y-19094400D03*
X136316800Y-19714400D03*
X136316800Y-20334400D03*
X136316800Y-20954400D03*
X136316800Y-21574400D03*
X136316800Y-22194400D03*
X136316800Y-22814400D03*
X136316800Y-23434400D03*
X136316800Y-24054400D03*
X136316800Y-24674400D03*
X136316800Y-25294400D03*
X136316800Y-25914400D03*
X136316800Y-26534400D03*
X136316800Y-27154400D03*
%TD*%
D11*
%TO.C,C11*%
X142087600Y-21778000D03*
X142087600Y-19878000D03*
%TD*%
D21*
%TO.C,C15*%
X102245000Y-52850000D03*
X101555000Y-52850000D03*
%TD*%
D29*
%TO.C,SW1*%
X91150000Y-52500000D03*
X99150000Y-52500000D03*
X91150000Y-57000000D03*
X99150000Y-57000000D03*
%TD*%
D36*
%TO.C,D4*%
X79275000Y-39800000D03*
X81150000Y-39800000D03*
%TD*%
D10*
%TO.C,C4*%
X110825200Y-32029400D03*
X112725200Y-32029400D03*
%TD*%
D14*
%TO.C,R5*%
X119225000Y-30250000D03*
X119915000Y-30250000D03*
%TD*%
D11*
%TO.C,C6*%
X141017000Y-28659700D03*
X141017000Y-26759700D03*
%TD*%
D38*
%TO.C,IC1*%
X95250000Y-44750000D03*
X96500000Y-44750000D03*
X97750000Y-44750000D03*
D39*
X99750000Y-43770000D03*
X99750000Y-41230000D03*
D38*
X97750000Y-40250000D03*
X96500000Y-40250000D03*
X95250000Y-40250000D03*
D39*
X93250000Y-41230000D03*
X93250000Y-43770000D03*
%TD*%
D34*
%TO.C,Q3*%
X124600000Y-63850000D03*
X124600000Y-65750000D03*
X126700000Y-64800000D03*
%TD*%
D14*
%TO.C,R16*%
X119985000Y-67250000D03*
X119295000Y-67250000D03*
%TD*%
D20*
%TO.C,R10*%
X100203000Y-38354000D03*
X100203000Y-37664000D03*
%TD*%
D21*
%TO.C,C13*%
X146550700Y-32772700D03*
X147240700Y-32772700D03*
%TD*%
D28*
%TO.C,R12*%
X122150000Y-62845000D03*
X122150000Y-62155000D03*
%TD*%
D40*
%TO.C,U3*%
X122000000Y-39750000D03*
X120730000Y-39750000D03*
X119460000Y-39750000D03*
X118190000Y-39750000D03*
X116920000Y-39750000D03*
X115650000Y-39750000D03*
X114380000Y-39750000D03*
X113110000Y-39750000D03*
X111840000Y-39750000D03*
X110570000Y-39750000D03*
X109300000Y-39750000D03*
X108030000Y-39750000D03*
X106760000Y-39750000D03*
X105490000Y-39750000D03*
D41*
X104490000Y-42535000D03*
X104490000Y-43805000D03*
X104490000Y-45075000D03*
X104490000Y-46345000D03*
X104490000Y-47615000D03*
X104490000Y-48885000D03*
X104490000Y-50155000D03*
X104490000Y-51425000D03*
X104490000Y-52695000D03*
X104490000Y-53965000D03*
D40*
X105490000Y-56750000D03*
X106760000Y-56750000D03*
X108030000Y-56750000D03*
X109300000Y-56750000D03*
X110570000Y-56750000D03*
X111840000Y-56750000D03*
X113110000Y-56750000D03*
X114380000Y-56750000D03*
X115650000Y-56750000D03*
X116920000Y-56750000D03*
X118190000Y-56750000D03*
X119460000Y-56750000D03*
X120730000Y-56750000D03*
X122000000Y-56750000D03*
D42*
X114500000Y-47250000D03*
%TD*%
D21*
%TO.C,R19*%
X97013200Y-46507400D03*
X97703200Y-46507400D03*
%TD*%
M02*
