%TF.GenerationSoftware,KiCad,Pcbnew,(5.99.0-8928-gc255dede17)*%
%TF.CreationDate,2021-02-09T19:48:57-08:00*%
%TF.ProjectId,smbpcb,736d6270-6362-42e6-9b69-6361645f7063,rev?*%
%TF.SameCoordinates,Original*%
%TF.FileFunction,Copper,L2,Bot*%
%TF.FilePolarity,Positive*%
%FSLAX46Y46*%
G04 Gerber Fmt 4.6, Leading zero omitted, Abs format (unit mm)*
G04 Created by KiCad (PCBNEW (5.99.0-8928-gc255dede17)) date 2021-02-09 19:48:57*
%MOMM*%
%LPD*%
G01*
G04 APERTURE LIST*
G04 Aperture macros list*
%AMRoundRect*
0 Rectangle with rounded corners*
0 $1 Rounding radius*
0 $2 $3 $4 $5 $6 $7 $8 $9 X,Y pos of 4 corners*
0 Add a 4 corners polygon primitive as box body*
4,1,4,$2,$3,$4,$5,$6,$7,$8,$9,$2,$3,0*
0 Add four circle primitives for the rounded corners*
1,1,$1+$1,$2,$3*
1,1,$1+$1,$4,$5*
1,1,$1+$1,$6,$7*
1,1,$1+$1,$8,$9*
0 Add four rect primitives between the rounded corners*
20,1,$1+$1,$2,$3,$4,$5,0*
20,1,$1+$1,$4,$5,$6,$7,0*
20,1,$1+$1,$6,$7,$8,$9,0*
20,1,$1+$1,$8,$9,$2,$3,0*%
G04 Aperture macros list end*
%TA.AperFunction,ComponentPad*%
%ADD10C,5.700000*%
%TD*%
%TA.AperFunction,ComponentPad*%
%ADD11O,0.850000X0.850000*%
%TD*%
%TA.AperFunction,ComponentPad*%
%ADD12R,0.850000X0.850000*%
%TD*%
%TA.AperFunction,ComponentPad*%
%ADD13C,0.600000*%
%TD*%
%TA.AperFunction,SMDPad,CuDef*%
%ADD14R,2.300000X2.800000*%
%TD*%
%TA.AperFunction,ComponentPad*%
%ADD15C,1.524000*%
%TD*%
%TA.AperFunction,ComponentPad*%
%ADD16R,1.524000X1.524000*%
%TD*%
%TA.AperFunction,ComponentPad*%
%ADD17O,1.900000X1.050000*%
%TD*%
%TA.AperFunction,ComponentPad*%
%ADD18C,1.000000*%
%TD*%
%TA.AperFunction,ComponentPad*%
%ADD19O,1.700000X2.000000*%
%TD*%
%TA.AperFunction,ComponentPad*%
%ADD20RoundRect,0.250000X-0.600000X-0.750000X0.600000X-0.750000X0.600000X0.750000X-0.600000X0.750000X0*%
%TD*%
%TA.AperFunction,ViaPad*%
%ADD21C,1.000000*%
%TD*%
%TA.AperFunction,ViaPad*%
%ADD22C,0.800000*%
%TD*%
%TA.AperFunction,Conductor*%
%ADD23C,0.200000*%
%TD*%
%TA.AperFunction,Conductor*%
%ADD24C,0.250000*%
%TD*%
G04 APERTURE END LIST*
D10*
%TO.P,REF\u002A\u002A,1*%
%TO.N,N/C*%
X148500000Y-16500000D03*
%TD*%
D11*
%TO.P,EXT_BATT1,2,Pin_2*%
%TO.N,GND*%
X92300000Y-21750000D03*
D12*
%TO.P,EXT_BATT1,1,Pin_1*%
%TO.N,Net-(BT1-Pad1)*%
X91300000Y-21750000D03*
%TD*%
D11*
%TO.P,AUX_CONN2,4,Pin_4*%
%TO.N,GND*%
X127050000Y-72000000D03*
%TO.P,AUX_CONN2,3,Pin_3*%
%TO.N,+5V*%
X127050000Y-73000000D03*
%TO.P,AUX_CONN2,2,Pin_2*%
%TO.N,SCL*%
X127050000Y-74000000D03*
D12*
%TO.P,AUX_CONN2,1,Pin_1*%
%TO.N,SDA*%
X127050000Y-75000000D03*
%TD*%
D13*
%TO.P,U2,11,PAD*%
%TO.N,GND*%
X107067200Y-31080600D03*
X108067200Y-31080600D03*
X107567200Y-30330600D03*
D14*
X107567200Y-30330600D03*
D13*
X108067200Y-29580600D03*
X107067200Y-29580600D03*
%TD*%
D15*
%TO.P,U6,9,PWM*%
%TO.N,unconnected-(U6-Pad9)*%
X141425000Y-40577500D03*
%TO.P,U6,8,A0T*%
%TO.N,unconnected-(U6-Pad8)*%
X138885000Y-40577500D03*
%TO.P,U6,7,GND*%
%TO.N,GND*%
X136345000Y-40577500D03*
%TO.P,U6,6,Vin*%
%TO.N,+5V*%
X133805000Y-40577500D03*
%TO.P,U6,5,HD*%
%TO.N,unconnected-(U6-Pad5)*%
X143965000Y-69787500D03*
%TO.P,U6,4,SR*%
%TO.N,unconnected-(U6-Pad4)*%
X141425000Y-69787500D03*
%TO.P,U6,3,TXD*%
%TO.N,Net-(Q3-Pad3)*%
X138885000Y-69787500D03*
%TO.P,U6,2,RXD*%
%TO.N,Net-(R16-Pad2)*%
X136345000Y-69787500D03*
D16*
%TO.P,U6,1,Vout*%
%TO.N,unconnected-(U6-Pad1)*%
X133805000Y-69787500D03*
%TD*%
D17*
%TO.P,J1,6,Shield*%
%TO.N,GND*%
X71950000Y-28625000D03*
X71950000Y-21475000D03*
%TD*%
D18*
%TO.P,J2,10,Pin_10*%
%TO.N,Net-(J2-Pad10)*%
X79200000Y-71260000D03*
%TO.P,J2,9,Pin_9*%
%TO.N,ESP_TX2*%
X78040000Y-71260000D03*
%TO.P,J2,8,Pin_8*%
%TO.N,unconnected-(J2-Pad8)*%
X79200000Y-72530000D03*
%TO.P,J2,7,Pin_7*%
%TO.N,ESP_RX2*%
X78040000Y-72530000D03*
%TO.P,J2,6,Pin_6*%
%TO.N,unconnected-(J2-Pad6)*%
X79200000Y-73800000D03*
%TO.P,J2,5,Pin_5*%
%TO.N,Net-(J2-Pad5)*%
X78040000Y-73800000D03*
%TO.P,J2,4,Pin_4*%
%TO.N,GND*%
X79200000Y-75070000D03*
%TO.P,J2,3,Pin_3*%
X78040000Y-75070000D03*
%TO.P,J2,2,Pin_2*%
%TO.N,+5V*%
X79200000Y-76340000D03*
%TO.P,J2,1,Pin_1*%
X78040000Y-76340000D03*
%TD*%
D10*
%TO.P,,1*%
%TO.N,N/C*%
X74100000Y-78100000D03*
%TD*%
D11*
%TO.P,5V_IN1,2,Pin_2*%
%TO.N,GND*%
X76950000Y-25250000D03*
D12*
%TO.P,5V_IN1,1,Pin_1*%
%TO.N,Net-(5V_IN1-Pad1)*%
X76950000Y-24250000D03*
%TD*%
D11*
%TO.P,AUX_CONN1,4,Pin_4*%
%TO.N,ESP_RX0*%
X123300000Y-72000000D03*
%TO.P,AUX_CONN1,3,Pin_3*%
%TO.N,ESP_TX0*%
X123300000Y-73000000D03*
%TO.P,AUX_CONN1,2,Pin_2*%
%TO.N,SCL*%
X123300000Y-74000000D03*
D12*
%TO.P,AUX_CONN1,1,Pin_1*%
%TO.N,SDA*%
X123300000Y-75000000D03*
%TD*%
D19*
%TO.P,BT1,2,-*%
%TO.N,GND*%
X93050000Y-19132500D03*
D20*
%TO.P,BT1,1,+*%
%TO.N,Net-(BT1-Pad1)*%
X90550000Y-19132500D03*
%TD*%
D11*
%TO.P,AUX_CONN3,4,Pin_4*%
%TO.N,GND*%
X130580000Y-71987500D03*
%TO.P,AUX_CONN3,3,Pin_3*%
%TO.N,+5V*%
X130580000Y-72987500D03*
%TO.P,AUX_CONN3,2,Pin_2*%
%TO.N,SCL*%
X130580000Y-73987500D03*
D12*
%TO.P,AUX_CONN3,1,Pin_1*%
%TO.N,SDA*%
X130580000Y-74987500D03*
%TD*%
D10*
%TO.P,REF\u002A\u002A,1*%
%TO.N,N/C*%
X147700000Y-77900000D03*
%TD*%
%TO.P,REF\u002A\u002A,1*%
%TO.N,N/C*%
X73600000Y-16600000D03*
%TD*%
D11*
%TO.P,AUX_CONN4,4,Pin_4*%
%TO.N,GND*%
X133950000Y-72050000D03*
%TO.P,AUX_CONN4,3,Pin_3*%
%TO.N,+3V3*%
X133950000Y-73050000D03*
%TO.P,AUX_CONN4,2,Pin_2*%
%TO.N,SCL*%
X133950000Y-74050000D03*
D12*
%TO.P,AUX_CONN4,1,Pin_1*%
%TO.N,SDA*%
X133950000Y-75050000D03*
%TD*%
D21*
%TO.N,+5V*%
X133175000Y-78200000D03*
D22*
X132100000Y-73075000D03*
%TO.N,GND*%
X125150000Y-64800000D03*
D21*
%TO.N,+5V*%
X83450000Y-78850000D03*
D22*
X81350000Y-77325000D03*
D21*
X118750000Y-37925000D03*
X124450000Y-37900000D03*
D22*
%TO.N,SCL*%
X125850000Y-30725000D03*
%TO.N,Net-(C1-Pad1)*%
X86550000Y-31875000D03*
%TO.N,+3V3*%
X99125000Y-60225000D03*
%TO.N,SDA*%
X126400000Y-27725000D03*
%TO.N,GND*%
X139192000Y-21945600D03*
X83015600Y-33570400D03*
X113574000Y-29500000D03*
X107814010Y-45093990D03*
X102300000Y-50500000D03*
X122047000Y-59055000D03*
X93853000Y-26543000D03*
X118969000Y-51719000D03*
X146583800Y-34436300D03*
X116650000Y-62950000D03*
X95885000Y-42672000D03*
X96675400Y-28476400D03*
X119950000Y-68850000D03*
X119992510Y-42522510D03*
X105025180Y-32515820D03*
X76400000Y-74000000D03*
X139344400Y-23469600D03*
X143205200Y-28600400D03*
%TO.N,Net-(C3-Pad1)*%
X103799017Y-31209400D03*
X105851980Y-28729286D03*
X108761000Y-28044600D03*
%TO.N,+3V3*%
X111700000Y-44000000D03*
X108200000Y-66000000D03*
%TO.N,+5V*%
X132475000Y-37300000D03*
X96037400Y-46761400D03*
X90754200Y-46355000D03*
X75554600Y-61554600D03*
X118775000Y-35125000D03*
%TO.N,Net-(L1-Pad2)*%
X110767600Y-30203600D03*
X107716800Y-34216800D03*
%TO.N,Net-(Q2-Pad3)*%
X116900000Y-61400000D03*
X120650000Y-63450000D03*
%TO.N,Net-(Q3-Pad2)*%
X123100000Y-66800000D03*
X117050000Y-64700000D03*
%TO.N,SCL*%
X135248153Y-33037607D03*
X114503200Y-54152800D03*
%TO.N,SDA*%
X135610600Y-32105600D03*
X135890000Y-35560000D03*
X117195600Y-53263800D03*
X121132600Y-51866800D03*
%TO.N,Net-(D4-Pad1)*%
X81000000Y-30600000D03*
X79200000Y-37300000D03*
%TO.N,EN*%
X117850000Y-41850000D03*
X95050000Y-48950000D03*
%TO.N,CO*%
X107250000Y-37500000D03*
X96240600Y-38785800D03*
%TO.N,NO2*%
X102350000Y-41150000D03*
X94100000Y-44750000D03*
%TO.N,ESP_RX0*%
X118650000Y-54750000D03*
X120700000Y-59450000D03*
X123800000Y-69900000D03*
%TO.N,ESP_TX0*%
X125200000Y-70000000D03*
X117950000Y-58550000D03*
X121900000Y-65100000D03*
%TO.N,ESP_TX1*%
X119400000Y-60300000D03*
X118900000Y-58300000D03*
%TO.N,ESP_RX2*%
X109200000Y-59600000D03*
X107600000Y-61100000D03*
%TO.N,ESP_TX2*%
X108200000Y-58700000D03*
%TO.N,Net-(C1-Pad1)*%
X86000000Y-35600000D03*
X84910400Y-25789600D03*
X84550000Y-39650000D03*
%TO.N,Net-(BT1-Pad1)*%
X89050600Y-33759600D03*
X89350000Y-28850000D03*
%TD*%
D23*
%TO.N,+5V*%
X133175000Y-78200000D02*
X133175000Y-77475000D01*
X133175000Y-77475000D02*
X132600000Y-76900000D01*
X132600000Y-76900000D02*
X132600000Y-73575000D01*
X132600000Y-73575000D02*
X132100000Y-73075000D01*
%TO.N,GND*%
X125150000Y-64800000D02*
X125150000Y-62158000D01*
X125150000Y-62158000D02*
X122047000Y-59055000D01*
X125150000Y-64800000D02*
X125150000Y-65677977D01*
X125150000Y-65677977D02*
X123027977Y-67800000D01*
X120025000Y-68850000D02*
X119950000Y-68850000D01*
X123027977Y-67800000D02*
X121850000Y-67800000D01*
X121850000Y-67800000D02*
X121300000Y-68350000D01*
X120525000Y-68350000D02*
X120025000Y-68850000D01*
X121300000Y-68350000D02*
X120525000Y-68350000D01*
%TO.N,+5V*%
X81925000Y-77325000D02*
X83450000Y-78850000D01*
X81350000Y-77325000D02*
X81925000Y-77325000D01*
X118725000Y-37900000D02*
X124450000Y-37900000D01*
D24*
%TO.N,SCL*%
X125850000Y-30725000D02*
X125850000Y-31438200D01*
X125850000Y-31438200D02*
X127431800Y-33020000D01*
X127431800Y-33020000D02*
X135255000Y-33020000D01*
%TO.N,Net-(C1-Pad1)*%
X84910400Y-25631600D02*
X85125000Y-25846200D01*
X85125000Y-25846200D02*
X85125000Y-30450000D01*
X85125000Y-30450000D02*
X86550000Y-31875000D01*
D23*
%TO.N,+3V3*%
X99125000Y-60225000D02*
X102425000Y-60225000D01*
X102425000Y-60225000D02*
X108200000Y-66000000D01*
D24*
%TO.N,SDA*%
X126400000Y-27725000D02*
X126400000Y-29219600D01*
X126400000Y-29219600D02*
X129286000Y-32105600D01*
X129286000Y-32105600D02*
X135610600Y-32105600D01*
%TO.N,GND*%
X139192000Y-21945600D02*
X139192000Y-23317200D01*
D23*
X77470000Y-75070000D02*
X76400000Y-74000000D01*
X107706010Y-45093990D02*
X107814010Y-45093990D01*
D24*
X139192000Y-23317200D02*
X139344400Y-23469600D01*
D23*
X79200000Y-75070000D02*
X77470000Y-75070000D01*
X93804189Y-26503189D02*
X93903800Y-26602800D01*
X102300000Y-50500000D02*
X107706010Y-45093990D01*
D24*
%TO.N,Net-(C3-Pad1)*%
X105257600Y-29972000D02*
X105036417Y-29972000D01*
X103799017Y-31209400D02*
X105036417Y-29972000D01*
X106092189Y-29137411D02*
X105257600Y-29972000D01*
X106157191Y-28605589D02*
X106092189Y-28670591D01*
X106624011Y-28605589D02*
X106157191Y-28605589D01*
X107185000Y-28044600D02*
X106624011Y-28605589D01*
X108761000Y-28044600D02*
X107185000Y-28044600D01*
X106092189Y-28670591D02*
X106092189Y-29137411D01*
D23*
%TO.N,+3V3*%
X109900000Y-64300000D02*
X108200000Y-66000000D01*
X109900000Y-45800000D02*
X109900000Y-64300000D01*
X111700000Y-44000000D02*
X109900000Y-45800000D01*
%TO.N,+5V*%
X78040000Y-76340000D02*
X77812023Y-76340000D01*
X133805000Y-38630000D02*
X132475000Y-37300000D01*
D24*
X90754200Y-46355000D02*
X90906600Y-46202600D01*
D23*
X133805000Y-40577500D02*
X133805000Y-38630000D01*
D24*
X95478600Y-46202600D02*
X96037400Y-46761400D01*
D23*
X79200000Y-76340000D02*
X78040000Y-76340000D01*
D24*
X90906600Y-46202600D02*
X95478600Y-46202600D01*
D23*
X77812023Y-76340000D02*
X75554600Y-74082577D01*
X75554600Y-74082577D02*
X75554600Y-61554600D01*
D24*
%TO.N,Net-(L1-Pad2)*%
X110767600Y-30203600D02*
X110767600Y-32501189D01*
X110649994Y-32501189D02*
X110272989Y-32878194D01*
X110272989Y-33135411D02*
X109191600Y-34216800D01*
X110272989Y-32878194D02*
X110272989Y-33135411D01*
X109191600Y-34216800D02*
X107716800Y-34216800D01*
X110767600Y-32501189D02*
X110649994Y-32501189D01*
%TO.N,Net-(Q2-Pad3)*%
X118950000Y-63450000D02*
X116900000Y-61400000D01*
X120650000Y-63450000D02*
X118950000Y-63450000D01*
D23*
%TO.N,Net-(Q3-Pad2)*%
X118100000Y-65750000D02*
X117050000Y-64700000D01*
X122050000Y-65750000D02*
X118100000Y-65750000D01*
X123100000Y-66800000D02*
X122050000Y-65750000D01*
D24*
%TO.N,SCL*%
X135255000Y-33020000D02*
X135712200Y-33020000D01*
X114503200Y-53782560D02*
X114503200Y-54152800D01*
X135255000Y-33030760D02*
X135248153Y-33037607D01*
X135255000Y-33020000D02*
X135255000Y-33030760D01*
X135248153Y-33037607D02*
X114503200Y-53782560D01*
%TO.N,SDA*%
X136162220Y-35287780D02*
X135890000Y-35560000D01*
X121132600Y-51866800D02*
X119735600Y-53263800D01*
X119735600Y-53263800D02*
X117195600Y-53263800D01*
X135434224Y-32105600D02*
X136162220Y-32833596D01*
X136162220Y-32833596D02*
X136162220Y-35287780D01*
D23*
%TO.N,Net-(D4-Pad1)*%
X81000000Y-30600000D02*
X79200000Y-32400000D01*
X79200000Y-37350000D02*
X79200000Y-37300000D01*
X79200000Y-32400000D02*
X79200000Y-37350000D01*
%TO.N,EN*%
X109550000Y-41850000D02*
X117850000Y-41850000D01*
X106150000Y-45250000D02*
X109550000Y-41850000D01*
X95050000Y-48950000D02*
X102450000Y-48950000D01*
X102450000Y-48950000D02*
X106150000Y-45250000D01*
D24*
%TO.N,CO*%
X96776400Y-38250000D02*
X106500000Y-38250000D01*
X106500000Y-38250000D02*
X107250000Y-37500000D01*
X96240600Y-38785800D02*
X96776400Y-38250000D01*
D23*
%TO.N,NO2*%
X98550000Y-44750000D02*
X94100000Y-44750000D01*
X102350000Y-41150000D02*
X102150000Y-41150000D01*
X102150000Y-41150000D02*
X98550000Y-44750000D01*
%TO.N,ESP_RX0*%
X120700000Y-56800000D02*
X118650000Y-54750000D01*
X123800000Y-69900000D02*
X123800000Y-71500000D01*
X120700000Y-59450000D02*
X120700000Y-56800000D01*
X123800000Y-71500000D02*
X123300000Y-72000000D01*
%TO.N,ESP_TX0*%
X121900000Y-63727977D02*
X118100000Y-59927977D01*
X125200000Y-71100000D02*
X123300000Y-73000000D01*
X117950000Y-58450000D02*
X117950000Y-58550000D01*
X118100000Y-58500000D02*
X118000000Y-58400000D01*
X118100000Y-59927977D02*
X118100000Y-58500000D01*
X118000000Y-58400000D02*
X117950000Y-58450000D01*
X121900000Y-65100000D02*
X121900000Y-63727977D01*
X125200000Y-70000000D02*
X125200000Y-71100000D01*
%TO.N,ESP_TX1*%
X119400000Y-58800000D02*
X118900000Y-58300000D01*
X119400000Y-60300000D02*
X119400000Y-58800000D01*
%TO.N,ESP_RX2*%
X107700000Y-61100000D02*
X109200000Y-59600000D01*
X107600000Y-61100000D02*
X107700000Y-61100000D01*
%TO.N,ESP_TX2*%
X78040000Y-71260000D02*
X90600000Y-58700000D01*
X90600000Y-58700000D02*
X108200000Y-58700000D01*
%TO.N,Net-(C1-Pad1)*%
X86000000Y-38200000D02*
X86000000Y-35600000D01*
X84550000Y-39650000D02*
X86000000Y-38200000D01*
D24*
%TO.N,Net-(BT1-Pad1)*%
X89050600Y-33759600D02*
X89300000Y-33510200D01*
X89300000Y-33510200D02*
X89300000Y-28900000D01*
X89300000Y-28900000D02*
X89350000Y-28850000D01*
%TD*%
%TA.AperFunction,Conductor*%
%TO.N,GND*%
G36*
X102687750Y-12608004D02*
G01*
X147785541Y-12963554D01*
X147853502Y-12984092D01*
X147899571Y-13038113D01*
X147909120Y-13108464D01*
X147879119Y-13172811D01*
X147819092Y-13210722D01*
X147811402Y-13212655D01*
X147606802Y-13257265D01*
X147261813Y-13372697D01*
X146931309Y-13524712D01*
X146619155Y-13711532D01*
X146329003Y-13930972D01*
X146326521Y-13933311D01*
X146326515Y-13933316D01*
X146220398Y-14033316D01*
X146064248Y-14180465D01*
X146062036Y-14183055D01*
X146062034Y-14183057D01*
X146054751Y-14191584D01*
X145827986Y-14457091D01*
X145826067Y-14459903D01*
X145826064Y-14459908D01*
X145751478Y-14569248D01*
X145622982Y-14757616D01*
X145451634Y-15078523D01*
X145315945Y-15416059D01*
X145315025Y-15419333D01*
X145315023Y-15419338D01*
X145283785Y-15530473D01*
X145217504Y-15766275D01*
X145216943Y-15769628D01*
X145216942Y-15769632D01*
X145198287Y-15881111D01*
X145157462Y-16125074D01*
X145136520Y-16488259D01*
X145154926Y-16851581D01*
X145155463Y-16854936D01*
X145155464Y-16854942D01*
X145176551Y-16986591D01*
X145212462Y-17210791D01*
X145308456Y-17561686D01*
X145388313Y-17764416D01*
X145435697Y-17884706D01*
X145441784Y-17900160D01*
X145454901Y-17925145D01*
X145609304Y-18219240D01*
X145609309Y-18219248D01*
X145610888Y-18222256D01*
X145612782Y-18225074D01*
X145612787Y-18225083D01*
X145786376Y-18483410D01*
X145813789Y-18524205D01*
X146048114Y-18802474D01*
X146311121Y-19053809D01*
X146599733Y-19275269D01*
X146602651Y-19277043D01*
X146907661Y-19462492D01*
X146907666Y-19462495D01*
X146910576Y-19464264D01*
X146913664Y-19465710D01*
X146913663Y-19465710D01*
X147236927Y-19617139D01*
X147236937Y-19617143D01*
X147240011Y-19618583D01*
X147243229Y-19619685D01*
X147243232Y-19619686D01*
X147580962Y-19735317D01*
X147580970Y-19735319D01*
X147584185Y-19736420D01*
X147939073Y-19816398D01*
X147992112Y-19822441D01*
X148297140Y-19857195D01*
X148297148Y-19857195D01*
X148300523Y-19857580D01*
X148303927Y-19857598D01*
X148303930Y-19857598D01*
X148500796Y-19858628D01*
X148664306Y-19859484D01*
X148667691Y-19859134D01*
X148667695Y-19859134D01*
X149022775Y-19822441D01*
X149022784Y-19822440D01*
X149026167Y-19822090D01*
X149029500Y-19821376D01*
X149029503Y-19821375D01*
X149204688Y-19783818D01*
X149381873Y-19745833D01*
X149727263Y-19631606D01*
X150058296Y-19480746D01*
X150061233Y-19479002D01*
X150061239Y-19478999D01*
X150368166Y-19296758D01*
X150371100Y-19295016D01*
X150662016Y-19076590D01*
X150927641Y-18828024D01*
X150929853Y-18825452D01*
X150929860Y-18825445D01*
X151162640Y-18554811D01*
X151164866Y-18552223D01*
X151212160Y-18483410D01*
X151267228Y-18438599D01*
X151337781Y-18430674D01*
X151401419Y-18462151D01*
X151437936Y-18523036D01*
X151442000Y-18554777D01*
X151442000Y-81311800D01*
X151421998Y-81379921D01*
X151368342Y-81426414D01*
X151316000Y-81437800D01*
X148408800Y-81437800D01*
X148340679Y-81417798D01*
X148294186Y-81364142D01*
X148284082Y-81293868D01*
X148313576Y-81229288D01*
X148373302Y-81190904D01*
X148382388Y-81188599D01*
X148581873Y-81145833D01*
X148927263Y-81031606D01*
X149258296Y-80880746D01*
X149261233Y-80879002D01*
X149261239Y-80878999D01*
X149568166Y-80696758D01*
X149571100Y-80695016D01*
X149862016Y-80476590D01*
X150127641Y-80228024D01*
X150129853Y-80225452D01*
X150129860Y-80225445D01*
X150362640Y-79954811D01*
X150364866Y-79952223D01*
X150536888Y-79701930D01*
X150568988Y-79655225D01*
X150568993Y-79655218D01*
X150570918Y-79652416D01*
X150572530Y-79649422D01*
X150572535Y-79649414D01*
X150704755Y-79403854D01*
X150743386Y-79332109D01*
X150880252Y-78995048D01*
X150888853Y-78964856D01*
X150948958Y-78753854D01*
X150979915Y-78645178D01*
X150991300Y-78578571D01*
X151040637Y-78289938D01*
X151040637Y-78289936D01*
X151041209Y-78286591D01*
X151043351Y-78251581D01*
X151063308Y-77925278D01*
X151063418Y-77923481D01*
X151063500Y-77900000D01*
X151043827Y-77536744D01*
X150985037Y-77177738D01*
X150887819Y-76827180D01*
X150884699Y-76819338D01*
X150754569Y-76492337D01*
X150753310Y-76489173D01*
X150689310Y-76368299D01*
X150584677Y-76170681D01*
X150584675Y-76170678D01*
X150583082Y-76167669D01*
X150379128Y-75866431D01*
X150143834Y-75588981D01*
X150137592Y-75583057D01*
X149882418Y-75340907D01*
X149882417Y-75340906D01*
X149879951Y-75338566D01*
X149606440Y-75130206D01*
X149593274Y-75120176D01*
X149593272Y-75120174D01*
X149590567Y-75118114D01*
X149587655Y-75116357D01*
X149587650Y-75116354D01*
X149281990Y-74931968D01*
X149281981Y-74931963D01*
X149279068Y-74930206D01*
X149271018Y-74926469D01*
X148952177Y-74778468D01*
X148952175Y-74778467D01*
X148949096Y-74777038D01*
X148945884Y-74775951D01*
X148945877Y-74775948D01*
X148607748Y-74661498D01*
X148607743Y-74661496D01*
X148604512Y-74660403D01*
X148590358Y-74657265D01*
X148461919Y-74628791D01*
X148249347Y-74581665D01*
X148075757Y-74562500D01*
X147891137Y-74542117D01*
X147891132Y-74542117D01*
X147887756Y-74541744D01*
X147884358Y-74541738D01*
X147884357Y-74541738D01*
X147709846Y-74541434D01*
X147523968Y-74541110D01*
X147408674Y-74553431D01*
X147165623Y-74579405D01*
X147165615Y-74579406D01*
X147162240Y-74579767D01*
X146806802Y-74657265D01*
X146461813Y-74772697D01*
X146458720Y-74774119D01*
X146458719Y-74774120D01*
X146421824Y-74791090D01*
X146131309Y-74924712D01*
X146128375Y-74926468D01*
X146128373Y-74926469D01*
X146124527Y-74928771D01*
X145819155Y-75111532D01*
X145529003Y-75330972D01*
X145526521Y-75333311D01*
X145526515Y-75333316D01*
X145275703Y-75569670D01*
X145264248Y-75580465D01*
X145262036Y-75583055D01*
X145262034Y-75583057D01*
X145254751Y-75591584D01*
X145027986Y-75857091D01*
X145026067Y-75859903D01*
X145026064Y-75859908D01*
X144832855Y-76143143D01*
X144822982Y-76157616D01*
X144651634Y-76478523D01*
X144515945Y-76816059D01*
X144515025Y-76819333D01*
X144515023Y-76819338D01*
X144418791Y-77161697D01*
X144417504Y-77166275D01*
X144416943Y-77169628D01*
X144416942Y-77169632D01*
X144382117Y-77377738D01*
X144357462Y-77525074D01*
X144336520Y-77888259D01*
X144336692Y-77891654D01*
X144336692Y-77891655D01*
X144351286Y-78179724D01*
X144354926Y-78251581D01*
X144355463Y-78254936D01*
X144355464Y-78254942D01*
X144390449Y-78473357D01*
X144412462Y-78610791D01*
X144508456Y-78961686D01*
X144641784Y-79300160D01*
X144643367Y-79303175D01*
X144809304Y-79619240D01*
X144809309Y-79619248D01*
X144810888Y-79622256D01*
X144812782Y-79625074D01*
X144812787Y-79625083D01*
X144965549Y-79852416D01*
X145013789Y-79924205D01*
X145248114Y-80202474D01*
X145511121Y-80453809D01*
X145799733Y-80675269D01*
X145828840Y-80692966D01*
X146107661Y-80862492D01*
X146107666Y-80862495D01*
X146110576Y-80864264D01*
X146113664Y-80865710D01*
X146113663Y-80865710D01*
X146436927Y-81017139D01*
X146436937Y-81017143D01*
X146440011Y-81018583D01*
X146443229Y-81019685D01*
X146443232Y-81019686D01*
X146780962Y-81135317D01*
X146780970Y-81135319D01*
X146784185Y-81136420D01*
X146787513Y-81137170D01*
X147016980Y-81188883D01*
X147079037Y-81223372D01*
X147112596Y-81285936D01*
X147107003Y-81356712D01*
X147064034Y-81413229D01*
X146997330Y-81437543D01*
X146989279Y-81437800D01*
X75455132Y-81437800D01*
X75387011Y-81417798D01*
X75340518Y-81364142D01*
X75330414Y-81293868D01*
X75359908Y-81229288D01*
X75402881Y-81197145D01*
X75536130Y-81136420D01*
X75658296Y-81080746D01*
X75661233Y-81079002D01*
X75661239Y-81078999D01*
X75968166Y-80896758D01*
X75971100Y-80895016D01*
X76262016Y-80676590D01*
X76527641Y-80428024D01*
X76529853Y-80425452D01*
X76529860Y-80425445D01*
X76762640Y-80154811D01*
X76764866Y-80152223D01*
X76900544Y-79954811D01*
X76968988Y-79855225D01*
X76968993Y-79855218D01*
X76970918Y-79852416D01*
X76972530Y-79849422D01*
X76972535Y-79849414D01*
X77113431Y-79587742D01*
X77143386Y-79532109D01*
X77280252Y-79195048D01*
X77288853Y-79164856D01*
X77378981Y-78848456D01*
X77379915Y-78845178D01*
X77402827Y-78711136D01*
X77440637Y-78489938D01*
X77440637Y-78489936D01*
X77441209Y-78486591D01*
X77442019Y-78473357D01*
X77463308Y-78125278D01*
X77463418Y-78123481D01*
X77463500Y-78100000D01*
X77443827Y-77736744D01*
X77385037Y-77377738D01*
X77384122Y-77374437D01*
X77383394Y-77371128D01*
X77384306Y-77370928D01*
X77385315Y-77303900D01*
X77424593Y-77244759D01*
X77489610Y-77216241D01*
X77559724Y-77227401D01*
X77567133Y-77231226D01*
X77591348Y-77244759D01*
X77634246Y-77268734D01*
X77822366Y-77329857D01*
X78018775Y-77353278D01*
X78024910Y-77352806D01*
X78024912Y-77352806D01*
X78209850Y-77338576D01*
X78209854Y-77338575D01*
X78215992Y-77338103D01*
X78406507Y-77284910D01*
X78485992Y-77244759D01*
X78565573Y-77204560D01*
X78635396Y-77191700D01*
X78683854Y-77207038D01*
X78738750Y-77237718D01*
X78794246Y-77268734D01*
X78982366Y-77329857D01*
X79178775Y-77353278D01*
X79184910Y-77352806D01*
X79184912Y-77352806D01*
X79369850Y-77338576D01*
X79369854Y-77338575D01*
X79375992Y-77338103D01*
X79422921Y-77325000D01*
X80436500Y-77325000D01*
X80437190Y-77331565D01*
X80439423Y-77352806D01*
X80456462Y-77514927D01*
X80458502Y-77521205D01*
X80458502Y-77521206D01*
X80459759Y-77525074D01*
X80515476Y-77696554D01*
X80518779Y-77702276D01*
X80518780Y-77702277D01*
X80538680Y-77736744D01*
X80610963Y-77861942D01*
X80615381Y-77866849D01*
X80615382Y-77866850D01*
X80734327Y-77998952D01*
X80738749Y-78003863D01*
X80744091Y-78007744D01*
X80744093Y-78007746D01*
X80871071Y-78100000D01*
X80893250Y-78116114D01*
X80899278Y-78118798D01*
X80899280Y-78118799D01*
X81036120Y-78179724D01*
X81067713Y-78193790D01*
X81161113Y-78213643D01*
X81248056Y-78232124D01*
X81248061Y-78232124D01*
X81254513Y-78233496D01*
X81445487Y-78233496D01*
X81451939Y-78232124D01*
X81451944Y-78232124D01*
X81538887Y-78213643D01*
X81632287Y-78193790D01*
X81663880Y-78179724D01*
X81761417Y-78136298D01*
X81831784Y-78126864D01*
X81896081Y-78156971D01*
X81901761Y-78162310D01*
X82407708Y-78668257D01*
X82441734Y-78730569D01*
X82443828Y-78771396D01*
X82439041Y-78814080D01*
X82436599Y-78835849D01*
X82453150Y-79032956D01*
X82460476Y-79058504D01*
X82504722Y-79212806D01*
X82507672Y-79223094D01*
X82598086Y-79399021D01*
X82720949Y-79554036D01*
X82725636Y-79558025D01*
X82725639Y-79558028D01*
X82836545Y-79652416D01*
X82871582Y-79682235D01*
X82876960Y-79685241D01*
X82876962Y-79685242D01*
X82918585Y-79708504D01*
X83044246Y-79778734D01*
X83232366Y-79839857D01*
X83428775Y-79863278D01*
X83434910Y-79862806D01*
X83434912Y-79862806D01*
X83619850Y-79848576D01*
X83619854Y-79848575D01*
X83625992Y-79848103D01*
X83816507Y-79794910D01*
X83993060Y-79705726D01*
X84019279Y-79685242D01*
X84144073Y-79587742D01*
X84148929Y-79583948D01*
X84171303Y-79558028D01*
X84274147Y-79438882D01*
X84274148Y-79438880D01*
X84278176Y-79434214D01*
X84375878Y-79262228D01*
X84438314Y-79074539D01*
X84463105Y-78878299D01*
X84463500Y-78850000D01*
X84444198Y-78653143D01*
X84387027Y-78463785D01*
X84294166Y-78289138D01*
X84190728Y-78162310D01*
X84173045Y-78140628D01*
X84173042Y-78140625D01*
X84169150Y-78135853D01*
X84164401Y-78131924D01*
X84021491Y-78013698D01*
X84021486Y-78013695D01*
X84016742Y-78009770D01*
X84011323Y-78006840D01*
X84011320Y-78006838D01*
X83848165Y-77918621D01*
X83848161Y-77918619D01*
X83842747Y-77915692D01*
X83836867Y-77913872D01*
X83836865Y-77913871D01*
X83754126Y-77888259D01*
X83653792Y-77857200D01*
X83647674Y-77856557D01*
X83647669Y-77856556D01*
X83463205Y-77837169D01*
X83463203Y-77837169D01*
X83457076Y-77836525D01*
X83369200Y-77844523D01*
X83299548Y-77830778D01*
X83268686Y-77808137D01*
X82387971Y-76927422D01*
X82377104Y-76915031D01*
X82363836Y-76897740D01*
X82358810Y-76891190D01*
X82231750Y-76793693D01*
X82224120Y-76790533D01*
X82224119Y-76790532D01*
X82170461Y-76768307D01*
X82170459Y-76768306D01*
X82091417Y-76735565D01*
X82083786Y-76732404D01*
X82075598Y-76731326D01*
X82067619Y-76729188D01*
X82068204Y-76727005D01*
X82014047Y-76703044D01*
X82001790Y-76691159D01*
X81965676Y-76651050D01*
X81965669Y-76651044D01*
X81961251Y-76646137D01*
X81955909Y-76642256D01*
X81955907Y-76642254D01*
X81812092Y-76537767D01*
X81812091Y-76537766D01*
X81806750Y-76533886D01*
X81800722Y-76531202D01*
X81800720Y-76531201D01*
X81638318Y-76458895D01*
X81638317Y-76458895D01*
X81632287Y-76456210D01*
X81538887Y-76436357D01*
X81451944Y-76417876D01*
X81451939Y-76417876D01*
X81445487Y-76416504D01*
X81254513Y-76416504D01*
X81248061Y-76417876D01*
X81248056Y-76417876D01*
X81161113Y-76436357D01*
X81067713Y-76456210D01*
X81061683Y-76458895D01*
X81061682Y-76458895D01*
X80899280Y-76531201D01*
X80899278Y-76531202D01*
X80893250Y-76533886D01*
X80887909Y-76537766D01*
X80887908Y-76537767D01*
X80744093Y-76642254D01*
X80744091Y-76642256D01*
X80738749Y-76646137D01*
X80734328Y-76651047D01*
X80734327Y-76651048D01*
X80638396Y-76757591D01*
X80610963Y-76788058D01*
X80515476Y-76953446D01*
X80496441Y-77012029D01*
X80483910Y-77050598D01*
X80456462Y-77135073D01*
X80455772Y-77141636D01*
X80455772Y-77141637D01*
X80449170Y-77204450D01*
X80436500Y-77325000D01*
X79422921Y-77325000D01*
X79566507Y-77284910D01*
X79743060Y-77195726D01*
X79761767Y-77181111D01*
X79894073Y-77077742D01*
X79898929Y-77073948D01*
X79905430Y-77066417D01*
X80024147Y-76928882D01*
X80024148Y-76928880D01*
X80028176Y-76924214D01*
X80125878Y-76752228D01*
X80188314Y-76564539D01*
X80213105Y-76368299D01*
X80213500Y-76340000D01*
X80194198Y-76143143D01*
X80137027Y-75953785D01*
X80044166Y-75779138D01*
X80040268Y-75774358D01*
X80039548Y-75773275D01*
X80018508Y-75705467D01*
X80034937Y-75641306D01*
X80122374Y-75487389D01*
X80127370Y-75476167D01*
X80185878Y-75300285D01*
X80188599Y-75288307D01*
X80212162Y-75101789D01*
X80212654Y-75094760D01*
X80212951Y-75073505D01*
X80212658Y-75066512D01*
X80194309Y-74879374D01*
X80191926Y-74867339D01*
X80138346Y-74689876D01*
X80133671Y-74678534D01*
X80046645Y-74514862D01*
X80039575Y-74504219D01*
X80018540Y-74436410D01*
X80034969Y-74372257D01*
X80094068Y-74268223D01*
X80125878Y-74212228D01*
X80188314Y-74024539D01*
X80213105Y-73828299D01*
X80213500Y-73800000D01*
X80194198Y-73603143D01*
X80137027Y-73413785D01*
X80044166Y-73239138D01*
X80040268Y-73234359D01*
X80039857Y-73233740D01*
X80018816Y-73165933D01*
X80035245Y-73101770D01*
X80043366Y-73087475D01*
X80125878Y-72942228D01*
X80188314Y-72754539D01*
X80213105Y-72558299D01*
X80213500Y-72530000D01*
X80194198Y-72333143D01*
X80137027Y-72143785D01*
X80060576Y-72000000D01*
X122361500Y-72000000D01*
X122362190Y-72006565D01*
X122381179Y-72187235D01*
X122382008Y-72195125D01*
X122442638Y-72381722D01*
X122445941Y-72387443D01*
X122474553Y-72437000D01*
X122491291Y-72505995D01*
X122474553Y-72562999D01*
X122442638Y-72618278D01*
X122382008Y-72804875D01*
X122381318Y-72811441D01*
X122381317Y-72811445D01*
X122368187Y-72936375D01*
X122361500Y-73000000D01*
X122362190Y-73006565D01*
X122380004Y-73176055D01*
X122382008Y-73195125D01*
X122400296Y-73251408D01*
X122436536Y-73362941D01*
X122442638Y-73381722D01*
X122445941Y-73387443D01*
X122474553Y-73437000D01*
X122491291Y-73505995D01*
X122474553Y-73562999D01*
X122442638Y-73618278D01*
X122382008Y-73804875D01*
X122381318Y-73811441D01*
X122381317Y-73811445D01*
X122365755Y-73959516D01*
X122361500Y-74000000D01*
X122362190Y-74006565D01*
X122380004Y-74176055D01*
X122382008Y-74195125D01*
X122384049Y-74201407D01*
X122384050Y-74201411D01*
X122411623Y-74286271D01*
X122413651Y-74357238D01*
X122406404Y-74377549D01*
X122386042Y-74422135D01*
X122386041Y-74422138D01*
X122382300Y-74430330D01*
X122381018Y-74439245D01*
X122381018Y-74439246D01*
X122362139Y-74570552D01*
X122362138Y-74570559D01*
X122361500Y-74575000D01*
X122361500Y-75425000D01*
X122366727Y-75498079D01*
X122381460Y-75548254D01*
X122404245Y-75625853D01*
X122407904Y-75638316D01*
X122412775Y-75645895D01*
X122482051Y-75753691D01*
X122482053Y-75753694D01*
X122486923Y-75761271D01*
X122493733Y-75767172D01*
X122590569Y-75851082D01*
X122590572Y-75851084D01*
X122597381Y-75856984D01*
X122605579Y-75860728D01*
X122633093Y-75873293D01*
X122730330Y-75917700D01*
X122739245Y-75918982D01*
X122739246Y-75918982D01*
X122870552Y-75937861D01*
X122870559Y-75937862D01*
X122875000Y-75938500D01*
X123725000Y-75938500D01*
X123798079Y-75933273D01*
X123887612Y-75906984D01*
X123929670Y-75894635D01*
X123929672Y-75894634D01*
X123938316Y-75892096D01*
X123988401Y-75859908D01*
X124053691Y-75817949D01*
X124053694Y-75817947D01*
X124061271Y-75813077D01*
X124089530Y-75780465D01*
X124151082Y-75709431D01*
X124151084Y-75709428D01*
X124156984Y-75702619D01*
X124162693Y-75690119D01*
X124213958Y-75577864D01*
X124213958Y-75577863D01*
X124217700Y-75569670D01*
X124223560Y-75528913D01*
X124237861Y-75429448D01*
X124237862Y-75429441D01*
X124238500Y-75425000D01*
X124238500Y-74575000D01*
X124233273Y-74501921D01*
X124192096Y-74361684D01*
X124193840Y-74361172D01*
X124185295Y-74301723D01*
X124190179Y-74280723D01*
X124193547Y-74270357D01*
X124217992Y-74195125D01*
X124219997Y-74176055D01*
X124237810Y-74006565D01*
X124238500Y-74000000D01*
X124234245Y-73959516D01*
X124218683Y-73811445D01*
X124218682Y-73811441D01*
X124217992Y-73804875D01*
X124157362Y-73618278D01*
X124125447Y-73563000D01*
X124108709Y-73494005D01*
X124125447Y-73437000D01*
X124154059Y-73387443D01*
X124157362Y-73381722D01*
X124163465Y-73362941D01*
X124199704Y-73251408D01*
X124217992Y-73195125D01*
X124219997Y-73176055D01*
X124237810Y-73006565D01*
X124238500Y-73000000D01*
X126111500Y-73000000D01*
X126112190Y-73006565D01*
X126130004Y-73176055D01*
X126132008Y-73195125D01*
X126150296Y-73251408D01*
X126186536Y-73362941D01*
X126192638Y-73381722D01*
X126195941Y-73387443D01*
X126224553Y-73437000D01*
X126241291Y-73505995D01*
X126224553Y-73562999D01*
X126192638Y-73618278D01*
X126132008Y-73804875D01*
X126131318Y-73811441D01*
X126131317Y-73811445D01*
X126115755Y-73959516D01*
X126111500Y-74000000D01*
X126112190Y-74006565D01*
X126130004Y-74176055D01*
X126132008Y-74195125D01*
X126134049Y-74201407D01*
X126134050Y-74201411D01*
X126161623Y-74286271D01*
X126163651Y-74357238D01*
X126156404Y-74377549D01*
X126136042Y-74422135D01*
X126136041Y-74422138D01*
X126132300Y-74430330D01*
X126131018Y-74439245D01*
X126131018Y-74439246D01*
X126112139Y-74570552D01*
X126112138Y-74570559D01*
X126111500Y-74575000D01*
X126111500Y-75425000D01*
X126116727Y-75498079D01*
X126131460Y-75548254D01*
X126154245Y-75625853D01*
X126157904Y-75638316D01*
X126162775Y-75645895D01*
X126232051Y-75753691D01*
X126232053Y-75753694D01*
X126236923Y-75761271D01*
X126243733Y-75767172D01*
X126340569Y-75851082D01*
X126340572Y-75851084D01*
X126347381Y-75856984D01*
X126355579Y-75860728D01*
X126383093Y-75873293D01*
X126480330Y-75917700D01*
X126489245Y-75918982D01*
X126489246Y-75918982D01*
X126620552Y-75937861D01*
X126620559Y-75937862D01*
X126625000Y-75938500D01*
X127475000Y-75938500D01*
X127548079Y-75933273D01*
X127637612Y-75906984D01*
X127679670Y-75894635D01*
X127679672Y-75894634D01*
X127688316Y-75892096D01*
X127738401Y-75859908D01*
X127803691Y-75817949D01*
X127803694Y-75817947D01*
X127811271Y-75813077D01*
X127839530Y-75780465D01*
X127901082Y-75709431D01*
X127901084Y-75709428D01*
X127906984Y-75702619D01*
X127912693Y-75690119D01*
X127963958Y-75577864D01*
X127963958Y-75577863D01*
X127967700Y-75569670D01*
X127973560Y-75528913D01*
X127987861Y-75429448D01*
X127987862Y-75429441D01*
X127988500Y-75425000D01*
X127988500Y-74575000D01*
X127983273Y-74501921D01*
X127942096Y-74361684D01*
X127943840Y-74361172D01*
X127935295Y-74301723D01*
X127940179Y-74280723D01*
X127943547Y-74270357D01*
X127967992Y-74195125D01*
X127969997Y-74176055D01*
X127987810Y-74006565D01*
X127988500Y-74000000D01*
X127984245Y-73959516D01*
X127968683Y-73811445D01*
X127968682Y-73811441D01*
X127967992Y-73804875D01*
X127907362Y-73618278D01*
X127875447Y-73563000D01*
X127858709Y-73494005D01*
X127875447Y-73437000D01*
X127904059Y-73387443D01*
X127907362Y-73381722D01*
X127913465Y-73362941D01*
X127949704Y-73251408D01*
X127967992Y-73195125D01*
X127969997Y-73176055D01*
X127987810Y-73006565D01*
X127988500Y-73000000D01*
X127987186Y-72987500D01*
X129641500Y-72987500D01*
X129642190Y-72994065D01*
X129660254Y-73165933D01*
X129662008Y-73182625D01*
X129722638Y-73369222D01*
X129744224Y-73406609D01*
X129754553Y-73424500D01*
X129771291Y-73493495D01*
X129754553Y-73550499D01*
X129722638Y-73605778D01*
X129720598Y-73612058D01*
X129720597Y-73612059D01*
X129707688Y-73651788D01*
X129662008Y-73792375D01*
X129661318Y-73798941D01*
X129661317Y-73798945D01*
X129648037Y-73925299D01*
X129641500Y-73987500D01*
X129642190Y-73994065D01*
X129648362Y-74052785D01*
X129662008Y-74182625D01*
X129664049Y-74188907D01*
X129664050Y-74188911D01*
X129691623Y-74273771D01*
X129693651Y-74344738D01*
X129686404Y-74365049D01*
X129666042Y-74409635D01*
X129666041Y-74409638D01*
X129662300Y-74417830D01*
X129661018Y-74426745D01*
X129661018Y-74426746D01*
X129642139Y-74558052D01*
X129642138Y-74558059D01*
X129641500Y-74562500D01*
X129641500Y-75412500D01*
X129646727Y-75485579D01*
X129660744Y-75533316D01*
X129677853Y-75591584D01*
X129687904Y-75625816D01*
X129697859Y-75641306D01*
X129762051Y-75741191D01*
X129762053Y-75741194D01*
X129766923Y-75748771D01*
X129773733Y-75754672D01*
X129870569Y-75838582D01*
X129870572Y-75838584D01*
X129877381Y-75844484D01*
X129885579Y-75848228D01*
X129940464Y-75873293D01*
X130010330Y-75905200D01*
X130019245Y-75906482D01*
X130019246Y-75906482D01*
X130150552Y-75925361D01*
X130150559Y-75925362D01*
X130155000Y-75926000D01*
X131005000Y-75926000D01*
X131078079Y-75920773D01*
X131156165Y-75897845D01*
X131209670Y-75882135D01*
X131209672Y-75882134D01*
X131218316Y-75879596D01*
X131282135Y-75838582D01*
X131333691Y-75805449D01*
X131333694Y-75805447D01*
X131341271Y-75800577D01*
X131347172Y-75793767D01*
X131431082Y-75696931D01*
X131431084Y-75696928D01*
X131436984Y-75690119D01*
X131440728Y-75681921D01*
X131493958Y-75565364D01*
X131493958Y-75565363D01*
X131497700Y-75557170D01*
X131501763Y-75528913D01*
X131517861Y-75416948D01*
X131517862Y-75416941D01*
X131518500Y-75412500D01*
X131518500Y-74562500D01*
X131513273Y-74489421D01*
X131472096Y-74349184D01*
X131473840Y-74348672D01*
X131465295Y-74289223D01*
X131470179Y-74268223D01*
X131497992Y-74182625D01*
X131508508Y-74082577D01*
X131518137Y-73990956D01*
X131545150Y-73925299D01*
X131603372Y-73884669D01*
X131674317Y-73881966D01*
X131694693Y-73889018D01*
X131763818Y-73919794D01*
X131776182Y-73925299D01*
X131817713Y-73943790D01*
X131887698Y-73958666D01*
X131891697Y-73959516D01*
X131954171Y-73993245D01*
X131988492Y-74055394D01*
X131991500Y-74082763D01*
X131991500Y-76853762D01*
X131990422Y-76870208D01*
X131986500Y-76900000D01*
X131987578Y-76908188D01*
X132005088Y-77041190D01*
X132007404Y-77058786D01*
X132015256Y-77077742D01*
X132039003Y-77135071D01*
X132039004Y-77135073D01*
X132055310Y-77174439D01*
X132068693Y-77206750D01*
X132166190Y-77333810D01*
X132172740Y-77338836D01*
X132190031Y-77352104D01*
X132202422Y-77362971D01*
X132317297Y-77477846D01*
X132351323Y-77540158D01*
X132346258Y-77610973D01*
X132338617Y-77627642D01*
X132304188Y-77690269D01*
X132243456Y-77800740D01*
X132241595Y-77806607D01*
X132241594Y-77806609D01*
X132207569Y-77913871D01*
X132183647Y-77989282D01*
X132161599Y-78185849D01*
X132178150Y-78382956D01*
X132232672Y-78573094D01*
X132323086Y-78749021D01*
X132445949Y-78904036D01*
X132450636Y-78908025D01*
X132450639Y-78908028D01*
X132556591Y-78998200D01*
X132596582Y-79032235D01*
X132601960Y-79035241D01*
X132601962Y-79035242D01*
X132682747Y-79080391D01*
X132769246Y-79128734D01*
X132957366Y-79189857D01*
X133153775Y-79213278D01*
X133159910Y-79212806D01*
X133159912Y-79212806D01*
X133344850Y-79198576D01*
X133344854Y-79198575D01*
X133350992Y-79198103D01*
X133541507Y-79144910D01*
X133718060Y-79055726D01*
X133744279Y-79035242D01*
X133869073Y-78937742D01*
X133873929Y-78933948D01*
X133896303Y-78908028D01*
X133999147Y-78788882D01*
X133999148Y-78788880D01*
X134003176Y-78784214D01*
X134100878Y-78612228D01*
X134163314Y-78424539D01*
X134188105Y-78228299D01*
X134188500Y-78200000D01*
X134169198Y-78003143D01*
X134112027Y-77813785D01*
X134019166Y-77639138D01*
X133932912Y-77533380D01*
X133898045Y-77490628D01*
X133898042Y-77490625D01*
X133894150Y-77485853D01*
X133815335Y-77420651D01*
X133775598Y-77361820D01*
X133770729Y-77340013D01*
X133768674Y-77324400D01*
X133768673Y-77324398D01*
X133767596Y-77316214D01*
X133721302Y-77204452D01*
X133706307Y-77168250D01*
X133608810Y-77041190D01*
X133584969Y-77022896D01*
X133572578Y-77012029D01*
X133245405Y-76684856D01*
X133211379Y-76622544D01*
X133208500Y-76595761D01*
X133208500Y-76084226D01*
X133228502Y-76016105D01*
X133282158Y-75969612D01*
X133352432Y-75959508D01*
X133369999Y-75963330D01*
X133372133Y-75963957D01*
X133380330Y-75967700D01*
X133440964Y-75976418D01*
X133520552Y-75987861D01*
X133520559Y-75987862D01*
X133525000Y-75988500D01*
X134375000Y-75988500D01*
X134448079Y-75983273D01*
X134548507Y-75953785D01*
X134579670Y-75944635D01*
X134579672Y-75944634D01*
X134588316Y-75942096D01*
X134645727Y-75905200D01*
X134703691Y-75867949D01*
X134703694Y-75867947D01*
X134711271Y-75863077D01*
X134717172Y-75856267D01*
X134801082Y-75759431D01*
X134801084Y-75759428D01*
X134806984Y-75752619D01*
X134867700Y-75619670D01*
X134872112Y-75588981D01*
X134887861Y-75479448D01*
X134887862Y-75479441D01*
X134888500Y-75475000D01*
X134888500Y-74625000D01*
X134883273Y-74551921D01*
X134842096Y-74411684D01*
X134843840Y-74411172D01*
X134835295Y-74351723D01*
X134840179Y-74330723D01*
X134849602Y-74301723D01*
X134867992Y-74245125D01*
X134872587Y-74201411D01*
X134887810Y-74056565D01*
X134888500Y-74050000D01*
X134882535Y-73993245D01*
X134868683Y-73861445D01*
X134868682Y-73861441D01*
X134867992Y-73854875D01*
X134807362Y-73668278D01*
X134775447Y-73613000D01*
X134758709Y-73544005D01*
X134775447Y-73487000D01*
X134804059Y-73437443D01*
X134807362Y-73431722D01*
X134814958Y-73408346D01*
X134865950Y-73251408D01*
X134867992Y-73245125D01*
X134869855Y-73227406D01*
X134887810Y-73056565D01*
X134888500Y-73050000D01*
X134882554Y-72993429D01*
X134868683Y-72861445D01*
X134868682Y-72861441D01*
X134867992Y-72854875D01*
X134807362Y-72668278D01*
X134787452Y-72633793D01*
X134775161Y-72612504D01*
X134758423Y-72543508D01*
X134775160Y-72486505D01*
X134803603Y-72437239D01*
X134808948Y-72425234D01*
X134842740Y-72321232D01*
X134843143Y-72307133D01*
X134836771Y-72304000D01*
X134552084Y-72304000D01*
X134478023Y-72279936D01*
X134424592Y-72241116D01*
X134424591Y-72241115D01*
X134419250Y-72237235D01*
X134413222Y-72234551D01*
X134413220Y-72234550D01*
X134246043Y-72160118D01*
X134246042Y-72160118D01*
X134240012Y-72157433D01*
X134142042Y-72136609D01*
X134054557Y-72118013D01*
X134054553Y-72118013D01*
X134048100Y-72116641D01*
X133851900Y-72116641D01*
X133845447Y-72118013D01*
X133845443Y-72118013D01*
X133757958Y-72136609D01*
X133659988Y-72157433D01*
X133653958Y-72160118D01*
X133653957Y-72160118D01*
X133486780Y-72234550D01*
X133486778Y-72234551D01*
X133480750Y-72237235D01*
X133475409Y-72241115D01*
X133475408Y-72241116D01*
X133421977Y-72279936D01*
X133347916Y-72304000D01*
X133069776Y-72304000D01*
X133056245Y-72307973D01*
X133055235Y-72315000D01*
X133091052Y-72425234D01*
X133096397Y-72437239D01*
X133124840Y-72486505D01*
X133141577Y-72555500D01*
X133124840Y-72612502D01*
X133117880Y-72624559D01*
X133112549Y-72633792D01*
X133061166Y-72682786D01*
X132991453Y-72696223D01*
X132925542Y-72669836D01*
X132894310Y-72633793D01*
X132842339Y-72543776D01*
X132842336Y-72543771D01*
X132839037Y-72538058D01*
X132810168Y-72505995D01*
X132715673Y-72401048D01*
X132715672Y-72401047D01*
X132711251Y-72396137D01*
X132705909Y-72392256D01*
X132705907Y-72392254D01*
X132562092Y-72287767D01*
X132562091Y-72287766D01*
X132556750Y-72283886D01*
X132550722Y-72281202D01*
X132550720Y-72281201D01*
X132388318Y-72208895D01*
X132388317Y-72208895D01*
X132382287Y-72206210D01*
X132280386Y-72184550D01*
X132201944Y-72167876D01*
X132201939Y-72167876D01*
X132195487Y-72166504D01*
X132004513Y-72166504D01*
X131998061Y-72167876D01*
X131998056Y-72167876D01*
X131919614Y-72184550D01*
X131817713Y-72206210D01*
X131811683Y-72208895D01*
X131811682Y-72208895D01*
X131693962Y-72261308D01*
X131643250Y-72283886D01*
X131641349Y-72285267D01*
X131573887Y-72301633D01*
X131506795Y-72278413D01*
X131477462Y-72246756D01*
X131466771Y-72241500D01*
X131182084Y-72241500D01*
X131108023Y-72217436D01*
X131054592Y-72178616D01*
X131054591Y-72178615D01*
X131049250Y-72174735D01*
X131043222Y-72172051D01*
X131043220Y-72172050D01*
X130876043Y-72097618D01*
X130876042Y-72097618D01*
X130870012Y-72094933D01*
X130774056Y-72074537D01*
X130684557Y-72055513D01*
X130684553Y-72055513D01*
X130678100Y-72054141D01*
X130481900Y-72054141D01*
X130475447Y-72055513D01*
X130475443Y-72055513D01*
X130385944Y-72074537D01*
X130289988Y-72094933D01*
X130283958Y-72097618D01*
X130283957Y-72097618D01*
X130116780Y-72172050D01*
X130116778Y-72172051D01*
X130110750Y-72174735D01*
X130105409Y-72178615D01*
X130105408Y-72178616D01*
X130051977Y-72217436D01*
X129977916Y-72241500D01*
X129699776Y-72241500D01*
X129686245Y-72245473D01*
X129685235Y-72252500D01*
X129721052Y-72362734D01*
X129726397Y-72374739D01*
X129754840Y-72424005D01*
X129771577Y-72493000D01*
X129754839Y-72550004D01*
X129751666Y-72555500D01*
X129722638Y-72605778D01*
X129720598Y-72612058D01*
X129720597Y-72612059D01*
X129713535Y-72633793D01*
X129662008Y-72792375D01*
X129661318Y-72798941D01*
X129661317Y-72798945D01*
X129642438Y-72978580D01*
X129641500Y-72987500D01*
X127987186Y-72987500D01*
X127981813Y-72936375D01*
X127968683Y-72811445D01*
X127968682Y-72811441D01*
X127967992Y-72804875D01*
X127907362Y-72618278D01*
X127875161Y-72562504D01*
X127858423Y-72493508D01*
X127875160Y-72436505D01*
X127903603Y-72387239D01*
X127908948Y-72375234D01*
X127942740Y-72271232D01*
X127943143Y-72257133D01*
X127936771Y-72254000D01*
X127652084Y-72254000D01*
X127578023Y-72229936D01*
X127524592Y-72191116D01*
X127524591Y-72191115D01*
X127519250Y-72187235D01*
X127513222Y-72184551D01*
X127513220Y-72184550D01*
X127346043Y-72110118D01*
X127346042Y-72110118D01*
X127340012Y-72107433D01*
X127244056Y-72087037D01*
X127154557Y-72068013D01*
X127154553Y-72068013D01*
X127148100Y-72066641D01*
X126951900Y-72066641D01*
X126945447Y-72068013D01*
X126945443Y-72068013D01*
X126855944Y-72087037D01*
X126759988Y-72107433D01*
X126753958Y-72110118D01*
X126753957Y-72110118D01*
X126586780Y-72184550D01*
X126586778Y-72184551D01*
X126580750Y-72187235D01*
X126575409Y-72191115D01*
X126575408Y-72191116D01*
X126521977Y-72229936D01*
X126447916Y-72254000D01*
X126169776Y-72254000D01*
X126156245Y-72257973D01*
X126155235Y-72265000D01*
X126191052Y-72375234D01*
X126196397Y-72387239D01*
X126224840Y-72436505D01*
X126241577Y-72505500D01*
X126224839Y-72562504D01*
X126192638Y-72618278D01*
X126132008Y-72804875D01*
X126131318Y-72811441D01*
X126131317Y-72811445D01*
X126118187Y-72936375D01*
X126111500Y-73000000D01*
X124238500Y-73000000D01*
X124237810Y-72993435D01*
X124237810Y-72993429D01*
X124237369Y-72989234D01*
X124250139Y-72919396D01*
X124273583Y-72886966D01*
X125417682Y-71742867D01*
X126156857Y-71742867D01*
X126163229Y-71746000D01*
X126777885Y-71746000D01*
X126793124Y-71741525D01*
X126794329Y-71740135D01*
X126796000Y-71732452D01*
X126796000Y-71118402D01*
X126795025Y-71115083D01*
X127304000Y-71115083D01*
X127304000Y-71727885D01*
X127308475Y-71743124D01*
X127309865Y-71744329D01*
X127317548Y-71746000D01*
X127930224Y-71746000D01*
X127943755Y-71742027D01*
X127944765Y-71735000D01*
X127943260Y-71730367D01*
X129686857Y-71730367D01*
X129693229Y-71733500D01*
X130307885Y-71733500D01*
X130323124Y-71729025D01*
X130324329Y-71727635D01*
X130326000Y-71719952D01*
X130326000Y-71105902D01*
X130325025Y-71102583D01*
X130834000Y-71102583D01*
X130834000Y-71715385D01*
X130838475Y-71730624D01*
X130839865Y-71731829D01*
X130847548Y-71733500D01*
X131460224Y-71733500D01*
X131473755Y-71729527D01*
X131474765Y-71722500D01*
X131438948Y-71612266D01*
X131433602Y-71600258D01*
X131342159Y-71441875D01*
X131334439Y-71431249D01*
X131212067Y-71295341D01*
X131202301Y-71286547D01*
X131054342Y-71179049D01*
X131042970Y-71172483D01*
X130875886Y-71098093D01*
X130863400Y-71094036D01*
X130851722Y-71091554D01*
X130837659Y-71092627D01*
X130834000Y-71102583D01*
X130325025Y-71102583D01*
X130322027Y-71092371D01*
X130311532Y-71090862D01*
X130296600Y-71094036D01*
X130284114Y-71098093D01*
X130117030Y-71172483D01*
X130105658Y-71179049D01*
X129957699Y-71286547D01*
X129947933Y-71295341D01*
X129825561Y-71431249D01*
X129817841Y-71441875D01*
X129726398Y-71600258D01*
X129721052Y-71612266D01*
X129687260Y-71716268D01*
X129686857Y-71730367D01*
X127943260Y-71730367D01*
X127908948Y-71624766D01*
X127903602Y-71612758D01*
X127812159Y-71454375D01*
X127804439Y-71443749D01*
X127682067Y-71307841D01*
X127672301Y-71299047D01*
X127524342Y-71191549D01*
X127512970Y-71184983D01*
X127345886Y-71110593D01*
X127333400Y-71106536D01*
X127321722Y-71104054D01*
X127307659Y-71105127D01*
X127304000Y-71115083D01*
X126795025Y-71115083D01*
X126792027Y-71104871D01*
X126781532Y-71103362D01*
X126766600Y-71106536D01*
X126754114Y-71110593D01*
X126587030Y-71184983D01*
X126575658Y-71191549D01*
X126427699Y-71299047D01*
X126417933Y-71307841D01*
X126295561Y-71443749D01*
X126287841Y-71454375D01*
X126196398Y-71612758D01*
X126191052Y-71624766D01*
X126157260Y-71728768D01*
X126156857Y-71742867D01*
X125417682Y-71742867D01*
X125597578Y-71562971D01*
X125609969Y-71552104D01*
X125627260Y-71538836D01*
X125633810Y-71533810D01*
X125731307Y-71406750D01*
X125774464Y-71302559D01*
X125792596Y-71258786D01*
X125795106Y-71239724D01*
X125812422Y-71108188D01*
X125813500Y-71100000D01*
X125809578Y-71070208D01*
X125808500Y-71053762D01*
X125808500Y-70730284D01*
X125828502Y-70662163D01*
X125840857Y-70645982D01*
X125939037Y-70536942D01*
X126011947Y-70410659D01*
X126031220Y-70377277D01*
X126031221Y-70377276D01*
X126034524Y-70371554D01*
X126070641Y-70260396D01*
X126091498Y-70196206D01*
X126091498Y-70196205D01*
X126093538Y-70189927D01*
X126104663Y-70084084D01*
X126112810Y-70006565D01*
X126113500Y-70000000D01*
X126093538Y-69810073D01*
X126087384Y-69791131D01*
X126036566Y-69634731D01*
X126034524Y-69628446D01*
X125939037Y-69463058D01*
X125835720Y-69348312D01*
X125815673Y-69326048D01*
X125815672Y-69326047D01*
X125811251Y-69321137D01*
X125805909Y-69317256D01*
X125805907Y-69317254D01*
X125662092Y-69212767D01*
X125662091Y-69212766D01*
X125656750Y-69208886D01*
X125650722Y-69206202D01*
X125650720Y-69206201D01*
X125488318Y-69133895D01*
X125488317Y-69133895D01*
X125482287Y-69131210D01*
X125377262Y-69108886D01*
X125301944Y-69092876D01*
X125301939Y-69092876D01*
X125295487Y-69091504D01*
X125104513Y-69091504D01*
X125098061Y-69092876D01*
X125098056Y-69092876D01*
X125022738Y-69108886D01*
X124917713Y-69131210D01*
X124911683Y-69133895D01*
X124911682Y-69133895D01*
X124749280Y-69206201D01*
X124749278Y-69206202D01*
X124743250Y-69208886D01*
X124737909Y-69212766D01*
X124737908Y-69212767D01*
X124627662Y-69292865D01*
X124560794Y-69316724D01*
X124491642Y-69300643D01*
X124459965Y-69275240D01*
X124411251Y-69221137D01*
X124405909Y-69217256D01*
X124405907Y-69217254D01*
X124262092Y-69112767D01*
X124262091Y-69112766D01*
X124256750Y-69108886D01*
X124250722Y-69106202D01*
X124250720Y-69106201D01*
X124088318Y-69033895D01*
X124088317Y-69033895D01*
X124082287Y-69031210D01*
X124055424Y-69025500D01*
X132529500Y-69025500D01*
X132529500Y-70549500D01*
X132534727Y-70622579D01*
X132575904Y-70762816D01*
X132580775Y-70770395D01*
X132650051Y-70878191D01*
X132650053Y-70878194D01*
X132654923Y-70885771D01*
X132661733Y-70891672D01*
X132758569Y-70975582D01*
X132758572Y-70975584D01*
X132765381Y-70981484D01*
X132773579Y-70985228D01*
X132882431Y-71034939D01*
X132898330Y-71042200D01*
X132907245Y-71043482D01*
X132907246Y-71043482D01*
X133038552Y-71062361D01*
X133038559Y-71062362D01*
X133043000Y-71063000D01*
X133333622Y-71063000D01*
X133401743Y-71083002D01*
X133448236Y-71136658D01*
X133458340Y-71206932D01*
X133428846Y-71271512D01*
X133407683Y-71290936D01*
X133327699Y-71349047D01*
X133317933Y-71357841D01*
X133195561Y-71493749D01*
X133187841Y-71504375D01*
X133096398Y-71662758D01*
X133091052Y-71674766D01*
X133057260Y-71778768D01*
X133056857Y-71792867D01*
X133063229Y-71796000D01*
X134830224Y-71796000D01*
X134843755Y-71792027D01*
X134844765Y-71785000D01*
X134808948Y-71674766D01*
X134803602Y-71662758D01*
X134712159Y-71504375D01*
X134704439Y-71493749D01*
X134582067Y-71357841D01*
X134572301Y-71349047D01*
X134492317Y-71290936D01*
X134448963Y-71234714D01*
X134442888Y-71163978D01*
X134476019Y-71101186D01*
X134537839Y-71066275D01*
X134562516Y-71063443D01*
X134562503Y-71063080D01*
X134564743Y-71063000D01*
X134567000Y-71063000D01*
X134640079Y-71057773D01*
X134731427Y-71030951D01*
X134771670Y-71019135D01*
X134771672Y-71019134D01*
X134780316Y-71016596D01*
X134844135Y-70975582D01*
X134895691Y-70942449D01*
X134895694Y-70942447D01*
X134903271Y-70937577D01*
X134943048Y-70891672D01*
X134993082Y-70833931D01*
X134993084Y-70833928D01*
X134998984Y-70827119D01*
X135059700Y-70694170D01*
X135076552Y-70576960D01*
X135106045Y-70512379D01*
X135165771Y-70473995D01*
X135236768Y-70473995D01*
X135298774Y-70515085D01*
X135352612Y-70580862D01*
X135433690Y-70679921D01*
X135437953Y-70683562D01*
X135437958Y-70683567D01*
X135587028Y-70810884D01*
X135606127Y-70827196D01*
X135663531Y-70860740D01*
X135797072Y-70938775D01*
X135797075Y-70938776D01*
X135801919Y-70941607D01*
X135807189Y-70943536D01*
X135807190Y-70943536D01*
X136009612Y-71017612D01*
X136009616Y-71017613D01*
X136014876Y-71019538D01*
X136020393Y-71020501D01*
X136020397Y-71020502D01*
X136185298Y-71049282D01*
X136238269Y-71058527D01*
X136243875Y-71058498D01*
X136243879Y-71058498D01*
X136347475Y-71057955D01*
X136465035Y-71057339D01*
X136470553Y-71056316D01*
X136470556Y-71056316D01*
X136682488Y-71017037D01*
X136682489Y-71017037D01*
X136688007Y-71016014D01*
X136693252Y-71014032D01*
X136693256Y-71014031D01*
X136818201Y-70966818D01*
X136900137Y-70935857D01*
X137094720Y-70819401D01*
X137098940Y-70815719D01*
X137098945Y-70815716D01*
X137261375Y-70674019D01*
X137265605Y-70670329D01*
X137361504Y-70550628D01*
X137403885Y-70497728D01*
X137403888Y-70497723D01*
X137407391Y-70493351D01*
X137410068Y-70488422D01*
X137476934Y-70365269D01*
X137503696Y-70315979D01*
X137553777Y-70265659D01*
X137623115Y-70250402D01*
X137689694Y-70275054D01*
X137724520Y-70314822D01*
X137830059Y-70504437D01*
X137833612Y-70508777D01*
X137833614Y-70508781D01*
X137916445Y-70609981D01*
X137973690Y-70679921D01*
X137977953Y-70683562D01*
X137977958Y-70683567D01*
X138127028Y-70810884D01*
X138146127Y-70827196D01*
X138203531Y-70860740D01*
X138337072Y-70938775D01*
X138337075Y-70938776D01*
X138341919Y-70941607D01*
X138347189Y-70943536D01*
X138347190Y-70943536D01*
X138549612Y-71017612D01*
X138549616Y-71017613D01*
X138554876Y-71019538D01*
X138560393Y-71020501D01*
X138560397Y-71020502D01*
X138725298Y-71049282D01*
X138778269Y-71058527D01*
X138783875Y-71058498D01*
X138783879Y-71058498D01*
X138887475Y-71057955D01*
X139005035Y-71057339D01*
X139010553Y-71056316D01*
X139010556Y-71056316D01*
X139222488Y-71017037D01*
X139222489Y-71017037D01*
X139228007Y-71016014D01*
X139233252Y-71014032D01*
X139233256Y-71014031D01*
X139358201Y-70966818D01*
X139440137Y-70935857D01*
X139634720Y-70819401D01*
X139638940Y-70815719D01*
X139638945Y-70815716D01*
X139801375Y-70674019D01*
X139805605Y-70670329D01*
X139901504Y-70550628D01*
X139943885Y-70497728D01*
X139943888Y-70497723D01*
X139947391Y-70493351D01*
X139950068Y-70488422D01*
X140016934Y-70365269D01*
X140043696Y-70315979D01*
X140093777Y-70265659D01*
X140163115Y-70250402D01*
X140229694Y-70275054D01*
X140264520Y-70314822D01*
X140370059Y-70504437D01*
X140373612Y-70508777D01*
X140373614Y-70508781D01*
X140456445Y-70609981D01*
X140513690Y-70679921D01*
X140517953Y-70683562D01*
X140517958Y-70683567D01*
X140667028Y-70810884D01*
X140686127Y-70827196D01*
X140743531Y-70860740D01*
X140877072Y-70938775D01*
X140877075Y-70938776D01*
X140881919Y-70941607D01*
X140887189Y-70943536D01*
X140887190Y-70943536D01*
X141089612Y-71017612D01*
X141089616Y-71017613D01*
X141094876Y-71019538D01*
X141100393Y-71020501D01*
X141100397Y-71020502D01*
X141265298Y-71049282D01*
X141318269Y-71058527D01*
X141323875Y-71058498D01*
X141323879Y-71058498D01*
X141427475Y-71057955D01*
X141545035Y-71057339D01*
X141550553Y-71056316D01*
X141550556Y-71056316D01*
X141762488Y-71017037D01*
X141762489Y-71017037D01*
X141768007Y-71016014D01*
X141773252Y-71014032D01*
X141773256Y-71014031D01*
X141898201Y-70966818D01*
X141980137Y-70935857D01*
X142174720Y-70819401D01*
X142178940Y-70815719D01*
X142178945Y-70815716D01*
X142341375Y-70674019D01*
X142345605Y-70670329D01*
X142441504Y-70550628D01*
X142483885Y-70497728D01*
X142483888Y-70497723D01*
X142487391Y-70493351D01*
X142490068Y-70488422D01*
X142556934Y-70365269D01*
X142583696Y-70315979D01*
X142633777Y-70265659D01*
X142703115Y-70250402D01*
X142769694Y-70275054D01*
X142804520Y-70314822D01*
X142910059Y-70504437D01*
X142913612Y-70508777D01*
X142913614Y-70508781D01*
X142996445Y-70609981D01*
X143053690Y-70679921D01*
X143057953Y-70683562D01*
X143057958Y-70683567D01*
X143207028Y-70810884D01*
X143226127Y-70827196D01*
X143283531Y-70860740D01*
X143417072Y-70938775D01*
X143417075Y-70938776D01*
X143421919Y-70941607D01*
X143427189Y-70943536D01*
X143427190Y-70943536D01*
X143629612Y-71017612D01*
X143629616Y-71017613D01*
X143634876Y-71019538D01*
X143640393Y-71020501D01*
X143640397Y-71020502D01*
X143805298Y-71049282D01*
X143858269Y-71058527D01*
X143863875Y-71058498D01*
X143863879Y-71058498D01*
X143967475Y-71057955D01*
X144085035Y-71057339D01*
X144090553Y-71056316D01*
X144090556Y-71056316D01*
X144302488Y-71017037D01*
X144302489Y-71017037D01*
X144308007Y-71016014D01*
X144313252Y-71014032D01*
X144313256Y-71014031D01*
X144438201Y-70966818D01*
X144520137Y-70935857D01*
X144714720Y-70819401D01*
X144718940Y-70815719D01*
X144718945Y-70815716D01*
X144881375Y-70674019D01*
X144885605Y-70670329D01*
X144981504Y-70550628D01*
X145023885Y-70497728D01*
X145023888Y-70497723D01*
X145027391Y-70493351D01*
X145135596Y-70294062D01*
X145206800Y-70078762D01*
X145218944Y-69993435D01*
X145238241Y-69857846D01*
X145238241Y-69857845D01*
X145238752Y-69854255D01*
X145240500Y-69787500D01*
X145220341Y-69561628D01*
X145160503Y-69342896D01*
X145062876Y-69138218D01*
X144930547Y-68954062D01*
X144767698Y-68796250D01*
X144640178Y-68710560D01*
X144584130Y-68672897D01*
X144584124Y-68672894D01*
X144579477Y-68669771D01*
X144574345Y-68667518D01*
X144574341Y-68667516D01*
X144376975Y-68580878D01*
X144376973Y-68580877D01*
X144371833Y-68578621D01*
X144207628Y-68539199D01*
X144156786Y-68526993D01*
X144156785Y-68526993D01*
X144151329Y-68525683D01*
X144037699Y-68519131D01*
X143930542Y-68512952D01*
X143930539Y-68512952D01*
X143924936Y-68512629D01*
X143699809Y-68539873D01*
X143694447Y-68541523D01*
X143694445Y-68541523D01*
X143623739Y-68563275D01*
X143483064Y-68606552D01*
X143281553Y-68710560D01*
X143101645Y-68848608D01*
X143097872Y-68852754D01*
X143097867Y-68852759D01*
X143072325Y-68880830D01*
X142949026Y-69016334D01*
X142946043Y-69021089D01*
X142946041Y-69021092D01*
X142888534Y-69112767D01*
X142828521Y-69208435D01*
X142826429Y-69213639D01*
X142826428Y-69213641D01*
X142811113Y-69251739D01*
X142767146Y-69307483D01*
X142700021Y-69330608D01*
X142631050Y-69313771D01*
X142580480Y-69258987D01*
X142564767Y-69226044D01*
X142522876Y-69138218D01*
X142390547Y-68954062D01*
X142227698Y-68796250D01*
X142100178Y-68710560D01*
X142044130Y-68672897D01*
X142044124Y-68672894D01*
X142039477Y-68669771D01*
X142034345Y-68667518D01*
X142034341Y-68667516D01*
X141836975Y-68580878D01*
X141836973Y-68580877D01*
X141831833Y-68578621D01*
X141667628Y-68539199D01*
X141616786Y-68526993D01*
X141616785Y-68526993D01*
X141611329Y-68525683D01*
X141497699Y-68519131D01*
X141390542Y-68512952D01*
X141390539Y-68512952D01*
X141384936Y-68512629D01*
X141159809Y-68539873D01*
X141154447Y-68541523D01*
X141154445Y-68541523D01*
X141083739Y-68563275D01*
X140943064Y-68606552D01*
X140741553Y-68710560D01*
X140561645Y-68848608D01*
X140557872Y-68852754D01*
X140557867Y-68852759D01*
X140532325Y-68880830D01*
X140409026Y-69016334D01*
X140406043Y-69021089D01*
X140406041Y-69021092D01*
X140348534Y-69112767D01*
X140288521Y-69208435D01*
X140286429Y-69213639D01*
X140286428Y-69213641D01*
X140271113Y-69251739D01*
X140227146Y-69307483D01*
X140160021Y-69330608D01*
X140091050Y-69313771D01*
X140040480Y-69258987D01*
X140024767Y-69226044D01*
X139982876Y-69138218D01*
X139850547Y-68954062D01*
X139687698Y-68796250D01*
X139560178Y-68710560D01*
X139504130Y-68672897D01*
X139504124Y-68672894D01*
X139499477Y-68669771D01*
X139494345Y-68667518D01*
X139494341Y-68667516D01*
X139296975Y-68580878D01*
X139296973Y-68580877D01*
X139291833Y-68578621D01*
X139127628Y-68539199D01*
X139076786Y-68526993D01*
X139076785Y-68526993D01*
X139071329Y-68525683D01*
X138957699Y-68519131D01*
X138850542Y-68512952D01*
X138850539Y-68512952D01*
X138844936Y-68512629D01*
X138619809Y-68539873D01*
X138614447Y-68541523D01*
X138614445Y-68541523D01*
X138543739Y-68563275D01*
X138403064Y-68606552D01*
X138201553Y-68710560D01*
X138021645Y-68848608D01*
X138017872Y-68852754D01*
X138017867Y-68852759D01*
X137992325Y-68880830D01*
X137869026Y-69016334D01*
X137866043Y-69021089D01*
X137866041Y-69021092D01*
X137808534Y-69112767D01*
X137748521Y-69208435D01*
X137746429Y-69213639D01*
X137746428Y-69213641D01*
X137731113Y-69251739D01*
X137687146Y-69307483D01*
X137620021Y-69330608D01*
X137551050Y-69313771D01*
X137500480Y-69258987D01*
X137484767Y-69226044D01*
X137442876Y-69138218D01*
X137310547Y-68954062D01*
X137147698Y-68796250D01*
X137020178Y-68710560D01*
X136964130Y-68672897D01*
X136964124Y-68672894D01*
X136959477Y-68669771D01*
X136954345Y-68667518D01*
X136954341Y-68667516D01*
X136756975Y-68580878D01*
X136756973Y-68580877D01*
X136751833Y-68578621D01*
X136587628Y-68539199D01*
X136536786Y-68526993D01*
X136536785Y-68526993D01*
X136531329Y-68525683D01*
X136417699Y-68519131D01*
X136310542Y-68512952D01*
X136310539Y-68512952D01*
X136304936Y-68512629D01*
X136079809Y-68539873D01*
X136074447Y-68541523D01*
X136074445Y-68541523D01*
X136003739Y-68563275D01*
X135863064Y-68606552D01*
X135661553Y-68710560D01*
X135481645Y-68848608D01*
X135477872Y-68852754D01*
X135477867Y-68852759D01*
X135452325Y-68880830D01*
X135329026Y-69016334D01*
X135310254Y-69046258D01*
X135257113Y-69093335D01*
X135186954Y-69104208D01*
X135122054Y-69075425D01*
X135083018Y-69016123D01*
X135077839Y-68988293D01*
X135075755Y-68959159D01*
X135075755Y-68959158D01*
X135075273Y-68952421D01*
X135034096Y-68812184D01*
X134988393Y-68741069D01*
X134959949Y-68696809D01*
X134959947Y-68696806D01*
X134955077Y-68689229D01*
X134936229Y-68672897D01*
X134851431Y-68599418D01*
X134851428Y-68599416D01*
X134844619Y-68593516D01*
X134711670Y-68532800D01*
X134702755Y-68531518D01*
X134702754Y-68531518D01*
X134571448Y-68512639D01*
X134571441Y-68512638D01*
X134567000Y-68512000D01*
X133043000Y-68512000D01*
X132969921Y-68517227D01*
X132916884Y-68532800D01*
X132838330Y-68555865D01*
X132838328Y-68555866D01*
X132829684Y-68558404D01*
X132822105Y-68563275D01*
X132714309Y-68632551D01*
X132714306Y-68632553D01*
X132706729Y-68637423D01*
X132700828Y-68644233D01*
X132616918Y-68741069D01*
X132616916Y-68741072D01*
X132611016Y-68747881D01*
X132607272Y-68756079D01*
X132588927Y-68796250D01*
X132550300Y-68880830D01*
X132549018Y-68889745D01*
X132549018Y-68889746D01*
X132530139Y-69021052D01*
X132530138Y-69021059D01*
X132529500Y-69025500D01*
X124055424Y-69025500D01*
X123988887Y-69011357D01*
X123901944Y-68992876D01*
X123901939Y-68992876D01*
X123895487Y-68991504D01*
X123704513Y-68991504D01*
X123698061Y-68992876D01*
X123698056Y-68992876D01*
X123611113Y-69011357D01*
X123517713Y-69031210D01*
X123511683Y-69033895D01*
X123511682Y-69033895D01*
X123349280Y-69106201D01*
X123349278Y-69106202D01*
X123343250Y-69108886D01*
X123337909Y-69112766D01*
X123337908Y-69112767D01*
X123194093Y-69217254D01*
X123194091Y-69217256D01*
X123188749Y-69221137D01*
X123184331Y-69226044D01*
X123184327Y-69226048D01*
X123117162Y-69300643D01*
X123060963Y-69363058D01*
X122965476Y-69528446D01*
X122906462Y-69710073D01*
X122905772Y-69716636D01*
X122905772Y-69716637D01*
X122896612Y-69803794D01*
X122886500Y-69900000D01*
X122887190Y-69906565D01*
X122905289Y-70078762D01*
X122906462Y-70089927D01*
X122965476Y-70271554D01*
X122968779Y-70277276D01*
X122968780Y-70277277D01*
X122978471Y-70294062D01*
X123060963Y-70436942D01*
X123159137Y-70545976D01*
X123189853Y-70609981D01*
X123191500Y-70630284D01*
X123191500Y-70966818D01*
X123171498Y-71034939D01*
X123117842Y-71081432D01*
X123091697Y-71090065D01*
X123053930Y-71098093D01*
X123009988Y-71107433D01*
X123003958Y-71110118D01*
X123003957Y-71110118D01*
X122836780Y-71184550D01*
X122836778Y-71184551D01*
X122830750Y-71187235D01*
X122825409Y-71191115D01*
X122825408Y-71191116D01*
X122773457Y-71228861D01*
X122672021Y-71302559D01*
X122540738Y-71448364D01*
X122442638Y-71618278D01*
X122382008Y-71804875D01*
X122381318Y-71811441D01*
X122381317Y-71811445D01*
X122366580Y-71951665D01*
X122361500Y-72000000D01*
X80060576Y-72000000D01*
X80044166Y-71969138D01*
X80040268Y-71964359D01*
X80039857Y-71963740D01*
X80018816Y-71895933D01*
X80035245Y-71831770D01*
X80043366Y-71817475D01*
X80125878Y-71672228D01*
X80188314Y-71484539D01*
X80213105Y-71288299D01*
X80213500Y-71260000D01*
X80194198Y-71063143D01*
X80137027Y-70873785D01*
X80044166Y-70699138D01*
X79947703Y-70580862D01*
X79923045Y-70550628D01*
X79923042Y-70550625D01*
X79919150Y-70545853D01*
X79859226Y-70496279D01*
X79819489Y-70437447D01*
X79817868Y-70366469D01*
X79850448Y-70310101D01*
X90815144Y-59345405D01*
X90877456Y-59311379D01*
X90904239Y-59308500D01*
X98453040Y-59308500D01*
X98521161Y-59328502D01*
X98567654Y-59382158D01*
X98577758Y-59452432D01*
X98548264Y-59517012D01*
X98527102Y-59536435D01*
X98519095Y-59542252D01*
X98519090Y-59542257D01*
X98513749Y-59546137D01*
X98509328Y-59551047D01*
X98509327Y-59551048D01*
X98423647Y-59646206D01*
X98385963Y-59688058D01*
X98382662Y-59693776D01*
X98312518Y-59815269D01*
X98290476Y-59853446D01*
X98268920Y-59919788D01*
X98248959Y-59981224D01*
X98231462Y-60035073D01*
X98230772Y-60041636D01*
X98230772Y-60041637D01*
X98221604Y-60128863D01*
X98211500Y-60225000D01*
X98212190Y-60231565D01*
X98227800Y-60380081D01*
X98231462Y-60414927D01*
X98290476Y-60596554D01*
X98293779Y-60602276D01*
X98293780Y-60602277D01*
X98319084Y-60646104D01*
X98385963Y-60761942D01*
X98390381Y-60766849D01*
X98390382Y-60766850D01*
X98483623Y-60870405D01*
X98513749Y-60903863D01*
X98519091Y-60907744D01*
X98519093Y-60907746D01*
X98647450Y-61001002D01*
X98668250Y-61016114D01*
X98674278Y-61018798D01*
X98674280Y-61018799D01*
X98836682Y-61091105D01*
X98842713Y-61093790D01*
X98936113Y-61113643D01*
X99023056Y-61132124D01*
X99023061Y-61132124D01*
X99029513Y-61133496D01*
X99220487Y-61133496D01*
X99226939Y-61132124D01*
X99226944Y-61132124D01*
X99313887Y-61113643D01*
X99407287Y-61093790D01*
X99413318Y-61091105D01*
X99575720Y-61018799D01*
X99575722Y-61018798D01*
X99581750Y-61016114D01*
X99602550Y-61001002D01*
X99730907Y-60907746D01*
X99730909Y-60907744D01*
X99736251Y-60903863D01*
X99762070Y-60875188D01*
X99822513Y-60837950D01*
X99855704Y-60833500D01*
X102120761Y-60833500D01*
X102188882Y-60853502D01*
X102209856Y-60870405D01*
X107250285Y-65910834D01*
X107284311Y-65973146D01*
X107286845Y-65996719D01*
X107286500Y-66000000D01*
X107306462Y-66189927D01*
X107308502Y-66196205D01*
X107308502Y-66196206D01*
X107334519Y-66276278D01*
X107365476Y-66371554D01*
X107460963Y-66536942D01*
X107465381Y-66541849D01*
X107465382Y-66541850D01*
X107584327Y-66673952D01*
X107588749Y-66678863D01*
X107594091Y-66682744D01*
X107594093Y-66682746D01*
X107689531Y-66752085D01*
X107743250Y-66791114D01*
X107749278Y-66793798D01*
X107749280Y-66793799D01*
X107763208Y-66800000D01*
X107917713Y-66868790D01*
X108011113Y-66888643D01*
X108098056Y-66907124D01*
X108098061Y-66907124D01*
X108104513Y-66908496D01*
X108295487Y-66908496D01*
X108301939Y-66907124D01*
X108301944Y-66907124D01*
X108388887Y-66888643D01*
X108482287Y-66868790D01*
X108636792Y-66800000D01*
X108650720Y-66793799D01*
X108650722Y-66793798D01*
X108656750Y-66791114D01*
X108710469Y-66752085D01*
X108805907Y-66682746D01*
X108805909Y-66682744D01*
X108811251Y-66678863D01*
X108815673Y-66673952D01*
X108934618Y-66541850D01*
X108934619Y-66541849D01*
X108939037Y-66536942D01*
X109034524Y-66371554D01*
X109065481Y-66276278D01*
X109091498Y-66196206D01*
X109091498Y-66196205D01*
X109093538Y-66189927D01*
X109113500Y-66000000D01*
X109113313Y-65998217D01*
X109132812Y-65931808D01*
X109149715Y-65910834D01*
X110297578Y-64762971D01*
X110309969Y-64752104D01*
X110327260Y-64738836D01*
X110333810Y-64733810D01*
X110431307Y-64606750D01*
X110458452Y-64541214D01*
X110492596Y-64458786D01*
X110497553Y-64421137D01*
X110512422Y-64308188D01*
X110513500Y-64300000D01*
X110509578Y-64270208D01*
X110508500Y-64253762D01*
X110508500Y-54152800D01*
X113589700Y-54152800D01*
X113609662Y-54342727D01*
X113668676Y-54524354D01*
X113764163Y-54689742D01*
X113768581Y-54694649D01*
X113768582Y-54694650D01*
X113842599Y-54776854D01*
X113891949Y-54831663D01*
X113897291Y-54835544D01*
X113897293Y-54835546D01*
X114040962Y-54939927D01*
X114046450Y-54943914D01*
X114052478Y-54946598D01*
X114052480Y-54946599D01*
X114214882Y-55018905D01*
X114220913Y-55021590D01*
X114314313Y-55041443D01*
X114401256Y-55059924D01*
X114401261Y-55059924D01*
X114407713Y-55061296D01*
X114598687Y-55061296D01*
X114605139Y-55059924D01*
X114605144Y-55059924D01*
X114692087Y-55041443D01*
X114785487Y-55021590D01*
X114791518Y-55018905D01*
X114953920Y-54946599D01*
X114953922Y-54946598D01*
X114959950Y-54943914D01*
X114965438Y-54939927D01*
X115109107Y-54835546D01*
X115109109Y-54835544D01*
X115114451Y-54831663D01*
X115163801Y-54776854D01*
X115237818Y-54694650D01*
X115237819Y-54694649D01*
X115242237Y-54689742D01*
X115337724Y-54524354D01*
X115396738Y-54342727D01*
X115416700Y-54152800D01*
X115414294Y-54129905D01*
X115397428Y-53969437D01*
X115397428Y-53969436D01*
X115396738Y-53962873D01*
X115394697Y-53956590D01*
X115376959Y-53901997D01*
X115374932Y-53831030D01*
X115407697Y-53773967D01*
X116073281Y-53108383D01*
X116135593Y-53074357D01*
X116206408Y-53079422D01*
X116263244Y-53121969D01*
X116288055Y-53188489D01*
X116287686Y-53210648D01*
X116282100Y-53263800D01*
X116282790Y-53270365D01*
X116290349Y-53342280D01*
X116302062Y-53453727D01*
X116304102Y-53460005D01*
X116304102Y-53460006D01*
X116310224Y-53478848D01*
X116361076Y-53635354D01*
X116456563Y-53800742D01*
X116460981Y-53805649D01*
X116460982Y-53805650D01*
X116529944Y-53882240D01*
X116584349Y-53942663D01*
X116589691Y-53946544D01*
X116589693Y-53946546D01*
X116733508Y-54051033D01*
X116738850Y-54054914D01*
X116744878Y-54057598D01*
X116744880Y-54057599D01*
X116775287Y-54071137D01*
X116913313Y-54132590D01*
X117006713Y-54152443D01*
X117093656Y-54170924D01*
X117093661Y-54170924D01*
X117100113Y-54172296D01*
X117291087Y-54172296D01*
X117297539Y-54170924D01*
X117297544Y-54170924D01*
X117384487Y-54152443D01*
X117477887Y-54132590D01*
X117615913Y-54071137D01*
X117646320Y-54057599D01*
X117646322Y-54057598D01*
X117652350Y-54054914D01*
X117657692Y-54051033D01*
X117801507Y-53946546D01*
X117801509Y-53946544D01*
X117806851Y-53942663D01*
X117811273Y-53937752D01*
X117816175Y-53933338D01*
X117817301Y-53934589D01*
X117870600Y-53901751D01*
X117903794Y-53897300D01*
X117912273Y-53897300D01*
X117980394Y-53917302D01*
X118026887Y-53970958D01*
X118036991Y-54041232D01*
X118005910Y-54107608D01*
X117910963Y-54213058D01*
X117815476Y-54378446D01*
X117756462Y-54560073D01*
X117736500Y-54750000D01*
X117756462Y-54939927D01*
X117815476Y-55121554D01*
X117910963Y-55286942D01*
X118038749Y-55428863D01*
X118044091Y-55432744D01*
X118044093Y-55432746D01*
X118187908Y-55537233D01*
X118193250Y-55541114D01*
X118199278Y-55543798D01*
X118199280Y-55543799D01*
X118361682Y-55616105D01*
X118367713Y-55618790D01*
X118461113Y-55638643D01*
X118548056Y-55657124D01*
X118548061Y-55657124D01*
X118554513Y-55658496D01*
X118645757Y-55658496D01*
X118713878Y-55678498D01*
X118734852Y-55695401D01*
X120054595Y-57015144D01*
X120088621Y-57077456D01*
X120091500Y-57104239D01*
X120091500Y-58330835D01*
X120071498Y-58398956D01*
X120017842Y-58445449D01*
X119947568Y-58455553D01*
X119882988Y-58426059D01*
X119865538Y-58407539D01*
X119838848Y-58372756D01*
X119813247Y-58306536D01*
X119813124Y-58303580D01*
X119813500Y-58300000D01*
X119793538Y-58110073D01*
X119786058Y-58087050D01*
X119736566Y-57934731D01*
X119734524Y-57928446D01*
X119639037Y-57763058D01*
X119567759Y-57683895D01*
X119515673Y-57626048D01*
X119515672Y-57626047D01*
X119511251Y-57621137D01*
X119505909Y-57617256D01*
X119505907Y-57617254D01*
X119362092Y-57512767D01*
X119362091Y-57512766D01*
X119356750Y-57508886D01*
X119350722Y-57506202D01*
X119350720Y-57506201D01*
X119188318Y-57433895D01*
X119188317Y-57433895D01*
X119182287Y-57431210D01*
X119088887Y-57411357D01*
X119001944Y-57392876D01*
X119001939Y-57392876D01*
X118995487Y-57391504D01*
X118804513Y-57391504D01*
X118798061Y-57392876D01*
X118798056Y-57392876D01*
X118711113Y-57411357D01*
X118617713Y-57431210D01*
X118611683Y-57433895D01*
X118611682Y-57433895D01*
X118449280Y-57506201D01*
X118449278Y-57506202D01*
X118443250Y-57508886D01*
X118288749Y-57621137D01*
X118284336Y-57626038D01*
X118284335Y-57626039D01*
X118282956Y-57627571D01*
X118281936Y-57628199D01*
X118279422Y-57630463D01*
X118279008Y-57630003D01*
X118222510Y-57664811D01*
X118163122Y-57666508D01*
X118051944Y-57642876D01*
X118051939Y-57642876D01*
X118045487Y-57641504D01*
X117854513Y-57641504D01*
X117848061Y-57642876D01*
X117848056Y-57642876D01*
X117761113Y-57661357D01*
X117667713Y-57681210D01*
X117661683Y-57683895D01*
X117661682Y-57683895D01*
X117499280Y-57756201D01*
X117499278Y-57756202D01*
X117493250Y-57758886D01*
X117487909Y-57762766D01*
X117487908Y-57762767D01*
X117344093Y-57867254D01*
X117344091Y-57867256D01*
X117338749Y-57871137D01*
X117210963Y-58013058D01*
X117115476Y-58178446D01*
X117056462Y-58360073D01*
X117055772Y-58366636D01*
X117055772Y-58366637D01*
X117047489Y-58445449D01*
X117036500Y-58550000D01*
X117037190Y-58556565D01*
X117051373Y-58691504D01*
X117056462Y-58739927D01*
X117115476Y-58921554D01*
X117210963Y-59086942D01*
X117338749Y-59228863D01*
X117344091Y-59232744D01*
X117344093Y-59232746D01*
X117439561Y-59302107D01*
X117482915Y-59358329D01*
X117491500Y-59404043D01*
X117491500Y-59881739D01*
X117490422Y-59898185D01*
X117486500Y-59927977D01*
X117507404Y-60086763D01*
X117543307Y-60173438D01*
X117568693Y-60234727D01*
X117666190Y-60361787D01*
X117672740Y-60366813D01*
X117690031Y-60380081D01*
X117702422Y-60390948D01*
X119912879Y-62601405D01*
X119946905Y-62663717D01*
X119941840Y-62734532D01*
X119899293Y-62791368D01*
X119832773Y-62816179D01*
X119823784Y-62816500D01*
X119264594Y-62816500D01*
X119196473Y-62796498D01*
X119175499Y-62779595D01*
X117847118Y-61451214D01*
X117813092Y-61388902D01*
X117810903Y-61375290D01*
X117794228Y-61216637D01*
X117794228Y-61216636D01*
X117793538Y-61210073D01*
X117784757Y-61183046D01*
X117736566Y-61034731D01*
X117734524Y-61028446D01*
X117725164Y-61012233D01*
X117654539Y-60889908D01*
X117639037Y-60863058D01*
X117542844Y-60756224D01*
X117515673Y-60726048D01*
X117515672Y-60726047D01*
X117511251Y-60721137D01*
X117505909Y-60717256D01*
X117505907Y-60717254D01*
X117362092Y-60612767D01*
X117362091Y-60612766D01*
X117356750Y-60608886D01*
X117350722Y-60606202D01*
X117350720Y-60606201D01*
X117188318Y-60533895D01*
X117188317Y-60533895D01*
X117182287Y-60531210D01*
X117088887Y-60511357D01*
X117001944Y-60492876D01*
X117001939Y-60492876D01*
X116995487Y-60491504D01*
X116804513Y-60491504D01*
X116798061Y-60492876D01*
X116798056Y-60492876D01*
X116711113Y-60511357D01*
X116617713Y-60531210D01*
X116611683Y-60533895D01*
X116611682Y-60533895D01*
X116449280Y-60606201D01*
X116449278Y-60606202D01*
X116443250Y-60608886D01*
X116437909Y-60612766D01*
X116437908Y-60612767D01*
X116294093Y-60717254D01*
X116294091Y-60717256D01*
X116288749Y-60721137D01*
X116284328Y-60726047D01*
X116284327Y-60726048D01*
X116257157Y-60756224D01*
X116160963Y-60863058D01*
X116145461Y-60889908D01*
X116074837Y-61012233D01*
X116065476Y-61028446D01*
X116063434Y-61034731D01*
X116015244Y-61183046D01*
X116006462Y-61210073D01*
X115986500Y-61400000D01*
X116006462Y-61589927D01*
X116065476Y-61771554D01*
X116160963Y-61936942D01*
X116288749Y-62078863D01*
X116294091Y-62082744D01*
X116294093Y-62082746D01*
X116437908Y-62187233D01*
X116443250Y-62191114D01*
X116449278Y-62193798D01*
X116449280Y-62193799D01*
X116538367Y-62233463D01*
X116617713Y-62268790D01*
X116711113Y-62288643D01*
X116798056Y-62307124D01*
X116798061Y-62307124D01*
X116804513Y-62308496D01*
X116860402Y-62308496D01*
X116928523Y-62328498D01*
X116949497Y-62345401D01*
X118446609Y-63842513D01*
X118453969Y-63850601D01*
X118458027Y-63856995D01*
X118463804Y-63862420D01*
X118506878Y-63902869D01*
X118509720Y-63905624D01*
X118530034Y-63925938D01*
X118533445Y-63928583D01*
X118542465Y-63936287D01*
X118574699Y-63966557D01*
X118581643Y-63970374D01*
X118581645Y-63970376D01*
X118592453Y-63976318D01*
X118608977Y-63987172D01*
X118624977Y-63999583D01*
X118632248Y-64002730D01*
X118632249Y-64002730D01*
X118665551Y-64017141D01*
X118676207Y-64022362D01*
X118714952Y-64043662D01*
X118722635Y-64045634D01*
X118722636Y-64045635D01*
X118734568Y-64048699D01*
X118753272Y-64055103D01*
X118764583Y-64059998D01*
X118764590Y-64060000D01*
X118771864Y-64063148D01*
X118799663Y-64067551D01*
X118815538Y-64070065D01*
X118827163Y-64072473D01*
X118864218Y-64081987D01*
X118864220Y-64081987D01*
X118869975Y-64083465D01*
X118870531Y-64083500D01*
X118890446Y-64083500D01*
X118910156Y-64085051D01*
X118929944Y-64088185D01*
X118937835Y-64087439D01*
X118973590Y-64084059D01*
X118985448Y-64083500D01*
X119941806Y-64083500D01*
X120009927Y-64103502D01*
X120029151Y-64119842D01*
X120029425Y-64119538D01*
X120034328Y-64123953D01*
X120038749Y-64128863D01*
X120044091Y-64132744D01*
X120044093Y-64132746D01*
X120187908Y-64237233D01*
X120193250Y-64241114D01*
X120199278Y-64243798D01*
X120199280Y-64243799D01*
X120361682Y-64316105D01*
X120367713Y-64318790D01*
X120442709Y-64334731D01*
X120548056Y-64357124D01*
X120548061Y-64357124D01*
X120554513Y-64358496D01*
X120745487Y-64358496D01*
X120751939Y-64357124D01*
X120751944Y-64357124D01*
X120857291Y-64334731D01*
X120932287Y-64318790D01*
X120956100Y-64308188D01*
X121100722Y-64243798D01*
X121100723Y-64243797D01*
X121106750Y-64241114D01*
X121107002Y-64241680D01*
X121171492Y-64226033D01*
X121238584Y-64249251D01*
X121282473Y-64305057D01*
X121291500Y-64351890D01*
X121291500Y-64369716D01*
X121271498Y-64437837D01*
X121259143Y-64454018D01*
X121160963Y-64563058D01*
X121065476Y-64728446D01*
X121063434Y-64734731D01*
X121010968Y-64896206D01*
X121006462Y-64910073D01*
X121005772Y-64916637D01*
X121005772Y-64916638D01*
X120993997Y-65028670D01*
X120966984Y-65094327D01*
X120908762Y-65134957D01*
X120868687Y-65141500D01*
X118404239Y-65141500D01*
X118336118Y-65121498D01*
X118315144Y-65104595D01*
X117999715Y-64789166D01*
X117965689Y-64726854D01*
X117963155Y-64703281D01*
X117963500Y-64700000D01*
X117943538Y-64510073D01*
X117884524Y-64328446D01*
X117789037Y-64163058D01*
X117749852Y-64119538D01*
X117665673Y-64026048D01*
X117665672Y-64026047D01*
X117661251Y-64021137D01*
X117655909Y-64017256D01*
X117655907Y-64017254D01*
X117512092Y-63912767D01*
X117512091Y-63912766D01*
X117506750Y-63908886D01*
X117500722Y-63906202D01*
X117500720Y-63906201D01*
X117338318Y-63833895D01*
X117338317Y-63833895D01*
X117332287Y-63831210D01*
X117238887Y-63811357D01*
X117151944Y-63792876D01*
X117151939Y-63792876D01*
X117145487Y-63791504D01*
X116954513Y-63791504D01*
X116948061Y-63792876D01*
X116948056Y-63792876D01*
X116861113Y-63811357D01*
X116767713Y-63831210D01*
X116761683Y-63833895D01*
X116761682Y-63833895D01*
X116599280Y-63906201D01*
X116599278Y-63906202D01*
X116593250Y-63908886D01*
X116587909Y-63912766D01*
X116587908Y-63912767D01*
X116444093Y-64017254D01*
X116444091Y-64017256D01*
X116438749Y-64021137D01*
X116434328Y-64026047D01*
X116434327Y-64026048D01*
X116350149Y-64119538D01*
X116310963Y-64163058D01*
X116215476Y-64328446D01*
X116156462Y-64510073D01*
X116136500Y-64700000D01*
X116156462Y-64889927D01*
X116158502Y-64896205D01*
X116158502Y-64896206D01*
X116165141Y-64916638D01*
X116215476Y-65071554D01*
X116310963Y-65236942D01*
X116315381Y-65241849D01*
X116315382Y-65241850D01*
X116358671Y-65289927D01*
X116438749Y-65378863D01*
X116444091Y-65382744D01*
X116444093Y-65382746D01*
X116559168Y-65466352D01*
X116593250Y-65491114D01*
X116599278Y-65493798D01*
X116599280Y-65493799D01*
X116761682Y-65566105D01*
X116767713Y-65568790D01*
X116861113Y-65588643D01*
X116948056Y-65607124D01*
X116948061Y-65607124D01*
X116954513Y-65608496D01*
X117045757Y-65608496D01*
X117113878Y-65628498D01*
X117134852Y-65645401D01*
X117637029Y-66147578D01*
X117647896Y-66159969D01*
X117666190Y-66183810D01*
X117793250Y-66281307D01*
X117800880Y-66284467D01*
X117800881Y-66284468D01*
X117831486Y-66297144D01*
X117854539Y-66306693D01*
X117941214Y-66342596D01*
X118100000Y-66363500D01*
X118108188Y-66362422D01*
X118108189Y-66362422D01*
X118129792Y-66359578D01*
X118146238Y-66358500D01*
X121745761Y-66358500D01*
X121813882Y-66378502D01*
X121834856Y-66395405D01*
X122150285Y-66710834D01*
X122184311Y-66773146D01*
X122186845Y-66796719D01*
X122186500Y-66800000D01*
X122206462Y-66989927D01*
X122265476Y-67171554D01*
X122360963Y-67336942D01*
X122488749Y-67478863D01*
X122494091Y-67482744D01*
X122494093Y-67482746D01*
X122637908Y-67587233D01*
X122643250Y-67591114D01*
X122649278Y-67593798D01*
X122649280Y-67593799D01*
X122811682Y-67666105D01*
X122817713Y-67668790D01*
X122911113Y-67688643D01*
X122998056Y-67707124D01*
X122998061Y-67707124D01*
X123004513Y-67708496D01*
X123195487Y-67708496D01*
X123201939Y-67707124D01*
X123201944Y-67707124D01*
X123288887Y-67688643D01*
X123382287Y-67668790D01*
X123388318Y-67666105D01*
X123550720Y-67593799D01*
X123550722Y-67593798D01*
X123556750Y-67591114D01*
X123562092Y-67587233D01*
X123705907Y-67482746D01*
X123705909Y-67482744D01*
X123711251Y-67478863D01*
X123839037Y-67336942D01*
X123934524Y-67171554D01*
X123993538Y-66989927D01*
X124013500Y-66800000D01*
X123993538Y-66610073D01*
X123967919Y-66531224D01*
X123936566Y-66434731D01*
X123934524Y-66428446D01*
X123839037Y-66263058D01*
X123767280Y-66183363D01*
X123715673Y-66126048D01*
X123715672Y-66126047D01*
X123711251Y-66121137D01*
X123705909Y-66117256D01*
X123705907Y-66117254D01*
X123562092Y-66012767D01*
X123562091Y-66012766D01*
X123556750Y-66008886D01*
X123550722Y-66006202D01*
X123550720Y-66006201D01*
X123388318Y-65933895D01*
X123388317Y-65933895D01*
X123382287Y-65931210D01*
X123286427Y-65910834D01*
X123201944Y-65892876D01*
X123201939Y-65892876D01*
X123195487Y-65891504D01*
X123104243Y-65891504D01*
X123036122Y-65871502D01*
X123015148Y-65854599D01*
X122763682Y-65603133D01*
X122729656Y-65540821D01*
X122734608Y-65471581D01*
X122734524Y-65471554D01*
X122734635Y-65471214D01*
X122734635Y-65471212D01*
X122793538Y-65289927D01*
X122813500Y-65100000D01*
X122812607Y-65091504D01*
X122794228Y-64916637D01*
X122794228Y-64916636D01*
X122793538Y-64910073D01*
X122789033Y-64896206D01*
X122736566Y-64734731D01*
X122734524Y-64728446D01*
X122639037Y-64563058D01*
X122540863Y-64454024D01*
X122510147Y-64390019D01*
X122508500Y-64369716D01*
X122508500Y-63774215D01*
X122509578Y-63757769D01*
X122512422Y-63736166D01*
X122512422Y-63736165D01*
X122513500Y-63727977D01*
X122492596Y-63569192D01*
X122459831Y-63490092D01*
X122431307Y-63421227D01*
X122333810Y-63294167D01*
X122309969Y-63275873D01*
X122297578Y-63265006D01*
X120095886Y-61063314D01*
X120061860Y-61001002D01*
X120066925Y-60930187D01*
X120091343Y-60889912D01*
X120139037Y-60836942D01*
X120226293Y-60685810D01*
X120231220Y-60677277D01*
X120231221Y-60677276D01*
X120234524Y-60671554D01*
X120262925Y-60584144D01*
X120291498Y-60496206D01*
X120291498Y-60496205D01*
X120293538Y-60489927D01*
X120299218Y-60435884D01*
X120326231Y-60370227D01*
X120384452Y-60329597D01*
X120450725Y-60325807D01*
X120598056Y-60357124D01*
X120598061Y-60357124D01*
X120604513Y-60358496D01*
X120795487Y-60358496D01*
X120801939Y-60357124D01*
X120801944Y-60357124D01*
X120888887Y-60338643D01*
X120982287Y-60318790D01*
X121004532Y-60308886D01*
X121150720Y-60243799D01*
X121150722Y-60243798D01*
X121156750Y-60241114D01*
X121187965Y-60218435D01*
X121305907Y-60132746D01*
X121305909Y-60132744D01*
X121311251Y-60128863D01*
X121349158Y-60086763D01*
X121434618Y-59991850D01*
X121434619Y-59991849D01*
X121439037Y-59986942D01*
X121499776Y-59881739D01*
X121531220Y-59827277D01*
X121531221Y-59827276D01*
X121534524Y-59821554D01*
X121575377Y-59695820D01*
X121591498Y-59646206D01*
X121591498Y-59646205D01*
X121593538Y-59639927D01*
X121596413Y-59612578D01*
X121612810Y-59456565D01*
X121613500Y-59450000D01*
X121598972Y-59311774D01*
X121594228Y-59266637D01*
X121594228Y-59266636D01*
X121593538Y-59260073D01*
X121534524Y-59078446D01*
X121439037Y-58913058D01*
X121340863Y-58804024D01*
X121310147Y-58740019D01*
X121308500Y-58719716D01*
X121308500Y-56846238D01*
X121309578Y-56829792D01*
X121312422Y-56808189D01*
X121312422Y-56808188D01*
X121313500Y-56800000D01*
X121292596Y-56641214D01*
X121256693Y-56554539D01*
X121231307Y-56493250D01*
X121133810Y-56366190D01*
X121109969Y-56347896D01*
X121097578Y-56337029D01*
X119599715Y-54839166D01*
X119565689Y-54776854D01*
X119563155Y-54753281D01*
X119563500Y-54750000D01*
X119543538Y-54560073D01*
X119484524Y-54378446D01*
X119389037Y-54213058D01*
X119294090Y-54107608D01*
X119263374Y-54043603D01*
X119272138Y-53973149D01*
X119317600Y-53918618D01*
X119387727Y-53897300D01*
X119657216Y-53897300D01*
X119668120Y-53897814D01*
X119675511Y-53899466D01*
X119683437Y-53899217D01*
X119683438Y-53899217D01*
X119742466Y-53897362D01*
X119746423Y-53897300D01*
X119775178Y-53897300D01*
X119779445Y-53896761D01*
X119791287Y-53895828D01*
X119822935Y-53894833D01*
X119827560Y-53894688D01*
X119835483Y-53894439D01*
X119854934Y-53888788D01*
X119874295Y-53884778D01*
X119877020Y-53884434D01*
X119886530Y-53883233D01*
X119886533Y-53883232D01*
X119894388Y-53882240D01*
X119901753Y-53879324D01*
X119901757Y-53879323D01*
X119935501Y-53865963D01*
X119946730Y-53862118D01*
X119989178Y-53849786D01*
X119996006Y-53845748D01*
X120006611Y-53839477D01*
X120024362Y-53830781D01*
X120035826Y-53826242D01*
X120035829Y-53826240D01*
X120043200Y-53823322D01*
X120078968Y-53797335D01*
X120088891Y-53790816D01*
X120094446Y-53787531D01*
X120126941Y-53768314D01*
X120127359Y-53767945D01*
X120141448Y-53753857D01*
X120156475Y-53741023D01*
X120166270Y-53733906D01*
X120166272Y-53733904D01*
X120172683Y-53729246D01*
X120200633Y-53695460D01*
X120208615Y-53686689D01*
X121083105Y-52812200D01*
X121145417Y-52778175D01*
X121172200Y-52775296D01*
X121228087Y-52775296D01*
X121234539Y-52773924D01*
X121234544Y-52773924D01*
X121321487Y-52755443D01*
X121414887Y-52735590D01*
X121420918Y-52732905D01*
X121583320Y-52660599D01*
X121583322Y-52660598D01*
X121589350Y-52657914D01*
X121627358Y-52630300D01*
X121738507Y-52549546D01*
X121738509Y-52549544D01*
X121743851Y-52545663D01*
X121871637Y-52403742D01*
X121967124Y-52238354D01*
X122026138Y-52056727D01*
X122046100Y-51866800D01*
X122026138Y-51676873D01*
X121967124Y-51495246D01*
X121871637Y-51329858D01*
X121743851Y-51187937D01*
X121738509Y-51184056D01*
X121738507Y-51184054D01*
X121594692Y-51079567D01*
X121594691Y-51079566D01*
X121589350Y-51075686D01*
X121583322Y-51073002D01*
X121583320Y-51073001D01*
X121420918Y-51000695D01*
X121420917Y-51000695D01*
X121414887Y-50998010D01*
X121321487Y-50978157D01*
X121234544Y-50959676D01*
X121234539Y-50959676D01*
X121228087Y-50958304D01*
X121037113Y-50958304D01*
X121030661Y-50959676D01*
X121030656Y-50959676D01*
X120943713Y-50978157D01*
X120850313Y-50998010D01*
X120844283Y-51000695D01*
X120844282Y-51000695D01*
X120681880Y-51073001D01*
X120681878Y-51073002D01*
X120675850Y-51075686D01*
X120670509Y-51079566D01*
X120670508Y-51079567D01*
X120526693Y-51184054D01*
X120526691Y-51184056D01*
X120521349Y-51187937D01*
X120393563Y-51329858D01*
X120298076Y-51495246D01*
X120239062Y-51676873D01*
X120238372Y-51683436D01*
X120238372Y-51683437D01*
X120221697Y-51842090D01*
X120194684Y-51907746D01*
X120185482Y-51918014D01*
X119510101Y-52593395D01*
X119447789Y-52627421D01*
X119421006Y-52630300D01*
X117903794Y-52630300D01*
X117835673Y-52610298D01*
X117816449Y-52593958D01*
X117816175Y-52594262D01*
X117811272Y-52589847D01*
X117806851Y-52584937D01*
X117801509Y-52581056D01*
X117801507Y-52581054D01*
X117657692Y-52476567D01*
X117657691Y-52476566D01*
X117652350Y-52472686D01*
X117646322Y-52470002D01*
X117646320Y-52470001D01*
X117483918Y-52397695D01*
X117483917Y-52397695D01*
X117477887Y-52395010D01*
X117384487Y-52375157D01*
X117297544Y-52356676D01*
X117297539Y-52356676D01*
X117291087Y-52355304D01*
X117130550Y-52355304D01*
X117062429Y-52335302D01*
X117015936Y-52281646D01*
X117005832Y-52211372D01*
X117035326Y-52146792D01*
X117041455Y-52140209D01*
X131476648Y-37705016D01*
X131538960Y-37670990D01*
X131609775Y-37676055D01*
X131666611Y-37718602D01*
X131674857Y-37731103D01*
X131735963Y-37836942D01*
X131740381Y-37841849D01*
X131740382Y-37841850D01*
X131795896Y-37903505D01*
X131863749Y-37978863D01*
X131869091Y-37982744D01*
X131869093Y-37982746D01*
X132012908Y-38087233D01*
X132018250Y-38091114D01*
X132024278Y-38093798D01*
X132024280Y-38093799D01*
X132177507Y-38162020D01*
X132192713Y-38168790D01*
X132286113Y-38188643D01*
X132373056Y-38207124D01*
X132373061Y-38207124D01*
X132379513Y-38208496D01*
X132470757Y-38208496D01*
X132538878Y-38228498D01*
X132559852Y-38245401D01*
X133159595Y-38845144D01*
X133193621Y-38907456D01*
X133196500Y-38934239D01*
X133196500Y-39385117D01*
X133176498Y-39453238D01*
X133131029Y-39494590D01*
X133131276Y-39494980D01*
X133129041Y-39496399D01*
X133128287Y-39497084D01*
X133126539Y-39497986D01*
X133126536Y-39497988D01*
X133121553Y-39500560D01*
X132941645Y-39638608D01*
X132937872Y-39642754D01*
X132937867Y-39642759D01*
X132849244Y-39740155D01*
X132789026Y-39806334D01*
X132786043Y-39811090D01*
X132786041Y-39811092D01*
X132740903Y-39883049D01*
X132668521Y-39998435D01*
X132583939Y-40208840D01*
X132537953Y-40430898D01*
X132532017Y-40657589D01*
X132566318Y-40881749D01*
X132639773Y-41096293D01*
X132750059Y-41294437D01*
X132753612Y-41298777D01*
X132753614Y-41298781D01*
X132769912Y-41318693D01*
X132893690Y-41469921D01*
X132897953Y-41473562D01*
X132897958Y-41473567D01*
X132960845Y-41527277D01*
X133066127Y-41617196D01*
X133139503Y-41660073D01*
X133257072Y-41728775D01*
X133257075Y-41728776D01*
X133261919Y-41731607D01*
X133267189Y-41733536D01*
X133267190Y-41733536D01*
X133469612Y-41807612D01*
X133469616Y-41807613D01*
X133474876Y-41809538D01*
X133480393Y-41810501D01*
X133480397Y-41810502D01*
X133663812Y-41842513D01*
X133698269Y-41848527D01*
X133703875Y-41848498D01*
X133703879Y-41848498D01*
X133807475Y-41847955D01*
X133925035Y-41847339D01*
X133930553Y-41846316D01*
X133930556Y-41846316D01*
X134142488Y-41807037D01*
X134142489Y-41807037D01*
X134148007Y-41806014D01*
X134153252Y-41804032D01*
X134153256Y-41804031D01*
X134272839Y-41758844D01*
X134360137Y-41725857D01*
X134365705Y-41722525D01*
X134459086Y-41666637D01*
X134507045Y-41637934D01*
X135649396Y-41637934D01*
X135654677Y-41644988D01*
X135797287Y-41728323D01*
X135807401Y-41733083D01*
X136009742Y-41807129D01*
X136020527Y-41810019D01*
X136232788Y-41847064D01*
X136243920Y-41847999D01*
X136459373Y-41846871D01*
X136470507Y-41845819D01*
X136682353Y-41806555D01*
X136693124Y-41803548D01*
X136894674Y-41727388D01*
X136904734Y-41722525D01*
X137030622Y-41647182D01*
X137040193Y-41636823D01*
X137036650Y-41628360D01*
X136357812Y-40949522D01*
X136343868Y-40941908D01*
X136342035Y-40942039D01*
X136335420Y-40946290D01*
X135656156Y-41625554D01*
X135649396Y-41637934D01*
X134507045Y-41637934D01*
X134554720Y-41609401D01*
X134558940Y-41605719D01*
X134558945Y-41605716D01*
X134721375Y-41464019D01*
X134725605Y-41460329D01*
X134741867Y-41440031D01*
X134863885Y-41287728D01*
X134863888Y-41287723D01*
X134867391Y-41283351D01*
X134928318Y-41171137D01*
X134963977Y-41105462D01*
X135014060Y-41055140D01*
X135083398Y-41039884D01*
X135149977Y-41064536D01*
X135184804Y-41104306D01*
X135274032Y-41264620D01*
X135284083Y-41274509D01*
X135291688Y-41271602D01*
X135972978Y-40590312D01*
X135979356Y-40578632D01*
X136709408Y-40578632D01*
X136709539Y-40580465D01*
X136713790Y-40587080D01*
X137395151Y-41268441D01*
X137407531Y-41275201D01*
X137413795Y-41270512D01*
X137503409Y-41105465D01*
X137553492Y-41055143D01*
X137622830Y-41039887D01*
X137689409Y-41064540D01*
X137724234Y-41104308D01*
X137830059Y-41294437D01*
X137833612Y-41298777D01*
X137833614Y-41298781D01*
X137849912Y-41318693D01*
X137973690Y-41469921D01*
X137977953Y-41473562D01*
X137977958Y-41473567D01*
X138040845Y-41527277D01*
X138146127Y-41617196D01*
X138219503Y-41660073D01*
X138337072Y-41728775D01*
X138337075Y-41728776D01*
X138341919Y-41731607D01*
X138347189Y-41733536D01*
X138347190Y-41733536D01*
X138549612Y-41807612D01*
X138549616Y-41807613D01*
X138554876Y-41809538D01*
X138560393Y-41810501D01*
X138560397Y-41810502D01*
X138743812Y-41842513D01*
X138778269Y-41848527D01*
X138783875Y-41848498D01*
X138783879Y-41848498D01*
X138887475Y-41847955D01*
X139005035Y-41847339D01*
X139010553Y-41846316D01*
X139010556Y-41846316D01*
X139222488Y-41807037D01*
X139222489Y-41807037D01*
X139228007Y-41806014D01*
X139233252Y-41804032D01*
X139233256Y-41804031D01*
X139352839Y-41758844D01*
X139440137Y-41725857D01*
X139445705Y-41722525D01*
X139539086Y-41666637D01*
X139634720Y-41609401D01*
X139638940Y-41605719D01*
X139638945Y-41605716D01*
X139801375Y-41464019D01*
X139805605Y-41460329D01*
X139821867Y-41440031D01*
X139943885Y-41287728D01*
X139943888Y-41287723D01*
X139947391Y-41283351D01*
X139950068Y-41278422D01*
X140016230Y-41156565D01*
X140043696Y-41105979D01*
X140093777Y-41055659D01*
X140163115Y-41040402D01*
X140229694Y-41065054D01*
X140264520Y-41104822D01*
X140370059Y-41294437D01*
X140373612Y-41298777D01*
X140373614Y-41298781D01*
X140389912Y-41318693D01*
X140513690Y-41469921D01*
X140517953Y-41473562D01*
X140517958Y-41473567D01*
X140580845Y-41527277D01*
X140686127Y-41617196D01*
X140759503Y-41660073D01*
X140877072Y-41728775D01*
X140877075Y-41728776D01*
X140881919Y-41731607D01*
X140887189Y-41733536D01*
X140887190Y-41733536D01*
X141089612Y-41807612D01*
X141089616Y-41807613D01*
X141094876Y-41809538D01*
X141100393Y-41810501D01*
X141100397Y-41810502D01*
X141283812Y-41842513D01*
X141318269Y-41848527D01*
X141323875Y-41848498D01*
X141323879Y-41848498D01*
X141427475Y-41847955D01*
X141545035Y-41847339D01*
X141550553Y-41846316D01*
X141550556Y-41846316D01*
X141762488Y-41807037D01*
X141762489Y-41807037D01*
X141768007Y-41806014D01*
X141773252Y-41804032D01*
X141773256Y-41804031D01*
X141892839Y-41758844D01*
X141980137Y-41725857D01*
X141985705Y-41722525D01*
X142079086Y-41666637D01*
X142174720Y-41609401D01*
X142178940Y-41605719D01*
X142178945Y-41605716D01*
X142341375Y-41464019D01*
X142345605Y-41460329D01*
X142361867Y-41440031D01*
X142483885Y-41287728D01*
X142483888Y-41287723D01*
X142487391Y-41283351D01*
X142595596Y-41084062D01*
X142666800Y-40868762D01*
X142698752Y-40644255D01*
X142700500Y-40577500D01*
X142698682Y-40557124D01*
X142691007Y-40471137D01*
X142680341Y-40351628D01*
X142640359Y-40205478D01*
X142621985Y-40138312D01*
X142621984Y-40138308D01*
X142620503Y-40132896D01*
X142522876Y-39928218D01*
X142390547Y-39744062D01*
X142293483Y-39650000D01*
X142231726Y-39590153D01*
X142231723Y-39590151D01*
X142227698Y-39586250D01*
X142128267Y-39519435D01*
X142044130Y-39462897D01*
X142044124Y-39462894D01*
X142039477Y-39459771D01*
X142034345Y-39457518D01*
X142034341Y-39457516D01*
X141836975Y-39370878D01*
X141836973Y-39370877D01*
X141831833Y-39368621D01*
X141670435Y-39329873D01*
X141616786Y-39316993D01*
X141616785Y-39316993D01*
X141611329Y-39315683D01*
X141512389Y-39309978D01*
X141390542Y-39302952D01*
X141390539Y-39302952D01*
X141384936Y-39302629D01*
X141159809Y-39329873D01*
X141154447Y-39331523D01*
X141154445Y-39331523D01*
X141070448Y-39357364D01*
X140943064Y-39396552D01*
X140938080Y-39399124D01*
X140938081Y-39399124D01*
X140748288Y-39497084D01*
X140741553Y-39500560D01*
X140561645Y-39638608D01*
X140557872Y-39642754D01*
X140557867Y-39642759D01*
X140469244Y-39740155D01*
X140409026Y-39806334D01*
X140406043Y-39811090D01*
X140406041Y-39811092D01*
X140360903Y-39883049D01*
X140288521Y-39998435D01*
X140286429Y-40003639D01*
X140286428Y-40003641D01*
X140271113Y-40041739D01*
X140227146Y-40097483D01*
X140160021Y-40120608D01*
X140091050Y-40103771D01*
X140040480Y-40048987D01*
X140037322Y-40042366D01*
X139982876Y-39928218D01*
X139850547Y-39744062D01*
X139753483Y-39650000D01*
X139691726Y-39590153D01*
X139691723Y-39590151D01*
X139687698Y-39586250D01*
X139588267Y-39519435D01*
X139504130Y-39462897D01*
X139504124Y-39462894D01*
X139499477Y-39459771D01*
X139494345Y-39457518D01*
X139494341Y-39457516D01*
X139296975Y-39370878D01*
X139296973Y-39370877D01*
X139291833Y-39368621D01*
X139130435Y-39329873D01*
X139076786Y-39316993D01*
X139076785Y-39316993D01*
X139071329Y-39315683D01*
X138972389Y-39309978D01*
X138850542Y-39302952D01*
X138850539Y-39302952D01*
X138844936Y-39302629D01*
X138619809Y-39329873D01*
X138614447Y-39331523D01*
X138614445Y-39331523D01*
X138530448Y-39357364D01*
X138403064Y-39396552D01*
X138398080Y-39399124D01*
X138398081Y-39399124D01*
X138208288Y-39497084D01*
X138201553Y-39500560D01*
X138021645Y-39638608D01*
X138017872Y-39642754D01*
X138017867Y-39642759D01*
X137929244Y-39740155D01*
X137869026Y-39806334D01*
X137866043Y-39811090D01*
X137866041Y-39811092D01*
X137820903Y-39883049D01*
X137748521Y-39998435D01*
X137746429Y-40003639D01*
X137746428Y-40003641D01*
X137730861Y-40042366D01*
X137686894Y-40098110D01*
X137619769Y-40121235D01*
X137550798Y-40104398D01*
X137500228Y-40049614D01*
X137444861Y-39933534D01*
X137439171Y-39923915D01*
X137415717Y-39891275D01*
X137404927Y-39882865D01*
X137391890Y-39889820D01*
X136717022Y-40564688D01*
X136709408Y-40578632D01*
X135979356Y-40578632D01*
X135980592Y-40576368D01*
X135980461Y-40574535D01*
X135976210Y-40567920D01*
X135298099Y-39889809D01*
X135285719Y-39883049D01*
X135277747Y-39889017D01*
X135211953Y-39993903D01*
X135206873Y-40003871D01*
X135191406Y-40042348D01*
X135147439Y-40098093D01*
X135080315Y-40121219D01*
X135011343Y-40104383D01*
X134960773Y-40049598D01*
X134905295Y-39933287D01*
X134905289Y-39933277D01*
X134902876Y-39928218D01*
X134770547Y-39744062D01*
X134673483Y-39650000D01*
X134611726Y-39590153D01*
X134611723Y-39590151D01*
X134607698Y-39586250D01*
X134503696Y-39516364D01*
X135648419Y-39516364D01*
X135655052Y-39528342D01*
X136332188Y-40205478D01*
X136346132Y-40213092D01*
X136347965Y-40212961D01*
X136354580Y-40208710D01*
X137032457Y-39530833D01*
X137038681Y-39519435D01*
X137028870Y-39507001D01*
X136963896Y-39463341D01*
X136954096Y-39457953D01*
X136756815Y-39371352D01*
X136746216Y-39367785D01*
X136536713Y-39317488D01*
X136525651Y-39315855D01*
X136310558Y-39303452D01*
X136299374Y-39303804D01*
X136085485Y-39329688D01*
X136074551Y-39332012D01*
X135868614Y-39395366D01*
X135858269Y-39399587D01*
X135666802Y-39498411D01*
X135657371Y-39504396D01*
X135656884Y-39504770D01*
X135648419Y-39516364D01*
X134503696Y-39516364D01*
X134469223Y-39493199D01*
X134423839Y-39438604D01*
X134413500Y-39388618D01*
X134413500Y-38676238D01*
X134414578Y-38659792D01*
X134417422Y-38638189D01*
X134417422Y-38638188D01*
X134418500Y-38630000D01*
X134402505Y-38508500D01*
X134398674Y-38479400D01*
X134398673Y-38479398D01*
X134397596Y-38471214D01*
X134355170Y-38368790D01*
X134336307Y-38323250D01*
X134238810Y-38196190D01*
X134214969Y-38177896D01*
X134202578Y-38167029D01*
X133424715Y-37389166D01*
X133390689Y-37326854D01*
X133388155Y-37303281D01*
X133388500Y-37300000D01*
X133382876Y-37246491D01*
X133369228Y-37116637D01*
X133369228Y-37116636D01*
X133368538Y-37110073D01*
X133309524Y-36928446D01*
X133300127Y-36912169D01*
X133217338Y-36768776D01*
X133214037Y-36763058D01*
X133165261Y-36708886D01*
X133090673Y-36626048D01*
X133090672Y-36626047D01*
X133086251Y-36621137D01*
X133080909Y-36617256D01*
X133080907Y-36617254D01*
X132937092Y-36512767D01*
X132937091Y-36512766D01*
X132931750Y-36508886D01*
X132925722Y-36506202D01*
X132925713Y-36506197D01*
X132920037Y-36503670D01*
X132865943Y-36457689D01*
X132845295Y-36389761D01*
X132864649Y-36321454D01*
X132882194Y-36299470D01*
X135198656Y-33983008D01*
X135260968Y-33948982D01*
X135287751Y-33946103D01*
X135343640Y-33946103D01*
X135350098Y-33944730D01*
X135350101Y-33944730D01*
X135376521Y-33939114D01*
X135447312Y-33944515D01*
X135503945Y-33987331D01*
X135528440Y-34053968D01*
X135528720Y-34062360D01*
X135528720Y-34644554D01*
X135508718Y-34712675D01*
X135453970Y-34759660D01*
X135439285Y-34766198D01*
X135439277Y-34766203D01*
X135433250Y-34768886D01*
X135427909Y-34772766D01*
X135427908Y-34772767D01*
X135284093Y-34877254D01*
X135284091Y-34877256D01*
X135278749Y-34881137D01*
X135274328Y-34886047D01*
X135274327Y-34886048D01*
X135235839Y-34928794D01*
X135150963Y-35023058D01*
X135055476Y-35188446D01*
X134996462Y-35370073D01*
X134995772Y-35376636D01*
X134995772Y-35376637D01*
X134983829Y-35490269D01*
X134976500Y-35560000D01*
X134996462Y-35749927D01*
X135055476Y-35931554D01*
X135150963Y-36096942D01*
X135155381Y-36101849D01*
X135155382Y-36101850D01*
X135186979Y-36136942D01*
X135278749Y-36238863D01*
X135284091Y-36242744D01*
X135284093Y-36242746D01*
X135376635Y-36309981D01*
X135433250Y-36351114D01*
X135439278Y-36353798D01*
X135439280Y-36353799D01*
X135601682Y-36426105D01*
X135607713Y-36428790D01*
X135701113Y-36448643D01*
X135788056Y-36467124D01*
X135788061Y-36467124D01*
X135794513Y-36468496D01*
X135985487Y-36468496D01*
X135991939Y-36467124D01*
X135991944Y-36467124D01*
X136078887Y-36448643D01*
X136172287Y-36428790D01*
X136178318Y-36426105D01*
X136340720Y-36353799D01*
X136340722Y-36353798D01*
X136346750Y-36351114D01*
X136403365Y-36309981D01*
X136495907Y-36242746D01*
X136495909Y-36242744D01*
X136501251Y-36238863D01*
X136593021Y-36136942D01*
X136624618Y-36101850D01*
X136624619Y-36101849D01*
X136629037Y-36096942D01*
X136724524Y-35931554D01*
X136783538Y-35749927D01*
X136803500Y-35560000D01*
X136796171Y-35490269D01*
X136789267Y-35424576D01*
X136792535Y-35380075D01*
X136794206Y-35373565D01*
X136795685Y-35367805D01*
X136795720Y-35367249D01*
X136795720Y-35347328D01*
X136797271Y-35327618D01*
X136799164Y-35315666D01*
X136799164Y-35315665D01*
X136800404Y-35307836D01*
X136796279Y-35264197D01*
X136795720Y-35252340D01*
X136795720Y-32911980D01*
X136796234Y-32901076D01*
X136797886Y-32893685D01*
X136796503Y-32849658D01*
X136795782Y-32826730D01*
X136795720Y-32822773D01*
X136795720Y-32794018D01*
X136795181Y-32789751D01*
X136794247Y-32777901D01*
X136793108Y-32741638D01*
X136792859Y-32733713D01*
X136787207Y-32714257D01*
X136783198Y-32694898D01*
X136781654Y-32682675D01*
X136781654Y-32682674D01*
X136780660Y-32674808D01*
X136775450Y-32661650D01*
X136764388Y-32633707D01*
X136760543Y-32622478D01*
X136750419Y-32587631D01*
X136750418Y-32587630D01*
X136748207Y-32580018D01*
X136737894Y-32562579D01*
X136729198Y-32544827D01*
X136727794Y-32541281D01*
X136721742Y-32525996D01*
X136695753Y-32490225D01*
X136689236Y-32480304D01*
X136669768Y-32447386D01*
X136666734Y-32442255D01*
X136666365Y-32441837D01*
X136652282Y-32427754D01*
X136639448Y-32412729D01*
X136627666Y-32396513D01*
X136593884Y-32368566D01*
X136585105Y-32360577D01*
X136548149Y-32323621D01*
X136514123Y-32261309D01*
X136511934Y-32221356D01*
X136523410Y-32112165D01*
X136524100Y-32105600D01*
X136506383Y-31937029D01*
X136504828Y-31922237D01*
X136504828Y-31922236D01*
X136504138Y-31915673D01*
X136488790Y-31868435D01*
X136447166Y-31740331D01*
X136445124Y-31734046D01*
X136430786Y-31709211D01*
X136365993Y-31596988D01*
X136349637Y-31568658D01*
X136328697Y-31545401D01*
X136226273Y-31431648D01*
X136226272Y-31431647D01*
X136221851Y-31426737D01*
X136216509Y-31422856D01*
X136216507Y-31422854D01*
X136072692Y-31318367D01*
X136072691Y-31318366D01*
X136067350Y-31314486D01*
X136061322Y-31311802D01*
X136061320Y-31311801D01*
X135898918Y-31239495D01*
X135898917Y-31239495D01*
X135892887Y-31236810D01*
X135794820Y-31215965D01*
X135712544Y-31198476D01*
X135712539Y-31198476D01*
X135706087Y-31197104D01*
X135515113Y-31197104D01*
X135508661Y-31198476D01*
X135508656Y-31198476D01*
X135426380Y-31215965D01*
X135328313Y-31236810D01*
X135322283Y-31239495D01*
X135322282Y-31239495D01*
X135159880Y-31311801D01*
X135159878Y-31311802D01*
X135153850Y-31314486D01*
X135148509Y-31318366D01*
X135148508Y-31318367D01*
X135004693Y-31422854D01*
X135004691Y-31422856D01*
X134999349Y-31426737D01*
X134994928Y-31431647D01*
X134990025Y-31436062D01*
X134988899Y-31434811D01*
X134935600Y-31467649D01*
X134902406Y-31472100D01*
X129600594Y-31472100D01*
X129532473Y-31452098D01*
X129511499Y-31435195D01*
X127070405Y-28994101D01*
X127036379Y-28931789D01*
X127033500Y-28905006D01*
X127033500Y-28427519D01*
X127053502Y-28359398D01*
X127065864Y-28343209D01*
X127134618Y-28266850D01*
X127134619Y-28266849D01*
X127139037Y-28261942D01*
X127234524Y-28096554D01*
X127276173Y-27968371D01*
X127291498Y-27921206D01*
X127291498Y-27921205D01*
X127293538Y-27914927D01*
X127295655Y-27894790D01*
X127312810Y-27731565D01*
X127313500Y-27725000D01*
X127301722Y-27612935D01*
X127294228Y-27541637D01*
X127294228Y-27541636D01*
X127293538Y-27535073D01*
X127287856Y-27517584D01*
X127240113Y-27370648D01*
X127234524Y-27353446D01*
X127139037Y-27188058D01*
X127130427Y-27178495D01*
X127015673Y-27051048D01*
X127015672Y-27051047D01*
X127011251Y-27046137D01*
X127005909Y-27042256D01*
X127005907Y-27042254D01*
X126862092Y-26937767D01*
X126862091Y-26937766D01*
X126856750Y-26933886D01*
X126850722Y-26931202D01*
X126850720Y-26931201D01*
X126688318Y-26858895D01*
X126688317Y-26858895D01*
X126682287Y-26856210D01*
X126588887Y-26836357D01*
X126501944Y-26817876D01*
X126501939Y-26817876D01*
X126495487Y-26816504D01*
X126304513Y-26816504D01*
X126298061Y-26817876D01*
X126298056Y-26817876D01*
X126211113Y-26836357D01*
X126117713Y-26856210D01*
X126111683Y-26858895D01*
X126111682Y-26858895D01*
X125949280Y-26931201D01*
X125949278Y-26931202D01*
X125943250Y-26933886D01*
X125937909Y-26937766D01*
X125937908Y-26937767D01*
X125794093Y-27042254D01*
X125794091Y-27042256D01*
X125788749Y-27046137D01*
X125784328Y-27051047D01*
X125784327Y-27051048D01*
X125669574Y-27178495D01*
X125660963Y-27188058D01*
X125565476Y-27353446D01*
X125559887Y-27370648D01*
X125512145Y-27517584D01*
X125506462Y-27535073D01*
X125505772Y-27541636D01*
X125505772Y-27541637D01*
X125498278Y-27612935D01*
X125486500Y-27725000D01*
X125487190Y-27731565D01*
X125504346Y-27894790D01*
X125506462Y-27914927D01*
X125508502Y-27921205D01*
X125508502Y-27921206D01*
X125523827Y-27968371D01*
X125565476Y-28096554D01*
X125660963Y-28261942D01*
X125665381Y-28266849D01*
X125665382Y-28266850D01*
X125734136Y-28343209D01*
X125764854Y-28407216D01*
X125766500Y-28427519D01*
X125766500Y-29141216D01*
X125765986Y-29152120D01*
X125764334Y-29159511D01*
X125764583Y-29167437D01*
X125764583Y-29167438D01*
X125766438Y-29226466D01*
X125766500Y-29230423D01*
X125766500Y-29259178D01*
X125766996Y-29263103D01*
X125766996Y-29263104D01*
X125767039Y-29263443D01*
X125767972Y-29275287D01*
X125769361Y-29319483D01*
X125773814Y-29334810D01*
X125775012Y-29338933D01*
X125779022Y-29358295D01*
X125781560Y-29378388D01*
X125784476Y-29385753D01*
X125784477Y-29385757D01*
X125797837Y-29419501D01*
X125801681Y-29430728D01*
X125814014Y-29473178D01*
X125818052Y-29480006D01*
X125824323Y-29490611D01*
X125833019Y-29508362D01*
X125837558Y-29519826D01*
X125840478Y-29527200D01*
X125866465Y-29562967D01*
X125872983Y-29572890D01*
X125895486Y-29610941D01*
X125895855Y-29611359D01*
X125898168Y-29613672D01*
X125900160Y-29616412D01*
X125924038Y-29683273D01*
X125907979Y-29752429D01*
X125857080Y-29801925D01*
X125798246Y-29816504D01*
X125754513Y-29816504D01*
X125748061Y-29817876D01*
X125748056Y-29817876D01*
X125681394Y-29832046D01*
X125567713Y-29856210D01*
X125561683Y-29858895D01*
X125561682Y-29858895D01*
X125399280Y-29931201D01*
X125399278Y-29931202D01*
X125393250Y-29933886D01*
X125387909Y-29937766D01*
X125387908Y-29937767D01*
X125244093Y-30042254D01*
X125244091Y-30042256D01*
X125238749Y-30046137D01*
X125234328Y-30051047D01*
X125234327Y-30051048D01*
X125134256Y-30162189D01*
X125110963Y-30188058D01*
X125090949Y-30222723D01*
X125030379Y-30327634D01*
X125015476Y-30353446D01*
X125002453Y-30393527D01*
X124968178Y-30499016D01*
X124956462Y-30535073D01*
X124955772Y-30541636D01*
X124955772Y-30541637D01*
X124949195Y-30604214D01*
X124936500Y-30725000D01*
X124937190Y-30731565D01*
X124948361Y-30837846D01*
X124956462Y-30914927D01*
X125015476Y-31096554D01*
X125018779Y-31102276D01*
X125018780Y-31102277D01*
X125080671Y-31209474D01*
X125110963Y-31261942D01*
X125115385Y-31266853D01*
X125115387Y-31266856D01*
X125183436Y-31342433D01*
X125214154Y-31406440D01*
X125215738Y-31422786D01*
X125216438Y-31445066D01*
X125216500Y-31449023D01*
X125216500Y-31477778D01*
X125216996Y-31481703D01*
X125216996Y-31481704D01*
X125217039Y-31482043D01*
X125217972Y-31493887D01*
X125219361Y-31538083D01*
X125221573Y-31545695D01*
X125225012Y-31557533D01*
X125229022Y-31576896D01*
X125229535Y-31580954D01*
X125231560Y-31596988D01*
X125234476Y-31604353D01*
X125234477Y-31604357D01*
X125247837Y-31638101D01*
X125251681Y-31649328D01*
X125264014Y-31691778D01*
X125268052Y-31698606D01*
X125274323Y-31709211D01*
X125283019Y-31726962D01*
X125285824Y-31734046D01*
X125290478Y-31745800D01*
X125295139Y-31752215D01*
X125316465Y-31781567D01*
X125322983Y-31791490D01*
X125345486Y-31829541D01*
X125345855Y-31829959D01*
X125359938Y-31844042D01*
X125372772Y-31859067D01*
X125384554Y-31875283D01*
X125404938Y-31892146D01*
X125418335Y-31903229D01*
X125427115Y-31911219D01*
X126928409Y-33412513D01*
X126935769Y-33420601D01*
X126939827Y-33426995D01*
X126945604Y-33432420D01*
X126988678Y-33472869D01*
X126991520Y-33475624D01*
X127011834Y-33495938D01*
X127015245Y-33498583D01*
X127024265Y-33506287D01*
X127056499Y-33536557D01*
X127063443Y-33540374D01*
X127063445Y-33540376D01*
X127074253Y-33546318D01*
X127090777Y-33557172D01*
X127106777Y-33569583D01*
X127114048Y-33572730D01*
X127114049Y-33572730D01*
X127147351Y-33587141D01*
X127158007Y-33592362D01*
X127196752Y-33613662D01*
X127204435Y-33615634D01*
X127204436Y-33615635D01*
X127216368Y-33618699D01*
X127235072Y-33625103D01*
X127246385Y-33629999D01*
X127246392Y-33630001D01*
X127253664Y-33633148D01*
X127261488Y-33634387D01*
X127261491Y-33634388D01*
X127297335Y-33640065D01*
X127308956Y-33642472D01*
X127346018Y-33651987D01*
X127351775Y-33653465D01*
X127352331Y-33653500D01*
X127372252Y-33653500D01*
X127391962Y-33655051D01*
X127403914Y-33656944D01*
X127403915Y-33656944D01*
X127411744Y-33658184D01*
X127419636Y-33657438D01*
X127455382Y-33654059D01*
X127467240Y-33653500D01*
X133432166Y-33653500D01*
X133500287Y-33673502D01*
X133546780Y-33727158D01*
X133556884Y-33797432D01*
X133527390Y-33862012D01*
X133521261Y-33868595D01*
X114110687Y-53279169D01*
X114102599Y-53286529D01*
X114096205Y-53290587D01*
X114090780Y-53296364D01*
X114050331Y-53339438D01*
X114047576Y-53342280D01*
X114027262Y-53362594D01*
X114024832Y-53365727D01*
X114024831Y-53365728D01*
X114024612Y-53366010D01*
X114016913Y-53375024D01*
X114001066Y-53391900D01*
X113983275Y-53407585D01*
X113897293Y-53470054D01*
X113897291Y-53470056D01*
X113891949Y-53473937D01*
X113764163Y-53615858D01*
X113705889Y-53716792D01*
X113672879Y-53773967D01*
X113668676Y-53781246D01*
X113666634Y-53787531D01*
X113616229Y-53942663D01*
X113609662Y-53962873D01*
X113608972Y-53969436D01*
X113608972Y-53969437D01*
X113592106Y-54129905D01*
X113589700Y-54152800D01*
X110508500Y-54152800D01*
X110508500Y-46104239D01*
X110528502Y-46036118D01*
X110545405Y-46015144D01*
X111615148Y-44945401D01*
X111677460Y-44911375D01*
X111704243Y-44908496D01*
X111795487Y-44908496D01*
X111801939Y-44907124D01*
X111801944Y-44907124D01*
X111888887Y-44888643D01*
X111982287Y-44868790D01*
X111988318Y-44866105D01*
X112150720Y-44793799D01*
X112150722Y-44793798D01*
X112156750Y-44791114D01*
X112222375Y-44743435D01*
X112305907Y-44682746D01*
X112305909Y-44682744D01*
X112311251Y-44678863D01*
X112418210Y-44560073D01*
X112434618Y-44541850D01*
X112434619Y-44541849D01*
X112439037Y-44536942D01*
X112534524Y-44371554D01*
X112559043Y-44296093D01*
X112591498Y-44196206D01*
X112591498Y-44196205D01*
X112593538Y-44189927D01*
X112598931Y-44138621D01*
X112612810Y-44006565D01*
X112613500Y-44000000D01*
X112593538Y-43810073D01*
X112534524Y-43628446D01*
X112439037Y-43463058D01*
X112311251Y-43321137D01*
X112305909Y-43317256D01*
X112305907Y-43317254D01*
X112162092Y-43212767D01*
X112162091Y-43212766D01*
X112156750Y-43208886D01*
X112150722Y-43206202D01*
X112150720Y-43206201D01*
X111988318Y-43133895D01*
X111988317Y-43133895D01*
X111982287Y-43131210D01*
X111888887Y-43111357D01*
X111801944Y-43092876D01*
X111801939Y-43092876D01*
X111795487Y-43091504D01*
X111604513Y-43091504D01*
X111598061Y-43092876D01*
X111598056Y-43092876D01*
X111511113Y-43111357D01*
X111417713Y-43131210D01*
X111411683Y-43133895D01*
X111411682Y-43133895D01*
X111249280Y-43206201D01*
X111249278Y-43206202D01*
X111243250Y-43208886D01*
X111237909Y-43212766D01*
X111237908Y-43212767D01*
X111094093Y-43317254D01*
X111094091Y-43317256D01*
X111088749Y-43321137D01*
X110960963Y-43463058D01*
X110865476Y-43628446D01*
X110806462Y-43810073D01*
X110786500Y-44000000D01*
X110786687Y-44001783D01*
X110767188Y-44068192D01*
X110750285Y-44089166D01*
X109502422Y-45337029D01*
X109490031Y-45347896D01*
X109466190Y-45366190D01*
X109368693Y-45493250D01*
X109343307Y-45554539D01*
X109307404Y-45641214D01*
X109286500Y-45800000D01*
X109287578Y-45808188D01*
X109287578Y-45808189D01*
X109290422Y-45829792D01*
X109291500Y-45846238D01*
X109291500Y-58323805D01*
X109271498Y-58391926D01*
X109217842Y-58438419D01*
X109147568Y-58448523D01*
X109082988Y-58419029D01*
X109045667Y-58362741D01*
X109036566Y-58334731D01*
X109034524Y-58328446D01*
X108939037Y-58163058D01*
X108897240Y-58116637D01*
X108815673Y-58026048D01*
X108815672Y-58026047D01*
X108811251Y-58021137D01*
X108805909Y-58017256D01*
X108805907Y-58017254D01*
X108662092Y-57912767D01*
X108662091Y-57912766D01*
X108656750Y-57908886D01*
X108650722Y-57906202D01*
X108650720Y-57906201D01*
X108488318Y-57833895D01*
X108488317Y-57833895D01*
X108482287Y-57831210D01*
X108388887Y-57811357D01*
X108301944Y-57792876D01*
X108301939Y-57792876D01*
X108295487Y-57791504D01*
X108104513Y-57791504D01*
X108098061Y-57792876D01*
X108098056Y-57792876D01*
X108011113Y-57811357D01*
X107917713Y-57831210D01*
X107911683Y-57833895D01*
X107911682Y-57833895D01*
X107749280Y-57906201D01*
X107749278Y-57906202D01*
X107743250Y-57908886D01*
X107737909Y-57912766D01*
X107737908Y-57912767D01*
X107594093Y-58017254D01*
X107594091Y-58017256D01*
X107588749Y-58021137D01*
X107562930Y-58049812D01*
X107502487Y-58087050D01*
X107469296Y-58091500D01*
X90646238Y-58091500D01*
X90629792Y-58090422D01*
X90608189Y-58087578D01*
X90608188Y-58087578D01*
X90600000Y-58086500D01*
X90441214Y-58107404D01*
X90359591Y-58141214D01*
X90293250Y-58168693D01*
X90166190Y-58266190D01*
X90161164Y-58272740D01*
X90147896Y-58290031D01*
X90137029Y-58302422D01*
X78221552Y-70217899D01*
X78159240Y-70251925D01*
X78119288Y-70254114D01*
X78053206Y-70247169D01*
X78053203Y-70247169D01*
X78047076Y-70246525D01*
X77964226Y-70254065D01*
X77856228Y-70263893D01*
X77856225Y-70263894D01*
X77850089Y-70264452D01*
X77844183Y-70266190D01*
X77844179Y-70266191D01*
X77767558Y-70288742D01*
X77660336Y-70320299D01*
X77485045Y-70411939D01*
X77330891Y-70535882D01*
X77326933Y-70540599D01*
X77326931Y-70540601D01*
X77293148Y-70580862D01*
X77203747Y-70687406D01*
X77200783Y-70692798D01*
X77200780Y-70692802D01*
X77128902Y-70823549D01*
X77108456Y-70860740D01*
X77106595Y-70866607D01*
X77106594Y-70866609D01*
X77050509Y-71043412D01*
X77048647Y-71049282D01*
X77026599Y-71245849D01*
X77043150Y-71442956D01*
X77053319Y-71478419D01*
X77095225Y-71624559D01*
X77097672Y-71633094D01*
X77120540Y-71677591D01*
X77154088Y-71742867D01*
X77188086Y-71809021D01*
X77191911Y-71813847D01*
X77193689Y-71816090D01*
X77194250Y-71817475D01*
X77195251Y-71819029D01*
X77194956Y-71819219D01*
X77220325Y-71881901D01*
X77207153Y-71951665D01*
X77203743Y-71957404D01*
X77203747Y-71957406D01*
X77108456Y-72130740D01*
X77106595Y-72136607D01*
X77106594Y-72136609D01*
X77069831Y-72252500D01*
X77048647Y-72319282D01*
X77026599Y-72515849D01*
X77043150Y-72712956D01*
X77044848Y-72718876D01*
X77082044Y-72848592D01*
X77097672Y-72903094D01*
X77188086Y-73079021D01*
X77191911Y-73083847D01*
X77193689Y-73086090D01*
X77194250Y-73087475D01*
X77195251Y-73089029D01*
X77194956Y-73089219D01*
X77220325Y-73151901D01*
X77207153Y-73221665D01*
X77203743Y-73227404D01*
X77203747Y-73227406D01*
X77108456Y-73400740D01*
X77106595Y-73406607D01*
X77106594Y-73406609D01*
X77076969Y-73500000D01*
X77048647Y-73589282D01*
X77026599Y-73785849D01*
X77043150Y-73982956D01*
X77097672Y-74173094D01*
X77112225Y-74201411D01*
X77179604Y-74332516D01*
X77188086Y-74349021D01*
X77191910Y-74353846D01*
X77191918Y-74353858D01*
X77194017Y-74356506D01*
X77194679Y-74358141D01*
X77195251Y-74359029D01*
X77195082Y-74359138D01*
X77220651Y-74422317D01*
X77207476Y-74492081D01*
X77204147Y-74497681D01*
X77204160Y-74497688D01*
X77152370Y-74591894D01*
X77102024Y-74641952D01*
X77032608Y-74656846D01*
X76966158Y-74631845D01*
X76952860Y-74620288D01*
X76200005Y-73867433D01*
X76165979Y-73805121D01*
X76163100Y-73778338D01*
X76163100Y-62284884D01*
X76183102Y-62216763D01*
X76195457Y-62200582D01*
X76293637Y-62091542D01*
X76389124Y-61926154D01*
X76438577Y-61773952D01*
X76446098Y-61750806D01*
X76446098Y-61750805D01*
X76448138Y-61744527D01*
X76468100Y-61554600D01*
X76457234Y-61451214D01*
X76448828Y-61371237D01*
X76448828Y-61371236D01*
X76448138Y-61364673D01*
X76425892Y-61296205D01*
X76400038Y-61216637D01*
X76389124Y-61183046D01*
X76293637Y-61017658D01*
X76202678Y-60916637D01*
X76170273Y-60880648D01*
X76170272Y-60880647D01*
X76165851Y-60875737D01*
X76160509Y-60871856D01*
X76160507Y-60871854D01*
X76016692Y-60767367D01*
X76016691Y-60767366D01*
X76011350Y-60763486D01*
X76005322Y-60760802D01*
X76005320Y-60760801D01*
X75842918Y-60688495D01*
X75842917Y-60688495D01*
X75836887Y-60685810D01*
X75735456Y-60664250D01*
X75656544Y-60647476D01*
X75656539Y-60647476D01*
X75650087Y-60646104D01*
X75459113Y-60646104D01*
X75452661Y-60647476D01*
X75452656Y-60647476D01*
X75373744Y-60664250D01*
X75272313Y-60685810D01*
X75266283Y-60688495D01*
X75266282Y-60688495D01*
X75103880Y-60760801D01*
X75103878Y-60760802D01*
X75097850Y-60763486D01*
X75092509Y-60767366D01*
X75092508Y-60767367D01*
X74948693Y-60871854D01*
X74948691Y-60871856D01*
X74943349Y-60875737D01*
X74938928Y-60880647D01*
X74938927Y-60880648D01*
X74906523Y-60916637D01*
X74815563Y-61017658D01*
X74720076Y-61183046D01*
X74709162Y-61216637D01*
X74683309Y-61296205D01*
X74661062Y-61364673D01*
X74660372Y-61371236D01*
X74660372Y-61371237D01*
X74651966Y-61451214D01*
X74641100Y-61554600D01*
X74661062Y-61744527D01*
X74663102Y-61750805D01*
X74663102Y-61750806D01*
X74670623Y-61773952D01*
X74720076Y-61926154D01*
X74815563Y-62091542D01*
X74913737Y-62200576D01*
X74944453Y-62264581D01*
X74946100Y-62284884D01*
X74946100Y-74036339D01*
X74945022Y-74052785D01*
X74941100Y-74082577D01*
X74942178Y-74090765D01*
X74953738Y-74178571D01*
X74962004Y-74241363D01*
X74985208Y-74297381D01*
X75023293Y-74389327D01*
X75120790Y-74516387D01*
X75127340Y-74521413D01*
X75144631Y-74534681D01*
X75157022Y-74545548D01*
X75329658Y-74718184D01*
X75363684Y-74780496D01*
X75358619Y-74851311D01*
X75316072Y-74908147D01*
X75249552Y-74932958D01*
X75200166Y-74926628D01*
X75007748Y-74861498D01*
X75007743Y-74861496D01*
X75004512Y-74860403D01*
X74990358Y-74857265D01*
X74838513Y-74823602D01*
X74649347Y-74781665D01*
X74519705Y-74767352D01*
X74291137Y-74742117D01*
X74291132Y-74742117D01*
X74287756Y-74741744D01*
X74284358Y-74741738D01*
X74284357Y-74741738D01*
X74109846Y-74741434D01*
X73923968Y-74741110D01*
X73831723Y-74750968D01*
X73565623Y-74779405D01*
X73565615Y-74779406D01*
X73562240Y-74779767D01*
X73206802Y-74857265D01*
X72861813Y-74972697D01*
X72858720Y-74974119D01*
X72858719Y-74974120D01*
X72745994Y-75025968D01*
X72531309Y-75124712D01*
X72219155Y-75311532D01*
X71929003Y-75530972D01*
X71926521Y-75533311D01*
X71926515Y-75533316D01*
X71684616Y-75761271D01*
X71664248Y-75780465D01*
X71662036Y-75783055D01*
X71662034Y-75783057D01*
X71632233Y-75817949D01*
X71427986Y-76057091D01*
X71426067Y-76059903D01*
X71426064Y-76059908D01*
X71232608Y-76343505D01*
X71222982Y-76357616D01*
X71221375Y-76360626D01*
X71221373Y-76360629D01*
X71115763Y-76558419D01*
X71051634Y-76678523D01*
X70915945Y-77016059D01*
X70915025Y-77019333D01*
X70915023Y-77019338D01*
X70818433Y-77362971D01*
X70817504Y-77366275D01*
X70816943Y-77369628D01*
X70816942Y-77369632D01*
X70758272Y-77720234D01*
X70727301Y-77784119D01*
X70666708Y-77821119D01*
X70595730Y-77819486D01*
X70536903Y-77779738D01*
X70508903Y-77714496D01*
X70508000Y-77699438D01*
X70508000Y-48950000D01*
X94136500Y-48950000D01*
X94156462Y-49139927D01*
X94215476Y-49321554D01*
X94310963Y-49486942D01*
X94315381Y-49491849D01*
X94315382Y-49491850D01*
X94378925Y-49562422D01*
X94438749Y-49628863D01*
X94444091Y-49632744D01*
X94444093Y-49632746D01*
X94587908Y-49737233D01*
X94593250Y-49741114D01*
X94599278Y-49743798D01*
X94599280Y-49743799D01*
X94761682Y-49816105D01*
X94767713Y-49818790D01*
X94861113Y-49838643D01*
X94948056Y-49857124D01*
X94948061Y-49857124D01*
X94954513Y-49858496D01*
X95145487Y-49858496D01*
X95151939Y-49857124D01*
X95151944Y-49857124D01*
X95238887Y-49838643D01*
X95332287Y-49818790D01*
X95338318Y-49816105D01*
X95500720Y-49743799D01*
X95500722Y-49743798D01*
X95506750Y-49741114D01*
X95512092Y-49737233D01*
X95655907Y-49632746D01*
X95655909Y-49632744D01*
X95661251Y-49628863D01*
X95687070Y-49600188D01*
X95747513Y-49562950D01*
X95780704Y-49558500D01*
X102403762Y-49558500D01*
X102420208Y-49559578D01*
X102441811Y-49562422D01*
X102441812Y-49562422D01*
X102450000Y-49563500D01*
X102458188Y-49562422D01*
X102600598Y-49543674D01*
X102608786Y-49542596D01*
X102695461Y-49506693D01*
X102749119Y-49484468D01*
X102749120Y-49484467D01*
X102756750Y-49481307D01*
X102883810Y-49383810D01*
X102902104Y-49359969D01*
X102912971Y-49347578D01*
X109765144Y-42495405D01*
X109827456Y-42461379D01*
X109854239Y-42458500D01*
X117119296Y-42458500D01*
X117187417Y-42478502D01*
X117212928Y-42500186D01*
X117238749Y-42528863D01*
X117244091Y-42532744D01*
X117244093Y-42532746D01*
X117387908Y-42637233D01*
X117393250Y-42641114D01*
X117399278Y-42643798D01*
X117399280Y-42643799D01*
X117561682Y-42716105D01*
X117567713Y-42718790D01*
X117661113Y-42738643D01*
X117748056Y-42757124D01*
X117748061Y-42757124D01*
X117754513Y-42758496D01*
X117945487Y-42758496D01*
X117951939Y-42757124D01*
X117951944Y-42757124D01*
X118038887Y-42738643D01*
X118132287Y-42718790D01*
X118138318Y-42716105D01*
X118300720Y-42643799D01*
X118300722Y-42643798D01*
X118306750Y-42641114D01*
X118312092Y-42637233D01*
X118455907Y-42532746D01*
X118455909Y-42532744D01*
X118461251Y-42528863D01*
X118589037Y-42386942D01*
X118684524Y-42221554D01*
X118737505Y-42058496D01*
X118741498Y-42046206D01*
X118741498Y-42046205D01*
X118743538Y-42039927D01*
X118763500Y-41850000D01*
X118758877Y-41806014D01*
X118744228Y-41666637D01*
X118744228Y-41666636D01*
X118743538Y-41660073D01*
X118739350Y-41647182D01*
X118686566Y-41484731D01*
X118684524Y-41478446D01*
X118589037Y-41313058D01*
X118567853Y-41289530D01*
X118465673Y-41176048D01*
X118465672Y-41176047D01*
X118461251Y-41171137D01*
X118455909Y-41167256D01*
X118455907Y-41167254D01*
X118312092Y-41062767D01*
X118312091Y-41062766D01*
X118306750Y-41058886D01*
X118300722Y-41056202D01*
X118300720Y-41056201D01*
X118138318Y-40983895D01*
X118138317Y-40983895D01*
X118132287Y-40981210D01*
X118030198Y-40959510D01*
X117951944Y-40942876D01*
X117951939Y-40942876D01*
X117945487Y-40941504D01*
X117754513Y-40941504D01*
X117748061Y-40942876D01*
X117748056Y-40942876D01*
X117669802Y-40959510D01*
X117567713Y-40981210D01*
X117561683Y-40983895D01*
X117561682Y-40983895D01*
X117399280Y-41056201D01*
X117399278Y-41056202D01*
X117393250Y-41058886D01*
X117387909Y-41062766D01*
X117387908Y-41062767D01*
X117244093Y-41167254D01*
X117244091Y-41167256D01*
X117238749Y-41171137D01*
X117212930Y-41199812D01*
X117152487Y-41237050D01*
X117119296Y-41241500D01*
X109596238Y-41241500D01*
X109579792Y-41240422D01*
X109558189Y-41237578D01*
X109558188Y-41237578D01*
X109550000Y-41236500D01*
X109391214Y-41257404D01*
X109383583Y-41260565D01*
X109304541Y-41293306D01*
X109304539Y-41293307D01*
X109250881Y-41315532D01*
X109250880Y-41315533D01*
X109243250Y-41318693D01*
X109116190Y-41416190D01*
X109111164Y-41422740D01*
X109097896Y-41440031D01*
X109087029Y-41452422D01*
X102234856Y-48304595D01*
X102172544Y-48338621D01*
X102145761Y-48341500D01*
X95780704Y-48341500D01*
X95712583Y-48321498D01*
X95687072Y-48299814D01*
X95661251Y-48271137D01*
X95655909Y-48267256D01*
X95655907Y-48267254D01*
X95512092Y-48162767D01*
X95512091Y-48162766D01*
X95506750Y-48158886D01*
X95500722Y-48156202D01*
X95500720Y-48156201D01*
X95338318Y-48083895D01*
X95338317Y-48083895D01*
X95332287Y-48081210D01*
X95238887Y-48061357D01*
X95151944Y-48042876D01*
X95151939Y-48042876D01*
X95145487Y-48041504D01*
X94954513Y-48041504D01*
X94948061Y-48042876D01*
X94948056Y-48042876D01*
X94861113Y-48061357D01*
X94767713Y-48081210D01*
X94761683Y-48083895D01*
X94761682Y-48083895D01*
X94599280Y-48156201D01*
X94599278Y-48156202D01*
X94593250Y-48158886D01*
X94587909Y-48162766D01*
X94587908Y-48162767D01*
X94444093Y-48267254D01*
X94444091Y-48267256D01*
X94438749Y-48271137D01*
X94310963Y-48413058D01*
X94215476Y-48578446D01*
X94156462Y-48760073D01*
X94136500Y-48950000D01*
X70508000Y-48950000D01*
X70508000Y-46355000D01*
X89840700Y-46355000D01*
X89860662Y-46544927D01*
X89919676Y-46726554D01*
X90015163Y-46891942D01*
X90019581Y-46896849D01*
X90019582Y-46896850D01*
X90056903Y-46938299D01*
X90142949Y-47033863D01*
X90148291Y-47037744D01*
X90148293Y-47037746D01*
X90287214Y-47138677D01*
X90297450Y-47146114D01*
X90303478Y-47148798D01*
X90303480Y-47148799D01*
X90465882Y-47221105D01*
X90471913Y-47223790D01*
X90565313Y-47243643D01*
X90652256Y-47262124D01*
X90652261Y-47262124D01*
X90658713Y-47263496D01*
X90849687Y-47263496D01*
X90856139Y-47262124D01*
X90856144Y-47262124D01*
X90943087Y-47243643D01*
X91036487Y-47223790D01*
X91042518Y-47221105D01*
X91204920Y-47148799D01*
X91204922Y-47148798D01*
X91210950Y-47146114D01*
X91221186Y-47138677D01*
X91360107Y-47037746D01*
X91360109Y-47037744D01*
X91365451Y-47033863D01*
X91493237Y-46891942D01*
X91495708Y-46887662D01*
X91551441Y-46844685D01*
X91597155Y-46836100D01*
X95018300Y-46836100D01*
X95086421Y-46856102D01*
X95132914Y-46909758D01*
X95140767Y-46938518D01*
X95141798Y-46938299D01*
X95143172Y-46944763D01*
X95143862Y-46951327D01*
X95202876Y-47132954D01*
X95298363Y-47298342D01*
X95426149Y-47440263D01*
X95431491Y-47444144D01*
X95431493Y-47444146D01*
X95575308Y-47548633D01*
X95580650Y-47552514D01*
X95586678Y-47555198D01*
X95586680Y-47555199D01*
X95749082Y-47627505D01*
X95755113Y-47630190D01*
X95848513Y-47650043D01*
X95935456Y-47668524D01*
X95935461Y-47668524D01*
X95941913Y-47669896D01*
X96132887Y-47669896D01*
X96139339Y-47668524D01*
X96139344Y-47668524D01*
X96226287Y-47650043D01*
X96319687Y-47630190D01*
X96325718Y-47627505D01*
X96488120Y-47555199D01*
X96488122Y-47555198D01*
X96494150Y-47552514D01*
X96499492Y-47548633D01*
X96643307Y-47444146D01*
X96643309Y-47444144D01*
X96648651Y-47440263D01*
X96776437Y-47298342D01*
X96871924Y-47132954D01*
X96930938Y-46951327D01*
X96940947Y-46856102D01*
X96950210Y-46767965D01*
X96950900Y-46761400D01*
X96930938Y-46571473D01*
X96871924Y-46389846D01*
X96776437Y-46224458D01*
X96648651Y-46082537D01*
X96643309Y-46078656D01*
X96643307Y-46078654D01*
X96499492Y-45974167D01*
X96499491Y-45974166D01*
X96494150Y-45970286D01*
X96488122Y-45967602D01*
X96488120Y-45967601D01*
X96325718Y-45895295D01*
X96325717Y-45895295D01*
X96319687Y-45892610D01*
X96226287Y-45872757D01*
X96139344Y-45854276D01*
X96139339Y-45854276D01*
X96132887Y-45852904D01*
X96077000Y-45852904D01*
X96008879Y-45832902D01*
X95987905Y-45815999D01*
X95981986Y-45810080D01*
X95974631Y-45801998D01*
X95970573Y-45795605D01*
X95921722Y-45749731D01*
X95918881Y-45746977D01*
X95898566Y-45726662D01*
X95895155Y-45724017D01*
X95886133Y-45716311D01*
X95859677Y-45691467D01*
X95853901Y-45686043D01*
X95846957Y-45682226D01*
X95846955Y-45682224D01*
X95836147Y-45676282D01*
X95819623Y-45665428D01*
X95809886Y-45657875D01*
X95809885Y-45657875D01*
X95803623Y-45653017D01*
X95795270Y-45649402D01*
X95763049Y-45635459D01*
X95752390Y-45630237D01*
X95713648Y-45608938D01*
X95705970Y-45606967D01*
X95705968Y-45606966D01*
X95705039Y-45606728D01*
X95704314Y-45606542D01*
X95703161Y-45605855D01*
X95698597Y-45604048D01*
X95698888Y-45603312D01*
X95643308Y-45570227D01*
X95611619Y-45506695D01*
X95619309Y-45436116D01*
X95663936Y-45380899D01*
X95735649Y-45358500D01*
X98503762Y-45358500D01*
X98520208Y-45359578D01*
X98541811Y-45362422D01*
X98541812Y-45362422D01*
X98550000Y-45363500D01*
X98558188Y-45362422D01*
X98700598Y-45343674D01*
X98708786Y-45342596D01*
X98795461Y-45306693D01*
X98849119Y-45284468D01*
X98849120Y-45284467D01*
X98856750Y-45281307D01*
X98983810Y-45183810D01*
X99002104Y-45159969D01*
X99012971Y-45147578D01*
X102080403Y-42080146D01*
X102142715Y-42046120D01*
X102195695Y-42045994D01*
X102248056Y-42057124D01*
X102248061Y-42057124D01*
X102254513Y-42058496D01*
X102445487Y-42058496D01*
X102451939Y-42057124D01*
X102451944Y-42057124D01*
X102563727Y-42033363D01*
X102632287Y-42018790D01*
X102638318Y-42016105D01*
X102800720Y-41943799D01*
X102800722Y-41943798D01*
X102806750Y-41941114D01*
X102812092Y-41937233D01*
X102955907Y-41832746D01*
X102955909Y-41832744D01*
X102961251Y-41828863D01*
X102978651Y-41809538D01*
X103084618Y-41691850D01*
X103084619Y-41691849D01*
X103089037Y-41686942D01*
X103184524Y-41521554D01*
X103243538Y-41339927D01*
X103248835Y-41289534D01*
X103262810Y-41156565D01*
X103263500Y-41150000D01*
X103243538Y-40960073D01*
X103237951Y-40942876D01*
X103186566Y-40784731D01*
X103184524Y-40778446D01*
X103089037Y-40613058D01*
X103068557Y-40590312D01*
X102965673Y-40476048D01*
X102965672Y-40476047D01*
X102961251Y-40471137D01*
X102955909Y-40467256D01*
X102955907Y-40467254D01*
X102812092Y-40362767D01*
X102812091Y-40362766D01*
X102806750Y-40358886D01*
X102800722Y-40356202D01*
X102800720Y-40356201D01*
X102638318Y-40283895D01*
X102638317Y-40283895D01*
X102632287Y-40281210D01*
X102538887Y-40261357D01*
X102451944Y-40242876D01*
X102451939Y-40242876D01*
X102445487Y-40241504D01*
X102254513Y-40241504D01*
X102248061Y-40242876D01*
X102248056Y-40242876D01*
X102161113Y-40261357D01*
X102067713Y-40281210D01*
X102061683Y-40283895D01*
X102061682Y-40283895D01*
X101899280Y-40356201D01*
X101899278Y-40356202D01*
X101893250Y-40358886D01*
X101887909Y-40362766D01*
X101887908Y-40362767D01*
X101744093Y-40467254D01*
X101744091Y-40467256D01*
X101738749Y-40471137D01*
X101734328Y-40476047D01*
X101734327Y-40476048D01*
X101631444Y-40590312D01*
X101610963Y-40613058D01*
X101515476Y-40778446D01*
X101456462Y-40960073D01*
X101454728Y-40959510D01*
X101424781Y-41014670D01*
X98334856Y-44104595D01*
X98272544Y-44138621D01*
X98245761Y-44141500D01*
X94830704Y-44141500D01*
X94762583Y-44121498D01*
X94737072Y-44099814D01*
X94711251Y-44071137D01*
X94705909Y-44067256D01*
X94705907Y-44067254D01*
X94562092Y-43962767D01*
X94562091Y-43962766D01*
X94556750Y-43958886D01*
X94550722Y-43956202D01*
X94550720Y-43956201D01*
X94388318Y-43883895D01*
X94388317Y-43883895D01*
X94382287Y-43881210D01*
X94288887Y-43861357D01*
X94201944Y-43842876D01*
X94201939Y-43842876D01*
X94195487Y-43841504D01*
X94004513Y-43841504D01*
X93998061Y-43842876D01*
X93998056Y-43842876D01*
X93911113Y-43861357D01*
X93817713Y-43881210D01*
X93811683Y-43883895D01*
X93811682Y-43883895D01*
X93649280Y-43956201D01*
X93649278Y-43956202D01*
X93643250Y-43958886D01*
X93637909Y-43962766D01*
X93637908Y-43962767D01*
X93494093Y-44067254D01*
X93494091Y-44067256D01*
X93488749Y-44071137D01*
X93484328Y-44076047D01*
X93484327Y-44076048D01*
X93376137Y-44196206D01*
X93360963Y-44213058D01*
X93265476Y-44378446D01*
X93263434Y-44384731D01*
X93215836Y-44531224D01*
X93206462Y-44560073D01*
X93186500Y-44750000D01*
X93206462Y-44939927D01*
X93265476Y-45121554D01*
X93360963Y-45286942D01*
X93365381Y-45291849D01*
X93365382Y-45291850D01*
X93425655Y-45358790D01*
X93456373Y-45422797D01*
X93447608Y-45493251D01*
X93402145Y-45547782D01*
X93332019Y-45569100D01*
X91249444Y-45569100D01*
X91198195Y-45558207D01*
X91042518Y-45488895D01*
X91042517Y-45488895D01*
X91036487Y-45486210D01*
X90943087Y-45466357D01*
X90856144Y-45447876D01*
X90856139Y-45447876D01*
X90849687Y-45446504D01*
X90658713Y-45446504D01*
X90652261Y-45447876D01*
X90652256Y-45447876D01*
X90565313Y-45466357D01*
X90471913Y-45486210D01*
X90465883Y-45488895D01*
X90465882Y-45488895D01*
X90303480Y-45561201D01*
X90303478Y-45561202D01*
X90297450Y-45563886D01*
X90292109Y-45567766D01*
X90292108Y-45567767D01*
X90148293Y-45672254D01*
X90148291Y-45672256D01*
X90142949Y-45676137D01*
X90138528Y-45681047D01*
X90138527Y-45681048D01*
X90134030Y-45686043D01*
X90015163Y-45818058D01*
X89919676Y-45983446D01*
X89860662Y-46165073D01*
X89840700Y-46355000D01*
X70508000Y-46355000D01*
X70508000Y-39650000D01*
X83636500Y-39650000D01*
X83656462Y-39839927D01*
X83658502Y-39846205D01*
X83658502Y-39846206D01*
X83672673Y-39889820D01*
X83715476Y-40021554D01*
X83810963Y-40186942D01*
X83815381Y-40191849D01*
X83815382Y-40191850D01*
X83835633Y-40214341D01*
X83938749Y-40328863D01*
X83944091Y-40332744D01*
X83944093Y-40332746D01*
X83980072Y-40358886D01*
X84093250Y-40441114D01*
X84099278Y-40443798D01*
X84099280Y-40443799D01*
X84261682Y-40516105D01*
X84267713Y-40518790D01*
X84361113Y-40538643D01*
X84448056Y-40557124D01*
X84448061Y-40557124D01*
X84454513Y-40558496D01*
X84645487Y-40558496D01*
X84651939Y-40557124D01*
X84651944Y-40557124D01*
X84738887Y-40538643D01*
X84832287Y-40518790D01*
X84838318Y-40516105D01*
X85000720Y-40443799D01*
X85000722Y-40443798D01*
X85006750Y-40441114D01*
X85119928Y-40358886D01*
X85155907Y-40332746D01*
X85155909Y-40332744D01*
X85161251Y-40328863D01*
X85264367Y-40214341D01*
X85284618Y-40191850D01*
X85284619Y-40191849D01*
X85289037Y-40186942D01*
X85384524Y-40021554D01*
X85427327Y-39889820D01*
X85441498Y-39846206D01*
X85441498Y-39846205D01*
X85443538Y-39839927D01*
X85463500Y-39650000D01*
X85463313Y-39648217D01*
X85482812Y-39581808D01*
X85499715Y-39560834D01*
X86274749Y-38785800D01*
X95327100Y-38785800D01*
X95327790Y-38792365D01*
X95336053Y-38870978D01*
X95347062Y-38975727D01*
X95406076Y-39157354D01*
X95501563Y-39322742D01*
X95505981Y-39327649D01*
X95505982Y-39327650D01*
X95622914Y-39457516D01*
X95629349Y-39464663D01*
X95634691Y-39468544D01*
X95634693Y-39468546D01*
X95778508Y-39573033D01*
X95783850Y-39576914D01*
X95789878Y-39579598D01*
X95789880Y-39579599D01*
X95952282Y-39651905D01*
X95958313Y-39654590D01*
X96051713Y-39674443D01*
X96138656Y-39692924D01*
X96138661Y-39692924D01*
X96145113Y-39694296D01*
X96336087Y-39694296D01*
X96342539Y-39692924D01*
X96342544Y-39692924D01*
X96429487Y-39674443D01*
X96522887Y-39654590D01*
X96528918Y-39651905D01*
X96691320Y-39579599D01*
X96691322Y-39579598D01*
X96697350Y-39576914D01*
X96702692Y-39573033D01*
X96846507Y-39468546D01*
X96846509Y-39468544D01*
X96851851Y-39464663D01*
X96858286Y-39457516D01*
X96975218Y-39327650D01*
X96975219Y-39327649D01*
X96979637Y-39322742D01*
X97075124Y-39157354D01*
X97134138Y-38975727D01*
X97135649Y-38976218D01*
X97165542Y-38920837D01*
X97227689Y-38886511D01*
X97255068Y-38883500D01*
X106421616Y-38883500D01*
X106432520Y-38884014D01*
X106439911Y-38885666D01*
X106447837Y-38885417D01*
X106447838Y-38885417D01*
X106506866Y-38883562D01*
X106510823Y-38883500D01*
X106539578Y-38883500D01*
X106543845Y-38882961D01*
X106555687Y-38882028D01*
X106587335Y-38881033D01*
X106591960Y-38880888D01*
X106599883Y-38880639D01*
X106619334Y-38874988D01*
X106638695Y-38870978D01*
X106641420Y-38870634D01*
X106650930Y-38869433D01*
X106650933Y-38869432D01*
X106658788Y-38868440D01*
X106666153Y-38865524D01*
X106666157Y-38865523D01*
X106699901Y-38852163D01*
X106711130Y-38848318D01*
X106717157Y-38846567D01*
X106753578Y-38835986D01*
X106765841Y-38828734D01*
X106771011Y-38825677D01*
X106788762Y-38816981D01*
X106800226Y-38812442D01*
X106800229Y-38812440D01*
X106807600Y-38809522D01*
X106843368Y-38783535D01*
X106853291Y-38777016D01*
X106891341Y-38754514D01*
X106891759Y-38754145D01*
X106905842Y-38740062D01*
X106920867Y-38727228D01*
X106937083Y-38715446D01*
X106965030Y-38681664D01*
X106973019Y-38672885D01*
X107200503Y-38445401D01*
X107262815Y-38411375D01*
X107289598Y-38408496D01*
X107345487Y-38408496D01*
X107351939Y-38407124D01*
X107351944Y-38407124D01*
X107438887Y-38388643D01*
X107532287Y-38368790D01*
X107538318Y-38366105D01*
X107700720Y-38293799D01*
X107700722Y-38293798D01*
X107706750Y-38291114D01*
X107712092Y-38287233D01*
X107855907Y-38182746D01*
X107855909Y-38182744D01*
X107861251Y-38178863D01*
X107869044Y-38170208D01*
X107984618Y-38041850D01*
X107984619Y-38041849D01*
X107989037Y-38036942D01*
X108061837Y-37910849D01*
X117736599Y-37910849D01*
X117753150Y-38107956D01*
X117766285Y-38153762D01*
X117804558Y-38287233D01*
X117807672Y-38298094D01*
X117898086Y-38474021D01*
X118020949Y-38629036D01*
X118025636Y-38633025D01*
X118025639Y-38633028D01*
X118166890Y-38753242D01*
X118171582Y-38757235D01*
X118176960Y-38760241D01*
X118176962Y-38760242D01*
X118337524Y-38849977D01*
X118344246Y-38853734D01*
X118532366Y-38914857D01*
X118728775Y-38938278D01*
X118734910Y-38937806D01*
X118734912Y-38937806D01*
X118919850Y-38923576D01*
X118919854Y-38923575D01*
X118925992Y-38923103D01*
X119116507Y-38869910D01*
X119293060Y-38780726D01*
X119319279Y-38760242D01*
X119444073Y-38662742D01*
X119448929Y-38658948D01*
X119470509Y-38633948D01*
X119508794Y-38589594D01*
X119541098Y-38552169D01*
X119600750Y-38513672D01*
X119636479Y-38508500D01*
X123584317Y-38508500D01*
X123652438Y-38528502D01*
X123683062Y-38556235D01*
X123720949Y-38604036D01*
X123725643Y-38608031D01*
X123865691Y-38727221D01*
X123871582Y-38732235D01*
X123876960Y-38735241D01*
X123876962Y-38735242D01*
X124029746Y-38820630D01*
X124044246Y-38828734D01*
X124232366Y-38889857D01*
X124428775Y-38913278D01*
X124434910Y-38912806D01*
X124434912Y-38912806D01*
X124619850Y-38898576D01*
X124619854Y-38898575D01*
X124625992Y-38898103D01*
X124816507Y-38844910D01*
X124993060Y-38755726D01*
X124998041Y-38751835D01*
X125144073Y-38637742D01*
X125148929Y-38633948D01*
X125171300Y-38608031D01*
X125274147Y-38488882D01*
X125274148Y-38488880D01*
X125278176Y-38484214D01*
X125375878Y-38312228D01*
X125438314Y-38124539D01*
X125463105Y-37928299D01*
X125463500Y-37900000D01*
X125444198Y-37703143D01*
X125387027Y-37513785D01*
X125294166Y-37339138D01*
X125193433Y-37215627D01*
X125173045Y-37190628D01*
X125173042Y-37190625D01*
X125169150Y-37185853D01*
X125164401Y-37181924D01*
X125021491Y-37063698D01*
X125021486Y-37063695D01*
X125016742Y-37059770D01*
X125011323Y-37056840D01*
X125011320Y-37056838D01*
X124848165Y-36968621D01*
X124848161Y-36968619D01*
X124842747Y-36965692D01*
X124836867Y-36963872D01*
X124836865Y-36963871D01*
X124742729Y-36934731D01*
X124653792Y-36907200D01*
X124647674Y-36906557D01*
X124647669Y-36906556D01*
X124463205Y-36887169D01*
X124463203Y-36887169D01*
X124457076Y-36886525D01*
X124374226Y-36894065D01*
X124266228Y-36903893D01*
X124266225Y-36903894D01*
X124260089Y-36904452D01*
X124254183Y-36906190D01*
X124254179Y-36906191D01*
X124157209Y-36934731D01*
X124070336Y-36960299D01*
X123895045Y-37051939D01*
X123740891Y-37175882D01*
X123736933Y-37180599D01*
X123736931Y-37180601D01*
X123681643Y-37246491D01*
X123622533Y-37285818D01*
X123585121Y-37291500D01*
X119594753Y-37291500D01*
X119526632Y-37271498D01*
X119497112Y-37245137D01*
X119469150Y-37210853D01*
X119464401Y-37206924D01*
X119321491Y-37088698D01*
X119321486Y-37088695D01*
X119316742Y-37084770D01*
X119311323Y-37081840D01*
X119311320Y-37081838D01*
X119148165Y-36993621D01*
X119148161Y-36993619D01*
X119142747Y-36990692D01*
X119136867Y-36988872D01*
X119136865Y-36988871D01*
X119087317Y-36973533D01*
X118953792Y-36932200D01*
X118947674Y-36931557D01*
X118947669Y-36931556D01*
X118763205Y-36912169D01*
X118763203Y-36912169D01*
X118757076Y-36911525D01*
X118674226Y-36919065D01*
X118566228Y-36928893D01*
X118566225Y-36928894D01*
X118560089Y-36929452D01*
X118554183Y-36931190D01*
X118554179Y-36931191D01*
X118436955Y-36965692D01*
X118370336Y-36985299D01*
X118195045Y-37076939D01*
X118040891Y-37200882D01*
X117913747Y-37352406D01*
X117910783Y-37357798D01*
X117910780Y-37357802D01*
X117893538Y-37389166D01*
X117818456Y-37525740D01*
X117816595Y-37531607D01*
X117816594Y-37531609D01*
X117789198Y-37617972D01*
X117758647Y-37714282D01*
X117736599Y-37910849D01*
X108061837Y-37910849D01*
X108068101Y-37900000D01*
X108081220Y-37877277D01*
X108081221Y-37877276D01*
X108084524Y-37871554D01*
X108116618Y-37772779D01*
X108141498Y-37696206D01*
X108141498Y-37696205D01*
X108143538Y-37689927D01*
X108144648Y-37679371D01*
X108162810Y-37506565D01*
X108163500Y-37500000D01*
X108151851Y-37389166D01*
X108144228Y-37316637D01*
X108144228Y-37316636D01*
X108143538Y-37310073D01*
X108122439Y-37245135D01*
X108086566Y-37134731D01*
X108084524Y-37128446D01*
X108061576Y-37088698D01*
X108038705Y-37049085D01*
X107989037Y-36963058D01*
X107961253Y-36932200D01*
X107865673Y-36826048D01*
X107865672Y-36826047D01*
X107861251Y-36821137D01*
X107855909Y-36817256D01*
X107855907Y-36817254D01*
X107712092Y-36712767D01*
X107712091Y-36712766D01*
X107706750Y-36708886D01*
X107700722Y-36706202D01*
X107700720Y-36706201D01*
X107538318Y-36633895D01*
X107538317Y-36633895D01*
X107532287Y-36631210D01*
X107438887Y-36611357D01*
X107351944Y-36592876D01*
X107351939Y-36592876D01*
X107345487Y-36591504D01*
X107154513Y-36591504D01*
X107148061Y-36592876D01*
X107148056Y-36592876D01*
X107061113Y-36611357D01*
X106967713Y-36631210D01*
X106961683Y-36633895D01*
X106961682Y-36633895D01*
X106799280Y-36706201D01*
X106799278Y-36706202D01*
X106793250Y-36708886D01*
X106787909Y-36712766D01*
X106787908Y-36712767D01*
X106644093Y-36817254D01*
X106644091Y-36817256D01*
X106638749Y-36821137D01*
X106634328Y-36826047D01*
X106634327Y-36826048D01*
X106538748Y-36932200D01*
X106510963Y-36963058D01*
X106461295Y-37049085D01*
X106438425Y-37088698D01*
X106415476Y-37128446D01*
X106413434Y-37134731D01*
X106377562Y-37245135D01*
X106356462Y-37310073D01*
X106355772Y-37316636D01*
X106355772Y-37316637D01*
X106339097Y-37475290D01*
X106312084Y-37540946D01*
X106302882Y-37551214D01*
X106274501Y-37579595D01*
X106212189Y-37613621D01*
X106185406Y-37616500D01*
X96854801Y-37616500D01*
X96843881Y-37615985D01*
X96836489Y-37614333D01*
X96828566Y-37614582D01*
X96769516Y-37616438D01*
X96765558Y-37616500D01*
X96736822Y-37616500D01*
X96732551Y-37617039D01*
X96720722Y-37617971D01*
X96676517Y-37619361D01*
X96668901Y-37621574D01*
X96668899Y-37621574D01*
X96657061Y-37625013D01*
X96637702Y-37629022D01*
X96625479Y-37630566D01*
X96625478Y-37630566D01*
X96617612Y-37631560D01*
X96610236Y-37634480D01*
X96610237Y-37634480D01*
X96576511Y-37647832D01*
X96565282Y-37651677D01*
X96530435Y-37661801D01*
X96530434Y-37661802D01*
X96522822Y-37664013D01*
X96515999Y-37668048D01*
X96505383Y-37674326D01*
X96487631Y-37683022D01*
X96468800Y-37690478D01*
X96459492Y-37697241D01*
X96433029Y-37716467D01*
X96423111Y-37722982D01*
X96385059Y-37745486D01*
X96384641Y-37745855D01*
X96370558Y-37759938D01*
X96355533Y-37772772D01*
X96339317Y-37784554D01*
X96311371Y-37818335D01*
X96303381Y-37827115D01*
X96290097Y-37840399D01*
X96227785Y-37874425D01*
X96201002Y-37877304D01*
X96145113Y-37877304D01*
X96138661Y-37878676D01*
X96138656Y-37878676D01*
X96054747Y-37896512D01*
X95958313Y-37917010D01*
X95952283Y-37919695D01*
X95952282Y-37919695D01*
X95789880Y-37992001D01*
X95789878Y-37992002D01*
X95783850Y-37994686D01*
X95778509Y-37998566D01*
X95778508Y-37998567D01*
X95634693Y-38103054D01*
X95634691Y-38103056D01*
X95629349Y-38106937D01*
X95624928Y-38111847D01*
X95624927Y-38111848D01*
X95569009Y-38173952D01*
X95501563Y-38248858D01*
X95406076Y-38414246D01*
X95404034Y-38420531D01*
X95373891Y-38513303D01*
X95347062Y-38595873D01*
X95346372Y-38602436D01*
X95346372Y-38602437D01*
X95334494Y-38715446D01*
X95327100Y-38785800D01*
X86274749Y-38785800D01*
X86397578Y-38662971D01*
X86409969Y-38652104D01*
X86427260Y-38638836D01*
X86433810Y-38633810D01*
X86531307Y-38506750D01*
X86569623Y-38414246D01*
X86592596Y-38358786D01*
X86613500Y-38200000D01*
X86609578Y-38170208D01*
X86608500Y-38153762D01*
X86608500Y-36330284D01*
X86628502Y-36262163D01*
X86640857Y-36245982D01*
X86739037Y-36136942D01*
X86834524Y-35971554D01*
X86893538Y-35789927D01*
X86913500Y-35600000D01*
X86903229Y-35502277D01*
X86894228Y-35416637D01*
X86894228Y-35416636D01*
X86893538Y-35410073D01*
X86834524Y-35228446D01*
X86739037Y-35063058D01*
X86708170Y-35028776D01*
X86615673Y-34926048D01*
X86615672Y-34926047D01*
X86611251Y-34921137D01*
X86605909Y-34917256D01*
X86605907Y-34917254D01*
X86462092Y-34812767D01*
X86462091Y-34812766D01*
X86456750Y-34808886D01*
X86450722Y-34806202D01*
X86450720Y-34806201D01*
X86288318Y-34733895D01*
X86288317Y-34733895D01*
X86282287Y-34731210D01*
X86167740Y-34706862D01*
X86101944Y-34692876D01*
X86101939Y-34692876D01*
X86095487Y-34691504D01*
X85904513Y-34691504D01*
X85898061Y-34692876D01*
X85898056Y-34692876D01*
X85832260Y-34706862D01*
X85717713Y-34731210D01*
X85711683Y-34733895D01*
X85711682Y-34733895D01*
X85549280Y-34806201D01*
X85549278Y-34806202D01*
X85543250Y-34808886D01*
X85537909Y-34812766D01*
X85537908Y-34812767D01*
X85394093Y-34917254D01*
X85394091Y-34917256D01*
X85388749Y-34921137D01*
X85384328Y-34926047D01*
X85384327Y-34926048D01*
X85291831Y-35028776D01*
X85260963Y-35063058D01*
X85165476Y-35228446D01*
X85106462Y-35410073D01*
X85105772Y-35416636D01*
X85105772Y-35416637D01*
X85096771Y-35502277D01*
X85086500Y-35600000D01*
X85106462Y-35789927D01*
X85165476Y-35971554D01*
X85260963Y-36136942D01*
X85359137Y-36245976D01*
X85389853Y-36309981D01*
X85391500Y-36330284D01*
X85391500Y-37895761D01*
X85371498Y-37963882D01*
X85354595Y-37984856D01*
X84634852Y-38704599D01*
X84572540Y-38738625D01*
X84545757Y-38741504D01*
X84454513Y-38741504D01*
X84448061Y-38742876D01*
X84448056Y-38742876D01*
X84361113Y-38761357D01*
X84267713Y-38781210D01*
X84261683Y-38783895D01*
X84261682Y-38783895D01*
X84099280Y-38856201D01*
X84099278Y-38856202D01*
X84093250Y-38858886D01*
X84087909Y-38862766D01*
X84087908Y-38862767D01*
X83944093Y-38967254D01*
X83944091Y-38967256D01*
X83938749Y-38971137D01*
X83934328Y-38976047D01*
X83934327Y-38976048D01*
X83928963Y-38982006D01*
X83810963Y-39113058D01*
X83715476Y-39278446D01*
X83707514Y-39302952D01*
X83677487Y-39395366D01*
X83656462Y-39460073D01*
X83655772Y-39466636D01*
X83655772Y-39466637D01*
X83644182Y-39576914D01*
X83636500Y-39650000D01*
X70508000Y-39650000D01*
X70508000Y-37300000D01*
X78286500Y-37300000D01*
X78287190Y-37306565D01*
X78291186Y-37344580D01*
X78306462Y-37489927D01*
X78365476Y-37671554D01*
X78368779Y-37677276D01*
X78368780Y-37677277D01*
X78393677Y-37720400D01*
X78460963Y-37836942D01*
X78465381Y-37841849D01*
X78465382Y-37841850D01*
X78520896Y-37903505D01*
X78588749Y-37978863D01*
X78594091Y-37982744D01*
X78594093Y-37982746D01*
X78737908Y-38087233D01*
X78743250Y-38091114D01*
X78749278Y-38093798D01*
X78749280Y-38093799D01*
X78902507Y-38162020D01*
X78917713Y-38168790D01*
X79011113Y-38188643D01*
X79098056Y-38207124D01*
X79098061Y-38207124D01*
X79104513Y-38208496D01*
X79295487Y-38208496D01*
X79301939Y-38207124D01*
X79301944Y-38207124D01*
X79388887Y-38188643D01*
X79482287Y-38168790D01*
X79497493Y-38162020D01*
X79650720Y-38093799D01*
X79650722Y-38093798D01*
X79656750Y-38091114D01*
X79662092Y-38087233D01*
X79805907Y-37982746D01*
X79805909Y-37982744D01*
X79811251Y-37978863D01*
X79879104Y-37903505D01*
X79934618Y-37841850D01*
X79934619Y-37841849D01*
X79939037Y-37836942D01*
X80006323Y-37720400D01*
X80031220Y-37677277D01*
X80031221Y-37677276D01*
X80034524Y-37671554D01*
X80093538Y-37489927D01*
X80108815Y-37344580D01*
X80112810Y-37306565D01*
X80113500Y-37300000D01*
X80107876Y-37246491D01*
X80094228Y-37116637D01*
X80094228Y-37116636D01*
X80093538Y-37110073D01*
X80034524Y-36928446D01*
X80025127Y-36912169D01*
X79942338Y-36768776D01*
X79939037Y-36763058D01*
X79840863Y-36654024D01*
X79810147Y-36590019D01*
X79808500Y-36569716D01*
X79808500Y-33759600D01*
X88137100Y-33759600D01*
X88137790Y-33766165D01*
X88155968Y-33939114D01*
X88157062Y-33949527D01*
X88159102Y-33955805D01*
X88159102Y-33955806D01*
X88169345Y-33987331D01*
X88216076Y-34131154D01*
X88311563Y-34296542D01*
X88315981Y-34301449D01*
X88315982Y-34301450D01*
X88410774Y-34406727D01*
X88439349Y-34438463D01*
X88444691Y-34442344D01*
X88444693Y-34442346D01*
X88588508Y-34546833D01*
X88593850Y-34550714D01*
X88599878Y-34553398D01*
X88599880Y-34553399D01*
X88762282Y-34625705D01*
X88768313Y-34628390D01*
X88841239Y-34643891D01*
X88948656Y-34666724D01*
X88948661Y-34666724D01*
X88955113Y-34668096D01*
X89146087Y-34668096D01*
X89152539Y-34666724D01*
X89152544Y-34666724D01*
X89259961Y-34643891D01*
X89332887Y-34628390D01*
X89338918Y-34625705D01*
X89501320Y-34553399D01*
X89501322Y-34553398D01*
X89507350Y-34550714D01*
X89512692Y-34546833D01*
X89656507Y-34442346D01*
X89656509Y-34442344D01*
X89661851Y-34438463D01*
X89690426Y-34406727D01*
X89785218Y-34301450D01*
X89785219Y-34301449D01*
X89789637Y-34296542D01*
X89835676Y-34216800D01*
X106803300Y-34216800D01*
X106823262Y-34406727D01*
X106825302Y-34413005D01*
X106825302Y-34413006D01*
X106834805Y-34442254D01*
X106882276Y-34588354D01*
X106977763Y-34753742D01*
X106982181Y-34758649D01*
X106982182Y-34758650D01*
X107051144Y-34835240D01*
X107105549Y-34895663D01*
X107110891Y-34899544D01*
X107110893Y-34899546D01*
X107151150Y-34928794D01*
X107260050Y-35007914D01*
X107266078Y-35010598D01*
X107266080Y-35010599D01*
X107383905Y-35063058D01*
X107434513Y-35085590D01*
X107527913Y-35105443D01*
X107614856Y-35123924D01*
X107614861Y-35123924D01*
X107621313Y-35125296D01*
X107812287Y-35125296D01*
X107813679Y-35125000D01*
X117861500Y-35125000D01*
X117862190Y-35131565D01*
X117872373Y-35228446D01*
X117881462Y-35314927D01*
X117883502Y-35321205D01*
X117883502Y-35321206D01*
X117888767Y-35337411D01*
X117940476Y-35496554D01*
X118035963Y-35661942D01*
X118040381Y-35666849D01*
X118040382Y-35666850D01*
X118159327Y-35798952D01*
X118163749Y-35803863D01*
X118169091Y-35807744D01*
X118169093Y-35807746D01*
X118312908Y-35912233D01*
X118318250Y-35916114D01*
X118324278Y-35918798D01*
X118324280Y-35918799D01*
X118442770Y-35971554D01*
X118492713Y-35993790D01*
X118586113Y-36013643D01*
X118673056Y-36032124D01*
X118673061Y-36032124D01*
X118679513Y-36033496D01*
X118870487Y-36033496D01*
X118876939Y-36032124D01*
X118876944Y-36032124D01*
X118963887Y-36013643D01*
X119057287Y-35993790D01*
X119107230Y-35971554D01*
X119225720Y-35918799D01*
X119225722Y-35918798D01*
X119231750Y-35916114D01*
X119237092Y-35912233D01*
X119380907Y-35807746D01*
X119380909Y-35807744D01*
X119386251Y-35803863D01*
X119390673Y-35798952D01*
X119509618Y-35666850D01*
X119509619Y-35666849D01*
X119514037Y-35661942D01*
X119609524Y-35496554D01*
X119661233Y-35337411D01*
X119666498Y-35321206D01*
X119666498Y-35321205D01*
X119668538Y-35314927D01*
X119677628Y-35228446D01*
X119687810Y-35131565D01*
X119688500Y-35125000D01*
X119668538Y-34935073D01*
X119609524Y-34753446D01*
X119593898Y-34726380D01*
X119568417Y-34682246D01*
X119514037Y-34588058D01*
X119508645Y-34582069D01*
X119390673Y-34451048D01*
X119390672Y-34451047D01*
X119386251Y-34446137D01*
X119380909Y-34442256D01*
X119380907Y-34442254D01*
X119237092Y-34337767D01*
X119237091Y-34337766D01*
X119231750Y-34333886D01*
X119225722Y-34331202D01*
X119225720Y-34331201D01*
X119063318Y-34258895D01*
X119063317Y-34258895D01*
X119057287Y-34256210D01*
X118963887Y-34236357D01*
X118876944Y-34217876D01*
X118876939Y-34217876D01*
X118870487Y-34216504D01*
X118679513Y-34216504D01*
X118673061Y-34217876D01*
X118673056Y-34217876D01*
X118586113Y-34236357D01*
X118492713Y-34256210D01*
X118486683Y-34258895D01*
X118486682Y-34258895D01*
X118324280Y-34331201D01*
X118324278Y-34331202D01*
X118318250Y-34333886D01*
X118312909Y-34337766D01*
X118312908Y-34337767D01*
X118169093Y-34442254D01*
X118169091Y-34442256D01*
X118163749Y-34446137D01*
X118159328Y-34451047D01*
X118159327Y-34451048D01*
X118041356Y-34582069D01*
X118035963Y-34588058D01*
X117981583Y-34682246D01*
X117956103Y-34726380D01*
X117940476Y-34753446D01*
X117881462Y-34935073D01*
X117861500Y-35125000D01*
X107813679Y-35125000D01*
X107818739Y-35123924D01*
X107818744Y-35123924D01*
X107905687Y-35105443D01*
X107999087Y-35085590D01*
X108049695Y-35063058D01*
X108167520Y-35010599D01*
X108167522Y-35010598D01*
X108173550Y-35007914D01*
X108282450Y-34928794D01*
X108322707Y-34899546D01*
X108322709Y-34899544D01*
X108328051Y-34895663D01*
X108332473Y-34890752D01*
X108337375Y-34886338D01*
X108338501Y-34887589D01*
X108391800Y-34854751D01*
X108424994Y-34850300D01*
X109113216Y-34850300D01*
X109124120Y-34850814D01*
X109131511Y-34852466D01*
X109139437Y-34852217D01*
X109139438Y-34852217D01*
X109198466Y-34850362D01*
X109202423Y-34850300D01*
X109231178Y-34850300D01*
X109235445Y-34849761D01*
X109247287Y-34848828D01*
X109278935Y-34847833D01*
X109283560Y-34847688D01*
X109291483Y-34847439D01*
X109310934Y-34841788D01*
X109330295Y-34837778D01*
X109333020Y-34837434D01*
X109342530Y-34836233D01*
X109342533Y-34836232D01*
X109350388Y-34835240D01*
X109357753Y-34832324D01*
X109357757Y-34832323D01*
X109391501Y-34818963D01*
X109402730Y-34815118D01*
X109445178Y-34802786D01*
X109452006Y-34798748D01*
X109462611Y-34792477D01*
X109480362Y-34783781D01*
X109491826Y-34779242D01*
X109491829Y-34779240D01*
X109499200Y-34776322D01*
X109534968Y-34750335D01*
X109544891Y-34743816D01*
X109568527Y-34729838D01*
X109582941Y-34721314D01*
X109583359Y-34720945D01*
X109597442Y-34706862D01*
X109612467Y-34694028D01*
X109628683Y-34682246D01*
X109656630Y-34648464D01*
X109664619Y-34639685D01*
X110665502Y-33638802D01*
X110673590Y-33631442D01*
X110679984Y-33627384D01*
X110725859Y-33578532D01*
X110728613Y-33575691D01*
X110748927Y-33555377D01*
X110751572Y-33551966D01*
X110759278Y-33542944D01*
X110784122Y-33516488D01*
X110789546Y-33510712D01*
X110793365Y-33503766D01*
X110799307Y-33492958D01*
X110810161Y-33476434D01*
X110817714Y-33466697D01*
X110817714Y-33466696D01*
X110822572Y-33460434D01*
X110840131Y-33419858D01*
X110845352Y-33409201D01*
X110856982Y-33388046D01*
X110866651Y-33370459D01*
X110868624Y-33362775D01*
X110871688Y-33350843D01*
X110878092Y-33332139D01*
X110882988Y-33320826D01*
X110882990Y-33320819D01*
X110886137Y-33313547D01*
X110893054Y-33269876D01*
X110895461Y-33258255D01*
X110904976Y-33221193D01*
X110904976Y-33221192D01*
X110906454Y-33215436D01*
X110906489Y-33214880D01*
X110906489Y-33211641D01*
X110906538Y-33211332D01*
X110906551Y-33210919D01*
X110906603Y-33210921D01*
X110907756Y-33203642D01*
X110909359Y-33203896D01*
X110926491Y-33145548D01*
X110980147Y-33099055D01*
X110993540Y-33093841D01*
X111039460Y-33078921D01*
X111046408Y-33074511D01*
X111067549Y-33063740D01*
X111075200Y-33060711D01*
X111081611Y-33056053D01*
X111081613Y-33056052D01*
X111120631Y-33027703D01*
X111127179Y-33023254D01*
X111167896Y-32997415D01*
X111167905Y-32997408D01*
X111174595Y-32993162D01*
X111180235Y-32987156D01*
X111198022Y-32971475D01*
X111198267Y-32971297D01*
X111198269Y-32971295D01*
X111204683Y-32966635D01*
X111209733Y-32960531D01*
X111209738Y-32960526D01*
X111240481Y-32923363D01*
X111245692Y-32917451D01*
X111284157Y-32876490D01*
X111288129Y-32869266D01*
X111301450Y-32849664D01*
X111306703Y-32843314D01*
X111330619Y-32792490D01*
X111334197Y-32785468D01*
X111361262Y-32736237D01*
X111363236Y-32728551D01*
X111363313Y-32728252D01*
X111371340Y-32705955D01*
X111371474Y-32705670D01*
X111374850Y-32698496D01*
X111385375Y-32643320D01*
X111387101Y-32635598D01*
X111389006Y-32628182D01*
X111401065Y-32581214D01*
X111401100Y-32580658D01*
X111401100Y-32572796D01*
X111403332Y-32549185D01*
X111403355Y-32549065D01*
X111404840Y-32541281D01*
X111401349Y-32485794D01*
X111401100Y-32477883D01*
X111401100Y-30906119D01*
X111421102Y-30837998D01*
X111433464Y-30821809D01*
X111502218Y-30745450D01*
X111502219Y-30745449D01*
X111506637Y-30740542D01*
X111585346Y-30604214D01*
X111598820Y-30580877D01*
X111598821Y-30580876D01*
X111602124Y-30575154D01*
X111661138Y-30393527D01*
X111681100Y-30203600D01*
X111667594Y-30075098D01*
X111661828Y-30020237D01*
X111661828Y-30020236D01*
X111661138Y-30013673D01*
X111649447Y-29977690D01*
X111609975Y-29856210D01*
X111602124Y-29832046D01*
X111506637Y-29666658D01*
X111498488Y-29657607D01*
X111383273Y-29529648D01*
X111383272Y-29529647D01*
X111378851Y-29524737D01*
X111373509Y-29520856D01*
X111373507Y-29520854D01*
X111229692Y-29416367D01*
X111229691Y-29416366D01*
X111224350Y-29412486D01*
X111218322Y-29409802D01*
X111218320Y-29409801D01*
X111055918Y-29337495D01*
X111055917Y-29337495D01*
X111049887Y-29334810D01*
X110940506Y-29311560D01*
X110869544Y-29296476D01*
X110869539Y-29296476D01*
X110863087Y-29295104D01*
X110672113Y-29295104D01*
X110665661Y-29296476D01*
X110665656Y-29296476D01*
X110594694Y-29311560D01*
X110485313Y-29334810D01*
X110479283Y-29337495D01*
X110479282Y-29337495D01*
X110316880Y-29409801D01*
X110316878Y-29409802D01*
X110310850Y-29412486D01*
X110305509Y-29416366D01*
X110305508Y-29416367D01*
X110161693Y-29520854D01*
X110161691Y-29520856D01*
X110156349Y-29524737D01*
X110151928Y-29529647D01*
X110151927Y-29529648D01*
X110036713Y-29657607D01*
X110028563Y-29666658D01*
X109933076Y-29832046D01*
X109925225Y-29856210D01*
X109885754Y-29977690D01*
X109874062Y-30013673D01*
X109873372Y-30020236D01*
X109873372Y-30020237D01*
X109867606Y-30075098D01*
X109854100Y-30203600D01*
X109874062Y-30393527D01*
X109933076Y-30575154D01*
X109936379Y-30580876D01*
X109936380Y-30580877D01*
X109949854Y-30604214D01*
X110028563Y-30740542D01*
X110032981Y-30745449D01*
X110032982Y-30745450D01*
X110101736Y-30821809D01*
X110132454Y-30885816D01*
X110134100Y-30906119D01*
X110134100Y-32068987D01*
X110114098Y-32137108D01*
X110097196Y-32158082D01*
X109880469Y-32374810D01*
X109872387Y-32382164D01*
X109865994Y-32386221D01*
X109841109Y-32412721D01*
X109820121Y-32435071D01*
X109817366Y-32437913D01*
X109797051Y-32458228D01*
X109794406Y-32461639D01*
X109786702Y-32470659D01*
X109756432Y-32502893D01*
X109752615Y-32509837D01*
X109752613Y-32509839D01*
X109746671Y-32520647D01*
X109735817Y-32537171D01*
X109723406Y-32553171D01*
X109720259Y-32560442D01*
X109720259Y-32560443D01*
X109705848Y-32593745D01*
X109700627Y-32604401D01*
X109679327Y-32643146D01*
X109677355Y-32650829D01*
X109677354Y-32650830D01*
X109674290Y-32662762D01*
X109667886Y-32681466D01*
X109662990Y-32692779D01*
X109662988Y-32692786D01*
X109659841Y-32700058D01*
X109658602Y-32707882D01*
X109658601Y-32707885D01*
X109652924Y-32743729D01*
X109650517Y-32755350D01*
X109641899Y-32788920D01*
X109639524Y-32798169D01*
X109639489Y-32798725D01*
X109639489Y-32818646D01*
X109637935Y-32838374D01*
X109637526Y-32840954D01*
X109602175Y-32910321D01*
X108966101Y-33546395D01*
X108903789Y-33580421D01*
X108877006Y-33583300D01*
X108424994Y-33583300D01*
X108356873Y-33563298D01*
X108337649Y-33546958D01*
X108337375Y-33547262D01*
X108332472Y-33542847D01*
X108328051Y-33537937D01*
X108322709Y-33534056D01*
X108322707Y-33534054D01*
X108178892Y-33429567D01*
X108178891Y-33429566D01*
X108173550Y-33425686D01*
X108167522Y-33423002D01*
X108167520Y-33423001D01*
X108005118Y-33350695D01*
X108005117Y-33350695D01*
X107999087Y-33348010D01*
X107905687Y-33328157D01*
X107818744Y-33309676D01*
X107818739Y-33309676D01*
X107812287Y-33308304D01*
X107621313Y-33308304D01*
X107614861Y-33309676D01*
X107614856Y-33309676D01*
X107527913Y-33328157D01*
X107434513Y-33348010D01*
X107428483Y-33350695D01*
X107428482Y-33350695D01*
X107266080Y-33423001D01*
X107266078Y-33423002D01*
X107260050Y-33425686D01*
X107254709Y-33429566D01*
X107254708Y-33429567D01*
X107110893Y-33534054D01*
X107110891Y-33534056D01*
X107105549Y-33537937D01*
X107101128Y-33542847D01*
X107101127Y-33542848D01*
X107027065Y-33625103D01*
X106977763Y-33679858D01*
X106882276Y-33845246D01*
X106862288Y-33906763D01*
X106837515Y-33983008D01*
X106823262Y-34026873D01*
X106803300Y-34216800D01*
X89835676Y-34216800D01*
X89885124Y-34131154D01*
X89931855Y-33987331D01*
X89942098Y-33955806D01*
X89942098Y-33955805D01*
X89944138Y-33949527D01*
X89945233Y-33939114D01*
X89963410Y-33766165D01*
X89964100Y-33759600D01*
X89953362Y-33657438D01*
X89944828Y-33576237D01*
X89944828Y-33576236D01*
X89944138Y-33569673D01*
X89942098Y-33563394D01*
X89940725Y-33556936D01*
X89941913Y-33556683D01*
X89938167Y-33530363D01*
X89938184Y-33530256D01*
X89934059Y-33486617D01*
X89933500Y-33474760D01*
X89933500Y-31209400D01*
X102885517Y-31209400D01*
X102886207Y-31215965D01*
X102898524Y-31333150D01*
X102905479Y-31399327D01*
X102907519Y-31405605D01*
X102907519Y-31405606D01*
X102921626Y-31449023D01*
X102964493Y-31580954D01*
X103059980Y-31746342D01*
X103064398Y-31751249D01*
X103064399Y-31751250D01*
X103181735Y-31881565D01*
X103187766Y-31888263D01*
X103193108Y-31892144D01*
X103193110Y-31892146D01*
X103234527Y-31922237D01*
X103342267Y-32000514D01*
X103348295Y-32003198D01*
X103348297Y-32003199D01*
X103503831Y-32072447D01*
X103516730Y-32078190D01*
X103610130Y-32098043D01*
X103697073Y-32116524D01*
X103697078Y-32116524D01*
X103703530Y-32117896D01*
X103894504Y-32117896D01*
X103900956Y-32116524D01*
X103900961Y-32116524D01*
X103987904Y-32098043D01*
X104081304Y-32078190D01*
X104094203Y-32072447D01*
X104249737Y-32003199D01*
X104249739Y-32003198D01*
X104255767Y-32000514D01*
X104363507Y-31922237D01*
X104404924Y-31892146D01*
X104404926Y-31892144D01*
X104410268Y-31888263D01*
X104416299Y-31881565D01*
X104533635Y-31751250D01*
X104533636Y-31751249D01*
X104538054Y-31746342D01*
X104633541Y-31580954D01*
X104676408Y-31449023D01*
X104690515Y-31405606D01*
X104690515Y-31405605D01*
X104692555Y-31399327D01*
X104698995Y-31338058D01*
X104709920Y-31234110D01*
X104736933Y-31168454D01*
X104746135Y-31158186D01*
X105264596Y-30639725D01*
X105326908Y-30605699D01*
X105349087Y-30602963D01*
X105349561Y-30602888D01*
X105357483Y-30602639D01*
X105376934Y-30596988D01*
X105396295Y-30592978D01*
X105399020Y-30592634D01*
X105408530Y-30591433D01*
X105408533Y-30591432D01*
X105416388Y-30590440D01*
X105423753Y-30587524D01*
X105423757Y-30587523D01*
X105457501Y-30574163D01*
X105468730Y-30570318D01*
X105511178Y-30557986D01*
X105524880Y-30549883D01*
X105528611Y-30547677D01*
X105546362Y-30538981D01*
X105557826Y-30534442D01*
X105557829Y-30534440D01*
X105565200Y-30531522D01*
X105600968Y-30505535D01*
X105610891Y-30499016D01*
X105619638Y-30493843D01*
X105648941Y-30476514D01*
X105649359Y-30476145D01*
X105663442Y-30462062D01*
X105678467Y-30449228D01*
X105694683Y-30437446D01*
X105694936Y-30437140D01*
X105755296Y-30406601D01*
X105825918Y-30413887D01*
X105881390Y-30458198D01*
X105904200Y-30530502D01*
X105904200Y-31728343D01*
X105904361Y-31732850D01*
X105908940Y-31796869D01*
X105911326Y-31810091D01*
X105948019Y-31935058D01*
X105955433Y-31951292D01*
X106024626Y-32058960D01*
X106036312Y-32072447D01*
X106133040Y-32156262D01*
X106148048Y-32165907D01*
X106264475Y-32219077D01*
X106281588Y-32224102D01*
X106412754Y-32242961D01*
X106421695Y-32243600D01*
X107295085Y-32243600D01*
X107310324Y-32239125D01*
X107311529Y-32237735D01*
X107313200Y-32230052D01*
X107313200Y-31703926D01*
X107311008Y-31696462D01*
X107821200Y-31696462D01*
X107821200Y-32225485D01*
X107825675Y-32240724D01*
X107827065Y-32241929D01*
X107834748Y-32243600D01*
X108714943Y-32243600D01*
X108719450Y-32243439D01*
X108783469Y-32238860D01*
X108796691Y-32236474D01*
X108921658Y-32199781D01*
X108937892Y-32192367D01*
X109045560Y-32123174D01*
X109059047Y-32111488D01*
X109142862Y-32014760D01*
X109152507Y-31999752D01*
X109205677Y-31883325D01*
X109210702Y-31866212D01*
X109229561Y-31735046D01*
X109230200Y-31726103D01*
X109230200Y-30602715D01*
X109225725Y-30587476D01*
X109224335Y-30586271D01*
X109216652Y-30584600D01*
X108788568Y-30584600D01*
X108777543Y-30587837D01*
X108785603Y-30605486D01*
X108795708Y-30675759D01*
X108766216Y-30740341D01*
X108760085Y-30746926D01*
X108426410Y-31080600D01*
X108067200Y-31439810D01*
X107834011Y-31673000D01*
X107821200Y-31696462D01*
X107311008Y-31696462D01*
X107305670Y-31678281D01*
X106707990Y-31080600D01*
X106377063Y-30749674D01*
X106343038Y-30687362D01*
X106348103Y-30616546D01*
X106377063Y-30571484D01*
X106467573Y-30480973D01*
X106558083Y-30390463D01*
X106620395Y-30356438D01*
X106691211Y-30361502D01*
X106736274Y-30390463D01*
X106929388Y-30583577D01*
X106943332Y-30591191D01*
X106945167Y-30591060D01*
X106950182Y-30587837D01*
X108187501Y-30587837D01*
X108187604Y-30588064D01*
X108193332Y-30591191D01*
X108194624Y-30591099D01*
X108196686Y-30587323D01*
X108193412Y-30586102D01*
X108187501Y-30587837D01*
X106950182Y-30587837D01*
X106951777Y-30586812D01*
X107195179Y-30343411D01*
X107202792Y-30329468D01*
X107202661Y-30327634D01*
X107198410Y-30321021D01*
X106955008Y-30077619D01*
X106948155Y-30073877D01*
X108187714Y-30073877D01*
X108190988Y-30075098D01*
X108196899Y-30073363D01*
X108196796Y-30073136D01*
X108191068Y-30070009D01*
X108189776Y-30070101D01*
X108187714Y-30073877D01*
X106948155Y-30073877D01*
X106941070Y-30070008D01*
X106939234Y-30070140D01*
X106932622Y-30074389D01*
X106736274Y-30270737D01*
X106673962Y-30304763D01*
X106603147Y-30299698D01*
X106558084Y-30270737D01*
X106467573Y-30180226D01*
X106377064Y-30089716D01*
X106343038Y-30027404D01*
X106348103Y-29956589D01*
X106377064Y-29911525D01*
X106706859Y-29581730D01*
X107431608Y-29581730D01*
X107431739Y-29583566D01*
X107435989Y-29590179D01*
X107554392Y-29708581D01*
X107568330Y-29716192D01*
X107570166Y-29716060D01*
X107576779Y-29711811D01*
X107695181Y-29593408D01*
X107702792Y-29579470D01*
X107702661Y-29577634D01*
X107698411Y-29571021D01*
X107580008Y-29452619D01*
X107566070Y-29445008D01*
X107564234Y-29445140D01*
X107557621Y-29449389D01*
X107439219Y-29567792D01*
X107431608Y-29581730D01*
X106706859Y-29581730D01*
X107067200Y-29221390D01*
X107400803Y-28887786D01*
X107463115Y-28853761D01*
X107533931Y-28858826D01*
X107550284Y-28866295D01*
X107568331Y-28876150D01*
X107570165Y-28876018D01*
X107577074Y-28871578D01*
X107645194Y-28851576D01*
X107713315Y-28871578D01*
X107734290Y-28888481D01*
X108067199Y-29221390D01*
X108761188Y-29915378D01*
X108795214Y-29977690D01*
X108790149Y-30048505D01*
X108782679Y-30064861D01*
X108777756Y-30073877D01*
X108785057Y-30076600D01*
X109212085Y-30076600D01*
X109227324Y-30072125D01*
X109228529Y-30070735D01*
X109230200Y-30063052D01*
X109230200Y-28932857D01*
X109230039Y-28928347D01*
X109228126Y-28901598D01*
X109243218Y-28832224D01*
X109279744Y-28790674D01*
X109366906Y-28727346D01*
X109372251Y-28723463D01*
X109500037Y-28581542D01*
X109562864Y-28472723D01*
X109592220Y-28421877D01*
X109592221Y-28421876D01*
X109595524Y-28416154D01*
X109654538Y-28234527D01*
X109659488Y-28187436D01*
X109673810Y-28051165D01*
X109674500Y-28044600D01*
X109668120Y-27983895D01*
X109655228Y-27861237D01*
X109655228Y-27861236D01*
X109654538Y-27854673D01*
X109625586Y-27765566D01*
X109597566Y-27679331D01*
X109595524Y-27673046D01*
X109500037Y-27507658D01*
X109429284Y-27429078D01*
X109376673Y-27370648D01*
X109376672Y-27370647D01*
X109372251Y-27365737D01*
X109366909Y-27361856D01*
X109366907Y-27361854D01*
X109223092Y-27257367D01*
X109223091Y-27257366D01*
X109217750Y-27253486D01*
X109211722Y-27250802D01*
X109211720Y-27250801D01*
X109049318Y-27178495D01*
X109049317Y-27178495D01*
X109043287Y-27175810D01*
X108949887Y-27155957D01*
X108862944Y-27137476D01*
X108862939Y-27137476D01*
X108856487Y-27136104D01*
X108665513Y-27136104D01*
X108659061Y-27137476D01*
X108659056Y-27137476D01*
X108572113Y-27155957D01*
X108478713Y-27175810D01*
X108472683Y-27178495D01*
X108472682Y-27178495D01*
X108310280Y-27250801D01*
X108310278Y-27250802D01*
X108304250Y-27253486D01*
X108298909Y-27257366D01*
X108298908Y-27257367D01*
X108155093Y-27361854D01*
X108155091Y-27361856D01*
X108149749Y-27365737D01*
X108145328Y-27370647D01*
X108140425Y-27375062D01*
X108139299Y-27373811D01*
X108086000Y-27406649D01*
X108052806Y-27411100D01*
X107263383Y-27411100D01*
X107252479Y-27410586D01*
X107245088Y-27408934D01*
X107237162Y-27409183D01*
X107237161Y-27409183D01*
X107178134Y-27411038D01*
X107174176Y-27411100D01*
X107145422Y-27411100D01*
X107141155Y-27411639D01*
X107129313Y-27412572D01*
X107097665Y-27413567D01*
X107093040Y-27413712D01*
X107085117Y-27413961D01*
X107065667Y-27419612D01*
X107046305Y-27423622D01*
X107026212Y-27426160D01*
X106992349Y-27439567D01*
X106985108Y-27442434D01*
X106973878Y-27446279D01*
X106939034Y-27456402D01*
X106939032Y-27456403D01*
X106931421Y-27458614D01*
X106916067Y-27467694D01*
X106913989Y-27468923D01*
X106896236Y-27477620D01*
X106877400Y-27485078D01*
X106870985Y-27489739D01*
X106841626Y-27511069D01*
X106831707Y-27517584D01*
X106798758Y-27537071D01*
X106798755Y-27537073D01*
X106793659Y-27540087D01*
X106793241Y-27540455D01*
X106779158Y-27554538D01*
X106764133Y-27567372D01*
X106747917Y-27579154D01*
X106734911Y-27594876D01*
X106719971Y-27612935D01*
X106711981Y-27621715D01*
X106430020Y-27903676D01*
X106367708Y-27937702D01*
X106296893Y-27932637D01*
X106289677Y-27929688D01*
X106140302Y-27863182D01*
X106140294Y-27863179D01*
X106134267Y-27860496D01*
X106040867Y-27840643D01*
X105953924Y-27822162D01*
X105953919Y-27822162D01*
X105947467Y-27820790D01*
X105756493Y-27820790D01*
X105750041Y-27822162D01*
X105750036Y-27822162D01*
X105663093Y-27840643D01*
X105569693Y-27860496D01*
X105563663Y-27863181D01*
X105563662Y-27863181D01*
X105401260Y-27935487D01*
X105401258Y-27935488D01*
X105395230Y-27938172D01*
X105389889Y-27942052D01*
X105389888Y-27942053D01*
X105246073Y-28046540D01*
X105246071Y-28046542D01*
X105240729Y-28050423D01*
X105236308Y-28055333D01*
X105236307Y-28055334D01*
X105194040Y-28102277D01*
X105112943Y-28192344D01*
X105017456Y-28357732D01*
X104958442Y-28539359D01*
X104957752Y-28545922D01*
X104957752Y-28545923D01*
X104945065Y-28666637D01*
X104938480Y-28729286D01*
X104958442Y-28919213D01*
X104960482Y-28925491D01*
X104960482Y-28925492D01*
X104991630Y-29021354D01*
X105017456Y-29100840D01*
X105020759Y-29106562D01*
X105020760Y-29106563D01*
X105047139Y-29152252D01*
X105063877Y-29221247D01*
X105040657Y-29288339D01*
X104984850Y-29332226D01*
X104952160Y-29339061D01*
X104952288Y-29339872D01*
X104944460Y-29341112D01*
X104936534Y-29341361D01*
X104928917Y-29343574D01*
X104917078Y-29347013D01*
X104897719Y-29351022D01*
X104885496Y-29352566D01*
X104885495Y-29352566D01*
X104877629Y-29353560D01*
X104870253Y-29356480D01*
X104870254Y-29356480D01*
X104836528Y-29369832D01*
X104825299Y-29373677D01*
X104790452Y-29383801D01*
X104790451Y-29383802D01*
X104782839Y-29386013D01*
X104776016Y-29390048D01*
X104765400Y-29396326D01*
X104747648Y-29405022D01*
X104728817Y-29412478D01*
X104719151Y-29419501D01*
X104693046Y-29438467D01*
X104683128Y-29444982D01*
X104645076Y-29467486D01*
X104644658Y-29467855D01*
X104630575Y-29481938D01*
X104615550Y-29494772D01*
X104599334Y-29506554D01*
X104580229Y-29529648D01*
X104571388Y-29540335D01*
X104563398Y-29549115D01*
X103848514Y-30263999D01*
X103786202Y-30298025D01*
X103759419Y-30300904D01*
X103703530Y-30300904D01*
X103697078Y-30302276D01*
X103697073Y-30302276D01*
X103610130Y-30320757D01*
X103516730Y-30340610D01*
X103510700Y-30343295D01*
X103510699Y-30343295D01*
X103348297Y-30415601D01*
X103348295Y-30415602D01*
X103342267Y-30418286D01*
X103336926Y-30422166D01*
X103336925Y-30422167D01*
X103193110Y-30526654D01*
X103193108Y-30526656D01*
X103187766Y-30530537D01*
X103183345Y-30535447D01*
X103183344Y-30535448D01*
X103074684Y-30656128D01*
X103059980Y-30672458D01*
X103023973Y-30734824D01*
X102987397Y-30798176D01*
X102964493Y-30837846D01*
X102905479Y-31019473D01*
X102904789Y-31026036D01*
X102904789Y-31026037D01*
X102896776Y-31102277D01*
X102885517Y-31209400D01*
X89933500Y-31209400D01*
X89933500Y-29608050D01*
X89953502Y-29539929D01*
X89965864Y-29523740D01*
X90084618Y-29391850D01*
X90084619Y-29391849D01*
X90089037Y-29386942D01*
X90172818Y-29241830D01*
X90181220Y-29227277D01*
X90181221Y-29227276D01*
X90184524Y-29221554D01*
X90227711Y-29088638D01*
X90241498Y-29046206D01*
X90241498Y-29046205D01*
X90243538Y-29039927D01*
X90248355Y-28994101D01*
X90262810Y-28856565D01*
X90263500Y-28850000D01*
X90261999Y-28835714D01*
X90244228Y-28666637D01*
X90244228Y-28666636D01*
X90243538Y-28660073D01*
X90184524Y-28478446D01*
X90089037Y-28313058D01*
X89961251Y-28171137D01*
X89955909Y-28167256D01*
X89955907Y-28167254D01*
X89812092Y-28062767D01*
X89812091Y-28062766D01*
X89806750Y-28058886D01*
X89800722Y-28056202D01*
X89800720Y-28056201D01*
X89638318Y-27983895D01*
X89638317Y-27983895D01*
X89632287Y-27981210D01*
X89538887Y-27961357D01*
X89451944Y-27942876D01*
X89451939Y-27942876D01*
X89445487Y-27941504D01*
X89254513Y-27941504D01*
X89248061Y-27942876D01*
X89248056Y-27942876D01*
X89161113Y-27961357D01*
X89067713Y-27981210D01*
X89061683Y-27983895D01*
X89061682Y-27983895D01*
X88899280Y-28056201D01*
X88899278Y-28056202D01*
X88893250Y-28058886D01*
X88887909Y-28062766D01*
X88887908Y-28062767D01*
X88744093Y-28167254D01*
X88744091Y-28167256D01*
X88738749Y-28171137D01*
X88610963Y-28313058D01*
X88515476Y-28478446D01*
X88456462Y-28660073D01*
X88455772Y-28666636D01*
X88455772Y-28666637D01*
X88438002Y-28835714D01*
X88436500Y-28850000D01*
X88437190Y-28856565D01*
X88451646Y-28994101D01*
X88456462Y-29039927D01*
X88458502Y-29046205D01*
X88458502Y-29046206D01*
X88472289Y-29088638D01*
X88515476Y-29221554D01*
X88518779Y-29227276D01*
X88518780Y-29227277D01*
X88582415Y-29337495D01*
X88610963Y-29386942D01*
X88615381Y-29391849D01*
X88615382Y-29391850D01*
X88634136Y-29412678D01*
X88664853Y-29476686D01*
X88666500Y-29496989D01*
X88666500Y-32854592D01*
X88646498Y-32922713D01*
X88603502Y-32963710D01*
X88599880Y-32965801D01*
X88593850Y-32968486D01*
X88588509Y-32972366D01*
X88588508Y-32972367D01*
X88444693Y-33076854D01*
X88444691Y-33076856D01*
X88439349Y-33080737D01*
X88434928Y-33085647D01*
X88434927Y-33085648D01*
X88345433Y-33185042D01*
X88311563Y-33222658D01*
X88216076Y-33388046D01*
X88203846Y-33425686D01*
X88164443Y-33546958D01*
X88157062Y-33569673D01*
X88156372Y-33576236D01*
X88156372Y-33576237D01*
X88147838Y-33657438D01*
X88137100Y-33759600D01*
X79808500Y-33759600D01*
X79808500Y-32704239D01*
X79828502Y-32636118D01*
X79845405Y-32615144D01*
X80915148Y-31545401D01*
X80977460Y-31511375D01*
X81004243Y-31508496D01*
X81095487Y-31508496D01*
X81101939Y-31507124D01*
X81101944Y-31507124D01*
X81192119Y-31487956D01*
X81282287Y-31468790D01*
X81319778Y-31452098D01*
X81450720Y-31393799D01*
X81450722Y-31393798D01*
X81456750Y-31391114D01*
X81476150Y-31377019D01*
X81605907Y-31282746D01*
X81605909Y-31282744D01*
X81611251Y-31278863D01*
X81739037Y-31136942D01*
X81814515Y-31006210D01*
X81831220Y-30977277D01*
X81831221Y-30977276D01*
X81834524Y-30971554D01*
X81864054Y-30880670D01*
X81891498Y-30796206D01*
X81891498Y-30796205D01*
X81893538Y-30789927D01*
X81896262Y-30764015D01*
X81912810Y-30606565D01*
X81913500Y-30600000D01*
X81898872Y-30460823D01*
X81894228Y-30416637D01*
X81894228Y-30416636D01*
X81893538Y-30410073D01*
X81884897Y-30383477D01*
X81836566Y-30234731D01*
X81834524Y-30228446D01*
X81823970Y-30210165D01*
X81745283Y-30073877D01*
X81739037Y-30063058D01*
X81725934Y-30048505D01*
X81615673Y-29926048D01*
X81615672Y-29926047D01*
X81611251Y-29921137D01*
X81605909Y-29917256D01*
X81605907Y-29917254D01*
X81462092Y-29812767D01*
X81462091Y-29812766D01*
X81456750Y-29808886D01*
X81450722Y-29806202D01*
X81450720Y-29806201D01*
X81288318Y-29733895D01*
X81288317Y-29733895D01*
X81282287Y-29731210D01*
X81175827Y-29708581D01*
X81101944Y-29692876D01*
X81101939Y-29692876D01*
X81095487Y-29691504D01*
X80904513Y-29691504D01*
X80898061Y-29692876D01*
X80898056Y-29692876D01*
X80824173Y-29708581D01*
X80717713Y-29731210D01*
X80711683Y-29733895D01*
X80711682Y-29733895D01*
X80549280Y-29806201D01*
X80549278Y-29806202D01*
X80543250Y-29808886D01*
X80537909Y-29812766D01*
X80537908Y-29812767D01*
X80394093Y-29917254D01*
X80394091Y-29917256D01*
X80388749Y-29921137D01*
X80384328Y-29926047D01*
X80384327Y-29926048D01*
X80274067Y-30048505D01*
X80260963Y-30063058D01*
X80254717Y-30073877D01*
X80176031Y-30210165D01*
X80165476Y-30228446D01*
X80163434Y-30234731D01*
X80115104Y-30383477D01*
X80106462Y-30410073D01*
X80105772Y-30416636D01*
X80105772Y-30416637D01*
X80101128Y-30460823D01*
X80086500Y-30600000D01*
X80086687Y-30601783D01*
X80067188Y-30668192D01*
X80050285Y-30689166D01*
X78802422Y-31937029D01*
X78790031Y-31947896D01*
X78766190Y-31966190D01*
X78668693Y-32093250D01*
X78657125Y-32121178D01*
X78646971Y-32145692D01*
X78612028Y-32230052D01*
X78607404Y-32241214D01*
X78606326Y-32249402D01*
X78602150Y-32281124D01*
X78586500Y-32400000D01*
X78587578Y-32408188D01*
X78587578Y-32408189D01*
X78590422Y-32429792D01*
X78591500Y-32446238D01*
X78591500Y-36569716D01*
X78571498Y-36637837D01*
X78559143Y-36654018D01*
X78460963Y-36763058D01*
X78457662Y-36768776D01*
X78374874Y-36912169D01*
X78365476Y-36928446D01*
X78306462Y-37110073D01*
X78305772Y-37116636D01*
X78305772Y-37116637D01*
X78292124Y-37246491D01*
X78286500Y-37300000D01*
X70508000Y-37300000D01*
X70508000Y-29366548D01*
X70528002Y-29298427D01*
X70581658Y-29251934D01*
X70651932Y-29241830D01*
X70716512Y-29271324D01*
X70732197Y-29287596D01*
X70779518Y-29346451D01*
X70788096Y-29355210D01*
X70933846Y-29477509D01*
X70943960Y-29484434D01*
X71110693Y-29576096D01*
X71121957Y-29580924D01*
X71303318Y-29638455D01*
X71315307Y-29641003D01*
X71463332Y-29657607D01*
X71470356Y-29658000D01*
X71677885Y-29658000D01*
X71693124Y-29653525D01*
X71694329Y-29652135D01*
X71696000Y-29644452D01*
X71696000Y-28892548D01*
X72204000Y-28892548D01*
X72204000Y-29639885D01*
X72208475Y-29655124D01*
X72209865Y-29656329D01*
X72217548Y-29658000D01*
X72422911Y-29658000D01*
X72429056Y-29657700D01*
X72570481Y-29643832D01*
X72582519Y-29641449D01*
X72764651Y-29586460D01*
X72775992Y-29581786D01*
X72943974Y-29492468D01*
X72954199Y-29485674D01*
X73101642Y-29365423D01*
X73110331Y-29356794D01*
X73231616Y-29210186D01*
X73238470Y-29200025D01*
X73328964Y-29032659D01*
X73333716Y-29021354D01*
X73372424Y-28896308D01*
X73372630Y-28882205D01*
X73365875Y-28879000D01*
X72222115Y-28879000D01*
X72206876Y-28883475D01*
X72205671Y-28884865D01*
X72204000Y-28892548D01*
X71696000Y-28892548D01*
X71696000Y-27610115D01*
X71694659Y-27605548D01*
X72204000Y-27605548D01*
X72204000Y-28352885D01*
X72208475Y-28368124D01*
X72209865Y-28369329D01*
X72217548Y-28371000D01*
X73358988Y-28371000D01*
X73372519Y-28367027D01*
X73373639Y-28359232D01*
X73339157Y-28242071D01*
X73334562Y-28230696D01*
X73246413Y-28062085D01*
X73239702Y-28051829D01*
X73120482Y-27903549D01*
X73111904Y-27894790D01*
X72966154Y-27772491D01*
X72956040Y-27765566D01*
X72789307Y-27673904D01*
X72778043Y-27669076D01*
X72596682Y-27611545D01*
X72584693Y-27608997D01*
X72436668Y-27592393D01*
X72429644Y-27592000D01*
X72222115Y-27592000D01*
X72206876Y-27596475D01*
X72205671Y-27597865D01*
X72204000Y-27605548D01*
X71694659Y-27605548D01*
X71691525Y-27594876D01*
X71690135Y-27593671D01*
X71682452Y-27592000D01*
X71477089Y-27592000D01*
X71470944Y-27592300D01*
X71329519Y-27606168D01*
X71317481Y-27608551D01*
X71135349Y-27663540D01*
X71124008Y-27668214D01*
X70956026Y-27757532D01*
X70945801Y-27764326D01*
X70798358Y-27884577D01*
X70789663Y-27893211D01*
X70731084Y-27964021D01*
X70672251Y-28003759D01*
X70601273Y-28005380D01*
X70540685Y-27968371D01*
X70509725Y-27904481D01*
X70508000Y-27883705D01*
X70508000Y-25515000D01*
X76055235Y-25515000D01*
X76091052Y-25625234D01*
X76096398Y-25637242D01*
X76187841Y-25795625D01*
X76195561Y-25806251D01*
X76317933Y-25942159D01*
X76327699Y-25950953D01*
X76475658Y-26058451D01*
X76487030Y-26065017D01*
X76654114Y-26139407D01*
X76666600Y-26143464D01*
X76678278Y-26145946D01*
X76692341Y-26144873D01*
X76696000Y-26134917D01*
X76696000Y-25522115D01*
X76694659Y-25517548D01*
X77204000Y-25517548D01*
X77204000Y-26131598D01*
X77207973Y-26145129D01*
X77218468Y-26146638D01*
X77233400Y-26143464D01*
X77245886Y-26139407D01*
X77412970Y-26065017D01*
X77424342Y-26058451D01*
X77572301Y-25950953D01*
X77582067Y-25942159D01*
X77704439Y-25806251D01*
X77712159Y-25795625D01*
X77715638Y-25789600D01*
X83996900Y-25789600D01*
X84016862Y-25979527D01*
X84075876Y-26161154D01*
X84171363Y-26326542D01*
X84299149Y-26468463D01*
X84304491Y-26472344D01*
X84304493Y-26472346D01*
X84439561Y-26570478D01*
X84482915Y-26626700D01*
X84491500Y-26672414D01*
X84491500Y-30371616D01*
X84490986Y-30382520D01*
X84489334Y-30389911D01*
X84489583Y-30397837D01*
X84489583Y-30397838D01*
X84491438Y-30456866D01*
X84491500Y-30460823D01*
X84491500Y-30489578D01*
X84491996Y-30493503D01*
X84491996Y-30493504D01*
X84492039Y-30493843D01*
X84492972Y-30505687D01*
X84494361Y-30549883D01*
X84497358Y-30560197D01*
X84500012Y-30569333D01*
X84504022Y-30588696D01*
X84505504Y-30600427D01*
X84506560Y-30608788D01*
X84509476Y-30616153D01*
X84509477Y-30616157D01*
X84522837Y-30649901D01*
X84526681Y-30661128D01*
X84539014Y-30703578D01*
X84543052Y-30710406D01*
X84549323Y-30721011D01*
X84558019Y-30738762D01*
X84562558Y-30750226D01*
X84565478Y-30757600D01*
X84570139Y-30764015D01*
X84591465Y-30793367D01*
X84597983Y-30803290D01*
X84620486Y-30841341D01*
X84620855Y-30841759D01*
X84623166Y-30844070D01*
X84634943Y-30855848D01*
X84647777Y-30870875D01*
X84659554Y-30887083D01*
X84693340Y-30915033D01*
X84702111Y-30923015D01*
X85602883Y-31823788D01*
X85636908Y-31886100D01*
X85639097Y-31899712D01*
X85645556Y-31961164D01*
X85656462Y-32064927D01*
X85658502Y-32071205D01*
X85658502Y-32071206D01*
X85679915Y-32137108D01*
X85715476Y-32246554D01*
X85810963Y-32411942D01*
X85815381Y-32416849D01*
X85815382Y-32416850D01*
X85908841Y-32520647D01*
X85938749Y-32553863D01*
X85944091Y-32557744D01*
X85944093Y-32557746D01*
X86061637Y-32643146D01*
X86093250Y-32666114D01*
X86099278Y-32668798D01*
X86099280Y-32668799D01*
X86261682Y-32741105D01*
X86267713Y-32743790D01*
X86361113Y-32763643D01*
X86448056Y-32782124D01*
X86448061Y-32782124D01*
X86454513Y-32783496D01*
X86645487Y-32783496D01*
X86651939Y-32782124D01*
X86651944Y-32782124D01*
X86738887Y-32763643D01*
X86832287Y-32743790D01*
X86838318Y-32741105D01*
X87000720Y-32668799D01*
X87000722Y-32668798D01*
X87006750Y-32666114D01*
X87038363Y-32643146D01*
X87155907Y-32557746D01*
X87155909Y-32557744D01*
X87161251Y-32553863D01*
X87191159Y-32520647D01*
X87284618Y-32416850D01*
X87284619Y-32416849D01*
X87289037Y-32411942D01*
X87384524Y-32246554D01*
X87420085Y-32137108D01*
X87441498Y-32071206D01*
X87441498Y-32071205D01*
X87443538Y-32064927D01*
X87463500Y-31875000D01*
X87450595Y-31752215D01*
X87444228Y-31691637D01*
X87444228Y-31691636D01*
X87443538Y-31685073D01*
X87431925Y-31649330D01*
X87386566Y-31509731D01*
X87384524Y-31503446D01*
X87365308Y-31470162D01*
X87317428Y-31387233D01*
X87289037Y-31338058D01*
X87161251Y-31196137D01*
X87155909Y-31192256D01*
X87155907Y-31192254D01*
X87012092Y-31087767D01*
X87012091Y-31087766D01*
X87006750Y-31083886D01*
X87000722Y-31081202D01*
X87000720Y-31081201D01*
X86838318Y-31008895D01*
X86838317Y-31008895D01*
X86832287Y-31006210D01*
X86738887Y-30986357D01*
X86651944Y-30967876D01*
X86651939Y-30967876D01*
X86645487Y-30966504D01*
X86589598Y-30966504D01*
X86521477Y-30946502D01*
X86500503Y-30929599D01*
X85795405Y-30224501D01*
X85761379Y-30162189D01*
X85758500Y-30135406D01*
X85758500Y-26139327D01*
X85764667Y-26100391D01*
X85801898Y-25985806D01*
X85801898Y-25985805D01*
X85803938Y-25979527D01*
X85823900Y-25789600D01*
X85803938Y-25599673D01*
X85744924Y-25418046D01*
X85649437Y-25252658D01*
X85521651Y-25110737D01*
X85516309Y-25106856D01*
X85516307Y-25106854D01*
X85372492Y-25002367D01*
X85372491Y-25002366D01*
X85367150Y-24998486D01*
X85361122Y-24995802D01*
X85361120Y-24995801D01*
X85198718Y-24923495D01*
X85198717Y-24923495D01*
X85192687Y-24920810D01*
X85099287Y-24900957D01*
X85012344Y-24882476D01*
X85012339Y-24882476D01*
X85005887Y-24881104D01*
X84814913Y-24881104D01*
X84808461Y-24882476D01*
X84808456Y-24882476D01*
X84721513Y-24900957D01*
X84628113Y-24920810D01*
X84622083Y-24923495D01*
X84622082Y-24923495D01*
X84459680Y-24995801D01*
X84459678Y-24995802D01*
X84453650Y-24998486D01*
X84448309Y-25002366D01*
X84448308Y-25002367D01*
X84304493Y-25106854D01*
X84304491Y-25106856D01*
X84299149Y-25110737D01*
X84171363Y-25252658D01*
X84075876Y-25418046D01*
X84016862Y-25599673D01*
X83996900Y-25789600D01*
X77715638Y-25789600D01*
X77803602Y-25637242D01*
X77808948Y-25625234D01*
X77842740Y-25521232D01*
X77843143Y-25507133D01*
X77836771Y-25504000D01*
X77222115Y-25504000D01*
X77206876Y-25508475D01*
X77205671Y-25509865D01*
X77204000Y-25517548D01*
X76694659Y-25517548D01*
X76691525Y-25506876D01*
X76690135Y-25505671D01*
X76682452Y-25504000D01*
X76069776Y-25504000D01*
X76056245Y-25507973D01*
X76055235Y-25515000D01*
X70508000Y-25515000D01*
X70508000Y-23825000D01*
X76011500Y-23825000D01*
X76011500Y-24675000D01*
X76016727Y-24748079D01*
X76018631Y-24754562D01*
X76057904Y-24888316D01*
X76056360Y-24888769D01*
X76065012Y-24948938D01*
X76060127Y-24969946D01*
X76057260Y-24978771D01*
X76056857Y-24992867D01*
X76063229Y-24996000D01*
X76072304Y-24996000D01*
X76140425Y-25016002D01*
X76154814Y-25026774D01*
X76247381Y-25106984D01*
X76380330Y-25167700D01*
X76389245Y-25168982D01*
X76389246Y-25168982D01*
X76520552Y-25187861D01*
X76520559Y-25187862D01*
X76525000Y-25188500D01*
X77375000Y-25188500D01*
X77448079Y-25183273D01*
X77526165Y-25160345D01*
X77579670Y-25144635D01*
X77579672Y-25144634D01*
X77588316Y-25142096D01*
X77652135Y-25101082D01*
X77703691Y-25067949D01*
X77703694Y-25067947D01*
X77711271Y-25063077D01*
X77731712Y-25039487D01*
X77791438Y-25001104D01*
X77826936Y-24996000D01*
X77830224Y-24996000D01*
X77843755Y-24992027D01*
X77844765Y-24985001D01*
X77838071Y-24964399D01*
X77836044Y-24893431D01*
X77843290Y-24873121D01*
X77863958Y-24827865D01*
X77863959Y-24827862D01*
X77867700Y-24819670D01*
X77878962Y-24741340D01*
X77887861Y-24679448D01*
X77887862Y-24679441D01*
X77888500Y-24675000D01*
X77888500Y-23825000D01*
X77883273Y-23751921D01*
X77842096Y-23611684D01*
X77796393Y-23540569D01*
X77767949Y-23496309D01*
X77767947Y-23496306D01*
X77763077Y-23488729D01*
X77756267Y-23482828D01*
X77659431Y-23398918D01*
X77659428Y-23398916D01*
X77652619Y-23393016D01*
X77519670Y-23332300D01*
X77510755Y-23331018D01*
X77510754Y-23331018D01*
X77379448Y-23312139D01*
X77379441Y-23312138D01*
X77375000Y-23311500D01*
X76525000Y-23311500D01*
X76451921Y-23316727D01*
X76398884Y-23332300D01*
X76320330Y-23355365D01*
X76320328Y-23355366D01*
X76311684Y-23357904D01*
X76304105Y-23362775D01*
X76196309Y-23432051D01*
X76196306Y-23432053D01*
X76188729Y-23436923D01*
X76182828Y-23443733D01*
X76098918Y-23540569D01*
X76098916Y-23540572D01*
X76093016Y-23547381D01*
X76032300Y-23680330D01*
X76031018Y-23689245D01*
X76031018Y-23689246D01*
X76012139Y-23820552D01*
X76012138Y-23820559D01*
X76011500Y-23825000D01*
X70508000Y-23825000D01*
X70508000Y-22216548D01*
X70528002Y-22148427D01*
X70581658Y-22101934D01*
X70651932Y-22091830D01*
X70716512Y-22121324D01*
X70732197Y-22137596D01*
X70779518Y-22196451D01*
X70788096Y-22205210D01*
X70933846Y-22327509D01*
X70943960Y-22334434D01*
X71110693Y-22426096D01*
X71121957Y-22430924D01*
X71303318Y-22488455D01*
X71315307Y-22491003D01*
X71463332Y-22507607D01*
X71470356Y-22508000D01*
X71677885Y-22508000D01*
X71693124Y-22503525D01*
X71694329Y-22502135D01*
X71696000Y-22494452D01*
X71696000Y-21742548D01*
X72204000Y-21742548D01*
X72204000Y-22489885D01*
X72208475Y-22505124D01*
X72209865Y-22506329D01*
X72217548Y-22508000D01*
X72422911Y-22508000D01*
X72429056Y-22507700D01*
X72570481Y-22493832D01*
X72582519Y-22491449D01*
X72764651Y-22436460D01*
X72775992Y-22431786D01*
X72943974Y-22342468D01*
X72954199Y-22335674D01*
X73101642Y-22215423D01*
X73110331Y-22206794D01*
X73231616Y-22060186D01*
X73238470Y-22050025D01*
X73328964Y-21882659D01*
X73333716Y-21871354D01*
X73372424Y-21746308D01*
X73372630Y-21732205D01*
X73365875Y-21729000D01*
X72222115Y-21729000D01*
X72206876Y-21733475D01*
X72205671Y-21734865D01*
X72204000Y-21742548D01*
X71696000Y-21742548D01*
X71696000Y-20460115D01*
X71694659Y-20455548D01*
X72204000Y-20455548D01*
X72204000Y-21202885D01*
X72208475Y-21218124D01*
X72209865Y-21219329D01*
X72217548Y-21221000D01*
X73358988Y-21221000D01*
X73372519Y-21217027D01*
X73373639Y-21209232D01*
X73339157Y-21092071D01*
X73334562Y-21080696D01*
X73246413Y-20912085D01*
X73239702Y-20901829D01*
X73120482Y-20753549D01*
X73111904Y-20744790D01*
X72966154Y-20622491D01*
X72956040Y-20615566D01*
X72789307Y-20523904D01*
X72778043Y-20519076D01*
X72596682Y-20461545D01*
X72584693Y-20458997D01*
X72436668Y-20442393D01*
X72429644Y-20442000D01*
X72222115Y-20442000D01*
X72206876Y-20446475D01*
X72205671Y-20447865D01*
X72204000Y-20455548D01*
X71694659Y-20455548D01*
X71691525Y-20444876D01*
X71690135Y-20443671D01*
X71682452Y-20442000D01*
X71477089Y-20442000D01*
X71470944Y-20442300D01*
X71329519Y-20456168D01*
X71317481Y-20458551D01*
X71135349Y-20513540D01*
X71124008Y-20518214D01*
X70956026Y-20607532D01*
X70945801Y-20614326D01*
X70798358Y-20734577D01*
X70789663Y-20743211D01*
X70731084Y-20814021D01*
X70672251Y-20853759D01*
X70601273Y-20855380D01*
X70540685Y-20818371D01*
X70509725Y-20754481D01*
X70508000Y-20733705D01*
X70508000Y-18433745D01*
X70528002Y-18365624D01*
X70581658Y-18319131D01*
X70651932Y-18309027D01*
X70716512Y-18338521D01*
X70738582Y-18363469D01*
X70913789Y-18624205D01*
X71148114Y-18902474D01*
X71411121Y-19153809D01*
X71699733Y-19375269D01*
X71744338Y-19402389D01*
X72007661Y-19562492D01*
X72007666Y-19562495D01*
X72010576Y-19564264D01*
X72013664Y-19565710D01*
X72013663Y-19565710D01*
X72336927Y-19717139D01*
X72336937Y-19717143D01*
X72340011Y-19718583D01*
X72343229Y-19719685D01*
X72343232Y-19719686D01*
X72680962Y-19835317D01*
X72680970Y-19835319D01*
X72684185Y-19836420D01*
X73039073Y-19916398D01*
X73092112Y-19922441D01*
X73397140Y-19957195D01*
X73397148Y-19957195D01*
X73400523Y-19957580D01*
X73403927Y-19957598D01*
X73403930Y-19957598D01*
X73600796Y-19958628D01*
X73764306Y-19959484D01*
X73767691Y-19959134D01*
X73767695Y-19959134D01*
X74122775Y-19922441D01*
X74122784Y-19922440D01*
X74126167Y-19922090D01*
X74129500Y-19921376D01*
X74129503Y-19921375D01*
X74304688Y-19883818D01*
X74481873Y-19845833D01*
X74827263Y-19731606D01*
X75158296Y-19580746D01*
X75161233Y-19579002D01*
X75161239Y-19578999D01*
X75468166Y-19396758D01*
X75471100Y-19395016D01*
X75762016Y-19176590D01*
X76027641Y-18928024D01*
X76029853Y-18925452D01*
X76029860Y-18925445D01*
X76262640Y-18654811D01*
X76264866Y-18652223D01*
X76417133Y-18430674D01*
X76468988Y-18355225D01*
X76468993Y-18355218D01*
X76470918Y-18352416D01*
X76472530Y-18349422D01*
X76472535Y-18349414D01*
X76484885Y-18326478D01*
X89191500Y-18326478D01*
X89191500Y-19925386D01*
X89206978Y-20058143D01*
X89267313Y-20224364D01*
X89364269Y-20372247D01*
X89492645Y-20493858D01*
X89645555Y-20582675D01*
X89814796Y-20633933D01*
X89821236Y-20634508D01*
X89821237Y-20634508D01*
X89891185Y-20640751D01*
X89891191Y-20640751D01*
X89893978Y-20641000D01*
X90570076Y-20641000D01*
X90638197Y-20661002D01*
X90684690Y-20714658D01*
X90694794Y-20784932D01*
X90665300Y-20849512D01*
X90638197Y-20872998D01*
X90546309Y-20932051D01*
X90546306Y-20932053D01*
X90538729Y-20936923D01*
X90532828Y-20943733D01*
X90448918Y-21040569D01*
X90448916Y-21040572D01*
X90443016Y-21047381D01*
X90382300Y-21180330D01*
X90381018Y-21189245D01*
X90381018Y-21189246D01*
X90362139Y-21320552D01*
X90362138Y-21320559D01*
X90361500Y-21325000D01*
X90361500Y-22175000D01*
X90366727Y-22248079D01*
X90407904Y-22388316D01*
X90412775Y-22395895D01*
X90482051Y-22503691D01*
X90482053Y-22503694D01*
X90486923Y-22511271D01*
X90493733Y-22517172D01*
X90590569Y-22601082D01*
X90590572Y-22601084D01*
X90597381Y-22606984D01*
X90605579Y-22610728D01*
X90682696Y-22645946D01*
X90730330Y-22667700D01*
X90739245Y-22668982D01*
X90739246Y-22668982D01*
X90870552Y-22687861D01*
X90870559Y-22687862D01*
X90875000Y-22688500D01*
X91725000Y-22688500D01*
X91798079Y-22683273D01*
X91938316Y-22642096D01*
X91939297Y-22645436D01*
X91992961Y-22637722D01*
X92013958Y-22642605D01*
X92016603Y-22643464D01*
X92028278Y-22645946D01*
X92042341Y-22644873D01*
X92046000Y-22634917D01*
X92046000Y-22627696D01*
X92066002Y-22559575D01*
X92076776Y-22545183D01*
X92109256Y-22507700D01*
X92156984Y-22452619D01*
X92190299Y-22379670D01*
X92213958Y-22327864D01*
X92213958Y-22327863D01*
X92217700Y-22319670D01*
X92228962Y-22241340D01*
X92237861Y-22179448D01*
X92237862Y-22179441D01*
X92238500Y-22175000D01*
X92238500Y-22017548D01*
X92554000Y-22017548D01*
X92554000Y-22631598D01*
X92557973Y-22645129D01*
X92568468Y-22646638D01*
X92583400Y-22643464D01*
X92595886Y-22639407D01*
X92762970Y-22565017D01*
X92774342Y-22558451D01*
X92922301Y-22450953D01*
X92932067Y-22442159D01*
X93054439Y-22306251D01*
X93062159Y-22295625D01*
X93153602Y-22137242D01*
X93158948Y-22125234D01*
X93192740Y-22021232D01*
X93193143Y-22007133D01*
X93186771Y-22004000D01*
X92572115Y-22004000D01*
X92556876Y-22008475D01*
X92555671Y-22009865D01*
X92554000Y-22017548D01*
X92238500Y-22017548D01*
X92238500Y-21325000D01*
X92233273Y-21251921D01*
X92192096Y-21111684D01*
X92156039Y-21055579D01*
X92117949Y-20996309D01*
X92117947Y-20996306D01*
X92113077Y-20988729D01*
X92089487Y-20968288D01*
X92051104Y-20908562D01*
X92046000Y-20873064D01*
X92046000Y-20868402D01*
X92045025Y-20865083D01*
X92554000Y-20865083D01*
X92554000Y-21477885D01*
X92558475Y-21493124D01*
X92559865Y-21494329D01*
X92567548Y-21496000D01*
X93180224Y-21496000D01*
X93193755Y-21492027D01*
X93194765Y-21485000D01*
X93158948Y-21374766D01*
X93153602Y-21362758D01*
X93062159Y-21204375D01*
X93054439Y-21193749D01*
X92932067Y-21057841D01*
X92922301Y-21049047D01*
X92774342Y-20941549D01*
X92762970Y-20934983D01*
X92595886Y-20860593D01*
X92583400Y-20856536D01*
X92571722Y-20854054D01*
X92557659Y-20855127D01*
X92554000Y-20865083D01*
X92045025Y-20865083D01*
X92042027Y-20854871D01*
X92031532Y-20853362D01*
X92016607Y-20856535D01*
X92008413Y-20859197D01*
X91937445Y-20861223D01*
X91917138Y-20853977D01*
X91877868Y-20836043D01*
X91877862Y-20836041D01*
X91869670Y-20832300D01*
X91860755Y-20831018D01*
X91860754Y-20831018D01*
X91729448Y-20812139D01*
X91729441Y-20812138D01*
X91725000Y-20811500D01*
X91529692Y-20811500D01*
X91461571Y-20791498D01*
X91415078Y-20737842D01*
X91404974Y-20667568D01*
X91434468Y-20602988D01*
X91479101Y-20572289D01*
X91478437Y-20570963D01*
X91484984Y-20567684D01*
X91491864Y-20565187D01*
X91639747Y-20468231D01*
X91761358Y-20339855D01*
X91765033Y-20333528D01*
X91765036Y-20333524D01*
X91836146Y-20211098D01*
X91887657Y-20162239D01*
X91957405Y-20148985D01*
X92023247Y-20175545D01*
X92036270Y-20187411D01*
X92143170Y-20299470D01*
X92151127Y-20306510D01*
X92327477Y-20437718D01*
X92336514Y-20443322D01*
X92532450Y-20542941D01*
X92542301Y-20546941D01*
X92752222Y-20612122D01*
X92762604Y-20614405D01*
X92778041Y-20616451D01*
X92792208Y-20614254D01*
X92796000Y-20601070D01*
X92796000Y-19400048D01*
X93304000Y-19400048D01*
X93304000Y-20598783D01*
X93307973Y-20612314D01*
X93318580Y-20613839D01*
X93436446Y-20589109D01*
X93446642Y-20586049D01*
X93651068Y-20505318D01*
X93660604Y-20500584D01*
X93848514Y-20386558D01*
X93857104Y-20380294D01*
X94023116Y-20236236D01*
X94030536Y-20228605D01*
X94169900Y-20058640D01*
X94175925Y-20049873D01*
X94284658Y-19858856D01*
X94289123Y-19849192D01*
X94364118Y-19642584D01*
X94366889Y-19632316D01*
X94406212Y-19414854D01*
X94407147Y-19406624D01*
X94407346Y-19402389D01*
X94403525Y-19389376D01*
X94402135Y-19388171D01*
X94394452Y-19386500D01*
X93322115Y-19386500D01*
X93306876Y-19390975D01*
X93305671Y-19392365D01*
X93304000Y-19400048D01*
X92796000Y-19400048D01*
X92796000Y-17666217D01*
X92795328Y-17663930D01*
X93304000Y-17663930D01*
X93304000Y-18860385D01*
X93308475Y-18875624D01*
X93309865Y-18876829D01*
X93317548Y-18878500D01*
X94386061Y-18878500D01*
X94400739Y-18874190D01*
X94402802Y-18862307D01*
X94393965Y-18758169D01*
X94392173Y-18747681D01*
X94336952Y-18534927D01*
X94333420Y-18524899D01*
X94243147Y-18324498D01*
X94237967Y-18315192D01*
X94115218Y-18132866D01*
X94108557Y-18124580D01*
X93956830Y-17965530D01*
X93948873Y-17958490D01*
X93772523Y-17827282D01*
X93763486Y-17821678D01*
X93567550Y-17722059D01*
X93557699Y-17718059D01*
X93347778Y-17652878D01*
X93337396Y-17650595D01*
X93321959Y-17648549D01*
X93307792Y-17650746D01*
X93304000Y-17663930D01*
X92795328Y-17663930D01*
X92792027Y-17652686D01*
X92781420Y-17651161D01*
X92663554Y-17675891D01*
X92653358Y-17678951D01*
X92448932Y-17759682D01*
X92439396Y-17764416D01*
X92251486Y-17878442D01*
X92242896Y-17884706D01*
X92076884Y-18028764D01*
X92069464Y-18036395D01*
X92043695Y-18067822D01*
X91985035Y-18107817D01*
X91914065Y-18109748D01*
X91853316Y-18073003D01*
X91834522Y-18045692D01*
X91832687Y-18040636D01*
X91753484Y-17919831D01*
X91739743Y-17898872D01*
X91739742Y-17898871D01*
X91735731Y-17892753D01*
X91607355Y-17771142D01*
X91454445Y-17682325D01*
X91285204Y-17631067D01*
X91278764Y-17630492D01*
X91278763Y-17630492D01*
X91208815Y-17624249D01*
X91208809Y-17624249D01*
X91206022Y-17624000D01*
X89907114Y-17624000D01*
X89811894Y-17635102D01*
X89781629Y-17638630D01*
X89781628Y-17638630D01*
X89774357Y-17639478D01*
X89767479Y-17641974D01*
X89767477Y-17641975D01*
X89674040Y-17675891D01*
X89608136Y-17699813D01*
X89460253Y-17796769D01*
X89338642Y-17925145D01*
X89249825Y-18078055D01*
X89198567Y-18247296D01*
X89197992Y-18253736D01*
X89197992Y-18253737D01*
X89192156Y-18319131D01*
X89191500Y-18326478D01*
X76484885Y-18326478D01*
X76614873Y-18085063D01*
X76643386Y-18032109D01*
X76780252Y-17695048D01*
X76784838Y-17678951D01*
X76878981Y-17348456D01*
X76879915Y-17345178D01*
X76941209Y-16986591D01*
X76949675Y-16848186D01*
X76963308Y-16625278D01*
X76963418Y-16623481D01*
X76963500Y-16600000D01*
X76943827Y-16236744D01*
X76885037Y-15877738D01*
X76787819Y-15527180D01*
X76653310Y-15189173D01*
X76489862Y-14880474D01*
X76484677Y-14870681D01*
X76484675Y-14870678D01*
X76483082Y-14867669D01*
X76279128Y-14566431D01*
X76043834Y-14288981D01*
X76037592Y-14283057D01*
X75782418Y-14040907D01*
X75782417Y-14040906D01*
X75779951Y-14038566D01*
X75490567Y-13818114D01*
X75487655Y-13816357D01*
X75487650Y-13816354D01*
X75181990Y-13631968D01*
X75181981Y-13631963D01*
X75179068Y-13630206D01*
X75171018Y-13626469D01*
X74852177Y-13478468D01*
X74852175Y-13478467D01*
X74849096Y-13477038D01*
X74845884Y-13475951D01*
X74845877Y-13475948D01*
X74507748Y-13361498D01*
X74507743Y-13361496D01*
X74504512Y-13360403D01*
X74490358Y-13357265D01*
X74419330Y-13341519D01*
X74149347Y-13281665D01*
X74019705Y-13267352D01*
X73791137Y-13242117D01*
X73791132Y-13242117D01*
X73787756Y-13241744D01*
X73784358Y-13241738D01*
X73784357Y-13241738D01*
X73609846Y-13241434D01*
X73423968Y-13241110D01*
X73308674Y-13253431D01*
X73065623Y-13279405D01*
X73065615Y-13279406D01*
X73062240Y-13279767D01*
X72706802Y-13357265D01*
X72361813Y-13472697D01*
X72031309Y-13624712D01*
X71719155Y-13811532D01*
X71429003Y-14030972D01*
X71426521Y-14033311D01*
X71426515Y-14033316D01*
X71261328Y-14188981D01*
X71164248Y-14280465D01*
X71162036Y-14283055D01*
X71162034Y-14283057D01*
X71154751Y-14291584D01*
X70927986Y-14557091D01*
X70926067Y-14559903D01*
X70926064Y-14559908D01*
X70738088Y-14835471D01*
X70683177Y-14880474D01*
X70612652Y-14888645D01*
X70548905Y-14857391D01*
X70512175Y-14796634D01*
X70508000Y-14764467D01*
X70508000Y-12734000D01*
X70528002Y-12665879D01*
X70581658Y-12619386D01*
X70634000Y-12608000D01*
X102686757Y-12608000D01*
X102687750Y-12608004D01*
G37*
%TD.AperFunction*%
%TA.AperFunction,Conductor*%
G36*
X78455800Y-74751914D02*
G01*
X78515010Y-74791090D01*
X78543639Y-74856058D01*
X78532600Y-74926191D01*
X78507789Y-74961421D01*
X78412022Y-75057188D01*
X78404408Y-75071132D01*
X78404539Y-75072965D01*
X78408790Y-75079580D01*
X78510351Y-75181141D01*
X78544377Y-75243453D01*
X78539312Y-75314268D01*
X78496765Y-75371104D01*
X78430245Y-75395915D01*
X78383996Y-75390601D01*
X78243792Y-75347200D01*
X78237674Y-75346557D01*
X78237669Y-75346556D01*
X78053205Y-75327169D01*
X78053203Y-75327169D01*
X78047076Y-75326525D01*
X78005250Y-75330331D01*
X77935599Y-75316588D01*
X77904736Y-75293946D01*
X77769885Y-75159095D01*
X77735859Y-75096783D01*
X77740924Y-75025968D01*
X77769885Y-74980905D01*
X77902907Y-74847883D01*
X77965219Y-74813857D01*
X78006926Y-74811865D01*
X78018775Y-74813278D01*
X78024910Y-74812806D01*
X78024912Y-74812806D01*
X78209850Y-74798576D01*
X78209854Y-74798575D01*
X78215992Y-74798103D01*
X78384810Y-74750968D01*
X78455800Y-74751914D01*
G37*
%TD.AperFunction*%
%TA.AperFunction,Conductor*%
G36*
X78856810Y-74749062D02*
G01*
X78982366Y-74789857D01*
X79178775Y-74813278D01*
X79184910Y-74812806D01*
X79184912Y-74812806D01*
X79235867Y-74808885D01*
X79305322Y-74823602D01*
X79334629Y-74845419D01*
X79470115Y-74980905D01*
X79504141Y-75043217D01*
X79499076Y-75114032D01*
X79470115Y-75159095D01*
X79336089Y-75293121D01*
X79273777Y-75327147D01*
X79233825Y-75329336D01*
X79213206Y-75327169D01*
X79213203Y-75327169D01*
X79207076Y-75326525D01*
X79132455Y-75333316D01*
X79016228Y-75343893D01*
X79016225Y-75343894D01*
X79010089Y-75344452D01*
X79004183Y-75346190D01*
X79004179Y-75346191D01*
X78855471Y-75389958D01*
X78784474Y-75390003D01*
X78724724Y-75351657D01*
X78695190Y-75287094D01*
X78705249Y-75216814D01*
X78730801Y-75179989D01*
X78827978Y-75082812D01*
X78835592Y-75068868D01*
X78835461Y-75067035D01*
X78831210Y-75060420D01*
X78728780Y-74957990D01*
X78694754Y-74895678D01*
X78699819Y-74824863D01*
X78742366Y-74768027D01*
X78808886Y-74743216D01*
X78856810Y-74749062D01*
G37*
%TD.AperFunction*%
%TD*%
M02*
