%TF.GenerationSoftware,KiCad,Pcbnew,(5.99.0-8928-gc255dede17)*%
%TF.CreationDate,2021-02-09T19:48:58-08:00*%
%TF.ProjectId,smbpcb,736d6270-6362-42e6-9b69-6361645f7063,rev?*%
%TF.SameCoordinates,Original*%
%TF.FileFunction,Soldermask,Top*%
%TF.FilePolarity,Negative*%
%FSLAX46Y46*%
G04 Gerber Fmt 4.6, Leading zero omitted, Abs format (unit mm)*
G04 Created by KiCad (PCBNEW (5.99.0-8928-gc255dede17)) date 2021-02-09 19:48:58*
%MOMM*%
%LPD*%
G01*
G04 APERTURE LIST*
G04 Aperture macros list*
%AMRoundRect*
0 Rectangle with rounded corners*
0 $1 Rounding radius*
0 $2 $3 $4 $5 $6 $7 $8 $9 X,Y pos of 4 corners*
0 Add a 4 corners polygon primitive as box body*
4,1,4,$2,$3,$4,$5,$6,$7,$8,$9,$2,$3,0*
0 Add four circle primitives for the rounded corners*
1,1,$1+$1,$2,$3*
1,1,$1+$1,$4,$5*
1,1,$1+$1,$6,$7*
1,1,$1+$1,$8,$9*
0 Add four rect primitives between the rounded corners*
20,1,$1+$1,$2,$3,$4,$5,0*
20,1,$1+$1,$4,$5,$6,$7,0*
20,1,$1+$1,$6,$7,$8,$9,0*
20,1,$1+$1,$8,$9,$2,$3,0*%
G04 Aperture macros list end*
%ADD10RoundRect,0.250000X-0.250000X-0.475000X0.250000X-0.475000X0.250000X0.475000X-0.250000X0.475000X0*%
%ADD11RoundRect,0.250000X0.475000X-0.250000X0.475000X0.250000X-0.475000X0.250000X-0.475000X-0.250000X0*%
%ADD12RoundRect,0.250000X0.250000X0.475000X-0.250000X0.475000X-0.250000X-0.475000X0.250000X-0.475000X0*%
%ADD13R,0.900000X1.200000*%
%ADD14RoundRect,0.100000X-0.130000X-0.100000X0.130000X-0.100000X0.130000X0.100000X-0.130000X0.100000X0*%
%ADD15C,5.700000*%
%ADD16R,0.650000X1.060000*%
%ADD17O,0.850000X0.850000*%
%ADD18R,0.850000X0.850000*%
%ADD19RoundRect,0.250000X0.650000X-0.325000X0.650000X0.325000X-0.650000X0.325000X-0.650000X-0.325000X0*%
%ADD20R,2.200000X1.200000*%
%ADD21R,6.400000X5.800000*%
%ADD22RoundRect,0.250000X-0.325000X-0.650000X0.325000X-0.650000X0.325000X0.650000X-0.325000X0.650000X0*%
%ADD23RoundRect,0.100000X-0.100000X0.130000X-0.100000X-0.130000X0.100000X-0.130000X0.100000X0.130000X0*%
%ADD24RoundRect,0.100000X0.130000X0.100000X-0.130000X0.100000X-0.130000X-0.100000X0.130000X-0.100000X0*%
%ADD25RoundRect,0.250000X-0.475000X0.250000X-0.475000X-0.250000X0.475000X-0.250000X0.475000X0.250000X0*%
%ADD26RoundRect,0.125000X0.125000X0.137500X-0.125000X0.137500X-0.125000X-0.137500X0.125000X-0.137500X0*%
%ADD27O,0.990000X0.420000*%
%ADD28RoundRect,0.070000X0.140000X0.140000X-0.140000X0.140000X-0.140000X-0.140000X0.140000X-0.140000X0*%
%ADD29C,0.600000*%
%ADD30R,0.280000X0.700000*%
%ADD31R,0.260000X0.500000*%
%ADD32R,0.680000X1.050000*%
%ADD33R,1.650000X2.400000*%
%ADD34RoundRect,0.100000X0.100000X-0.130000X0.100000X0.130000X-0.100000X0.130000X-0.100000X-0.130000X0*%
%ADD35C,1.524000*%
%ADD36R,1.524000X1.524000*%
%ADD37R,1.600000X1.400000*%
%ADD38R,1.400000X0.400000*%
%ADD39R,1.900000X1.750000*%
%ADD40O,1.900000X1.050000*%
%ADD41R,1.450000X1.150000*%
%ADD42C,1.000000*%
%ADD43R,1.200000X0.900000*%
%ADD44RoundRect,0.070000X0.650000X0.300000X-0.650000X0.300000X-0.650000X-0.300000X0.650000X-0.300000X0*%
%ADD45O,1.700000X2.000000*%
%ADD46RoundRect,0.250000X-0.600000X-0.750000X0.600000X-0.750000X0.600000X0.750000X-0.600000X0.750000X0*%
%ADD47RoundRect,0.250000X-0.650000X0.325000X-0.650000X-0.325000X0.650000X-0.325000X0.650000X0.325000X0*%
%ADD48RoundRect,0.243750X-0.243750X-0.456250X0.243750X-0.456250X0.243750X0.456250X-0.243750X0.456250X0*%
%ADD49O,4.000000X0.320000*%
%ADD50R,0.600000X1.500000*%
%ADD51R,1.500000X0.600000*%
%ADD52RoundRect,0.070000X-0.650000X-0.300000X0.650000X-0.300000X0.650000X0.300000X-0.650000X0.300000X0*%
%ADD53R,0.900000X2.000000*%
%ADD54R,2.000000X0.900000*%
%ADD55R,5.000000X5.000000*%
G04 APERTURE END LIST*
D10*
%TO.C,R27*%
X102800000Y-59350000D03*
X100900000Y-59350000D03*
%TD*%
%TO.C,R23*%
X86050000Y-74400000D03*
X84150000Y-74400000D03*
%TD*%
%TO.C,R22*%
X86150000Y-72300000D03*
X84250000Y-72300000D03*
%TD*%
%TO.C,R18*%
X139278400Y-33959800D03*
X137378400Y-33959800D03*
%TD*%
%TO.C,R17*%
X139380000Y-31546800D03*
X137480000Y-31546800D03*
%TD*%
%TO.C,R9*%
X124750000Y-28925000D03*
X122850000Y-28925000D03*
%TD*%
%TO.C,R8*%
X124625000Y-31050000D03*
X122725000Y-31050000D03*
%TD*%
D11*
%TO.C,R7*%
X129286000Y-27955200D03*
X129286000Y-29855200D03*
%TD*%
D12*
%TO.C,R4*%
X82750000Y-32000000D03*
X84650000Y-32000000D03*
%TD*%
D13*
%TO.C,D5*%
X78600000Y-23850000D03*
X81900000Y-23850000D03*
%TD*%
D14*
%TO.C,R28*%
X83670000Y-39850000D03*
X83030000Y-39850000D03*
%TD*%
%TO.C,R26*%
X85720000Y-48500000D03*
X85080000Y-48500000D03*
%TD*%
D15*
%TO.C,REF\u002A\u002A*%
X148500000Y-16500000D03*
%TD*%
D16*
%TO.C,U1*%
X82550000Y-27250000D03*
X84450000Y-27250000D03*
X84450000Y-29450000D03*
X83500000Y-29450000D03*
X82550000Y-29450000D03*
%TD*%
D10*
%TO.C,C9*%
X118550000Y-31750000D03*
X120450000Y-31750000D03*
%TD*%
D17*
%TO.C,EXT_BATT1*%
X92300000Y-21750000D03*
D18*
X91300000Y-21750000D03*
%TD*%
D19*
%TO.C,C3*%
X100380800Y-28830200D03*
X100380800Y-31780200D03*
%TD*%
D17*
%TO.C,AUX_CONN2*%
X127050000Y-72000000D03*
X127050000Y-73000000D03*
X127050000Y-74000000D03*
D18*
X127050000Y-75000000D03*
%TD*%
D20*
%TO.C,Q1*%
X89272000Y-36138200D03*
D21*
X95572000Y-33858200D03*
D20*
X89272000Y-31578200D03*
%TD*%
D22*
%TO.C,R1*%
X78025000Y-32600000D03*
X80975000Y-32600000D03*
%TD*%
D23*
%TO.C,R11*%
X116757500Y-59884000D03*
X116757500Y-59244000D03*
%TD*%
D12*
%TO.C,C7*%
X133331000Y-28827300D03*
X131431000Y-28827300D03*
%TD*%
D24*
%TO.C,R15*%
X119330000Y-68100000D03*
X119970000Y-68100000D03*
%TD*%
D25*
%TO.C,C10*%
X146456400Y-25161200D03*
X146456400Y-27061200D03*
%TD*%
%TO.C,C8*%
X143154400Y-25212000D03*
X143154400Y-27112000D03*
%TD*%
D26*
%TO.C,U5*%
X145403300Y-34417400D03*
X144603300Y-34417400D03*
X143803300Y-34417400D03*
X143003300Y-34417400D03*
X143003300Y-32042400D03*
X143803300Y-32042400D03*
X144603300Y-32042400D03*
X145403300Y-32042400D03*
%TD*%
D11*
%TO.C,C14*%
X145389600Y-21930400D03*
X145389600Y-20030400D03*
%TD*%
D10*
%TO.C,L1*%
X103950200Y-34242200D03*
X105850200Y-34242200D03*
%TD*%
D27*
%TO.C,U2*%
X109042200Y-31330600D03*
D28*
X109327200Y-31330600D03*
D27*
X109042200Y-30830600D03*
D28*
X109327200Y-30830600D03*
D27*
X109042200Y-30330600D03*
D28*
X109327200Y-30330600D03*
D27*
X109042200Y-29830600D03*
D28*
X109327200Y-29830600D03*
D27*
X109042200Y-29330600D03*
D28*
X109327200Y-29330600D03*
D27*
X106092200Y-29330600D03*
D28*
X105807200Y-29330600D03*
D27*
X106092200Y-29830600D03*
D28*
X105807200Y-29830600D03*
X105807200Y-30330600D03*
D27*
X106092200Y-30330600D03*
D28*
X105807200Y-30830600D03*
D27*
X106092200Y-30830600D03*
D28*
X105807200Y-31330600D03*
D27*
X106092200Y-31330600D03*
D29*
X107067200Y-31080600D03*
D30*
X107817200Y-28780600D03*
D29*
X108067200Y-31080600D03*
D30*
X107317200Y-28780600D03*
D31*
X107317200Y-28700600D03*
D30*
X107317200Y-31880600D03*
D29*
X107567200Y-30330600D03*
D30*
X107817200Y-31880600D03*
D32*
X108017200Y-30965600D03*
D33*
X107567200Y-30330600D03*
D29*
X108067200Y-29580600D03*
D32*
X107117200Y-30965600D03*
D29*
X107067200Y-29580600D03*
D32*
X107117200Y-29695600D03*
D31*
X107817200Y-31960600D03*
D32*
X108017200Y-29695600D03*
D31*
X107317200Y-31960600D03*
X107817200Y-28700600D03*
%TD*%
D14*
%TO.C,C12*%
X147164900Y-33636300D03*
X146524900Y-33636300D03*
%TD*%
%TO.C,R24*%
X102170000Y-55400000D03*
X101530000Y-55400000D03*
%TD*%
D11*
%TO.C,C5*%
X83132400Y-36767000D03*
X83132400Y-34867000D03*
%TD*%
D34*
%TO.C,R2*%
X101979200Y-30569400D03*
X101979200Y-31209400D03*
%TD*%
D35*
%TO.C,U6*%
X141425000Y-40577500D03*
X138885000Y-40577500D03*
X136345000Y-40577500D03*
X133805000Y-40577500D03*
X143965000Y-69787500D03*
X141425000Y-69787500D03*
X138885000Y-69787500D03*
X136345000Y-69787500D03*
D36*
X133805000Y-69787500D03*
%TD*%
D24*
%TO.C,C16*%
X84130000Y-50600000D03*
X84770000Y-50600000D03*
%TD*%
%TO.C,R20*%
X90830000Y-43815000D03*
X91470000Y-43815000D03*
%TD*%
D37*
%TO.C,SW2*%
X88350000Y-57150000D03*
X80350000Y-57150000D03*
X88350000Y-52650000D03*
X80350000Y-52650000D03*
%TD*%
D38*
%TO.C,J1*%
X74600000Y-23750000D03*
X74600000Y-24400000D03*
X74600000Y-25050000D03*
X74600000Y-25700000D03*
X74600000Y-26350000D03*
D39*
X71950000Y-26175000D03*
X71950000Y-23925000D03*
D40*
X71950000Y-28625000D03*
D41*
X74180000Y-27370000D03*
X74180000Y-22730000D03*
D40*
X71950000Y-21475000D03*
%TD*%
D42*
%TO.C,J2*%
X79200000Y-71260000D03*
X78040000Y-71260000D03*
X79200000Y-72530000D03*
X78040000Y-72530000D03*
X79200000Y-73800000D03*
X78040000Y-73800000D03*
X79200000Y-75070000D03*
X78040000Y-75070000D03*
X79200000Y-76340000D03*
X78040000Y-76340000D03*
%TD*%
D15*
%TO.C,*%
X74100000Y-78100000D03*
%TD*%
D17*
%TO.C,5V_IN1*%
X76950000Y-25250000D03*
D18*
X76950000Y-24250000D03*
%TD*%
D43*
%TO.C,D2*%
X120500000Y-36900000D03*
X120500000Y-33600000D03*
%TD*%
D14*
%TO.C,R6*%
X119890000Y-29500000D03*
X119250000Y-29500000D03*
%TD*%
%TO.C,R13*%
X115720000Y-64600000D03*
X115080000Y-64600000D03*
%TD*%
D17*
%TO.C,AUX_CONN1*%
X123300000Y-72000000D03*
X123300000Y-73000000D03*
X123300000Y-74000000D03*
D18*
X123300000Y-75000000D03*
%TD*%
D22*
%TO.C,C2*%
X93925000Y-28700000D03*
X90975000Y-28700000D03*
%TD*%
D14*
%TO.C,R25*%
X91320000Y-39250000D03*
X90680000Y-39250000D03*
%TD*%
D44*
%TO.C,Q2*%
X115140500Y-61784000D03*
X115140500Y-59884000D03*
X113040500Y-60834000D03*
%TD*%
D45*
%TO.C,BT1*%
X93050000Y-19132500D03*
D46*
X90550000Y-19132500D03*
%TD*%
D34*
%TO.C,R14*%
X123000000Y-62180000D03*
X123000000Y-62820000D03*
%TD*%
D47*
%TO.C,C1*%
X86637600Y-30459400D03*
X86637600Y-27509400D03*
%TD*%
D48*
%TO.C,D3*%
X87387500Y-40050000D03*
X89262500Y-40050000D03*
%TD*%
D34*
%TO.C,R3*%
X101979200Y-28675000D03*
X101979200Y-29315000D03*
%TD*%
D43*
%TO.C,D1*%
X86028000Y-37263800D03*
X86028000Y-33963800D03*
%TD*%
D34*
%TO.C,R21*%
X139192000Y-20558800D03*
X139192000Y-21198800D03*
%TD*%
D17*
%TO.C,AUX_CONN3*%
X130580000Y-71987500D03*
X130580000Y-72987500D03*
X130580000Y-73987500D03*
D18*
X130580000Y-74987500D03*
%TD*%
D49*
%TO.C,U4*%
X136316800Y-19094400D03*
X136316800Y-19714400D03*
X136316800Y-20334400D03*
X136316800Y-20954400D03*
X136316800Y-21574400D03*
X136316800Y-22194400D03*
X136316800Y-22814400D03*
X136316800Y-23434400D03*
X136316800Y-24054400D03*
X136316800Y-24674400D03*
X136316800Y-25294400D03*
X136316800Y-25914400D03*
X136316800Y-26534400D03*
X136316800Y-27154400D03*
%TD*%
D15*
%TO.C,REF\u002A\u002A*%
X147700000Y-77900000D03*
%TD*%
D11*
%TO.C,C11*%
X142087600Y-21778000D03*
X142087600Y-19878000D03*
%TD*%
D24*
%TO.C,C15*%
X101580000Y-52850000D03*
X102220000Y-52850000D03*
%TD*%
D37*
%TO.C,SW1*%
X91150000Y-52500000D03*
X99150000Y-52500000D03*
X91150000Y-57000000D03*
X99150000Y-57000000D03*
%TD*%
D48*
%TO.C,D4*%
X79275000Y-39800000D03*
X81150000Y-39800000D03*
%TD*%
D10*
%TO.C,C4*%
X110825200Y-32029400D03*
X112725200Y-32029400D03*
%TD*%
D14*
%TO.C,R5*%
X119890000Y-30250000D03*
X119250000Y-30250000D03*
%TD*%
D15*
%TO.C,REF\u002A\u002A*%
X73600000Y-16600000D03*
%TD*%
D11*
%TO.C,C6*%
X141017000Y-28659700D03*
X141017000Y-26759700D03*
%TD*%
D50*
%TO.C,IC1*%
X95250000Y-44750000D03*
X96500000Y-44750000D03*
X97750000Y-44750000D03*
D51*
X99750000Y-43770000D03*
X99750000Y-41230000D03*
D50*
X97750000Y-40250000D03*
X96500000Y-40250000D03*
X95250000Y-40250000D03*
D51*
X93250000Y-41230000D03*
X93250000Y-43770000D03*
%TD*%
D52*
%TO.C,Q3*%
X124600000Y-63850000D03*
X124600000Y-65750000D03*
X126700000Y-64800000D03*
%TD*%
D14*
%TO.C,R16*%
X119960000Y-67250000D03*
X119320000Y-67250000D03*
%TD*%
D23*
%TO.C,R10*%
X100203000Y-38329000D03*
X100203000Y-37689000D03*
%TD*%
D24*
%TO.C,C13*%
X146575700Y-32772700D03*
X147215700Y-32772700D03*
%TD*%
D34*
%TO.C,R12*%
X122150000Y-62180000D03*
X122150000Y-62820000D03*
%TD*%
D53*
%TO.C,U3*%
X122000000Y-39750000D03*
X120730000Y-39750000D03*
X119460000Y-39750000D03*
X118190000Y-39750000D03*
X116920000Y-39750000D03*
X115650000Y-39750000D03*
X114380000Y-39750000D03*
X113110000Y-39750000D03*
X111840000Y-39750000D03*
X110570000Y-39750000D03*
X109300000Y-39750000D03*
X108030000Y-39750000D03*
X106760000Y-39750000D03*
X105490000Y-39750000D03*
D54*
X104490000Y-42535000D03*
X104490000Y-43805000D03*
X104490000Y-45075000D03*
X104490000Y-46345000D03*
X104490000Y-47615000D03*
X104490000Y-48885000D03*
X104490000Y-50155000D03*
X104490000Y-51425000D03*
X104490000Y-52695000D03*
X104490000Y-53965000D03*
D53*
X105490000Y-56750000D03*
X106760000Y-56750000D03*
X108030000Y-56750000D03*
X109300000Y-56750000D03*
X110570000Y-56750000D03*
X111840000Y-56750000D03*
X113110000Y-56750000D03*
X114380000Y-56750000D03*
X115650000Y-56750000D03*
X116920000Y-56750000D03*
X118190000Y-56750000D03*
X119460000Y-56750000D03*
X120730000Y-56750000D03*
X122000000Y-56750000D03*
D55*
X114500000Y-47250000D03*
%TD*%
D24*
%TO.C,R19*%
X97038200Y-46507400D03*
X97678200Y-46507400D03*
%TD*%
D17*
%TO.C,AUX_CONN4*%
X133950000Y-72050000D03*
X133950000Y-73050000D03*
X133950000Y-74050000D03*
D18*
X133950000Y-75050000D03*
%TD*%
M02*
