%TF.GenerationSoftware,KiCad,Pcbnew,(5.99.0-8928-gc255dede17)*%
%TF.CreationDate,2021-02-10T00:55:29-08:00*%
%TF.ProjectId,smbpcb,736d6270-6362-42e6-9b69-6361645f7063,rev?*%
%TF.SameCoordinates,Original*%
%TF.FileFunction,Soldermask,Bot*%
%TF.FilePolarity,Negative*%
%FSLAX46Y46*%
G04 Gerber Fmt 4.6, Leading zero omitted, Abs format (unit mm)*
G04 Created by KiCad (PCBNEW (5.99.0-8928-gc255dede17)) date 2021-02-10 00:55:29*
%MOMM*%
%LPD*%
G01*
G04 APERTURE LIST*
G04 Aperture macros list*
%AMRoundRect*
0 Rectangle with rounded corners*
0 $1 Rounding radius*
0 $2 $3 $4 $5 $6 $7 $8 $9 X,Y pos of 4 corners*
0 Add a 4 corners polygon primitive as box body*
4,1,4,$2,$3,$4,$5,$6,$7,$8,$9,$2,$3,0*
0 Add four circle primitives for the rounded corners*
1,1,$1+$1,$2,$3*
1,1,$1+$1,$4,$5*
1,1,$1+$1,$6,$7*
1,1,$1+$1,$8,$9*
0 Add four rect primitives between the rounded corners*
20,1,$1+$1,$2,$3,$4,$5,0*
20,1,$1+$1,$4,$5,$6,$7,0*
20,1,$1+$1,$6,$7,$8,$9,0*
20,1,$1+$1,$8,$9,$2,$3,0*%
G04 Aperture macros list end*
%ADD10C,5.700000*%
%ADD11R,0.850000X0.850000*%
%ADD12O,0.850000X0.850000*%
%ADD13C,0.600000*%
%ADD14R,1.524000X1.524000*%
%ADD15C,1.524000*%
%ADD16O,1.900000X1.050000*%
%ADD17C,1.000000*%
%ADD18RoundRect,0.250000X-0.600000X-0.750000X0.600000X-0.750000X0.600000X0.750000X-0.600000X0.750000X0*%
%ADD19O,1.700000X2.000000*%
G04 APERTURE END LIST*
D10*
%TO.C,REF\u002A\u002A*%
X148500000Y-16500000D03*
%TD*%
D11*
%TO.C,EXT_BATT1*%
X91300000Y-21750000D03*
D12*
X92300000Y-21750000D03*
%TD*%
D11*
%TO.C,AUX_CONN2*%
X127050000Y-75000000D03*
D12*
X127050000Y-74000000D03*
X127050000Y-73000000D03*
X127050000Y-72000000D03*
%TD*%
D13*
%TO.C,U2*%
X107067200Y-31080600D03*
X108067200Y-31080600D03*
X107567200Y-30330600D03*
X108067200Y-29580600D03*
X107067200Y-29580600D03*
%TD*%
D14*
%TO.C,U6*%
X133805000Y-69787500D03*
D15*
X136345000Y-69787500D03*
X138885000Y-69787500D03*
X141425000Y-69787500D03*
X143965000Y-69787500D03*
X133805000Y-40577500D03*
X136345000Y-40577500D03*
X138885000Y-40577500D03*
X141425000Y-40577500D03*
%TD*%
D16*
%TO.C,J1*%
X71950000Y-28625000D03*
X71950000Y-21475000D03*
%TD*%
D17*
%TO.C,J2*%
X78040000Y-76340000D03*
X79200000Y-76340000D03*
X78040000Y-75070000D03*
X79200000Y-75070000D03*
X78040000Y-73800000D03*
X79200000Y-73800000D03*
X78040000Y-72530000D03*
X79200000Y-72530000D03*
X78040000Y-71260000D03*
X79200000Y-71260000D03*
%TD*%
D10*
%TO.C,*%
X74100000Y-78100000D03*
%TD*%
D11*
%TO.C,5V_IN1*%
X76950000Y-24250000D03*
D12*
X76950000Y-25250000D03*
%TD*%
D11*
%TO.C,AUX_CONN1*%
X123300000Y-75000000D03*
D12*
X123300000Y-74000000D03*
X123300000Y-73000000D03*
X123300000Y-72000000D03*
%TD*%
D18*
%TO.C,BT1*%
X90550000Y-19132500D03*
D19*
X93050000Y-19132500D03*
%TD*%
D11*
%TO.C,AUX_CONN3*%
X130580000Y-74987500D03*
D12*
X130580000Y-73987500D03*
X130580000Y-72987500D03*
X130580000Y-71987500D03*
%TD*%
D10*
%TO.C,REF\u002A\u002A*%
X147700000Y-77900000D03*
%TD*%
%TO.C,REF\u002A\u002A*%
X73600000Y-16600000D03*
%TD*%
D11*
%TO.C,AUX_CONN4*%
X133950000Y-75050000D03*
D12*
X133950000Y-74050000D03*
X133950000Y-73050000D03*
X133950000Y-72050000D03*
%TD*%
M02*
