%TF.GenerationSoftware,KiCad,Pcbnew,(5.99.0-8928-gc255dede17)*%
%TF.CreationDate,2021-02-24T19:05:10-08:00*%
%TF.ProjectId,smbpcb,736d6270-6362-42e6-9b69-6361645f7063,rev?*%
%TF.SameCoordinates,Original*%
%TF.FileFunction,Copper,L2,Bot*%
%TF.FilePolarity,Positive*%
%FSLAX46Y46*%
G04 Gerber Fmt 4.6, Leading zero omitted, Abs format (unit mm)*
G04 Created by KiCad (PCBNEW (5.99.0-8928-gc255dede17)) date 2021-02-24 19:05:10*
%MOMM*%
%LPD*%
G01*
G04 APERTURE LIST*
G04 Aperture macros list*
%AMRoundRect*
0 Rectangle with rounded corners*
0 $1 Rounding radius*
0 $2 $3 $4 $5 $6 $7 $8 $9 X,Y pos of 4 corners*
0 Add a 4 corners polygon primitive as box body*
4,1,4,$2,$3,$4,$5,$6,$7,$8,$9,$2,$3,0*
0 Add four circle primitives for the rounded corners*
1,1,$1+$1,$2,$3*
1,1,$1+$1,$4,$5*
1,1,$1+$1,$6,$7*
1,1,$1+$1,$8,$9*
0 Add four rect primitives between the rounded corners*
20,1,$1+$1,$2,$3,$4,$5,0*
20,1,$1+$1,$4,$5,$6,$7,0*
20,1,$1+$1,$6,$7,$8,$9,0*
20,1,$1+$1,$8,$9,$2,$3,0*%
G04 Aperture macros list end*
%TA.AperFunction,ComponentPad*%
%ADD10R,1.700000X1.700000*%
%TD*%
%TA.AperFunction,ComponentPad*%
%ADD11O,1.700000X1.700000*%
%TD*%
%TA.AperFunction,ComponentPad*%
%ADD12R,1.524000X1.524000*%
%TD*%
%TA.AperFunction,ComponentPad*%
%ADD13C,1.524000*%
%TD*%
%TA.AperFunction,ComponentPad*%
%ADD14O,1.900000X1.200000*%
%TD*%
%TA.AperFunction,ComponentPad*%
%ADD15C,1.450000*%
%TD*%
%TA.AperFunction,ComponentPad*%
%ADD16C,1.000000*%
%TD*%
%TA.AperFunction,ComponentPad*%
%ADD17C,5.700000*%
%TD*%
%TA.AperFunction,ComponentPad*%
%ADD18RoundRect,0.250000X-0.600000X-0.750000X0.600000X-0.750000X0.600000X0.750000X-0.600000X0.750000X0*%
%TD*%
%TA.AperFunction,ComponentPad*%
%ADD19O,1.700000X2.000000*%
%TD*%
%TA.AperFunction,ViaPad*%
%ADD20C,0.800000*%
%TD*%
%TA.AperFunction,ViaPad*%
%ADD21C,1.000000*%
%TD*%
%TA.AperFunction,Conductor*%
%ADD22C,0.400000*%
%TD*%
%TA.AperFunction,Conductor*%
%ADD23C,0.300000*%
%TD*%
%TA.AperFunction,Conductor*%
%ADD24C,0.500000*%
%TD*%
G04 APERTURE END LIST*
D10*
%TO.P,EXT_BATT1,1,Pin_1*%
%TO.N,Net-(BT1-Pad1)*%
X50775000Y-39900000D03*
D11*
%TO.P,EXT_BATT1,2,Pin_2*%
%TO.N,GND*%
X53315000Y-39900000D03*
%TD*%
D10*
%TO.P,AUX_CONN2,1,Pin_1*%
%TO.N,SDA*%
X90000000Y-96300000D03*
D11*
%TO.P,AUX_CONN2,2,Pin_2*%
%TO.N,SCL*%
X90000000Y-93760000D03*
%TO.P,AUX_CONN2,3,Pin_3*%
%TO.N,+5V*%
X90000000Y-91220000D03*
%TO.P,AUX_CONN2,4,Pin_4*%
%TO.N,GND*%
X90000000Y-88680000D03*
%TD*%
D12*
%TO.P,U6,1,Vout*%
%TO.N,unconnected-(U6-Pad1)*%
X97655000Y-84437500D03*
D13*
%TO.P,U6,2,RXD*%
%TO.N,Net-(R16-Pad2)*%
X100195000Y-84437500D03*
%TO.P,U6,3,TXD*%
%TO.N,Net-(Q3-Pad3)*%
X102735000Y-84437500D03*
%TO.P,U6,4,SR*%
%TO.N,unconnected-(U6-Pad4)*%
X105275000Y-84437500D03*
%TO.P,U6,5,HD*%
%TO.N,unconnected-(U6-Pad5)*%
X107815000Y-84437500D03*
%TO.P,U6,6,Vin*%
%TO.N,+5V*%
X97655000Y-55227500D03*
%TO.P,U6,7,GND*%
%TO.N,GND*%
X100195000Y-55227500D03*
%TO.P,U6,8,A0T*%
%TO.N,unconnected-(U6-Pad8)*%
X102735000Y-55227500D03*
%TO.P,U6,9,PWM*%
%TO.N,unconnected-(U6-Pad9)*%
X105275000Y-55227500D03*
%TD*%
D14*
%TO.P,J1,6,Shield*%
%TO.N,GND*%
X30662500Y-40700000D03*
X30662500Y-47700000D03*
D15*
X33362500Y-41700000D03*
X33362500Y-46700000D03*
%TD*%
D16*
%TO.P,J2,1,Pin_1*%
%TO.N,+5V*%
X39220000Y-92540000D03*
%TO.P,J2,2,Pin_2*%
X40380000Y-92540000D03*
%TO.P,J2,3,Pin_3*%
%TO.N,GND*%
X39220000Y-91270000D03*
%TO.P,J2,4,Pin_4*%
X40380000Y-91270000D03*
%TO.P,J2,5,Pin_5*%
%TO.N,Net-(J2-Pad5)*%
X39220000Y-90000000D03*
%TO.P,J2,6,Pin_6*%
%TO.N,unconnected-(J2-Pad6)*%
X40380000Y-90000000D03*
%TO.P,J2,7,Pin_7*%
%TO.N,ESP_RX2*%
X39220000Y-88730000D03*
%TO.P,J2,8,Pin_8*%
%TO.N,unconnected-(J2-Pad8)*%
X40380000Y-88730000D03*
%TO.P,J2,9,Pin_9*%
%TO.N,ESP_TX2*%
X39220000Y-87460000D03*
%TO.P,J2,10,Pin_10*%
%TO.N,Net-(J2-Pad10)*%
X40380000Y-87460000D03*
%TD*%
D17*
%TO.P,,1*%
%TO.N,GND*%
X33295000Y-94885000D03*
%TD*%
D10*
%TO.P,5V_IN1,1,Pin_1*%
%TO.N,Net-(5V_IN1-Pad1)*%
X37500000Y-42525000D03*
D11*
%TO.P,5V_IN1,2,Pin_2*%
%TO.N,GND*%
X37500000Y-45065000D03*
%TD*%
D17*
%TO.P,REF\u002A\u002A,1*%
%TO.N,GND*%
X110295000Y-32885000D03*
%TD*%
D10*
%TO.P,AUX_CONN1,1,Pin_1*%
%TO.N,SDA*%
X85000000Y-96300000D03*
D11*
%TO.P,AUX_CONN1,2,Pin_2*%
%TO.N,SCL*%
X85000000Y-93760000D03*
%TO.P,AUX_CONN1,3,Pin_3*%
%TO.N,ESP_TX0*%
X85000000Y-91220000D03*
%TO.P,AUX_CONN1,4,Pin_4*%
%TO.N,ESP_RX0*%
X85000000Y-88680000D03*
%TD*%
D17*
%TO.P,MOUNT4,1*%
%TO.N,GND*%
X110295000Y-94885000D03*
%TD*%
D18*
%TO.P,BT1,1,+*%
%TO.N,Net-(BT1-Pad1)*%
X50845000Y-35532500D03*
D19*
%TO.P,BT1,2,-*%
%TO.N,GND*%
X53345000Y-35532500D03*
%TD*%
D17*
%TO.P,REF\u002A\u002A,1*%
%TO.N,GND*%
X33295000Y-32885000D03*
%TD*%
D10*
%TO.P,AUX_CONN3,1,Pin_1*%
%TO.N,SDA*%
X95000000Y-96300000D03*
D11*
%TO.P,AUX_CONN3,2,Pin_2*%
%TO.N,SCL*%
X95000000Y-93760000D03*
%TO.P,AUX_CONN3,3,Pin_3*%
%TO.N,+5V*%
X95000000Y-91220000D03*
%TO.P,AUX_CONN3,4,Pin_4*%
%TO.N,GND*%
X95000000Y-88680000D03*
%TD*%
D10*
%TO.P,AUX_CONN4,1,Pin_1*%
%TO.N,SDA*%
X100000000Y-96300000D03*
D11*
%TO.P,AUX_CONN4,2,Pin_2*%
%TO.N,SCL*%
X100000000Y-93760000D03*
%TO.P,AUX_CONN4,3,Pin_3*%
%TO.N,+3V3*%
X100000000Y-91220000D03*
%TO.P,AUX_CONN4,4,Pin_4*%
%TO.N,GND*%
X100000000Y-88680000D03*
%TD*%
D20*
%TO.N,GND*%
X68500000Y-61900000D03*
X76800000Y-79000000D03*
X43800000Y-47700000D03*
X48200000Y-69400000D03*
X82342000Y-75940000D03*
X86400000Y-81400000D03*
X104100000Y-46400000D03*
X59100000Y-57100000D03*
X56180000Y-59557000D03*
X73525000Y-45925000D03*
X82400000Y-87400000D03*
X80750000Y-59800000D03*
D21*
X57700000Y-45700000D03*
%TO.N,+3V3*%
X81940000Y-52640000D03*
D20*
X89300000Y-48300000D03*
X83545000Y-48335000D03*
X71995000Y-60885000D03*
X101400000Y-47900000D03*
D21*
X70200000Y-82800000D03*
D20*
X106100000Y-47800000D03*
D21*
%TO.N,+5V*%
X86895000Y-54885000D03*
X79045000Y-54810000D03*
%TO.N,SCL*%
X89400000Y-50300000D03*
D20*
X74798200Y-71037800D03*
D21*
%TO.N,SDA*%
X86000000Y-52500000D03*
D20*
%TO.N,EN*%
X78145000Y-58735000D03*
X56000000Y-64800000D03*
%TO.N,NO2*%
X68000000Y-58200000D03*
X55600000Y-60400000D03*
%TO.N,ESP_RX0*%
X80800000Y-72100000D03*
%TO.N,ESP_TX0*%
X81700000Y-78400000D03*
%TO.N,ESP_TX1*%
X79750000Y-83150000D03*
X79700000Y-75150000D03*
%TO.N,ESP_RX2*%
X69400000Y-76200000D03*
%TO.N,ESP_TX2*%
X68400000Y-77100000D03*
%TO.N,Net-(C1-Pad1)*%
X45205400Y-42674600D03*
X45600000Y-48700000D03*
%TO.N,Net-(BT1-Pad1)*%
X49345600Y-50644600D03*
X48400000Y-45900000D03*
%TD*%
D22*
%TO.N,GND*%
X39220000Y-91270000D02*
X36910000Y-91270000D01*
X40380000Y-91270000D02*
X39220000Y-91270000D01*
D23*
X68421010Y-61978990D02*
X68500000Y-61900000D01*
D22*
X36910000Y-91270000D02*
X33295000Y-94885000D01*
%TO.N,+3V3*%
X70200000Y-82800000D02*
X70200000Y-84590000D01*
X89300000Y-48300000D02*
X89800000Y-47800000D01*
X70200000Y-84590000D02*
X78060000Y-92450000D01*
X106100000Y-47800000D02*
X101500000Y-47800000D01*
X89300000Y-48300000D02*
X89265000Y-48335000D01*
X70195000Y-82795000D02*
X70195000Y-62685000D01*
X85345000Y-48335000D02*
X83545000Y-48335000D01*
X98770000Y-92450000D02*
X100000000Y-91220000D01*
X70195000Y-62685000D02*
X71995000Y-60885000D01*
X101300000Y-47800000D02*
X101400000Y-47900000D01*
X89265000Y-48335000D02*
X85345000Y-48335000D01*
X78060000Y-92450000D02*
X98770000Y-92450000D01*
X85545000Y-48335000D02*
X85345000Y-48335000D01*
X83645000Y-48235000D02*
X83545000Y-48335000D01*
X89800000Y-47800000D02*
X101300000Y-47800000D01*
X70200000Y-82800000D02*
X70195000Y-82795000D01*
X101500000Y-47800000D02*
X101400000Y-47900000D01*
D24*
%TO.N,+5V*%
X79045000Y-54810000D02*
X86820000Y-54810000D01*
D22*
X86820000Y-54810000D02*
X86895000Y-54885000D01*
%TO.N,SCL*%
X88500000Y-57500000D02*
X74962200Y-71037800D01*
X74962200Y-71037800D02*
X74798200Y-71037800D01*
X88500000Y-51200000D02*
X88500000Y-57500000D01*
X89400000Y-50300000D02*
X88500000Y-51200000D01*
D23*
%TO.N,EN*%
X76780000Y-60100000D02*
X78145000Y-58735000D01*
X63780000Y-64800000D02*
X68480000Y-60100000D01*
X56000000Y-64800000D02*
X63780000Y-64800000D01*
X68480000Y-60100000D02*
X76780000Y-60100000D01*
D22*
%TO.N,NO2*%
X61700000Y-60100000D02*
X56712977Y-60100000D01*
X68000000Y-58200000D02*
X63600000Y-58200000D01*
X55773511Y-60226489D02*
X55600000Y-60400000D01*
X56528966Y-60284011D02*
X55831034Y-60284011D01*
X63600000Y-58200000D02*
X61700000Y-60100000D01*
X55831034Y-60284011D02*
X55773511Y-60226489D01*
X56712977Y-60100000D02*
X56528966Y-60284011D01*
%TO.N,ESP_RX0*%
X80800000Y-83050000D02*
X85000000Y-87250000D01*
X85000000Y-87250000D02*
X85000000Y-88680000D01*
X80800000Y-72100000D02*
X80800000Y-83050000D01*
%TO.N,ESP_TX0*%
X81750000Y-78450000D02*
X81750000Y-82450000D01*
X86350000Y-89870000D02*
X85000000Y-91220000D01*
X86350000Y-87050000D02*
X86350000Y-89870000D01*
X85000000Y-91000000D02*
X85000000Y-91220000D01*
X81700000Y-78400000D02*
X81750000Y-78450000D01*
X81750000Y-82450000D02*
X86350000Y-87050000D01*
%TO.N,ESP_TX1*%
X79695000Y-83095000D02*
X79695000Y-75155000D01*
X79695000Y-75155000D02*
X79700000Y-75150000D01*
X79750000Y-83150000D02*
X79695000Y-83095000D01*
%TO.N,ESP_RX2*%
X49200000Y-76200000D02*
X38200000Y-87200000D01*
X69400000Y-76200000D02*
X49200000Y-76200000D01*
X39130000Y-88730000D02*
X39220000Y-88730000D01*
X38200000Y-87200000D02*
X38200000Y-87800000D01*
X38200000Y-87800000D02*
X39130000Y-88730000D01*
%TO.N,ESP_TX2*%
X68400000Y-77100000D02*
X49516023Y-77100000D01*
X39220000Y-87260000D02*
X39220000Y-87460000D01*
X49516023Y-77100000D02*
X39552989Y-87063034D01*
D23*
%TO.N,Net-(C1-Pad1)*%
X45600000Y-48700000D02*
X45600000Y-42911200D01*
X45600000Y-42911200D02*
X45205400Y-42516600D01*
D22*
%TO.N,Net-(BT1-Pad1)*%
X49300000Y-46800000D02*
X49300000Y-50599000D01*
X48400000Y-45900000D02*
X49300000Y-46800000D01*
X49300000Y-50599000D02*
X49345600Y-50644600D01*
%TD*%
%TA.AperFunction,Conductor*%
%TO.N,GND*%
G36*
X110234204Y-29194751D02*
G01*
X110245636Y-29196677D01*
X110245652Y-29196678D01*
X110250440Y-29197485D01*
X110413313Y-29199509D01*
X110417894Y-29199649D01*
X110507372Y-29204045D01*
X110512280Y-29204286D01*
X110518444Y-29204741D01*
X110589357Y-29211725D01*
X110793841Y-29231866D01*
X110799977Y-29232623D01*
X110842260Y-29238895D01*
X110872008Y-29243307D01*
X110878069Y-29244359D01*
X111149503Y-29298350D01*
X111155533Y-29299704D01*
X111226189Y-29317403D01*
X111232149Y-29319053D01*
X111496948Y-29399379D01*
X111502819Y-29401318D01*
X111545451Y-29416571D01*
X111571366Y-29425844D01*
X111577112Y-29428060D01*
X111832817Y-29533977D01*
X111838471Y-29536484D01*
X111904287Y-29567613D01*
X111909811Y-29570393D01*
X112153894Y-29700859D01*
X112159215Y-29703873D01*
X112221689Y-29741318D01*
X112226897Y-29744616D01*
X112392734Y-29855424D01*
X112457014Y-29898375D01*
X112462070Y-29901936D01*
X112520542Y-29945302D01*
X112525418Y-29949107D01*
X112739361Y-30124686D01*
X112744043Y-30128725D01*
X112797971Y-30177602D01*
X112802450Y-30181867D01*
X112998132Y-30377549D01*
X113002397Y-30382028D01*
X113051288Y-30435971D01*
X113055327Y-30440654D01*
X113230883Y-30654570D01*
X113234688Y-30659445D01*
X113278062Y-30717928D01*
X113281623Y-30722984D01*
X113384644Y-30877164D01*
X113435372Y-30953084D01*
X113438681Y-30958310D01*
X113476114Y-31020764D01*
X113479162Y-31026144D01*
X113609610Y-31270197D01*
X113612390Y-31275720D01*
X113621772Y-31295556D01*
X113643532Y-31341565D01*
X113646014Y-31347164D01*
X113751923Y-31602848D01*
X113754141Y-31608597D01*
X113778685Y-31677192D01*
X113780624Y-31683064D01*
X113860945Y-31947846D01*
X113862595Y-31953806D01*
X113880297Y-32024474D01*
X113881652Y-32030509D01*
X113921006Y-32228353D01*
X113935636Y-32301905D01*
X113936693Y-32307998D01*
X113947378Y-32380032D01*
X113948135Y-32386170D01*
X113975259Y-32661567D01*
X113975714Y-32667728D01*
X113980350Y-32762104D01*
X113980490Y-32766650D01*
X113981772Y-32869862D01*
X113982315Y-32913537D01*
X113982473Y-32926284D01*
X113983164Y-32930713D01*
X113985496Y-32945671D01*
X113987000Y-32965083D01*
X113987000Y-94803267D01*
X113985249Y-94824197D01*
X113983322Y-94835635D01*
X113983321Y-94835651D01*
X113982514Y-94840439D01*
X113980490Y-95003341D01*
X113980350Y-95007900D01*
X113975714Y-95102267D01*
X113975714Y-95102272D01*
X113975260Y-95108429D01*
X113948136Y-95383816D01*
X113948135Y-95383829D01*
X113947379Y-95389958D01*
X113938807Y-95447750D01*
X113936691Y-95462012D01*
X113935634Y-95468106D01*
X113881654Y-95739478D01*
X113880299Y-95745512D01*
X113862599Y-95816174D01*
X113860950Y-95822134D01*
X113780621Y-96086945D01*
X113778683Y-96092810D01*
X113754138Y-96161410D01*
X113751937Y-96167115D01*
X113646024Y-96422813D01*
X113643517Y-96428468D01*
X113612393Y-96494273D01*
X113609613Y-96499796D01*
X113479163Y-96743850D01*
X113476116Y-96749229D01*
X113438669Y-96811708D01*
X113435370Y-96816917D01*
X113281632Y-97047003D01*
X113278072Y-97052058D01*
X113266452Y-97067726D01*
X113234678Y-97110568D01*
X113230879Y-97115435D01*
X113078184Y-97301495D01*
X113055344Y-97329326D01*
X113051305Y-97334009D01*
X113002394Y-97387974D01*
X112998129Y-97392453D01*
X112802454Y-97588128D01*
X112797975Y-97592393D01*
X112744023Y-97641292D01*
X112739341Y-97645331D01*
X112525435Y-97820879D01*
X112520577Y-97824671D01*
X112462029Y-97868093D01*
X112457019Y-97871621D01*
X112226905Y-98025377D01*
X112221707Y-98028669D01*
X112159231Y-98066116D01*
X112153898Y-98069138D01*
X111909799Y-98199611D01*
X111904274Y-98202392D01*
X111838469Y-98233515D01*
X111832816Y-98236021D01*
X111577144Y-98341924D01*
X111571375Y-98344149D01*
X111502797Y-98368687D01*
X111496947Y-98370620D01*
X111232152Y-98450945D01*
X111226198Y-98452593D01*
X111155524Y-98470295D01*
X111149492Y-98471650D01*
X110981251Y-98505116D01*
X110878099Y-98525634D01*
X110872018Y-98526689D01*
X110799943Y-98537380D01*
X110793835Y-98538134D01*
X110540653Y-98563070D01*
X110518434Y-98565258D01*
X110512267Y-98565713D01*
X110506229Y-98566010D01*
X110417897Y-98570349D01*
X110413351Y-98570489D01*
X110300845Y-98571887D01*
X110258204Y-98572416D01*
X110258200Y-98572416D01*
X110253717Y-98572472D01*
X110234328Y-98575495D01*
X110214918Y-98576999D01*
X72083556Y-98576999D01*
X33528268Y-98577000D01*
X33376733Y-98577000D01*
X33355803Y-98575249D01*
X33344365Y-98573322D01*
X33344349Y-98573321D01*
X33339561Y-98572514D01*
X33176659Y-98570490D01*
X33172100Y-98570350D01*
X33077718Y-98565713D01*
X33071571Y-98565260D01*
X32796164Y-98538134D01*
X32790042Y-98537379D01*
X32717978Y-98526689D01*
X32711905Y-98525636D01*
X32632055Y-98509753D01*
X32440522Y-98471654D01*
X32434488Y-98470299D01*
X32363826Y-98452599D01*
X32357866Y-98450950D01*
X32122052Y-98379417D01*
X32093049Y-98370619D01*
X32087184Y-98368681D01*
X32018590Y-98344138D01*
X32012885Y-98341937D01*
X31757180Y-98236021D01*
X31751532Y-98233517D01*
X31685727Y-98202393D01*
X31680204Y-98199613D01*
X31436150Y-98069163D01*
X31430771Y-98066116D01*
X31368292Y-98028669D01*
X31363079Y-98025368D01*
X31132994Y-97871630D01*
X31127941Y-97868071D01*
X31127938Y-97868069D01*
X31069424Y-97824671D01*
X31064557Y-97820873D01*
X30939874Y-97718548D01*
X30850668Y-97645339D01*
X30845991Y-97641305D01*
X30843402Y-97638958D01*
X30792025Y-97592393D01*
X30787547Y-97588129D01*
X30636211Y-97436793D01*
X31108747Y-97436793D01*
X31108823Y-97437863D01*
X31112008Y-97442697D01*
X31392304Y-97657776D01*
X31397934Y-97661631D01*
X31702897Y-97847052D01*
X31708899Y-97850270D01*
X32032114Y-98001674D01*
X32038419Y-98004222D01*
X32376099Y-98119836D01*
X32382650Y-98121689D01*
X32730827Y-98200154D01*
X32737546Y-98201291D01*
X33092170Y-98241696D01*
X33098960Y-98242099D01*
X33455869Y-98243967D01*
X33462670Y-98243635D01*
X33817697Y-98206947D01*
X33824425Y-98205881D01*
X34173419Y-98131062D01*
X34179968Y-98129283D01*
X34518845Y-98017211D01*
X34525187Y-98014725D01*
X34849949Y-97866723D01*
X34856008Y-97863556D01*
X35162888Y-97681343D01*
X35168552Y-97677551D01*
X35453962Y-97463259D01*
X35459188Y-97458874D01*
X35472037Y-97446850D01*
X35480105Y-97433172D01*
X35480077Y-97432446D01*
X35474935Y-97424145D01*
X33307812Y-95257022D01*
X33293868Y-95249408D01*
X33292035Y-95249539D01*
X33285420Y-95253790D01*
X31116361Y-97422849D01*
X31108747Y-97436793D01*
X30636211Y-97436793D01*
X30591872Y-97392454D01*
X30587607Y-97387975D01*
X30538708Y-97334023D01*
X30534669Y-97329341D01*
X30518439Y-97309564D01*
X30359121Y-97115435D01*
X30355329Y-97110577D01*
X30311907Y-97052029D01*
X30308370Y-97047006D01*
X30232936Y-96934110D01*
X30154623Y-96816905D01*
X30151324Y-96811696D01*
X30113875Y-96749216D01*
X30110862Y-96743898D01*
X29980387Y-96499795D01*
X29977608Y-96494274D01*
X29946485Y-96428469D01*
X29943979Y-96422816D01*
X29838076Y-96167144D01*
X29835851Y-96161375D01*
X29811313Y-96092797D01*
X29809380Y-96086945D01*
X29729055Y-95822152D01*
X29727407Y-95816198D01*
X29709705Y-95745524D01*
X29708350Y-95739492D01*
X29654368Y-95468111D01*
X29653311Y-95462018D01*
X29651863Y-95452257D01*
X29642620Y-95389943D01*
X29641864Y-95383816D01*
X29640547Y-95370438D01*
X29614742Y-95108434D01*
X29614287Y-95102267D01*
X29614076Y-95097973D01*
X29609651Y-95007896D01*
X29609511Y-95003351D01*
X29607937Y-94876657D01*
X29932192Y-94876657D01*
X29950251Y-95233134D01*
X29950961Y-95239890D01*
X30007411Y-95592319D01*
X30008850Y-95598974D01*
X30103030Y-95943237D01*
X30105179Y-95949698D01*
X30235991Y-96281784D01*
X30238822Y-96287967D01*
X30404734Y-96603984D01*
X30408217Y-96609826D01*
X30607292Y-96906081D01*
X30611385Y-96911511D01*
X30735892Y-97059369D01*
X30748631Y-97067813D01*
X30759074Y-97061716D01*
X32922978Y-94897812D01*
X32929356Y-94886132D01*
X33659408Y-94886132D01*
X33659539Y-94887965D01*
X33663790Y-94894580D01*
X35829511Y-97060301D01*
X35843108Y-97067726D01*
X35852717Y-97061029D01*
X35957251Y-96939498D01*
X35961400Y-96934110D01*
X36163561Y-96639964D01*
X36167108Y-96634153D01*
X36336311Y-96319908D01*
X36339218Y-96313730D01*
X36473499Y-95983038D01*
X36475713Y-95976608D01*
X36573493Y-95633346D01*
X36575000Y-95626716D01*
X36635141Y-95274881D01*
X36635921Y-95268141D01*
X36657808Y-94910275D01*
X36657924Y-94906673D01*
X36657994Y-94886820D01*
X36657902Y-94883193D01*
X36638514Y-94525200D01*
X36637779Y-94518434D01*
X36580101Y-94166218D01*
X36578634Y-94159546D01*
X36483258Y-93815634D01*
X36481084Y-93809170D01*
X36349115Y-93477547D01*
X36346259Y-93471367D01*
X36179249Y-93155939D01*
X36175749Y-93150114D01*
X35975637Y-92854550D01*
X35971523Y-92849130D01*
X35854089Y-92710656D01*
X35841263Y-92702219D01*
X35830938Y-92708272D01*
X33667022Y-94872188D01*
X33659408Y-94886132D01*
X32929356Y-94886132D01*
X32930592Y-94883868D01*
X32930461Y-94882035D01*
X32926210Y-94875420D01*
X30760479Y-92709689D01*
X30746942Y-92702297D01*
X30737241Y-92709084D01*
X30625595Y-92839806D01*
X30621461Y-92845214D01*
X30420336Y-93140051D01*
X30416801Y-93145888D01*
X30248694Y-93460725D01*
X30245813Y-93466904D01*
X30112689Y-93798060D01*
X30110498Y-93804495D01*
X30013913Y-94148106D01*
X30012430Y-94154742D01*
X29953521Y-94506765D01*
X29952762Y-94513537D01*
X29932216Y-94869862D01*
X29932192Y-94876657D01*
X29607937Y-94876657D01*
X29607853Y-94869862D01*
X29607584Y-94848204D01*
X29607584Y-94848200D01*
X29607528Y-94843717D01*
X29604504Y-94824323D01*
X29603000Y-94804911D01*
X29603000Y-92336446D01*
X31109532Y-92336446D01*
X31109567Y-92337286D01*
X31114618Y-92345408D01*
X33282188Y-94512978D01*
X33296132Y-94520592D01*
X33297965Y-94520461D01*
X33304580Y-94516210D01*
X35473214Y-92347576D01*
X35480828Y-92333632D01*
X35480760Y-92332677D01*
X35475817Y-92325202D01*
X35471915Y-92321881D01*
X35187993Y-92105590D01*
X35182369Y-92101768D01*
X34876755Y-91917409D01*
X34870738Y-91914210D01*
X34547006Y-91763939D01*
X34540670Y-91761405D01*
X34202612Y-91646979D01*
X34196044Y-91645145D01*
X33847606Y-91567899D01*
X33840867Y-91566783D01*
X33486109Y-91527617D01*
X33479328Y-91527238D01*
X33122391Y-91526615D01*
X33115618Y-91526970D01*
X32760704Y-91564899D01*
X32753994Y-91565986D01*
X32405271Y-91642020D01*
X32398696Y-91643831D01*
X32060225Y-91757082D01*
X32053903Y-91759585D01*
X31729649Y-91908725D01*
X31723606Y-91911911D01*
X31417362Y-92095195D01*
X31411716Y-92099003D01*
X31127038Y-92314303D01*
X31121848Y-92318690D01*
X31117555Y-92322735D01*
X31109532Y-92336446D01*
X29603000Y-92336446D01*
X29603000Y-87837342D01*
X37487477Y-87837342D01*
X37498461Y-87900273D01*
X37499421Y-87906766D01*
X37507096Y-87970194D01*
X37509781Y-87977298D01*
X37510418Y-87979893D01*
X37514872Y-87996175D01*
X37515648Y-87998745D01*
X37516953Y-88006224D01*
X37520004Y-88013175D01*
X37520006Y-88013181D01*
X37542624Y-88064705D01*
X37545117Y-88070814D01*
X37559198Y-88108077D01*
X37567694Y-88130562D01*
X37572000Y-88136827D01*
X37573250Y-88139218D01*
X37581433Y-88153920D01*
X37582807Y-88156243D01*
X37585861Y-88163201D01*
X37590486Y-88169228D01*
X37590488Y-88169232D01*
X37624746Y-88213878D01*
X37628615Y-88219203D01*
X37664796Y-88271846D01*
X37670466Y-88276898D01*
X37670467Y-88276899D01*
X37708682Y-88310947D01*
X37713958Y-88315928D01*
X38182493Y-88784463D01*
X38216519Y-88846775D01*
X38218956Y-88863014D01*
X38223150Y-88912956D01*
X38277672Y-89103094D01*
X38308026Y-89162156D01*
X38339198Y-89222810D01*
X38368086Y-89279021D01*
X38371911Y-89283847D01*
X38373689Y-89286090D01*
X38374250Y-89287475D01*
X38375251Y-89289029D01*
X38374956Y-89289219D01*
X38400325Y-89351901D01*
X38387153Y-89421665D01*
X38383743Y-89427404D01*
X38383747Y-89427406D01*
X38288456Y-89600740D01*
X38286595Y-89606607D01*
X38286594Y-89606609D01*
X38235103Y-89768929D01*
X38228647Y-89789282D01*
X38206599Y-89985849D01*
X38223150Y-90182956D01*
X38247942Y-90269415D01*
X38275531Y-90365626D01*
X38277672Y-90373094D01*
X38368086Y-90549021D01*
X38371910Y-90553846D01*
X38371918Y-90553858D01*
X38374017Y-90556506D01*
X38374679Y-90558141D01*
X38375251Y-90559029D01*
X38375082Y-90559138D01*
X38400651Y-90622317D01*
X38387476Y-90692081D01*
X38384147Y-90697681D01*
X38384160Y-90697688D01*
X38291882Y-90865542D01*
X38287054Y-90876806D01*
X38230998Y-91053516D01*
X38228450Y-91065503D01*
X38207786Y-91249731D01*
X38207615Y-91262000D01*
X38223126Y-91446725D01*
X38225341Y-91458790D01*
X38276436Y-91636983D01*
X38280955Y-91648395D01*
X38365688Y-91813268D01*
X38372330Y-91823573D01*
X38373977Y-91825651D01*
X38374497Y-91826936D01*
X38375672Y-91828759D01*
X38375326Y-91828982D01*
X38400619Y-91891460D01*
X38387453Y-91961225D01*
X38383857Y-91967275D01*
X38383747Y-91967406D01*
X38288456Y-92140740D01*
X38228647Y-92329282D01*
X38206599Y-92525849D01*
X38223150Y-92722956D01*
X38227693Y-92738799D01*
X38275531Y-92905626D01*
X38277672Y-92913094D01*
X38368086Y-93089021D01*
X38490949Y-93244036D01*
X38495636Y-93248025D01*
X38495639Y-93248028D01*
X38565046Y-93307098D01*
X38641582Y-93372235D01*
X38646960Y-93375241D01*
X38646962Y-93375242D01*
X38808866Y-93465727D01*
X38814246Y-93468734D01*
X39002366Y-93529857D01*
X39198775Y-93553278D01*
X39204910Y-93552806D01*
X39204912Y-93552806D01*
X39389850Y-93538576D01*
X39389854Y-93538575D01*
X39395992Y-93538103D01*
X39586507Y-93484910D01*
X39635733Y-93460044D01*
X39745573Y-93404560D01*
X39815396Y-93391700D01*
X39863855Y-93407038D01*
X39974246Y-93468734D01*
X40162366Y-93529857D01*
X40358775Y-93553278D01*
X40364910Y-93552806D01*
X40364912Y-93552806D01*
X40549850Y-93538576D01*
X40549854Y-93538575D01*
X40555992Y-93538103D01*
X40746507Y-93484910D01*
X40923060Y-93395726D01*
X40949279Y-93375242D01*
X41074073Y-93277742D01*
X41078929Y-93273948D01*
X41103749Y-93245194D01*
X41204147Y-93128882D01*
X41204148Y-93128880D01*
X41208176Y-93124214D01*
X41305878Y-92952228D01*
X41368314Y-92764539D01*
X41393105Y-92568299D01*
X41393500Y-92540000D01*
X41374198Y-92343143D01*
X41317027Y-92153785D01*
X41224166Y-91979138D01*
X41220268Y-91974358D01*
X41219548Y-91973275D01*
X41198508Y-91905467D01*
X41214937Y-91841306D01*
X41302374Y-91687389D01*
X41307370Y-91676167D01*
X41365878Y-91500285D01*
X41368599Y-91488307D01*
X41392162Y-91301789D01*
X41392654Y-91294760D01*
X41392951Y-91273505D01*
X41392658Y-91266512D01*
X41374309Y-91079374D01*
X41371926Y-91067339D01*
X41318346Y-90889876D01*
X41313671Y-90878534D01*
X41226645Y-90714862D01*
X41219575Y-90704219D01*
X41198540Y-90636410D01*
X41214969Y-90572257D01*
X41302831Y-90417591D01*
X41305878Y-90412228D01*
X41368314Y-90224539D01*
X41393105Y-90028299D01*
X41393500Y-90000000D01*
X41374198Y-89803143D01*
X41317027Y-89613785D01*
X41224166Y-89439138D01*
X41220268Y-89434359D01*
X41219857Y-89433740D01*
X41198816Y-89365933D01*
X41215245Y-89301770D01*
X41223366Y-89287475D01*
X41305878Y-89142228D01*
X41368314Y-88954539D01*
X41393105Y-88758299D01*
X41393500Y-88730000D01*
X41374198Y-88533143D01*
X41317027Y-88343785D01*
X41224166Y-88169138D01*
X41220268Y-88164359D01*
X41219857Y-88163740D01*
X41198816Y-88095933D01*
X41215245Y-88031770D01*
X41235466Y-87996175D01*
X41305878Y-87872228D01*
X41368314Y-87684539D01*
X41393105Y-87488299D01*
X41393500Y-87460000D01*
X41374198Y-87263143D01*
X41317027Y-87073785D01*
X41224166Y-86899138D01*
X41124988Y-86777533D01*
X41103045Y-86750628D01*
X41103042Y-86750625D01*
X41099150Y-86745853D01*
X41081609Y-86731342D01*
X41041872Y-86672510D01*
X41040249Y-86601532D01*
X41072830Y-86545163D01*
X49772588Y-77845405D01*
X49834900Y-77811379D01*
X49861683Y-77808500D01*
X67788601Y-77808500D01*
X67862661Y-77832563D01*
X67943250Y-77891114D01*
X67949278Y-77893798D01*
X67949280Y-77893799D01*
X68111682Y-77966105D01*
X68117713Y-77968790D01*
X68211113Y-77988643D01*
X68298056Y-78007124D01*
X68298061Y-78007124D01*
X68304513Y-78008496D01*
X68495487Y-78008496D01*
X68501939Y-78007124D01*
X68501944Y-78007124D01*
X68588887Y-77988643D01*
X68682287Y-77968790D01*
X68688318Y-77966105D01*
X68850720Y-77893799D01*
X68850722Y-77893798D01*
X68856750Y-77891114D01*
X68895366Y-77863058D01*
X69005907Y-77782746D01*
X69005909Y-77782744D01*
X69011251Y-77778863D01*
X69139037Y-77636942D01*
X69234524Y-77471554D01*
X69240667Y-77452646D01*
X69280741Y-77394042D01*
X69346137Y-77366405D01*
X69416094Y-77378512D01*
X69468400Y-77426518D01*
X69486500Y-77491584D01*
X69486500Y-82035254D01*
X69466498Y-82103375D01*
X69457022Y-82116245D01*
X69363747Y-82227406D01*
X69360783Y-82232798D01*
X69360780Y-82232802D01*
X69283031Y-82374227D01*
X69268456Y-82400740D01*
X69208647Y-82589282D01*
X69186599Y-82785849D01*
X69203150Y-82982956D01*
X69204848Y-82988876D01*
X69254865Y-83163304D01*
X69257672Y-83173094D01*
X69301885Y-83259124D01*
X69343054Y-83339229D01*
X69348086Y-83349021D01*
X69464247Y-83495580D01*
X69490883Y-83561388D01*
X69491500Y-83573842D01*
X69491500Y-84564047D01*
X69491208Y-84572617D01*
X69487477Y-84627342D01*
X69498461Y-84690273D01*
X69499421Y-84696766D01*
X69507096Y-84760194D01*
X69509781Y-84767298D01*
X69510418Y-84769893D01*
X69514872Y-84786175D01*
X69515648Y-84788745D01*
X69516953Y-84796224D01*
X69520004Y-84803175D01*
X69520006Y-84803181D01*
X69542624Y-84854705D01*
X69545117Y-84860814D01*
X69567694Y-84920562D01*
X69572000Y-84926827D01*
X69573250Y-84929218D01*
X69581433Y-84943920D01*
X69582807Y-84946243D01*
X69585861Y-84953201D01*
X69590486Y-84959228D01*
X69590488Y-84959232D01*
X69624746Y-85003878D01*
X69628615Y-85009203D01*
X69664796Y-85061846D01*
X69670466Y-85066898D01*
X69670467Y-85066899D01*
X69708682Y-85100947D01*
X69713958Y-85105928D01*
X77540659Y-92932629D01*
X77546512Y-92938894D01*
X77582575Y-92980234D01*
X77634867Y-93016986D01*
X77640091Y-93020865D01*
X77690388Y-93060303D01*
X77697309Y-93063428D01*
X77699599Y-93064815D01*
X77714253Y-93073173D01*
X77716621Y-93074443D01*
X77722835Y-93078810D01*
X77729911Y-93081569D01*
X77729913Y-93081570D01*
X77782339Y-93102010D01*
X77788418Y-93104565D01*
X77846635Y-93130851D01*
X77854108Y-93132236D01*
X77856683Y-93133043D01*
X77872860Y-93137651D01*
X77875481Y-93138324D01*
X77882560Y-93141084D01*
X77890093Y-93142076D01*
X77890094Y-93142076D01*
X77910105Y-93144710D01*
X77945889Y-93149421D01*
X77952387Y-93150451D01*
X78015199Y-93162092D01*
X78022779Y-93161655D01*
X78022780Y-93161655D01*
X78073874Y-93158709D01*
X78081127Y-93158500D01*
X83593201Y-93158500D01*
X83661322Y-93178502D01*
X83707815Y-93232158D01*
X83717919Y-93302432D01*
X83711640Y-93327490D01*
X83688334Y-93391700D01*
X83683578Y-93404802D01*
X83682629Y-93410051D01*
X83682628Y-93410054D01*
X83656861Y-93552549D01*
X83642551Y-93631683D01*
X83642500Y-93637023D01*
X83641097Y-93783210D01*
X83640338Y-93862233D01*
X83677002Y-94089861D01*
X83751494Y-94308056D01*
X83861685Y-94510580D01*
X84004424Y-94691644D01*
X84064034Y-94745411D01*
X84101219Y-94805888D01*
X84099805Y-94876871D01*
X84060240Y-94935821D01*
X84015138Y-94959868D01*
X83945330Y-94980365D01*
X83945328Y-94980366D01*
X83936684Y-94982904D01*
X83929105Y-94987775D01*
X83821309Y-95057051D01*
X83821306Y-95057053D01*
X83813729Y-95061923D01*
X83807828Y-95068733D01*
X83723918Y-95165569D01*
X83723916Y-95165572D01*
X83718016Y-95172381D01*
X83714272Y-95180579D01*
X83687186Y-95239890D01*
X83657300Y-95305330D01*
X83656018Y-95314245D01*
X83656018Y-95314246D01*
X83637139Y-95445552D01*
X83637138Y-95445559D01*
X83636500Y-95450000D01*
X83636500Y-97150000D01*
X83641727Y-97223079D01*
X83643631Y-97229562D01*
X83674751Y-97335548D01*
X83682904Y-97363316D01*
X83687775Y-97370895D01*
X83757051Y-97478691D01*
X83757053Y-97478694D01*
X83761923Y-97486271D01*
X83768733Y-97492172D01*
X83865569Y-97576082D01*
X83865572Y-97576084D01*
X83872381Y-97581984D01*
X83880579Y-97585728D01*
X83885837Y-97588129D01*
X84005330Y-97642700D01*
X84014245Y-97643982D01*
X84014246Y-97643982D01*
X84145552Y-97662861D01*
X84145559Y-97662862D01*
X84150000Y-97663500D01*
X85850000Y-97663500D01*
X85923079Y-97658273D01*
X86001165Y-97635345D01*
X86054670Y-97619635D01*
X86054672Y-97619634D01*
X86063316Y-97617096D01*
X86127135Y-97576082D01*
X86178691Y-97542949D01*
X86178694Y-97542947D01*
X86186271Y-97538077D01*
X86226048Y-97492172D01*
X86276082Y-97434431D01*
X86276084Y-97434428D01*
X86281984Y-97427619D01*
X86324728Y-97334023D01*
X86338958Y-97302864D01*
X86338958Y-97302863D01*
X86342700Y-97294670D01*
X86343982Y-97285754D01*
X86362861Y-97154448D01*
X86362862Y-97154441D01*
X86363500Y-97150000D01*
X86363500Y-95450000D01*
X86358273Y-95376921D01*
X86317096Y-95236684D01*
X86265034Y-95155674D01*
X86242949Y-95121309D01*
X86242947Y-95121306D01*
X86238077Y-95113729D01*
X86219894Y-95097973D01*
X86134431Y-95023918D01*
X86134428Y-95023916D01*
X86127619Y-95018016D01*
X85994670Y-94957300D01*
X85987612Y-94956285D01*
X85928687Y-94918417D01*
X85899193Y-94853836D01*
X85909296Y-94783562D01*
X85934427Y-94747197D01*
X85936199Y-94745410D01*
X86046030Y-94634617D01*
X86122787Y-94525200D01*
X86175375Y-94450236D01*
X86175376Y-94450234D01*
X86178439Y-94445868D01*
X86277153Y-94237508D01*
X86339349Y-94015494D01*
X86363249Y-93786176D01*
X86363500Y-93760000D01*
X86363250Y-93757052D01*
X86344458Y-93535576D01*
X86344457Y-93535572D01*
X86344007Y-93530265D01*
X86288434Y-93316152D01*
X86290681Y-93245194D01*
X86330935Y-93186712D01*
X86396417Y-93159278D01*
X86410393Y-93158500D01*
X88593201Y-93158500D01*
X88661322Y-93178502D01*
X88707815Y-93232158D01*
X88717919Y-93302432D01*
X88711640Y-93327490D01*
X88688334Y-93391700D01*
X88683578Y-93404802D01*
X88682629Y-93410051D01*
X88682628Y-93410054D01*
X88656861Y-93552549D01*
X88642551Y-93631683D01*
X88642500Y-93637023D01*
X88641097Y-93783210D01*
X88640338Y-93862233D01*
X88677002Y-94089861D01*
X88751494Y-94308056D01*
X88861685Y-94510580D01*
X89004424Y-94691644D01*
X89064034Y-94745411D01*
X89101219Y-94805888D01*
X89099805Y-94876871D01*
X89060240Y-94935821D01*
X89015138Y-94959868D01*
X88945330Y-94980365D01*
X88945328Y-94980366D01*
X88936684Y-94982904D01*
X88929105Y-94987775D01*
X88821309Y-95057051D01*
X88821306Y-95057053D01*
X88813729Y-95061923D01*
X88807828Y-95068733D01*
X88723918Y-95165569D01*
X88723916Y-95165572D01*
X88718016Y-95172381D01*
X88714272Y-95180579D01*
X88687186Y-95239890D01*
X88657300Y-95305330D01*
X88656018Y-95314245D01*
X88656018Y-95314246D01*
X88637139Y-95445552D01*
X88637138Y-95445559D01*
X88636500Y-95450000D01*
X88636500Y-97150000D01*
X88641727Y-97223079D01*
X88643631Y-97229562D01*
X88674751Y-97335548D01*
X88682904Y-97363316D01*
X88687775Y-97370895D01*
X88757051Y-97478691D01*
X88757053Y-97478694D01*
X88761923Y-97486271D01*
X88768733Y-97492172D01*
X88865569Y-97576082D01*
X88865572Y-97576084D01*
X88872381Y-97581984D01*
X88880579Y-97585728D01*
X88885837Y-97588129D01*
X89005330Y-97642700D01*
X89014245Y-97643982D01*
X89014246Y-97643982D01*
X89145552Y-97662861D01*
X89145559Y-97662862D01*
X89150000Y-97663500D01*
X90850000Y-97663500D01*
X90923079Y-97658273D01*
X91001165Y-97635345D01*
X91054670Y-97619635D01*
X91054672Y-97619634D01*
X91063316Y-97617096D01*
X91127135Y-97576082D01*
X91178691Y-97542949D01*
X91178694Y-97542947D01*
X91186271Y-97538077D01*
X91226048Y-97492172D01*
X91276082Y-97434431D01*
X91276084Y-97434428D01*
X91281984Y-97427619D01*
X91324728Y-97334023D01*
X91338958Y-97302864D01*
X91338958Y-97302863D01*
X91342700Y-97294670D01*
X91343982Y-97285754D01*
X91362861Y-97154448D01*
X91362862Y-97154441D01*
X91363500Y-97150000D01*
X91363500Y-95450000D01*
X91358273Y-95376921D01*
X91317096Y-95236684D01*
X91265034Y-95155674D01*
X91242949Y-95121309D01*
X91242947Y-95121306D01*
X91238077Y-95113729D01*
X91219894Y-95097973D01*
X91134431Y-95023918D01*
X91134428Y-95023916D01*
X91127619Y-95018016D01*
X90994670Y-94957300D01*
X90987612Y-94956285D01*
X90928687Y-94918417D01*
X90899193Y-94853836D01*
X90909296Y-94783562D01*
X90934427Y-94747197D01*
X90936199Y-94745410D01*
X91046030Y-94634617D01*
X91122787Y-94525200D01*
X91175375Y-94450236D01*
X91175376Y-94450234D01*
X91178439Y-94445868D01*
X91277153Y-94237508D01*
X91339349Y-94015494D01*
X91363249Y-93786176D01*
X91363500Y-93760000D01*
X91363250Y-93757052D01*
X91344458Y-93535576D01*
X91344457Y-93535572D01*
X91344007Y-93530265D01*
X91288434Y-93316152D01*
X91290681Y-93245194D01*
X91330935Y-93186712D01*
X91396417Y-93159278D01*
X91410393Y-93158500D01*
X93593201Y-93158500D01*
X93661322Y-93178502D01*
X93707815Y-93232158D01*
X93717919Y-93302432D01*
X93711640Y-93327490D01*
X93688334Y-93391700D01*
X93683578Y-93404802D01*
X93682629Y-93410051D01*
X93682628Y-93410054D01*
X93656861Y-93552549D01*
X93642551Y-93631683D01*
X93642500Y-93637023D01*
X93641097Y-93783210D01*
X93640338Y-93862233D01*
X93677002Y-94089861D01*
X93751494Y-94308056D01*
X93861685Y-94510580D01*
X94004424Y-94691644D01*
X94064034Y-94745411D01*
X94101219Y-94805888D01*
X94099805Y-94876871D01*
X94060240Y-94935821D01*
X94015138Y-94959868D01*
X93945330Y-94980365D01*
X93945328Y-94980366D01*
X93936684Y-94982904D01*
X93929105Y-94987775D01*
X93821309Y-95057051D01*
X93821306Y-95057053D01*
X93813729Y-95061923D01*
X93807828Y-95068733D01*
X93723918Y-95165569D01*
X93723916Y-95165572D01*
X93718016Y-95172381D01*
X93714272Y-95180579D01*
X93687186Y-95239890D01*
X93657300Y-95305330D01*
X93656018Y-95314245D01*
X93656018Y-95314246D01*
X93637139Y-95445552D01*
X93637138Y-95445559D01*
X93636500Y-95450000D01*
X93636500Y-97150000D01*
X93641727Y-97223079D01*
X93643631Y-97229562D01*
X93674751Y-97335548D01*
X93682904Y-97363316D01*
X93687775Y-97370895D01*
X93757051Y-97478691D01*
X93757053Y-97478694D01*
X93761923Y-97486271D01*
X93768733Y-97492172D01*
X93865569Y-97576082D01*
X93865572Y-97576084D01*
X93872381Y-97581984D01*
X93880579Y-97585728D01*
X93885837Y-97588129D01*
X94005330Y-97642700D01*
X94014245Y-97643982D01*
X94014246Y-97643982D01*
X94145552Y-97662861D01*
X94145559Y-97662862D01*
X94150000Y-97663500D01*
X95850000Y-97663500D01*
X95923079Y-97658273D01*
X96001165Y-97635345D01*
X96054670Y-97619635D01*
X96054672Y-97619634D01*
X96063316Y-97617096D01*
X96127135Y-97576082D01*
X96178691Y-97542949D01*
X96178694Y-97542947D01*
X96186271Y-97538077D01*
X96226048Y-97492172D01*
X96276082Y-97434431D01*
X96276084Y-97434428D01*
X96281984Y-97427619D01*
X96324728Y-97334023D01*
X96338958Y-97302864D01*
X96338958Y-97302863D01*
X96342700Y-97294670D01*
X96343982Y-97285754D01*
X96362861Y-97154448D01*
X96362862Y-97154441D01*
X96363500Y-97150000D01*
X96363500Y-95450000D01*
X96358273Y-95376921D01*
X96317096Y-95236684D01*
X96265034Y-95155674D01*
X96242949Y-95121309D01*
X96242947Y-95121306D01*
X96238077Y-95113729D01*
X96219894Y-95097973D01*
X96134431Y-95023918D01*
X96134428Y-95023916D01*
X96127619Y-95018016D01*
X95994670Y-94957300D01*
X95987612Y-94956285D01*
X95928687Y-94918417D01*
X95899193Y-94853836D01*
X95909296Y-94783562D01*
X95934427Y-94747197D01*
X95936199Y-94745410D01*
X96046030Y-94634617D01*
X96122787Y-94525200D01*
X96175375Y-94450236D01*
X96175376Y-94450234D01*
X96178439Y-94445868D01*
X96277153Y-94237508D01*
X96339349Y-94015494D01*
X96363249Y-93786176D01*
X96363500Y-93760000D01*
X96363250Y-93757052D01*
X96344458Y-93535576D01*
X96344457Y-93535572D01*
X96344007Y-93530265D01*
X96288434Y-93316152D01*
X96290681Y-93245194D01*
X96330935Y-93186712D01*
X96396417Y-93159278D01*
X96410393Y-93158500D01*
X98593201Y-93158500D01*
X98661322Y-93178502D01*
X98707815Y-93232158D01*
X98717919Y-93302432D01*
X98711640Y-93327490D01*
X98688334Y-93391700D01*
X98683578Y-93404802D01*
X98682629Y-93410051D01*
X98682628Y-93410054D01*
X98656861Y-93552549D01*
X98642551Y-93631683D01*
X98642500Y-93637023D01*
X98641097Y-93783210D01*
X98640338Y-93862233D01*
X98677002Y-94089861D01*
X98751494Y-94308056D01*
X98861685Y-94510580D01*
X99004424Y-94691644D01*
X99064034Y-94745411D01*
X99101219Y-94805888D01*
X99099805Y-94876871D01*
X99060240Y-94935821D01*
X99015138Y-94959868D01*
X98945330Y-94980365D01*
X98945328Y-94980366D01*
X98936684Y-94982904D01*
X98929105Y-94987775D01*
X98821309Y-95057051D01*
X98821306Y-95057053D01*
X98813729Y-95061923D01*
X98807828Y-95068733D01*
X98723918Y-95165569D01*
X98723916Y-95165572D01*
X98718016Y-95172381D01*
X98714272Y-95180579D01*
X98687186Y-95239890D01*
X98657300Y-95305330D01*
X98656018Y-95314245D01*
X98656018Y-95314246D01*
X98637139Y-95445552D01*
X98637138Y-95445559D01*
X98636500Y-95450000D01*
X98636500Y-97150000D01*
X98641727Y-97223079D01*
X98643631Y-97229562D01*
X98674751Y-97335548D01*
X98682904Y-97363316D01*
X98687775Y-97370895D01*
X98757051Y-97478691D01*
X98757053Y-97478694D01*
X98761923Y-97486271D01*
X98768733Y-97492172D01*
X98865569Y-97576082D01*
X98865572Y-97576084D01*
X98872381Y-97581984D01*
X98880579Y-97585728D01*
X98885837Y-97588129D01*
X99005330Y-97642700D01*
X99014245Y-97643982D01*
X99014246Y-97643982D01*
X99145552Y-97662861D01*
X99145559Y-97662862D01*
X99150000Y-97663500D01*
X100850000Y-97663500D01*
X100923079Y-97658273D01*
X101001165Y-97635345D01*
X101054670Y-97619635D01*
X101054672Y-97619634D01*
X101063316Y-97617096D01*
X101127135Y-97576082D01*
X101178691Y-97542949D01*
X101178694Y-97542947D01*
X101186271Y-97538077D01*
X101226048Y-97492172D01*
X101274035Y-97436793D01*
X108108747Y-97436793D01*
X108108823Y-97437863D01*
X108112008Y-97442697D01*
X108392304Y-97657776D01*
X108397934Y-97661631D01*
X108702897Y-97847052D01*
X108708899Y-97850270D01*
X109032114Y-98001674D01*
X109038419Y-98004222D01*
X109376099Y-98119836D01*
X109382650Y-98121689D01*
X109730827Y-98200154D01*
X109737546Y-98201291D01*
X110092170Y-98241696D01*
X110098960Y-98242099D01*
X110455869Y-98243967D01*
X110462670Y-98243635D01*
X110817697Y-98206947D01*
X110824425Y-98205881D01*
X111173419Y-98131062D01*
X111179968Y-98129283D01*
X111518845Y-98017211D01*
X111525187Y-98014725D01*
X111849949Y-97866723D01*
X111856008Y-97863556D01*
X112162888Y-97681343D01*
X112168552Y-97677551D01*
X112453962Y-97463259D01*
X112459188Y-97458874D01*
X112472037Y-97446850D01*
X112480105Y-97433172D01*
X112480077Y-97432446D01*
X112474935Y-97424145D01*
X110307812Y-95257022D01*
X110293868Y-95249408D01*
X110292035Y-95249539D01*
X110285420Y-95253790D01*
X108116361Y-97422849D01*
X108108747Y-97436793D01*
X101274035Y-97436793D01*
X101276082Y-97434431D01*
X101276084Y-97434428D01*
X101281984Y-97427619D01*
X101324728Y-97334023D01*
X101338958Y-97302864D01*
X101338958Y-97302863D01*
X101342700Y-97294670D01*
X101343982Y-97285754D01*
X101362861Y-97154448D01*
X101362862Y-97154441D01*
X101363500Y-97150000D01*
X101363500Y-95450000D01*
X101358273Y-95376921D01*
X101317096Y-95236684D01*
X101265034Y-95155674D01*
X101242949Y-95121309D01*
X101242947Y-95121306D01*
X101238077Y-95113729D01*
X101219894Y-95097973D01*
X101134431Y-95023918D01*
X101134428Y-95023916D01*
X101127619Y-95018016D01*
X100994670Y-94957300D01*
X100987612Y-94956285D01*
X100928687Y-94918417D01*
X100909615Y-94876657D01*
X106932192Y-94876657D01*
X106950251Y-95233134D01*
X106950961Y-95239890D01*
X107007411Y-95592319D01*
X107008850Y-95598974D01*
X107103030Y-95943237D01*
X107105179Y-95949698D01*
X107235991Y-96281784D01*
X107238822Y-96287967D01*
X107404734Y-96603984D01*
X107408217Y-96609826D01*
X107607292Y-96906081D01*
X107611385Y-96911511D01*
X107735892Y-97059369D01*
X107748631Y-97067813D01*
X107759074Y-97061716D01*
X109922978Y-94897812D01*
X109929356Y-94886132D01*
X110659408Y-94886132D01*
X110659539Y-94887965D01*
X110663790Y-94894580D01*
X112829511Y-97060301D01*
X112843108Y-97067726D01*
X112852717Y-97061029D01*
X112957251Y-96939498D01*
X112961400Y-96934110D01*
X113163561Y-96639964D01*
X113167108Y-96634153D01*
X113336311Y-96319908D01*
X113339218Y-96313730D01*
X113473499Y-95983038D01*
X113475713Y-95976608D01*
X113573493Y-95633346D01*
X113575000Y-95626716D01*
X113635141Y-95274881D01*
X113635921Y-95268141D01*
X113657808Y-94910275D01*
X113657924Y-94906673D01*
X113657994Y-94886820D01*
X113657902Y-94883193D01*
X113638514Y-94525200D01*
X113637779Y-94518434D01*
X113580101Y-94166218D01*
X113578634Y-94159546D01*
X113483258Y-93815634D01*
X113481084Y-93809170D01*
X113349115Y-93477547D01*
X113346259Y-93471367D01*
X113179249Y-93155939D01*
X113175749Y-93150114D01*
X112975637Y-92854550D01*
X112971523Y-92849130D01*
X112854089Y-92710656D01*
X112841263Y-92702219D01*
X112830938Y-92708272D01*
X110667022Y-94872188D01*
X110659408Y-94886132D01*
X109929356Y-94886132D01*
X109930592Y-94883868D01*
X109930461Y-94882035D01*
X109926210Y-94875420D01*
X107760479Y-92709689D01*
X107746942Y-92702297D01*
X107737241Y-92709084D01*
X107625595Y-92839806D01*
X107621461Y-92845214D01*
X107420336Y-93140051D01*
X107416801Y-93145888D01*
X107248694Y-93460725D01*
X107245813Y-93466904D01*
X107112689Y-93798060D01*
X107110498Y-93804495D01*
X107013913Y-94148106D01*
X107012430Y-94154742D01*
X106953521Y-94506765D01*
X106952762Y-94513537D01*
X106932216Y-94869862D01*
X106932192Y-94876657D01*
X100909615Y-94876657D01*
X100899193Y-94853836D01*
X100909296Y-94783562D01*
X100934427Y-94747197D01*
X100936199Y-94745410D01*
X101046030Y-94634617D01*
X101122787Y-94525200D01*
X101175375Y-94450236D01*
X101175376Y-94450234D01*
X101178439Y-94445868D01*
X101277153Y-94237508D01*
X101339349Y-94015494D01*
X101363249Y-93786176D01*
X101363500Y-93760000D01*
X101363250Y-93757052D01*
X101344458Y-93535576D01*
X101344457Y-93535572D01*
X101344007Y-93530265D01*
X101331515Y-93482133D01*
X101287426Y-93312269D01*
X101286084Y-93307098D01*
X101257677Y-93244036D01*
X101193578Y-93101743D01*
X101193577Y-93101741D01*
X101191388Y-93096882D01*
X101062627Y-92905626D01*
X100903482Y-92738799D01*
X100718504Y-92601171D01*
X100713743Y-92598751D01*
X100710425Y-92596693D01*
X100663071Y-92543796D01*
X100651832Y-92473695D01*
X100680277Y-92408645D01*
X100703564Y-92387093D01*
X100765065Y-92343143D01*
X100774437Y-92336446D01*
X108109532Y-92336446D01*
X108109567Y-92337286D01*
X108114618Y-92345408D01*
X110282188Y-94512978D01*
X110296132Y-94520592D01*
X110297965Y-94520461D01*
X110304580Y-94516210D01*
X112473214Y-92347576D01*
X112480828Y-92333632D01*
X112480760Y-92332677D01*
X112475817Y-92325202D01*
X112471915Y-92321881D01*
X112187993Y-92105590D01*
X112182369Y-92101768D01*
X111876755Y-91917409D01*
X111870738Y-91914210D01*
X111547006Y-91763939D01*
X111540670Y-91761405D01*
X111202612Y-91646979D01*
X111196044Y-91645145D01*
X110847606Y-91567899D01*
X110840867Y-91566783D01*
X110486109Y-91527617D01*
X110479328Y-91527238D01*
X110122391Y-91526615D01*
X110115618Y-91526970D01*
X109760704Y-91564899D01*
X109753994Y-91565986D01*
X109405271Y-91642020D01*
X109398696Y-91643831D01*
X109060225Y-91757082D01*
X109053903Y-91759585D01*
X108729649Y-91908725D01*
X108723606Y-91911911D01*
X108417362Y-92095195D01*
X108411716Y-92099003D01*
X108127038Y-92314303D01*
X108121848Y-92318690D01*
X108117555Y-92322735D01*
X108109532Y-92336446D01*
X100774437Y-92336446D01*
X100883711Y-92258357D01*
X100981527Y-92159685D01*
X101042277Y-92098403D01*
X101042278Y-92098402D01*
X101046030Y-92094617D01*
X101123223Y-91984579D01*
X101175375Y-91910236D01*
X101175376Y-91910234D01*
X101178439Y-91905868D01*
X101277153Y-91697508D01*
X101339349Y-91475494D01*
X101363249Y-91246176D01*
X101363500Y-91220000D01*
X101358530Y-91161421D01*
X101344458Y-90995576D01*
X101344457Y-90995572D01*
X101344007Y-90990265D01*
X101333808Y-90950968D01*
X101287426Y-90772269D01*
X101286084Y-90767098D01*
X101262554Y-90714862D01*
X101193578Y-90561743D01*
X101193577Y-90561741D01*
X101191388Y-90556882D01*
X101062627Y-90365626D01*
X100903482Y-90198799D01*
X100718504Y-90061171D01*
X100713742Y-90058750D01*
X100709967Y-90056409D01*
X100662613Y-90003512D01*
X100651374Y-89933410D01*
X100679819Y-89868361D01*
X100703107Y-89846809D01*
X100879034Y-89721089D01*
X100887149Y-89714182D01*
X101041893Y-89558082D01*
X101048706Y-89549933D01*
X101174940Y-89369988D01*
X101180295Y-89360787D01*
X101274399Y-89162156D01*
X101278123Y-89152197D01*
X101335968Y-88945718D01*
X101334430Y-88937351D01*
X101322137Y-88934000D01*
X98683403Y-88934000D01*
X98670222Y-88937870D01*
X98668255Y-88952423D01*
X98676638Y-89004471D01*
X98679212Y-89014793D01*
X98750230Y-89222810D01*
X98754497Y-89232533D01*
X98859556Y-89425625D01*
X98865402Y-89434491D01*
X99001486Y-89607113D01*
X99008750Y-89614875D01*
X99171967Y-89762094D01*
X99180444Y-89768528D01*
X99298717Y-89843442D01*
X99345562Y-89896790D01*
X99356129Y-89966996D01*
X99327062Y-90031770D01*
X99296662Y-90057605D01*
X99242801Y-90090289D01*
X99196631Y-90118306D01*
X99192601Y-90121803D01*
X99067464Y-90230391D01*
X99022492Y-90269415D01*
X99019109Y-90273541D01*
X99019105Y-90273545D01*
X99003596Y-90292460D01*
X98876304Y-90447705D01*
X98873665Y-90452341D01*
X98873663Y-90452344D01*
X98814156Y-90556882D01*
X98762245Y-90648077D01*
X98683578Y-90864802D01*
X98682629Y-90870051D01*
X98682628Y-90870054D01*
X98656861Y-91012549D01*
X98642551Y-91091683D01*
X98642500Y-91097023D01*
X98640417Y-91314032D01*
X98640338Y-91322233D01*
X98662334Y-91458790D01*
X98665535Y-91478664D01*
X98656620Y-91549099D01*
X98630233Y-91587796D01*
X98513433Y-91704596D01*
X98451121Y-91738621D01*
X98424338Y-91741500D01*
X96430978Y-91741500D01*
X96362857Y-91721498D01*
X96316364Y-91667842D01*
X96306260Y-91597568D01*
X96309649Y-91581510D01*
X96313998Y-91565986D01*
X96339349Y-91475494D01*
X96363249Y-91246176D01*
X96363500Y-91220000D01*
X96358530Y-91161421D01*
X96344458Y-90995576D01*
X96344457Y-90995572D01*
X96344007Y-90990265D01*
X96333808Y-90950968D01*
X96287426Y-90772269D01*
X96286084Y-90767098D01*
X96262554Y-90714862D01*
X96193578Y-90561743D01*
X96193577Y-90561741D01*
X96191388Y-90556882D01*
X96062627Y-90365626D01*
X95903482Y-90198799D01*
X95718504Y-90061171D01*
X95713742Y-90058750D01*
X95709967Y-90056409D01*
X95662613Y-90003512D01*
X95651374Y-89933410D01*
X95679819Y-89868361D01*
X95703107Y-89846809D01*
X95879034Y-89721089D01*
X95887149Y-89714182D01*
X96041893Y-89558082D01*
X96048706Y-89549933D01*
X96174940Y-89369988D01*
X96180295Y-89360787D01*
X96274399Y-89162156D01*
X96278123Y-89152197D01*
X96335968Y-88945718D01*
X96334430Y-88937351D01*
X96322137Y-88934000D01*
X93683403Y-88934000D01*
X93670222Y-88937870D01*
X93668255Y-88952423D01*
X93676638Y-89004471D01*
X93679212Y-89014793D01*
X93750230Y-89222810D01*
X93754497Y-89232533D01*
X93859556Y-89425625D01*
X93865402Y-89434491D01*
X94001486Y-89607113D01*
X94008750Y-89614875D01*
X94171967Y-89762094D01*
X94180444Y-89768528D01*
X94298717Y-89843442D01*
X94345562Y-89896790D01*
X94356129Y-89966996D01*
X94327062Y-90031770D01*
X94296662Y-90057605D01*
X94242801Y-90090289D01*
X94196631Y-90118306D01*
X94192601Y-90121803D01*
X94067464Y-90230391D01*
X94022492Y-90269415D01*
X94019109Y-90273541D01*
X94019105Y-90273545D01*
X94003596Y-90292460D01*
X93876304Y-90447705D01*
X93873665Y-90452341D01*
X93873663Y-90452344D01*
X93814156Y-90556882D01*
X93762245Y-90648077D01*
X93683578Y-90864802D01*
X93682629Y-90870051D01*
X93682628Y-90870054D01*
X93656861Y-91012549D01*
X93642551Y-91091683D01*
X93642500Y-91097023D01*
X93640417Y-91314032D01*
X93640338Y-91322233D01*
X93641187Y-91327503D01*
X93641187Y-91327504D01*
X93676131Y-91544452D01*
X93677002Y-91549861D01*
X93684255Y-91571104D01*
X93685513Y-91574790D01*
X93688593Y-91645719D01*
X93652837Y-91707055D01*
X93589597Y-91739322D01*
X93566271Y-91741500D01*
X91430978Y-91741500D01*
X91362857Y-91721498D01*
X91316364Y-91667842D01*
X91306260Y-91597568D01*
X91309649Y-91581510D01*
X91313998Y-91565986D01*
X91339349Y-91475494D01*
X91363249Y-91246176D01*
X91363500Y-91220000D01*
X91358530Y-91161421D01*
X91344458Y-90995576D01*
X91344457Y-90995572D01*
X91344007Y-90990265D01*
X91333808Y-90950968D01*
X91287426Y-90772269D01*
X91286084Y-90767098D01*
X91262554Y-90714862D01*
X91193578Y-90561743D01*
X91193577Y-90561741D01*
X91191388Y-90556882D01*
X91062627Y-90365626D01*
X90903482Y-90198799D01*
X90718504Y-90061171D01*
X90713742Y-90058750D01*
X90709967Y-90056409D01*
X90662613Y-90003512D01*
X90651374Y-89933410D01*
X90679819Y-89868361D01*
X90703107Y-89846809D01*
X90879034Y-89721089D01*
X90887149Y-89714182D01*
X91041893Y-89558082D01*
X91048706Y-89549933D01*
X91174940Y-89369988D01*
X91180295Y-89360787D01*
X91274399Y-89162156D01*
X91278123Y-89152197D01*
X91335968Y-88945718D01*
X91334430Y-88937351D01*
X91322137Y-88934000D01*
X88683403Y-88934000D01*
X88670222Y-88937870D01*
X88668255Y-88952423D01*
X88676638Y-89004471D01*
X88679212Y-89014793D01*
X88750230Y-89222810D01*
X88754497Y-89232533D01*
X88859556Y-89425625D01*
X88865402Y-89434491D01*
X89001486Y-89607113D01*
X89008750Y-89614875D01*
X89171967Y-89762094D01*
X89180444Y-89768528D01*
X89298717Y-89843442D01*
X89345562Y-89896790D01*
X89356129Y-89966996D01*
X89327062Y-90031770D01*
X89296662Y-90057605D01*
X89242801Y-90090289D01*
X89196631Y-90118306D01*
X89192601Y-90121803D01*
X89067464Y-90230391D01*
X89022492Y-90269415D01*
X89019109Y-90273541D01*
X89019105Y-90273545D01*
X89003596Y-90292460D01*
X88876304Y-90447705D01*
X88873665Y-90452341D01*
X88873663Y-90452344D01*
X88814156Y-90556882D01*
X88762245Y-90648077D01*
X88683578Y-90864802D01*
X88682629Y-90870051D01*
X88682628Y-90870054D01*
X88656861Y-91012549D01*
X88642551Y-91091683D01*
X88642500Y-91097023D01*
X88640417Y-91314032D01*
X88640338Y-91322233D01*
X88641187Y-91327503D01*
X88641187Y-91327504D01*
X88676131Y-91544452D01*
X88677002Y-91549861D01*
X88684255Y-91571104D01*
X88685513Y-91574790D01*
X88688593Y-91645719D01*
X88652837Y-91707055D01*
X88589597Y-91739322D01*
X88566271Y-91741500D01*
X86430978Y-91741500D01*
X86362857Y-91721498D01*
X86316364Y-91667842D01*
X86306260Y-91597568D01*
X86309649Y-91581510D01*
X86313998Y-91565986D01*
X86339349Y-91475494D01*
X86363249Y-91246176D01*
X86363500Y-91220000D01*
X86344007Y-90990265D01*
X86338975Y-90970877D01*
X86341224Y-90899916D01*
X86371840Y-90850130D01*
X86832629Y-90389341D01*
X86838895Y-90383487D01*
X86857595Y-90367174D01*
X86880234Y-90347425D01*
X86916973Y-90295151D01*
X86920905Y-90289857D01*
X86955615Y-90245590D01*
X86955616Y-90245588D01*
X86960302Y-90239612D01*
X86963428Y-90232688D01*
X86964829Y-90230375D01*
X86973166Y-90215759D01*
X86974441Y-90213382D01*
X86978810Y-90207165D01*
X87002013Y-90147652D01*
X87004566Y-90141577D01*
X87027724Y-90090289D01*
X87027725Y-90090287D01*
X87030850Y-90083365D01*
X87032234Y-90075895D01*
X87033038Y-90073330D01*
X87037662Y-90057098D01*
X87038325Y-90054517D01*
X87041084Y-90047440D01*
X87049422Y-89984104D01*
X87050453Y-89977596D01*
X87060708Y-89922266D01*
X87062092Y-89914801D01*
X87061054Y-89896790D01*
X87058709Y-89856134D01*
X87058500Y-89848880D01*
X87058500Y-88408174D01*
X88669008Y-88408174D01*
X88670427Y-88421414D01*
X88685062Y-88426000D01*
X89727885Y-88426000D01*
X89743124Y-88421525D01*
X89744329Y-88420135D01*
X89746000Y-88412452D01*
X89746000Y-87363717D01*
X89745328Y-87361430D01*
X90254000Y-87361430D01*
X90254000Y-88407885D01*
X90258475Y-88423124D01*
X90259865Y-88424329D01*
X90267548Y-88426000D01*
X91319079Y-88426000D01*
X91332610Y-88422027D01*
X91333876Y-88413218D01*
X91332567Y-88408174D01*
X93669008Y-88408174D01*
X93670427Y-88421414D01*
X93685062Y-88426000D01*
X94727885Y-88426000D01*
X94743124Y-88421525D01*
X94744329Y-88420135D01*
X94746000Y-88412452D01*
X94746000Y-87363717D01*
X94745328Y-87361430D01*
X95254000Y-87361430D01*
X95254000Y-88407885D01*
X95258475Y-88423124D01*
X95259865Y-88424329D01*
X95267548Y-88426000D01*
X96319079Y-88426000D01*
X96332610Y-88422027D01*
X96333876Y-88413218D01*
X96332567Y-88408174D01*
X98669008Y-88408174D01*
X98670427Y-88421414D01*
X98685062Y-88426000D01*
X99727885Y-88426000D01*
X99743124Y-88421525D01*
X99744329Y-88420135D01*
X99746000Y-88412452D01*
X99746000Y-87363717D01*
X99745328Y-87361430D01*
X100254000Y-87361430D01*
X100254000Y-88407885D01*
X100258475Y-88423124D01*
X100259865Y-88424329D01*
X100267548Y-88426000D01*
X101319079Y-88426000D01*
X101332610Y-88422027D01*
X101333876Y-88413218D01*
X101286954Y-88232433D01*
X101283419Y-88222395D01*
X101193147Y-88021998D01*
X101187967Y-88012692D01*
X101065218Y-87830366D01*
X101058557Y-87822080D01*
X100906830Y-87663030D01*
X100898873Y-87655990D01*
X100722523Y-87524782D01*
X100713486Y-87519178D01*
X100517550Y-87419559D01*
X100507699Y-87415559D01*
X100297778Y-87350378D01*
X100287396Y-87348095D01*
X100271959Y-87346049D01*
X100257792Y-87348246D01*
X100254000Y-87361430D01*
X99745328Y-87361430D01*
X99742027Y-87350186D01*
X99731420Y-87348661D01*
X99613554Y-87373391D01*
X99603358Y-87376451D01*
X99398932Y-87457182D01*
X99389396Y-87461916D01*
X99201486Y-87575942D01*
X99192896Y-87582206D01*
X99026884Y-87726264D01*
X99019464Y-87733895D01*
X98880100Y-87903860D01*
X98874075Y-87912627D01*
X98765342Y-88103644D01*
X98760877Y-88113308D01*
X98685882Y-88319916D01*
X98683111Y-88330184D01*
X98669008Y-88408174D01*
X96332567Y-88408174D01*
X96286954Y-88232433D01*
X96283419Y-88222395D01*
X96193147Y-88021998D01*
X96187967Y-88012692D01*
X96065218Y-87830366D01*
X96058557Y-87822080D01*
X95906830Y-87663030D01*
X95898873Y-87655990D01*
X95722523Y-87524782D01*
X95713486Y-87519178D01*
X95517550Y-87419559D01*
X95507699Y-87415559D01*
X95297778Y-87350378D01*
X95287396Y-87348095D01*
X95271959Y-87346049D01*
X95257792Y-87348246D01*
X95254000Y-87361430D01*
X94745328Y-87361430D01*
X94742027Y-87350186D01*
X94731420Y-87348661D01*
X94613554Y-87373391D01*
X94603358Y-87376451D01*
X94398932Y-87457182D01*
X94389396Y-87461916D01*
X94201486Y-87575942D01*
X94192896Y-87582206D01*
X94026884Y-87726264D01*
X94019464Y-87733895D01*
X93880100Y-87903860D01*
X93874075Y-87912627D01*
X93765342Y-88103644D01*
X93760877Y-88113308D01*
X93685882Y-88319916D01*
X93683111Y-88330184D01*
X93669008Y-88408174D01*
X91332567Y-88408174D01*
X91286954Y-88232433D01*
X91283419Y-88222395D01*
X91193147Y-88021998D01*
X91187967Y-88012692D01*
X91065218Y-87830366D01*
X91058557Y-87822080D01*
X90906830Y-87663030D01*
X90898873Y-87655990D01*
X90722523Y-87524782D01*
X90713486Y-87519178D01*
X90517550Y-87419559D01*
X90507699Y-87415559D01*
X90297778Y-87350378D01*
X90287396Y-87348095D01*
X90271959Y-87346049D01*
X90257792Y-87348246D01*
X90254000Y-87361430D01*
X89745328Y-87361430D01*
X89742027Y-87350186D01*
X89731420Y-87348661D01*
X89613554Y-87373391D01*
X89603358Y-87376451D01*
X89398932Y-87457182D01*
X89389396Y-87461916D01*
X89201486Y-87575942D01*
X89192896Y-87582206D01*
X89026884Y-87726264D01*
X89019464Y-87733895D01*
X88880100Y-87903860D01*
X88874075Y-87912627D01*
X88765342Y-88103644D01*
X88760877Y-88113308D01*
X88685882Y-88319916D01*
X88683111Y-88330184D01*
X88669008Y-88408174D01*
X87058500Y-88408174D01*
X87058500Y-87075938D01*
X87058792Y-87067368D01*
X87062006Y-87020234D01*
X87062006Y-87020230D01*
X87062522Y-87012658D01*
X87051535Y-86949708D01*
X87050576Y-86943205D01*
X87048425Y-86925426D01*
X87042904Y-86879806D01*
X87040217Y-86872697D01*
X87039576Y-86870085D01*
X87035128Y-86853825D01*
X87034352Y-86851255D01*
X87033047Y-86843776D01*
X87029996Y-86836825D01*
X87029994Y-86836819D01*
X87007376Y-86785295D01*
X87004883Y-86779186D01*
X86984993Y-86726548D01*
X86984992Y-86726546D01*
X86982306Y-86719438D01*
X86978000Y-86713173D01*
X86976750Y-86710782D01*
X86968563Y-86696073D01*
X86967193Y-86693756D01*
X86964139Y-86686799D01*
X86959518Y-86680776D01*
X86959514Y-86680770D01*
X86925245Y-86636108D01*
X86921370Y-86630775D01*
X86885204Y-86578154D01*
X86841326Y-86539060D01*
X86836051Y-86534080D01*
X83977471Y-83675500D01*
X96379500Y-83675500D01*
X96379500Y-85199500D01*
X96384727Y-85272579D01*
X96425904Y-85412816D01*
X96430775Y-85420395D01*
X96500051Y-85528191D01*
X96500053Y-85528194D01*
X96504923Y-85535771D01*
X96511733Y-85541672D01*
X96608569Y-85625582D01*
X96608572Y-85625584D01*
X96615381Y-85631484D01*
X96748330Y-85692200D01*
X96757245Y-85693482D01*
X96757246Y-85693482D01*
X96888552Y-85712361D01*
X96888559Y-85712362D01*
X96893000Y-85713000D01*
X98417000Y-85713000D01*
X98490079Y-85707773D01*
X98568165Y-85684845D01*
X98621670Y-85669135D01*
X98621672Y-85669134D01*
X98630316Y-85666596D01*
X98694135Y-85625582D01*
X98745691Y-85592449D01*
X98745694Y-85592447D01*
X98753271Y-85587577D01*
X98793048Y-85541672D01*
X98843082Y-85483931D01*
X98843084Y-85483928D01*
X98848984Y-85477119D01*
X98909700Y-85344170D01*
X98926552Y-85226960D01*
X98956045Y-85162379D01*
X99015771Y-85123995D01*
X99086768Y-85123995D01*
X99148774Y-85165085D01*
X99283690Y-85329921D01*
X99287953Y-85333562D01*
X99287958Y-85333567D01*
X99437028Y-85460884D01*
X99456127Y-85477196D01*
X99467653Y-85483931D01*
X99647072Y-85588775D01*
X99647075Y-85588776D01*
X99651919Y-85591607D01*
X99657189Y-85593536D01*
X99657190Y-85593536D01*
X99859612Y-85667612D01*
X99859616Y-85667613D01*
X99864876Y-85669538D01*
X99870393Y-85670501D01*
X99870397Y-85670502D01*
X100053812Y-85702513D01*
X100088269Y-85708527D01*
X100093875Y-85708498D01*
X100093879Y-85708498D01*
X100197475Y-85707955D01*
X100315035Y-85707339D01*
X100320553Y-85706316D01*
X100320556Y-85706316D01*
X100532488Y-85667037D01*
X100532489Y-85667037D01*
X100538007Y-85666014D01*
X100543252Y-85664032D01*
X100543256Y-85664031D01*
X100662839Y-85618844D01*
X100750137Y-85585857D01*
X100944720Y-85469401D01*
X100948940Y-85465719D01*
X100948945Y-85465716D01*
X101111375Y-85324019D01*
X101115605Y-85320329D01*
X101210605Y-85201750D01*
X101253885Y-85147728D01*
X101253888Y-85147723D01*
X101257391Y-85143351D01*
X101260068Y-85138422D01*
X101331701Y-85006489D01*
X101353696Y-84965979D01*
X101403777Y-84915659D01*
X101473115Y-84900402D01*
X101539694Y-84925054D01*
X101574520Y-84964822D01*
X101680059Y-85154437D01*
X101823690Y-85329921D01*
X101827953Y-85333562D01*
X101827958Y-85333567D01*
X101977028Y-85460884D01*
X101996127Y-85477196D01*
X102007653Y-85483931D01*
X102187072Y-85588775D01*
X102187075Y-85588776D01*
X102191919Y-85591607D01*
X102197189Y-85593536D01*
X102197190Y-85593536D01*
X102399612Y-85667612D01*
X102399616Y-85667613D01*
X102404876Y-85669538D01*
X102410393Y-85670501D01*
X102410397Y-85670502D01*
X102593812Y-85702513D01*
X102628269Y-85708527D01*
X102633875Y-85708498D01*
X102633879Y-85708498D01*
X102737475Y-85707955D01*
X102855035Y-85707339D01*
X102860553Y-85706316D01*
X102860556Y-85706316D01*
X103072488Y-85667037D01*
X103072489Y-85667037D01*
X103078007Y-85666014D01*
X103083252Y-85664032D01*
X103083256Y-85664031D01*
X103202839Y-85618844D01*
X103290137Y-85585857D01*
X103484720Y-85469401D01*
X103488940Y-85465719D01*
X103488945Y-85465716D01*
X103651375Y-85324019D01*
X103655605Y-85320329D01*
X103750605Y-85201750D01*
X103793885Y-85147728D01*
X103793888Y-85147723D01*
X103797391Y-85143351D01*
X103800068Y-85138422D01*
X103871701Y-85006489D01*
X103893696Y-84965979D01*
X103943777Y-84915659D01*
X104013115Y-84900402D01*
X104079694Y-84925054D01*
X104114520Y-84964822D01*
X104220059Y-85154437D01*
X104363690Y-85329921D01*
X104367953Y-85333562D01*
X104367958Y-85333567D01*
X104517028Y-85460884D01*
X104536127Y-85477196D01*
X104547653Y-85483931D01*
X104727072Y-85588775D01*
X104727075Y-85588776D01*
X104731919Y-85591607D01*
X104737189Y-85593536D01*
X104737190Y-85593536D01*
X104939612Y-85667612D01*
X104939616Y-85667613D01*
X104944876Y-85669538D01*
X104950393Y-85670501D01*
X104950397Y-85670502D01*
X105133812Y-85702513D01*
X105168269Y-85708527D01*
X105173875Y-85708498D01*
X105173879Y-85708498D01*
X105277475Y-85707955D01*
X105395035Y-85707339D01*
X105400553Y-85706316D01*
X105400556Y-85706316D01*
X105612488Y-85667037D01*
X105612489Y-85667037D01*
X105618007Y-85666014D01*
X105623252Y-85664032D01*
X105623256Y-85664031D01*
X105742839Y-85618844D01*
X105830137Y-85585857D01*
X106024720Y-85469401D01*
X106028940Y-85465719D01*
X106028945Y-85465716D01*
X106191375Y-85324019D01*
X106195605Y-85320329D01*
X106290605Y-85201750D01*
X106333885Y-85147728D01*
X106333888Y-85147723D01*
X106337391Y-85143351D01*
X106340068Y-85138422D01*
X106411701Y-85006489D01*
X106433696Y-84965979D01*
X106483777Y-84915659D01*
X106553115Y-84900402D01*
X106619694Y-84925054D01*
X106654520Y-84964822D01*
X106760059Y-85154437D01*
X106903690Y-85329921D01*
X106907953Y-85333562D01*
X106907958Y-85333567D01*
X107057028Y-85460884D01*
X107076127Y-85477196D01*
X107087653Y-85483931D01*
X107267072Y-85588775D01*
X107267075Y-85588776D01*
X107271919Y-85591607D01*
X107277189Y-85593536D01*
X107277190Y-85593536D01*
X107479612Y-85667612D01*
X107479616Y-85667613D01*
X107484876Y-85669538D01*
X107490393Y-85670501D01*
X107490397Y-85670502D01*
X107673812Y-85702513D01*
X107708269Y-85708527D01*
X107713875Y-85708498D01*
X107713879Y-85708498D01*
X107817475Y-85707955D01*
X107935035Y-85707339D01*
X107940553Y-85706316D01*
X107940556Y-85706316D01*
X108152488Y-85667037D01*
X108152489Y-85667037D01*
X108158007Y-85666014D01*
X108163252Y-85664032D01*
X108163256Y-85664031D01*
X108282839Y-85618844D01*
X108370137Y-85585857D01*
X108564720Y-85469401D01*
X108568940Y-85465719D01*
X108568945Y-85465716D01*
X108731375Y-85324019D01*
X108735605Y-85320329D01*
X108830605Y-85201750D01*
X108873885Y-85147728D01*
X108873888Y-85147723D01*
X108877391Y-85143351D01*
X108985596Y-84944062D01*
X109056800Y-84728762D01*
X109072313Y-84619763D01*
X109088241Y-84507846D01*
X109088241Y-84507845D01*
X109088752Y-84504255D01*
X109090500Y-84437500D01*
X109070341Y-84211628D01*
X109017587Y-84018790D01*
X109011985Y-83998312D01*
X109011984Y-83998308D01*
X109010503Y-83992896D01*
X108912876Y-83788218D01*
X108780547Y-83604062D01*
X108688920Y-83515269D01*
X108621726Y-83450153D01*
X108621723Y-83450151D01*
X108617698Y-83446250D01*
X108525379Y-83384214D01*
X108434130Y-83322897D01*
X108434124Y-83322894D01*
X108429477Y-83319771D01*
X108424345Y-83317518D01*
X108424341Y-83317516D01*
X108226975Y-83230878D01*
X108226973Y-83230877D01*
X108221833Y-83228621D01*
X108057628Y-83189199D01*
X108006786Y-83176993D01*
X108006785Y-83176993D01*
X108001329Y-83175683D01*
X107887699Y-83169131D01*
X107780542Y-83162952D01*
X107780539Y-83162952D01*
X107774936Y-83162629D01*
X107549809Y-83189873D01*
X107544447Y-83191523D01*
X107544445Y-83191523D01*
X107477142Y-83212228D01*
X107333064Y-83256552D01*
X107328080Y-83259124D01*
X107328081Y-83259124D01*
X107164529Y-83343540D01*
X107131553Y-83360560D01*
X106951645Y-83498608D01*
X106947872Y-83502754D01*
X106947867Y-83502759D01*
X106883187Y-83573842D01*
X106799026Y-83666334D01*
X106796043Y-83671089D01*
X106796041Y-83671092D01*
X106694636Y-83832746D01*
X106678521Y-83858435D01*
X106676429Y-83863639D01*
X106676428Y-83863641D01*
X106661113Y-83901739D01*
X106617146Y-83957483D01*
X106550021Y-83980608D01*
X106481050Y-83963771D01*
X106430480Y-83908987D01*
X106404099Y-83853679D01*
X106372876Y-83788218D01*
X106240547Y-83604062D01*
X106148920Y-83515269D01*
X106081726Y-83450153D01*
X106081723Y-83450151D01*
X106077698Y-83446250D01*
X105985379Y-83384214D01*
X105894130Y-83322897D01*
X105894124Y-83322894D01*
X105889477Y-83319771D01*
X105884345Y-83317518D01*
X105884341Y-83317516D01*
X105686975Y-83230878D01*
X105686973Y-83230877D01*
X105681833Y-83228621D01*
X105517628Y-83189199D01*
X105466786Y-83176993D01*
X105466785Y-83176993D01*
X105461329Y-83175683D01*
X105347699Y-83169131D01*
X105240542Y-83162952D01*
X105240539Y-83162952D01*
X105234936Y-83162629D01*
X105009809Y-83189873D01*
X105004447Y-83191523D01*
X105004445Y-83191523D01*
X104937142Y-83212228D01*
X104793064Y-83256552D01*
X104788080Y-83259124D01*
X104788081Y-83259124D01*
X104624529Y-83343540D01*
X104591553Y-83360560D01*
X104411645Y-83498608D01*
X104407872Y-83502754D01*
X104407867Y-83502759D01*
X104343187Y-83573842D01*
X104259026Y-83666334D01*
X104256043Y-83671089D01*
X104256041Y-83671092D01*
X104154636Y-83832746D01*
X104138521Y-83858435D01*
X104136429Y-83863639D01*
X104136428Y-83863641D01*
X104121113Y-83901739D01*
X104077146Y-83957483D01*
X104010021Y-83980608D01*
X103941050Y-83963771D01*
X103890480Y-83908987D01*
X103864099Y-83853679D01*
X103832876Y-83788218D01*
X103700547Y-83604062D01*
X103608920Y-83515269D01*
X103541726Y-83450153D01*
X103541723Y-83450151D01*
X103537698Y-83446250D01*
X103445379Y-83384214D01*
X103354130Y-83322897D01*
X103354124Y-83322894D01*
X103349477Y-83319771D01*
X103344345Y-83317518D01*
X103344341Y-83317516D01*
X103146975Y-83230878D01*
X103146973Y-83230877D01*
X103141833Y-83228621D01*
X102977628Y-83189199D01*
X102926786Y-83176993D01*
X102926785Y-83176993D01*
X102921329Y-83175683D01*
X102807699Y-83169131D01*
X102700542Y-83162952D01*
X102700539Y-83162952D01*
X102694936Y-83162629D01*
X102469809Y-83189873D01*
X102464447Y-83191523D01*
X102464445Y-83191523D01*
X102397142Y-83212228D01*
X102253064Y-83256552D01*
X102248080Y-83259124D01*
X102248081Y-83259124D01*
X102084529Y-83343540D01*
X102051553Y-83360560D01*
X101871645Y-83498608D01*
X101867872Y-83502754D01*
X101867867Y-83502759D01*
X101803187Y-83573842D01*
X101719026Y-83666334D01*
X101716043Y-83671089D01*
X101716041Y-83671092D01*
X101614636Y-83832746D01*
X101598521Y-83858435D01*
X101596429Y-83863639D01*
X101596428Y-83863641D01*
X101581113Y-83901739D01*
X101537146Y-83957483D01*
X101470021Y-83980608D01*
X101401050Y-83963771D01*
X101350480Y-83908987D01*
X101324099Y-83853679D01*
X101292876Y-83788218D01*
X101160547Y-83604062D01*
X101068920Y-83515269D01*
X101001726Y-83450153D01*
X101001723Y-83450151D01*
X100997698Y-83446250D01*
X100905379Y-83384214D01*
X100814130Y-83322897D01*
X100814124Y-83322894D01*
X100809477Y-83319771D01*
X100804345Y-83317518D01*
X100804341Y-83317516D01*
X100606975Y-83230878D01*
X100606973Y-83230877D01*
X100601833Y-83228621D01*
X100437628Y-83189199D01*
X100386786Y-83176993D01*
X100386785Y-83176993D01*
X100381329Y-83175683D01*
X100267699Y-83169131D01*
X100160542Y-83162952D01*
X100160539Y-83162952D01*
X100154936Y-83162629D01*
X99929809Y-83189873D01*
X99924447Y-83191523D01*
X99924445Y-83191523D01*
X99857142Y-83212228D01*
X99713064Y-83256552D01*
X99708080Y-83259124D01*
X99708081Y-83259124D01*
X99544529Y-83343540D01*
X99511553Y-83360560D01*
X99331645Y-83498608D01*
X99327872Y-83502754D01*
X99327867Y-83502759D01*
X99263187Y-83573842D01*
X99179026Y-83666334D01*
X99160254Y-83696258D01*
X99107113Y-83743335D01*
X99036954Y-83754208D01*
X98972054Y-83725425D01*
X98933018Y-83666123D01*
X98927839Y-83638293D01*
X98925755Y-83609159D01*
X98925755Y-83609158D01*
X98925273Y-83602421D01*
X98884096Y-83462184D01*
X98836983Y-83388875D01*
X98809949Y-83346809D01*
X98809947Y-83346806D01*
X98805077Y-83339229D01*
X98786229Y-83322897D01*
X98701431Y-83249418D01*
X98701428Y-83249416D01*
X98694619Y-83243516D01*
X98659135Y-83227311D01*
X98569864Y-83186542D01*
X98569863Y-83186542D01*
X98561670Y-83182800D01*
X98552755Y-83181518D01*
X98552754Y-83181518D01*
X98421448Y-83162639D01*
X98421441Y-83162638D01*
X98417000Y-83162000D01*
X96893000Y-83162000D01*
X96819921Y-83167227D01*
X96766884Y-83182800D01*
X96688330Y-83205865D01*
X96688328Y-83205866D01*
X96679684Y-83208404D01*
X96672105Y-83213275D01*
X96564309Y-83282551D01*
X96564306Y-83282553D01*
X96556729Y-83287423D01*
X96550828Y-83294233D01*
X96466918Y-83391069D01*
X96466916Y-83391072D01*
X96461016Y-83397881D01*
X96457272Y-83406079D01*
X96438927Y-83446250D01*
X96400300Y-83530830D01*
X96399018Y-83539745D01*
X96399018Y-83539746D01*
X96380139Y-83671052D01*
X96380138Y-83671059D01*
X96379500Y-83675500D01*
X83977471Y-83675500D01*
X82495405Y-82193434D01*
X82461379Y-82131122D01*
X82458500Y-82104339D01*
X82458500Y-78936992D01*
X82475381Y-78873992D01*
X82531220Y-78777277D01*
X82531221Y-78777276D01*
X82534524Y-78771554D01*
X82593538Y-78589927D01*
X82613500Y-78400000D01*
X82593538Y-78210073D01*
X82534524Y-78028446D01*
X82439037Y-77863058D01*
X82311251Y-77721137D01*
X82305909Y-77717256D01*
X82305907Y-77717254D01*
X82162092Y-77612767D01*
X82162091Y-77612766D01*
X82156750Y-77608886D01*
X82150722Y-77606202D01*
X82150720Y-77606201D01*
X81988318Y-77533895D01*
X81988317Y-77533895D01*
X81982287Y-77531210D01*
X81888887Y-77511357D01*
X81801944Y-77492876D01*
X81801939Y-77492876D01*
X81795487Y-77491504D01*
X81634500Y-77491504D01*
X81566379Y-77471502D01*
X81519886Y-77417846D01*
X81508500Y-77365504D01*
X81508500Y-72718739D01*
X81532562Y-72644681D01*
X81534623Y-72641845D01*
X81539037Y-72636942D01*
X81634524Y-72471554D01*
X81693538Y-72289927D01*
X81713500Y-72100000D01*
X81693538Y-71910073D01*
X81634524Y-71728446D01*
X81539037Y-71563058D01*
X81411251Y-71421137D01*
X81405909Y-71417256D01*
X81405907Y-71417254D01*
X81262092Y-71312767D01*
X81262091Y-71312766D01*
X81256750Y-71308886D01*
X81250722Y-71306202D01*
X81250720Y-71306201D01*
X81088318Y-71233895D01*
X81088317Y-71233895D01*
X81082287Y-71231210D01*
X80988887Y-71211357D01*
X80901944Y-71192876D01*
X80901939Y-71192876D01*
X80895487Y-71191504D01*
X80704513Y-71191504D01*
X80698061Y-71192876D01*
X80698056Y-71192876D01*
X80611113Y-71211357D01*
X80517713Y-71231210D01*
X80511683Y-71233895D01*
X80511682Y-71233895D01*
X80349280Y-71306201D01*
X80349278Y-71306202D01*
X80343250Y-71308886D01*
X80337909Y-71312766D01*
X80337908Y-71312767D01*
X80194093Y-71417254D01*
X80194091Y-71417256D01*
X80188749Y-71421137D01*
X80060963Y-71563058D01*
X79965476Y-71728446D01*
X79906462Y-71910073D01*
X79886500Y-72100000D01*
X79906462Y-72289927D01*
X79965476Y-72471554D01*
X80060963Y-72636942D01*
X80065377Y-72641845D01*
X80067438Y-72644681D01*
X80091500Y-72718739D01*
X80091500Y-74148826D01*
X80071498Y-74216947D01*
X80017842Y-74263440D01*
X79947568Y-74273544D01*
X79939303Y-74272073D01*
X79801944Y-74242876D01*
X79801939Y-74242876D01*
X79795487Y-74241504D01*
X79604513Y-74241504D01*
X79598061Y-74242876D01*
X79598056Y-74242876D01*
X79511113Y-74261357D01*
X79417713Y-74281210D01*
X79411683Y-74283895D01*
X79411682Y-74283895D01*
X79249280Y-74356201D01*
X79249278Y-74356202D01*
X79243250Y-74358886D01*
X79237909Y-74362766D01*
X79237908Y-74362767D01*
X79094093Y-74467254D01*
X79094091Y-74467256D01*
X79088749Y-74471137D01*
X78960963Y-74613058D01*
X78865476Y-74778446D01*
X78806462Y-74960073D01*
X78786500Y-75150000D01*
X78787190Y-75156565D01*
X78801373Y-75291504D01*
X78806462Y-75339927D01*
X78865476Y-75521554D01*
X78868779Y-75527276D01*
X78868780Y-75527277D01*
X78948177Y-75664796D01*
X78960963Y-75686942D01*
X78962834Y-75689020D01*
X78986500Y-75761856D01*
X78986500Y-82621668D01*
X78969619Y-82684667D01*
X78915476Y-82778446D01*
X78856462Y-82960073D01*
X78836500Y-83150000D01*
X78837190Y-83156565D01*
X78854344Y-83319771D01*
X78856462Y-83339927D01*
X78915476Y-83521554D01*
X78918779Y-83527276D01*
X78918780Y-83527277D01*
X78925979Y-83539746D01*
X79010963Y-83686942D01*
X79015381Y-83691849D01*
X79015382Y-83691850D01*
X79125426Y-83814066D01*
X79138749Y-83828863D01*
X79144091Y-83832744D01*
X79144093Y-83832746D01*
X79287908Y-83937233D01*
X79293250Y-83941114D01*
X79299278Y-83943798D01*
X79299280Y-83943799D01*
X79461682Y-84016105D01*
X79467713Y-84018790D01*
X79561113Y-84038643D01*
X79648056Y-84057124D01*
X79648061Y-84057124D01*
X79654513Y-84058496D01*
X79845487Y-84058496D01*
X79851939Y-84057124D01*
X79851944Y-84057124D01*
X79938887Y-84038643D01*
X80032287Y-84018790D01*
X80038318Y-84016105D01*
X80200720Y-83943799D01*
X80200722Y-83943798D01*
X80206750Y-83941114D01*
X80212092Y-83937233D01*
X80355907Y-83832746D01*
X80355909Y-83832744D01*
X80361251Y-83828863D01*
X80374574Y-83814066D01*
X80435018Y-83776824D01*
X80506002Y-83778173D01*
X80557308Y-83809278D01*
X84170448Y-87422419D01*
X84204474Y-87484731D01*
X84199409Y-87555547D01*
X84163934Y-87606679D01*
X84098995Y-87663030D01*
X84067464Y-87690391D01*
X84022492Y-87729415D01*
X84019109Y-87733541D01*
X84019105Y-87733545D01*
X83985896Y-87774047D01*
X83876304Y-87907705D01*
X83873665Y-87912341D01*
X83873663Y-87912344D01*
X83816263Y-88013181D01*
X83762245Y-88108077D01*
X83683578Y-88324802D01*
X83682629Y-88330051D01*
X83682628Y-88330054D01*
X83643501Y-88546429D01*
X83642551Y-88551683D01*
X83642500Y-88557023D01*
X83640602Y-88754775D01*
X83640338Y-88782233D01*
X83677002Y-89009861D01*
X83751494Y-89228056D01*
X83754044Y-89232743D01*
X83754045Y-89232745D01*
X83779223Y-89279021D01*
X83861685Y-89430580D01*
X84004424Y-89611644D01*
X84008389Y-89615220D01*
X84171659Y-89762489D01*
X84171665Y-89762494D01*
X84175629Y-89766069D01*
X84180142Y-89768928D01*
X84180144Y-89768929D01*
X84298242Y-89843731D01*
X84345087Y-89897079D01*
X84355654Y-89967285D01*
X84326587Y-90032058D01*
X84296186Y-90057894D01*
X84201196Y-90115535D01*
X84201191Y-90115539D01*
X84196631Y-90118306D01*
X84192601Y-90121803D01*
X84067464Y-90230391D01*
X84022492Y-90269415D01*
X84019109Y-90273541D01*
X84019105Y-90273545D01*
X84003596Y-90292460D01*
X83876304Y-90447705D01*
X83873665Y-90452341D01*
X83873663Y-90452344D01*
X83814156Y-90556882D01*
X83762245Y-90648077D01*
X83683578Y-90864802D01*
X83682629Y-90870051D01*
X83682628Y-90870054D01*
X83656861Y-91012549D01*
X83642551Y-91091683D01*
X83642500Y-91097023D01*
X83640417Y-91314032D01*
X83640338Y-91322233D01*
X83641187Y-91327503D01*
X83641187Y-91327504D01*
X83676131Y-91544452D01*
X83677002Y-91549861D01*
X83684255Y-91571104D01*
X83685513Y-91574790D01*
X83688593Y-91645719D01*
X83652837Y-91707055D01*
X83589597Y-91739322D01*
X83566271Y-91741500D01*
X78405660Y-91741500D01*
X78337539Y-91721498D01*
X78316565Y-91704595D01*
X70945405Y-84333434D01*
X70911379Y-84271122D01*
X70908500Y-84244339D01*
X70908500Y-83569719D01*
X70928502Y-83501598D01*
X70939114Y-83487393D01*
X71028176Y-83384214D01*
X71125878Y-83212228D01*
X71188314Y-83024539D01*
X71213105Y-82828299D01*
X71213500Y-82800000D01*
X71194198Y-82603143D01*
X71137027Y-82413785D01*
X71044166Y-82239138D01*
X71040272Y-82234363D01*
X71040267Y-82234356D01*
X70931857Y-82101432D01*
X70904303Y-82036001D01*
X70903500Y-82021797D01*
X70903500Y-71037800D01*
X73884700Y-71037800D01*
X73904662Y-71227727D01*
X73963676Y-71409354D01*
X74059163Y-71574742D01*
X74186949Y-71716663D01*
X74192291Y-71720544D01*
X74192293Y-71720546D01*
X74336108Y-71825033D01*
X74341450Y-71828914D01*
X74347478Y-71831598D01*
X74347480Y-71831599D01*
X74509633Y-71903794D01*
X74515913Y-71906590D01*
X74609313Y-71926443D01*
X74696256Y-71944924D01*
X74696261Y-71944924D01*
X74702713Y-71946296D01*
X74893687Y-71946296D01*
X74900139Y-71944924D01*
X74900144Y-71944924D01*
X74987087Y-71926443D01*
X75080487Y-71906590D01*
X75086767Y-71903794D01*
X75248920Y-71831599D01*
X75248922Y-71831598D01*
X75254950Y-71828914D01*
X75260292Y-71825033D01*
X75404107Y-71720546D01*
X75404109Y-71720544D01*
X75409451Y-71716663D01*
X75537237Y-71574742D01*
X75632724Y-71409354D01*
X75642681Y-71378709D01*
X75673419Y-71328551D01*
X88982629Y-58019341D01*
X88988895Y-58013487D01*
X89024509Y-57982419D01*
X89030234Y-57977425D01*
X89066973Y-57925151D01*
X89070905Y-57919857D01*
X89105615Y-57875590D01*
X89105616Y-57875588D01*
X89110302Y-57869612D01*
X89113428Y-57862688D01*
X89114829Y-57860375D01*
X89123166Y-57845759D01*
X89124441Y-57843382D01*
X89128810Y-57837165D01*
X89132210Y-57828446D01*
X89152010Y-57777659D01*
X89154566Y-57771577D01*
X89177724Y-57720289D01*
X89177725Y-57720287D01*
X89180850Y-57713365D01*
X89182234Y-57705895D01*
X89183038Y-57703330D01*
X89187662Y-57687098D01*
X89188325Y-57684517D01*
X89191084Y-57677440D01*
X89199422Y-57614104D01*
X89200453Y-57607596D01*
X89204482Y-57585861D01*
X89212092Y-57544801D01*
X89210728Y-57521137D01*
X89209420Y-57498463D01*
X89208709Y-57486131D01*
X89208500Y-57478880D01*
X89208500Y-55307589D01*
X96382017Y-55307589D01*
X96416318Y-55531749D01*
X96489773Y-55746293D01*
X96600059Y-55944437D01*
X96743690Y-56119921D01*
X96747953Y-56123562D01*
X96747958Y-56123567D01*
X96897028Y-56250884D01*
X96916127Y-56267196D01*
X96935232Y-56278360D01*
X97107072Y-56378775D01*
X97107075Y-56378776D01*
X97111919Y-56381607D01*
X97117189Y-56383536D01*
X97117190Y-56383536D01*
X97319612Y-56457612D01*
X97319616Y-56457613D01*
X97324876Y-56459538D01*
X97330393Y-56460501D01*
X97330397Y-56460502D01*
X97513812Y-56492513D01*
X97548269Y-56498527D01*
X97553875Y-56498498D01*
X97553879Y-56498498D01*
X97657475Y-56497955D01*
X97775035Y-56497339D01*
X97780553Y-56496316D01*
X97780556Y-56496316D01*
X97992488Y-56457037D01*
X97992489Y-56457037D01*
X97998007Y-56456014D01*
X98003252Y-56454032D01*
X98003256Y-56454031D01*
X98122839Y-56408844D01*
X98210137Y-56375857D01*
X98215705Y-56372525D01*
X98266950Y-56341855D01*
X98357045Y-56287934D01*
X99499396Y-56287934D01*
X99504677Y-56294988D01*
X99647287Y-56378323D01*
X99657401Y-56383083D01*
X99859742Y-56457129D01*
X99870527Y-56460019D01*
X100082788Y-56497064D01*
X100093920Y-56497999D01*
X100309373Y-56496871D01*
X100320507Y-56495819D01*
X100532353Y-56456555D01*
X100543124Y-56453548D01*
X100744674Y-56377388D01*
X100754734Y-56372525D01*
X100880622Y-56297182D01*
X100890193Y-56286823D01*
X100886650Y-56278360D01*
X100207812Y-55599522D01*
X100193868Y-55591908D01*
X100192035Y-55592039D01*
X100185420Y-55596290D01*
X99506156Y-56275554D01*
X99499396Y-56287934D01*
X98357045Y-56287934D01*
X98404720Y-56259401D01*
X98408940Y-56255719D01*
X98408945Y-56255716D01*
X98571375Y-56114019D01*
X98575605Y-56110329D01*
X98586882Y-56096253D01*
X98713885Y-55937728D01*
X98713888Y-55937723D01*
X98717391Y-55933351D01*
X98786295Y-55806445D01*
X98813977Y-55755462D01*
X98864060Y-55705140D01*
X98933398Y-55689884D01*
X98999977Y-55714536D01*
X99034804Y-55754306D01*
X99124032Y-55914620D01*
X99134083Y-55924509D01*
X99141688Y-55921602D01*
X99822978Y-55240312D01*
X99829356Y-55228632D01*
X100559408Y-55228632D01*
X100559539Y-55230465D01*
X100563790Y-55237080D01*
X101245151Y-55918441D01*
X101257531Y-55925201D01*
X101263795Y-55920512D01*
X101353409Y-55755465D01*
X101403492Y-55705143D01*
X101472830Y-55689887D01*
X101539409Y-55714540D01*
X101574234Y-55754308D01*
X101680059Y-55944437D01*
X101823690Y-56119921D01*
X101827953Y-56123562D01*
X101827958Y-56123567D01*
X101977028Y-56250884D01*
X101996127Y-56267196D01*
X102015232Y-56278360D01*
X102187072Y-56378775D01*
X102187075Y-56378776D01*
X102191919Y-56381607D01*
X102197189Y-56383536D01*
X102197190Y-56383536D01*
X102399612Y-56457612D01*
X102399616Y-56457613D01*
X102404876Y-56459538D01*
X102410393Y-56460501D01*
X102410397Y-56460502D01*
X102593812Y-56492513D01*
X102628269Y-56498527D01*
X102633875Y-56498498D01*
X102633879Y-56498498D01*
X102737475Y-56497955D01*
X102855035Y-56497339D01*
X102860553Y-56496316D01*
X102860556Y-56496316D01*
X103072488Y-56457037D01*
X103072489Y-56457037D01*
X103078007Y-56456014D01*
X103083252Y-56454032D01*
X103083256Y-56454031D01*
X103202839Y-56408844D01*
X103290137Y-56375857D01*
X103295705Y-56372525D01*
X103346950Y-56341855D01*
X103484720Y-56259401D01*
X103488940Y-56255719D01*
X103488945Y-56255716D01*
X103651375Y-56114019D01*
X103655605Y-56110329D01*
X103666882Y-56096253D01*
X103793885Y-55937728D01*
X103793888Y-55937723D01*
X103797391Y-55933351D01*
X103800068Y-55928422D01*
X103853555Y-55829910D01*
X103893696Y-55755979D01*
X103943777Y-55705659D01*
X104013115Y-55690402D01*
X104079694Y-55715054D01*
X104114520Y-55754822D01*
X104220059Y-55944437D01*
X104363690Y-56119921D01*
X104367953Y-56123562D01*
X104367958Y-56123567D01*
X104517028Y-56250884D01*
X104536127Y-56267196D01*
X104555232Y-56278360D01*
X104727072Y-56378775D01*
X104727075Y-56378776D01*
X104731919Y-56381607D01*
X104737189Y-56383536D01*
X104737190Y-56383536D01*
X104939612Y-56457612D01*
X104939616Y-56457613D01*
X104944876Y-56459538D01*
X104950393Y-56460501D01*
X104950397Y-56460502D01*
X105133812Y-56492513D01*
X105168269Y-56498527D01*
X105173875Y-56498498D01*
X105173879Y-56498498D01*
X105277475Y-56497955D01*
X105395035Y-56497339D01*
X105400553Y-56496316D01*
X105400556Y-56496316D01*
X105612488Y-56457037D01*
X105612489Y-56457037D01*
X105618007Y-56456014D01*
X105623252Y-56454032D01*
X105623256Y-56454031D01*
X105742839Y-56408844D01*
X105830137Y-56375857D01*
X105835705Y-56372525D01*
X105886950Y-56341855D01*
X106024720Y-56259401D01*
X106028940Y-56255719D01*
X106028945Y-56255716D01*
X106191375Y-56114019D01*
X106195605Y-56110329D01*
X106206882Y-56096253D01*
X106333885Y-55937728D01*
X106333888Y-55937723D01*
X106337391Y-55933351D01*
X106445596Y-55734062D01*
X106516800Y-55518762D01*
X106538847Y-55363854D01*
X106548241Y-55297846D01*
X106548241Y-55297845D01*
X106548752Y-55294255D01*
X106550500Y-55227500D01*
X106530341Y-55001628D01*
X106490359Y-54855478D01*
X106471985Y-54788312D01*
X106471984Y-54788308D01*
X106470503Y-54782896D01*
X106372876Y-54578218D01*
X106240547Y-54394062D01*
X106128203Y-54285193D01*
X106081726Y-54240153D01*
X106081723Y-54240151D01*
X106077698Y-54236250D01*
X105978267Y-54169435D01*
X105894130Y-54112897D01*
X105894124Y-54112894D01*
X105889477Y-54109771D01*
X105884345Y-54107518D01*
X105884341Y-54107516D01*
X105686975Y-54020878D01*
X105686973Y-54020877D01*
X105681833Y-54018621D01*
X105520435Y-53979873D01*
X105466786Y-53966993D01*
X105466785Y-53966993D01*
X105461329Y-53965683D01*
X105362389Y-53959978D01*
X105240542Y-53952952D01*
X105240539Y-53952952D01*
X105234936Y-53952629D01*
X105009809Y-53979873D01*
X105004447Y-53981523D01*
X105004445Y-53981523D01*
X104920448Y-54007364D01*
X104793064Y-54046552D01*
X104716864Y-54085882D01*
X104598662Y-54146891D01*
X104591553Y-54150560D01*
X104411645Y-54288608D01*
X104407872Y-54292754D01*
X104407867Y-54292759D01*
X104319244Y-54390155D01*
X104259026Y-54456334D01*
X104256043Y-54461090D01*
X104256041Y-54461092D01*
X104165517Y-54605400D01*
X104138521Y-54648435D01*
X104136429Y-54653639D01*
X104136428Y-54653641D01*
X104121113Y-54691739D01*
X104077146Y-54747483D01*
X104010021Y-54770608D01*
X103941050Y-54753771D01*
X103890480Y-54698987D01*
X103887322Y-54692366D01*
X103832876Y-54578218D01*
X103700547Y-54394062D01*
X103588203Y-54285193D01*
X103541726Y-54240153D01*
X103541723Y-54240151D01*
X103537698Y-54236250D01*
X103438267Y-54169435D01*
X103354130Y-54112897D01*
X103354124Y-54112894D01*
X103349477Y-54109771D01*
X103344345Y-54107518D01*
X103344341Y-54107516D01*
X103146975Y-54020878D01*
X103146973Y-54020877D01*
X103141833Y-54018621D01*
X102980435Y-53979873D01*
X102926786Y-53966993D01*
X102926785Y-53966993D01*
X102921329Y-53965683D01*
X102822389Y-53959978D01*
X102700542Y-53952952D01*
X102700539Y-53952952D01*
X102694936Y-53952629D01*
X102469809Y-53979873D01*
X102464447Y-53981523D01*
X102464445Y-53981523D01*
X102380448Y-54007364D01*
X102253064Y-54046552D01*
X102176864Y-54085882D01*
X102058662Y-54146891D01*
X102051553Y-54150560D01*
X101871645Y-54288608D01*
X101867872Y-54292754D01*
X101867867Y-54292759D01*
X101779244Y-54390155D01*
X101719026Y-54456334D01*
X101716043Y-54461090D01*
X101716041Y-54461092D01*
X101625517Y-54605400D01*
X101598521Y-54648435D01*
X101596429Y-54653639D01*
X101596428Y-54653641D01*
X101580861Y-54692366D01*
X101536894Y-54748110D01*
X101469769Y-54771235D01*
X101400798Y-54754398D01*
X101350228Y-54699614D01*
X101294861Y-54583534D01*
X101289171Y-54573915D01*
X101265717Y-54541275D01*
X101254927Y-54532865D01*
X101241890Y-54539820D01*
X100567022Y-55214688D01*
X100559408Y-55228632D01*
X99829356Y-55228632D01*
X99830592Y-55226368D01*
X99830461Y-55224535D01*
X99826210Y-55217920D01*
X99148099Y-54539809D01*
X99135719Y-54533049D01*
X99127747Y-54539017D01*
X99061953Y-54643903D01*
X99056873Y-54653871D01*
X99041406Y-54692348D01*
X98997439Y-54748093D01*
X98930315Y-54771219D01*
X98861343Y-54754383D01*
X98810773Y-54699598D01*
X98755295Y-54583287D01*
X98755289Y-54583277D01*
X98752876Y-54578218D01*
X98620547Y-54394062D01*
X98508203Y-54285193D01*
X98461726Y-54240153D01*
X98461723Y-54240151D01*
X98457698Y-54236250D01*
X98358267Y-54169435D01*
X98353697Y-54166364D01*
X99498419Y-54166364D01*
X99505052Y-54178342D01*
X100182188Y-54855478D01*
X100196132Y-54863092D01*
X100197965Y-54862961D01*
X100204580Y-54858710D01*
X100882457Y-54180833D01*
X100888681Y-54169435D01*
X100878870Y-54157001D01*
X100813896Y-54113341D01*
X100804096Y-54107953D01*
X100606815Y-54021352D01*
X100596216Y-54017785D01*
X100386713Y-53967488D01*
X100375651Y-53965855D01*
X100160558Y-53953452D01*
X100149374Y-53953804D01*
X99935485Y-53979688D01*
X99924551Y-53982012D01*
X99718614Y-54045366D01*
X99708269Y-54049587D01*
X99516802Y-54148411D01*
X99507371Y-54154396D01*
X99506884Y-54154770D01*
X99498419Y-54166364D01*
X98353697Y-54166364D01*
X98274130Y-54112897D01*
X98274124Y-54112894D01*
X98269477Y-54109771D01*
X98264345Y-54107518D01*
X98264341Y-54107516D01*
X98066975Y-54020878D01*
X98066973Y-54020877D01*
X98061833Y-54018621D01*
X97900435Y-53979873D01*
X97846786Y-53966993D01*
X97846785Y-53966993D01*
X97841329Y-53965683D01*
X97742389Y-53959978D01*
X97620542Y-53952952D01*
X97620539Y-53952952D01*
X97614936Y-53952629D01*
X97389809Y-53979873D01*
X97384447Y-53981523D01*
X97384445Y-53981523D01*
X97300448Y-54007364D01*
X97173064Y-54046552D01*
X97096864Y-54085882D01*
X96978662Y-54146891D01*
X96971553Y-54150560D01*
X96791645Y-54288608D01*
X96787872Y-54292754D01*
X96787867Y-54292759D01*
X96699244Y-54390155D01*
X96639026Y-54456334D01*
X96636043Y-54461090D01*
X96636041Y-54461092D01*
X96545517Y-54605400D01*
X96518521Y-54648435D01*
X96433939Y-54858840D01*
X96387953Y-55080898D01*
X96382017Y-55307589D01*
X89208500Y-55307589D01*
X89208500Y-51545660D01*
X89228502Y-51477539D01*
X89245405Y-51456565D01*
X89356561Y-51345409D01*
X89418873Y-51311383D01*
X89435985Y-51308876D01*
X89490115Y-51304711D01*
X89569851Y-51298576D01*
X89569856Y-51298575D01*
X89575992Y-51298103D01*
X89581924Y-51296447D01*
X89581928Y-51296446D01*
X89671250Y-51271506D01*
X89766507Y-51244910D01*
X89943060Y-51155726D01*
X89953290Y-51147734D01*
X90094073Y-51037742D01*
X90098929Y-51033948D01*
X90108759Y-51022560D01*
X90224147Y-50888882D01*
X90224148Y-50888880D01*
X90228176Y-50884214D01*
X90325878Y-50712228D01*
X90388314Y-50524539D01*
X90413105Y-50328299D01*
X90413500Y-50300000D01*
X90394198Y-50103143D01*
X90337027Y-49913785D01*
X90244166Y-49739138D01*
X90173973Y-49653073D01*
X90123045Y-49590628D01*
X90123042Y-49590625D01*
X90119150Y-49585853D01*
X90114401Y-49581924D01*
X89971491Y-49463698D01*
X89971486Y-49463695D01*
X89966742Y-49459770D01*
X89961323Y-49456840D01*
X89961320Y-49456838D01*
X89798165Y-49368621D01*
X89798161Y-49368619D01*
X89792747Y-49365692D01*
X89786867Y-49363872D01*
X89786865Y-49363871D01*
X89727954Y-49345635D01*
X89668795Y-49306383D01*
X89640248Y-49241379D01*
X89651377Y-49171260D01*
X89698648Y-49118289D01*
X89713965Y-49110163D01*
X89750720Y-49093799D01*
X89750722Y-49093798D01*
X89756750Y-49091114D01*
X89789164Y-49067564D01*
X89905907Y-48982746D01*
X89905909Y-48982744D01*
X89911251Y-48978863D01*
X89991329Y-48889927D01*
X90034618Y-48841850D01*
X90034619Y-48841849D01*
X90039037Y-48836942D01*
X90097841Y-48735091D01*
X90131220Y-48677277D01*
X90131221Y-48677276D01*
X90134524Y-48671554D01*
X90159214Y-48595565D01*
X90199287Y-48536959D01*
X90264683Y-48509321D01*
X90279047Y-48508500D01*
X100669296Y-48508500D01*
X100737417Y-48528502D01*
X100762928Y-48550186D01*
X100788749Y-48578863D01*
X100794091Y-48582744D01*
X100794093Y-48582746D01*
X100914412Y-48670162D01*
X100943250Y-48691114D01*
X100949278Y-48693798D01*
X100949280Y-48693799D01*
X101109025Y-48764922D01*
X101117713Y-48768790D01*
X101211113Y-48788643D01*
X101298056Y-48807124D01*
X101298061Y-48807124D01*
X101304513Y-48808496D01*
X101495487Y-48808496D01*
X101501939Y-48807124D01*
X101501944Y-48807124D01*
X101588887Y-48788643D01*
X101682287Y-48768790D01*
X101690975Y-48764922D01*
X101850720Y-48693799D01*
X101850722Y-48693798D01*
X101856750Y-48691114D01*
X101885588Y-48670162D01*
X102005907Y-48582746D01*
X102005909Y-48582744D01*
X102011251Y-48578863D01*
X102037070Y-48550188D01*
X102097513Y-48512950D01*
X102130704Y-48508500D01*
X105488601Y-48508500D01*
X105562661Y-48532563D01*
X105643250Y-48591114D01*
X105649278Y-48593798D01*
X105649280Y-48593799D01*
X105653247Y-48595565D01*
X105817713Y-48668790D01*
X105904480Y-48687233D01*
X105998056Y-48707124D01*
X105998061Y-48707124D01*
X106004513Y-48708496D01*
X106195487Y-48708496D01*
X106201939Y-48707124D01*
X106201944Y-48707124D01*
X106295520Y-48687233D01*
X106382287Y-48668790D01*
X106546753Y-48595565D01*
X106550720Y-48593799D01*
X106550722Y-48593798D01*
X106556750Y-48591114D01*
X106580365Y-48573957D01*
X106705907Y-48482746D01*
X106705909Y-48482744D01*
X106711251Y-48478863D01*
X106839037Y-48336942D01*
X106934524Y-48171554D01*
X106993538Y-47989927D01*
X106996895Y-47957992D01*
X107012810Y-47806565D01*
X107013500Y-47800000D01*
X106998896Y-47661048D01*
X106994228Y-47616637D01*
X106994228Y-47616636D01*
X106993538Y-47610073D01*
X106934524Y-47428446D01*
X106913196Y-47391504D01*
X106842338Y-47268776D01*
X106839037Y-47263058D01*
X106711251Y-47121137D01*
X106705909Y-47117256D01*
X106705907Y-47117254D01*
X106562092Y-47012767D01*
X106562091Y-47012766D01*
X106556750Y-47008886D01*
X106550722Y-47006202D01*
X106550720Y-47006201D01*
X106388318Y-46933895D01*
X106388317Y-46933895D01*
X106382287Y-46931210D01*
X106288887Y-46911357D01*
X106201944Y-46892876D01*
X106201939Y-46892876D01*
X106195487Y-46891504D01*
X106004513Y-46891504D01*
X105998061Y-46892876D01*
X105998056Y-46892876D01*
X105911113Y-46911357D01*
X105817713Y-46931210D01*
X105811683Y-46933895D01*
X105811682Y-46933895D01*
X105649280Y-47006201D01*
X105649278Y-47006202D01*
X105643250Y-47008886D01*
X105608828Y-47033895D01*
X105562661Y-47067437D01*
X105488601Y-47091500D01*
X101844483Y-47091500D01*
X101793234Y-47080607D01*
X101688318Y-47033895D01*
X101688316Y-47033894D01*
X101682287Y-47031210D01*
X101577262Y-47008886D01*
X101501944Y-46992876D01*
X101501939Y-46992876D01*
X101495487Y-46991504D01*
X101304513Y-46991504D01*
X101298061Y-46992876D01*
X101298056Y-46992876D01*
X101222738Y-47008886D01*
X101117713Y-47031210D01*
X101111684Y-47033894D01*
X101111682Y-47033895D01*
X101006766Y-47080607D01*
X100955517Y-47091500D01*
X89825954Y-47091500D01*
X89817383Y-47091208D01*
X89762659Y-47087477D01*
X89699691Y-47098466D01*
X89693201Y-47099424D01*
X89629806Y-47107096D01*
X89622698Y-47109782D01*
X89620088Y-47110423D01*
X89603831Y-47114870D01*
X89601263Y-47115645D01*
X89593776Y-47116952D01*
X89573055Y-47126048D01*
X89535294Y-47142624D01*
X89529186Y-47145117D01*
X89527744Y-47145662D01*
X89469438Y-47167694D01*
X89463173Y-47172000D01*
X89460782Y-47173250D01*
X89446080Y-47181433D01*
X89443757Y-47182807D01*
X89436799Y-47185861D01*
X89430772Y-47190486D01*
X89430768Y-47190488D01*
X89386122Y-47224746D01*
X89380797Y-47228615D01*
X89328154Y-47264796D01*
X89323097Y-47270472D01*
X89289061Y-47308672D01*
X89284082Y-47313947D01*
X89247627Y-47350403D01*
X89233461Y-47364569D01*
X89170563Y-47398720D01*
X89017713Y-47431210D01*
X89011683Y-47433895D01*
X89011682Y-47433895D01*
X88849280Y-47506201D01*
X88849278Y-47506202D01*
X88843250Y-47508886D01*
X88837909Y-47512766D01*
X88837908Y-47512767D01*
X88714489Y-47602436D01*
X88640428Y-47626500D01*
X84156399Y-47626500D01*
X84082339Y-47602437D01*
X84074039Y-47596407D01*
X84001750Y-47543886D01*
X83995722Y-47541202D01*
X83995720Y-47541201D01*
X83833318Y-47468895D01*
X83833317Y-47468895D01*
X83827287Y-47466210D01*
X83733887Y-47446357D01*
X83646944Y-47427876D01*
X83646939Y-47427876D01*
X83640487Y-47426504D01*
X83449513Y-47426504D01*
X83443061Y-47427876D01*
X83443056Y-47427876D01*
X83356113Y-47446357D01*
X83262713Y-47466210D01*
X83256683Y-47468895D01*
X83256682Y-47468895D01*
X83094280Y-47541201D01*
X83094278Y-47541202D01*
X83088250Y-47543886D01*
X83082909Y-47547766D01*
X83082908Y-47547767D01*
X82939093Y-47652254D01*
X82939091Y-47652256D01*
X82933749Y-47656137D01*
X82929328Y-47661047D01*
X82929327Y-47661048D01*
X82855707Y-47742812D01*
X82805963Y-47798058D01*
X82752643Y-47890411D01*
X82715930Y-47954000D01*
X82710476Y-47963446D01*
X82708434Y-47969731D01*
X82668263Y-48093366D01*
X82651462Y-48145073D01*
X82650772Y-48151636D01*
X82650772Y-48151637D01*
X82649572Y-48163058D01*
X82631500Y-48335000D01*
X82632190Y-48341565D01*
X82649863Y-48509709D01*
X82651462Y-48524927D01*
X82710476Y-48706554D01*
X82805963Y-48871942D01*
X82933749Y-49013863D01*
X82939091Y-49017744D01*
X82939093Y-49017746D01*
X83040076Y-49091114D01*
X83088250Y-49126114D01*
X83094278Y-49128798D01*
X83094280Y-49128799D01*
X83189649Y-49171260D01*
X83262713Y-49203790D01*
X83356113Y-49223643D01*
X83443056Y-49242124D01*
X83443061Y-49242124D01*
X83449513Y-49243496D01*
X83640487Y-49243496D01*
X83646939Y-49242124D01*
X83646944Y-49242124D01*
X83733887Y-49223643D01*
X83827287Y-49203790D01*
X83900351Y-49171260D01*
X83995720Y-49128799D01*
X83995722Y-49128798D01*
X84001750Y-49126114D01*
X84082339Y-49067563D01*
X84156399Y-49043500D01*
X88736775Y-49043500D01*
X88810836Y-49067564D01*
X88843250Y-49091114D01*
X88849278Y-49093798D01*
X88849280Y-49093799D01*
X88978856Y-49151490D01*
X89032952Y-49197470D01*
X89053601Y-49265398D01*
X89034249Y-49333706D01*
X88985982Y-49378259D01*
X88845045Y-49451939D01*
X88690891Y-49575882D01*
X88686933Y-49580599D01*
X88686931Y-49580601D01*
X88603347Y-49680213D01*
X88563747Y-49727406D01*
X88560783Y-49732798D01*
X88560780Y-49732802D01*
X88483031Y-49874227D01*
X88468456Y-49900740D01*
X88466595Y-49906607D01*
X88466594Y-49906609D01*
X88429641Y-50023099D01*
X88408647Y-50089282D01*
X88400380Y-50162987D01*
X88388285Y-50270814D01*
X88360814Y-50336281D01*
X88352165Y-50345864D01*
X88017363Y-50680666D01*
X88011098Y-50686519D01*
X87969766Y-50722575D01*
X87933039Y-50774833D01*
X87929107Y-50780127D01*
X87889698Y-50830388D01*
X87886572Y-50837312D01*
X87885171Y-50839625D01*
X87876834Y-50854241D01*
X87875559Y-50856618D01*
X87871190Y-50862835D01*
X87868430Y-50869914D01*
X87868429Y-50869916D01*
X87847990Y-50922341D01*
X87845437Y-50928417D01*
X87819150Y-50986635D01*
X87817766Y-50994105D01*
X87816962Y-50996670D01*
X87812338Y-51012902D01*
X87811675Y-51015483D01*
X87808916Y-51022560D01*
X87800579Y-51085887D01*
X87799550Y-51092388D01*
X87787908Y-51155199D01*
X87788345Y-51162779D01*
X87788345Y-51162780D01*
X87791291Y-51213874D01*
X87791500Y-51221127D01*
X87791500Y-54049806D01*
X87771498Y-54117927D01*
X87717842Y-54164420D01*
X87647568Y-54174524D01*
X87585185Y-54146891D01*
X87466491Y-54048698D01*
X87466486Y-54048695D01*
X87461742Y-54044770D01*
X87456323Y-54041840D01*
X87456320Y-54041838D01*
X87293165Y-53953621D01*
X87293161Y-53953619D01*
X87287747Y-53950692D01*
X87281867Y-53948872D01*
X87281865Y-53948871D01*
X87232317Y-53933533D01*
X87098792Y-53892200D01*
X87092674Y-53891557D01*
X87092669Y-53891556D01*
X86908205Y-53872169D01*
X86908203Y-53872169D01*
X86902076Y-53871525D01*
X86824103Y-53878621D01*
X86711228Y-53888893D01*
X86711225Y-53888894D01*
X86705089Y-53889452D01*
X86699183Y-53891190D01*
X86699179Y-53891191D01*
X86557779Y-53932808D01*
X86515336Y-53945299D01*
X86340045Y-54036939D01*
X86338718Y-54034401D01*
X86281329Y-54051500D01*
X79755899Y-54051500D01*
X79687778Y-54031498D01*
X79675591Y-54022591D01*
X79611742Y-53969770D01*
X79606325Y-53966841D01*
X79606322Y-53966839D01*
X79443165Y-53878621D01*
X79443161Y-53878619D01*
X79437747Y-53875692D01*
X79431867Y-53873872D01*
X79431865Y-53873871D01*
X79382317Y-53858533D01*
X79248792Y-53817200D01*
X79242674Y-53816557D01*
X79242669Y-53816556D01*
X79058205Y-53797169D01*
X79058203Y-53797169D01*
X79052076Y-53796525D01*
X78969226Y-53804065D01*
X78861228Y-53813893D01*
X78861225Y-53813894D01*
X78855089Y-53814452D01*
X78849183Y-53816190D01*
X78849179Y-53816191D01*
X78707779Y-53857808D01*
X78665336Y-53870299D01*
X78490045Y-53961939D01*
X78335891Y-54085882D01*
X78331933Y-54090599D01*
X78331931Y-54090601D01*
X78278756Y-54153973D01*
X78208747Y-54237406D01*
X78205783Y-54242798D01*
X78205780Y-54242802D01*
X78178316Y-54292759D01*
X78113456Y-54410740D01*
X78111595Y-54416607D01*
X78111594Y-54416609D01*
X78055509Y-54593412D01*
X78053647Y-54599282D01*
X78031599Y-54795849D01*
X78048150Y-54992956D01*
X78102672Y-55183094D01*
X78105487Y-55188571D01*
X78163773Y-55301983D01*
X78193086Y-55359021D01*
X78315949Y-55514036D01*
X78320636Y-55518025D01*
X78320639Y-55518028D01*
X78416394Y-55599522D01*
X78466582Y-55642235D01*
X78471960Y-55645241D01*
X78471962Y-55645242D01*
X78606159Y-55720242D01*
X78639246Y-55738734D01*
X78827366Y-55799857D01*
X79023775Y-55823278D01*
X79029910Y-55822806D01*
X79029912Y-55822806D01*
X79214850Y-55808576D01*
X79214854Y-55808575D01*
X79220992Y-55808103D01*
X79411507Y-55754910D01*
X79588060Y-55665726D01*
X79614279Y-55645242D01*
X79657958Y-55611116D01*
X79678316Y-55595211D01*
X79744309Y-55569033D01*
X79755888Y-55568500D01*
X86095460Y-55568500D01*
X86163581Y-55588502D01*
X86177123Y-55598546D01*
X86231991Y-55645242D01*
X86316582Y-55717235D01*
X86321960Y-55720241D01*
X86321962Y-55720242D01*
X86480017Y-55808576D01*
X86489246Y-55813734D01*
X86677366Y-55874857D01*
X86873775Y-55898278D01*
X86879910Y-55897806D01*
X86879912Y-55897806D01*
X87064850Y-55883576D01*
X87064854Y-55883575D01*
X87070992Y-55883103D01*
X87261507Y-55829910D01*
X87438060Y-55740726D01*
X87464279Y-55720242D01*
X87587927Y-55623637D01*
X87653921Y-55597459D01*
X87723592Y-55611116D01*
X87774819Y-55660273D01*
X87791500Y-55722926D01*
X87791500Y-57154339D01*
X87771498Y-57222460D01*
X87754595Y-57243434D01*
X74905630Y-70092399D01*
X74843318Y-70126425D01*
X74816535Y-70129304D01*
X74702713Y-70129304D01*
X74696261Y-70130676D01*
X74696256Y-70130676D01*
X74609313Y-70149157D01*
X74515913Y-70169010D01*
X74509883Y-70171695D01*
X74509882Y-70171695D01*
X74347480Y-70244001D01*
X74347478Y-70244002D01*
X74341450Y-70246686D01*
X74336109Y-70250566D01*
X74336108Y-70250567D01*
X74192293Y-70355054D01*
X74192291Y-70355056D01*
X74186949Y-70358937D01*
X74059163Y-70500858D01*
X73963676Y-70666246D01*
X73904662Y-70847873D01*
X73884700Y-71037800D01*
X70903500Y-71037800D01*
X70903500Y-63030660D01*
X70923502Y-62962539D01*
X70940405Y-62941565D01*
X72061538Y-61820432D01*
X72124436Y-61786280D01*
X72160597Y-61778593D01*
X72277287Y-61753790D01*
X72283318Y-61751105D01*
X72445720Y-61678799D01*
X72445722Y-61678798D01*
X72451750Y-61676114D01*
X72457092Y-61672233D01*
X72600907Y-61567746D01*
X72600909Y-61567744D01*
X72606251Y-61563863D01*
X72734037Y-61421942D01*
X72800327Y-61307124D01*
X72826220Y-61262277D01*
X72826221Y-61262276D01*
X72829524Y-61256554D01*
X72854043Y-61181093D01*
X72886498Y-61081206D01*
X72886498Y-61081205D01*
X72888538Y-61074927D01*
X72899537Y-60970283D01*
X72907810Y-60891565D01*
X72908500Y-60885000D01*
X72908279Y-60882901D01*
X72927812Y-60816379D01*
X72981468Y-60769886D01*
X73033810Y-60758500D01*
X76700420Y-60758500D01*
X76710484Y-60758974D01*
X76717559Y-60760556D01*
X76781011Y-60758562D01*
X76784969Y-60758500D01*
X76819579Y-60758500D01*
X76823510Y-60758003D01*
X76823516Y-60758003D01*
X76825805Y-60757714D01*
X76837630Y-60756783D01*
X76874114Y-60755636D01*
X76883794Y-60755332D01*
X76891410Y-60753119D01*
X76891412Y-60753119D01*
X76904386Y-60749350D01*
X76923745Y-60745341D01*
X76937141Y-60743649D01*
X76937144Y-60743648D01*
X76945006Y-60742655D01*
X76952372Y-60739738D01*
X76952378Y-60739737D01*
X76987932Y-60725660D01*
X76999161Y-60721815D01*
X77004503Y-60720263D01*
X77043508Y-60708931D01*
X77061964Y-60698016D01*
X77079713Y-60689320D01*
X77099644Y-60681429D01*
X77122936Y-60664506D01*
X77137002Y-60654287D01*
X77146923Y-60647770D01*
X77181556Y-60627288D01*
X77186663Y-60624268D01*
X77189435Y-60621825D01*
X77203021Y-60608239D01*
X77218048Y-60595404D01*
X77234197Y-60583671D01*
X77239251Y-60577562D01*
X77239253Y-60577560D01*
X77262067Y-60549983D01*
X77270057Y-60541203D01*
X78130859Y-59680401D01*
X78193171Y-59646375D01*
X78219954Y-59643496D01*
X78240487Y-59643496D01*
X78246939Y-59642124D01*
X78246944Y-59642124D01*
X78339570Y-59622435D01*
X78427287Y-59603790D01*
X78482888Y-59579035D01*
X78595720Y-59528799D01*
X78595722Y-59528798D01*
X78601750Y-59526114D01*
X78612132Y-59518571D01*
X78750907Y-59417746D01*
X78750909Y-59417744D01*
X78756251Y-59413863D01*
X78769250Y-59399426D01*
X78879618Y-59276850D01*
X78879619Y-59276849D01*
X78884037Y-59271942D01*
X78979524Y-59106554D01*
X79038538Y-58924927D01*
X79043380Y-58878863D01*
X79057810Y-58741565D01*
X79058500Y-58735000D01*
X79038538Y-58545073D01*
X78979524Y-58363446D01*
X78884037Y-58198058D01*
X78756251Y-58056137D01*
X78750909Y-58052256D01*
X78750907Y-58052254D01*
X78607092Y-57947767D01*
X78607091Y-57947766D01*
X78601750Y-57943886D01*
X78595722Y-57941202D01*
X78595720Y-57941201D01*
X78433318Y-57868895D01*
X78433317Y-57868895D01*
X78427287Y-57866210D01*
X78331074Y-57845759D01*
X78246944Y-57827876D01*
X78246939Y-57827876D01*
X78240487Y-57826504D01*
X78049513Y-57826504D01*
X78043061Y-57827876D01*
X78043056Y-57827876D01*
X77958926Y-57845759D01*
X77862713Y-57866210D01*
X77856683Y-57868895D01*
X77856682Y-57868895D01*
X77694280Y-57941201D01*
X77694278Y-57941202D01*
X77688250Y-57943886D01*
X77682909Y-57947766D01*
X77682908Y-57947767D01*
X77539093Y-58052254D01*
X77539091Y-58052256D01*
X77533749Y-58056137D01*
X77405963Y-58198058D01*
X77310476Y-58363446D01*
X77251462Y-58545073D01*
X77250772Y-58551634D01*
X77250772Y-58551636D01*
X77238250Y-58670781D01*
X77211237Y-58736438D01*
X77202035Y-58746706D01*
X76544146Y-59404595D01*
X76481834Y-59438621D01*
X76455051Y-59441500D01*
X68559580Y-59441500D01*
X68549516Y-59441026D01*
X68542441Y-59439444D01*
X68478989Y-59441438D01*
X68475031Y-59441500D01*
X68440421Y-59441500D01*
X68436490Y-59441997D01*
X68436484Y-59441997D01*
X68434195Y-59442286D01*
X68422370Y-59443217D01*
X68385886Y-59444364D01*
X68376206Y-59444668D01*
X68368590Y-59446881D01*
X68368588Y-59446881D01*
X68355614Y-59450650D01*
X68336255Y-59454659D01*
X68322859Y-59456351D01*
X68322856Y-59456352D01*
X68314994Y-59457345D01*
X68307628Y-59460262D01*
X68307626Y-59460262D01*
X68272067Y-59474341D01*
X68260836Y-59478186D01*
X68224106Y-59488857D01*
X68224104Y-59488858D01*
X68216493Y-59491069D01*
X68209671Y-59495103D01*
X68209672Y-59495103D01*
X68198035Y-59501985D01*
X68180288Y-59510679D01*
X68160356Y-59518571D01*
X68153941Y-59523232D01*
X68153939Y-59523233D01*
X68122999Y-59545712D01*
X68113077Y-59552230D01*
X68073337Y-59575732D01*
X68070566Y-59578175D01*
X68056986Y-59591755D01*
X68041952Y-59604596D01*
X68032216Y-59611669D01*
X68032213Y-59611672D01*
X68025803Y-59616329D01*
X68000947Y-59646375D01*
X67997928Y-59650024D01*
X67989938Y-59658803D01*
X63544146Y-64104595D01*
X63481834Y-64138621D01*
X63455051Y-64141500D01*
X56680218Y-64141500D01*
X56606157Y-64117436D01*
X56462092Y-64012767D01*
X56462091Y-64012766D01*
X56456750Y-64008886D01*
X56450722Y-64006202D01*
X56450720Y-64006201D01*
X56288318Y-63933895D01*
X56288317Y-63933895D01*
X56282287Y-63931210D01*
X56188887Y-63911357D01*
X56101944Y-63892876D01*
X56101939Y-63892876D01*
X56095487Y-63891504D01*
X55904513Y-63891504D01*
X55898061Y-63892876D01*
X55898056Y-63892876D01*
X55811113Y-63911357D01*
X55717713Y-63931210D01*
X55711683Y-63933895D01*
X55711682Y-63933895D01*
X55549280Y-64006201D01*
X55549278Y-64006202D01*
X55543250Y-64008886D01*
X55537909Y-64012766D01*
X55537908Y-64012767D01*
X55394093Y-64117254D01*
X55394091Y-64117256D01*
X55388749Y-64121137D01*
X55260963Y-64263058D01*
X55165476Y-64428446D01*
X55106462Y-64610073D01*
X55086500Y-64800000D01*
X55106462Y-64989927D01*
X55165476Y-65171554D01*
X55260963Y-65336942D01*
X55265381Y-65341849D01*
X55265382Y-65341850D01*
X55370414Y-65458500D01*
X55388749Y-65478863D01*
X55394091Y-65482744D01*
X55394093Y-65482746D01*
X55537908Y-65587233D01*
X55543250Y-65591114D01*
X55549278Y-65593798D01*
X55549280Y-65593799D01*
X55711682Y-65666105D01*
X55717713Y-65668790D01*
X55811113Y-65688643D01*
X55898056Y-65707124D01*
X55898061Y-65707124D01*
X55904513Y-65708496D01*
X56095487Y-65708496D01*
X56101939Y-65707124D01*
X56101944Y-65707124D01*
X56188887Y-65688643D01*
X56282287Y-65668790D01*
X56288318Y-65666105D01*
X56450720Y-65593799D01*
X56450722Y-65593798D01*
X56456750Y-65591114D01*
X56606157Y-65482564D01*
X56680218Y-65458500D01*
X63700420Y-65458500D01*
X63710484Y-65458974D01*
X63717559Y-65460556D01*
X63781011Y-65458562D01*
X63784969Y-65458500D01*
X63819579Y-65458500D01*
X63823510Y-65458003D01*
X63823516Y-65458003D01*
X63825805Y-65457714D01*
X63837630Y-65456783D01*
X63874114Y-65455636D01*
X63883794Y-65455332D01*
X63891410Y-65453119D01*
X63891412Y-65453119D01*
X63904386Y-65449350D01*
X63923745Y-65445341D01*
X63937141Y-65443649D01*
X63937144Y-65443648D01*
X63945006Y-65442655D01*
X63952372Y-65439738D01*
X63952374Y-65439738D01*
X63987933Y-65425659D01*
X63999164Y-65421814D01*
X64035895Y-65411143D01*
X64035897Y-65411142D01*
X64043508Y-65408931D01*
X64061964Y-65398016D01*
X64079713Y-65389320D01*
X64099644Y-65381429D01*
X64122936Y-65364506D01*
X64137002Y-65354287D01*
X64146923Y-65347770D01*
X64186663Y-65324268D01*
X64189435Y-65321825D01*
X64203021Y-65308239D01*
X64218048Y-65295404D01*
X64234197Y-65283671D01*
X64239251Y-65277562D01*
X64239253Y-65277560D01*
X64262067Y-65249983D01*
X64270057Y-65241203D01*
X68715855Y-60795405D01*
X68778167Y-60761379D01*
X68804950Y-60758500D01*
X70815339Y-60758500D01*
X70883460Y-60778502D01*
X70929953Y-60832158D01*
X70940057Y-60902432D01*
X70910563Y-60967012D01*
X70904434Y-60973595D01*
X69712363Y-62165666D01*
X69706098Y-62171519D01*
X69664766Y-62207575D01*
X69628039Y-62259833D01*
X69624107Y-62265127D01*
X69584698Y-62315388D01*
X69581572Y-62322312D01*
X69580171Y-62324625D01*
X69571834Y-62339241D01*
X69570559Y-62341618D01*
X69566190Y-62347835D01*
X69563430Y-62354914D01*
X69563429Y-62354916D01*
X69542990Y-62407341D01*
X69540437Y-62413417D01*
X69514150Y-62471635D01*
X69512766Y-62479105D01*
X69511962Y-62481670D01*
X69507338Y-62497902D01*
X69506675Y-62500483D01*
X69503916Y-62507560D01*
X69502925Y-62515091D01*
X69495579Y-62570887D01*
X69494550Y-62577388D01*
X69482908Y-62640199D01*
X69483345Y-62647779D01*
X69483345Y-62647780D01*
X69486291Y-62698874D01*
X69486500Y-62706127D01*
X69486500Y-75165504D01*
X69466498Y-75233625D01*
X69412842Y-75280118D01*
X69360500Y-75291504D01*
X69304513Y-75291504D01*
X69298061Y-75292876D01*
X69298056Y-75292876D01*
X69211113Y-75311357D01*
X69117713Y-75331210D01*
X69111683Y-75333895D01*
X69111682Y-75333895D01*
X68949280Y-75406201D01*
X68949278Y-75406202D01*
X68943250Y-75408886D01*
X68937910Y-75412766D01*
X68862661Y-75467437D01*
X68788601Y-75491500D01*
X49225938Y-75491500D01*
X49217368Y-75491208D01*
X49170234Y-75487994D01*
X49170230Y-75487994D01*
X49162658Y-75487478D01*
X49099708Y-75498465D01*
X49093218Y-75499422D01*
X49029806Y-75507096D01*
X49022697Y-75509783D01*
X49020085Y-75510424D01*
X49003825Y-75514872D01*
X49001255Y-75515648D01*
X48993776Y-75516953D01*
X48986825Y-75520004D01*
X48986819Y-75520006D01*
X48935295Y-75542624D01*
X48929186Y-75545117D01*
X48876548Y-75565007D01*
X48876546Y-75565008D01*
X48869438Y-75567694D01*
X48863173Y-75572000D01*
X48860782Y-75573250D01*
X48846073Y-75581437D01*
X48843756Y-75582807D01*
X48836799Y-75585861D01*
X48830776Y-75590482D01*
X48830770Y-75590486D01*
X48786108Y-75624755D01*
X48780775Y-75628630D01*
X48728154Y-75664796D01*
X48723097Y-75670472D01*
X48689061Y-75708673D01*
X48684080Y-75713949D01*
X37717363Y-86680666D01*
X37711098Y-86686519D01*
X37669766Y-86722575D01*
X37633039Y-86774833D01*
X37629107Y-86780127D01*
X37589698Y-86830388D01*
X37586572Y-86837312D01*
X37585171Y-86839625D01*
X37576834Y-86854241D01*
X37575559Y-86856618D01*
X37571190Y-86862835D01*
X37554915Y-86904580D01*
X37547990Y-86922341D01*
X37545437Y-86928417D01*
X37519150Y-86986635D01*
X37517766Y-86994105D01*
X37516962Y-86996670D01*
X37512338Y-87012902D01*
X37511675Y-87015483D01*
X37508916Y-87022560D01*
X37500579Y-87085887D01*
X37499550Y-87092388D01*
X37487908Y-87155199D01*
X37488345Y-87162779D01*
X37488345Y-87162780D01*
X37491291Y-87213874D01*
X37491500Y-87221127D01*
X37491500Y-87774047D01*
X37491208Y-87782617D01*
X37487477Y-87837342D01*
X29603000Y-87837342D01*
X29603000Y-60400000D01*
X54686500Y-60400000D01*
X54687190Y-60406565D01*
X54701784Y-60545414D01*
X54706462Y-60589927D01*
X54708502Y-60596205D01*
X54708502Y-60596206D01*
X54712412Y-60608239D01*
X54765476Y-60771554D01*
X54768779Y-60777276D01*
X54768780Y-60777277D01*
X54791356Y-60816379D01*
X54860963Y-60936942D01*
X54865381Y-60941849D01*
X54865382Y-60941850D01*
X54904219Y-60984983D01*
X54988749Y-61078863D01*
X54994091Y-61082744D01*
X54994093Y-61082746D01*
X55137908Y-61187233D01*
X55143250Y-61191114D01*
X55149278Y-61193798D01*
X55149280Y-61193799D01*
X55311682Y-61266105D01*
X55317713Y-61268790D01*
X55411113Y-61288643D01*
X55498056Y-61307124D01*
X55498061Y-61307124D01*
X55504513Y-61308496D01*
X55695487Y-61308496D01*
X55701939Y-61307124D01*
X55701944Y-61307124D01*
X55788887Y-61288643D01*
X55882287Y-61268790D01*
X55888318Y-61266105D01*
X56050720Y-61193799D01*
X56050722Y-61193798D01*
X56056750Y-61191114D01*
X56211251Y-61078863D01*
X56220706Y-61068363D01*
X56251466Y-61034200D01*
X56311912Y-60996961D01*
X56345102Y-60992511D01*
X56503013Y-60992511D01*
X56511583Y-60992803D01*
X56566308Y-60996534D01*
X56573790Y-60995228D01*
X56573791Y-60995228D01*
X56582942Y-60993631D01*
X56629239Y-60985550D01*
X56635732Y-60984590D01*
X56699160Y-60976915D01*
X56706264Y-60974230D01*
X56708859Y-60973593D01*
X56725141Y-60969139D01*
X56727711Y-60968363D01*
X56735190Y-60967058D01*
X56742141Y-60964007D01*
X56742147Y-60964005D01*
X56793671Y-60941387D01*
X56799780Y-60938894D01*
X56852418Y-60919004D01*
X56852420Y-60919003D01*
X56859528Y-60916317D01*
X56865793Y-60912011D01*
X56868184Y-60910761D01*
X56882886Y-60902578D01*
X56885209Y-60901204D01*
X56892167Y-60898150D01*
X56898194Y-60893525D01*
X56898198Y-60893523D01*
X56942844Y-60859265D01*
X56948162Y-60855400D01*
X56984161Y-60830659D01*
X57055527Y-60808500D01*
X61674047Y-60808500D01*
X61682617Y-60808792D01*
X61737342Y-60812523D01*
X61744824Y-60811217D01*
X61744825Y-60811217D01*
X61753976Y-60809620D01*
X61800273Y-60801539D01*
X61806766Y-60800579D01*
X61870194Y-60792904D01*
X61877298Y-60790219D01*
X61879893Y-60789582D01*
X61896175Y-60785128D01*
X61898745Y-60784352D01*
X61906224Y-60783047D01*
X61913175Y-60779996D01*
X61913181Y-60779994D01*
X61964705Y-60757376D01*
X61970814Y-60754883D01*
X62023452Y-60734993D01*
X62023454Y-60734992D01*
X62030562Y-60732306D01*
X62036827Y-60728000D01*
X62039218Y-60726750D01*
X62053920Y-60718567D01*
X62056243Y-60717193D01*
X62063201Y-60714139D01*
X62069228Y-60709514D01*
X62069232Y-60709512D01*
X62113878Y-60675254D01*
X62119203Y-60671385D01*
X62149158Y-60650797D01*
X62165587Y-60639506D01*
X62165588Y-60639505D01*
X62171846Y-60635204D01*
X62183767Y-60621825D01*
X62210947Y-60591318D01*
X62215928Y-60586042D01*
X63856565Y-58945405D01*
X63918877Y-58911379D01*
X63945660Y-58908500D01*
X67388601Y-58908500D01*
X67462661Y-58932563D01*
X67543250Y-58991114D01*
X67549278Y-58993798D01*
X67549280Y-58993799D01*
X67711682Y-59066105D01*
X67717713Y-59068790D01*
X67811113Y-59088643D01*
X67898056Y-59107124D01*
X67898061Y-59107124D01*
X67904513Y-59108496D01*
X68095487Y-59108496D01*
X68101939Y-59107124D01*
X68101944Y-59107124D01*
X68188887Y-59088643D01*
X68282287Y-59068790D01*
X68288318Y-59066105D01*
X68450720Y-58993799D01*
X68450722Y-58993798D01*
X68456750Y-58991114D01*
X68462092Y-58987233D01*
X68605907Y-58882746D01*
X68605909Y-58882744D01*
X68611251Y-58878863D01*
X68615673Y-58873952D01*
X68734618Y-58741850D01*
X68734619Y-58741849D01*
X68739037Y-58736942D01*
X68834524Y-58571554D01*
X68893538Y-58389927D01*
X68913500Y-58200000D01*
X68898896Y-58061048D01*
X68894228Y-58016637D01*
X68894228Y-58016636D01*
X68893538Y-58010073D01*
X68834524Y-57828446D01*
X68739037Y-57663058D01*
X68611251Y-57521137D01*
X68605909Y-57517256D01*
X68605907Y-57517254D01*
X68462092Y-57412767D01*
X68462091Y-57412766D01*
X68456750Y-57408886D01*
X68450722Y-57406202D01*
X68450720Y-57406201D01*
X68288318Y-57333895D01*
X68288317Y-57333895D01*
X68282287Y-57331210D01*
X68188887Y-57311357D01*
X68101944Y-57292876D01*
X68101939Y-57292876D01*
X68095487Y-57291504D01*
X67904513Y-57291504D01*
X67898061Y-57292876D01*
X67898056Y-57292876D01*
X67811113Y-57311357D01*
X67717713Y-57331210D01*
X67711683Y-57333895D01*
X67711682Y-57333895D01*
X67549280Y-57406201D01*
X67549278Y-57406202D01*
X67543250Y-57408886D01*
X67470961Y-57461407D01*
X67462661Y-57467437D01*
X67388601Y-57491500D01*
X63625954Y-57491500D01*
X63617383Y-57491208D01*
X63562659Y-57487477D01*
X63499691Y-57498466D01*
X63493201Y-57499424D01*
X63429806Y-57507096D01*
X63422698Y-57509782D01*
X63420088Y-57510423D01*
X63403831Y-57514870D01*
X63401263Y-57515645D01*
X63393776Y-57516952D01*
X63373055Y-57526048D01*
X63335294Y-57542624D01*
X63329186Y-57545117D01*
X63310267Y-57552266D01*
X63269438Y-57567694D01*
X63263173Y-57572000D01*
X63260782Y-57573250D01*
X63246080Y-57581433D01*
X63243757Y-57582807D01*
X63236799Y-57585861D01*
X63230772Y-57590486D01*
X63230768Y-57590488D01*
X63186122Y-57624746D01*
X63180797Y-57628615D01*
X63128154Y-57664796D01*
X63123102Y-57670466D01*
X63123101Y-57670467D01*
X63089053Y-57708682D01*
X63084072Y-57713958D01*
X61443434Y-59354595D01*
X61381122Y-59388621D01*
X61354339Y-59391500D01*
X56738931Y-59391500D01*
X56730360Y-59391208D01*
X56675636Y-59387477D01*
X56612668Y-59398466D01*
X56606178Y-59399424D01*
X56542783Y-59407096D01*
X56535675Y-59409782D01*
X56533065Y-59410423D01*
X56516808Y-59414870D01*
X56514240Y-59415645D01*
X56506753Y-59416952D01*
X56499793Y-59420007D01*
X56499794Y-59420007D01*
X56448271Y-59442624D01*
X56442163Y-59445117D01*
X56409803Y-59457345D01*
X56382415Y-59467694D01*
X56376150Y-59472000D01*
X56373759Y-59473250D01*
X56359057Y-59481433D01*
X56356734Y-59482807D01*
X56349776Y-59485861D01*
X56343749Y-59490486D01*
X56343745Y-59490488D01*
X56299099Y-59524746D01*
X56293781Y-59528611D01*
X56259415Y-59552230D01*
X56257782Y-59553352D01*
X56186416Y-59575511D01*
X56083134Y-59575511D01*
X56044830Y-59569548D01*
X56044035Y-59569294D01*
X56034685Y-59566310D01*
X56021153Y-59561116D01*
X55986870Y-59545637D01*
X55954212Y-59539584D01*
X55938868Y-59535730D01*
X55914451Y-59527937D01*
X55914439Y-59527935D01*
X55907208Y-59525627D01*
X55899630Y-59525110D01*
X55899628Y-59525110D01*
X55869674Y-59523068D01*
X55855285Y-59521250D01*
X55831781Y-59516894D01*
X55818306Y-59514397D01*
X55811272Y-59514803D01*
X55793898Y-59512422D01*
X55695487Y-59491504D01*
X55504513Y-59491504D01*
X55498061Y-59492876D01*
X55498056Y-59492876D01*
X55414303Y-59510679D01*
X55317713Y-59531210D01*
X55311683Y-59533895D01*
X55311682Y-59533895D01*
X55149280Y-59606201D01*
X55149278Y-59606202D01*
X55143250Y-59608886D01*
X55137909Y-59612766D01*
X55137908Y-59612767D01*
X54994093Y-59717254D01*
X54994091Y-59717256D01*
X54988749Y-59721137D01*
X54860963Y-59863058D01*
X54765476Y-60028446D01*
X54706462Y-60210073D01*
X54686500Y-60400000D01*
X29603000Y-60400000D01*
X29603000Y-52625849D01*
X80926599Y-52625849D01*
X80943150Y-52822956D01*
X80997672Y-53013094D01*
X81088086Y-53189021D01*
X81210949Y-53344036D01*
X81215636Y-53348025D01*
X81215639Y-53348028D01*
X81326212Y-53442133D01*
X81361582Y-53472235D01*
X81366960Y-53475241D01*
X81366962Y-53475242D01*
X81435020Y-53513278D01*
X81534246Y-53568734D01*
X81722366Y-53629857D01*
X81918775Y-53653278D01*
X81924910Y-53652806D01*
X81924912Y-53652806D01*
X82109850Y-53638576D01*
X82109854Y-53638575D01*
X82115992Y-53638103D01*
X82306507Y-53584910D01*
X82483060Y-53495726D01*
X82509279Y-53475242D01*
X82634073Y-53377742D01*
X82638929Y-53373948D01*
X82654658Y-53355726D01*
X82764147Y-53228882D01*
X82764148Y-53228880D01*
X82768176Y-53224214D01*
X82865878Y-53052228D01*
X82928314Y-52864539D01*
X82953105Y-52668299D01*
X82953500Y-52640000D01*
X82938385Y-52485849D01*
X84986599Y-52485849D01*
X85003150Y-52682956D01*
X85004848Y-52688876D01*
X85055219Y-52864539D01*
X85057672Y-52873094D01*
X85148086Y-53049021D01*
X85270949Y-53204036D01*
X85275636Y-53208025D01*
X85275639Y-53208028D01*
X85300615Y-53229284D01*
X85421582Y-53332235D01*
X85426960Y-53335241D01*
X85426962Y-53335242D01*
X85503007Y-53377742D01*
X85594246Y-53428734D01*
X85782366Y-53489857D01*
X85978775Y-53513278D01*
X85984910Y-53512806D01*
X85984912Y-53512806D01*
X86169850Y-53498576D01*
X86169854Y-53498575D01*
X86175992Y-53498103D01*
X86366507Y-53444910D01*
X86543060Y-53355726D01*
X86569279Y-53335242D01*
X86694073Y-53237742D01*
X86698929Y-53233948D01*
X86721303Y-53208028D01*
X86824147Y-53088882D01*
X86824148Y-53088880D01*
X86828176Y-53084214D01*
X86925878Y-52912228D01*
X86988314Y-52724539D01*
X87013105Y-52528299D01*
X87013500Y-52500000D01*
X86994198Y-52303143D01*
X86937027Y-52113785D01*
X86844166Y-51939138D01*
X86733704Y-51803698D01*
X86723045Y-51790628D01*
X86723042Y-51790625D01*
X86719150Y-51785853D01*
X86714401Y-51781924D01*
X86571491Y-51663698D01*
X86571486Y-51663695D01*
X86566742Y-51659770D01*
X86561323Y-51656840D01*
X86561320Y-51656838D01*
X86398165Y-51568621D01*
X86398161Y-51568619D01*
X86392747Y-51565692D01*
X86386867Y-51563872D01*
X86386865Y-51563871D01*
X86328035Y-51545660D01*
X86203792Y-51507200D01*
X86197674Y-51506557D01*
X86197669Y-51506556D01*
X86013205Y-51487169D01*
X86013203Y-51487169D01*
X86007076Y-51486525D01*
X85924226Y-51494065D01*
X85816228Y-51503893D01*
X85816225Y-51503894D01*
X85810089Y-51504452D01*
X85804183Y-51506190D01*
X85804179Y-51506191D01*
X85670075Y-51545660D01*
X85620336Y-51560299D01*
X85445045Y-51651939D01*
X85290891Y-51775882D01*
X85286933Y-51780599D01*
X85286931Y-51780601D01*
X85203347Y-51880213D01*
X85163747Y-51927406D01*
X85160783Y-51932798D01*
X85160780Y-51932802D01*
X85089375Y-52062688D01*
X85068456Y-52100740D01*
X85008647Y-52289282D01*
X84986599Y-52485849D01*
X82938385Y-52485849D01*
X82934198Y-52443143D01*
X82877027Y-52253785D01*
X82784166Y-52079138D01*
X82713973Y-51993073D01*
X82663045Y-51930628D01*
X82663042Y-51930625D01*
X82659150Y-51925853D01*
X82654401Y-51921924D01*
X82511491Y-51803698D01*
X82511486Y-51803695D01*
X82506742Y-51799770D01*
X82501323Y-51796840D01*
X82501320Y-51796838D01*
X82338165Y-51708621D01*
X82338161Y-51708619D01*
X82332747Y-51705692D01*
X82326867Y-51703872D01*
X82326865Y-51703871D01*
X82277317Y-51688533D01*
X82143792Y-51647200D01*
X82137674Y-51646557D01*
X82137669Y-51646556D01*
X81953205Y-51627169D01*
X81953203Y-51627169D01*
X81947076Y-51626525D01*
X81864226Y-51634065D01*
X81756228Y-51643893D01*
X81756225Y-51643894D01*
X81750089Y-51644452D01*
X81744183Y-51646190D01*
X81744179Y-51646191D01*
X81684696Y-51663698D01*
X81560336Y-51700299D01*
X81385045Y-51791939D01*
X81230891Y-51915882D01*
X81226933Y-51920599D01*
X81226931Y-51920601D01*
X81216693Y-51932802D01*
X81103747Y-52067406D01*
X81100783Y-52072798D01*
X81100780Y-52072802D01*
X81082195Y-52106609D01*
X81008456Y-52240740D01*
X81006595Y-52246607D01*
X81006594Y-52246609D01*
X80986715Y-52309276D01*
X80948647Y-52429282D01*
X80926599Y-52625849D01*
X29603000Y-52625849D01*
X29603000Y-48792086D01*
X29623002Y-48723965D01*
X29676658Y-48677472D01*
X29746932Y-48667368D01*
X29789351Y-48683243D01*
X29789931Y-48682124D01*
X29805864Y-48690382D01*
X29990822Y-48764922D01*
X30002281Y-48768316D01*
X30199444Y-48806820D01*
X30208412Y-48807909D01*
X30208728Y-48807925D01*
X30211821Y-48808000D01*
X30390385Y-48808000D01*
X30405624Y-48803525D01*
X30406829Y-48802135D01*
X30408500Y-48794452D01*
X30408500Y-47967548D01*
X30916500Y-47967548D01*
X30916500Y-48789885D01*
X30920975Y-48805124D01*
X30922365Y-48806329D01*
X30930048Y-48808000D01*
X31061913Y-48808000D01*
X31067890Y-48807715D01*
X31216986Y-48793490D01*
X31228720Y-48791231D01*
X31420084Y-48735091D01*
X31431160Y-48730661D01*
X31608456Y-48639348D01*
X31618502Y-48632898D01*
X31775329Y-48509709D01*
X31783979Y-48501472D01*
X31914679Y-48350853D01*
X31921616Y-48341127D01*
X32021474Y-48168517D01*
X32026448Y-48157653D01*
X32091868Y-47969264D01*
X32092106Y-47968284D01*
X32090639Y-47957992D01*
X32077072Y-47954000D01*
X30934615Y-47954000D01*
X30919376Y-47958475D01*
X30918171Y-47959865D01*
X30916500Y-47967548D01*
X30408500Y-47967548D01*
X30408500Y-47733493D01*
X32693837Y-47733493D01*
X32699118Y-47740548D01*
X32830541Y-47817345D01*
X32840655Y-47822105D01*
X33036818Y-47893890D01*
X33047603Y-47896780D01*
X33253384Y-47932694D01*
X33264516Y-47933629D01*
X33473391Y-47932535D01*
X33484525Y-47931483D01*
X33689903Y-47893418D01*
X33700674Y-47890411D01*
X33896070Y-47816577D01*
X33906127Y-47811716D01*
X34021255Y-47742812D01*
X34030825Y-47732454D01*
X34027282Y-47723992D01*
X33375312Y-47072022D01*
X33361368Y-47064408D01*
X33359535Y-47064539D01*
X33352920Y-47068790D01*
X32700597Y-47721113D01*
X32693837Y-47733493D01*
X30408500Y-47733493D01*
X30408500Y-46610115D01*
X30407159Y-46605548D01*
X30916500Y-46605548D01*
X30916500Y-47427885D01*
X30920975Y-47443124D01*
X30922365Y-47444329D01*
X30930048Y-47446000D01*
X32072861Y-47446000D01*
X32086392Y-47442027D01*
X32090280Y-47414983D01*
X32119773Y-47350403D01*
X32179499Y-47312019D01*
X32250495Y-47312019D01*
X32305600Y-47347433D01*
X32305715Y-47347317D01*
X32306272Y-47347865D01*
X32310221Y-47350403D01*
X32313257Y-47354738D01*
X32328679Y-47369913D01*
X32336284Y-47367006D01*
X32990478Y-46712812D01*
X32996856Y-46701132D01*
X33726908Y-46701132D01*
X33727039Y-46702965D01*
X33731290Y-46709580D01*
X34385472Y-47363762D01*
X34397852Y-47370522D01*
X34404116Y-47365833D01*
X34496006Y-47196595D01*
X34500439Y-47186349D01*
X34566028Y-46988028D01*
X34568582Y-46977137D01*
X34598291Y-46768387D01*
X34598898Y-46761164D01*
X34600405Y-46703631D01*
X34600177Y-46696379D01*
X34581433Y-46486364D01*
X34579451Y-46475350D01*
X34524335Y-46273879D01*
X34520441Y-46263406D01*
X34430513Y-46074869D01*
X34424827Y-46065254D01*
X34406811Y-46040181D01*
X34396021Y-46031771D01*
X34382985Y-46038725D01*
X33734522Y-46687188D01*
X33726908Y-46701132D01*
X32996856Y-46701132D01*
X32998092Y-46698868D01*
X32997961Y-46697035D01*
X32993710Y-46690420D01*
X32342333Y-46039043D01*
X32329953Y-46032283D01*
X32321981Y-46038251D01*
X32262413Y-46133212D01*
X32257342Y-46143164D01*
X32179431Y-46336973D01*
X32176200Y-46347672D01*
X32133844Y-46552210D01*
X32132558Y-46563319D01*
X32127090Y-46772129D01*
X32127792Y-46783281D01*
X32159313Y-46989275D01*
X32149845Y-47059638D01*
X32103840Y-47113712D01*
X32035902Y-47134329D01*
X31967604Y-47114944D01*
X31931993Y-47081234D01*
X31858501Y-46977629D01*
X31850708Y-46968600D01*
X31706644Y-46830689D01*
X31697279Y-46823293D01*
X31529740Y-46715114D01*
X31519136Y-46709618D01*
X31334178Y-46635078D01*
X31322719Y-46631684D01*
X31125556Y-46593180D01*
X31116588Y-46592091D01*
X31116272Y-46592075D01*
X31113179Y-46592000D01*
X30934615Y-46592000D01*
X30919376Y-46596475D01*
X30918171Y-46597865D01*
X30916500Y-46605548D01*
X30407159Y-46605548D01*
X30404025Y-46594876D01*
X30402635Y-46593671D01*
X30394952Y-46592000D01*
X30263087Y-46592000D01*
X30257110Y-46592285D01*
X30108014Y-46606510D01*
X30096280Y-46608769D01*
X29904916Y-46664909D01*
X29893840Y-46669339D01*
X29786692Y-46724524D01*
X29716973Y-46737933D01*
X29651073Y-46711520D01*
X29609914Y-46653671D01*
X29603000Y-46612508D01*
X29603000Y-45665149D01*
X32692202Y-45665149D01*
X32698833Y-45677123D01*
X33349688Y-46327978D01*
X33363632Y-46335592D01*
X33365465Y-46335461D01*
X33372080Y-46331210D01*
X34023401Y-45679889D01*
X34029625Y-45668491D01*
X34019814Y-45656057D01*
X33963571Y-45618263D01*
X33953773Y-45612877D01*
X33762509Y-45528918D01*
X33751917Y-45525353D01*
X33548808Y-45476591D01*
X33537746Y-45474958D01*
X33329220Y-45462934D01*
X33318036Y-45463286D01*
X33110677Y-45488379D01*
X33099743Y-45490703D01*
X32900095Y-45552123D01*
X32889749Y-45556344D01*
X32704130Y-45652150D01*
X32699589Y-45655032D01*
X32692202Y-45665149D01*
X29603000Y-45665149D01*
X29603000Y-45337423D01*
X36168255Y-45337423D01*
X36176638Y-45389471D01*
X36179212Y-45399793D01*
X36250230Y-45607810D01*
X36254497Y-45617533D01*
X36359556Y-45810625D01*
X36365402Y-45819491D01*
X36501486Y-45992113D01*
X36508750Y-45999875D01*
X36671967Y-46147094D01*
X36680444Y-46153528D01*
X36866122Y-46271136D01*
X36875567Y-46276053D01*
X37078406Y-46360694D01*
X37088545Y-46363950D01*
X37228345Y-46396096D01*
X37242422Y-46395257D01*
X37246000Y-46385999D01*
X37246000Y-45337115D01*
X37244659Y-45332548D01*
X37754000Y-45332548D01*
X37754000Y-46384941D01*
X37758151Y-46399079D01*
X37768798Y-46400774D01*
X37772192Y-46400096D01*
X37983333Y-46338954D01*
X37993259Y-46335143D01*
X38191065Y-46239307D01*
X38200212Y-46233876D01*
X38379041Y-46106083D01*
X38387149Y-46099182D01*
X38541893Y-45943082D01*
X38548706Y-45934933D01*
X38674940Y-45754988D01*
X38680295Y-45745787D01*
X38774399Y-45547156D01*
X38778123Y-45537197D01*
X38835968Y-45330718D01*
X38834430Y-45322351D01*
X38822137Y-45319000D01*
X37772115Y-45319000D01*
X37756876Y-45323475D01*
X37755671Y-45324865D01*
X37754000Y-45332548D01*
X37244659Y-45332548D01*
X37241525Y-45321876D01*
X37240135Y-45320671D01*
X37232452Y-45319000D01*
X36183403Y-45319000D01*
X36170222Y-45322870D01*
X36168255Y-45337423D01*
X29603000Y-45337423D01*
X29603000Y-42733493D01*
X32693837Y-42733493D01*
X32699118Y-42740548D01*
X32830541Y-42817345D01*
X32840655Y-42822105D01*
X33036818Y-42893890D01*
X33047603Y-42896780D01*
X33253384Y-42932694D01*
X33264516Y-42933629D01*
X33473391Y-42932535D01*
X33484525Y-42931483D01*
X33689903Y-42893418D01*
X33700674Y-42890411D01*
X33896070Y-42816577D01*
X33906127Y-42811716D01*
X34021255Y-42742812D01*
X34030825Y-42732454D01*
X34027282Y-42723992D01*
X33375312Y-42072022D01*
X33361368Y-42064408D01*
X33359535Y-42064539D01*
X33352920Y-42068790D01*
X32700597Y-42721113D01*
X32693837Y-42733493D01*
X29603000Y-42733493D01*
X29603000Y-41792086D01*
X29623002Y-41723965D01*
X29676658Y-41677472D01*
X29746932Y-41667368D01*
X29789351Y-41683243D01*
X29789931Y-41682124D01*
X29805864Y-41690382D01*
X29990822Y-41764922D01*
X30002281Y-41768316D01*
X30199444Y-41806820D01*
X30208412Y-41807909D01*
X30208728Y-41807925D01*
X30211821Y-41808000D01*
X30390385Y-41808000D01*
X30405624Y-41803525D01*
X30406829Y-41802135D01*
X30408500Y-41794452D01*
X30408500Y-40967548D01*
X30916500Y-40967548D01*
X30916500Y-41789885D01*
X30920975Y-41805124D01*
X30922365Y-41806329D01*
X30930048Y-41808000D01*
X31061913Y-41808000D01*
X31067890Y-41807715D01*
X31216986Y-41793490D01*
X31228720Y-41791231D01*
X31420084Y-41735091D01*
X31431160Y-41730661D01*
X31608456Y-41639348D01*
X31618502Y-41632898D01*
X31775329Y-41509709D01*
X31783979Y-41501472D01*
X31914679Y-41350853D01*
X31921616Y-41341127D01*
X31929616Y-41327299D01*
X31981041Y-41278351D01*
X32050766Y-41264975D01*
X32116654Y-41291419D01*
X32157786Y-41349287D01*
X32162062Y-41415945D01*
X32133844Y-41552210D01*
X32132558Y-41563319D01*
X32127090Y-41772129D01*
X32127792Y-41783281D01*
X32159387Y-41989753D01*
X32162054Y-42000614D01*
X32229714Y-42198232D01*
X32234262Y-42208446D01*
X32318627Y-42360022D01*
X32328679Y-42369913D01*
X32336284Y-42367006D01*
X32990478Y-41712812D01*
X32996856Y-41701132D01*
X33726908Y-41701132D01*
X33727039Y-41702965D01*
X33731290Y-41709580D01*
X34385472Y-42363762D01*
X34397852Y-42370522D01*
X34404116Y-42365833D01*
X34496006Y-42196595D01*
X34500439Y-42186349D01*
X34566028Y-41988028D01*
X34568582Y-41977137D01*
X34598291Y-41768387D01*
X34598898Y-41761164D01*
X34600405Y-41703631D01*
X34600177Y-41696379D01*
X34598269Y-41675000D01*
X36136500Y-41675000D01*
X36136500Y-43375000D01*
X36141727Y-43448079D01*
X36182904Y-43588316D01*
X36187775Y-43595895D01*
X36257051Y-43703691D01*
X36257053Y-43703694D01*
X36261923Y-43711271D01*
X36268733Y-43717172D01*
X36365569Y-43801082D01*
X36365572Y-43801084D01*
X36372381Y-43806984D01*
X36505330Y-43867700D01*
X36512035Y-43868664D01*
X36570813Y-43906437D01*
X36600306Y-43971017D01*
X36590203Y-44041291D01*
X36558171Y-44084115D01*
X36526879Y-44111269D01*
X36519464Y-44118895D01*
X36380100Y-44288860D01*
X36374075Y-44297627D01*
X36265342Y-44488644D01*
X36260877Y-44498308D01*
X36185882Y-44704916D01*
X36183111Y-44715184D01*
X36169008Y-44793174D01*
X36170427Y-44806414D01*
X36185062Y-44811000D01*
X38819079Y-44811000D01*
X38832610Y-44807027D01*
X38833876Y-44798218D01*
X38786954Y-44617433D01*
X38783419Y-44607395D01*
X38693147Y-44406998D01*
X38687967Y-44397692D01*
X38565218Y-44215366D01*
X38558557Y-44207080D01*
X38430331Y-44072665D01*
X38397784Y-44009568D01*
X38404515Y-43938891D01*
X38448389Y-43883074D01*
X38486003Y-43864797D01*
X38554670Y-43844635D01*
X38554672Y-43844634D01*
X38563316Y-43842096D01*
X38627135Y-43801082D01*
X38678691Y-43767949D01*
X38678694Y-43767947D01*
X38686271Y-43763077D01*
X38726048Y-43717172D01*
X38776082Y-43659431D01*
X38776084Y-43659428D01*
X38781984Y-43652619D01*
X38842700Y-43519670D01*
X38853962Y-43441340D01*
X38862861Y-43379448D01*
X38862862Y-43379441D01*
X38863500Y-43375000D01*
X38863500Y-42674600D01*
X44291900Y-42674600D01*
X44311862Y-42864527D01*
X44313902Y-42870805D01*
X44313902Y-42870806D01*
X44344741Y-42965719D01*
X44370876Y-43046154D01*
X44466363Y-43211542D01*
X44594149Y-43353463D01*
X44599491Y-43357344D01*
X44599493Y-43357346D01*
X44743308Y-43461833D01*
X44748650Y-43465714D01*
X44754678Y-43468398D01*
X44754680Y-43468399D01*
X44834521Y-43503946D01*
X44849812Y-43510754D01*
X44866749Y-43518295D01*
X44920845Y-43564275D01*
X44941500Y-43633402D01*
X44941500Y-48025245D01*
X44921498Y-48093366D01*
X44909137Y-48109555D01*
X44860963Y-48163058D01*
X44857661Y-48168777D01*
X44857659Y-48168780D01*
X44768780Y-48322723D01*
X44765476Y-48328446D01*
X44761356Y-48341127D01*
X44709257Y-48501472D01*
X44706462Y-48510073D01*
X44705772Y-48516636D01*
X44705772Y-48516637D01*
X44699232Y-48578863D01*
X44686500Y-48700000D01*
X44687190Y-48706565D01*
X44705088Y-48876850D01*
X44706462Y-48889927D01*
X44765476Y-49071554D01*
X44768779Y-49077276D01*
X44768780Y-49077277D01*
X44794736Y-49122233D01*
X44860963Y-49236942D01*
X44865381Y-49241849D01*
X44865382Y-49241850D01*
X44958830Y-49345635D01*
X44988749Y-49378863D01*
X44994091Y-49382744D01*
X44994093Y-49382746D01*
X45089330Y-49451939D01*
X45143250Y-49491114D01*
X45149278Y-49493798D01*
X45149280Y-49493799D01*
X45311682Y-49566105D01*
X45317713Y-49568790D01*
X45411113Y-49588643D01*
X45498056Y-49607124D01*
X45498061Y-49607124D01*
X45504513Y-49608496D01*
X45695487Y-49608496D01*
X45701939Y-49607124D01*
X45701944Y-49607124D01*
X45788887Y-49588643D01*
X45882287Y-49568790D01*
X45888318Y-49566105D01*
X46050720Y-49493799D01*
X46050722Y-49493798D01*
X46056750Y-49491114D01*
X46110670Y-49451939D01*
X46205907Y-49382746D01*
X46205909Y-49382744D01*
X46211251Y-49378863D01*
X46241170Y-49345635D01*
X46334618Y-49241850D01*
X46334619Y-49241849D01*
X46339037Y-49236942D01*
X46405264Y-49122233D01*
X46431220Y-49077277D01*
X46431221Y-49077276D01*
X46434524Y-49071554D01*
X46493538Y-48889927D01*
X46494913Y-48876850D01*
X46512810Y-48706565D01*
X46513500Y-48700000D01*
X46500768Y-48578863D01*
X46494228Y-48516637D01*
X46494228Y-48516636D01*
X46493538Y-48510073D01*
X46490744Y-48501472D01*
X46438644Y-48341127D01*
X46434524Y-48328446D01*
X46431220Y-48322723D01*
X46342341Y-48168780D01*
X46342339Y-48168777D01*
X46339037Y-48163058D01*
X46290863Y-48109555D01*
X46260146Y-48045547D01*
X46258500Y-48025245D01*
X46258500Y-45900000D01*
X47486500Y-45900000D01*
X47487190Y-45906565D01*
X47501234Y-46040181D01*
X47506462Y-46089927D01*
X47565476Y-46271554D01*
X47660963Y-46436942D01*
X47665381Y-46441849D01*
X47665382Y-46441850D01*
X47774753Y-46563319D01*
X47788749Y-46578863D01*
X47794091Y-46582744D01*
X47794093Y-46582746D01*
X47913279Y-46669339D01*
X47943250Y-46691114D01*
X47949278Y-46693798D01*
X47949280Y-46693799D01*
X48103940Y-46762658D01*
X48117713Y-46768790D01*
X48270563Y-46801280D01*
X48333461Y-46835431D01*
X48554596Y-47056567D01*
X48588621Y-47118879D01*
X48591500Y-47145662D01*
X48591500Y-50099987D01*
X48574619Y-50162986D01*
X48511076Y-50273046D01*
X48452062Y-50454673D01*
X48432100Y-50644600D01*
X48452062Y-50834527D01*
X48454102Y-50840805D01*
X48454102Y-50840806D01*
X48466464Y-50878853D01*
X48511076Y-51016154D01*
X48514379Y-51021876D01*
X48514380Y-51021877D01*
X48521349Y-51033948D01*
X48606563Y-51181542D01*
X48734349Y-51323463D01*
X48739691Y-51327344D01*
X48739693Y-51327346D01*
X48764555Y-51345409D01*
X48888850Y-51435714D01*
X48894878Y-51438398D01*
X48894880Y-51438399D01*
X49049410Y-51507200D01*
X49063313Y-51513390D01*
X49156713Y-51533243D01*
X49243656Y-51551724D01*
X49243661Y-51551724D01*
X49250113Y-51553096D01*
X49441087Y-51553096D01*
X49447539Y-51551724D01*
X49447544Y-51551724D01*
X49534487Y-51533243D01*
X49627887Y-51513390D01*
X49641790Y-51507200D01*
X49796320Y-51438399D01*
X49796322Y-51438398D01*
X49802350Y-51435714D01*
X49926645Y-51345409D01*
X49951507Y-51327346D01*
X49951509Y-51327344D01*
X49956851Y-51323463D01*
X50084637Y-51181542D01*
X50169851Y-51033948D01*
X50176820Y-51021877D01*
X50176821Y-51021876D01*
X50180124Y-51016154D01*
X50224736Y-50878853D01*
X50237098Y-50840806D01*
X50237098Y-50840805D01*
X50239138Y-50834527D01*
X50259100Y-50644600D01*
X50239138Y-50454673D01*
X50180124Y-50273046D01*
X50084637Y-50107658D01*
X50040864Y-50059043D01*
X50010146Y-49995036D01*
X50008500Y-49974733D01*
X50008500Y-46825938D01*
X50008792Y-46817368D01*
X50012006Y-46770234D01*
X50012006Y-46770230D01*
X50012522Y-46762658D01*
X50001535Y-46699708D01*
X50000576Y-46693205D01*
X49999854Y-46687233D01*
X49992904Y-46629806D01*
X49990217Y-46622697D01*
X49989576Y-46620085D01*
X49985128Y-46603825D01*
X49984352Y-46601255D01*
X49983047Y-46593776D01*
X49979996Y-46586825D01*
X49979994Y-46586819D01*
X49957376Y-46535295D01*
X49954883Y-46529186D01*
X49934993Y-46476548D01*
X49934992Y-46476546D01*
X49932306Y-46469438D01*
X49928000Y-46463173D01*
X49926750Y-46460782D01*
X49918563Y-46446073D01*
X49917193Y-46443756D01*
X49914139Y-46436799D01*
X49909518Y-46430776D01*
X49909514Y-46430770D01*
X49875245Y-46386108D01*
X49871370Y-46380775D01*
X49857568Y-46360694D01*
X49835204Y-46328154D01*
X49791326Y-46289060D01*
X49786051Y-46284080D01*
X49334660Y-45832689D01*
X49300634Y-45770377D01*
X49298445Y-45756763D01*
X49298259Y-45754988D01*
X49293538Y-45710073D01*
X49234524Y-45528446D01*
X49139037Y-45363058D01*
X49103397Y-45323475D01*
X49015673Y-45226048D01*
X49015672Y-45226047D01*
X49011251Y-45221137D01*
X49005909Y-45217256D01*
X49005907Y-45217254D01*
X48862092Y-45112767D01*
X48862091Y-45112766D01*
X48856750Y-45108886D01*
X48850722Y-45106202D01*
X48850720Y-45106201D01*
X48688318Y-45033895D01*
X48688317Y-45033895D01*
X48682287Y-45031210D01*
X48588887Y-45011357D01*
X48501944Y-44992876D01*
X48501939Y-44992876D01*
X48495487Y-44991504D01*
X48304513Y-44991504D01*
X48298061Y-44992876D01*
X48298056Y-44992876D01*
X48211113Y-45011357D01*
X48117713Y-45031210D01*
X48111683Y-45033895D01*
X48111682Y-45033895D01*
X47949280Y-45106201D01*
X47949278Y-45106202D01*
X47943250Y-45108886D01*
X47937909Y-45112766D01*
X47937908Y-45112767D01*
X47794093Y-45217254D01*
X47794091Y-45217256D01*
X47788749Y-45221137D01*
X47784328Y-45226047D01*
X47784327Y-45226048D01*
X47696604Y-45323475D01*
X47660963Y-45363058D01*
X47565476Y-45528446D01*
X47506462Y-45710073D01*
X47486500Y-45900000D01*
X46258500Y-45900000D01*
X46258500Y-42990780D01*
X46258974Y-42980716D01*
X46260556Y-42973641D01*
X46258562Y-42910189D01*
X46258500Y-42906231D01*
X46258500Y-42871621D01*
X46258003Y-42867684D01*
X46257714Y-42865395D01*
X46256783Y-42853570D01*
X46255581Y-42815331D01*
X46255332Y-42807406D01*
X46249350Y-42786814D01*
X46245341Y-42767455D01*
X46243649Y-42754059D01*
X46243648Y-42754056D01*
X46242655Y-42746194D01*
X46237215Y-42732454D01*
X46225659Y-42703267D01*
X46221814Y-42692036D01*
X46211143Y-42655306D01*
X46211142Y-42655304D01*
X46208931Y-42647693D01*
X46198014Y-42629234D01*
X46189321Y-42611488D01*
X46189065Y-42610843D01*
X46181429Y-42591556D01*
X46176767Y-42585139D01*
X46154288Y-42554199D01*
X46147770Y-42544277D01*
X46127292Y-42509651D01*
X46124268Y-42504537D01*
X46121825Y-42501766D01*
X46117540Y-42497481D01*
X46086802Y-42447322D01*
X46041966Y-42309331D01*
X46039924Y-42303046D01*
X45944437Y-42137658D01*
X45878601Y-42064539D01*
X45821073Y-42000648D01*
X45821072Y-42000647D01*
X45816651Y-41995737D01*
X45811309Y-41991856D01*
X45811307Y-41991854D01*
X45667492Y-41887367D01*
X45667491Y-41887366D01*
X45662150Y-41883486D01*
X45656122Y-41880802D01*
X45656120Y-41880801D01*
X45493718Y-41808495D01*
X45493717Y-41808495D01*
X45487687Y-41805810D01*
X45381698Y-41783281D01*
X45307344Y-41767476D01*
X45307339Y-41767476D01*
X45300887Y-41766104D01*
X45109913Y-41766104D01*
X45103461Y-41767476D01*
X45103456Y-41767476D01*
X45029102Y-41783281D01*
X44923113Y-41805810D01*
X44917083Y-41808495D01*
X44917082Y-41808495D01*
X44754680Y-41880801D01*
X44754678Y-41880802D01*
X44748650Y-41883486D01*
X44743309Y-41887366D01*
X44743308Y-41887367D01*
X44599493Y-41991854D01*
X44599491Y-41991856D01*
X44594149Y-41995737D01*
X44589728Y-42000647D01*
X44589727Y-42000648D01*
X44532200Y-42064539D01*
X44466363Y-42137658D01*
X44370876Y-42303046D01*
X44311862Y-42484673D01*
X44311172Y-42491236D01*
X44311172Y-42491237D01*
X44298533Y-42611488D01*
X44291900Y-42674600D01*
X38863500Y-42674600D01*
X38863500Y-41675000D01*
X38858273Y-41601921D01*
X38817096Y-41461684D01*
X38745869Y-41350853D01*
X38742949Y-41346309D01*
X38742947Y-41346306D01*
X38738077Y-41338729D01*
X38724886Y-41327299D01*
X38634431Y-41248918D01*
X38634428Y-41248916D01*
X38627619Y-41243016D01*
X38576422Y-41219635D01*
X38502864Y-41186042D01*
X38502863Y-41186042D01*
X38494670Y-41182300D01*
X38485755Y-41181018D01*
X38485754Y-41181018D01*
X38354448Y-41162139D01*
X38354441Y-41162138D01*
X38350000Y-41161500D01*
X36650000Y-41161500D01*
X36576921Y-41166727D01*
X36523884Y-41182300D01*
X36445330Y-41205365D01*
X36445328Y-41205366D01*
X36436684Y-41207904D01*
X36417954Y-41219941D01*
X36321309Y-41282051D01*
X36321306Y-41282053D01*
X36313729Y-41286923D01*
X36307828Y-41293733D01*
X36223918Y-41390569D01*
X36223916Y-41390572D01*
X36218016Y-41397381D01*
X36157300Y-41530330D01*
X36156018Y-41539245D01*
X36156018Y-41539246D01*
X36137139Y-41670552D01*
X36137138Y-41670559D01*
X36136500Y-41675000D01*
X34598269Y-41675000D01*
X34581433Y-41486364D01*
X34579451Y-41475350D01*
X34524335Y-41273879D01*
X34520441Y-41263406D01*
X34430513Y-41074869D01*
X34424827Y-41065254D01*
X34406811Y-41040181D01*
X34396021Y-41031771D01*
X34382985Y-41038725D01*
X33734522Y-41687188D01*
X33726908Y-41701132D01*
X32996856Y-41701132D01*
X32998092Y-41698868D01*
X32997961Y-41697035D01*
X32993710Y-41690420D01*
X32342333Y-41039043D01*
X32329953Y-41032283D01*
X32304162Y-41051590D01*
X32304076Y-41051475D01*
X32272549Y-41079400D01*
X32202389Y-41090267D01*
X32137492Y-41061478D01*
X32098461Y-41002173D01*
X32094225Y-40983146D01*
X32090639Y-40957992D01*
X32077072Y-40954000D01*
X30934615Y-40954000D01*
X30919376Y-40958475D01*
X30918171Y-40959865D01*
X30916500Y-40967548D01*
X30408500Y-40967548D01*
X30408500Y-40665149D01*
X32692202Y-40665149D01*
X32698833Y-40677123D01*
X33349688Y-41327978D01*
X33363632Y-41335592D01*
X33365465Y-41335461D01*
X33372080Y-41331210D01*
X34023401Y-40679889D01*
X34029625Y-40668491D01*
X34019814Y-40656057D01*
X33963571Y-40618263D01*
X33953773Y-40612877D01*
X33762509Y-40528918D01*
X33751917Y-40525353D01*
X33548808Y-40476591D01*
X33537746Y-40474958D01*
X33329220Y-40462934D01*
X33318036Y-40463286D01*
X33110677Y-40488379D01*
X33099743Y-40490703D01*
X32900095Y-40552123D01*
X32889749Y-40556344D01*
X32704130Y-40652150D01*
X32699589Y-40655032D01*
X32692202Y-40665149D01*
X30408500Y-40665149D01*
X30408500Y-39610115D01*
X30407159Y-39605548D01*
X30916500Y-39605548D01*
X30916500Y-40427885D01*
X30920975Y-40443124D01*
X30922365Y-40444329D01*
X30930048Y-40446000D01*
X32072861Y-40446000D01*
X32086392Y-40442027D01*
X32087747Y-40432601D01*
X32066268Y-40343476D01*
X32062379Y-40332181D01*
X31979836Y-40150638D01*
X31973889Y-40140296D01*
X31858501Y-39977629D01*
X31850708Y-39968600D01*
X31706644Y-39830689D01*
X31697279Y-39823293D01*
X31529740Y-39715114D01*
X31519136Y-39709618D01*
X31334178Y-39635078D01*
X31322719Y-39631684D01*
X31125556Y-39593180D01*
X31116588Y-39592091D01*
X31116272Y-39592075D01*
X31113179Y-39592000D01*
X30934615Y-39592000D01*
X30919376Y-39596475D01*
X30918171Y-39597865D01*
X30916500Y-39605548D01*
X30407159Y-39605548D01*
X30404025Y-39594876D01*
X30402635Y-39593671D01*
X30394952Y-39592000D01*
X30263087Y-39592000D01*
X30257110Y-39592285D01*
X30108014Y-39606510D01*
X30096280Y-39608769D01*
X29904916Y-39664909D01*
X29893840Y-39669339D01*
X29786692Y-39724524D01*
X29716973Y-39737933D01*
X29651073Y-39711520D01*
X29609914Y-39653671D01*
X29603000Y-39612508D01*
X29603000Y-39050000D01*
X49411500Y-39050000D01*
X49411500Y-40750000D01*
X49416727Y-40823079D01*
X49418631Y-40829562D01*
X49455169Y-40954000D01*
X49457904Y-40963316D01*
X49462775Y-40970895D01*
X49532051Y-41078691D01*
X49532053Y-41078694D01*
X49536923Y-41086271D01*
X49543733Y-41092172D01*
X49640569Y-41176082D01*
X49640572Y-41176084D01*
X49647381Y-41181984D01*
X49655579Y-41185728D01*
X49763680Y-41235096D01*
X49780330Y-41242700D01*
X49789245Y-41243982D01*
X49789246Y-41243982D01*
X49920552Y-41262861D01*
X49920559Y-41262862D01*
X49925000Y-41263500D01*
X51625000Y-41263500D01*
X51698079Y-41258273D01*
X51790636Y-41231096D01*
X51829670Y-41219635D01*
X51829672Y-41219634D01*
X51838316Y-41217096D01*
X51911376Y-41170143D01*
X51953691Y-41142949D01*
X51953694Y-41142947D01*
X51961271Y-41138077D01*
X52002699Y-41090267D01*
X52051082Y-41034431D01*
X52051084Y-41034428D01*
X52056984Y-41027619D01*
X52117700Y-40894670D01*
X52118373Y-40889987D01*
X52155589Y-40832079D01*
X52220171Y-40802586D01*
X52290444Y-40812691D01*
X52322493Y-40833741D01*
X52486967Y-40982094D01*
X52495444Y-40988528D01*
X52681122Y-41106136D01*
X52690567Y-41111053D01*
X52893406Y-41195694D01*
X52903545Y-41198950D01*
X53043345Y-41231096D01*
X53057422Y-41230257D01*
X53061000Y-41220999D01*
X53061000Y-40167548D01*
X53569000Y-40167548D01*
X53569000Y-41219941D01*
X53573151Y-41234079D01*
X53583798Y-41235774D01*
X53587192Y-41235096D01*
X53798333Y-41173954D01*
X53808259Y-41170143D01*
X54006065Y-41074307D01*
X54015212Y-41068876D01*
X54194041Y-40941083D01*
X54202149Y-40934182D01*
X54356893Y-40778082D01*
X54363706Y-40769933D01*
X54489940Y-40589988D01*
X54495295Y-40580787D01*
X54589399Y-40382156D01*
X54593123Y-40372197D01*
X54650968Y-40165718D01*
X54649430Y-40157351D01*
X54637137Y-40154000D01*
X53587115Y-40154000D01*
X53571876Y-40158475D01*
X53570671Y-40159865D01*
X53569000Y-40167548D01*
X53061000Y-40167548D01*
X53061000Y-38583717D01*
X53060328Y-38581430D01*
X53569000Y-38581430D01*
X53569000Y-39627885D01*
X53573475Y-39643124D01*
X53574865Y-39644329D01*
X53582548Y-39646000D01*
X54634079Y-39646000D01*
X54647610Y-39642027D01*
X54648876Y-39633218D01*
X54601954Y-39452433D01*
X54598419Y-39442395D01*
X54508147Y-39241998D01*
X54502967Y-39232692D01*
X54380218Y-39050366D01*
X54373557Y-39042080D01*
X54221830Y-38883030D01*
X54213873Y-38875990D01*
X54037523Y-38744782D01*
X54028486Y-38739178D01*
X53832550Y-38639559D01*
X53822699Y-38635559D01*
X53612778Y-38570378D01*
X53602396Y-38568095D01*
X53586959Y-38566049D01*
X53572792Y-38568246D01*
X53569000Y-38581430D01*
X53060328Y-38581430D01*
X53057027Y-38570186D01*
X53046420Y-38568661D01*
X52928554Y-38593391D01*
X52918358Y-38596451D01*
X52713932Y-38677182D01*
X52704396Y-38681916D01*
X52516486Y-38795942D01*
X52507896Y-38802206D01*
X52341884Y-38946264D01*
X52334472Y-38953886D01*
X52332513Y-38956276D01*
X52331431Y-38957014D01*
X52330749Y-38957715D01*
X52330606Y-38957576D01*
X52273855Y-38996273D01*
X52202885Y-38998209D01*
X52142135Y-38961468D01*
X52114178Y-38911888D01*
X52094635Y-38845330D01*
X52094634Y-38845328D01*
X52092096Y-38836684D01*
X52033034Y-38744782D01*
X52017949Y-38721309D01*
X52017947Y-38721306D01*
X52013077Y-38713729D01*
X51970900Y-38677182D01*
X51909431Y-38623918D01*
X51909428Y-38623916D01*
X51902619Y-38618016D01*
X51894421Y-38614272D01*
X51777864Y-38561042D01*
X51777863Y-38561042D01*
X51769670Y-38557300D01*
X51760755Y-38556018D01*
X51760754Y-38556018D01*
X51629448Y-38537139D01*
X51629441Y-38537138D01*
X51625000Y-38536500D01*
X49925000Y-38536500D01*
X49851921Y-38541727D01*
X49798884Y-38557300D01*
X49720330Y-38580365D01*
X49720328Y-38580366D01*
X49711684Y-38582904D01*
X49704105Y-38587775D01*
X49596309Y-38657051D01*
X49596306Y-38657053D01*
X49588729Y-38661923D01*
X49582828Y-38668733D01*
X49498918Y-38765569D01*
X49498916Y-38765572D01*
X49493016Y-38772381D01*
X49432300Y-38905330D01*
X49431018Y-38914245D01*
X49431018Y-38914246D01*
X49412139Y-39045552D01*
X49412138Y-39045559D01*
X49411500Y-39050000D01*
X29603000Y-39050000D01*
X29603000Y-35436793D01*
X31108747Y-35436793D01*
X31108823Y-35437863D01*
X31112008Y-35442697D01*
X31392304Y-35657776D01*
X31397934Y-35661631D01*
X31702897Y-35847052D01*
X31708899Y-35850270D01*
X32032114Y-36001674D01*
X32038419Y-36004222D01*
X32376099Y-36119836D01*
X32382650Y-36121689D01*
X32730827Y-36200154D01*
X32737546Y-36201291D01*
X33092170Y-36241696D01*
X33098960Y-36242099D01*
X33455869Y-36243967D01*
X33462670Y-36243635D01*
X33817697Y-36206947D01*
X33824425Y-36205881D01*
X34173419Y-36131062D01*
X34179968Y-36129283D01*
X34518845Y-36017211D01*
X34525187Y-36014725D01*
X34849949Y-35866723D01*
X34856008Y-35863556D01*
X35162888Y-35681343D01*
X35168552Y-35677551D01*
X35453962Y-35463259D01*
X35459188Y-35458874D01*
X35472037Y-35446850D01*
X35480105Y-35433172D01*
X35480077Y-35432446D01*
X35474935Y-35424145D01*
X33307812Y-33257022D01*
X33293868Y-33249408D01*
X33292035Y-33249539D01*
X33285420Y-33253790D01*
X31116361Y-35422849D01*
X31108747Y-35436793D01*
X29603000Y-35436793D01*
X29603000Y-32966733D01*
X29604751Y-32945803D01*
X29606678Y-32934365D01*
X29606679Y-32934349D01*
X29607486Y-32929561D01*
X29608143Y-32876657D01*
X29932192Y-32876657D01*
X29950251Y-33233134D01*
X29950961Y-33239890D01*
X30007411Y-33592319D01*
X30008850Y-33598974D01*
X30103030Y-33943237D01*
X30105179Y-33949698D01*
X30235991Y-34281784D01*
X30238822Y-34287967D01*
X30404734Y-34603984D01*
X30408217Y-34609826D01*
X30607292Y-34906081D01*
X30611385Y-34911511D01*
X30735892Y-35059369D01*
X30748631Y-35067813D01*
X30759074Y-35061716D01*
X32922978Y-32897812D01*
X32929356Y-32886132D01*
X33659408Y-32886132D01*
X33659539Y-32887965D01*
X33663790Y-32894580D01*
X35829511Y-35060301D01*
X35843108Y-35067726D01*
X35852717Y-35061029D01*
X35957251Y-34939498D01*
X35961400Y-34934110D01*
X36104102Y-34726478D01*
X49486500Y-34726478D01*
X49486500Y-36325386D01*
X49501978Y-36458143D01*
X49562313Y-36624364D01*
X49659269Y-36772247D01*
X49787645Y-36893858D01*
X49940555Y-36982675D01*
X50109796Y-37033933D01*
X50116236Y-37034508D01*
X50116237Y-37034508D01*
X50186185Y-37040751D01*
X50186191Y-37040751D01*
X50188978Y-37041000D01*
X51487886Y-37041000D01*
X51583106Y-37029898D01*
X51613371Y-37026370D01*
X51613372Y-37026370D01*
X51620643Y-37025522D01*
X51627521Y-37023026D01*
X51627523Y-37023025D01*
X51779985Y-36967684D01*
X51786864Y-36965187D01*
X51934747Y-36868231D01*
X52056358Y-36739855D01*
X52060033Y-36733528D01*
X52060036Y-36733524D01*
X52131146Y-36611098D01*
X52182657Y-36562239D01*
X52252405Y-36548985D01*
X52318247Y-36575545D01*
X52331270Y-36587411D01*
X52438170Y-36699470D01*
X52446127Y-36706510D01*
X52622477Y-36837718D01*
X52631514Y-36843322D01*
X52827450Y-36942941D01*
X52837301Y-36946941D01*
X53047222Y-37012122D01*
X53057604Y-37014405D01*
X53073041Y-37016451D01*
X53087208Y-37014254D01*
X53091000Y-37001070D01*
X53091000Y-35800048D01*
X53599000Y-35800048D01*
X53599000Y-36998783D01*
X53602973Y-37012314D01*
X53613580Y-37013839D01*
X53731446Y-36989109D01*
X53741642Y-36986049D01*
X53946068Y-36905318D01*
X53955604Y-36900584D01*
X54143514Y-36786558D01*
X54152104Y-36780294D01*
X54318116Y-36636236D01*
X54325536Y-36628605D01*
X54464900Y-36458640D01*
X54470925Y-36449873D01*
X54579658Y-36258856D01*
X54584123Y-36249192D01*
X54659118Y-36042584D01*
X54661889Y-36032316D01*
X54701212Y-35814854D01*
X54702147Y-35806624D01*
X54702346Y-35802389D01*
X54698525Y-35789376D01*
X54697135Y-35788171D01*
X54689452Y-35786500D01*
X53617115Y-35786500D01*
X53601876Y-35790975D01*
X53600671Y-35792365D01*
X53599000Y-35800048D01*
X53091000Y-35800048D01*
X53091000Y-35436793D01*
X108108747Y-35436793D01*
X108108823Y-35437863D01*
X108112008Y-35442697D01*
X108392304Y-35657776D01*
X108397934Y-35661631D01*
X108702897Y-35847052D01*
X108708899Y-35850270D01*
X109032114Y-36001674D01*
X109038419Y-36004222D01*
X109376099Y-36119836D01*
X109382650Y-36121689D01*
X109730827Y-36200154D01*
X109737546Y-36201291D01*
X110092170Y-36241696D01*
X110098960Y-36242099D01*
X110455869Y-36243967D01*
X110462670Y-36243635D01*
X110817697Y-36206947D01*
X110824425Y-36205881D01*
X111173419Y-36131062D01*
X111179968Y-36129283D01*
X111518845Y-36017211D01*
X111525187Y-36014725D01*
X111849949Y-35866723D01*
X111856008Y-35863556D01*
X112162888Y-35681343D01*
X112168552Y-35677551D01*
X112453962Y-35463259D01*
X112459188Y-35458874D01*
X112472037Y-35446850D01*
X112480105Y-35433172D01*
X112480077Y-35432446D01*
X112474935Y-35424145D01*
X110307812Y-33257022D01*
X110293868Y-33249408D01*
X110292035Y-33249539D01*
X110285420Y-33253790D01*
X108116361Y-35422849D01*
X108108747Y-35436793D01*
X53091000Y-35436793D01*
X53091000Y-34066217D01*
X53090328Y-34063930D01*
X53599000Y-34063930D01*
X53599000Y-35260385D01*
X53603475Y-35275624D01*
X53604865Y-35276829D01*
X53612548Y-35278500D01*
X54681061Y-35278500D01*
X54695739Y-35274190D01*
X54697802Y-35262307D01*
X54688965Y-35158169D01*
X54687173Y-35147681D01*
X54631952Y-34934927D01*
X54628420Y-34924899D01*
X54538147Y-34724498D01*
X54532967Y-34715192D01*
X54410218Y-34532866D01*
X54403557Y-34524580D01*
X54251830Y-34365530D01*
X54243873Y-34358490D01*
X54067523Y-34227282D01*
X54058486Y-34221678D01*
X53862550Y-34122059D01*
X53852699Y-34118059D01*
X53642778Y-34052878D01*
X53632396Y-34050595D01*
X53616959Y-34048549D01*
X53602792Y-34050746D01*
X53599000Y-34063930D01*
X53090328Y-34063930D01*
X53087027Y-34052686D01*
X53076420Y-34051161D01*
X52958554Y-34075891D01*
X52948358Y-34078951D01*
X52743932Y-34159682D01*
X52734396Y-34164416D01*
X52546486Y-34278442D01*
X52537896Y-34284706D01*
X52371884Y-34428764D01*
X52364464Y-34436395D01*
X52338695Y-34467822D01*
X52280035Y-34507817D01*
X52209065Y-34509748D01*
X52148316Y-34473003D01*
X52129522Y-34445692D01*
X52127687Y-34440636D01*
X52030731Y-34292753D01*
X51902355Y-34171142D01*
X51749445Y-34082325D01*
X51580204Y-34031067D01*
X51573764Y-34030492D01*
X51573763Y-34030492D01*
X51503815Y-34024249D01*
X51503809Y-34024249D01*
X51501022Y-34024000D01*
X50202114Y-34024000D01*
X50106894Y-34035102D01*
X50076629Y-34038630D01*
X50076628Y-34038630D01*
X50069357Y-34039478D01*
X50062479Y-34041974D01*
X50062477Y-34041975D01*
X49969040Y-34075891D01*
X49903136Y-34099813D01*
X49755253Y-34196769D01*
X49633642Y-34325145D01*
X49544825Y-34478055D01*
X49493567Y-34647296D01*
X49486500Y-34726478D01*
X36104102Y-34726478D01*
X36163561Y-34639964D01*
X36167108Y-34634153D01*
X36336311Y-34319908D01*
X36339218Y-34313730D01*
X36473499Y-33983038D01*
X36475713Y-33976608D01*
X36573493Y-33633346D01*
X36575000Y-33626716D01*
X36635141Y-33274881D01*
X36635921Y-33268141D01*
X36657808Y-32910275D01*
X36657924Y-32906673D01*
X36657994Y-32886820D01*
X36657902Y-32883193D01*
X36657548Y-32876657D01*
X106932192Y-32876657D01*
X106950251Y-33233134D01*
X106950961Y-33239890D01*
X107007411Y-33592319D01*
X107008850Y-33598974D01*
X107103030Y-33943237D01*
X107105179Y-33949698D01*
X107235991Y-34281784D01*
X107238822Y-34287967D01*
X107404734Y-34603984D01*
X107408217Y-34609826D01*
X107607292Y-34906081D01*
X107611385Y-34911511D01*
X107735892Y-35059369D01*
X107748631Y-35067813D01*
X107759074Y-35061716D01*
X109922978Y-32897812D01*
X109929356Y-32886132D01*
X110659408Y-32886132D01*
X110659539Y-32887965D01*
X110663790Y-32894580D01*
X112829511Y-35060301D01*
X112843108Y-35067726D01*
X112852717Y-35061029D01*
X112957251Y-34939498D01*
X112961400Y-34934110D01*
X113163561Y-34639964D01*
X113167108Y-34634153D01*
X113336311Y-34319908D01*
X113339218Y-34313730D01*
X113473499Y-33983038D01*
X113475713Y-33976608D01*
X113573493Y-33633346D01*
X113575000Y-33626716D01*
X113635141Y-33274881D01*
X113635921Y-33268141D01*
X113657808Y-32910275D01*
X113657924Y-32906673D01*
X113657994Y-32886820D01*
X113657902Y-32883193D01*
X113638514Y-32525200D01*
X113637779Y-32518434D01*
X113580101Y-32166218D01*
X113578634Y-32159546D01*
X113483258Y-31815634D01*
X113481084Y-31809170D01*
X113349115Y-31477547D01*
X113346259Y-31471367D01*
X113179249Y-31155939D01*
X113175749Y-31150114D01*
X112975637Y-30854550D01*
X112971523Y-30849130D01*
X112854089Y-30710656D01*
X112841263Y-30702219D01*
X112830938Y-30708272D01*
X110667022Y-32872188D01*
X110659408Y-32886132D01*
X109929356Y-32886132D01*
X109930592Y-32883868D01*
X109930461Y-32882035D01*
X109926210Y-32875420D01*
X107760479Y-30709689D01*
X107746942Y-30702297D01*
X107737241Y-30709084D01*
X107625595Y-30839806D01*
X107621461Y-30845214D01*
X107420336Y-31140051D01*
X107416801Y-31145888D01*
X107248694Y-31460725D01*
X107245813Y-31466904D01*
X107112689Y-31798060D01*
X107110498Y-31804495D01*
X107013913Y-32148106D01*
X107012430Y-32154742D01*
X106953521Y-32506765D01*
X106952762Y-32513537D01*
X106932216Y-32869862D01*
X106932192Y-32876657D01*
X36657548Y-32876657D01*
X36638514Y-32525200D01*
X36637779Y-32518434D01*
X36580101Y-32166218D01*
X36578634Y-32159546D01*
X36483258Y-31815634D01*
X36481084Y-31809170D01*
X36349115Y-31477547D01*
X36346259Y-31471367D01*
X36179249Y-31155939D01*
X36175749Y-31150114D01*
X35975637Y-30854550D01*
X35971523Y-30849130D01*
X35854089Y-30710656D01*
X35841263Y-30702219D01*
X35830938Y-30708272D01*
X33667022Y-32872188D01*
X33659408Y-32886132D01*
X32929356Y-32886132D01*
X32930592Y-32883868D01*
X32930461Y-32882035D01*
X32926210Y-32875420D01*
X30760479Y-30709689D01*
X30746942Y-30702297D01*
X30737241Y-30709084D01*
X30625595Y-30839806D01*
X30621461Y-30845214D01*
X30420336Y-31140051D01*
X30416801Y-31145888D01*
X30248694Y-31460725D01*
X30245813Y-31466904D01*
X30112689Y-31798060D01*
X30110498Y-31804495D01*
X30013913Y-32148106D01*
X30012430Y-32154742D01*
X29953521Y-32506765D01*
X29952762Y-32513537D01*
X29932216Y-32869862D01*
X29932192Y-32876657D01*
X29608143Y-32876657D01*
X29609510Y-32766659D01*
X29609650Y-32762100D01*
X29614287Y-32667718D01*
X29614741Y-32661561D01*
X29641866Y-32386158D01*
X29642618Y-32380062D01*
X29647294Y-32348538D01*
X29653312Y-32307975D01*
X29654369Y-32301885D01*
X29708342Y-32030536D01*
X29709697Y-32024502D01*
X29727409Y-31953790D01*
X29729054Y-31947846D01*
X29809368Y-31683090D01*
X29811307Y-31677221D01*
X29835856Y-31608607D01*
X29838077Y-31602848D01*
X29943977Y-31347184D01*
X29946482Y-31341534D01*
X29977607Y-31275727D01*
X29980387Y-31270204D01*
X30110840Y-31026144D01*
X30113888Y-31020763D01*
X30151329Y-30958296D01*
X30154638Y-30953072D01*
X30308358Y-30723012D01*
X30311920Y-30717954D01*
X30355324Y-30659432D01*
X30359127Y-30654558D01*
X30534692Y-30440632D01*
X30538704Y-30435981D01*
X30587606Y-30382026D01*
X30591871Y-30377547D01*
X30632972Y-30336446D01*
X31109532Y-30336446D01*
X31109567Y-30337286D01*
X31114618Y-30345408D01*
X33282188Y-32512978D01*
X33296132Y-32520592D01*
X33297965Y-32520461D01*
X33304580Y-32516210D01*
X35473214Y-30347576D01*
X35479291Y-30336446D01*
X108109532Y-30336446D01*
X108109567Y-30337286D01*
X108114618Y-30345408D01*
X110282188Y-32512978D01*
X110296132Y-32520592D01*
X110297965Y-32520461D01*
X110304580Y-32516210D01*
X112473214Y-30347576D01*
X112480828Y-30333632D01*
X112480760Y-30332677D01*
X112475817Y-30325202D01*
X112471915Y-30321881D01*
X112187993Y-30105590D01*
X112182369Y-30101768D01*
X111876755Y-29917409D01*
X111870738Y-29914210D01*
X111547006Y-29763939D01*
X111540670Y-29761405D01*
X111202612Y-29646979D01*
X111196044Y-29645145D01*
X110847606Y-29567899D01*
X110840867Y-29566783D01*
X110486109Y-29527617D01*
X110479328Y-29527238D01*
X110122391Y-29526615D01*
X110115618Y-29526970D01*
X109760704Y-29564899D01*
X109753994Y-29565986D01*
X109405271Y-29642020D01*
X109398696Y-29643831D01*
X109060225Y-29757082D01*
X109053903Y-29759585D01*
X108729649Y-29908725D01*
X108723606Y-29911911D01*
X108417362Y-30095195D01*
X108411716Y-30099003D01*
X108127038Y-30314303D01*
X108121848Y-30318690D01*
X108117555Y-30322735D01*
X108109532Y-30336446D01*
X35479291Y-30336446D01*
X35480828Y-30333632D01*
X35480760Y-30332677D01*
X35475817Y-30325202D01*
X35471915Y-30321881D01*
X35187993Y-30105590D01*
X35182369Y-30101768D01*
X34876755Y-29917409D01*
X34870738Y-29914210D01*
X34547006Y-29763939D01*
X34540670Y-29761405D01*
X34202612Y-29646979D01*
X34196044Y-29645145D01*
X33847606Y-29567899D01*
X33840867Y-29566783D01*
X33486109Y-29527617D01*
X33479328Y-29527238D01*
X33122391Y-29526615D01*
X33115618Y-29526970D01*
X32760704Y-29564899D01*
X32753994Y-29565986D01*
X32405271Y-29642020D01*
X32398696Y-29643831D01*
X32060225Y-29757082D01*
X32053903Y-29759585D01*
X31729649Y-29908725D01*
X31723606Y-29911911D01*
X31417362Y-30095195D01*
X31411716Y-30099003D01*
X31127038Y-30314303D01*
X31121848Y-30318690D01*
X31117555Y-30322735D01*
X31109532Y-30336446D01*
X30632972Y-30336446D01*
X30787546Y-30181872D01*
X30792025Y-30177607D01*
X30845977Y-30128708D01*
X30850660Y-30124669D01*
X31064565Y-29949122D01*
X31069439Y-29945318D01*
X31127929Y-29901938D01*
X31132974Y-29898385D01*
X31363086Y-29744629D01*
X31368311Y-29741320D01*
X31430759Y-29703890D01*
X31436132Y-29700847D01*
X31680205Y-29570387D01*
X31685726Y-29567608D01*
X31751531Y-29536485D01*
X31757184Y-29533979D01*
X32012855Y-29428077D01*
X32018623Y-29425852D01*
X32065974Y-29408909D01*
X32087229Y-29401304D01*
X32093067Y-29399376D01*
X32357865Y-29319050D01*
X32363793Y-29317409D01*
X32385821Y-29311891D01*
X32434478Y-29299704D01*
X32440511Y-29298349D01*
X32711890Y-29244369D01*
X32717980Y-29243312D01*
X32757070Y-29237513D01*
X32790067Y-29232618D01*
X32796164Y-29231866D01*
X33071564Y-29204742D01*
X33077733Y-29204287D01*
X33083771Y-29203990D01*
X33172103Y-29199651D01*
X33176649Y-29199511D01*
X33289155Y-29198113D01*
X33331796Y-29197584D01*
X33331800Y-29197584D01*
X33336283Y-29197528D01*
X33355672Y-29194505D01*
X33375082Y-29193001D01*
X71332725Y-29193001D01*
X110213274Y-29193000D01*
X110234204Y-29194751D01*
G37*
%TD.AperFunction*%
%TA.AperFunction,Conductor*%
G36*
X39635800Y-90951914D02*
G01*
X39695010Y-90991090D01*
X39723639Y-91056058D01*
X39712600Y-91126191D01*
X39687789Y-91161421D01*
X39592022Y-91257188D01*
X39584408Y-91271132D01*
X39584539Y-91272965D01*
X39588790Y-91279580D01*
X39690351Y-91381141D01*
X39724377Y-91443453D01*
X39719312Y-91514268D01*
X39676765Y-91571104D01*
X39610245Y-91595915D01*
X39563996Y-91590601D01*
X39423792Y-91547200D01*
X39417674Y-91546557D01*
X39417669Y-91546556D01*
X39233205Y-91527169D01*
X39233203Y-91527169D01*
X39227076Y-91526525D01*
X39185250Y-91530331D01*
X39115599Y-91516588D01*
X39084736Y-91493946D01*
X38949885Y-91359095D01*
X38915859Y-91296783D01*
X38920924Y-91225968D01*
X38949885Y-91180905D01*
X39082907Y-91047883D01*
X39145219Y-91013857D01*
X39186926Y-91011865D01*
X39198775Y-91013278D01*
X39204910Y-91012806D01*
X39204912Y-91012806D01*
X39389850Y-90998576D01*
X39389854Y-90998575D01*
X39395992Y-90998103D01*
X39564810Y-90950968D01*
X39635800Y-90951914D01*
G37*
%TD.AperFunction*%
%TA.AperFunction,Conductor*%
G36*
X40036810Y-90949062D02*
G01*
X40162366Y-90989857D01*
X40358775Y-91013278D01*
X40364910Y-91012806D01*
X40364912Y-91012806D01*
X40415867Y-91008885D01*
X40485322Y-91023602D01*
X40514629Y-91045419D01*
X40650115Y-91180905D01*
X40684141Y-91243217D01*
X40679076Y-91314032D01*
X40650115Y-91359095D01*
X40516089Y-91493121D01*
X40453777Y-91527147D01*
X40413825Y-91529336D01*
X40393206Y-91527169D01*
X40393203Y-91527169D01*
X40387076Y-91526525D01*
X40304226Y-91534065D01*
X40196228Y-91543893D01*
X40196225Y-91543894D01*
X40190089Y-91544452D01*
X40184183Y-91546190D01*
X40184179Y-91546191D01*
X40035471Y-91589958D01*
X39964474Y-91590003D01*
X39904724Y-91551657D01*
X39875190Y-91487094D01*
X39885249Y-91416814D01*
X39910801Y-91379989D01*
X40007978Y-91282812D01*
X40015592Y-91268868D01*
X40015461Y-91267035D01*
X40011210Y-91260420D01*
X39908780Y-91157990D01*
X39874754Y-91095678D01*
X39879819Y-91024863D01*
X39922366Y-90968027D01*
X39988886Y-90943216D01*
X40036810Y-90949062D01*
G37*
%TD.AperFunction*%
%TD*%
M02*
