%TF.GenerationSoftware,KiCad,Pcbnew,(5.99.0-8928-gc255dede17)*%
%TF.CreationDate,2021-02-24T19:05:11-08:00*%
%TF.ProjectId,smbpcb,736d6270-6362-42e6-9b69-6361645f7063,rev?*%
%TF.SameCoordinates,Original*%
%TF.FileFunction,Soldermask,Bot*%
%TF.FilePolarity,Negative*%
%FSLAX46Y46*%
G04 Gerber Fmt 4.6, Leading zero omitted, Abs format (unit mm)*
G04 Created by KiCad (PCBNEW (5.99.0-8928-gc255dede17)) date 2021-02-24 19:05:11*
%MOMM*%
%LPD*%
G01*
G04 APERTURE LIST*
G04 Aperture macros list*
%AMRoundRect*
0 Rectangle with rounded corners*
0 $1 Rounding radius*
0 $2 $3 $4 $5 $6 $7 $8 $9 X,Y pos of 4 corners*
0 Add a 4 corners polygon primitive as box body*
4,1,4,$2,$3,$4,$5,$6,$7,$8,$9,$2,$3,0*
0 Add four circle primitives for the rounded corners*
1,1,$1+$1,$2,$3*
1,1,$1+$1,$4,$5*
1,1,$1+$1,$6,$7*
1,1,$1+$1,$8,$9*
0 Add four rect primitives between the rounded corners*
20,1,$1+$1,$2,$3,$4,$5,0*
20,1,$1+$1,$4,$5,$6,$7,0*
20,1,$1+$1,$6,$7,$8,$9,0*
20,1,$1+$1,$8,$9,$2,$3,0*%
G04 Aperture macros list end*
%ADD10R,1.700000X1.700000*%
%ADD11O,1.700000X1.700000*%
%ADD12R,1.524000X1.524000*%
%ADD13C,1.524000*%
%ADD14O,1.900000X1.200000*%
%ADD15C,1.450000*%
%ADD16C,1.000000*%
%ADD17C,5.700000*%
%ADD18RoundRect,0.250000X-0.600000X-0.750000X0.600000X-0.750000X0.600000X0.750000X-0.600000X0.750000X0*%
%ADD19O,1.700000X2.000000*%
G04 APERTURE END LIST*
D10*
%TO.C,EXT_BATT1*%
X50775000Y-39900000D03*
D11*
X53315000Y-39900000D03*
%TD*%
D10*
%TO.C,AUX_CONN2*%
X90000000Y-96300000D03*
D11*
X90000000Y-93760000D03*
X90000000Y-91220000D03*
X90000000Y-88680000D03*
%TD*%
D12*
%TO.C,U6*%
X97655000Y-84437500D03*
D13*
X100195000Y-84437500D03*
X102735000Y-84437500D03*
X105275000Y-84437500D03*
X107815000Y-84437500D03*
X97655000Y-55227500D03*
X100195000Y-55227500D03*
X102735000Y-55227500D03*
X105275000Y-55227500D03*
%TD*%
D14*
%TO.C,J1*%
X30662500Y-40700000D03*
X30662500Y-47700000D03*
D15*
X33362500Y-41700000D03*
X33362500Y-46700000D03*
%TD*%
D16*
%TO.C,J2*%
X39220000Y-92540000D03*
X40380000Y-92540000D03*
X39220000Y-91270000D03*
X40380000Y-91270000D03*
X39220000Y-90000000D03*
X40380000Y-90000000D03*
X39220000Y-88730000D03*
X40380000Y-88730000D03*
X39220000Y-87460000D03*
X40380000Y-87460000D03*
%TD*%
D17*
%TO.C,*%
X33295000Y-94885000D03*
%TD*%
D10*
%TO.C,5V_IN1*%
X37500000Y-42525000D03*
D11*
X37500000Y-45065000D03*
%TD*%
D17*
%TO.C,REF\u002A\u002A*%
X110295000Y-32885000D03*
%TD*%
D10*
%TO.C,AUX_CONN1*%
X85000000Y-96300000D03*
D11*
X85000000Y-93760000D03*
X85000000Y-91220000D03*
X85000000Y-88680000D03*
%TD*%
D17*
%TO.C,MOUNT4*%
X110295000Y-94885000D03*
%TD*%
D18*
%TO.C,BT1*%
X50845000Y-35532500D03*
D19*
X53345000Y-35532500D03*
%TD*%
D17*
%TO.C,REF\u002A\u002A*%
X33295000Y-32885000D03*
%TD*%
D10*
%TO.C,AUX_CONN3*%
X95000000Y-96300000D03*
D11*
X95000000Y-93760000D03*
X95000000Y-91220000D03*
X95000000Y-88680000D03*
%TD*%
D10*
%TO.C,AUX_CONN4*%
X100000000Y-96300000D03*
D11*
X100000000Y-93760000D03*
X100000000Y-91220000D03*
X100000000Y-88680000D03*
%TD*%
M02*
