%TF.GenerationSoftware,KiCad,Pcbnew,(5.99.0-8928-gc255dede17)*%
%TF.CreationDate,2021-02-24T20:07:13-08:00*%
%TF.ProjectId,smbpcb,736d6270-6362-42e6-9b69-6361645f7063,rev?*%
%TF.SameCoordinates,Original*%
%TF.FileFunction,Legend,Top*%
%TF.FilePolarity,Positive*%
%FSLAX46Y46*%
G04 Gerber Fmt 4.6, Leading zero omitted, Abs format (unit mm)*
G04 Created by KiCad (PCBNEW (5.99.0-8928-gc255dede17)) date 2021-02-24 20:07:13*
%MOMM*%
%LPD*%
G01*
G04 APERTURE LIST*
%ADD10C,0.000352*%
%ADD11C,0.150000*%
%ADD12C,0.100000*%
%ADD13C,0.075000*%
%ADD14C,0.300000*%
%ADD15C,0.250000*%
%ADD16C,0.120000*%
%ADD17C,0.127000*%
%ADD18C,1.000000*%
G04 APERTURE END LIST*
D10*
X41815745Y-31762130D02*
X41839028Y-31888425D01*
X41839028Y-31888425D02*
X41867195Y-32037495D01*
X41867195Y-32037495D02*
X41876570Y-32083067D01*
X41876570Y-32083067D02*
X41884184Y-32114202D01*
X41884184Y-32114202D02*
X41887653Y-32125498D01*
X41887653Y-32125498D02*
X41891070Y-32134556D01*
X41891070Y-32134556D02*
X41894563Y-32141832D01*
X41894563Y-32141832D02*
X41898262Y-32147782D01*
X41898262Y-32147782D02*
X41902296Y-32152865D01*
X41902296Y-32152865D02*
X41906793Y-32157536D01*
X41906793Y-32157536D02*
X41917698Y-32167472D01*
X41917698Y-32167472D02*
X41921336Y-32170746D01*
X41921336Y-32170746D02*
X41924809Y-32173739D01*
X41924809Y-32173739D02*
X41928267Y-32176525D01*
X41928267Y-32176525D02*
X41931858Y-32179180D01*
X41931858Y-32179180D02*
X41933751Y-32180480D01*
X41933751Y-32180480D02*
X41935733Y-32181776D01*
X41935733Y-32181776D02*
X41937823Y-32183075D01*
X41937823Y-32183075D02*
X41940041Y-32184389D01*
X41940041Y-32184389D02*
X41944930Y-32187092D01*
X41944930Y-32187092D02*
X41950550Y-32189961D01*
X41950550Y-32189961D02*
X41957051Y-32193070D01*
X41957051Y-32193070D02*
X41964582Y-32196493D01*
X41964582Y-32196493D02*
X41973292Y-32200305D01*
X41973292Y-32200305D02*
X41983331Y-32204580D01*
X41983331Y-32204580D02*
X41994848Y-32209392D01*
X41994848Y-32209392D02*
X42007992Y-32214816D01*
X42007992Y-32214816D02*
X42039759Y-32227797D01*
X42039759Y-32227797D02*
X42118561Y-32259767D01*
X42118561Y-32259767D02*
X42223556Y-32302586D01*
X42223556Y-32302586D02*
X42232807Y-32306259D01*
X42232807Y-32306259D02*
X42242137Y-32309812D01*
X42242137Y-32309812D02*
X42251294Y-32313159D01*
X42251294Y-32313159D02*
X42260024Y-32316212D01*
X42260024Y-32316212D02*
X42268077Y-32318884D01*
X42268077Y-32318884D02*
X42275199Y-32321090D01*
X42275199Y-32321090D02*
X42281140Y-32322741D01*
X42281140Y-32322741D02*
X42285645Y-32323752D01*
X42285645Y-32323752D02*
X42289869Y-32324444D01*
X42289869Y-32324444D02*
X42294433Y-32324936D01*
X42294433Y-32324936D02*
X42299280Y-32325236D01*
X42299280Y-32325236D02*
X42304353Y-32325351D01*
X42304353Y-32325351D02*
X42309596Y-32325288D01*
X42309596Y-32325288D02*
X42314952Y-32325054D01*
X42314952Y-32325054D02*
X42320363Y-32324658D01*
X42320363Y-32324658D02*
X42325773Y-32324105D01*
X42325773Y-32324105D02*
X42331126Y-32323403D01*
X42331126Y-32323403D02*
X42336364Y-32322560D01*
X42336364Y-32322560D02*
X42341430Y-32321583D01*
X42341430Y-32321583D02*
X42346268Y-32320478D01*
X42346268Y-32320478D02*
X42350820Y-32319253D01*
X42350820Y-32319253D02*
X42355030Y-32317916D01*
X42355030Y-32317916D02*
X42358842Y-32316474D01*
X42358842Y-32316474D02*
X42362198Y-32314933D01*
X42362198Y-32314933D02*
X42369649Y-32310586D01*
X42369649Y-32310586D02*
X42382322Y-32302586D01*
X42382322Y-32302586D02*
X42399584Y-32291344D01*
X42399584Y-32291344D02*
X42420803Y-32277274D01*
X42420803Y-32277274D02*
X42472579Y-32242305D01*
X42472579Y-32242305D02*
X42532589Y-32200986D01*
X42532589Y-32200986D02*
X42588240Y-32162841D01*
X42588240Y-32162841D02*
X42645478Y-32123374D01*
X42645478Y-32123374D02*
X42704039Y-32083158D01*
X42704039Y-32083158D02*
X42817987Y-32197105D01*
X42817987Y-32197105D02*
X42931934Y-32311052D01*
X42931934Y-32311052D02*
X42913236Y-32337863D01*
X42913236Y-32337863D02*
X42871609Y-32398188D01*
X42871609Y-32398188D02*
X42846429Y-32434745D01*
X42846429Y-32434745D02*
X42818340Y-32475800D01*
X42818340Y-32475800D02*
X42803837Y-32497286D01*
X42803837Y-32497286D02*
X42786192Y-32523072D01*
X42786192Y-32523072D02*
X42750606Y-32574577D01*
X42750606Y-32574577D02*
X42742848Y-32585904D01*
X42742848Y-32585904D02*
X42735304Y-32597194D01*
X42735304Y-32597194D02*
X42728158Y-32608144D01*
X42728158Y-32608144D02*
X42721590Y-32618454D01*
X42721590Y-32618454D02*
X42715783Y-32627821D01*
X42715783Y-32627821D02*
X42710919Y-32635944D01*
X42710919Y-32635944D02*
X42707179Y-32642521D01*
X42707179Y-32642521D02*
X42704745Y-32647249D01*
X42704745Y-32647249D02*
X42702844Y-32651528D01*
X42702844Y-32651528D02*
X42701110Y-32656011D01*
X42701110Y-32656011D02*
X42699545Y-32660672D01*
X42699545Y-32660672D02*
X42698152Y-32665484D01*
X42698152Y-32665484D02*
X42696933Y-32670419D01*
X42696933Y-32670419D02*
X42695890Y-32675452D01*
X42695890Y-32675452D02*
X42695024Y-32680556D01*
X42695024Y-32680556D02*
X42694338Y-32685702D01*
X42694338Y-32685702D02*
X42693834Y-32690865D01*
X42693834Y-32690865D02*
X42693514Y-32696018D01*
X42693514Y-32696018D02*
X42693380Y-32701134D01*
X42693380Y-32701134D02*
X42693434Y-32706185D01*
X42693434Y-32706185D02*
X42693678Y-32711146D01*
X42693678Y-32711146D02*
X42694115Y-32715989D01*
X42694115Y-32715989D02*
X42694745Y-32720687D01*
X42694745Y-32720687D02*
X42695573Y-32725213D01*
X42695573Y-32725213D02*
X42703124Y-32746597D01*
X42703124Y-32746597D02*
X42720069Y-32788862D01*
X42720069Y-32788862D02*
X42770097Y-32907908D01*
X42770097Y-32907908D02*
X42821581Y-33026094D01*
X42821581Y-33026094D02*
X42840344Y-33067284D01*
X42840344Y-33067284D02*
X42850442Y-33087163D01*
X42850442Y-33087163D02*
X42852945Y-33090578D01*
X42852945Y-33090578D02*
X42855800Y-33094055D01*
X42855800Y-33094055D02*
X42858969Y-33097567D01*
X42858969Y-33097567D02*
X42862415Y-33101087D01*
X42862415Y-33101087D02*
X42866100Y-33104586D01*
X42866100Y-33104586D02*
X42869988Y-33108036D01*
X42869988Y-33108036D02*
X42874042Y-33111410D01*
X42874042Y-33111410D02*
X42878223Y-33114680D01*
X42878223Y-33114680D02*
X42882496Y-33117817D01*
X42882496Y-33117817D02*
X42886822Y-33120794D01*
X42886822Y-33120794D02*
X42891165Y-33123583D01*
X42891165Y-33123583D02*
X42895488Y-33126156D01*
X42895488Y-33126156D02*
X42899752Y-33128485D01*
X42899752Y-33128485D02*
X42903921Y-33130543D01*
X42903921Y-33130543D02*
X42907958Y-33132300D01*
X42907958Y-33132300D02*
X42911826Y-33133730D01*
X42911826Y-33133730D02*
X42917083Y-33135153D01*
X42917083Y-33135153D02*
X42926174Y-33137241D01*
X42926174Y-33137241D02*
X42953850Y-33143035D01*
X42953850Y-33143035D02*
X42990853Y-33150349D01*
X42990853Y-33150349D02*
X43033181Y-33158425D01*
X43033181Y-33158425D02*
X43131826Y-33176504D01*
X43131826Y-33176504D02*
X43220153Y-33192997D01*
X43220153Y-33192997D02*
X43301292Y-33208166D01*
X43301292Y-33208166D02*
X43302350Y-33369033D01*
X43302350Y-33369033D02*
X43302615Y-33458098D01*
X43302615Y-33458098D02*
X43302474Y-33486644D01*
X43302474Y-33486644D02*
X43302086Y-33506616D01*
X43302086Y-33506616D02*
X43301399Y-33519577D01*
X43301399Y-33519577D02*
X43300366Y-33527088D01*
X43300366Y-33527088D02*
X43299703Y-33529289D01*
X43299703Y-33529289D02*
X43298936Y-33530714D01*
X43298936Y-33530714D02*
X43298056Y-33531558D01*
X43298056Y-33531558D02*
X43297059Y-33532016D01*
X43297059Y-33532016D02*
X43283190Y-33534844D01*
X43283190Y-33534844D02*
X43250139Y-33541144D01*
X43250139Y-33541144D02*
X43146070Y-33560591D01*
X43146070Y-33560591D02*
X42965448Y-33594105D01*
X42965448Y-33594105D02*
X42957793Y-33595550D01*
X42957793Y-33595550D02*
X42950047Y-33597197D01*
X42950047Y-33597197D02*
X42942417Y-33598985D01*
X42942417Y-33598985D02*
X42935109Y-33600852D01*
X42935109Y-33600852D02*
X42928330Y-33602735D01*
X42928330Y-33602735D02*
X42922288Y-33604573D01*
X42922288Y-33604573D02*
X42917187Y-33606303D01*
X42917187Y-33606303D02*
X42913236Y-33607863D01*
X42913236Y-33607863D02*
X42909245Y-33609792D01*
X42909245Y-33609792D02*
X42905103Y-33612113D01*
X42905103Y-33612113D02*
X42900850Y-33614790D01*
X42900850Y-33614790D02*
X42896524Y-33617785D01*
X42896524Y-33617785D02*
X42892165Y-33621062D01*
X42892165Y-33621062D02*
X42887812Y-33624582D01*
X42887812Y-33624582D02*
X42883504Y-33628309D01*
X42883504Y-33628309D02*
X42879282Y-33632205D01*
X42879282Y-33632205D02*
X42875183Y-33636234D01*
X42875183Y-33636234D02*
X42871248Y-33640357D01*
X42871248Y-33640357D02*
X42867515Y-33644539D01*
X42867515Y-33644539D02*
X42864024Y-33648741D01*
X42864024Y-33648741D02*
X42860814Y-33652927D01*
X42860814Y-33652927D02*
X42857925Y-33657059D01*
X42857925Y-33657059D02*
X42855395Y-33661100D01*
X42855395Y-33661100D02*
X42853264Y-33665013D01*
X42853264Y-33665013D02*
X42850192Y-33671698D01*
X42850192Y-33671698D02*
X42844627Y-33684626D01*
X42844627Y-33684626D02*
X42827291Y-33726132D01*
X42827291Y-33726132D02*
X42803804Y-33783381D01*
X42803804Y-33783381D02*
X42776711Y-33850222D01*
X42776711Y-33850222D02*
X42708626Y-34019202D01*
X42708626Y-34019202D02*
X42708626Y-34058008D01*
X42708626Y-34058008D02*
X42708735Y-34073016D01*
X42708735Y-34073016D02*
X42708958Y-34079391D01*
X42708958Y-34079391D02*
X42709370Y-34085205D01*
X42709370Y-34085205D02*
X42710027Y-34090601D01*
X42710027Y-34090601D02*
X42710988Y-34095723D01*
X42710988Y-34095723D02*
X42711600Y-34098227D01*
X42711600Y-34098227D02*
X42712310Y-34100715D01*
X42712310Y-34100715D02*
X42713124Y-34103208D01*
X42713124Y-34103208D02*
X42714050Y-34105721D01*
X42714050Y-34105721D02*
X42716265Y-34110884D01*
X42716265Y-34110884D02*
X42719013Y-34116347D01*
X42719013Y-34116347D02*
X42722351Y-34122255D01*
X42722351Y-34122255D02*
X42726336Y-34128751D01*
X42726336Y-34128751D02*
X42731027Y-34135978D01*
X42731027Y-34135978D02*
X42736479Y-34144081D01*
X42736479Y-34144081D02*
X42749901Y-34163488D01*
X42749901Y-34163488D02*
X42776006Y-34201632D01*
X42776006Y-34201632D02*
X42790779Y-34223267D01*
X42790779Y-34223267D02*
X42804228Y-34243216D01*
X42804228Y-34243216D02*
X42832318Y-34284271D01*
X42832318Y-34284271D02*
X42857498Y-34320827D01*
X42857498Y-34320827D02*
X42906534Y-34391736D01*
X42906534Y-34391736D02*
X42932287Y-34429130D01*
X42932287Y-34429130D02*
X42818340Y-34542724D01*
X42818340Y-34542724D02*
X42704392Y-34656672D01*
X42704392Y-34656672D02*
X42561870Y-34558600D01*
X42561870Y-34558600D02*
X42504703Y-34519568D01*
X42504703Y-34519568D02*
X42454317Y-34485795D01*
X42454317Y-34485795D02*
X42416167Y-34460819D01*
X42416167Y-34460819D02*
X42403386Y-34452736D01*
X42403386Y-34452736D02*
X42395711Y-34448180D01*
X42395711Y-34448180D02*
X42388252Y-34444524D01*
X42388252Y-34444524D02*
X42384985Y-34443010D01*
X42384985Y-34443010D02*
X42381942Y-34441687D01*
X42381942Y-34441687D02*
X42379061Y-34440541D01*
X42379061Y-34440541D02*
X42376277Y-34439560D01*
X42376277Y-34439560D02*
X42373529Y-34438730D01*
X42373529Y-34438730D02*
X42370753Y-34438038D01*
X42370753Y-34438038D02*
X42367885Y-34437469D01*
X42367885Y-34437469D02*
X42364864Y-34437011D01*
X42364864Y-34437011D02*
X42361626Y-34436650D01*
X42361626Y-34436650D02*
X42358108Y-34436373D01*
X42358108Y-34436373D02*
X42354246Y-34436166D01*
X42354246Y-34436166D02*
X42349979Y-34436016D01*
X42349979Y-34436016D02*
X42339973Y-34435833D01*
X42339973Y-34435833D02*
X42307870Y-34435833D01*
X42307870Y-34435833D02*
X42257070Y-34461938D01*
X42257070Y-34461938D02*
X42237105Y-34471992D01*
X42237105Y-34471992D02*
X42220646Y-34479930D01*
X42220646Y-34479930D02*
X42214247Y-34482857D01*
X42214247Y-34482857D02*
X42209346Y-34484957D01*
X42209346Y-34484957D02*
X42206147Y-34486131D01*
X42206147Y-34486131D02*
X42205251Y-34486340D01*
X42205251Y-34486340D02*
X42204859Y-34486280D01*
X42204859Y-34486280D02*
X42203940Y-34484433D01*
X42203940Y-34484433D02*
X42201805Y-34479638D01*
X42201805Y-34479638D02*
X42194452Y-34462512D01*
X42194452Y-34462512D02*
X42183924Y-34437514D01*
X42183924Y-34437514D02*
X42171345Y-34407258D01*
X42171345Y-34407258D02*
X41974407Y-33928627D01*
X41974407Y-33928627D02*
X41960829Y-33893491D01*
X41960829Y-33893491D02*
X41955544Y-33877132D01*
X41955544Y-33877132D02*
X41955568Y-33872035D01*
X41955568Y-33872035D02*
X41957915Y-33870683D01*
X41957915Y-33870683D02*
X41959521Y-33869421D01*
X41959521Y-33869421D02*
X41961635Y-33867800D01*
X41961635Y-33867800D02*
X41967043Y-33863759D01*
X41967043Y-33863759D02*
X41970162Y-33861481D01*
X41970162Y-33861481D02*
X41973442Y-33859124D01*
X41973442Y-33859124D02*
X41976797Y-33856758D01*
X41976797Y-33856758D02*
X41980139Y-33854455D01*
X41980139Y-33854455D02*
X42001494Y-33838834D01*
X42001494Y-33838834D02*
X42022139Y-33822170D01*
X42022139Y-33822170D02*
X42042036Y-33804523D01*
X42042036Y-33804523D02*
X42061146Y-33785950D01*
X42061146Y-33785950D02*
X42079429Y-33766509D01*
X42079429Y-33766509D02*
X42096845Y-33746257D01*
X42096845Y-33746257D02*
X42113357Y-33725253D01*
X42113357Y-33725253D02*
X42128923Y-33703554D01*
X42128923Y-33703554D02*
X42143506Y-33681219D01*
X42143506Y-33681219D02*
X42157066Y-33658305D01*
X42157066Y-33658305D02*
X42169563Y-33634870D01*
X42169563Y-33634870D02*
X42180958Y-33610972D01*
X42180958Y-33610972D02*
X42191212Y-33586669D01*
X42191212Y-33586669D02*
X42200287Y-33562019D01*
X42200287Y-33562019D02*
X42208141Y-33537079D01*
X42208141Y-33537079D02*
X42214737Y-33511908D01*
X42214737Y-33511908D02*
X42219410Y-33490976D01*
X42219410Y-33490976D02*
X42223154Y-33471454D01*
X42223154Y-33471454D02*
X42226029Y-33452767D01*
X42226029Y-33452767D02*
X42227160Y-33443557D01*
X42227160Y-33443557D02*
X42228098Y-33434341D01*
X42228098Y-33434341D02*
X42229423Y-33415600D01*
X42229423Y-33415600D02*
X42230066Y-33395971D01*
X42230066Y-33395971D02*
X42230089Y-33374878D01*
X42230089Y-33374878D02*
X42229553Y-33351747D01*
X42229553Y-33351747D02*
X42228200Y-33323429D01*
X42228200Y-33323429D02*
X42227188Y-33309977D01*
X42227188Y-33309977D02*
X42225937Y-33296923D01*
X42225937Y-33296923D02*
X42224439Y-33284212D01*
X42224439Y-33284212D02*
X42222682Y-33271789D01*
X42222682Y-33271789D02*
X42220657Y-33259600D01*
X42220657Y-33259600D02*
X42218353Y-33247589D01*
X42218353Y-33247589D02*
X42215759Y-33235703D01*
X42215759Y-33235703D02*
X42212865Y-33223885D01*
X42212865Y-33223885D02*
X42209662Y-33212083D01*
X42209662Y-33212083D02*
X42206138Y-33200240D01*
X42206138Y-33200240D02*
X42202283Y-33188302D01*
X42202283Y-33188302D02*
X42198087Y-33176214D01*
X42198087Y-33176214D02*
X42188631Y-33151369D01*
X42188631Y-33151369D02*
X42175928Y-33122219D01*
X42175928Y-33122219D02*
X42161549Y-33093818D01*
X42161549Y-33093818D02*
X42145574Y-33066238D01*
X42145574Y-33066238D02*
X42128080Y-33039549D01*
X42128080Y-33039549D02*
X42109145Y-33013824D01*
X42109145Y-33013824D02*
X42088848Y-32989134D01*
X42088848Y-32989134D02*
X42067266Y-32965549D01*
X42067266Y-32965549D02*
X42044477Y-32943142D01*
X42044477Y-32943142D02*
X42020560Y-32921983D01*
X42020560Y-32921983D02*
X41995592Y-32902144D01*
X41995592Y-32902144D02*
X41969652Y-32883696D01*
X41969652Y-32883696D02*
X41942817Y-32866710D01*
X41942817Y-32866710D02*
X41915165Y-32851259D01*
X41915165Y-32851259D02*
X41886775Y-32837412D01*
X41886775Y-32837412D02*
X41857725Y-32825242D01*
X41857725Y-32825242D02*
X41828092Y-32814819D01*
X41828092Y-32814819D02*
X41803383Y-32807301D01*
X41803383Y-32807301D02*
X41792130Y-32804124D01*
X41792130Y-32804124D02*
X41781426Y-32801309D01*
X41781426Y-32801309D02*
X41771132Y-32798834D01*
X41771132Y-32798834D02*
X41761107Y-32796680D01*
X41761107Y-32796680D02*
X41751213Y-32794828D01*
X41751213Y-32794828D02*
X41741309Y-32793255D01*
X41741309Y-32793255D02*
X41731256Y-32791944D01*
X41731256Y-32791944D02*
X41720915Y-32790872D01*
X41720915Y-32790872D02*
X41710147Y-32790021D01*
X41710147Y-32790021D02*
X41698810Y-32789369D01*
X41698810Y-32789369D02*
X41673877Y-32788586D01*
X41673877Y-32788586D02*
X41645001Y-32788361D01*
X41645001Y-32788361D02*
X41615451Y-32788618D01*
X41615451Y-32788618D02*
X41589846Y-32789496D01*
X41589846Y-32789496D02*
X41578184Y-32790217D01*
X41578184Y-32790217D02*
X41567101Y-32791151D01*
X41567101Y-32791151D02*
X41556464Y-32792319D01*
X41556464Y-32792319D02*
X41546135Y-32793740D01*
X41546135Y-32793740D02*
X41535979Y-32795435D01*
X41535979Y-32795435D02*
X41525862Y-32797421D01*
X41525862Y-32797421D02*
X41515648Y-32799720D01*
X41515648Y-32799720D02*
X41505201Y-32802350D01*
X41505201Y-32802350D02*
X41483069Y-32808685D01*
X41483069Y-32808685D02*
X41458381Y-32816583D01*
X41458381Y-32816583D02*
X41424147Y-32829207D01*
X41424147Y-32829207D02*
X41390952Y-32843872D01*
X41390952Y-32843872D02*
X41358873Y-32860495D01*
X41358873Y-32860495D02*
X41327991Y-32878991D01*
X41327991Y-32878991D02*
X41298385Y-32899278D01*
X41298385Y-32899278D02*
X41270132Y-32921271D01*
X41270132Y-32921271D02*
X41243313Y-32944887D01*
X41243313Y-32944887D02*
X41218007Y-32970041D01*
X41218007Y-32970041D02*
X41194293Y-32996651D01*
X41194293Y-32996651D02*
X41172249Y-33024632D01*
X41172249Y-33024632D02*
X41151955Y-33053901D01*
X41151955Y-33053901D02*
X41133489Y-33084374D01*
X41133489Y-33084374D02*
X41116932Y-33115968D01*
X41116932Y-33115968D02*
X41102362Y-33148598D01*
X41102362Y-33148598D02*
X41089857Y-33182181D01*
X41089857Y-33182181D02*
X41079498Y-33216633D01*
X41079498Y-33216633D02*
X41074051Y-33238010D01*
X41074051Y-33238010D02*
X41069791Y-33256420D01*
X41069791Y-33256420D02*
X41068063Y-33264906D01*
X41068063Y-33264906D02*
X41066581Y-33273126D01*
X41066581Y-33273126D02*
X41065327Y-33281235D01*
X41065327Y-33281235D02*
X41064284Y-33289393D01*
X41064284Y-33289393D02*
X41063436Y-33297758D01*
X41063436Y-33297758D02*
X41062765Y-33306488D01*
X41062765Y-33306488D02*
X41062254Y-33315741D01*
X41062254Y-33315741D02*
X41061886Y-33325674D01*
X41061886Y-33325674D02*
X41061512Y-33348218D01*
X41061512Y-33348218D02*
X41061506Y-33375383D01*
X41061506Y-33375383D02*
X41061565Y-33397568D01*
X41061565Y-33397568D02*
X41061782Y-33415941D01*
X41061782Y-33415941D02*
X41062213Y-33431255D01*
X41062213Y-33431255D02*
X41062917Y-33444263D01*
X41062917Y-33444263D02*
X41063952Y-33455716D01*
X41063952Y-33455716D02*
X41065376Y-33466366D01*
X41065376Y-33466366D02*
X41067246Y-33476968D01*
X41067246Y-33476968D02*
X41069620Y-33488272D01*
X41069620Y-33488272D02*
X41076389Y-33516748D01*
X41076389Y-33516748D02*
X41084383Y-33544616D01*
X41084383Y-33544616D02*
X41093586Y-33571853D01*
X41093586Y-33571853D02*
X41103983Y-33598438D01*
X41103983Y-33598438D02*
X41115558Y-33624349D01*
X41115558Y-33624349D02*
X41128295Y-33649564D01*
X41128295Y-33649564D02*
X41142180Y-33674062D01*
X41142180Y-33674062D02*
X41157197Y-33697822D01*
X41157197Y-33697822D02*
X41173330Y-33720820D01*
X41173330Y-33720820D02*
X41190564Y-33743037D01*
X41190564Y-33743037D02*
X41208882Y-33764449D01*
X41208882Y-33764449D02*
X41228271Y-33785035D01*
X41228271Y-33785035D02*
X41248714Y-33804774D01*
X41248714Y-33804774D02*
X41270195Y-33823643D01*
X41270195Y-33823643D02*
X41292699Y-33841622D01*
X41292699Y-33841622D02*
X41316212Y-33858688D01*
X41316212Y-33858688D02*
X41320595Y-33861718D01*
X41320595Y-33861718D02*
X41324689Y-33864669D01*
X41324689Y-33864669D02*
X41328403Y-33867463D01*
X41328403Y-33867463D02*
X41331646Y-33870021D01*
X41331646Y-33870021D02*
X41334326Y-33872265D01*
X41334326Y-33872265D02*
X41336353Y-33874117D01*
X41336353Y-33874117D02*
X41337093Y-33874871D01*
X41337093Y-33874871D02*
X41337636Y-33875497D01*
X41337636Y-33875497D02*
X41337970Y-33875986D01*
X41337970Y-33875986D02*
X41338084Y-33876327D01*
X41338084Y-33876327D02*
X41338023Y-33876672D01*
X41338023Y-33876672D02*
X41337843Y-33877298D01*
X41337843Y-33877298D02*
X41337152Y-33879331D01*
X41337152Y-33879331D02*
X41336056Y-33882299D01*
X41336056Y-33882299D02*
X41334600Y-33886073D01*
X41334600Y-33886073D02*
X41332830Y-33890524D01*
X41332830Y-33890524D02*
X41330791Y-33895526D01*
X41330791Y-33895526D02*
X41328529Y-33900949D01*
X41328529Y-33900949D02*
X41326090Y-33906666D01*
X41326090Y-33906666D02*
X41319100Y-33922988D01*
X41319100Y-33922988D02*
X41309068Y-33947015D01*
X41309068Y-33947015D02*
X41285167Y-34005091D01*
X41285167Y-34005091D02*
X41260826Y-34064181D01*
X41260826Y-34064181D02*
X41242834Y-34107397D01*
X41242834Y-34107397D02*
X41224842Y-34150480D01*
X41224842Y-34150480D02*
X41200501Y-34209702D01*
X41200501Y-34209702D02*
X41176159Y-34268792D01*
X41176159Y-34268792D02*
X41158167Y-34312008D01*
X41158167Y-34312008D02*
X41140176Y-34355091D01*
X41140176Y-34355091D02*
X41115834Y-34414313D01*
X41115834Y-34414313D02*
X41104495Y-34441830D01*
X41104495Y-34441830D02*
X41094976Y-34464584D01*
X41094976Y-34464584D02*
X41088301Y-34480195D01*
X41088301Y-34480195D02*
X41085495Y-34486280D01*
X41085495Y-34486280D02*
X41085331Y-34486343D01*
X41085331Y-34486343D02*
X41085040Y-34486336D01*
X41085040Y-34486336D02*
X41084090Y-34486117D01*
X41084090Y-34486117D02*
X41082670Y-34485636D01*
X41082670Y-34485636D02*
X41080804Y-34484907D01*
X41080804Y-34484907D02*
X41075840Y-34482764D01*
X41075840Y-34482764D02*
X41069400Y-34479798D01*
X41069400Y-34479798D02*
X41061686Y-34476120D01*
X41061686Y-34476120D02*
X41052902Y-34471844D01*
X41052902Y-34471844D02*
X41032931Y-34461938D01*
X41032931Y-34461938D02*
X40982131Y-34435833D01*
X40982131Y-34435833D02*
X40951087Y-34435833D01*
X40951087Y-34435833D02*
X40935784Y-34435833D01*
X40935784Y-34435833D02*
X40932488Y-34435922D01*
X40932488Y-34435922D02*
X40929294Y-34436108D01*
X40929294Y-34436108D02*
X40926146Y-34436422D01*
X40926146Y-34436422D02*
X40922991Y-34436897D01*
X40922991Y-34436897D02*
X40919774Y-34437561D01*
X40919774Y-34437561D02*
X40916439Y-34438448D01*
X40916439Y-34438448D02*
X40912932Y-34439587D01*
X40912932Y-34439587D02*
X40909198Y-34441011D01*
X40909198Y-34441011D02*
X40905182Y-34442749D01*
X40905182Y-34442749D02*
X40900829Y-34444833D01*
X40900829Y-34444833D02*
X40896085Y-34447295D01*
X40896085Y-34447295D02*
X40890894Y-34450164D01*
X40890894Y-34450164D02*
X40885202Y-34453473D01*
X40885202Y-34453473D02*
X40878954Y-34457252D01*
X40878954Y-34457252D02*
X40864570Y-34466346D01*
X40864570Y-34466346D02*
X40847304Y-34477694D01*
X40847304Y-34477694D02*
X40826716Y-34491544D01*
X40826716Y-34491544D02*
X40802368Y-34508146D01*
X40802368Y-34508146D02*
X40773822Y-34527747D01*
X40773822Y-34527747D02*
X40702378Y-34576944D01*
X40702378Y-34576944D02*
X40664896Y-34602653D01*
X40664896Y-34602653D02*
X40644335Y-34616681D01*
X40644335Y-34616681D02*
X40625826Y-34629155D01*
X40625826Y-34629155D02*
X40585962Y-34656672D01*
X40585962Y-34656672D02*
X40472015Y-34543077D01*
X40472015Y-34543077D02*
X40358067Y-34429130D01*
X40358067Y-34429130D02*
X40387701Y-34386444D01*
X40387701Y-34386444D02*
X40506532Y-34212976D01*
X40506532Y-34212976D02*
X40541775Y-34160039D01*
X40541775Y-34160039D02*
X40564442Y-34123448D01*
X40564442Y-34123448D02*
X40571889Y-34109833D01*
X40571889Y-34109833D02*
X40577188Y-34098565D01*
X40577188Y-34098565D02*
X40580669Y-34089064D01*
X40580669Y-34089064D02*
X40582665Y-34080751D01*
X40582665Y-34080751D02*
X40583508Y-34073045D01*
X40583508Y-34073045D02*
X40583530Y-34065368D01*
X40583530Y-34065368D02*
X40582434Y-34047777D01*
X40582434Y-34047777D02*
X40582072Y-34042853D01*
X40582072Y-34042853D02*
X40581589Y-34038102D01*
X40581589Y-34038102D02*
X40580898Y-34033274D01*
X40580898Y-34033274D02*
X40579909Y-34028121D01*
X40579909Y-34028121D02*
X40578537Y-34022393D01*
X40578537Y-34022393D02*
X40576692Y-34015841D01*
X40576692Y-34015841D02*
X40574287Y-34008217D01*
X40574287Y-34008217D02*
X40571233Y-33999270D01*
X40571233Y-33999270D02*
X40567444Y-33988753D01*
X40567444Y-33988753D02*
X40562831Y-33976415D01*
X40562831Y-33976415D02*
X40557307Y-33962009D01*
X40557307Y-33962009D02*
X40550783Y-33945284D01*
X40550783Y-33945284D02*
X40534386Y-33903884D01*
X40534386Y-33903884D02*
X40512937Y-33850222D01*
X40512937Y-33850222D02*
X40462534Y-33726132D01*
X40462534Y-33726132D02*
X40445319Y-33684626D01*
X40445319Y-33684626D02*
X40436737Y-33665013D01*
X40436737Y-33665013D02*
X40434606Y-33661100D01*
X40434606Y-33661100D02*
X40432075Y-33657059D01*
X40432075Y-33657059D02*
X40429184Y-33652927D01*
X40429184Y-33652927D02*
X40425971Y-33648741D01*
X40425971Y-33648741D02*
X40422475Y-33644539D01*
X40422475Y-33644539D02*
X40418735Y-33640357D01*
X40418735Y-33640357D02*
X40414788Y-33636234D01*
X40414788Y-33636234D02*
X40410675Y-33632205D01*
X40410675Y-33632205D02*
X40406434Y-33628309D01*
X40406434Y-33628309D02*
X40402103Y-33624582D01*
X40402103Y-33624582D02*
X40397722Y-33621062D01*
X40397722Y-33621062D02*
X40393329Y-33617785D01*
X40393329Y-33617785D02*
X40388962Y-33614790D01*
X40388962Y-33614790D02*
X40384661Y-33612113D01*
X40384661Y-33612113D02*
X40380465Y-33609792D01*
X40380465Y-33609792D02*
X40376412Y-33607863D01*
X40376412Y-33607863D02*
X40373845Y-33606923D01*
X40373845Y-33606923D02*
X40369636Y-33605701D01*
X40369636Y-33605701D02*
X40356601Y-33602472D01*
X40356601Y-33602472D02*
X40337927Y-33598301D01*
X40337927Y-33598301D02*
X40314235Y-33593311D01*
X40314235Y-33593311D02*
X40254273Y-33581372D01*
X40254273Y-33581372D02*
X40181678Y-33567647D01*
X40181678Y-33567647D02*
X39994706Y-33532369D01*
X39994706Y-33532369D02*
X39986945Y-33530605D01*
X39986945Y-33530605D02*
X39987651Y-33369386D01*
X39987651Y-33369386D02*
X39988709Y-33208166D01*
X39988709Y-33208166D02*
X40173917Y-33173947D01*
X40173917Y-33173947D02*
X40247284Y-33160017D01*
X40247284Y-33160017D02*
X40310001Y-33147709D01*
X40310001Y-33147709D02*
X40355388Y-33138377D01*
X40355388Y-33138377D02*
X40376764Y-33133377D01*
X40376764Y-33133377D02*
X40380822Y-33131947D01*
X40380822Y-33131947D02*
X40385033Y-33130190D01*
X40385033Y-33130190D02*
X40389361Y-33128133D01*
X40389361Y-33128133D02*
X40393769Y-33125804D01*
X40393769Y-33125804D02*
X40398221Y-33123231D01*
X40398221Y-33123231D02*
X40402679Y-33120442D01*
X40402679Y-33120442D02*
X40407107Y-33117465D01*
X40407107Y-33117465D02*
X40411469Y-33114327D01*
X40411469Y-33114327D02*
X40415727Y-33111058D01*
X40415727Y-33111058D02*
X40419845Y-33107684D01*
X40419845Y-33107684D02*
X40423787Y-33104233D01*
X40423787Y-33104233D02*
X40427515Y-33100734D01*
X40427515Y-33100734D02*
X40430993Y-33097215D01*
X40430993Y-33097215D02*
X40434184Y-33093702D01*
X40434184Y-33093702D02*
X40437052Y-33090225D01*
X40437052Y-33090225D02*
X40439559Y-33086811D01*
X40439559Y-33086811D02*
X40449657Y-33066948D01*
X40449657Y-33066948D02*
X40468415Y-33025802D01*
X40468415Y-33025802D02*
X40519860Y-32907776D01*
X40519860Y-32907776D02*
X40569784Y-32788956D01*
X40569784Y-32788956D02*
X40586640Y-32746818D01*
X40586640Y-32746818D02*
X40594076Y-32725566D01*
X40594076Y-32725566D02*
X40594965Y-32720978D01*
X40594965Y-32720978D02*
X40595651Y-32716225D01*
X40595651Y-32716225D02*
X40596136Y-32711335D01*
X40596136Y-32711335D02*
X40596424Y-32706334D01*
X40596424Y-32706334D02*
X40596517Y-32701249D01*
X40596517Y-32701249D02*
X40596420Y-32696104D01*
X40596420Y-32696104D02*
X40596134Y-32690928D01*
X40596134Y-32690928D02*
X40595663Y-32685746D01*
X40595663Y-32685746D02*
X40595010Y-32680585D01*
X40595010Y-32680585D02*
X40594179Y-32675471D01*
X40594179Y-32675471D02*
X40593172Y-32670430D01*
X40593172Y-32670430D02*
X40591992Y-32665489D01*
X40591992Y-32665489D02*
X40590643Y-32660674D01*
X40590643Y-32660674D02*
X40589127Y-32656012D01*
X40589127Y-32656012D02*
X40587448Y-32651528D01*
X40587448Y-32651528D02*
X40585609Y-32647249D01*
X40585609Y-32647249D02*
X40584477Y-32645009D01*
X40584477Y-32645009D02*
X40582823Y-32642024D01*
X40582823Y-32642024D02*
X40578074Y-32634020D01*
X40578074Y-32634020D02*
X40571613Y-32623635D01*
X40571613Y-32623635D02*
X40563693Y-32611266D01*
X40563693Y-32611266D02*
X40554565Y-32597309D01*
X40554565Y-32597309D02*
X40544483Y-32582162D01*
X40544483Y-32582162D02*
X40533698Y-32566221D01*
X40533698Y-32566221D02*
X40522462Y-32549883D01*
X40522462Y-32549883D02*
X40388362Y-32354268D01*
X40388362Y-32354268D02*
X40366143Y-32320787D01*
X40366143Y-32320787D02*
X40362001Y-32313848D01*
X40362001Y-32313848D02*
X40360890Y-32311052D01*
X40360890Y-32311052D02*
X40361471Y-32310202D01*
X40361471Y-32310202D02*
X40363178Y-32308222D01*
X40363178Y-32308222D02*
X40369742Y-32301114D01*
X40369742Y-32301114D02*
X40380126Y-32290210D01*
X40380126Y-32290210D02*
X40393874Y-32275995D01*
X40393874Y-32275995D02*
X40410533Y-32258952D01*
X40410533Y-32258952D02*
X40429648Y-32239565D01*
X40429648Y-32239565D02*
X40450764Y-32218318D01*
X40450764Y-32218318D02*
X40473426Y-32195694D01*
X40473426Y-32195694D02*
X40585962Y-32083158D01*
X40585962Y-32083158D02*
X40642053Y-32121611D01*
X40642053Y-32121611D02*
X40762351Y-32204161D01*
X40762351Y-32204161D02*
X40871006Y-32278597D01*
X40871006Y-32278597D02*
X40887452Y-32289886D01*
X40887452Y-32289886D02*
X40901433Y-32299058D01*
X40901433Y-32299058D02*
X40907671Y-32302933D01*
X40907671Y-32302933D02*
X40913497Y-32306378D01*
X40913497Y-32306378D02*
X40918979Y-32309426D01*
X40918979Y-32309426D02*
X40924187Y-32312111D01*
X40924187Y-32312111D02*
X40929189Y-32314464D01*
X40929189Y-32314464D02*
X40934051Y-32316520D01*
X40934051Y-32316520D02*
X40938844Y-32318312D01*
X40938844Y-32318312D02*
X40943634Y-32319872D01*
X40943634Y-32319872D02*
X40948491Y-32321233D01*
X40948491Y-32321233D02*
X40953482Y-32322429D01*
X40953482Y-32322429D02*
X40958675Y-32323493D01*
X40958675Y-32323493D02*
X40964139Y-32324458D01*
X40964139Y-32324458D02*
X40970469Y-32325412D01*
X40970469Y-32325412D02*
X40976444Y-32326085D01*
X40976444Y-32326085D02*
X40979400Y-32326284D01*
X40979400Y-32326284D02*
X40982388Y-32326372D01*
X40982388Y-32326372D02*
X40985449Y-32326338D01*
X40985449Y-32326338D02*
X40988625Y-32326167D01*
X40988625Y-32326167D02*
X40991954Y-32325846D01*
X40991954Y-32325846D02*
X40995477Y-32325361D01*
X40995477Y-32325361D02*
X40999235Y-32324701D01*
X40999235Y-32324701D02*
X41003269Y-32323850D01*
X41003269Y-32323850D02*
X41007618Y-32322797D01*
X41007618Y-32322797D02*
X41012324Y-32321527D01*
X41012324Y-32321527D02*
X41017426Y-32320027D01*
X41017426Y-32320027D02*
X41022965Y-32318284D01*
X41022965Y-32318284D02*
X41028982Y-32316285D01*
X41028982Y-32316285D02*
X41035517Y-32314017D01*
X41035517Y-32314017D02*
X41050301Y-32308617D01*
X41050301Y-32308617D02*
X41067643Y-32301980D01*
X41067643Y-32301980D02*
X41087865Y-32293998D01*
X41087865Y-32293998D02*
X41111291Y-32284565D01*
X41111291Y-32284565D02*
X41138245Y-32273574D01*
X41138245Y-32273574D02*
X41204028Y-32246494D01*
X41204028Y-32246494D02*
X41281639Y-32214744D01*
X41281639Y-32214744D02*
X41303141Y-32205959D01*
X41303141Y-32205959D02*
X41320037Y-32198902D01*
X41320037Y-32198902D02*
X41333146Y-32193152D01*
X41333146Y-32193152D02*
X41343287Y-32188286D01*
X41343287Y-32188286D02*
X41347501Y-32186053D01*
X41347501Y-32186053D02*
X41351279Y-32183883D01*
X41351279Y-32183883D02*
X41354724Y-32181723D01*
X41354724Y-32181723D02*
X41357939Y-32179521D01*
X41357939Y-32179521D02*
X41364086Y-32174779D01*
X41364086Y-32174779D02*
X41370539Y-32169236D01*
X41370539Y-32169236D02*
X41375885Y-32164339D01*
X41375885Y-32164339D02*
X41380713Y-32159616D01*
X41380713Y-32159616D02*
X41382949Y-32157277D01*
X41382949Y-32157277D02*
X41385074Y-32154931D01*
X41385074Y-32154931D02*
X41387096Y-32152562D01*
X41387096Y-32152562D02*
X41389022Y-32150153D01*
X41389022Y-32150153D02*
X41390857Y-32147686D01*
X41390857Y-32147686D02*
X41392607Y-32145147D01*
X41392607Y-32145147D02*
X41394281Y-32142517D01*
X41394281Y-32142517D02*
X41395884Y-32139780D01*
X41395884Y-32139780D02*
X41397422Y-32136920D01*
X41397422Y-32136920D02*
X41398902Y-32133919D01*
X41398902Y-32133919D02*
X41400332Y-32130762D01*
X41400332Y-32130762D02*
X41401716Y-32127431D01*
X41401716Y-32127431D02*
X41403062Y-32123911D01*
X41403062Y-32123911D02*
X41404377Y-32120183D01*
X41404377Y-32120183D02*
X41405666Y-32116232D01*
X41405666Y-32116232D02*
X41406937Y-32112040D01*
X41406937Y-32112040D02*
X41409448Y-32102870D01*
X41409448Y-32102870D02*
X41411963Y-32092540D01*
X41411963Y-32092540D02*
X41414534Y-32080915D01*
X41414534Y-32080915D02*
X41417213Y-32067863D01*
X41417213Y-32067863D02*
X41420052Y-32053250D01*
X41420052Y-32053250D02*
X41423103Y-32036944D01*
X41423103Y-32036944D02*
X41447092Y-31907827D01*
X41447092Y-31907827D02*
X41472140Y-31772714D01*
X41472140Y-31772714D02*
X41483781Y-31710272D01*
X41483781Y-31710272D02*
X41645001Y-31710272D01*
X41645001Y-31710272D02*
X41805867Y-31710272D01*
X41805867Y-31710272D02*
X41815745Y-31762130D01*
X41815745Y-31762130D02*
X41815745Y-31762130D01*
G36*
X41815745Y-31762130D02*
G01*
X41839028Y-31888425D01*
X41867195Y-32037495D01*
X41876570Y-32083067D01*
X41884184Y-32114202D01*
X41887653Y-32125498D01*
X41891070Y-32134556D01*
X41894563Y-32141832D01*
X41898262Y-32147782D01*
X41902296Y-32152865D01*
X41906793Y-32157536D01*
X41917698Y-32167472D01*
X41921336Y-32170746D01*
X41924809Y-32173739D01*
X41928267Y-32176525D01*
X41931858Y-32179180D01*
X41933751Y-32180480D01*
X41935733Y-32181776D01*
X41937823Y-32183075D01*
X41940041Y-32184389D01*
X41944930Y-32187092D01*
X41950550Y-32189961D01*
X41957051Y-32193070D01*
X41964582Y-32196493D01*
X41973292Y-32200305D01*
X41983331Y-32204580D01*
X41994848Y-32209392D01*
X42007992Y-32214816D01*
X42039759Y-32227797D01*
X42118561Y-32259767D01*
X42223556Y-32302586D01*
X42232807Y-32306259D01*
X42242137Y-32309812D01*
X42251294Y-32313159D01*
X42260024Y-32316212D01*
X42268077Y-32318884D01*
X42275199Y-32321090D01*
X42281140Y-32322741D01*
X42285645Y-32323752D01*
X42289869Y-32324444D01*
X42294433Y-32324936D01*
X42299280Y-32325236D01*
X42304353Y-32325351D01*
X42309596Y-32325288D01*
X42314952Y-32325054D01*
X42320363Y-32324658D01*
X42325773Y-32324105D01*
X42331126Y-32323403D01*
X42336364Y-32322560D01*
X42341430Y-32321583D01*
X42346268Y-32320478D01*
X42350820Y-32319253D01*
X42355030Y-32317916D01*
X42358842Y-32316474D01*
X42362198Y-32314933D01*
X42369649Y-32310586D01*
X42382322Y-32302586D01*
X42399584Y-32291344D01*
X42420803Y-32277274D01*
X42472579Y-32242305D01*
X42532589Y-32200986D01*
X42588240Y-32162841D01*
X42645478Y-32123374D01*
X42704039Y-32083158D01*
X42817987Y-32197105D01*
X42931934Y-32311052D01*
X42913236Y-32337863D01*
X42871609Y-32398188D01*
X42846429Y-32434745D01*
X42818340Y-32475800D01*
X42803837Y-32497286D01*
X42786192Y-32523072D01*
X42750606Y-32574577D01*
X42742848Y-32585904D01*
X42735304Y-32597194D01*
X42728158Y-32608144D01*
X42721590Y-32618454D01*
X42715783Y-32627821D01*
X42710919Y-32635944D01*
X42707179Y-32642521D01*
X42704745Y-32647249D01*
X42702844Y-32651528D01*
X42701110Y-32656011D01*
X42699545Y-32660672D01*
X42698152Y-32665484D01*
X42696933Y-32670419D01*
X42695890Y-32675452D01*
X42695024Y-32680556D01*
X42694338Y-32685702D01*
X42693834Y-32690865D01*
X42693514Y-32696018D01*
X42693380Y-32701134D01*
X42693434Y-32706185D01*
X42693678Y-32711146D01*
X42694115Y-32715989D01*
X42694745Y-32720687D01*
X42695573Y-32725213D01*
X42703124Y-32746597D01*
X42720069Y-32788862D01*
X42770097Y-32907908D01*
X42821581Y-33026094D01*
X42840344Y-33067284D01*
X42850442Y-33087163D01*
X42852945Y-33090578D01*
X42855800Y-33094055D01*
X42858969Y-33097567D01*
X42862415Y-33101087D01*
X42866100Y-33104586D01*
X42869988Y-33108036D01*
X42874042Y-33111410D01*
X42878223Y-33114680D01*
X42882496Y-33117817D01*
X42886822Y-33120794D01*
X42891165Y-33123583D01*
X42895488Y-33126156D01*
X42899752Y-33128485D01*
X42903921Y-33130543D01*
X42907958Y-33132300D01*
X42911826Y-33133730D01*
X42917083Y-33135153D01*
X42926174Y-33137241D01*
X42953850Y-33143035D01*
X42990853Y-33150349D01*
X43033181Y-33158425D01*
X43131826Y-33176504D01*
X43220153Y-33192997D01*
X43301292Y-33208166D01*
X43302350Y-33369033D01*
X43302615Y-33458098D01*
X43302474Y-33486644D01*
X43302086Y-33506616D01*
X43301399Y-33519577D01*
X43300366Y-33527088D01*
X43299703Y-33529289D01*
X43298936Y-33530714D01*
X43298056Y-33531558D01*
X43297059Y-33532016D01*
X43283190Y-33534844D01*
X43250139Y-33541144D01*
X43146070Y-33560591D01*
X42965448Y-33594105D01*
X42957793Y-33595550D01*
X42950047Y-33597197D01*
X42942417Y-33598985D01*
X42935109Y-33600852D01*
X42928330Y-33602735D01*
X42922288Y-33604573D01*
X42917187Y-33606303D01*
X42913236Y-33607863D01*
X42909245Y-33609792D01*
X42905103Y-33612113D01*
X42900850Y-33614790D01*
X42896524Y-33617785D01*
X42892165Y-33621062D01*
X42887812Y-33624582D01*
X42883504Y-33628309D01*
X42879282Y-33632205D01*
X42875183Y-33636234D01*
X42871248Y-33640357D01*
X42867515Y-33644539D01*
X42864024Y-33648741D01*
X42860814Y-33652927D01*
X42857925Y-33657059D01*
X42855395Y-33661100D01*
X42853264Y-33665013D01*
X42850192Y-33671698D01*
X42844627Y-33684626D01*
X42827291Y-33726132D01*
X42803804Y-33783381D01*
X42776711Y-33850222D01*
X42708626Y-34019202D01*
X42708626Y-34058008D01*
X42708735Y-34073016D01*
X42708958Y-34079391D01*
X42709370Y-34085205D01*
X42710027Y-34090601D01*
X42710988Y-34095723D01*
X42711600Y-34098227D01*
X42712310Y-34100715D01*
X42713124Y-34103208D01*
X42714050Y-34105721D01*
X42716265Y-34110884D01*
X42719013Y-34116347D01*
X42722351Y-34122255D01*
X42726336Y-34128751D01*
X42731027Y-34135978D01*
X42736479Y-34144081D01*
X42749901Y-34163488D01*
X42776006Y-34201632D01*
X42790779Y-34223267D01*
X42804228Y-34243216D01*
X42832318Y-34284271D01*
X42857498Y-34320827D01*
X42906534Y-34391736D01*
X42932287Y-34429130D01*
X42818340Y-34542724D01*
X42704392Y-34656672D01*
X42561870Y-34558600D01*
X42504703Y-34519568D01*
X42454317Y-34485795D01*
X42416167Y-34460819D01*
X42403386Y-34452736D01*
X42395711Y-34448180D01*
X42388252Y-34444524D01*
X42384985Y-34443010D01*
X42381942Y-34441687D01*
X42379061Y-34440541D01*
X42376277Y-34439560D01*
X42373529Y-34438730D01*
X42370753Y-34438038D01*
X42367885Y-34437469D01*
X42364864Y-34437011D01*
X42361626Y-34436650D01*
X42358108Y-34436373D01*
X42354246Y-34436166D01*
X42349979Y-34436016D01*
X42339973Y-34435833D01*
X42307870Y-34435833D01*
X42257070Y-34461938D01*
X42237105Y-34471992D01*
X42220646Y-34479930D01*
X42214247Y-34482857D01*
X42209346Y-34484957D01*
X42206147Y-34486131D01*
X42205251Y-34486340D01*
X42204859Y-34486280D01*
X42203940Y-34484433D01*
X42201805Y-34479638D01*
X42194452Y-34462512D01*
X42183924Y-34437514D01*
X42171345Y-34407258D01*
X41974407Y-33928627D01*
X41960829Y-33893491D01*
X41955544Y-33877132D01*
X41955568Y-33872035D01*
X41957915Y-33870683D01*
X41959521Y-33869421D01*
X41961635Y-33867800D01*
X41967043Y-33863759D01*
X41970162Y-33861481D01*
X41973442Y-33859124D01*
X41976797Y-33856758D01*
X41980139Y-33854455D01*
X42001494Y-33838834D01*
X42022139Y-33822170D01*
X42042036Y-33804523D01*
X42061146Y-33785950D01*
X42079429Y-33766509D01*
X42096845Y-33746257D01*
X42113357Y-33725253D01*
X42128923Y-33703554D01*
X42143506Y-33681219D01*
X42157066Y-33658305D01*
X42169563Y-33634870D01*
X42180958Y-33610972D01*
X42191212Y-33586669D01*
X42200287Y-33562019D01*
X42208141Y-33537079D01*
X42214737Y-33511908D01*
X42219410Y-33490976D01*
X42223154Y-33471454D01*
X42226029Y-33452767D01*
X42227160Y-33443557D01*
X42228098Y-33434341D01*
X42229423Y-33415600D01*
X42230066Y-33395971D01*
X42230089Y-33374878D01*
X42229553Y-33351747D01*
X42228200Y-33323429D01*
X42227188Y-33309977D01*
X42225937Y-33296923D01*
X42224439Y-33284212D01*
X42222682Y-33271789D01*
X42220657Y-33259600D01*
X42218353Y-33247589D01*
X42215759Y-33235703D01*
X42212865Y-33223885D01*
X42209662Y-33212083D01*
X42206138Y-33200240D01*
X42202283Y-33188302D01*
X42198087Y-33176214D01*
X42188631Y-33151369D01*
X42175928Y-33122219D01*
X42161549Y-33093818D01*
X42145574Y-33066238D01*
X42128080Y-33039549D01*
X42109145Y-33013824D01*
X42088848Y-32989134D01*
X42067266Y-32965549D01*
X42044477Y-32943142D01*
X42020560Y-32921983D01*
X41995592Y-32902144D01*
X41969652Y-32883696D01*
X41942817Y-32866710D01*
X41915165Y-32851259D01*
X41886775Y-32837412D01*
X41857725Y-32825242D01*
X41828092Y-32814819D01*
X41803383Y-32807301D01*
X41792130Y-32804124D01*
X41781426Y-32801309D01*
X41771132Y-32798834D01*
X41761107Y-32796680D01*
X41751213Y-32794828D01*
X41741309Y-32793255D01*
X41731256Y-32791944D01*
X41720915Y-32790872D01*
X41710147Y-32790021D01*
X41698810Y-32789369D01*
X41673877Y-32788586D01*
X41645001Y-32788361D01*
X41615451Y-32788618D01*
X41589846Y-32789496D01*
X41578184Y-32790217D01*
X41567101Y-32791151D01*
X41556464Y-32792319D01*
X41546135Y-32793740D01*
X41535979Y-32795435D01*
X41525862Y-32797421D01*
X41515648Y-32799720D01*
X41505201Y-32802350D01*
X41483069Y-32808685D01*
X41458381Y-32816583D01*
X41424147Y-32829207D01*
X41390952Y-32843872D01*
X41358873Y-32860495D01*
X41327991Y-32878991D01*
X41298385Y-32899278D01*
X41270132Y-32921271D01*
X41243313Y-32944887D01*
X41218007Y-32970041D01*
X41194293Y-32996651D01*
X41172249Y-33024632D01*
X41151955Y-33053901D01*
X41133489Y-33084374D01*
X41116932Y-33115968D01*
X41102362Y-33148598D01*
X41089857Y-33182181D01*
X41079498Y-33216633D01*
X41074051Y-33238010D01*
X41069791Y-33256420D01*
X41068063Y-33264906D01*
X41066581Y-33273126D01*
X41065327Y-33281235D01*
X41064284Y-33289393D01*
X41063436Y-33297758D01*
X41062765Y-33306488D01*
X41062254Y-33315741D01*
X41061886Y-33325674D01*
X41061512Y-33348218D01*
X41061506Y-33375383D01*
X41061565Y-33397568D01*
X41061782Y-33415941D01*
X41062213Y-33431255D01*
X41062917Y-33444263D01*
X41063952Y-33455716D01*
X41065376Y-33466366D01*
X41067246Y-33476968D01*
X41069620Y-33488272D01*
X41076389Y-33516748D01*
X41084383Y-33544616D01*
X41093586Y-33571853D01*
X41103983Y-33598438D01*
X41115558Y-33624349D01*
X41128295Y-33649564D01*
X41142180Y-33674062D01*
X41157197Y-33697822D01*
X41173330Y-33720820D01*
X41190564Y-33743037D01*
X41208882Y-33764449D01*
X41228271Y-33785035D01*
X41248714Y-33804774D01*
X41270195Y-33823643D01*
X41292699Y-33841622D01*
X41316212Y-33858688D01*
X41320595Y-33861718D01*
X41324689Y-33864669D01*
X41328403Y-33867463D01*
X41331646Y-33870021D01*
X41334326Y-33872265D01*
X41336353Y-33874117D01*
X41337093Y-33874871D01*
X41337636Y-33875497D01*
X41337970Y-33875986D01*
X41338084Y-33876327D01*
X41338023Y-33876672D01*
X41337843Y-33877298D01*
X41337152Y-33879331D01*
X41336056Y-33882299D01*
X41334600Y-33886073D01*
X41332830Y-33890524D01*
X41330791Y-33895526D01*
X41328529Y-33900949D01*
X41326090Y-33906666D01*
X41319100Y-33922988D01*
X41309068Y-33947015D01*
X41285167Y-34005091D01*
X41260826Y-34064181D01*
X41242834Y-34107397D01*
X41224842Y-34150480D01*
X41200501Y-34209702D01*
X41176159Y-34268792D01*
X41158167Y-34312008D01*
X41140176Y-34355091D01*
X41115834Y-34414313D01*
X41104495Y-34441830D01*
X41094976Y-34464584D01*
X41088301Y-34480195D01*
X41085495Y-34486280D01*
X41085331Y-34486343D01*
X41085040Y-34486336D01*
X41084090Y-34486117D01*
X41082670Y-34485636D01*
X41080804Y-34484907D01*
X41075840Y-34482764D01*
X41069400Y-34479798D01*
X41061686Y-34476120D01*
X41052902Y-34471844D01*
X41032931Y-34461938D01*
X40982131Y-34435833D01*
X40935784Y-34435833D01*
X40932488Y-34435922D01*
X40929294Y-34436108D01*
X40926146Y-34436422D01*
X40922991Y-34436897D01*
X40919774Y-34437561D01*
X40916439Y-34438448D01*
X40912932Y-34439587D01*
X40909198Y-34441011D01*
X40905182Y-34442749D01*
X40900829Y-34444833D01*
X40896085Y-34447295D01*
X40890894Y-34450164D01*
X40885202Y-34453473D01*
X40878954Y-34457252D01*
X40864570Y-34466346D01*
X40847304Y-34477694D01*
X40826716Y-34491544D01*
X40802368Y-34508146D01*
X40773822Y-34527747D01*
X40702378Y-34576944D01*
X40664896Y-34602653D01*
X40644335Y-34616681D01*
X40625826Y-34629155D01*
X40585962Y-34656672D01*
X40472015Y-34543077D01*
X40358067Y-34429130D01*
X40387701Y-34386444D01*
X40506532Y-34212976D01*
X40541775Y-34160039D01*
X40564442Y-34123448D01*
X40571889Y-34109833D01*
X40577188Y-34098565D01*
X40580669Y-34089064D01*
X40582665Y-34080751D01*
X40583508Y-34073045D01*
X40583530Y-34065368D01*
X40582434Y-34047777D01*
X40582072Y-34042853D01*
X40581589Y-34038102D01*
X40580898Y-34033274D01*
X40579909Y-34028121D01*
X40578537Y-34022393D01*
X40576692Y-34015841D01*
X40574287Y-34008217D01*
X40571233Y-33999270D01*
X40567444Y-33988753D01*
X40562831Y-33976415D01*
X40557307Y-33962009D01*
X40550783Y-33945284D01*
X40534386Y-33903884D01*
X40512937Y-33850222D01*
X40462534Y-33726132D01*
X40445319Y-33684626D01*
X40436737Y-33665013D01*
X40434606Y-33661100D01*
X40432075Y-33657059D01*
X40429184Y-33652927D01*
X40425971Y-33648741D01*
X40422475Y-33644539D01*
X40418735Y-33640357D01*
X40414788Y-33636234D01*
X40410675Y-33632205D01*
X40406434Y-33628309D01*
X40402103Y-33624582D01*
X40397722Y-33621062D01*
X40393329Y-33617785D01*
X40388962Y-33614790D01*
X40384661Y-33612113D01*
X40380465Y-33609792D01*
X40376412Y-33607863D01*
X40373845Y-33606923D01*
X40369636Y-33605701D01*
X40356601Y-33602472D01*
X40337927Y-33598301D01*
X40314235Y-33593311D01*
X40254273Y-33581372D01*
X40181678Y-33567647D01*
X39994706Y-33532369D01*
X39986945Y-33530605D01*
X39987651Y-33369386D01*
X39988709Y-33208166D01*
X40173917Y-33173947D01*
X40247284Y-33160017D01*
X40310001Y-33147709D01*
X40355388Y-33138377D01*
X40376764Y-33133377D01*
X40380822Y-33131947D01*
X40385033Y-33130190D01*
X40389361Y-33128133D01*
X40393769Y-33125804D01*
X40398221Y-33123231D01*
X40402679Y-33120442D01*
X40407107Y-33117465D01*
X40411469Y-33114327D01*
X40415727Y-33111058D01*
X40419845Y-33107684D01*
X40423787Y-33104233D01*
X40427515Y-33100734D01*
X40430993Y-33097215D01*
X40434184Y-33093702D01*
X40437052Y-33090225D01*
X40439559Y-33086811D01*
X40449657Y-33066948D01*
X40468415Y-33025802D01*
X40519860Y-32907776D01*
X40569784Y-32788956D01*
X40586640Y-32746818D01*
X40594076Y-32725566D01*
X40594965Y-32720978D01*
X40595651Y-32716225D01*
X40596136Y-32711335D01*
X40596424Y-32706334D01*
X40596517Y-32701249D01*
X40596420Y-32696104D01*
X40596134Y-32690928D01*
X40595663Y-32685746D01*
X40595010Y-32680585D01*
X40594179Y-32675471D01*
X40593172Y-32670430D01*
X40591992Y-32665489D01*
X40590643Y-32660674D01*
X40589127Y-32656012D01*
X40587448Y-32651528D01*
X40585609Y-32647249D01*
X40584477Y-32645009D01*
X40582823Y-32642024D01*
X40578074Y-32634020D01*
X40571613Y-32623635D01*
X40563693Y-32611266D01*
X40554565Y-32597309D01*
X40544483Y-32582162D01*
X40533698Y-32566221D01*
X40522462Y-32549883D01*
X40388362Y-32354268D01*
X40366143Y-32320787D01*
X40362001Y-32313848D01*
X40360890Y-32311052D01*
X40361471Y-32310202D01*
X40363178Y-32308222D01*
X40369742Y-32301114D01*
X40380126Y-32290210D01*
X40393874Y-32275995D01*
X40410533Y-32258952D01*
X40429648Y-32239565D01*
X40450764Y-32218318D01*
X40473426Y-32195694D01*
X40585962Y-32083158D01*
X40642053Y-32121611D01*
X40762351Y-32204161D01*
X40871006Y-32278597D01*
X40887452Y-32289886D01*
X40901433Y-32299058D01*
X40907671Y-32302933D01*
X40913497Y-32306378D01*
X40918979Y-32309426D01*
X40924187Y-32312111D01*
X40929189Y-32314464D01*
X40934051Y-32316520D01*
X40938844Y-32318312D01*
X40943634Y-32319872D01*
X40948491Y-32321233D01*
X40953482Y-32322429D01*
X40958675Y-32323493D01*
X40964139Y-32324458D01*
X40970469Y-32325412D01*
X40976444Y-32326085D01*
X40979400Y-32326284D01*
X40982388Y-32326372D01*
X40985449Y-32326338D01*
X40988625Y-32326167D01*
X40991954Y-32325846D01*
X40995477Y-32325361D01*
X40999235Y-32324701D01*
X41003269Y-32323850D01*
X41007618Y-32322797D01*
X41012324Y-32321527D01*
X41017426Y-32320027D01*
X41022965Y-32318284D01*
X41028982Y-32316285D01*
X41035517Y-32314017D01*
X41050301Y-32308617D01*
X41067643Y-32301980D01*
X41087865Y-32293998D01*
X41111291Y-32284565D01*
X41138245Y-32273574D01*
X41204028Y-32246494D01*
X41281639Y-32214744D01*
X41303141Y-32205959D01*
X41320037Y-32198902D01*
X41333146Y-32193152D01*
X41343287Y-32188286D01*
X41347501Y-32186053D01*
X41351279Y-32183883D01*
X41354724Y-32181723D01*
X41357939Y-32179521D01*
X41364086Y-32174779D01*
X41370539Y-32169236D01*
X41375885Y-32164339D01*
X41380713Y-32159616D01*
X41382949Y-32157277D01*
X41385074Y-32154931D01*
X41387096Y-32152562D01*
X41389022Y-32150153D01*
X41390857Y-32147686D01*
X41392607Y-32145147D01*
X41394281Y-32142517D01*
X41395884Y-32139780D01*
X41397422Y-32136920D01*
X41398902Y-32133919D01*
X41400332Y-32130762D01*
X41401716Y-32127431D01*
X41403062Y-32123911D01*
X41404377Y-32120183D01*
X41405666Y-32116232D01*
X41406937Y-32112040D01*
X41409448Y-32102870D01*
X41411963Y-32092540D01*
X41414534Y-32080915D01*
X41417213Y-32067863D01*
X41420052Y-32053250D01*
X41423103Y-32036944D01*
X41447092Y-31907827D01*
X41472140Y-31772714D01*
X41483781Y-31710272D01*
X41805867Y-31710272D01*
X41815745Y-31762130D01*
G37*
X41815745Y-31762130D02*
X41839028Y-31888425D01*
X41867195Y-32037495D01*
X41876570Y-32083067D01*
X41884184Y-32114202D01*
X41887653Y-32125498D01*
X41891070Y-32134556D01*
X41894563Y-32141832D01*
X41898262Y-32147782D01*
X41902296Y-32152865D01*
X41906793Y-32157536D01*
X41917698Y-32167472D01*
X41921336Y-32170746D01*
X41924809Y-32173739D01*
X41928267Y-32176525D01*
X41931858Y-32179180D01*
X41933751Y-32180480D01*
X41935733Y-32181776D01*
X41937823Y-32183075D01*
X41940041Y-32184389D01*
X41944930Y-32187092D01*
X41950550Y-32189961D01*
X41957051Y-32193070D01*
X41964582Y-32196493D01*
X41973292Y-32200305D01*
X41983331Y-32204580D01*
X41994848Y-32209392D01*
X42007992Y-32214816D01*
X42039759Y-32227797D01*
X42118561Y-32259767D01*
X42223556Y-32302586D01*
X42232807Y-32306259D01*
X42242137Y-32309812D01*
X42251294Y-32313159D01*
X42260024Y-32316212D01*
X42268077Y-32318884D01*
X42275199Y-32321090D01*
X42281140Y-32322741D01*
X42285645Y-32323752D01*
X42289869Y-32324444D01*
X42294433Y-32324936D01*
X42299280Y-32325236D01*
X42304353Y-32325351D01*
X42309596Y-32325288D01*
X42314952Y-32325054D01*
X42320363Y-32324658D01*
X42325773Y-32324105D01*
X42331126Y-32323403D01*
X42336364Y-32322560D01*
X42341430Y-32321583D01*
X42346268Y-32320478D01*
X42350820Y-32319253D01*
X42355030Y-32317916D01*
X42358842Y-32316474D01*
X42362198Y-32314933D01*
X42369649Y-32310586D01*
X42382322Y-32302586D01*
X42399584Y-32291344D01*
X42420803Y-32277274D01*
X42472579Y-32242305D01*
X42532589Y-32200986D01*
X42588240Y-32162841D01*
X42645478Y-32123374D01*
X42704039Y-32083158D01*
X42817987Y-32197105D01*
X42931934Y-32311052D01*
X42913236Y-32337863D01*
X42871609Y-32398188D01*
X42846429Y-32434745D01*
X42818340Y-32475800D01*
X42803837Y-32497286D01*
X42786192Y-32523072D01*
X42750606Y-32574577D01*
X42742848Y-32585904D01*
X42735304Y-32597194D01*
X42728158Y-32608144D01*
X42721590Y-32618454D01*
X42715783Y-32627821D01*
X42710919Y-32635944D01*
X42707179Y-32642521D01*
X42704745Y-32647249D01*
X42702844Y-32651528D01*
X42701110Y-32656011D01*
X42699545Y-32660672D01*
X42698152Y-32665484D01*
X42696933Y-32670419D01*
X42695890Y-32675452D01*
X42695024Y-32680556D01*
X42694338Y-32685702D01*
X42693834Y-32690865D01*
X42693514Y-32696018D01*
X42693380Y-32701134D01*
X42693434Y-32706185D01*
X42693678Y-32711146D01*
X42694115Y-32715989D01*
X42694745Y-32720687D01*
X42695573Y-32725213D01*
X42703124Y-32746597D01*
X42720069Y-32788862D01*
X42770097Y-32907908D01*
X42821581Y-33026094D01*
X42840344Y-33067284D01*
X42850442Y-33087163D01*
X42852945Y-33090578D01*
X42855800Y-33094055D01*
X42858969Y-33097567D01*
X42862415Y-33101087D01*
X42866100Y-33104586D01*
X42869988Y-33108036D01*
X42874042Y-33111410D01*
X42878223Y-33114680D01*
X42882496Y-33117817D01*
X42886822Y-33120794D01*
X42891165Y-33123583D01*
X42895488Y-33126156D01*
X42899752Y-33128485D01*
X42903921Y-33130543D01*
X42907958Y-33132300D01*
X42911826Y-33133730D01*
X42917083Y-33135153D01*
X42926174Y-33137241D01*
X42953850Y-33143035D01*
X42990853Y-33150349D01*
X43033181Y-33158425D01*
X43131826Y-33176504D01*
X43220153Y-33192997D01*
X43301292Y-33208166D01*
X43302350Y-33369033D01*
X43302615Y-33458098D01*
X43302474Y-33486644D01*
X43302086Y-33506616D01*
X43301399Y-33519577D01*
X43300366Y-33527088D01*
X43299703Y-33529289D01*
X43298936Y-33530714D01*
X43298056Y-33531558D01*
X43297059Y-33532016D01*
X43283190Y-33534844D01*
X43250139Y-33541144D01*
X43146070Y-33560591D01*
X42965448Y-33594105D01*
X42957793Y-33595550D01*
X42950047Y-33597197D01*
X42942417Y-33598985D01*
X42935109Y-33600852D01*
X42928330Y-33602735D01*
X42922288Y-33604573D01*
X42917187Y-33606303D01*
X42913236Y-33607863D01*
X42909245Y-33609792D01*
X42905103Y-33612113D01*
X42900850Y-33614790D01*
X42896524Y-33617785D01*
X42892165Y-33621062D01*
X42887812Y-33624582D01*
X42883504Y-33628309D01*
X42879282Y-33632205D01*
X42875183Y-33636234D01*
X42871248Y-33640357D01*
X42867515Y-33644539D01*
X42864024Y-33648741D01*
X42860814Y-33652927D01*
X42857925Y-33657059D01*
X42855395Y-33661100D01*
X42853264Y-33665013D01*
X42850192Y-33671698D01*
X42844627Y-33684626D01*
X42827291Y-33726132D01*
X42803804Y-33783381D01*
X42776711Y-33850222D01*
X42708626Y-34019202D01*
X42708626Y-34058008D01*
X42708735Y-34073016D01*
X42708958Y-34079391D01*
X42709370Y-34085205D01*
X42710027Y-34090601D01*
X42710988Y-34095723D01*
X42711600Y-34098227D01*
X42712310Y-34100715D01*
X42713124Y-34103208D01*
X42714050Y-34105721D01*
X42716265Y-34110884D01*
X42719013Y-34116347D01*
X42722351Y-34122255D01*
X42726336Y-34128751D01*
X42731027Y-34135978D01*
X42736479Y-34144081D01*
X42749901Y-34163488D01*
X42776006Y-34201632D01*
X42790779Y-34223267D01*
X42804228Y-34243216D01*
X42832318Y-34284271D01*
X42857498Y-34320827D01*
X42906534Y-34391736D01*
X42932287Y-34429130D01*
X42818340Y-34542724D01*
X42704392Y-34656672D01*
X42561870Y-34558600D01*
X42504703Y-34519568D01*
X42454317Y-34485795D01*
X42416167Y-34460819D01*
X42403386Y-34452736D01*
X42395711Y-34448180D01*
X42388252Y-34444524D01*
X42384985Y-34443010D01*
X42381942Y-34441687D01*
X42379061Y-34440541D01*
X42376277Y-34439560D01*
X42373529Y-34438730D01*
X42370753Y-34438038D01*
X42367885Y-34437469D01*
X42364864Y-34437011D01*
X42361626Y-34436650D01*
X42358108Y-34436373D01*
X42354246Y-34436166D01*
X42349979Y-34436016D01*
X42339973Y-34435833D01*
X42307870Y-34435833D01*
X42257070Y-34461938D01*
X42237105Y-34471992D01*
X42220646Y-34479930D01*
X42214247Y-34482857D01*
X42209346Y-34484957D01*
X42206147Y-34486131D01*
X42205251Y-34486340D01*
X42204859Y-34486280D01*
X42203940Y-34484433D01*
X42201805Y-34479638D01*
X42194452Y-34462512D01*
X42183924Y-34437514D01*
X42171345Y-34407258D01*
X41974407Y-33928627D01*
X41960829Y-33893491D01*
X41955544Y-33877132D01*
X41955568Y-33872035D01*
X41957915Y-33870683D01*
X41959521Y-33869421D01*
X41961635Y-33867800D01*
X41967043Y-33863759D01*
X41970162Y-33861481D01*
X41973442Y-33859124D01*
X41976797Y-33856758D01*
X41980139Y-33854455D01*
X42001494Y-33838834D01*
X42022139Y-33822170D01*
X42042036Y-33804523D01*
X42061146Y-33785950D01*
X42079429Y-33766509D01*
X42096845Y-33746257D01*
X42113357Y-33725253D01*
X42128923Y-33703554D01*
X42143506Y-33681219D01*
X42157066Y-33658305D01*
X42169563Y-33634870D01*
X42180958Y-33610972D01*
X42191212Y-33586669D01*
X42200287Y-33562019D01*
X42208141Y-33537079D01*
X42214737Y-33511908D01*
X42219410Y-33490976D01*
X42223154Y-33471454D01*
X42226029Y-33452767D01*
X42227160Y-33443557D01*
X42228098Y-33434341D01*
X42229423Y-33415600D01*
X42230066Y-33395971D01*
X42230089Y-33374878D01*
X42229553Y-33351747D01*
X42228200Y-33323429D01*
X42227188Y-33309977D01*
X42225937Y-33296923D01*
X42224439Y-33284212D01*
X42222682Y-33271789D01*
X42220657Y-33259600D01*
X42218353Y-33247589D01*
X42215759Y-33235703D01*
X42212865Y-33223885D01*
X42209662Y-33212083D01*
X42206138Y-33200240D01*
X42202283Y-33188302D01*
X42198087Y-33176214D01*
X42188631Y-33151369D01*
X42175928Y-33122219D01*
X42161549Y-33093818D01*
X42145574Y-33066238D01*
X42128080Y-33039549D01*
X42109145Y-33013824D01*
X42088848Y-32989134D01*
X42067266Y-32965549D01*
X42044477Y-32943142D01*
X42020560Y-32921983D01*
X41995592Y-32902144D01*
X41969652Y-32883696D01*
X41942817Y-32866710D01*
X41915165Y-32851259D01*
X41886775Y-32837412D01*
X41857725Y-32825242D01*
X41828092Y-32814819D01*
X41803383Y-32807301D01*
X41792130Y-32804124D01*
X41781426Y-32801309D01*
X41771132Y-32798834D01*
X41761107Y-32796680D01*
X41751213Y-32794828D01*
X41741309Y-32793255D01*
X41731256Y-32791944D01*
X41720915Y-32790872D01*
X41710147Y-32790021D01*
X41698810Y-32789369D01*
X41673877Y-32788586D01*
X41645001Y-32788361D01*
X41615451Y-32788618D01*
X41589846Y-32789496D01*
X41578184Y-32790217D01*
X41567101Y-32791151D01*
X41556464Y-32792319D01*
X41546135Y-32793740D01*
X41535979Y-32795435D01*
X41525862Y-32797421D01*
X41515648Y-32799720D01*
X41505201Y-32802350D01*
X41483069Y-32808685D01*
X41458381Y-32816583D01*
X41424147Y-32829207D01*
X41390952Y-32843872D01*
X41358873Y-32860495D01*
X41327991Y-32878991D01*
X41298385Y-32899278D01*
X41270132Y-32921271D01*
X41243313Y-32944887D01*
X41218007Y-32970041D01*
X41194293Y-32996651D01*
X41172249Y-33024632D01*
X41151955Y-33053901D01*
X41133489Y-33084374D01*
X41116932Y-33115968D01*
X41102362Y-33148598D01*
X41089857Y-33182181D01*
X41079498Y-33216633D01*
X41074051Y-33238010D01*
X41069791Y-33256420D01*
X41068063Y-33264906D01*
X41066581Y-33273126D01*
X41065327Y-33281235D01*
X41064284Y-33289393D01*
X41063436Y-33297758D01*
X41062765Y-33306488D01*
X41062254Y-33315741D01*
X41061886Y-33325674D01*
X41061512Y-33348218D01*
X41061506Y-33375383D01*
X41061565Y-33397568D01*
X41061782Y-33415941D01*
X41062213Y-33431255D01*
X41062917Y-33444263D01*
X41063952Y-33455716D01*
X41065376Y-33466366D01*
X41067246Y-33476968D01*
X41069620Y-33488272D01*
X41076389Y-33516748D01*
X41084383Y-33544616D01*
X41093586Y-33571853D01*
X41103983Y-33598438D01*
X41115558Y-33624349D01*
X41128295Y-33649564D01*
X41142180Y-33674062D01*
X41157197Y-33697822D01*
X41173330Y-33720820D01*
X41190564Y-33743037D01*
X41208882Y-33764449D01*
X41228271Y-33785035D01*
X41248714Y-33804774D01*
X41270195Y-33823643D01*
X41292699Y-33841622D01*
X41316212Y-33858688D01*
X41320595Y-33861718D01*
X41324689Y-33864669D01*
X41328403Y-33867463D01*
X41331646Y-33870021D01*
X41334326Y-33872265D01*
X41336353Y-33874117D01*
X41337093Y-33874871D01*
X41337636Y-33875497D01*
X41337970Y-33875986D01*
X41338084Y-33876327D01*
X41338023Y-33876672D01*
X41337843Y-33877298D01*
X41337152Y-33879331D01*
X41336056Y-33882299D01*
X41334600Y-33886073D01*
X41332830Y-33890524D01*
X41330791Y-33895526D01*
X41328529Y-33900949D01*
X41326090Y-33906666D01*
X41319100Y-33922988D01*
X41309068Y-33947015D01*
X41285167Y-34005091D01*
X41260826Y-34064181D01*
X41242834Y-34107397D01*
X41224842Y-34150480D01*
X41200501Y-34209702D01*
X41176159Y-34268792D01*
X41158167Y-34312008D01*
X41140176Y-34355091D01*
X41115834Y-34414313D01*
X41104495Y-34441830D01*
X41094976Y-34464584D01*
X41088301Y-34480195D01*
X41085495Y-34486280D01*
X41085331Y-34486343D01*
X41085040Y-34486336D01*
X41084090Y-34486117D01*
X41082670Y-34485636D01*
X41080804Y-34484907D01*
X41075840Y-34482764D01*
X41069400Y-34479798D01*
X41061686Y-34476120D01*
X41052902Y-34471844D01*
X41032931Y-34461938D01*
X40982131Y-34435833D01*
X40935784Y-34435833D01*
X40932488Y-34435922D01*
X40929294Y-34436108D01*
X40926146Y-34436422D01*
X40922991Y-34436897D01*
X40919774Y-34437561D01*
X40916439Y-34438448D01*
X40912932Y-34439587D01*
X40909198Y-34441011D01*
X40905182Y-34442749D01*
X40900829Y-34444833D01*
X40896085Y-34447295D01*
X40890894Y-34450164D01*
X40885202Y-34453473D01*
X40878954Y-34457252D01*
X40864570Y-34466346D01*
X40847304Y-34477694D01*
X40826716Y-34491544D01*
X40802368Y-34508146D01*
X40773822Y-34527747D01*
X40702378Y-34576944D01*
X40664896Y-34602653D01*
X40644335Y-34616681D01*
X40625826Y-34629155D01*
X40585962Y-34656672D01*
X40472015Y-34543077D01*
X40358067Y-34429130D01*
X40387701Y-34386444D01*
X40506532Y-34212976D01*
X40541775Y-34160039D01*
X40564442Y-34123448D01*
X40571889Y-34109833D01*
X40577188Y-34098565D01*
X40580669Y-34089064D01*
X40582665Y-34080751D01*
X40583508Y-34073045D01*
X40583530Y-34065368D01*
X40582434Y-34047777D01*
X40582072Y-34042853D01*
X40581589Y-34038102D01*
X40580898Y-34033274D01*
X40579909Y-34028121D01*
X40578537Y-34022393D01*
X40576692Y-34015841D01*
X40574287Y-34008217D01*
X40571233Y-33999270D01*
X40567444Y-33988753D01*
X40562831Y-33976415D01*
X40557307Y-33962009D01*
X40550783Y-33945284D01*
X40534386Y-33903884D01*
X40512937Y-33850222D01*
X40462534Y-33726132D01*
X40445319Y-33684626D01*
X40436737Y-33665013D01*
X40434606Y-33661100D01*
X40432075Y-33657059D01*
X40429184Y-33652927D01*
X40425971Y-33648741D01*
X40422475Y-33644539D01*
X40418735Y-33640357D01*
X40414788Y-33636234D01*
X40410675Y-33632205D01*
X40406434Y-33628309D01*
X40402103Y-33624582D01*
X40397722Y-33621062D01*
X40393329Y-33617785D01*
X40388962Y-33614790D01*
X40384661Y-33612113D01*
X40380465Y-33609792D01*
X40376412Y-33607863D01*
X40373845Y-33606923D01*
X40369636Y-33605701D01*
X40356601Y-33602472D01*
X40337927Y-33598301D01*
X40314235Y-33593311D01*
X40254273Y-33581372D01*
X40181678Y-33567647D01*
X39994706Y-33532369D01*
X39986945Y-33530605D01*
X39987651Y-33369386D01*
X39988709Y-33208166D01*
X40173917Y-33173947D01*
X40247284Y-33160017D01*
X40310001Y-33147709D01*
X40355388Y-33138377D01*
X40376764Y-33133377D01*
X40380822Y-33131947D01*
X40385033Y-33130190D01*
X40389361Y-33128133D01*
X40393769Y-33125804D01*
X40398221Y-33123231D01*
X40402679Y-33120442D01*
X40407107Y-33117465D01*
X40411469Y-33114327D01*
X40415727Y-33111058D01*
X40419845Y-33107684D01*
X40423787Y-33104233D01*
X40427515Y-33100734D01*
X40430993Y-33097215D01*
X40434184Y-33093702D01*
X40437052Y-33090225D01*
X40439559Y-33086811D01*
X40449657Y-33066948D01*
X40468415Y-33025802D01*
X40519860Y-32907776D01*
X40569784Y-32788956D01*
X40586640Y-32746818D01*
X40594076Y-32725566D01*
X40594965Y-32720978D01*
X40595651Y-32716225D01*
X40596136Y-32711335D01*
X40596424Y-32706334D01*
X40596517Y-32701249D01*
X40596420Y-32696104D01*
X40596134Y-32690928D01*
X40595663Y-32685746D01*
X40595010Y-32680585D01*
X40594179Y-32675471D01*
X40593172Y-32670430D01*
X40591992Y-32665489D01*
X40590643Y-32660674D01*
X40589127Y-32656012D01*
X40587448Y-32651528D01*
X40585609Y-32647249D01*
X40584477Y-32645009D01*
X40582823Y-32642024D01*
X40578074Y-32634020D01*
X40571613Y-32623635D01*
X40563693Y-32611266D01*
X40554565Y-32597309D01*
X40544483Y-32582162D01*
X40533698Y-32566221D01*
X40522462Y-32549883D01*
X40388362Y-32354268D01*
X40366143Y-32320787D01*
X40362001Y-32313848D01*
X40360890Y-32311052D01*
X40361471Y-32310202D01*
X40363178Y-32308222D01*
X40369742Y-32301114D01*
X40380126Y-32290210D01*
X40393874Y-32275995D01*
X40410533Y-32258952D01*
X40429648Y-32239565D01*
X40450764Y-32218318D01*
X40473426Y-32195694D01*
X40585962Y-32083158D01*
X40642053Y-32121611D01*
X40762351Y-32204161D01*
X40871006Y-32278597D01*
X40887452Y-32289886D01*
X40901433Y-32299058D01*
X40907671Y-32302933D01*
X40913497Y-32306378D01*
X40918979Y-32309426D01*
X40924187Y-32312111D01*
X40929189Y-32314464D01*
X40934051Y-32316520D01*
X40938844Y-32318312D01*
X40943634Y-32319872D01*
X40948491Y-32321233D01*
X40953482Y-32322429D01*
X40958675Y-32323493D01*
X40964139Y-32324458D01*
X40970469Y-32325412D01*
X40976444Y-32326085D01*
X40979400Y-32326284D01*
X40982388Y-32326372D01*
X40985449Y-32326338D01*
X40988625Y-32326167D01*
X40991954Y-32325846D01*
X40995477Y-32325361D01*
X40999235Y-32324701D01*
X41003269Y-32323850D01*
X41007618Y-32322797D01*
X41012324Y-32321527D01*
X41017426Y-32320027D01*
X41022965Y-32318284D01*
X41028982Y-32316285D01*
X41035517Y-32314017D01*
X41050301Y-32308617D01*
X41067643Y-32301980D01*
X41087865Y-32293998D01*
X41111291Y-32284565D01*
X41138245Y-32273574D01*
X41204028Y-32246494D01*
X41281639Y-32214744D01*
X41303141Y-32205959D01*
X41320037Y-32198902D01*
X41333146Y-32193152D01*
X41343287Y-32188286D01*
X41347501Y-32186053D01*
X41351279Y-32183883D01*
X41354724Y-32181723D01*
X41357939Y-32179521D01*
X41364086Y-32174779D01*
X41370539Y-32169236D01*
X41375885Y-32164339D01*
X41380713Y-32159616D01*
X41382949Y-32157277D01*
X41385074Y-32154931D01*
X41387096Y-32152562D01*
X41389022Y-32150153D01*
X41390857Y-32147686D01*
X41392607Y-32145147D01*
X41394281Y-32142517D01*
X41395884Y-32139780D01*
X41397422Y-32136920D01*
X41398902Y-32133919D01*
X41400332Y-32130762D01*
X41401716Y-32127431D01*
X41403062Y-32123911D01*
X41404377Y-32120183D01*
X41405666Y-32116232D01*
X41406937Y-32112040D01*
X41409448Y-32102870D01*
X41411963Y-32092540D01*
X41414534Y-32080915D01*
X41417213Y-32067863D01*
X41420052Y-32053250D01*
X41423103Y-32036944D01*
X41447092Y-31907827D01*
X41472140Y-31772714D01*
X41483781Y-31710272D01*
X41805867Y-31710272D01*
X41815745Y-31762130D01*
D11*
X80552380Y-32157142D02*
X80504761Y-32204761D01*
X80361904Y-32252380D01*
X80266666Y-32252380D01*
X80123809Y-32204761D01*
X80028571Y-32109523D01*
X79980952Y-32014285D01*
X79933333Y-31823809D01*
X79933333Y-31680952D01*
X79980952Y-31490476D01*
X80028571Y-31395238D01*
X80123809Y-31300000D01*
X80266666Y-31252380D01*
X80361904Y-31252380D01*
X80504761Y-31300000D01*
X80552380Y-31347619D01*
X81123809Y-32252380D02*
X81028571Y-32204761D01*
X80980952Y-32157142D01*
X80933333Y-32061904D01*
X80933333Y-31776190D01*
X80980952Y-31680952D01*
X81028571Y-31633333D01*
X81123809Y-31585714D01*
X81266666Y-31585714D01*
X81361904Y-31633333D01*
X81409523Y-31680952D01*
X81457142Y-31776190D01*
X81457142Y-32061904D01*
X81409523Y-32157142D01*
X81361904Y-32204761D01*
X81266666Y-32252380D01*
X81123809Y-32252380D01*
X81885714Y-31585714D02*
X81885714Y-32585714D01*
X81885714Y-31633333D02*
X81980952Y-31585714D01*
X82171428Y-31585714D01*
X82266666Y-31633333D01*
X82314285Y-31680952D01*
X82361904Y-31776190D01*
X82361904Y-32061904D01*
X82314285Y-32157142D01*
X82266666Y-32204761D01*
X82171428Y-32252380D01*
X81980952Y-32252380D01*
X81885714Y-32204761D01*
X82695238Y-31585714D02*
X82933333Y-32252380D01*
X83171428Y-31585714D02*
X82933333Y-32252380D01*
X82838095Y-32490476D01*
X82790476Y-32538095D01*
X82695238Y-32585714D01*
X83695238Y-32252380D02*
X83599999Y-32204761D01*
X83552380Y-32109523D01*
X83552380Y-31252380D01*
X84457142Y-32204761D02*
X84361904Y-32252380D01*
X84171428Y-32252380D01*
X84076190Y-32204761D01*
X84028571Y-32109523D01*
X84028571Y-31728571D01*
X84076190Y-31633333D01*
X84171428Y-31585714D01*
X84361904Y-31585714D01*
X84457142Y-31633333D01*
X84504761Y-31728571D01*
X84504761Y-31823809D01*
X84028571Y-31919047D01*
X84790476Y-31585714D02*
X85171428Y-31585714D01*
X84933333Y-32252380D02*
X84933333Y-31395238D01*
X84980952Y-31300000D01*
X85076190Y-31252380D01*
X85171428Y-31252380D01*
X85361904Y-31585714D02*
X85742857Y-31585714D01*
X85504761Y-31252380D02*
X85504761Y-32109523D01*
X85552380Y-32204761D01*
X85647619Y-32252380D01*
X85742857Y-32252380D01*
X86838095Y-31728571D02*
X87171428Y-31728571D01*
X87314285Y-32252380D02*
X86838095Y-32252380D01*
X86838095Y-31252380D01*
X87314285Y-31252380D01*
X87885714Y-32252380D02*
X87790476Y-32204761D01*
X87742857Y-32109523D01*
X87742857Y-31252380D01*
X88695238Y-32252380D02*
X88695238Y-31728571D01*
X88647619Y-31633333D01*
X88552380Y-31585714D01*
X88361904Y-31585714D01*
X88266666Y-31633333D01*
X88695238Y-32204761D02*
X88599999Y-32252380D01*
X88361904Y-32252380D01*
X88266666Y-32204761D01*
X88219047Y-32109523D01*
X88219047Y-32014285D01*
X88266666Y-31919047D01*
X88361904Y-31871428D01*
X88599999Y-31871428D01*
X88695238Y-31823809D01*
X89171428Y-32252380D02*
X89171428Y-31585714D01*
X89171428Y-31680952D02*
X89219047Y-31633333D01*
X89314285Y-31585714D01*
X89457142Y-31585714D01*
X89552380Y-31633333D01*
X89599999Y-31728571D01*
X89599999Y-32252380D01*
X89599999Y-31728571D02*
X89647619Y-31633333D01*
X89742857Y-31585714D01*
X89885714Y-31585714D01*
X89980952Y-31633333D01*
X90028571Y-31728571D01*
X90028571Y-32252380D01*
X91266666Y-32252380D02*
X91266666Y-31252380D01*
X91504761Y-31252380D01*
X91647619Y-31300000D01*
X91742857Y-31395238D01*
X91790476Y-31490476D01*
X91838095Y-31680952D01*
X91838095Y-31823809D01*
X91790476Y-32014285D01*
X91742857Y-32109523D01*
X91647619Y-32204761D01*
X91504761Y-32252380D01*
X91266666Y-32252380D01*
X92695238Y-32252380D02*
X92695238Y-31728571D01*
X92647619Y-31633333D01*
X92552380Y-31585714D01*
X92361904Y-31585714D01*
X92266666Y-31633333D01*
X92695238Y-32204761D02*
X92599999Y-32252380D01*
X92361904Y-32252380D01*
X92266666Y-32204761D01*
X92219047Y-32109523D01*
X92219047Y-32014285D01*
X92266666Y-31919047D01*
X92361904Y-31871428D01*
X92599999Y-31871428D01*
X92695238Y-31823809D01*
X93076190Y-31585714D02*
X93314285Y-32252380D01*
X93552380Y-31585714D02*
X93314285Y-32252380D01*
X93219047Y-32490476D01*
X93171428Y-32538095D01*
X93076190Y-32585714D01*
X93933333Y-31871428D02*
X94695238Y-31871428D01*
X95504761Y-31728571D02*
X95171428Y-31728571D01*
X95171428Y-32252380D02*
X95171428Y-31252380D01*
X95647619Y-31252380D01*
X96028571Y-32252380D02*
X96028571Y-31585714D01*
X96028571Y-31776190D02*
X96076190Y-31680952D01*
X96123809Y-31633333D01*
X96219047Y-31585714D01*
X96314285Y-31585714D01*
X96647619Y-32252380D02*
X96647619Y-31585714D01*
X96647619Y-31252380D02*
X96599999Y-31300000D01*
X96647619Y-31347619D01*
X96695238Y-31300000D01*
X96647619Y-31252380D01*
X96647619Y-31347619D01*
X97504761Y-32204761D02*
X97409523Y-32252380D01*
X97219047Y-32252380D01*
X97123809Y-32204761D01*
X97076190Y-32109523D01*
X97076190Y-31728571D01*
X97123809Y-31633333D01*
X97219047Y-31585714D01*
X97409523Y-31585714D01*
X97504761Y-31633333D01*
X97552380Y-31728571D01*
X97552380Y-31823809D01*
X97076190Y-31919047D01*
X98409523Y-32252380D02*
X98409523Y-31252380D01*
X98409523Y-32204761D02*
X98314285Y-32252380D01*
X98123809Y-32252380D01*
X98028571Y-32204761D01*
X97980952Y-32157142D01*
X97933333Y-32061904D01*
X97933333Y-31776190D01*
X97980952Y-31680952D01*
X98028571Y-31633333D01*
X98123809Y-31585714D01*
X98314285Y-31585714D01*
X98409523Y-31633333D01*
X99028571Y-32252380D02*
X98933333Y-32204761D01*
X98885714Y-32109523D01*
X98885714Y-31252380D01*
X99838095Y-32252380D02*
X99838095Y-31728571D01*
X99790476Y-31633333D01*
X99695238Y-31585714D01*
X99504761Y-31585714D01*
X99409523Y-31633333D01*
X99838095Y-32204761D02*
X99742857Y-32252380D01*
X99504761Y-32252380D01*
X99409523Y-32204761D01*
X99361904Y-32109523D01*
X99361904Y-32014285D01*
X99409523Y-31919047D01*
X99504761Y-31871428D01*
X99742857Y-31871428D01*
X99838095Y-31823809D01*
X100314285Y-31585714D02*
X100314285Y-32252380D01*
X100314285Y-31680952D02*
X100361904Y-31633333D01*
X100457142Y-31585714D01*
X100599999Y-31585714D01*
X100695238Y-31633333D01*
X100742857Y-31728571D01*
X100742857Y-32252380D01*
X101647619Y-32252380D02*
X101647619Y-31252380D01*
X101647619Y-32204761D02*
X101552380Y-32252380D01*
X101361904Y-32252380D01*
X101266666Y-32204761D01*
X101219047Y-32157142D01*
X101171428Y-32061904D01*
X101171428Y-31776190D01*
X101219047Y-31680952D01*
X101266666Y-31633333D01*
X101361904Y-31585714D01*
X101552380Y-31585714D01*
X101647619Y-31633333D01*
X102838095Y-31347619D02*
X102885714Y-31300000D01*
X102980952Y-31252380D01*
X103219047Y-31252380D01*
X103314285Y-31300000D01*
X103361904Y-31347619D01*
X103409523Y-31442857D01*
X103409523Y-31538095D01*
X103361904Y-31680952D01*
X102790476Y-32252380D01*
X103409523Y-32252380D01*
X104028571Y-31252380D02*
X104123809Y-31252380D01*
X104219047Y-31300000D01*
X104266666Y-31347619D01*
X104314285Y-31442857D01*
X104361904Y-31633333D01*
X104361904Y-31871428D01*
X104314285Y-32061904D01*
X104266666Y-32157142D01*
X104219047Y-32204761D01*
X104123809Y-32252380D01*
X104028571Y-32252380D01*
X103933333Y-32204761D01*
X103885714Y-32157142D01*
X103838095Y-32061904D01*
X103790476Y-31871428D01*
X103790476Y-31633333D01*
X103838095Y-31442857D01*
X103885714Y-31347619D01*
X103933333Y-31300000D01*
X104028571Y-31252380D01*
X104742857Y-31347619D02*
X104790476Y-31300000D01*
X104885714Y-31252380D01*
X105123809Y-31252380D01*
X105219047Y-31300000D01*
X105266666Y-31347619D01*
X105314285Y-31442857D01*
X105314285Y-31538095D01*
X105266666Y-31680952D01*
X104695238Y-32252380D01*
X105314285Y-32252380D01*
X106266666Y-32252380D02*
X105695238Y-32252380D01*
X105980952Y-32252380D02*
X105980952Y-31252380D01*
X105885714Y-31395238D01*
X105790476Y-31490476D01*
X105695238Y-31538095D01*
D12*
X102703571Y-97496428D02*
X102739285Y-97389285D01*
X102739285Y-97210714D01*
X102703571Y-97139285D01*
X102667857Y-97103571D01*
X102596428Y-97067857D01*
X102525000Y-97067857D01*
X102453571Y-97103571D01*
X102417857Y-97139285D01*
X102382142Y-97210714D01*
X102346428Y-97353571D01*
X102310714Y-97425000D01*
X102275000Y-97460714D01*
X102203571Y-97496428D01*
X102132142Y-97496428D01*
X102060714Y-97460714D01*
X102025000Y-97425000D01*
X101989285Y-97353571D01*
X101989285Y-97175000D01*
X102025000Y-97067857D01*
X102739285Y-96746428D02*
X101989285Y-96746428D01*
X101989285Y-96567857D01*
X102025000Y-96460714D01*
X102096428Y-96389285D01*
X102167857Y-96353571D01*
X102310714Y-96317857D01*
X102417857Y-96317857D01*
X102560714Y-96353571D01*
X102632142Y-96389285D01*
X102703571Y-96460714D01*
X102739285Y-96567857D01*
X102739285Y-96746428D01*
X102525000Y-96032142D02*
X102525000Y-95675000D01*
X102739285Y-96103571D02*
X101989285Y-95853571D01*
X102739285Y-95603571D01*
X102989285Y-95175000D02*
X101917857Y-95175000D01*
X102703571Y-94675000D02*
X102739285Y-94567857D01*
X102739285Y-94389285D01*
X102703571Y-94317857D01*
X102667857Y-94282142D01*
X102596428Y-94246428D01*
X102525000Y-94246428D01*
X102453571Y-94282142D01*
X102417857Y-94317857D01*
X102382142Y-94389285D01*
X102346428Y-94532142D01*
X102310714Y-94603571D01*
X102275000Y-94639285D01*
X102203571Y-94675000D01*
X102132142Y-94675000D01*
X102060714Y-94639285D01*
X102025000Y-94603571D01*
X101989285Y-94532142D01*
X101989285Y-94353571D01*
X102025000Y-94246428D01*
X102667857Y-93496428D02*
X102703571Y-93532142D01*
X102739285Y-93639285D01*
X102739285Y-93710714D01*
X102703571Y-93817857D01*
X102632142Y-93889285D01*
X102560714Y-93925000D01*
X102417857Y-93960714D01*
X102310714Y-93960714D01*
X102167857Y-93925000D01*
X102096428Y-93889285D01*
X102025000Y-93817857D01*
X101989285Y-93710714D01*
X101989285Y-93639285D01*
X102025000Y-93532142D01*
X102060714Y-93496428D01*
X102739285Y-92817857D02*
X102739285Y-93175000D01*
X101989285Y-93175000D01*
X102989285Y-92389285D02*
X101917857Y-92389285D01*
X101989285Y-91925000D02*
X101989285Y-91460714D01*
X102275000Y-91710714D01*
X102275000Y-91603571D01*
X102310714Y-91532142D01*
X102346428Y-91496428D01*
X102417857Y-91460714D01*
X102596428Y-91460714D01*
X102667857Y-91496428D01*
X102703571Y-91532142D01*
X102739285Y-91603571D01*
X102739285Y-91817857D01*
X102703571Y-91889285D01*
X102667857Y-91925000D01*
X101989285Y-91246428D02*
X102739285Y-90996428D01*
X101989285Y-90746428D01*
X101989285Y-90567857D02*
X101989285Y-90103571D01*
X102275000Y-90353571D01*
X102275000Y-90246428D01*
X102310714Y-90175000D01*
X102346428Y-90139285D01*
X102417857Y-90103571D01*
X102596428Y-90103571D01*
X102667857Y-90139285D01*
X102703571Y-90175000D01*
X102739285Y-90246428D01*
X102739285Y-90460714D01*
X102703571Y-90532142D01*
X102667857Y-90567857D01*
X102989285Y-89603571D02*
X101917857Y-89603571D01*
X102025000Y-88675000D02*
X101989285Y-88746428D01*
X101989285Y-88853571D01*
X102025000Y-88960714D01*
X102096428Y-89032142D01*
X102167857Y-89067857D01*
X102310714Y-89103571D01*
X102417857Y-89103571D01*
X102560714Y-89067857D01*
X102632142Y-89032142D01*
X102703571Y-88960714D01*
X102739285Y-88853571D01*
X102739285Y-88782142D01*
X102703571Y-88675000D01*
X102667857Y-88639285D01*
X102417857Y-88639285D01*
X102417857Y-88782142D01*
X102739285Y-88317857D02*
X101989285Y-88317857D01*
X102739285Y-87889285D01*
X101989285Y-87889285D01*
X102739285Y-87532142D02*
X101989285Y-87532142D01*
X101989285Y-87353571D01*
X102025000Y-87246428D01*
X102096428Y-87175000D01*
X102167857Y-87139285D01*
X102310714Y-87103571D01*
X102417857Y-87103571D01*
X102560714Y-87139285D01*
X102632142Y-87175000D01*
X102703571Y-87246428D01*
X102739285Y-87353571D01*
X102739285Y-87532142D01*
X97803571Y-96839285D02*
X97839285Y-96732142D01*
X97839285Y-96553571D01*
X97803571Y-96482142D01*
X97767857Y-96446428D01*
X97696428Y-96410714D01*
X97625000Y-96410714D01*
X97553571Y-96446428D01*
X97517857Y-96482142D01*
X97482142Y-96553571D01*
X97446428Y-96696428D01*
X97410714Y-96767857D01*
X97375000Y-96803571D01*
X97303571Y-96839285D01*
X97232142Y-96839285D01*
X97160714Y-96803571D01*
X97125000Y-96767857D01*
X97089285Y-96696428D01*
X97089285Y-96517857D01*
X97125000Y-96410714D01*
X97839285Y-96089285D02*
X97089285Y-96089285D01*
X97089285Y-95910714D01*
X97125000Y-95803571D01*
X97196428Y-95732142D01*
X97267857Y-95696428D01*
X97410714Y-95660714D01*
X97517857Y-95660714D01*
X97660714Y-95696428D01*
X97732142Y-95732142D01*
X97803571Y-95803571D01*
X97839285Y-95910714D01*
X97839285Y-96089285D01*
X97625000Y-95375000D02*
X97625000Y-95017857D01*
X97839285Y-95446428D02*
X97089285Y-95196428D01*
X97839285Y-94946428D01*
X98089285Y-94517857D02*
X97017857Y-94517857D01*
X97803571Y-94017857D02*
X97839285Y-93910714D01*
X97839285Y-93732142D01*
X97803571Y-93660714D01*
X97767857Y-93625000D01*
X97696428Y-93589285D01*
X97625000Y-93589285D01*
X97553571Y-93625000D01*
X97517857Y-93660714D01*
X97482142Y-93732142D01*
X97446428Y-93875000D01*
X97410714Y-93946428D01*
X97375000Y-93982142D01*
X97303571Y-94017857D01*
X97232142Y-94017857D01*
X97160714Y-93982142D01*
X97125000Y-93946428D01*
X97089285Y-93875000D01*
X97089285Y-93696428D01*
X97125000Y-93589285D01*
X97767857Y-92839285D02*
X97803571Y-92875000D01*
X97839285Y-92982142D01*
X97839285Y-93053571D01*
X97803571Y-93160714D01*
X97732142Y-93232142D01*
X97660714Y-93267857D01*
X97517857Y-93303571D01*
X97410714Y-93303571D01*
X97267857Y-93267857D01*
X97196428Y-93232142D01*
X97125000Y-93160714D01*
X97089285Y-93053571D01*
X97089285Y-92982142D01*
X97125000Y-92875000D01*
X97160714Y-92839285D01*
X97839285Y-92160714D02*
X97839285Y-92517857D01*
X97089285Y-92517857D01*
X98089285Y-91732142D02*
X97017857Y-91732142D01*
X97089285Y-90839285D02*
X97089285Y-91196428D01*
X97446428Y-91232142D01*
X97410714Y-91196428D01*
X97375000Y-91125000D01*
X97375000Y-90946428D01*
X97410714Y-90875000D01*
X97446428Y-90839285D01*
X97517857Y-90803571D01*
X97696428Y-90803571D01*
X97767857Y-90839285D01*
X97803571Y-90875000D01*
X97839285Y-90946428D01*
X97839285Y-91125000D01*
X97803571Y-91196428D01*
X97767857Y-91232142D01*
X97089285Y-90589285D02*
X97839285Y-90339285D01*
X97089285Y-90089285D01*
X98089285Y-89660714D02*
X97017857Y-89660714D01*
X97125000Y-88732142D02*
X97089285Y-88803571D01*
X97089285Y-88910714D01*
X97125000Y-89017857D01*
X97196428Y-89089285D01*
X97267857Y-89125000D01*
X97410714Y-89160714D01*
X97517857Y-89160714D01*
X97660714Y-89125000D01*
X97732142Y-89089285D01*
X97803571Y-89017857D01*
X97839285Y-88910714D01*
X97839285Y-88839285D01*
X97803571Y-88732142D01*
X97767857Y-88696428D01*
X97517857Y-88696428D01*
X97517857Y-88839285D01*
X97839285Y-88375000D02*
X97089285Y-88375000D01*
X97839285Y-87946428D01*
X97089285Y-87946428D01*
X97839285Y-87589285D02*
X97089285Y-87589285D01*
X97089285Y-87410714D01*
X97125000Y-87303571D01*
X97196428Y-87232142D01*
X97267857Y-87196428D01*
X97410714Y-87160714D01*
X97517857Y-87160714D01*
X97660714Y-87196428D01*
X97732142Y-87232142D01*
X97803571Y-87303571D01*
X97839285Y-87410714D01*
X97839285Y-87589285D01*
D13*
X38873809Y-55378571D02*
X38850000Y-55402380D01*
X38778571Y-55426190D01*
X38730952Y-55426190D01*
X38659523Y-55402380D01*
X38611904Y-55354761D01*
X38588095Y-55307142D01*
X38564285Y-55211904D01*
X38564285Y-55140476D01*
X38588095Y-55045238D01*
X38611904Y-54997619D01*
X38659523Y-54950000D01*
X38730952Y-54926190D01*
X38778571Y-54926190D01*
X38850000Y-54950000D01*
X38873809Y-54973809D01*
X39088095Y-55426190D02*
X39088095Y-54926190D01*
X39088095Y-55164285D02*
X39373809Y-55164285D01*
X39373809Y-55426190D02*
X39373809Y-54926190D01*
X39873809Y-54950000D02*
X39826190Y-54926190D01*
X39754761Y-54926190D01*
X39683333Y-54950000D01*
X39635714Y-54997619D01*
X39611904Y-55045238D01*
X39588095Y-55140476D01*
X39588095Y-55211904D01*
X39611904Y-55307142D01*
X39635714Y-55354761D01*
X39683333Y-55402380D01*
X39754761Y-55426190D01*
X39802380Y-55426190D01*
X39873809Y-55402380D01*
X39897619Y-55378571D01*
X39897619Y-55211904D01*
X39802380Y-55211904D01*
X39992857Y-55473809D02*
X40373809Y-55473809D01*
X40730952Y-55426190D02*
X40492857Y-55426190D01*
X40492857Y-54926190D01*
X40897619Y-55164285D02*
X41064285Y-55164285D01*
X41135714Y-55426190D02*
X40897619Y-55426190D01*
X40897619Y-54926190D01*
X41135714Y-54926190D01*
X41350000Y-55426190D02*
X41350000Y-54926190D01*
X41469047Y-54926190D01*
X41540476Y-54950000D01*
X41588095Y-54997619D01*
X41611904Y-55045238D01*
X41635714Y-55140476D01*
X41635714Y-55211904D01*
X41611904Y-55307142D01*
X41588095Y-55354761D01*
X41540476Y-55402380D01*
X41469047Y-55426190D01*
X41350000Y-55426190D01*
X86614285Y-52226190D02*
X86900000Y-52226190D01*
X86757142Y-52726190D02*
X86757142Y-52226190D01*
X87066666Y-52726190D02*
X87066666Y-52226190D01*
X87257142Y-52226190D01*
X87304761Y-52250000D01*
X87328571Y-52273809D01*
X87352380Y-52321428D01*
X87352380Y-52392857D01*
X87328571Y-52440476D01*
X87304761Y-52464285D01*
X87257142Y-52488095D01*
X87066666Y-52488095D01*
X87447619Y-52773809D02*
X87828571Y-52773809D01*
X87923809Y-52702380D02*
X87995238Y-52726190D01*
X88114285Y-52726190D01*
X88161904Y-52702380D01*
X88185714Y-52678571D01*
X88209523Y-52630952D01*
X88209523Y-52583333D01*
X88185714Y-52535714D01*
X88161904Y-52511904D01*
X88114285Y-52488095D01*
X88019047Y-52464285D01*
X87971428Y-52440476D01*
X87947619Y-52416666D01*
X87923809Y-52369047D01*
X87923809Y-52321428D01*
X87947619Y-52273809D01*
X87971428Y-52250000D01*
X88019047Y-52226190D01*
X88138095Y-52226190D01*
X88209523Y-52250000D01*
X88423809Y-52726190D02*
X88423809Y-52226190D01*
X88542857Y-52226190D01*
X88614285Y-52250000D01*
X88661904Y-52297619D01*
X88685714Y-52345238D01*
X88709523Y-52440476D01*
X88709523Y-52511904D01*
X88685714Y-52607142D01*
X88661904Y-52654761D01*
X88614285Y-52702380D01*
X88542857Y-52726190D01*
X88423809Y-52726190D01*
X88900000Y-52583333D02*
X89138095Y-52583333D01*
X88852380Y-52726190D02*
X89019047Y-52226190D01*
X89185714Y-52726190D01*
D12*
X92803571Y-96839285D02*
X92839285Y-96732142D01*
X92839285Y-96553571D01*
X92803571Y-96482142D01*
X92767857Y-96446428D01*
X92696428Y-96410714D01*
X92625000Y-96410714D01*
X92553571Y-96446428D01*
X92517857Y-96482142D01*
X92482142Y-96553571D01*
X92446428Y-96696428D01*
X92410714Y-96767857D01*
X92375000Y-96803571D01*
X92303571Y-96839285D01*
X92232142Y-96839285D01*
X92160714Y-96803571D01*
X92125000Y-96767857D01*
X92089285Y-96696428D01*
X92089285Y-96517857D01*
X92125000Y-96410714D01*
X92839285Y-96089285D02*
X92089285Y-96089285D01*
X92089285Y-95910714D01*
X92125000Y-95803571D01*
X92196428Y-95732142D01*
X92267857Y-95696428D01*
X92410714Y-95660714D01*
X92517857Y-95660714D01*
X92660714Y-95696428D01*
X92732142Y-95732142D01*
X92803571Y-95803571D01*
X92839285Y-95910714D01*
X92839285Y-96089285D01*
X92625000Y-95375000D02*
X92625000Y-95017857D01*
X92839285Y-95446428D02*
X92089285Y-95196428D01*
X92839285Y-94946428D01*
X93089285Y-94517857D02*
X92017857Y-94517857D01*
X92803571Y-94017857D02*
X92839285Y-93910714D01*
X92839285Y-93732142D01*
X92803571Y-93660714D01*
X92767857Y-93625000D01*
X92696428Y-93589285D01*
X92625000Y-93589285D01*
X92553571Y-93625000D01*
X92517857Y-93660714D01*
X92482142Y-93732142D01*
X92446428Y-93875000D01*
X92410714Y-93946428D01*
X92375000Y-93982142D01*
X92303571Y-94017857D01*
X92232142Y-94017857D01*
X92160714Y-93982142D01*
X92125000Y-93946428D01*
X92089285Y-93875000D01*
X92089285Y-93696428D01*
X92125000Y-93589285D01*
X92767857Y-92839285D02*
X92803571Y-92875000D01*
X92839285Y-92982142D01*
X92839285Y-93053571D01*
X92803571Y-93160714D01*
X92732142Y-93232142D01*
X92660714Y-93267857D01*
X92517857Y-93303571D01*
X92410714Y-93303571D01*
X92267857Y-93267857D01*
X92196428Y-93232142D01*
X92125000Y-93160714D01*
X92089285Y-93053571D01*
X92089285Y-92982142D01*
X92125000Y-92875000D01*
X92160714Y-92839285D01*
X92839285Y-92160714D02*
X92839285Y-92517857D01*
X92089285Y-92517857D01*
X93089285Y-91732142D02*
X92017857Y-91732142D01*
X92089285Y-90839285D02*
X92089285Y-91196428D01*
X92446428Y-91232142D01*
X92410714Y-91196428D01*
X92375000Y-91125000D01*
X92375000Y-90946428D01*
X92410714Y-90875000D01*
X92446428Y-90839285D01*
X92517857Y-90803571D01*
X92696428Y-90803571D01*
X92767857Y-90839285D01*
X92803571Y-90875000D01*
X92839285Y-90946428D01*
X92839285Y-91125000D01*
X92803571Y-91196428D01*
X92767857Y-91232142D01*
X92089285Y-90589285D02*
X92839285Y-90339285D01*
X92089285Y-90089285D01*
X93089285Y-89660714D02*
X92017857Y-89660714D01*
X92125000Y-88732142D02*
X92089285Y-88803571D01*
X92089285Y-88910714D01*
X92125000Y-89017857D01*
X92196428Y-89089285D01*
X92267857Y-89125000D01*
X92410714Y-89160714D01*
X92517857Y-89160714D01*
X92660714Y-89125000D01*
X92732142Y-89089285D01*
X92803571Y-89017857D01*
X92839285Y-88910714D01*
X92839285Y-88839285D01*
X92803571Y-88732142D01*
X92767857Y-88696428D01*
X92517857Y-88696428D01*
X92517857Y-88839285D01*
X92839285Y-88375000D02*
X92089285Y-88375000D01*
X92839285Y-87946428D01*
X92089285Y-87946428D01*
X92839285Y-87589285D02*
X92089285Y-87589285D01*
X92089285Y-87410714D01*
X92125000Y-87303571D01*
X92196428Y-87232142D01*
X92267857Y-87196428D01*
X92410714Y-87160714D01*
X92517857Y-87160714D01*
X92660714Y-87196428D01*
X92732142Y-87232142D01*
X92803571Y-87303571D01*
X92839285Y-87410714D01*
X92839285Y-87589285D01*
D14*
X54728571Y-37857142D02*
X55871428Y-37857142D01*
X36107142Y-48366428D02*
X36107142Y-47223571D01*
X36057142Y-40321428D02*
X36057142Y-39178571D01*
X36628571Y-39750000D02*
X35485714Y-39750000D01*
D12*
X87803571Y-96892857D02*
X87839285Y-96785714D01*
X87839285Y-96607142D01*
X87803571Y-96535714D01*
X87767857Y-96500000D01*
X87696428Y-96464285D01*
X87625000Y-96464285D01*
X87553571Y-96500000D01*
X87517857Y-96535714D01*
X87482142Y-96607142D01*
X87446428Y-96750000D01*
X87410714Y-96821428D01*
X87375000Y-96857142D01*
X87303571Y-96892857D01*
X87232142Y-96892857D01*
X87160714Y-96857142D01*
X87125000Y-96821428D01*
X87089285Y-96750000D01*
X87089285Y-96571428D01*
X87125000Y-96464285D01*
X87839285Y-96142857D02*
X87089285Y-96142857D01*
X87089285Y-95964285D01*
X87125000Y-95857142D01*
X87196428Y-95785714D01*
X87267857Y-95750000D01*
X87410714Y-95714285D01*
X87517857Y-95714285D01*
X87660714Y-95750000D01*
X87732142Y-95785714D01*
X87803571Y-95857142D01*
X87839285Y-95964285D01*
X87839285Y-96142857D01*
X87625000Y-95428571D02*
X87625000Y-95071428D01*
X87839285Y-95500000D02*
X87089285Y-95250000D01*
X87839285Y-95000000D01*
X88089285Y-94571428D02*
X87017857Y-94571428D01*
X87803571Y-94071428D02*
X87839285Y-93964285D01*
X87839285Y-93785714D01*
X87803571Y-93714285D01*
X87767857Y-93678571D01*
X87696428Y-93642857D01*
X87625000Y-93642857D01*
X87553571Y-93678571D01*
X87517857Y-93714285D01*
X87482142Y-93785714D01*
X87446428Y-93928571D01*
X87410714Y-94000000D01*
X87375000Y-94035714D01*
X87303571Y-94071428D01*
X87232142Y-94071428D01*
X87160714Y-94035714D01*
X87125000Y-94000000D01*
X87089285Y-93928571D01*
X87089285Y-93750000D01*
X87125000Y-93642857D01*
X87767857Y-92892857D02*
X87803571Y-92928571D01*
X87839285Y-93035714D01*
X87839285Y-93107142D01*
X87803571Y-93214285D01*
X87732142Y-93285714D01*
X87660714Y-93321428D01*
X87517857Y-93357142D01*
X87410714Y-93357142D01*
X87267857Y-93321428D01*
X87196428Y-93285714D01*
X87125000Y-93214285D01*
X87089285Y-93107142D01*
X87089285Y-93035714D01*
X87125000Y-92928571D01*
X87160714Y-92892857D01*
X87839285Y-92214285D02*
X87839285Y-92571428D01*
X87089285Y-92571428D01*
X88089285Y-91785714D02*
X87017857Y-91785714D01*
X87089285Y-91357142D02*
X87089285Y-90928571D01*
X87839285Y-91142857D02*
X87089285Y-91142857D01*
X87089285Y-90750000D02*
X87839285Y-90250000D01*
X87089285Y-90250000D02*
X87839285Y-90750000D01*
X88089285Y-89785714D02*
X87017857Y-89785714D01*
X87839285Y-88821428D02*
X87482142Y-89071428D01*
X87839285Y-89250000D02*
X87089285Y-89250000D01*
X87089285Y-88964285D01*
X87125000Y-88892857D01*
X87160714Y-88857142D01*
X87232142Y-88821428D01*
X87339285Y-88821428D01*
X87410714Y-88857142D01*
X87446428Y-88892857D01*
X87482142Y-88964285D01*
X87482142Y-89250000D01*
X87089285Y-88571428D02*
X87839285Y-88071428D01*
X87089285Y-88071428D02*
X87839285Y-88571428D01*
D14*
X31278571Y-56721428D02*
X30564285Y-57221428D01*
X31278571Y-57578571D02*
X29778571Y-57578571D01*
X29778571Y-57007142D01*
X29850000Y-56864285D01*
X29921428Y-56792857D01*
X30064285Y-56721428D01*
X30278571Y-56721428D01*
X30421428Y-56792857D01*
X30492857Y-56864285D01*
X30564285Y-57007142D01*
X30564285Y-57578571D01*
X31207142Y-56150000D02*
X31278571Y-55935714D01*
X31278571Y-55578571D01*
X31207142Y-55435714D01*
X31135714Y-55364285D01*
X30992857Y-55292857D01*
X30850000Y-55292857D01*
X30707142Y-55364285D01*
X30635714Y-55435714D01*
X30564285Y-55578571D01*
X30492857Y-55864285D01*
X30421428Y-56007142D01*
X30350000Y-56078571D01*
X30207142Y-56150000D01*
X30064285Y-56150000D01*
X29921428Y-56078571D01*
X29850000Y-56007142D01*
X29778571Y-55864285D01*
X29778571Y-55507142D01*
X29850000Y-55292857D01*
X29778571Y-54864285D02*
X29778571Y-54007142D01*
X31278571Y-54435714D02*
X29778571Y-54435714D01*
D13*
X90026190Y-49926190D02*
X90311904Y-49926190D01*
X90169047Y-50426190D02*
X90169047Y-49926190D01*
X90478571Y-50426190D02*
X90478571Y-49926190D01*
X90669047Y-49926190D01*
X90716666Y-49950000D01*
X90740476Y-49973809D01*
X90764285Y-50021428D01*
X90764285Y-50092857D01*
X90740476Y-50140476D01*
X90716666Y-50164285D01*
X90669047Y-50188095D01*
X90478571Y-50188095D01*
X90859523Y-50473809D02*
X91240476Y-50473809D01*
X91335714Y-50402380D02*
X91407142Y-50426190D01*
X91526190Y-50426190D01*
X91573809Y-50402380D01*
X91597619Y-50378571D01*
X91621428Y-50330952D01*
X91621428Y-50283333D01*
X91597619Y-50235714D01*
X91573809Y-50211904D01*
X91526190Y-50188095D01*
X91430952Y-50164285D01*
X91383333Y-50140476D01*
X91359523Y-50116666D01*
X91335714Y-50069047D01*
X91335714Y-50021428D01*
X91359523Y-49973809D01*
X91383333Y-49950000D01*
X91430952Y-49926190D01*
X91550000Y-49926190D01*
X91621428Y-49950000D01*
X92121428Y-50378571D02*
X92097619Y-50402380D01*
X92026190Y-50426190D01*
X91978571Y-50426190D01*
X91907142Y-50402380D01*
X91859523Y-50354761D01*
X91835714Y-50307142D01*
X91811904Y-50211904D01*
X91811904Y-50140476D01*
X91835714Y-50045238D01*
X91859523Y-49997619D01*
X91907142Y-49950000D01*
X91978571Y-49926190D01*
X92026190Y-49926190D01*
X92097619Y-49950000D01*
X92121428Y-49973809D01*
X92573809Y-50426190D02*
X92335714Y-50426190D01*
X92335714Y-49926190D01*
D14*
X105700000Y-52235714D02*
X105771428Y-52307142D01*
X105700000Y-52378571D01*
X105628571Y-52307142D01*
X105700000Y-52235714D01*
X105700000Y-52378571D01*
X53100000Y-75378571D02*
X53100000Y-73878571D01*
X54100000Y-73878571D02*
X54385714Y-73878571D01*
X54528571Y-73950000D01*
X54671428Y-74092857D01*
X54742857Y-74378571D01*
X54742857Y-74878571D01*
X54671428Y-75164285D01*
X54528571Y-75307142D01*
X54385714Y-75378571D01*
X54100000Y-75378571D01*
X53957142Y-75307142D01*
X53814285Y-75164285D01*
X53742857Y-74878571D01*
X53742857Y-74378571D01*
X53814285Y-74092857D01*
X53957142Y-73950000D01*
X54100000Y-73878571D01*
X55671428Y-73878571D02*
X55814285Y-73878571D01*
X55957142Y-73950000D01*
X56028571Y-74021428D01*
X56100000Y-74164285D01*
X56171428Y-74450000D01*
X56171428Y-74807142D01*
X56100000Y-75092857D01*
X56028571Y-75235714D01*
X55957142Y-75307142D01*
X55814285Y-75378571D01*
X55671428Y-75378571D01*
X55528571Y-75307142D01*
X55457142Y-75235714D01*
X55385714Y-75092857D01*
X55314285Y-74807142D01*
X55314285Y-74450000D01*
X55385714Y-74164285D01*
X55457142Y-74021428D01*
X55528571Y-73950000D01*
X55671428Y-73878571D01*
D13*
X45314285Y-55426190D02*
X45314285Y-54926190D01*
X45504761Y-54926190D01*
X45552380Y-54950000D01*
X45576190Y-54973809D01*
X45600000Y-55021428D01*
X45600000Y-55092857D01*
X45576190Y-55140476D01*
X45552380Y-55164285D01*
X45504761Y-55188095D01*
X45314285Y-55188095D01*
X45766666Y-54926190D02*
X45885714Y-55426190D01*
X45980952Y-55069047D01*
X46076190Y-55426190D01*
X46195238Y-54926190D01*
X46671428Y-55426190D02*
X46504761Y-55188095D01*
X46385714Y-55426190D02*
X46385714Y-54926190D01*
X46576190Y-54926190D01*
X46623809Y-54950000D01*
X46647619Y-54973809D01*
X46671428Y-55021428D01*
X46671428Y-55092857D01*
X46647619Y-55140476D01*
X46623809Y-55164285D01*
X46576190Y-55188095D01*
X46385714Y-55188095D01*
X46766666Y-55473809D02*
X47147619Y-55473809D01*
X47504761Y-55426190D02*
X47266666Y-55426190D01*
X47266666Y-54926190D01*
X47671428Y-55164285D02*
X47838095Y-55164285D01*
X47909523Y-55426190D02*
X47671428Y-55426190D01*
X47671428Y-54926190D01*
X47909523Y-54926190D01*
X48123809Y-55426190D02*
X48123809Y-54926190D01*
X48242857Y-54926190D01*
X48314285Y-54950000D01*
X48361904Y-54997619D01*
X48385714Y-55045238D01*
X48409523Y-55140476D01*
X48409523Y-55211904D01*
X48385714Y-55307142D01*
X48361904Y-55354761D01*
X48314285Y-55402380D01*
X48242857Y-55426190D01*
X48123809Y-55426190D01*
X77478571Y-52326190D02*
X77764285Y-52326190D01*
X77621428Y-52826190D02*
X77621428Y-52326190D01*
X77930952Y-52826190D02*
X77930952Y-52326190D01*
X78121428Y-52326190D01*
X78169047Y-52350000D01*
X78192857Y-52373809D01*
X78216666Y-52421428D01*
X78216666Y-52492857D01*
X78192857Y-52540476D01*
X78169047Y-52564285D01*
X78121428Y-52588095D01*
X77930952Y-52588095D01*
X78311904Y-52873809D02*
X78692857Y-52873809D01*
X78764285Y-52326190D02*
X79073809Y-52326190D01*
X78907142Y-52516666D01*
X78978571Y-52516666D01*
X79026190Y-52540476D01*
X79050000Y-52564285D01*
X79073809Y-52611904D01*
X79073809Y-52730952D01*
X79050000Y-52778571D01*
X79026190Y-52802380D01*
X78978571Y-52826190D01*
X78835714Y-52826190D01*
X78788095Y-52802380D01*
X78764285Y-52778571D01*
X79240476Y-52492857D02*
X79359523Y-52826190D01*
X79478571Y-52492857D01*
X79621428Y-52326190D02*
X79930952Y-52326190D01*
X79764285Y-52516666D01*
X79835714Y-52516666D01*
X79883333Y-52540476D01*
X79907142Y-52564285D01*
X79930952Y-52611904D01*
X79930952Y-52730952D01*
X79907142Y-52778571D01*
X79883333Y-52802380D01*
X79835714Y-52826190D01*
X79692857Y-52826190D01*
X79645238Y-52802380D01*
X79621428Y-52778571D01*
X80026190Y-52873809D02*
X80407142Y-52873809D01*
X80526190Y-52826190D02*
X80526190Y-52326190D01*
X80764285Y-52826190D02*
X80764285Y-52326190D01*
X81050000Y-52826190D01*
X81050000Y-52326190D01*
D14*
X48178571Y-38357142D02*
X49321428Y-38357142D01*
X48750000Y-38928571D02*
X48750000Y-37785714D01*
D15*
X57786904Y-31065476D02*
X57786904Y-29815476D01*
X58084523Y-29815476D01*
X58263095Y-29875000D01*
X58382142Y-29994047D01*
X58441666Y-30113095D01*
X58501190Y-30351190D01*
X58501190Y-30529761D01*
X58441666Y-30767857D01*
X58382142Y-30886904D01*
X58263095Y-31005952D01*
X58084523Y-31065476D01*
X57786904Y-31065476D01*
X59036904Y-31065476D02*
X59036904Y-29815476D01*
X59870238Y-30470238D02*
X59870238Y-31065476D01*
X59453571Y-29815476D02*
X59870238Y-30470238D01*
X60286904Y-29815476D01*
X60644047Y-30708333D02*
X61239285Y-30708333D01*
X60525000Y-31065476D02*
X60941666Y-29815476D01*
X61358333Y-31065476D01*
X62608333Y-31184523D02*
X62489285Y-31125000D01*
X62370238Y-31005952D01*
X62191666Y-30827380D01*
X62072619Y-30767857D01*
X61953571Y-30767857D01*
X62013095Y-31065476D02*
X61894047Y-31005952D01*
X61775000Y-30886904D01*
X61715476Y-30648809D01*
X61715476Y-30232142D01*
X61775000Y-29994047D01*
X61894047Y-29875000D01*
X62013095Y-29815476D01*
X62251190Y-29815476D01*
X62370238Y-29875000D01*
X62489285Y-29994047D01*
X62548809Y-30232142D01*
X62548809Y-30648809D01*
X62489285Y-30886904D01*
X62370238Y-31005952D01*
X62251190Y-31065476D01*
X62013095Y-31065476D01*
X63084523Y-31065476D02*
X63084523Y-29815476D01*
X65346428Y-30946428D02*
X65286904Y-31005952D01*
X65108333Y-31065476D01*
X64989285Y-31065476D01*
X64810714Y-31005952D01*
X64691666Y-30886904D01*
X64632142Y-30767857D01*
X64572619Y-30529761D01*
X64572619Y-30351190D01*
X64632142Y-30113095D01*
X64691666Y-29994047D01*
X64810714Y-29875000D01*
X64989285Y-29815476D01*
X65108333Y-29815476D01*
X65286904Y-29875000D01*
X65346428Y-29934523D01*
X66060714Y-31065476D02*
X65941666Y-31005952D01*
X65882142Y-30886904D01*
X65882142Y-29815476D01*
X67072619Y-30232142D02*
X67072619Y-31065476D01*
X66536904Y-30232142D02*
X66536904Y-30886904D01*
X66596428Y-31005952D01*
X66715476Y-31065476D01*
X66894047Y-31065476D01*
X67013095Y-31005952D01*
X67072619Y-30946428D01*
X67608333Y-31005952D02*
X67727380Y-31065476D01*
X67965476Y-31065476D01*
X68084523Y-31005952D01*
X68144047Y-30886904D01*
X68144047Y-30827380D01*
X68084523Y-30708333D01*
X67965476Y-30648809D01*
X67786904Y-30648809D01*
X67667857Y-30589285D01*
X67608333Y-30470238D01*
X67608333Y-30410714D01*
X67667857Y-30291666D01*
X67786904Y-30232142D01*
X67965476Y-30232142D01*
X68084523Y-30291666D01*
X68501190Y-30232142D02*
X68977380Y-30232142D01*
X68679761Y-29815476D02*
X68679761Y-30886904D01*
X68739285Y-31005952D01*
X68858333Y-31065476D01*
X68977380Y-31065476D01*
X69870238Y-31005952D02*
X69751190Y-31065476D01*
X69513095Y-31065476D01*
X69394047Y-31005952D01*
X69334523Y-30886904D01*
X69334523Y-30410714D01*
X69394047Y-30291666D01*
X69513095Y-30232142D01*
X69751190Y-30232142D01*
X69870238Y-30291666D01*
X69929761Y-30410714D01*
X69929761Y-30529761D01*
X69334523Y-30648809D01*
X70465476Y-31065476D02*
X70465476Y-30232142D01*
X70465476Y-30470238D02*
X70525000Y-30351190D01*
X70584523Y-30291666D01*
X70703571Y-30232142D01*
X70822619Y-30232142D01*
X72608333Y-30410714D02*
X72786904Y-30470238D01*
X72846428Y-30529761D01*
X72905952Y-30648809D01*
X72905952Y-30827380D01*
X72846428Y-30946428D01*
X72786904Y-31005952D01*
X72667857Y-31065476D01*
X72191666Y-31065476D01*
X72191666Y-29815476D01*
X72608333Y-29815476D01*
X72727380Y-29875000D01*
X72786904Y-29934523D01*
X72846428Y-30053571D01*
X72846428Y-30172619D01*
X72786904Y-30291666D01*
X72727380Y-30351190D01*
X72608333Y-30410714D01*
X72191666Y-30410714D01*
X73620238Y-31065476D02*
X73501190Y-31005952D01*
X73441666Y-30946428D01*
X73382142Y-30827380D01*
X73382142Y-30470238D01*
X73441666Y-30351190D01*
X73501190Y-30291666D01*
X73620238Y-30232142D01*
X73798809Y-30232142D01*
X73917857Y-30291666D01*
X73977380Y-30351190D01*
X74036904Y-30470238D01*
X74036904Y-30827380D01*
X73977380Y-30946428D01*
X73917857Y-31005952D01*
X73798809Y-31065476D01*
X73620238Y-31065476D01*
X75108333Y-31065476D02*
X75108333Y-30410714D01*
X75048809Y-30291666D01*
X74929761Y-30232142D01*
X74691666Y-30232142D01*
X74572619Y-30291666D01*
X75108333Y-31005952D02*
X74989285Y-31065476D01*
X74691666Y-31065476D01*
X74572619Y-31005952D01*
X74513095Y-30886904D01*
X74513095Y-30767857D01*
X74572619Y-30648809D01*
X74691666Y-30589285D01*
X74989285Y-30589285D01*
X75108333Y-30529761D01*
X75703571Y-31065476D02*
X75703571Y-30232142D01*
X75703571Y-30470238D02*
X75763095Y-30351190D01*
X75822619Y-30291666D01*
X75941666Y-30232142D01*
X76060714Y-30232142D01*
X77013095Y-31065476D02*
X77013095Y-29815476D01*
X77013095Y-31005952D02*
X76894047Y-31065476D01*
X76655952Y-31065476D01*
X76536904Y-31005952D01*
X76477380Y-30946428D01*
X76417857Y-30827380D01*
X76417857Y-30470238D01*
X76477380Y-30351190D01*
X76536904Y-30291666D01*
X76655952Y-30232142D01*
X76894047Y-30232142D01*
X77013095Y-30291666D01*
D13*
%TO.C,*%
D11*
%TO.C,D5*%
X41361904Y-40802380D02*
X41361904Y-39802380D01*
X41600000Y-39802380D01*
X41742857Y-39850000D01*
X41838095Y-39945238D01*
X41885714Y-40040476D01*
X41933333Y-40230952D01*
X41933333Y-40373809D01*
X41885714Y-40564285D01*
X41838095Y-40659523D01*
X41742857Y-40754761D01*
X41600000Y-40802380D01*
X41361904Y-40802380D01*
X42838095Y-39802380D02*
X42361904Y-39802380D01*
X42314285Y-40278571D01*
X42361904Y-40230952D01*
X42457142Y-40183333D01*
X42695238Y-40183333D01*
X42790476Y-40230952D01*
X42838095Y-40278571D01*
X42885714Y-40373809D01*
X42885714Y-40611904D01*
X42838095Y-40707142D01*
X42790476Y-40754761D01*
X42695238Y-40802380D01*
X42457142Y-40802380D01*
X42361904Y-40754761D01*
X42314285Y-40707142D01*
D12*
%TO.C,R28*%
X41717857Y-60239285D02*
X41467857Y-59882142D01*
X41289285Y-60239285D02*
X41289285Y-59489285D01*
X41575000Y-59489285D01*
X41646428Y-59525000D01*
X41682142Y-59560714D01*
X41717857Y-59632142D01*
X41717857Y-59739285D01*
X41682142Y-59810714D01*
X41646428Y-59846428D01*
X41575000Y-59882142D01*
X41289285Y-59882142D01*
X42003571Y-59560714D02*
X42039285Y-59525000D01*
X42110714Y-59489285D01*
X42289285Y-59489285D01*
X42360714Y-59525000D01*
X42396428Y-59560714D01*
X42432142Y-59632142D01*
X42432142Y-59703571D01*
X42396428Y-59810714D01*
X41967857Y-60239285D01*
X42432142Y-60239285D01*
X42860714Y-59810714D02*
X42789285Y-59775000D01*
X42753571Y-59739285D01*
X42717857Y-59667857D01*
X42717857Y-59632142D01*
X42753571Y-59560714D01*
X42789285Y-59525000D01*
X42860714Y-59489285D01*
X43003571Y-59489285D01*
X43075000Y-59525000D01*
X43110714Y-59560714D01*
X43146428Y-59632142D01*
X43146428Y-59667857D01*
X43110714Y-59739285D01*
X43075000Y-59775000D01*
X43003571Y-59810714D01*
X42860714Y-59810714D01*
X42789285Y-59846428D01*
X42753571Y-59882142D01*
X42717857Y-59953571D01*
X42717857Y-60096428D01*
X42753571Y-60167857D01*
X42789285Y-60203571D01*
X42860714Y-60239285D01*
X43003571Y-60239285D01*
X43075000Y-60203571D01*
X43110714Y-60167857D01*
X43146428Y-60096428D01*
X43146428Y-59953571D01*
X43110714Y-59882142D01*
X43075000Y-59846428D01*
X43003571Y-59810714D01*
D11*
%TO.C,R26*%
X44252380Y-71087857D02*
X43776190Y-71421190D01*
X44252380Y-71659285D02*
X43252380Y-71659285D01*
X43252380Y-71278333D01*
X43300000Y-71183095D01*
X43347619Y-71135476D01*
X43442857Y-71087857D01*
X43585714Y-71087857D01*
X43680952Y-71135476D01*
X43728571Y-71183095D01*
X43776190Y-71278333D01*
X43776190Y-71659285D01*
X43347619Y-70706904D02*
X43300000Y-70659285D01*
X43252380Y-70564047D01*
X43252380Y-70325952D01*
X43300000Y-70230714D01*
X43347619Y-70183095D01*
X43442857Y-70135476D01*
X43538095Y-70135476D01*
X43680952Y-70183095D01*
X44252380Y-70754523D01*
X44252380Y-70135476D01*
X43252380Y-69278333D02*
X43252380Y-69468809D01*
X43300000Y-69564047D01*
X43347619Y-69611666D01*
X43490476Y-69706904D01*
X43680952Y-69754523D01*
X44061904Y-69754523D01*
X44157142Y-69706904D01*
X44204761Y-69659285D01*
X44252380Y-69564047D01*
X44252380Y-69373571D01*
X44204761Y-69278333D01*
X44157142Y-69230714D01*
X44061904Y-69183095D01*
X43823809Y-69183095D01*
X43728571Y-69230714D01*
X43680952Y-69278333D01*
X43633333Y-69373571D01*
X43633333Y-69564047D01*
X43680952Y-69659285D01*
X43728571Y-69706904D01*
X43823809Y-69754523D01*
D12*
%TO.C,R2*%
X88375000Y-45539285D02*
X88125000Y-45182142D01*
X87946428Y-45539285D02*
X87946428Y-44789285D01*
X88232142Y-44789285D01*
X88303571Y-44825000D01*
X88339285Y-44860714D01*
X88375000Y-44932142D01*
X88375000Y-45039285D01*
X88339285Y-45110714D01*
X88303571Y-45146428D01*
X88232142Y-45182142D01*
X87946428Y-45182142D01*
X88660714Y-44860714D02*
X88696428Y-44825000D01*
X88767857Y-44789285D01*
X88946428Y-44789285D01*
X89017857Y-44825000D01*
X89053571Y-44860714D01*
X89089285Y-44932142D01*
X89089285Y-45003571D01*
X89053571Y-45110714D01*
X88625000Y-45539285D01*
X89089285Y-45539285D01*
D11*
%TO.C,U7*%
X77533095Y-43237380D02*
X77533095Y-44046904D01*
X77580714Y-44142142D01*
X77628333Y-44189761D01*
X77723571Y-44237380D01*
X77914047Y-44237380D01*
X78009285Y-44189761D01*
X78056904Y-44142142D01*
X78104523Y-44046904D01*
X78104523Y-43237380D01*
X78485476Y-43237380D02*
X79152142Y-43237380D01*
X78723571Y-44237380D01*
D12*
%TO.C,R6*%
X99675000Y-37339285D02*
X99425000Y-36982142D01*
X99246428Y-37339285D02*
X99246428Y-36589285D01*
X99532142Y-36589285D01*
X99603571Y-36625000D01*
X99639285Y-36660714D01*
X99675000Y-36732142D01*
X99675000Y-36839285D01*
X99639285Y-36910714D01*
X99603571Y-36946428D01*
X99532142Y-36982142D01*
X99246428Y-36982142D01*
X100317857Y-36589285D02*
X100175000Y-36589285D01*
X100103571Y-36625000D01*
X100067857Y-36660714D01*
X99996428Y-36767857D01*
X99960714Y-36910714D01*
X99960714Y-37196428D01*
X99996428Y-37267857D01*
X100032142Y-37303571D01*
X100103571Y-37339285D01*
X100246428Y-37339285D01*
X100317857Y-37303571D01*
X100353571Y-37267857D01*
X100389285Y-37196428D01*
X100389285Y-37017857D01*
X100353571Y-36946428D01*
X100317857Y-36910714D01*
X100246428Y-36875000D01*
X100103571Y-36875000D01*
X100032142Y-36910714D01*
X99996428Y-36946428D01*
X99960714Y-37017857D01*
D11*
%TO.C,U1*%
X40347380Y-45996904D02*
X41156904Y-45996904D01*
X41252142Y-45949285D01*
X41299761Y-45901666D01*
X41347380Y-45806428D01*
X41347380Y-45615952D01*
X41299761Y-45520714D01*
X41252142Y-45473095D01*
X41156904Y-45425476D01*
X40347380Y-45425476D01*
X41347380Y-44425476D02*
X41347380Y-44996904D01*
X41347380Y-44711190D02*
X40347380Y-44711190D01*
X40490238Y-44806428D01*
X40585476Y-44901666D01*
X40633095Y-44996904D01*
%TO.C,EXT_BATT1*%
X48110952Y-42378571D02*
X48444285Y-42378571D01*
X48587142Y-42902380D02*
X48110952Y-42902380D01*
X48110952Y-41902380D01*
X48587142Y-41902380D01*
X48920476Y-41902380D02*
X49587142Y-42902380D01*
X49587142Y-41902380D02*
X48920476Y-42902380D01*
X49825238Y-41902380D02*
X50396666Y-41902380D01*
X50110952Y-42902380D02*
X50110952Y-41902380D01*
X50491904Y-42997619D02*
X51253809Y-42997619D01*
X51825238Y-42378571D02*
X51968095Y-42426190D01*
X52015714Y-42473809D01*
X52063333Y-42569047D01*
X52063333Y-42711904D01*
X52015714Y-42807142D01*
X51968095Y-42854761D01*
X51872857Y-42902380D01*
X51491904Y-42902380D01*
X51491904Y-41902380D01*
X51825238Y-41902380D01*
X51920476Y-41950000D01*
X51968095Y-41997619D01*
X52015714Y-42092857D01*
X52015714Y-42188095D01*
X51968095Y-42283333D01*
X51920476Y-42330952D01*
X51825238Y-42378571D01*
X51491904Y-42378571D01*
X52444285Y-42616666D02*
X52920476Y-42616666D01*
X52349047Y-42902380D02*
X52682380Y-41902380D01*
X53015714Y-42902380D01*
X53206190Y-41902380D02*
X53777619Y-41902380D01*
X53491904Y-42902380D02*
X53491904Y-41902380D01*
X53968095Y-41902380D02*
X54539523Y-41902380D01*
X54253809Y-42902380D02*
X54253809Y-41902380D01*
X55396666Y-42902380D02*
X54825238Y-42902380D01*
X55110952Y-42902380D02*
X55110952Y-41902380D01*
X55015714Y-42045238D01*
X54920476Y-42140476D01*
X54825238Y-42188095D01*
D13*
%TO.C,C3*%
X60635866Y-52073371D02*
X60612057Y-52097180D01*
X60540628Y-52120990D01*
X60493009Y-52120990D01*
X60421580Y-52097180D01*
X60373961Y-52049561D01*
X60350152Y-52001942D01*
X60326342Y-51906704D01*
X60326342Y-51835276D01*
X60350152Y-51740038D01*
X60373961Y-51692419D01*
X60421580Y-51644800D01*
X60493009Y-51620990D01*
X60540628Y-51620990D01*
X60612057Y-51644800D01*
X60635866Y-51668609D01*
X60802533Y-51620990D02*
X61112057Y-51620990D01*
X60945390Y-51811466D01*
X61016819Y-51811466D01*
X61064438Y-51835276D01*
X61088247Y-51859085D01*
X61112057Y-51906704D01*
X61112057Y-52025752D01*
X61088247Y-52073371D01*
X61064438Y-52097180D01*
X61016819Y-52120990D01*
X60873961Y-52120990D01*
X60826342Y-52097180D01*
X60802533Y-52073371D01*
%TO.C,Q1*%
X51230180Y-51017009D02*
X51182561Y-50993200D01*
X51134942Y-50945580D01*
X51063514Y-50874152D01*
X51015895Y-50850342D01*
X50968276Y-50850342D01*
X50992085Y-50969390D02*
X50944466Y-50945580D01*
X50896847Y-50897961D01*
X50873038Y-50802723D01*
X50873038Y-50636057D01*
X50896847Y-50540819D01*
X50944466Y-50493200D01*
X50992085Y-50469390D01*
X51087323Y-50469390D01*
X51134942Y-50493200D01*
X51182561Y-50540819D01*
X51206371Y-50636057D01*
X51206371Y-50802723D01*
X51182561Y-50897961D01*
X51134942Y-50945580D01*
X51087323Y-50969390D01*
X50992085Y-50969390D01*
X51682561Y-50969390D02*
X51396847Y-50969390D01*
X51539704Y-50969390D02*
X51539704Y-50469390D01*
X51492085Y-50540819D01*
X51444466Y-50588438D01*
X51396847Y-50612247D01*
D12*
%TO.C,R1*%
X39675000Y-47939285D02*
X39425000Y-47582142D01*
X39246428Y-47939285D02*
X39246428Y-47189285D01*
X39532142Y-47189285D01*
X39603571Y-47225000D01*
X39639285Y-47260714D01*
X39675000Y-47332142D01*
X39675000Y-47439285D01*
X39639285Y-47510714D01*
X39603571Y-47546428D01*
X39532142Y-47582142D01*
X39246428Y-47582142D01*
X40389285Y-47939285D02*
X39960714Y-47939285D01*
X40175000Y-47939285D02*
X40175000Y-47189285D01*
X40103571Y-47296428D01*
X40032142Y-47367857D01*
X39960714Y-47403571D01*
D11*
%TO.C,R11*%
X77857142Y-78582380D02*
X77523809Y-78106190D01*
X77285714Y-78582380D02*
X77285714Y-77582380D01*
X77666666Y-77582380D01*
X77761904Y-77630000D01*
X77809523Y-77677619D01*
X77857142Y-77772857D01*
X77857142Y-77915714D01*
X77809523Y-78010952D01*
X77761904Y-78058571D01*
X77666666Y-78106190D01*
X77285714Y-78106190D01*
X78809523Y-78582380D02*
X78238095Y-78582380D01*
X78523809Y-78582380D02*
X78523809Y-77582380D01*
X78428571Y-77725238D01*
X78333333Y-77820476D01*
X78238095Y-77868095D01*
X79761904Y-78582380D02*
X79190476Y-78582380D01*
X79476190Y-78582380D02*
X79476190Y-77582380D01*
X79380952Y-77725238D01*
X79285714Y-77820476D01*
X79190476Y-77868095D01*
D12*
%TO.C,R15*%
X76717857Y-87139285D02*
X76467857Y-86782142D01*
X76289285Y-87139285D02*
X76289285Y-86389285D01*
X76575000Y-86389285D01*
X76646428Y-86425000D01*
X76682142Y-86460714D01*
X76717857Y-86532142D01*
X76717857Y-86639285D01*
X76682142Y-86710714D01*
X76646428Y-86746428D01*
X76575000Y-86782142D01*
X76289285Y-86782142D01*
X77432142Y-87139285D02*
X77003571Y-87139285D01*
X77217857Y-87139285D02*
X77217857Y-86389285D01*
X77146428Y-86496428D01*
X77075000Y-86567857D01*
X77003571Y-86603571D01*
X78110714Y-86389285D02*
X77753571Y-86389285D01*
X77717857Y-86746428D01*
X77753571Y-86710714D01*
X77825000Y-86675000D01*
X78003571Y-86675000D01*
X78075000Y-86710714D01*
X78110714Y-86746428D01*
X78146428Y-86817857D01*
X78146428Y-86996428D01*
X78110714Y-87067857D01*
X78075000Y-87103571D01*
X78003571Y-87139285D01*
X77825000Y-87139285D01*
X77753571Y-87103571D01*
X77717857Y-87067857D01*
%TO.C,C6*%
X92075000Y-48567857D02*
X92039285Y-48603571D01*
X91932142Y-48639285D01*
X91860714Y-48639285D01*
X91753571Y-48603571D01*
X91682142Y-48532142D01*
X91646428Y-48460714D01*
X91610714Y-48317857D01*
X91610714Y-48210714D01*
X91646428Y-48067857D01*
X91682142Y-47996428D01*
X91753571Y-47925000D01*
X91860714Y-47889285D01*
X91932142Y-47889285D01*
X92039285Y-47925000D01*
X92075000Y-47960714D01*
X92717857Y-47889285D02*
X92575000Y-47889285D01*
X92503571Y-47925000D01*
X92467857Y-47960714D01*
X92396428Y-48067857D01*
X92360714Y-48210714D01*
X92360714Y-48496428D01*
X92396428Y-48567857D01*
X92432142Y-48603571D01*
X92503571Y-48639285D01*
X92646428Y-48639285D01*
X92717857Y-48603571D01*
X92753571Y-48567857D01*
X92789285Y-48496428D01*
X92789285Y-48317857D01*
X92753571Y-48246428D01*
X92717857Y-48210714D01*
X92646428Y-48175000D01*
X92503571Y-48175000D01*
X92432142Y-48210714D01*
X92396428Y-48246428D01*
X92360714Y-48317857D01*
D11*
%TO.C,C4*%
X71733333Y-50757142D02*
X71685714Y-50804761D01*
X71542857Y-50852380D01*
X71447619Y-50852380D01*
X71304761Y-50804761D01*
X71209523Y-50709523D01*
X71161904Y-50614285D01*
X71114285Y-50423809D01*
X71114285Y-50280952D01*
X71161904Y-50090476D01*
X71209523Y-49995238D01*
X71304761Y-49900000D01*
X71447619Y-49852380D01*
X71542857Y-49852380D01*
X71685714Y-49900000D01*
X71733333Y-49947619D01*
X72590476Y-50185714D02*
X72590476Y-50852380D01*
X72352380Y-49804761D02*
X72114285Y-50519047D01*
X72733333Y-50519047D01*
D13*
%TO.C,U5*%
X104019047Y-49926190D02*
X104019047Y-50330952D01*
X104042857Y-50378571D01*
X104066666Y-50402380D01*
X104114285Y-50426190D01*
X104209523Y-50426190D01*
X104257142Y-50402380D01*
X104280952Y-50378571D01*
X104304761Y-50330952D01*
X104304761Y-49926190D01*
X104780952Y-49926190D02*
X104542857Y-49926190D01*
X104519047Y-50164285D01*
X104542857Y-50140476D01*
X104590476Y-50116666D01*
X104709523Y-50116666D01*
X104757142Y-50140476D01*
X104780952Y-50164285D01*
X104804761Y-50211904D01*
X104804761Y-50330952D01*
X104780952Y-50378571D01*
X104757142Y-50402380D01*
X104709523Y-50426190D01*
X104590476Y-50426190D01*
X104542857Y-50402380D01*
X104519047Y-50378571D01*
D12*
%TO.C,R22*%
X40517857Y-82039285D02*
X40267857Y-81682142D01*
X40089285Y-82039285D02*
X40089285Y-81289285D01*
X40375000Y-81289285D01*
X40446428Y-81325000D01*
X40482142Y-81360714D01*
X40517857Y-81432142D01*
X40517857Y-81539285D01*
X40482142Y-81610714D01*
X40446428Y-81646428D01*
X40375000Y-81682142D01*
X40089285Y-81682142D01*
X40803571Y-81360714D02*
X40839285Y-81325000D01*
X40910714Y-81289285D01*
X41089285Y-81289285D01*
X41160714Y-81325000D01*
X41196428Y-81360714D01*
X41232142Y-81432142D01*
X41232142Y-81503571D01*
X41196428Y-81610714D01*
X40767857Y-82039285D01*
X41232142Y-82039285D01*
X41517857Y-81360714D02*
X41553571Y-81325000D01*
X41625000Y-81289285D01*
X41803571Y-81289285D01*
X41875000Y-81325000D01*
X41910714Y-81360714D01*
X41946428Y-81432142D01*
X41946428Y-81503571D01*
X41910714Y-81610714D01*
X41482142Y-82039285D01*
X41946428Y-82039285D01*
%TO.C,R3*%
X84475000Y-48739285D02*
X84225000Y-48382142D01*
X84046428Y-48739285D02*
X84046428Y-47989285D01*
X84332142Y-47989285D01*
X84403571Y-48025000D01*
X84439285Y-48060714D01*
X84475000Y-48132142D01*
X84475000Y-48239285D01*
X84439285Y-48310714D01*
X84403571Y-48346428D01*
X84332142Y-48382142D01*
X84046428Y-48382142D01*
X84725000Y-47989285D02*
X85189285Y-47989285D01*
X84939285Y-48275000D01*
X85046428Y-48275000D01*
X85117857Y-48310714D01*
X85153571Y-48346428D01*
X85189285Y-48417857D01*
X85189285Y-48596428D01*
X85153571Y-48667857D01*
X85117857Y-48703571D01*
X85046428Y-48739285D01*
X84832142Y-48739285D01*
X84760714Y-48703571D01*
X84725000Y-48667857D01*
D13*
%TO.C,L1*%
X65316666Y-49426190D02*
X65078571Y-49426190D01*
X65078571Y-48926190D01*
X65745238Y-49426190D02*
X65459523Y-49426190D01*
X65602380Y-49426190D02*
X65602380Y-48926190D01*
X65554761Y-48997619D01*
X65507142Y-49045238D01*
X65459523Y-49069047D01*
D12*
%TO.C,C10*%
X103717857Y-37267857D02*
X103682142Y-37303571D01*
X103575000Y-37339285D01*
X103503571Y-37339285D01*
X103396428Y-37303571D01*
X103325000Y-37232142D01*
X103289285Y-37160714D01*
X103253571Y-37017857D01*
X103253571Y-36910714D01*
X103289285Y-36767857D01*
X103325000Y-36696428D01*
X103396428Y-36625000D01*
X103503571Y-36589285D01*
X103575000Y-36589285D01*
X103682142Y-36625000D01*
X103717857Y-36660714D01*
X104432142Y-37339285D02*
X104003571Y-37339285D01*
X104217857Y-37339285D02*
X104217857Y-36589285D01*
X104146428Y-36696428D01*
X104075000Y-36767857D01*
X104003571Y-36803571D01*
X104896428Y-36589285D02*
X104967857Y-36589285D01*
X105039285Y-36625000D01*
X105075000Y-36660714D01*
X105110714Y-36732142D01*
X105146428Y-36875000D01*
X105146428Y-37053571D01*
X105110714Y-37196428D01*
X105075000Y-37267857D01*
X105039285Y-37303571D01*
X104967857Y-37339285D01*
X104896428Y-37339285D01*
X104825000Y-37303571D01*
X104789285Y-37267857D01*
X104753571Y-37196428D01*
X104717857Y-37053571D01*
X104717857Y-36875000D01*
X104753571Y-36732142D01*
X104789285Y-36660714D01*
X104825000Y-36625000D01*
X104896428Y-36589285D01*
D13*
%TO.C,C5*%
X99816666Y-41678571D02*
X99792857Y-41702380D01*
X99721428Y-41726190D01*
X99673809Y-41726190D01*
X99602380Y-41702380D01*
X99554761Y-41654761D01*
X99530952Y-41607142D01*
X99507142Y-41511904D01*
X99507142Y-41440476D01*
X99530952Y-41345238D01*
X99554761Y-41297619D01*
X99602380Y-41250000D01*
X99673809Y-41226190D01*
X99721428Y-41226190D01*
X99792857Y-41250000D01*
X99816666Y-41273809D01*
X100269047Y-41226190D02*
X100030952Y-41226190D01*
X100007142Y-41464285D01*
X100030952Y-41440476D01*
X100078571Y-41416666D01*
X100197619Y-41416666D01*
X100245238Y-41440476D01*
X100269047Y-41464285D01*
X100292857Y-41511904D01*
X100292857Y-41630952D01*
X100269047Y-41678571D01*
X100245238Y-41702380D01*
X100197619Y-41726190D01*
X100078571Y-41726190D01*
X100030952Y-41702380D01*
X100007142Y-41678571D01*
D12*
%TO.C,C12*%
X106917857Y-48167857D02*
X106882142Y-48203571D01*
X106775000Y-48239285D01*
X106703571Y-48239285D01*
X106596428Y-48203571D01*
X106525000Y-48132142D01*
X106489285Y-48060714D01*
X106453571Y-47917857D01*
X106453571Y-47810714D01*
X106489285Y-47667857D01*
X106525000Y-47596428D01*
X106596428Y-47525000D01*
X106703571Y-47489285D01*
X106775000Y-47489285D01*
X106882142Y-47525000D01*
X106917857Y-47560714D01*
X107632142Y-48239285D02*
X107203571Y-48239285D01*
X107417857Y-48239285D02*
X107417857Y-47489285D01*
X107346428Y-47596428D01*
X107275000Y-47667857D01*
X107203571Y-47703571D01*
X107917857Y-47560714D02*
X107953571Y-47525000D01*
X108025000Y-47489285D01*
X108203571Y-47489285D01*
X108275000Y-47525000D01*
X108310714Y-47560714D01*
X108346428Y-47632142D01*
X108346428Y-47703571D01*
X108310714Y-47810714D01*
X107882142Y-48239285D01*
X108346428Y-48239285D01*
D11*
%TO.C,R24*%
X60917857Y-75739285D02*
X60667857Y-75382142D01*
X60489285Y-75739285D02*
X60489285Y-74989285D01*
X60775000Y-74989285D01*
X60846428Y-75025000D01*
X60882142Y-75060714D01*
X60917857Y-75132142D01*
X60917857Y-75239285D01*
X60882142Y-75310714D01*
X60846428Y-75346428D01*
X60775000Y-75382142D01*
X60489285Y-75382142D01*
X61203571Y-75060714D02*
X61239285Y-75025000D01*
X61310714Y-74989285D01*
X61489285Y-74989285D01*
X61560714Y-75025000D01*
X61596428Y-75060714D01*
X61632142Y-75132142D01*
X61632142Y-75203571D01*
X61596428Y-75310714D01*
X61167857Y-75739285D01*
X61632142Y-75739285D01*
X62275000Y-75239285D02*
X62275000Y-75739285D01*
X62096428Y-74953571D02*
X61917857Y-75489285D01*
X62382142Y-75489285D01*
D13*
%TO.C,U6*%
X103769047Y-68626190D02*
X103769047Y-69030952D01*
X103792857Y-69078571D01*
X103816666Y-69102380D01*
X103864285Y-69126190D01*
X103959523Y-69126190D01*
X104007142Y-69102380D01*
X104030952Y-69078571D01*
X104054761Y-69030952D01*
X104054761Y-68626190D01*
X104507142Y-68626190D02*
X104411904Y-68626190D01*
X104364285Y-68650000D01*
X104340476Y-68673809D01*
X104292857Y-68745238D01*
X104269047Y-68840476D01*
X104269047Y-69030952D01*
X104292857Y-69078571D01*
X104316666Y-69102380D01*
X104364285Y-69126190D01*
X104459523Y-69126190D01*
X104507142Y-69102380D01*
X104530952Y-69078571D01*
X104554761Y-69030952D01*
X104554761Y-68911904D01*
X104530952Y-68864285D01*
X104507142Y-68840476D01*
X104459523Y-68816666D01*
X104364285Y-68816666D01*
X104316666Y-68840476D01*
X104292857Y-68864285D01*
X104269047Y-68911904D01*
D11*
%TO.C,C16*%
X46157142Y-70887857D02*
X46204761Y-70935476D01*
X46252380Y-71078333D01*
X46252380Y-71173571D01*
X46204761Y-71316428D01*
X46109523Y-71411666D01*
X46014285Y-71459285D01*
X45823809Y-71506904D01*
X45680952Y-71506904D01*
X45490476Y-71459285D01*
X45395238Y-71411666D01*
X45300000Y-71316428D01*
X45252380Y-71173571D01*
X45252380Y-71078333D01*
X45300000Y-70935476D01*
X45347619Y-70887857D01*
X46252380Y-69935476D02*
X46252380Y-70506904D01*
X46252380Y-70221190D02*
X45252380Y-70221190D01*
X45395238Y-70316428D01*
X45490476Y-70411666D01*
X45538095Y-70506904D01*
X45252380Y-69078333D02*
X45252380Y-69268809D01*
X45300000Y-69364047D01*
X45347619Y-69411666D01*
X45490476Y-69506904D01*
X45680952Y-69554523D01*
X46061904Y-69554523D01*
X46157142Y-69506904D01*
X46204761Y-69459285D01*
X46252380Y-69364047D01*
X46252380Y-69173571D01*
X46204761Y-69078333D01*
X46157142Y-69030714D01*
X46061904Y-68983095D01*
X45823809Y-68983095D01*
X45728571Y-69030714D01*
X45680952Y-69078333D01*
X45633333Y-69173571D01*
X45633333Y-69364047D01*
X45680952Y-69459285D01*
X45728571Y-69506904D01*
X45823809Y-69554523D01*
D12*
%TO.C,R20*%
X50478571Y-59726190D02*
X50311904Y-59488095D01*
X50192857Y-59726190D02*
X50192857Y-59226190D01*
X50383333Y-59226190D01*
X50430952Y-59250000D01*
X50454761Y-59273809D01*
X50478571Y-59321428D01*
X50478571Y-59392857D01*
X50454761Y-59440476D01*
X50430952Y-59464285D01*
X50383333Y-59488095D01*
X50192857Y-59488095D01*
X50669047Y-59273809D02*
X50692857Y-59250000D01*
X50740476Y-59226190D01*
X50859523Y-59226190D01*
X50907142Y-59250000D01*
X50930952Y-59273809D01*
X50954761Y-59321428D01*
X50954761Y-59369047D01*
X50930952Y-59440476D01*
X50645238Y-59726190D01*
X50954761Y-59726190D01*
X51264285Y-59226190D02*
X51311904Y-59226190D01*
X51359523Y-59250000D01*
X51383333Y-59273809D01*
X51407142Y-59321428D01*
X51430952Y-59416666D01*
X51430952Y-59535714D01*
X51407142Y-59630952D01*
X51383333Y-59678571D01*
X51359523Y-59702380D01*
X51311904Y-59726190D01*
X51264285Y-59726190D01*
X51216666Y-59702380D01*
X51192857Y-59678571D01*
X51169047Y-59630952D01*
X51145238Y-59535714D01*
X51145238Y-59416666D01*
X51169047Y-59321428D01*
X51192857Y-59273809D01*
X51216666Y-59250000D01*
X51264285Y-59226190D01*
D11*
%TO.C,SW2*%
X35454761Y-57183333D02*
X35502380Y-57040476D01*
X35502380Y-56802380D01*
X35454761Y-56707142D01*
X35407142Y-56659523D01*
X35311904Y-56611904D01*
X35216666Y-56611904D01*
X35121428Y-56659523D01*
X35073809Y-56707142D01*
X35026190Y-56802380D01*
X34978571Y-56992857D01*
X34930952Y-57088095D01*
X34883333Y-57135714D01*
X34788095Y-57183333D01*
X34692857Y-57183333D01*
X34597619Y-57135714D01*
X34550000Y-57088095D01*
X34502380Y-56992857D01*
X34502380Y-56754761D01*
X34550000Y-56611904D01*
X34502380Y-56278571D02*
X35502380Y-56040476D01*
X34788095Y-55850000D01*
X35502380Y-55659523D01*
X34502380Y-55421428D01*
X34597619Y-55088095D02*
X34550000Y-55040476D01*
X34502380Y-54945238D01*
X34502380Y-54707142D01*
X34550000Y-54611904D01*
X34597619Y-54564285D01*
X34692857Y-54516666D01*
X34788095Y-54516666D01*
X34930952Y-54564285D01*
X35502380Y-55135714D01*
X35502380Y-54516666D01*
%TO.C,U2*%
X67738095Y-49852380D02*
X67738095Y-50661904D01*
X67785714Y-50757142D01*
X67833333Y-50804761D01*
X67928571Y-50852380D01*
X68119047Y-50852380D01*
X68214285Y-50804761D01*
X68261904Y-50757142D01*
X68309523Y-50661904D01*
X68309523Y-49852380D01*
X68738095Y-49947619D02*
X68785714Y-49900000D01*
X68880952Y-49852380D01*
X69119047Y-49852380D01*
X69214285Y-49900000D01*
X69261904Y-49947619D01*
X69309523Y-50042857D01*
X69309523Y-50138095D01*
X69261904Y-50280952D01*
X68690476Y-50852380D01*
X69309523Y-50852380D01*
%TO.C,J1*%
X31352380Y-39233333D02*
X32066666Y-39233333D01*
X32209523Y-39280952D01*
X32304761Y-39376190D01*
X32352380Y-39519047D01*
X32352380Y-39614285D01*
X32352380Y-38233333D02*
X32352380Y-38804761D01*
X32352380Y-38519047D02*
X31352380Y-38519047D01*
X31495238Y-38614285D01*
X31590476Y-38709523D01*
X31638095Y-38804761D01*
%TO.C,*%
%TO.C,5V_IN1*%
X34661904Y-45047619D02*
X34661904Y-45428571D01*
X35042857Y-45466666D01*
X35004761Y-45428571D01*
X34966666Y-45352380D01*
X34966666Y-45161904D01*
X35004761Y-45085714D01*
X35042857Y-45047619D01*
X35119047Y-45009523D01*
X35309523Y-45009523D01*
X35385714Y-45047619D01*
X35423809Y-45085714D01*
X35461904Y-45161904D01*
X35461904Y-45352380D01*
X35423809Y-45428571D01*
X35385714Y-45466666D01*
X34661904Y-44780952D02*
X35461904Y-44514285D01*
X34661904Y-44247619D01*
X35538095Y-44171428D02*
X35538095Y-43561904D01*
X35461904Y-43371428D02*
X34661904Y-43371428D01*
X35461904Y-42990476D02*
X34661904Y-42990476D01*
X35461904Y-42533333D01*
X34661904Y-42533333D01*
X35461904Y-41733333D02*
X35461904Y-42190476D01*
X35461904Y-41961904D02*
X34661904Y-41961904D01*
X34776190Y-42038095D01*
X34852380Y-42114285D01*
X34890476Y-42190476D01*
D12*
%TO.C,R13*%
X79517857Y-80039285D02*
X79267857Y-79682142D01*
X79089285Y-80039285D02*
X79089285Y-79289285D01*
X79375000Y-79289285D01*
X79446428Y-79325000D01*
X79482142Y-79360714D01*
X79517857Y-79432142D01*
X79517857Y-79539285D01*
X79482142Y-79610714D01*
X79446428Y-79646428D01*
X79375000Y-79682142D01*
X79089285Y-79682142D01*
X80232142Y-80039285D02*
X79803571Y-80039285D01*
X80017857Y-80039285D02*
X80017857Y-79289285D01*
X79946428Y-79396428D01*
X79875000Y-79467857D01*
X79803571Y-79503571D01*
X80482142Y-79289285D02*
X80946428Y-79289285D01*
X80696428Y-79575000D01*
X80803571Y-79575000D01*
X80875000Y-79610714D01*
X80910714Y-79646428D01*
X80946428Y-79717857D01*
X80946428Y-79896428D01*
X80910714Y-79967857D01*
X80875000Y-80003571D01*
X80803571Y-80039285D01*
X80589285Y-80039285D01*
X80517857Y-80003571D01*
X80482142Y-79967857D01*
D13*
%TO.C,C7*%
X104216666Y-41678571D02*
X104192857Y-41702380D01*
X104121428Y-41726190D01*
X104073809Y-41726190D01*
X104002380Y-41702380D01*
X103954761Y-41654761D01*
X103930952Y-41607142D01*
X103907142Y-41511904D01*
X103907142Y-41440476D01*
X103930952Y-41345238D01*
X103954761Y-41297619D01*
X104002380Y-41250000D01*
X104073809Y-41226190D01*
X104121428Y-41226190D01*
X104192857Y-41250000D01*
X104216666Y-41273809D01*
X104383333Y-41226190D02*
X104716666Y-41226190D01*
X104502380Y-41726190D01*
%TO.C,C2*%
X51812866Y-44112171D02*
X51789057Y-44135980D01*
X51717628Y-44159790D01*
X51670009Y-44159790D01*
X51598580Y-44135980D01*
X51550961Y-44088361D01*
X51527152Y-44040742D01*
X51503342Y-43945504D01*
X51503342Y-43874076D01*
X51527152Y-43778838D01*
X51550961Y-43731219D01*
X51598580Y-43683600D01*
X51670009Y-43659790D01*
X51717628Y-43659790D01*
X51789057Y-43683600D01*
X51812866Y-43707409D01*
X52003342Y-43707409D02*
X52027152Y-43683600D01*
X52074771Y-43659790D01*
X52193819Y-43659790D01*
X52241438Y-43683600D01*
X52265247Y-43707409D01*
X52289057Y-43755028D01*
X52289057Y-43802647D01*
X52265247Y-43874076D01*
X51979533Y-44159790D01*
X52289057Y-44159790D01*
D12*
%TO.C,R25*%
X44017857Y-60239285D02*
X43767857Y-59882142D01*
X43589285Y-60239285D02*
X43589285Y-59489285D01*
X43875000Y-59489285D01*
X43946428Y-59525000D01*
X43982142Y-59560714D01*
X44017857Y-59632142D01*
X44017857Y-59739285D01*
X43982142Y-59810714D01*
X43946428Y-59846428D01*
X43875000Y-59882142D01*
X43589285Y-59882142D01*
X44303571Y-59560714D02*
X44339285Y-59525000D01*
X44410714Y-59489285D01*
X44589285Y-59489285D01*
X44660714Y-59525000D01*
X44696428Y-59560714D01*
X44732142Y-59632142D01*
X44732142Y-59703571D01*
X44696428Y-59810714D01*
X44267857Y-60239285D01*
X44732142Y-60239285D01*
X45410714Y-59489285D02*
X45053571Y-59489285D01*
X45017857Y-59846428D01*
X45053571Y-59810714D01*
X45125000Y-59775000D01*
X45303571Y-59775000D01*
X45375000Y-59810714D01*
X45410714Y-59846428D01*
X45446428Y-59917857D01*
X45446428Y-60096428D01*
X45410714Y-60167857D01*
X45375000Y-60203571D01*
X45303571Y-60239285D01*
X45125000Y-60239285D01*
X45053571Y-60203571D01*
X45017857Y-60167857D01*
D13*
%TO.C,Q2*%
X73952380Y-75573809D02*
X73904761Y-75550000D01*
X73857142Y-75502380D01*
X73785714Y-75430952D01*
X73738095Y-75407142D01*
X73690476Y-75407142D01*
X73714285Y-75526190D02*
X73666666Y-75502380D01*
X73619047Y-75454761D01*
X73595238Y-75359523D01*
X73595238Y-75192857D01*
X73619047Y-75097619D01*
X73666666Y-75050000D01*
X73714285Y-75026190D01*
X73809523Y-75026190D01*
X73857142Y-75050000D01*
X73904761Y-75097619D01*
X73928571Y-75192857D01*
X73928571Y-75359523D01*
X73904761Y-75454761D01*
X73857142Y-75502380D01*
X73809523Y-75526190D01*
X73714285Y-75526190D01*
X74119047Y-75073809D02*
X74142857Y-75050000D01*
X74190476Y-75026190D01*
X74309523Y-75026190D01*
X74357142Y-75050000D01*
X74380952Y-75073809D01*
X74404761Y-75121428D01*
X74404761Y-75169047D01*
X74380952Y-75240476D01*
X74095238Y-75526190D01*
X74404761Y-75526190D01*
D11*
%TO.C,BT1*%
X51309285Y-27561071D02*
X51452142Y-27608690D01*
X51499761Y-27656309D01*
X51547380Y-27751547D01*
X51547380Y-27894404D01*
X51499761Y-27989642D01*
X51452142Y-28037261D01*
X51356904Y-28084880D01*
X50975952Y-28084880D01*
X50975952Y-27084880D01*
X51309285Y-27084880D01*
X51404523Y-27132500D01*
X51452142Y-27180119D01*
X51499761Y-27275357D01*
X51499761Y-27370595D01*
X51452142Y-27465833D01*
X51404523Y-27513452D01*
X51309285Y-27561071D01*
X50975952Y-27561071D01*
X51833095Y-27084880D02*
X52404523Y-27084880D01*
X52118809Y-28084880D02*
X52118809Y-27084880D01*
X53261666Y-28084880D02*
X52690238Y-28084880D01*
X52975952Y-28084880D02*
X52975952Y-27084880D01*
X52880714Y-27227738D01*
X52785476Y-27322976D01*
X52690238Y-27370595D01*
D12*
%TO.C,R14*%
X84417857Y-79339285D02*
X84167857Y-78982142D01*
X83989285Y-79339285D02*
X83989285Y-78589285D01*
X84275000Y-78589285D01*
X84346428Y-78625000D01*
X84382142Y-78660714D01*
X84417857Y-78732142D01*
X84417857Y-78839285D01*
X84382142Y-78910714D01*
X84346428Y-78946428D01*
X84275000Y-78982142D01*
X83989285Y-78982142D01*
X85132142Y-79339285D02*
X84703571Y-79339285D01*
X84917857Y-79339285D02*
X84917857Y-78589285D01*
X84846428Y-78696428D01*
X84775000Y-78767857D01*
X84703571Y-78803571D01*
X85775000Y-78839285D02*
X85775000Y-79339285D01*
X85596428Y-78553571D02*
X85417857Y-79089285D01*
X85882142Y-79089285D01*
D13*
%TO.C,C1*%
X47629066Y-48719171D02*
X47605257Y-48742980D01*
X47533828Y-48766790D01*
X47486209Y-48766790D01*
X47414780Y-48742980D01*
X47367161Y-48695361D01*
X47343352Y-48647742D01*
X47319542Y-48552504D01*
X47319542Y-48481076D01*
X47343352Y-48385838D01*
X47367161Y-48338219D01*
X47414780Y-48290600D01*
X47486209Y-48266790D01*
X47533828Y-48266790D01*
X47605257Y-48290600D01*
X47629066Y-48314409D01*
X48105257Y-48766790D02*
X47819542Y-48766790D01*
X47962400Y-48766790D02*
X47962400Y-48266790D01*
X47914780Y-48338219D01*
X47867161Y-48385838D01*
X47819542Y-48409647D01*
D12*
%TO.C,D3*%
X46246428Y-60189285D02*
X46246428Y-59439285D01*
X46425000Y-59439285D01*
X46532142Y-59475000D01*
X46603571Y-59546428D01*
X46639285Y-59617857D01*
X46675000Y-59760714D01*
X46675000Y-59867857D01*
X46639285Y-60010714D01*
X46603571Y-60082142D01*
X46532142Y-60153571D01*
X46425000Y-60189285D01*
X46246428Y-60189285D01*
X46925000Y-59439285D02*
X47389285Y-59439285D01*
X47139285Y-59725000D01*
X47246428Y-59725000D01*
X47317857Y-59760714D01*
X47353571Y-59796428D01*
X47389285Y-59867857D01*
X47389285Y-60046428D01*
X47353571Y-60117857D01*
X47317857Y-60153571D01*
X47246428Y-60189285D01*
X47032142Y-60189285D01*
X46960714Y-60153571D01*
X46925000Y-60117857D01*
D13*
%TO.C,D1*%
X46330952Y-51754190D02*
X46330952Y-51254190D01*
X46450000Y-51254190D01*
X46521428Y-51278000D01*
X46569047Y-51325619D01*
X46592857Y-51373238D01*
X46616666Y-51468476D01*
X46616666Y-51539904D01*
X46592857Y-51635142D01*
X46569047Y-51682761D01*
X46521428Y-51730380D01*
X46450000Y-51754190D01*
X46330952Y-51754190D01*
X47092857Y-51754190D02*
X46807142Y-51754190D01*
X46950000Y-51754190D02*
X46950000Y-51254190D01*
X46902380Y-51325619D01*
X46854761Y-51373238D01*
X46807142Y-51397047D01*
D12*
%TO.C,R23*%
X38217857Y-81939285D02*
X37967857Y-81582142D01*
X37789285Y-81939285D02*
X37789285Y-81189285D01*
X38075000Y-81189285D01*
X38146428Y-81225000D01*
X38182142Y-81260714D01*
X38217857Y-81332142D01*
X38217857Y-81439285D01*
X38182142Y-81510714D01*
X38146428Y-81546428D01*
X38075000Y-81582142D01*
X37789285Y-81582142D01*
X38503571Y-81260714D02*
X38539285Y-81225000D01*
X38610714Y-81189285D01*
X38789285Y-81189285D01*
X38860714Y-81225000D01*
X38896428Y-81260714D01*
X38932142Y-81332142D01*
X38932142Y-81403571D01*
X38896428Y-81510714D01*
X38467857Y-81939285D01*
X38932142Y-81939285D01*
X39182142Y-81189285D02*
X39646428Y-81189285D01*
X39396428Y-81475000D01*
X39503571Y-81475000D01*
X39575000Y-81510714D01*
X39610714Y-81546428D01*
X39646428Y-81617857D01*
X39646428Y-81796428D01*
X39610714Y-81867857D01*
X39575000Y-81903571D01*
X39503571Y-81939285D01*
X39289285Y-81939285D01*
X39217857Y-81903571D01*
X39182142Y-81867857D01*
%TO.C,R18*%
X98767857Y-52839285D02*
X98517857Y-52482142D01*
X98339285Y-52839285D02*
X98339285Y-52089285D01*
X98625000Y-52089285D01*
X98696428Y-52125000D01*
X98732142Y-52160714D01*
X98767857Y-52232142D01*
X98767857Y-52339285D01*
X98732142Y-52410714D01*
X98696428Y-52446428D01*
X98625000Y-52482142D01*
X98339285Y-52482142D01*
X99482142Y-52839285D02*
X99053571Y-52839285D01*
X99267857Y-52839285D02*
X99267857Y-52089285D01*
X99196428Y-52196428D01*
X99125000Y-52267857D01*
X99053571Y-52303571D01*
X99910714Y-52410714D02*
X99839285Y-52375000D01*
X99803571Y-52339285D01*
X99767857Y-52267857D01*
X99767857Y-52232142D01*
X99803571Y-52160714D01*
X99839285Y-52125000D01*
X99910714Y-52089285D01*
X100053571Y-52089285D01*
X100125000Y-52125000D01*
X100160714Y-52160714D01*
X100196428Y-52232142D01*
X100196428Y-52267857D01*
X100160714Y-52339285D01*
X100125000Y-52375000D01*
X100053571Y-52410714D01*
X99910714Y-52410714D01*
X99839285Y-52446428D01*
X99803571Y-52482142D01*
X99767857Y-52553571D01*
X99767857Y-52696428D01*
X99803571Y-52767857D01*
X99839285Y-52803571D01*
X99910714Y-52839285D01*
X100053571Y-52839285D01*
X100125000Y-52803571D01*
X100160714Y-52767857D01*
X100196428Y-52696428D01*
X100196428Y-52553571D01*
X100160714Y-52482142D01*
X100125000Y-52446428D01*
X100053571Y-52410714D01*
%TO.C,R5*%
X84375000Y-45639285D02*
X84125000Y-45282142D01*
X83946428Y-45639285D02*
X83946428Y-44889285D01*
X84232142Y-44889285D01*
X84303571Y-44925000D01*
X84339285Y-44960714D01*
X84375000Y-45032142D01*
X84375000Y-45139285D01*
X84339285Y-45210714D01*
X84303571Y-45246428D01*
X84232142Y-45282142D01*
X83946428Y-45282142D01*
X85053571Y-44889285D02*
X84696428Y-44889285D01*
X84660714Y-45246428D01*
X84696428Y-45210714D01*
X84767857Y-45175000D01*
X84946428Y-45175000D01*
X85017857Y-45210714D01*
X85053571Y-45246428D01*
X85089285Y-45317857D01*
X85089285Y-45496428D01*
X85053571Y-45567857D01*
X85017857Y-45603571D01*
X84946428Y-45639285D01*
X84767857Y-45639285D01*
X84696428Y-45603571D01*
X84660714Y-45567857D01*
D11*
%TO.C,C17*%
X77957142Y-54557142D02*
X77909523Y-54604761D01*
X77766666Y-54652380D01*
X77671428Y-54652380D01*
X77528571Y-54604761D01*
X77433333Y-54509523D01*
X77385714Y-54414285D01*
X77338095Y-54223809D01*
X77338095Y-54080952D01*
X77385714Y-53890476D01*
X77433333Y-53795238D01*
X77528571Y-53700000D01*
X77671428Y-53652380D01*
X77766666Y-53652380D01*
X77909523Y-53700000D01*
X77957142Y-53747619D01*
X78909523Y-54652380D02*
X78338095Y-54652380D01*
X78623809Y-54652380D02*
X78623809Y-53652380D01*
X78528571Y-53795238D01*
X78433333Y-53890476D01*
X78338095Y-53938095D01*
X79242857Y-53652380D02*
X79909523Y-53652380D01*
X79480952Y-54652380D01*
D13*
%TO.C,C8*%
X102016666Y-41678571D02*
X101992857Y-41702380D01*
X101921428Y-41726190D01*
X101873809Y-41726190D01*
X101802380Y-41702380D01*
X101754761Y-41654761D01*
X101730952Y-41607142D01*
X101707142Y-41511904D01*
X101707142Y-41440476D01*
X101730952Y-41345238D01*
X101754761Y-41297619D01*
X101802380Y-41250000D01*
X101873809Y-41226190D01*
X101921428Y-41226190D01*
X101992857Y-41250000D01*
X102016666Y-41273809D01*
X102302380Y-41440476D02*
X102254761Y-41416666D01*
X102230952Y-41392857D01*
X102207142Y-41345238D01*
X102207142Y-41321428D01*
X102230952Y-41273809D01*
X102254761Y-41250000D01*
X102302380Y-41226190D01*
X102397619Y-41226190D01*
X102445238Y-41250000D01*
X102469047Y-41273809D01*
X102492857Y-41321428D01*
X102492857Y-41345238D01*
X102469047Y-41392857D01*
X102445238Y-41416666D01*
X102397619Y-41440476D01*
X102302380Y-41440476D01*
X102254761Y-41464285D01*
X102230952Y-41488095D01*
X102207142Y-41535714D01*
X102207142Y-41630952D01*
X102230952Y-41678571D01*
X102254761Y-41702380D01*
X102302380Y-41726190D01*
X102397619Y-41726190D01*
X102445238Y-41702380D01*
X102469047Y-41678571D01*
X102492857Y-41630952D01*
X102492857Y-41535714D01*
X102469047Y-41488095D01*
X102445238Y-41464285D01*
X102397619Y-41440476D01*
%TO.C,U4*%
X58008847Y-31749590D02*
X58008847Y-32154352D01*
X58032657Y-32201971D01*
X58056466Y-32225780D01*
X58104085Y-32249590D01*
X58199323Y-32249590D01*
X58246942Y-32225780D01*
X58270752Y-32201971D01*
X58294561Y-32154352D01*
X58294561Y-31749590D01*
X58746942Y-31916257D02*
X58746942Y-32249590D01*
X58627895Y-31725780D02*
X58508847Y-32082923D01*
X58818371Y-32082923D01*
D12*
%TO.C,C15*%
X60967857Y-67267857D02*
X60932142Y-67303571D01*
X60825000Y-67339285D01*
X60753571Y-67339285D01*
X60646428Y-67303571D01*
X60575000Y-67232142D01*
X60539285Y-67160714D01*
X60503571Y-67017857D01*
X60503571Y-66910714D01*
X60539285Y-66767857D01*
X60575000Y-66696428D01*
X60646428Y-66625000D01*
X60753571Y-66589285D01*
X60825000Y-66589285D01*
X60932142Y-66625000D01*
X60967857Y-66660714D01*
X61682142Y-67339285D02*
X61253571Y-67339285D01*
X61467857Y-67339285D02*
X61467857Y-66589285D01*
X61396428Y-66696428D01*
X61325000Y-66767857D01*
X61253571Y-66803571D01*
X62360714Y-66589285D02*
X62003571Y-66589285D01*
X61967857Y-66946428D01*
X62003571Y-66910714D01*
X62075000Y-66875000D01*
X62253571Y-66875000D01*
X62325000Y-66910714D01*
X62360714Y-66946428D01*
X62396428Y-67017857D01*
X62396428Y-67196428D01*
X62360714Y-67267857D01*
X62325000Y-67303571D01*
X62253571Y-67339285D01*
X62075000Y-67339285D01*
X62003571Y-67303571D01*
X61967857Y-67267857D01*
D11*
%TO.C,SW1*%
X52716666Y-69869761D02*
X52859523Y-69917380D01*
X53097619Y-69917380D01*
X53192857Y-69869761D01*
X53240476Y-69822142D01*
X53288095Y-69726904D01*
X53288095Y-69631666D01*
X53240476Y-69536428D01*
X53192857Y-69488809D01*
X53097619Y-69441190D01*
X52907142Y-69393571D01*
X52811904Y-69345952D01*
X52764285Y-69298333D01*
X52716666Y-69203095D01*
X52716666Y-69107857D01*
X52764285Y-69012619D01*
X52811904Y-68965000D01*
X52907142Y-68917380D01*
X53145238Y-68917380D01*
X53288095Y-68965000D01*
X53621428Y-68917380D02*
X53859523Y-69917380D01*
X54050000Y-69203095D01*
X54240476Y-69917380D01*
X54478571Y-68917380D01*
X55383333Y-69917380D02*
X54811904Y-69917380D01*
X55097619Y-69917380D02*
X55097619Y-68917380D01*
X55002380Y-69060238D01*
X54907142Y-69155476D01*
X54811904Y-69203095D01*
D12*
%TO.C,D4*%
X39346428Y-60289285D02*
X39346428Y-59539285D01*
X39525000Y-59539285D01*
X39632142Y-59575000D01*
X39703571Y-59646428D01*
X39739285Y-59717857D01*
X39775000Y-59860714D01*
X39775000Y-59967857D01*
X39739285Y-60110714D01*
X39703571Y-60182142D01*
X39632142Y-60253571D01*
X39525000Y-60289285D01*
X39346428Y-60289285D01*
X40417857Y-59789285D02*
X40417857Y-60289285D01*
X40239285Y-59503571D02*
X40060714Y-60039285D01*
X40525000Y-60039285D01*
%TO.C,R27*%
X65217857Y-79339285D02*
X64967857Y-78982142D01*
X64789285Y-79339285D02*
X64789285Y-78589285D01*
X65075000Y-78589285D01*
X65146428Y-78625000D01*
X65182142Y-78660714D01*
X65217857Y-78732142D01*
X65217857Y-78839285D01*
X65182142Y-78910714D01*
X65146428Y-78946428D01*
X65075000Y-78982142D01*
X64789285Y-78982142D01*
X65503571Y-78660714D02*
X65539285Y-78625000D01*
X65610714Y-78589285D01*
X65789285Y-78589285D01*
X65860714Y-78625000D01*
X65896428Y-78660714D01*
X65932142Y-78732142D01*
X65932142Y-78803571D01*
X65896428Y-78910714D01*
X65467857Y-79339285D01*
X65932142Y-79339285D01*
X66182142Y-78589285D02*
X66682142Y-78589285D01*
X66360714Y-79339285D01*
D13*
%TO.C,IC1*%
X54061904Y-59676190D02*
X54061904Y-59176190D01*
X54585714Y-59628571D02*
X54561904Y-59652380D01*
X54490476Y-59676190D01*
X54442857Y-59676190D01*
X54371428Y-59652380D01*
X54323809Y-59604761D01*
X54300000Y-59557142D01*
X54276190Y-59461904D01*
X54276190Y-59390476D01*
X54300000Y-59295238D01*
X54323809Y-59247619D01*
X54371428Y-59200000D01*
X54442857Y-59176190D01*
X54490476Y-59176190D01*
X54561904Y-59200000D01*
X54585714Y-59223809D01*
X55061904Y-59676190D02*
X54776190Y-59676190D01*
X54919047Y-59676190D02*
X54919047Y-59176190D01*
X54871428Y-59247619D01*
X54823809Y-59295238D01*
X54776190Y-59319047D01*
%TO.C,Q3*%
X91102380Y-82098809D02*
X91054761Y-82075000D01*
X91007142Y-82027380D01*
X90935714Y-81955952D01*
X90888095Y-81932142D01*
X90840476Y-81932142D01*
X90864285Y-82051190D02*
X90816666Y-82027380D01*
X90769047Y-81979761D01*
X90745238Y-81884523D01*
X90745238Y-81717857D01*
X90769047Y-81622619D01*
X90816666Y-81575000D01*
X90864285Y-81551190D01*
X90959523Y-81551190D01*
X91007142Y-81575000D01*
X91054761Y-81622619D01*
X91078571Y-81717857D01*
X91078571Y-81884523D01*
X91054761Y-81979761D01*
X91007142Y-82027380D01*
X90959523Y-82051190D01*
X90864285Y-82051190D01*
X91245238Y-81551190D02*
X91554761Y-81551190D01*
X91388095Y-81741666D01*
X91459523Y-81741666D01*
X91507142Y-81765476D01*
X91530952Y-81789285D01*
X91554761Y-81836904D01*
X91554761Y-81955952D01*
X91530952Y-82003571D01*
X91507142Y-82027380D01*
X91459523Y-82051190D01*
X91316666Y-82051190D01*
X91269047Y-82027380D01*
X91245238Y-82003571D01*
D12*
%TO.C,R16*%
X76717857Y-84939285D02*
X76467857Y-84582142D01*
X76289285Y-84939285D02*
X76289285Y-84189285D01*
X76575000Y-84189285D01*
X76646428Y-84225000D01*
X76682142Y-84260714D01*
X76717857Y-84332142D01*
X76717857Y-84439285D01*
X76682142Y-84510714D01*
X76646428Y-84546428D01*
X76575000Y-84582142D01*
X76289285Y-84582142D01*
X77432142Y-84939285D02*
X77003571Y-84939285D01*
X77217857Y-84939285D02*
X77217857Y-84189285D01*
X77146428Y-84296428D01*
X77075000Y-84367857D01*
X77003571Y-84403571D01*
X78075000Y-84189285D02*
X77932142Y-84189285D01*
X77860714Y-84225000D01*
X77825000Y-84260714D01*
X77753571Y-84367857D01*
X77717857Y-84510714D01*
X77717857Y-84796428D01*
X77753571Y-84867857D01*
X77789285Y-84903571D01*
X77860714Y-84939285D01*
X78003571Y-84939285D01*
X78075000Y-84903571D01*
X78110714Y-84867857D01*
X78146428Y-84796428D01*
X78146428Y-84617857D01*
X78110714Y-84546428D01*
X78075000Y-84510714D01*
X78003571Y-84475000D01*
X77860714Y-84475000D01*
X77789285Y-84510714D01*
X77753571Y-84546428D01*
X77717857Y-84617857D01*
%TO.C,C9*%
X101875000Y-37267857D02*
X101839285Y-37303571D01*
X101732142Y-37339285D01*
X101660714Y-37339285D01*
X101553571Y-37303571D01*
X101482142Y-37232142D01*
X101446428Y-37160714D01*
X101410714Y-37017857D01*
X101410714Y-36910714D01*
X101446428Y-36767857D01*
X101482142Y-36696428D01*
X101553571Y-36625000D01*
X101660714Y-36589285D01*
X101732142Y-36589285D01*
X101839285Y-36625000D01*
X101875000Y-36660714D01*
X102232142Y-37339285D02*
X102375000Y-37339285D01*
X102446428Y-37303571D01*
X102482142Y-37267857D01*
X102553571Y-37160714D01*
X102589285Y-37017857D01*
X102589285Y-36732142D01*
X102553571Y-36660714D01*
X102517857Y-36625000D01*
X102446428Y-36589285D01*
X102303571Y-36589285D01*
X102232142Y-36625000D01*
X102196428Y-36660714D01*
X102160714Y-36732142D01*
X102160714Y-36910714D01*
X102196428Y-36982142D01*
X102232142Y-37017857D01*
X102303571Y-37053571D01*
X102446428Y-37053571D01*
X102517857Y-37017857D01*
X102553571Y-36982142D01*
X102589285Y-36910714D01*
%TO.C,R10*%
X61978571Y-54626190D02*
X61811904Y-54388095D01*
X61692857Y-54626190D02*
X61692857Y-54126190D01*
X61883333Y-54126190D01*
X61930952Y-54150000D01*
X61954761Y-54173809D01*
X61978571Y-54221428D01*
X61978571Y-54292857D01*
X61954761Y-54340476D01*
X61930952Y-54364285D01*
X61883333Y-54388095D01*
X61692857Y-54388095D01*
X62454761Y-54626190D02*
X62169047Y-54626190D01*
X62311904Y-54626190D02*
X62311904Y-54126190D01*
X62264285Y-54197619D01*
X62216666Y-54245238D01*
X62169047Y-54269047D01*
X62764285Y-54126190D02*
X62811904Y-54126190D01*
X62859523Y-54150000D01*
X62883333Y-54173809D01*
X62907142Y-54221428D01*
X62930952Y-54316666D01*
X62930952Y-54435714D01*
X62907142Y-54530952D01*
X62883333Y-54578571D01*
X62859523Y-54602380D01*
X62811904Y-54626190D01*
X62764285Y-54626190D01*
X62716666Y-54602380D01*
X62692857Y-54578571D01*
X62669047Y-54530952D01*
X62645238Y-54435714D01*
X62645238Y-54316666D01*
X62669047Y-54221428D01*
X62692857Y-54173809D01*
X62716666Y-54150000D01*
X62764285Y-54126190D01*
%TO.C,C13*%
X109217857Y-48167857D02*
X109182142Y-48203571D01*
X109075000Y-48239285D01*
X109003571Y-48239285D01*
X108896428Y-48203571D01*
X108825000Y-48132142D01*
X108789285Y-48060714D01*
X108753571Y-47917857D01*
X108753571Y-47810714D01*
X108789285Y-47667857D01*
X108825000Y-47596428D01*
X108896428Y-47525000D01*
X109003571Y-47489285D01*
X109075000Y-47489285D01*
X109182142Y-47525000D01*
X109217857Y-47560714D01*
X109932142Y-48239285D02*
X109503571Y-48239285D01*
X109717857Y-48239285D02*
X109717857Y-47489285D01*
X109646428Y-47596428D01*
X109575000Y-47667857D01*
X109503571Y-47703571D01*
X110182142Y-47489285D02*
X110646428Y-47489285D01*
X110396428Y-47775000D01*
X110503571Y-47775000D01*
X110575000Y-47810714D01*
X110610714Y-47846428D01*
X110646428Y-47917857D01*
X110646428Y-48096428D01*
X110610714Y-48167857D01*
X110575000Y-48203571D01*
X110503571Y-48239285D01*
X110289285Y-48239285D01*
X110217857Y-48203571D01*
X110182142Y-48167857D01*
%TO.C,R12*%
X82217857Y-79339285D02*
X81967857Y-78982142D01*
X81789285Y-79339285D02*
X81789285Y-78589285D01*
X82075000Y-78589285D01*
X82146428Y-78625000D01*
X82182142Y-78660714D01*
X82217857Y-78732142D01*
X82217857Y-78839285D01*
X82182142Y-78910714D01*
X82146428Y-78946428D01*
X82075000Y-78982142D01*
X81789285Y-78982142D01*
X82932142Y-79339285D02*
X82503571Y-79339285D01*
X82717857Y-79339285D02*
X82717857Y-78589285D01*
X82646428Y-78696428D01*
X82575000Y-78767857D01*
X82503571Y-78803571D01*
X83217857Y-78660714D02*
X83253571Y-78625000D01*
X83325000Y-78589285D01*
X83503571Y-78589285D01*
X83575000Y-78625000D01*
X83610714Y-78660714D01*
X83646428Y-78732142D01*
X83646428Y-78803571D01*
X83610714Y-78910714D01*
X83182142Y-79339285D01*
X83646428Y-79339285D01*
%TO.C,R17*%
X101117857Y-52839285D02*
X100867857Y-52482142D01*
X100689285Y-52839285D02*
X100689285Y-52089285D01*
X100975000Y-52089285D01*
X101046428Y-52125000D01*
X101082142Y-52160714D01*
X101117857Y-52232142D01*
X101117857Y-52339285D01*
X101082142Y-52410714D01*
X101046428Y-52446428D01*
X100975000Y-52482142D01*
X100689285Y-52482142D01*
X101832142Y-52839285D02*
X101403571Y-52839285D01*
X101617857Y-52839285D02*
X101617857Y-52089285D01*
X101546428Y-52196428D01*
X101475000Y-52267857D01*
X101403571Y-52303571D01*
X102082142Y-52089285D02*
X102582142Y-52089285D01*
X102260714Y-52839285D01*
%TO.C,R4*%
X43275000Y-47939285D02*
X43025000Y-47582142D01*
X42846428Y-47939285D02*
X42846428Y-47189285D01*
X43132142Y-47189285D01*
X43203571Y-47225000D01*
X43239285Y-47260714D01*
X43275000Y-47332142D01*
X43275000Y-47439285D01*
X43239285Y-47510714D01*
X43203571Y-47546428D01*
X43132142Y-47582142D01*
X42846428Y-47582142D01*
X43917857Y-47439285D02*
X43917857Y-47939285D01*
X43739285Y-47153571D02*
X43560714Y-47689285D01*
X44025000Y-47689285D01*
D13*
%TO.C,U3*%
X74114047Y-60161190D02*
X74114047Y-60565952D01*
X74137857Y-60613571D01*
X74161666Y-60637380D01*
X74209285Y-60661190D01*
X74304523Y-60661190D01*
X74352142Y-60637380D01*
X74375952Y-60613571D01*
X74399761Y-60565952D01*
X74399761Y-60161190D01*
X74590238Y-60161190D02*
X74899761Y-60161190D01*
X74733095Y-60351666D01*
X74804523Y-60351666D01*
X74852142Y-60375476D01*
X74875952Y-60399285D01*
X74899761Y-60446904D01*
X74899761Y-60565952D01*
X74875952Y-60613571D01*
X74852142Y-60637380D01*
X74804523Y-60661190D01*
X74661666Y-60661190D01*
X74614047Y-60637380D01*
X74590238Y-60613571D01*
D11*
%TO.C,R19*%
X59957142Y-64952380D02*
X59623809Y-64476190D01*
X59385714Y-64952380D02*
X59385714Y-63952380D01*
X59766666Y-63952380D01*
X59861904Y-64000000D01*
X59909523Y-64047619D01*
X59957142Y-64142857D01*
X59957142Y-64285714D01*
X59909523Y-64380952D01*
X59861904Y-64428571D01*
X59766666Y-64476190D01*
X59385714Y-64476190D01*
X60909523Y-64952380D02*
X60338095Y-64952380D01*
X60623809Y-64952380D02*
X60623809Y-63952380D01*
X60528571Y-64095238D01*
X60433333Y-64190476D01*
X60338095Y-64238095D01*
X61385714Y-64952380D02*
X61576190Y-64952380D01*
X61671428Y-64904761D01*
X61719047Y-64857142D01*
X61814285Y-64714285D01*
X61861904Y-64523809D01*
X61861904Y-64142857D01*
X61814285Y-64047619D01*
X61766666Y-64000000D01*
X61671428Y-63952380D01*
X61480952Y-63952380D01*
X61385714Y-64000000D01*
X61338095Y-64047619D01*
X61290476Y-64142857D01*
X61290476Y-64380952D01*
X61338095Y-64476190D01*
X61385714Y-64523809D01*
X61480952Y-64571428D01*
X61671428Y-64571428D01*
X61766666Y-64523809D01*
X61814285Y-64476190D01*
X61861904Y-64380952D01*
D16*
%TO.C,D5*%
X39850000Y-41100000D02*
X39850000Y-43100000D01*
X39850000Y-43100000D02*
X43750000Y-43100000D01*
X39850000Y-41100000D02*
X43750000Y-41100000D01*
%TO.C,R28*%
X41465000Y-57761252D02*
X41465000Y-57238748D01*
X42935000Y-57761252D02*
X42935000Y-57238748D01*
%TO.C,R26*%
X44535000Y-67356252D02*
X44535000Y-66833748D01*
X43065000Y-67356252D02*
X43065000Y-66833748D01*
%TO.C,R2*%
X88761252Y-47435000D02*
X88238748Y-47435000D01*
X88761252Y-45965000D02*
X88238748Y-45965000D01*
%TO.C,U7*%
X74195000Y-44875000D02*
X80205000Y-44875000D01*
X80205000Y-51695000D02*
X80205000Y-50435000D01*
X80205000Y-44875000D02*
X80205000Y-46135000D01*
X76445000Y-51695000D02*
X80205000Y-51695000D01*
%TO.C,R6*%
X99065000Y-39461252D02*
X99065000Y-38938748D01*
X100535000Y-39461252D02*
X100535000Y-38938748D01*
%TO.C,U1*%
X45405000Y-46135000D02*
X45405000Y-44335000D01*
X42185000Y-44335000D02*
X42185000Y-46785000D01*
%TO.C,EXT_BATT1*%
X50775000Y-41230000D02*
X49445000Y-41230000D01*
X49445000Y-41230000D02*
X49445000Y-39900000D01*
X54645000Y-41230000D02*
X54645000Y-38570000D01*
X52045000Y-41230000D02*
X54645000Y-41230000D01*
X52045000Y-38570000D02*
X54645000Y-38570000D01*
X52045000Y-41230000D02*
X52045000Y-38570000D01*
%TO.C,C3*%
X61610000Y-49811252D02*
X61610000Y-48388748D01*
X59790000Y-49811252D02*
X59790000Y-48388748D01*
%TO.C,AUX_CONN2*%
X91330000Y-95030000D02*
X91330000Y-87350000D01*
X88670000Y-95030000D02*
X88670000Y-87350000D01*
X91330000Y-97630000D02*
X90000000Y-97630000D01*
X91330000Y-96300000D02*
X91330000Y-97630000D01*
X91330000Y-87350000D02*
X88670000Y-87350000D01*
X91330000Y-95030000D02*
X88670000Y-95030000D01*
%TO.C,Q1*%
X51297000Y-54193200D02*
X51297000Y-53923200D01*
X51297000Y-47293200D02*
X51297000Y-47563200D01*
X51297000Y-53923200D02*
X50197000Y-53923200D01*
X51297000Y-47563200D02*
X48467000Y-47563200D01*
X52797000Y-47293200D02*
X51297000Y-47293200D01*
X52797000Y-54193200D02*
X51297000Y-54193200D01*
%TO.C,R1*%
X39538748Y-48365000D02*
X40061252Y-48365000D01*
X39538748Y-49835000D02*
X40061252Y-49835000D01*
%TO.C,R11*%
X78761252Y-75715000D02*
X78238748Y-75715000D01*
X78761252Y-77185000D02*
X78238748Y-77185000D01*
%TO.C,R15*%
X80261252Y-87535000D02*
X79738748Y-87535000D01*
X80261252Y-86065000D02*
X79738748Y-86065000D01*
%TO.C,C6*%
X91938748Y-45965000D02*
X92461252Y-45965000D01*
X91938748Y-47435000D02*
X92461252Y-47435000D01*
%TO.C,C4*%
X72810000Y-48111252D02*
X72810000Y-46688748D01*
X70990000Y-48111252D02*
X70990000Y-46688748D01*
%TO.C,U5*%
X106108300Y-50114900D02*
X106108300Y-48614900D01*
X102888300Y-51614900D02*
X102888300Y-48614900D01*
%TO.C,R22*%
X41735000Y-84561252D02*
X41735000Y-84038748D01*
X40265000Y-84561252D02*
X40265000Y-84038748D01*
%TO.C,R3*%
X84338748Y-49065000D02*
X84861252Y-49065000D01*
X84338748Y-50535000D02*
X84861252Y-50535000D01*
%TO.C,L1*%
X64665000Y-47361252D02*
X64665000Y-46838748D01*
X66135000Y-47361252D02*
X66135000Y-46838748D01*
%TO.C,C10*%
X103465000Y-39461252D02*
X103465000Y-38938748D01*
X104935000Y-39461252D02*
X104935000Y-38938748D01*
%TO.C,C5*%
X100635000Y-43861252D02*
X100635000Y-43338748D01*
X99165000Y-43861252D02*
X99165000Y-43338748D01*
%TO.C,C12*%
X108135000Y-49838748D02*
X108135000Y-50361252D01*
X106665000Y-49838748D02*
X106665000Y-50361252D01*
%TO.C,R24*%
X62135000Y-72738748D02*
X62135000Y-73261252D01*
X60665000Y-72738748D02*
X60665000Y-73261252D01*
D11*
%TO.C,U6*%
X113625000Y-56687500D02*
X93875000Y-56687500D01*
X95625000Y-53787500D02*
X95625000Y-56687500D01*
X113625000Y-83237500D02*
X113625000Y-56687500D01*
X96385000Y-85707500D02*
X96385000Y-83232500D01*
X93875000Y-56687500D02*
X93875000Y-83237500D01*
X113625000Y-83237500D02*
X93875000Y-83237500D01*
X109085000Y-83167500D02*
X109085000Y-85707500D01*
X109085000Y-85712500D02*
X96385000Y-85712500D01*
X106875000Y-56687500D02*
X106875000Y-53787500D01*
X106875000Y-53787500D02*
X95625000Y-53787500D01*
X101676562Y-78112500D02*
G75*
G03*
X101676562Y-78112500I-3201562J0D01*
G01*
X101019345Y-78106844D02*
G75*
G03*
X101019345Y-78106844I-2594345J0D01*
G01*
X111625000Y-74277500D02*
X105275000Y-74277500D01*
X105275000Y-74277500D02*
X105275000Y-83167500D01*
X105275000Y-83167500D02*
X111625000Y-83167500D01*
X111625000Y-83167500D02*
X111625000Y-74277500D01*
G36*
X111625000Y-83167500D02*
G01*
X105275000Y-83167500D01*
X105275000Y-74277500D01*
X111625000Y-74277500D01*
X111625000Y-83167500D01*
G37*
X111625000Y-83167500D02*
X105275000Y-83167500D01*
X105275000Y-74277500D01*
X111625000Y-74277500D01*
X111625000Y-83167500D01*
D16*
%TO.C,C16*%
X45065000Y-66838748D02*
X45065000Y-67361252D01*
X46535000Y-66838748D02*
X46535000Y-67361252D01*
%TO.C,R20*%
X50065000Y-61338748D02*
X50065000Y-61861252D01*
X51535000Y-61338748D02*
X51535000Y-61861252D01*
%TO.C,SW2*%
X31750000Y-53100000D02*
X31750000Y-58900000D01*
X38250000Y-53000000D02*
X38250000Y-59000000D01*
X32700000Y-61100000D02*
X31700000Y-61100000D01*
X33700000Y-59100000D02*
X36300000Y-59100000D01*
X31700000Y-61100000D02*
X31700000Y-60100000D01*
X33700000Y-52900000D02*
X36300000Y-52900000D01*
%TO.C,U2*%
X66890000Y-46800000D02*
X66890000Y-48600000D01*
X70110000Y-48600000D02*
X70110000Y-46150000D01*
%TO.C,J1*%
X31812500Y-40300000D02*
X33662500Y-40300000D01*
X29262500Y-40300000D02*
X29512500Y-40300000D01*
X29262500Y-48100000D02*
X29512500Y-48100000D01*
X31812500Y-48100000D02*
X33662500Y-48100000D01*
X34212500Y-42500000D02*
X33762500Y-42500000D01*
X34212500Y-42500000D02*
X34212500Y-42950000D01*
X33662500Y-40300000D02*
X33662500Y-40750000D01*
X33662500Y-48100000D02*
X33662500Y-47650000D01*
%TO.C,5V_IN1*%
X36170000Y-43795000D02*
X36170000Y-46395000D01*
X36170000Y-43795000D02*
X38830000Y-43795000D01*
X36170000Y-42525000D02*
X36170000Y-41195000D01*
X36170000Y-46395000D02*
X38830000Y-46395000D01*
X38830000Y-43795000D02*
X38830000Y-46395000D01*
X36170000Y-41195000D02*
X37500000Y-41195000D01*
%TO.C,R13*%
X79738748Y-80465000D02*
X80261252Y-80465000D01*
X79738748Y-81935000D02*
X80261252Y-81935000D01*
%TO.C,C7*%
X103565000Y-43338748D02*
X103565000Y-43861252D01*
X105035000Y-43338748D02*
X105035000Y-43861252D01*
%TO.C,AUX_CONN1*%
X86330000Y-87350000D02*
X83670000Y-87350000D01*
X86330000Y-95030000D02*
X86330000Y-87350000D01*
X86330000Y-96300000D02*
X86330000Y-97630000D01*
X83670000Y-95030000D02*
X83670000Y-87350000D01*
X86330000Y-95030000D02*
X83670000Y-95030000D01*
X86330000Y-97630000D02*
X85000000Y-97630000D01*
%TO.C,C2*%
X51388748Y-44675000D02*
X52811252Y-44675000D01*
X51388748Y-46495000D02*
X52811252Y-46495000D01*
%TO.C,R25*%
X43765000Y-57761252D02*
X43765000Y-57238748D01*
X45235000Y-57761252D02*
X45235000Y-57238748D01*
D12*
%TO.C,Q2*%
X73175000Y-76069000D02*
X73625000Y-76069000D01*
X74450000Y-79369000D02*
X74825000Y-79094000D01*
X73550000Y-79369000D02*
X73175000Y-79369000D01*
X74175000Y-79369000D02*
X74450000Y-79369000D01*
X74825000Y-76069000D02*
X74825000Y-76419000D01*
X73175000Y-79369000D02*
X73175000Y-79069000D01*
X74350000Y-76069000D02*
X74825000Y-76069000D01*
X74825000Y-79094000D02*
X74825000Y-79044000D01*
X73175000Y-76369000D02*
X73175000Y-76069000D01*
X74825000Y-79044000D02*
X75600000Y-79044000D01*
X73175000Y-76294000D02*
X73175000Y-76419000D01*
D16*
%TO.C,BT1*%
X54735000Y-37142500D02*
X54735000Y-34942500D01*
X50845000Y-33942500D02*
X50525000Y-33942500D01*
X53025000Y-30522500D02*
X53345000Y-30442500D01*
X55955000Y-37142500D02*
X54735000Y-37142500D01*
X49455000Y-34942500D02*
X49455000Y-37142500D01*
X48235000Y-28722500D02*
X55955000Y-28722500D01*
X55955000Y-29942500D02*
X54735000Y-29942500D01*
X48235000Y-37142500D02*
X48235000Y-28722500D01*
X52015000Y-34942500D02*
X52175000Y-34942500D01*
X53025000Y-33942500D02*
X53025000Y-30522500D01*
X49455000Y-33942500D02*
X54735000Y-33942500D01*
X48235000Y-29942500D02*
X49455000Y-29942500D01*
X49455000Y-34942500D02*
X48235000Y-34942500D01*
X50845000Y-30442500D02*
X51165000Y-30522500D01*
X50545000Y-37632500D02*
X51145000Y-37632500D01*
X50525000Y-33942500D02*
X50525000Y-30522500D01*
X50525000Y-30522500D02*
X50845000Y-30442500D01*
X51165000Y-33942500D02*
X50845000Y-33942500D01*
X53345000Y-30442500D02*
X53665000Y-30522500D01*
X53665000Y-30522500D02*
X53665000Y-33942500D01*
X51165000Y-30522500D02*
X51165000Y-33942500D01*
X51145000Y-37632500D02*
X50845000Y-37032500D01*
X55955000Y-28722500D02*
X55955000Y-37142500D01*
X50845000Y-37032500D02*
X50545000Y-37632500D01*
X49455000Y-29942500D02*
X49455000Y-34942500D01*
X53345000Y-33942500D02*
X53025000Y-33942500D01*
X54735000Y-29942500D02*
X54735000Y-34942500D01*
X54735000Y-34942500D02*
X55955000Y-34942500D01*
X53665000Y-33942500D02*
X53345000Y-33942500D01*
X49455000Y-37142500D02*
X48235000Y-37142500D01*
%TO.C,R14*%
X85635000Y-81461252D02*
X85635000Y-80938748D01*
X84165000Y-81461252D02*
X84165000Y-80938748D01*
%TO.C,C1*%
X47860000Y-45138748D02*
X47860000Y-46561252D01*
X46040000Y-45138748D02*
X46040000Y-46561252D01*
%TO.C,D3*%
X47760000Y-59135000D02*
X47760000Y-56450000D01*
X45840000Y-56450000D02*
X45840000Y-59135000D01*
X45840000Y-59135000D02*
X47760000Y-59135000D01*
%TO.C,D1*%
X45950000Y-50500000D02*
X42050000Y-50500000D01*
X45950000Y-52500000D02*
X45950000Y-50500000D01*
X45950000Y-52500000D02*
X42050000Y-52500000D01*
%TO.C,R23*%
X39435000Y-84561252D02*
X39435000Y-84038748D01*
X37965000Y-84561252D02*
X37965000Y-84038748D01*
%TO.C,R18*%
X98565000Y-49888748D02*
X98565000Y-50411252D01*
X100035000Y-49888748D02*
X100035000Y-50411252D01*
%TO.C,R5*%
X84238748Y-47485000D02*
X84761252Y-47485000D01*
X84238748Y-46015000D02*
X84761252Y-46015000D01*
%TO.C,C17*%
X81538748Y-53465000D02*
X82061252Y-53465000D01*
X81538748Y-54935000D02*
X82061252Y-54935000D01*
%TO.C,C8*%
X101365000Y-43338748D02*
X101365000Y-43861252D01*
X102835000Y-43338748D02*
X102835000Y-43861252D01*
%TO.C,AUX_CONN3*%
X96330000Y-95030000D02*
X96330000Y-87350000D01*
X93670000Y-95030000D02*
X93670000Y-87350000D01*
X96330000Y-96300000D02*
X96330000Y-97630000D01*
X96330000Y-95030000D02*
X93670000Y-95030000D01*
X96330000Y-97630000D02*
X95000000Y-97630000D01*
X96330000Y-87350000D02*
X93670000Y-87350000D01*
D12*
%TO.C,U4*%
X81091800Y-35139400D02*
X81091800Y-40719400D01*
X82611800Y-33039400D02*
X82611800Y-44539400D01*
D11*
X91611800Y-44539400D02*
X91211800Y-44139400D01*
D12*
X58711800Y-35139400D02*
X58711800Y-40719400D01*
D11*
X91611800Y-35539400D02*
X90611800Y-36539400D01*
X56611800Y-44539400D02*
X86611800Y-44539400D01*
X91211800Y-44139400D02*
X86611800Y-44139400D01*
D12*
X58711800Y-35139400D02*
X81091800Y-35139400D01*
D11*
X56611800Y-44539400D02*
X56611800Y-33039400D01*
D12*
X58711800Y-40719400D02*
X81091800Y-40719400D01*
D11*
X86611800Y-33039400D02*
X86611800Y-44539400D01*
X90611800Y-36539400D02*
X86611800Y-36539400D01*
X96611800Y-44539400D02*
X91611800Y-44539400D01*
X56611800Y-33039400D02*
X86611800Y-33039400D01*
X96611800Y-35539400D02*
X91611800Y-35539400D01*
D16*
%TO.C,C15*%
X60665000Y-69138748D02*
X60665000Y-69661252D01*
X62135000Y-69138748D02*
X62135000Y-69661252D01*
%TO.C,SW1*%
X51100000Y-73150000D02*
X56900000Y-73150000D01*
X59100000Y-73200000D02*
X58100000Y-73200000D01*
X59100000Y-72200000D02*
X59100000Y-73200000D01*
X57100000Y-71200000D02*
X57100000Y-68600000D01*
X50900000Y-71200000D02*
X50900000Y-68600000D01*
X51000000Y-66650000D02*
X57000000Y-66650000D01*
%TO.C,D4*%
X38940000Y-55815000D02*
X38940000Y-58500000D01*
X40860000Y-58500000D02*
X40860000Y-55815000D01*
X40860000Y-55815000D02*
X38940000Y-55815000D01*
%TO.C,R27*%
X66435000Y-76961252D02*
X66435000Y-76438748D01*
X64965000Y-76961252D02*
X64965000Y-76438748D01*
D17*
%TO.C,IC1*%
X60295000Y-57485000D02*
X60295000Y-56885000D01*
X53295000Y-57485000D02*
X53295000Y-56885000D01*
X60295000Y-61885000D02*
X58695000Y-61885000D01*
X53295000Y-61285000D02*
X53295000Y-61885000D01*
X53295000Y-56885000D02*
X54895000Y-56885000D01*
X53295000Y-61885000D02*
X54895000Y-61885000D01*
X60295000Y-56885000D02*
X58695000Y-56885000D01*
X60295000Y-61285000D02*
X60295000Y-61885000D01*
D14*
X55736419Y-63085000D02*
G75*
G03*
X55736419Y-63085000I-141419J0D01*
G01*
D12*
%TO.C,Q3*%
X89625000Y-83825000D02*
X89625000Y-83700000D01*
X88625000Y-80750000D02*
X88350000Y-80750000D01*
X88350000Y-80750000D02*
X87975000Y-81025000D01*
X89625000Y-83750000D02*
X89625000Y-84050000D01*
X89625000Y-80750000D02*
X89625000Y-81050000D01*
X89250000Y-80750000D02*
X89625000Y-80750000D01*
X87975000Y-84050000D02*
X87975000Y-83700000D01*
X87975000Y-81025000D02*
X87975000Y-81075000D01*
X89625000Y-84050000D02*
X89175000Y-84050000D01*
X87975000Y-81075000D02*
X87200000Y-81075000D01*
X88450000Y-84050000D02*
X87975000Y-84050000D01*
D16*
%TO.C,R16*%
X79738748Y-83865000D02*
X80261252Y-83865000D01*
X79738748Y-85335000D02*
X80261252Y-85335000D01*
%TO.C,C9*%
X102735000Y-39461252D02*
X102735000Y-38938748D01*
X101265000Y-39461252D02*
X101265000Y-38938748D01*
%TO.C,R10*%
X63035000Y-56338748D02*
X63035000Y-56861252D01*
X61565000Y-56338748D02*
X61565000Y-56861252D01*
%TO.C,C13*%
X108965000Y-50361252D02*
X108965000Y-49838748D01*
X110435000Y-50361252D02*
X110435000Y-49838748D01*
%TO.C,R12*%
X81965000Y-81461252D02*
X81965000Y-80938748D01*
X83435000Y-81461252D02*
X83435000Y-80938748D01*
%TO.C,R17*%
X102335000Y-49888748D02*
X102335000Y-50411252D01*
X100865000Y-49888748D02*
X100865000Y-50411252D01*
%TO.C,R4*%
X43661252Y-48365000D02*
X43138748Y-48365000D01*
X43661252Y-49835000D02*
X43138748Y-49835000D01*
%TO.C,U3*%
X64940000Y-56015000D02*
X64160000Y-56015000D01*
X89905000Y-56015000D02*
X83485000Y-56015000D01*
X64160000Y-74255000D02*
X64160000Y-73255000D01*
X64160000Y-56015000D02*
X64160000Y-57015000D01*
X89905000Y-74255000D02*
X83485000Y-74255000D01*
X64940000Y-74255000D02*
X64160000Y-74255000D01*
X83485000Y-56015000D02*
X83485000Y-55635000D01*
X89905000Y-56015000D02*
X89905000Y-74255000D01*
%TO.C,R19*%
X57265000Y-64238748D02*
X57265000Y-64761252D01*
X58735000Y-64238748D02*
X58735000Y-64761252D01*
%TO.C,AUX_CONN4*%
X101330000Y-96300000D02*
X101330000Y-97630000D01*
X101330000Y-95030000D02*
X101330000Y-87350000D01*
X101330000Y-87350000D02*
X98670000Y-87350000D01*
X98670000Y-95030000D02*
X98670000Y-87350000D01*
X101330000Y-97630000D02*
X100000000Y-97630000D01*
X101330000Y-95030000D02*
X98670000Y-95030000D01*
%TD*%
D18*
%TO.C,J2*%
X39220000Y-92540000D03*
X40380000Y-92540000D03*
X39220000Y-91270000D03*
X40380000Y-91270000D03*
X39220000Y-90000000D03*
X40380000Y-90000000D03*
X39220000Y-88730000D03*
X40380000Y-88730000D03*
X39220000Y-87460000D03*
X40380000Y-87460000D03*
%TD*%
M02*
