%TF.GenerationSoftware,KiCad,Pcbnew,(5.99.0-8928-gc255dede17)*%
%TF.CreationDate,2021-02-24T20:07:13-08:00*%
%TF.ProjectId,smbpcb,736d6270-6362-42e6-9b69-6361645f7063,rev?*%
%TF.SameCoordinates,Original*%
%TF.FileFunction,Legend,Bot*%
%TF.FilePolarity,Positive*%
%FSLAX46Y46*%
G04 Gerber Fmt 4.6, Leading zero omitted, Abs format (unit mm)*
G04 Created by KiCad (PCBNEW (5.99.0-8928-gc255dede17)) date 2021-02-24 20:07:13*
%MOMM*%
%LPD*%
G01*
G04 APERTURE LIST*
%ADD10C,0.300000*%
%ADD11C,0.100000*%
G04 APERTURE END LIST*
D10*
X81683333Y-66670166D02*
X81064285Y-66670166D01*
X81807142Y-67041595D02*
X81373809Y-65741595D01*
X80940476Y-67041595D01*
X80321428Y-67041595D02*
X80445238Y-66979690D01*
X80507142Y-66855880D01*
X80507142Y-65741595D01*
X79826190Y-67041595D02*
X79826190Y-65741595D01*
X79826190Y-66236833D02*
X79702380Y-66174928D01*
X79454761Y-66174928D01*
X79330952Y-66236833D01*
X79269047Y-66298738D01*
X79207142Y-66422547D01*
X79207142Y-66793976D01*
X79269047Y-66917785D01*
X79330952Y-66979690D01*
X79454761Y-67041595D01*
X79702380Y-67041595D01*
X79826190Y-66979690D01*
X78092857Y-67041595D02*
X78092857Y-66360642D01*
X78154761Y-66236833D01*
X78278571Y-66174928D01*
X78526190Y-66174928D01*
X78650000Y-66236833D01*
X78092857Y-66979690D02*
X78216666Y-67041595D01*
X78526190Y-67041595D01*
X78650000Y-66979690D01*
X78711904Y-66855880D01*
X78711904Y-66732071D01*
X78650000Y-66608261D01*
X78526190Y-66546357D01*
X78216666Y-66546357D01*
X78092857Y-66484452D01*
X77473809Y-66174928D02*
X77473809Y-67041595D01*
X77473809Y-66298738D02*
X77411904Y-66236833D01*
X77288095Y-66174928D01*
X77102380Y-66174928D01*
X76978571Y-66236833D01*
X76916666Y-66360642D01*
X76916666Y-67041595D01*
X76421428Y-66174928D02*
X76111904Y-67041595D01*
X75802380Y-66174928D02*
X76111904Y-67041595D01*
X76235714Y-67351119D01*
X76297619Y-67413023D01*
X76421428Y-67474928D01*
X73697619Y-67041595D02*
X74316666Y-67041595D01*
X74316666Y-65741595D01*
X73078571Y-67041595D02*
X73202380Y-66979690D01*
X73264285Y-66917785D01*
X73326190Y-66793976D01*
X73326190Y-66422547D01*
X73264285Y-66298738D01*
X73202380Y-66236833D01*
X73078571Y-66174928D01*
X72892857Y-66174928D01*
X72769047Y-66236833D01*
X72707142Y-66298738D01*
X72645238Y-66422547D01*
X72645238Y-66793976D01*
X72707142Y-66917785D01*
X72769047Y-66979690D01*
X72892857Y-67041595D01*
X73078571Y-67041595D01*
X72211904Y-66174928D02*
X71902380Y-67041595D01*
X71592857Y-66174928D01*
X70602380Y-66979690D02*
X70726190Y-67041595D01*
X70973809Y-67041595D01*
X71097619Y-66979690D01*
X71159523Y-66855880D01*
X71159523Y-66360642D01*
X71097619Y-66236833D01*
X70973809Y-66174928D01*
X70726190Y-66174928D01*
X70602380Y-66236833D01*
X70540476Y-66360642D01*
X70540476Y-66484452D01*
X71159523Y-66608261D01*
X70045238Y-66979690D02*
X69921428Y-67041595D01*
X69673809Y-67041595D01*
X69550000Y-66979690D01*
X69488095Y-66855880D01*
X69488095Y-66793976D01*
X69550000Y-66670166D01*
X69673809Y-66608261D01*
X69859523Y-66608261D01*
X69983333Y-66546357D01*
X70045238Y-66422547D01*
X70045238Y-66360642D01*
X69983333Y-66236833D01*
X69859523Y-66174928D01*
X69673809Y-66174928D01*
X69550000Y-66236833D01*
X68126190Y-66174928D02*
X67630952Y-66174928D01*
X67940476Y-65741595D02*
X67940476Y-66855880D01*
X67878571Y-66979690D01*
X67754761Y-67041595D01*
X67630952Y-67041595D01*
X67197619Y-67041595D02*
X67197619Y-65741595D01*
X66640476Y-67041595D02*
X66640476Y-66360642D01*
X66702380Y-66236833D01*
X66826190Y-66174928D01*
X67011904Y-66174928D01*
X67135714Y-66236833D01*
X67197619Y-66298738D01*
X65526190Y-66979690D02*
X65650000Y-67041595D01*
X65897619Y-67041595D01*
X66021428Y-66979690D01*
X66083333Y-66855880D01*
X66083333Y-66360642D01*
X66021428Y-66236833D01*
X65897619Y-66174928D01*
X65650000Y-66174928D01*
X65526190Y-66236833D01*
X65464285Y-66360642D01*
X65464285Y-66484452D01*
X66083333Y-66608261D01*
X63978571Y-66670166D02*
X63359523Y-66670166D01*
X64102380Y-67041595D02*
X63669047Y-65741595D01*
X63235714Y-67041595D01*
X62802380Y-67041595D02*
X62802380Y-66174928D01*
X62802380Y-65741595D02*
X62864285Y-65803500D01*
X62802380Y-65865404D01*
X62740476Y-65803500D01*
X62802380Y-65741595D01*
X62802380Y-65865404D01*
X62183333Y-67041595D02*
X62183333Y-66174928D01*
X62183333Y-66422547D02*
X62121428Y-66298738D01*
X62059523Y-66236833D01*
X61935714Y-66174928D01*
X61811904Y-66174928D01*
X61378571Y-66917785D02*
X61316666Y-66979690D01*
X61378571Y-67041595D01*
X61440476Y-66979690D01*
X61378571Y-66917785D01*
X61378571Y-67041595D01*
X61378571Y-66546357D02*
X61440476Y-65803500D01*
X61378571Y-65741595D01*
X61316666Y-65803500D01*
X61378571Y-66546357D01*
X61378571Y-65741595D01*
X112697619Y-69134595D02*
X112697619Y-67834595D01*
X112388095Y-67834595D01*
X112202380Y-67896500D01*
X112078571Y-68020309D01*
X112016666Y-68144119D01*
X111954761Y-68391738D01*
X111954761Y-68577452D01*
X112016666Y-68825071D01*
X112078571Y-68948880D01*
X112202380Y-69072690D01*
X112388095Y-69134595D01*
X112697619Y-69134595D01*
X110902380Y-69072690D02*
X111026190Y-69134595D01*
X111273809Y-69134595D01*
X111397619Y-69072690D01*
X111459523Y-68948880D01*
X111459523Y-68453642D01*
X111397619Y-68329833D01*
X111273809Y-68267928D01*
X111026190Y-68267928D01*
X110902380Y-68329833D01*
X110840476Y-68453642D01*
X110840476Y-68577452D01*
X111459523Y-68701261D01*
X110345238Y-69072690D02*
X110221428Y-69134595D01*
X109973809Y-69134595D01*
X109849999Y-69072690D01*
X109788095Y-68948880D01*
X109788095Y-68886976D01*
X109849999Y-68763166D01*
X109973809Y-68701261D01*
X110159523Y-68701261D01*
X110283333Y-68639357D01*
X110345238Y-68515547D01*
X110345238Y-68453642D01*
X110283333Y-68329833D01*
X110159523Y-68267928D01*
X109973809Y-68267928D01*
X109849999Y-68329833D01*
X109230952Y-69134595D02*
X109230952Y-68267928D01*
X109230952Y-67834595D02*
X109292857Y-67896500D01*
X109230952Y-67958404D01*
X109169047Y-67896500D01*
X109230952Y-67834595D01*
X109230952Y-67958404D01*
X108054761Y-68267928D02*
X108054761Y-69320309D01*
X108116666Y-69444119D01*
X108178571Y-69506023D01*
X108302380Y-69567928D01*
X108488095Y-69567928D01*
X108611904Y-69506023D01*
X108054761Y-69072690D02*
X108178571Y-69134595D01*
X108426190Y-69134595D01*
X108549999Y-69072690D01*
X108611904Y-69010785D01*
X108673809Y-68886976D01*
X108673809Y-68515547D01*
X108611904Y-68391738D01*
X108549999Y-68329833D01*
X108426190Y-68267928D01*
X108178571Y-68267928D01*
X108054761Y-68329833D01*
X107435714Y-68267928D02*
X107435714Y-69134595D01*
X107435714Y-68391738D02*
X107373809Y-68329833D01*
X107249999Y-68267928D01*
X107064285Y-68267928D01*
X106940476Y-68329833D01*
X106878571Y-68453642D01*
X106878571Y-69134595D01*
X105764285Y-69072690D02*
X105888095Y-69134595D01*
X106135714Y-69134595D01*
X106259523Y-69072690D01*
X106321428Y-68948880D01*
X106321428Y-68453642D01*
X106259523Y-68329833D01*
X106135714Y-68267928D01*
X105888095Y-68267928D01*
X105764285Y-68329833D01*
X105702380Y-68453642D01*
X105702380Y-68577452D01*
X106321428Y-68701261D01*
X104588095Y-69134595D02*
X104588095Y-67834595D01*
X104588095Y-69072690D02*
X104711904Y-69134595D01*
X104959523Y-69134595D01*
X105083333Y-69072690D01*
X105145238Y-69010785D01*
X105207142Y-68886976D01*
X105207142Y-68515547D01*
X105145238Y-68391738D01*
X105083333Y-68329833D01*
X104959523Y-68267928D01*
X104711904Y-68267928D01*
X104588095Y-68329833D01*
X103102380Y-68267928D02*
X102854761Y-69134595D01*
X102607142Y-68515547D01*
X102359523Y-69134595D01*
X102111904Y-68267928D01*
X101616666Y-69134595D02*
X101616666Y-68267928D01*
X101616666Y-67834595D02*
X101678571Y-67896500D01*
X101616666Y-67958404D01*
X101554761Y-67896500D01*
X101616666Y-67834595D01*
X101616666Y-67958404D01*
X101183333Y-68267928D02*
X100688095Y-68267928D01*
X100997619Y-67834595D02*
X100997619Y-68948880D01*
X100935714Y-69072690D01*
X100811904Y-69134595D01*
X100688095Y-69134595D01*
X100254761Y-69134595D02*
X100254761Y-67834595D01*
X99697619Y-69134595D02*
X99697619Y-68453642D01*
X99759523Y-68329833D01*
X99883333Y-68267928D01*
X100069047Y-68267928D01*
X100192857Y-68329833D01*
X100254761Y-68391738D01*
X97097619Y-68267928D02*
X98088095Y-68639357D01*
X97097619Y-69010785D01*
X96602380Y-67834595D02*
X95797619Y-67834595D01*
X96230952Y-68329833D01*
X96045238Y-68329833D01*
X95921428Y-68391738D01*
X95859523Y-68453642D01*
X95797619Y-68577452D01*
X95797619Y-68886976D01*
X95859523Y-69010785D01*
X95921428Y-69072690D01*
X96045238Y-69134595D01*
X96416666Y-69134595D01*
X96540476Y-69072690D01*
X96602380Y-69010785D01*
X94249999Y-69134595D02*
X94249999Y-67834595D01*
X94249999Y-68329833D02*
X94126190Y-68267928D01*
X93878571Y-68267928D01*
X93754761Y-68329833D01*
X93692857Y-68391738D01*
X93630952Y-68515547D01*
X93630952Y-68886976D01*
X93692857Y-69010785D01*
X93754761Y-69072690D01*
X93878571Y-69134595D01*
X94126190Y-69134595D01*
X94249999Y-69072690D01*
X93197619Y-68267928D02*
X92888095Y-69134595D01*
X92578571Y-68267928D02*
X92888095Y-69134595D01*
X93011904Y-69444119D01*
X93073809Y-69506023D01*
X93197619Y-69567928D01*
X91092857Y-68453642D02*
X90659523Y-68453642D01*
X90473809Y-69134595D02*
X91092857Y-69134595D01*
X91092857Y-67834595D01*
X90473809Y-67834595D01*
X89730952Y-69134595D02*
X89854761Y-69072690D01*
X89916666Y-68948880D01*
X89916666Y-67834595D01*
X88678571Y-69134595D02*
X88678571Y-68453642D01*
X88740476Y-68329833D01*
X88864285Y-68267928D01*
X89111904Y-68267928D01*
X89235714Y-68329833D01*
X88678571Y-69072690D02*
X88802380Y-69134595D01*
X89111904Y-69134595D01*
X89235714Y-69072690D01*
X89297619Y-68948880D01*
X89297619Y-68825071D01*
X89235714Y-68701261D01*
X89111904Y-68639357D01*
X88802380Y-68639357D01*
X88678571Y-68577452D01*
X88059523Y-69134595D02*
X88059523Y-68267928D01*
X88059523Y-68391738D02*
X87997619Y-68329833D01*
X87873809Y-68267928D01*
X87688095Y-68267928D01*
X87564285Y-68329833D01*
X87502380Y-68453642D01*
X87502380Y-69134595D01*
X87502380Y-68453642D02*
X87440476Y-68329833D01*
X87316666Y-68267928D01*
X87130952Y-68267928D01*
X87007142Y-68329833D01*
X86945238Y-68453642D01*
X86945238Y-69134595D01*
X85335714Y-69134595D02*
X85335714Y-67834595D01*
X85026190Y-67834595D01*
X84840476Y-67896500D01*
X84716666Y-68020309D01*
X84654761Y-68144119D01*
X84592857Y-68391738D01*
X84592857Y-68577452D01*
X84654761Y-68825071D01*
X84716666Y-68948880D01*
X84840476Y-69072690D01*
X85026190Y-69134595D01*
X85335714Y-69134595D01*
X83478571Y-69134595D02*
X83478571Y-68453642D01*
X83540476Y-68329833D01*
X83664285Y-68267928D01*
X83911904Y-68267928D01*
X84035714Y-68329833D01*
X83478571Y-69072690D02*
X83602380Y-69134595D01*
X83911904Y-69134595D01*
X84035714Y-69072690D01*
X84097619Y-68948880D01*
X84097619Y-68825071D01*
X84035714Y-68701261D01*
X83911904Y-68639357D01*
X83602380Y-68639357D01*
X83478571Y-68577452D01*
X82983333Y-68267928D02*
X82673809Y-69134595D01*
X82364285Y-68267928D02*
X82673809Y-69134595D01*
X82797619Y-69444119D01*
X82859523Y-69506023D01*
X82983333Y-69567928D01*
X81869047Y-68639357D02*
X80878571Y-68639357D01*
X79826190Y-68453642D02*
X80259523Y-68453642D01*
X80259523Y-69134595D02*
X80259523Y-67834595D01*
X79640476Y-67834595D01*
X79145238Y-69134595D02*
X79145238Y-68267928D01*
X79145238Y-68515547D02*
X79083333Y-68391738D01*
X79021428Y-68329833D01*
X78897619Y-68267928D01*
X78773809Y-68267928D01*
X78340476Y-69134595D02*
X78340476Y-68267928D01*
X78340476Y-67834595D02*
X78402380Y-67896500D01*
X78340476Y-67958404D01*
X78278571Y-67896500D01*
X78340476Y-67834595D01*
X78340476Y-67958404D01*
X77226190Y-69072690D02*
X77349999Y-69134595D01*
X77597619Y-69134595D01*
X77721428Y-69072690D01*
X77783333Y-68948880D01*
X77783333Y-68453642D01*
X77721428Y-68329833D01*
X77597619Y-68267928D01*
X77349999Y-68267928D01*
X77226190Y-68329833D01*
X77164285Y-68453642D01*
X77164285Y-68577452D01*
X77783333Y-68701261D01*
X76049999Y-69134595D02*
X76049999Y-67834595D01*
X76049999Y-69072690D02*
X76173809Y-69134595D01*
X76421428Y-69134595D01*
X76545238Y-69072690D01*
X76607142Y-69010785D01*
X76669047Y-68886976D01*
X76669047Y-68515547D01*
X76607142Y-68391738D01*
X76545238Y-68329833D01*
X76421428Y-68267928D01*
X76173809Y-68267928D01*
X76049999Y-68329833D01*
X75245238Y-69134595D02*
X75369047Y-69072690D01*
X75430952Y-68948880D01*
X75430952Y-67834595D01*
X74192857Y-69134595D02*
X74192857Y-68453642D01*
X74254761Y-68329833D01*
X74378571Y-68267928D01*
X74626190Y-68267928D01*
X74749999Y-68329833D01*
X74192857Y-69072690D02*
X74316666Y-69134595D01*
X74626190Y-69134595D01*
X74749999Y-69072690D01*
X74811904Y-68948880D01*
X74811904Y-68825071D01*
X74749999Y-68701261D01*
X74626190Y-68639357D01*
X74316666Y-68639357D01*
X74192857Y-68577452D01*
X73573809Y-68267928D02*
X73573809Y-69134595D01*
X73573809Y-68391738D02*
X73511904Y-68329833D01*
X73388095Y-68267928D01*
X73202380Y-68267928D01*
X73078571Y-68329833D01*
X73016666Y-68453642D01*
X73016666Y-69134595D01*
X71840476Y-69134595D02*
X71840476Y-67834595D01*
X71840476Y-69072690D02*
X71964285Y-69134595D01*
X72211904Y-69134595D01*
X72335714Y-69072690D01*
X72397619Y-69010785D01*
X72459523Y-68886976D01*
X72459523Y-68515547D01*
X72397619Y-68391738D01*
X72335714Y-68329833D01*
X72211904Y-68267928D01*
X71964285Y-68267928D01*
X71840476Y-68329833D01*
X70354761Y-68267928D02*
X70107142Y-69134595D01*
X69859523Y-68515547D01*
X69611904Y-69134595D01*
X69364285Y-68267928D01*
X68869047Y-69134595D02*
X68869047Y-68267928D01*
X68869047Y-67834595D02*
X68930952Y-67896500D01*
X68869047Y-67958404D01*
X68807142Y-67896500D01*
X68869047Y-67834595D01*
X68869047Y-67958404D01*
X68435714Y-68267928D02*
X67940476Y-68267928D01*
X68249999Y-67834595D02*
X68249999Y-68948880D01*
X68188095Y-69072690D01*
X68064285Y-69134595D01*
X67940476Y-69134595D01*
X67507142Y-69134595D02*
X67507142Y-67834595D01*
X66949999Y-69134595D02*
X66949999Y-68453642D01*
X67011904Y-68329833D01*
X67135714Y-68267928D01*
X67321428Y-68267928D01*
X67445238Y-68329833D01*
X67507142Y-68391738D01*
X65340476Y-69134595D02*
X65340476Y-68267928D01*
X65340476Y-67834595D02*
X65402380Y-67896500D01*
X65340476Y-67958404D01*
X65278571Y-67896500D01*
X65340476Y-67834595D01*
X65340476Y-67958404D01*
X64721428Y-68267928D02*
X64721428Y-69134595D01*
X64721428Y-68391738D02*
X64659523Y-68329833D01*
X64535714Y-68267928D01*
X64349999Y-68267928D01*
X64226190Y-68329833D01*
X64164285Y-68453642D01*
X64164285Y-69134595D01*
X63545238Y-68267928D02*
X63545238Y-69567928D01*
X63545238Y-68329833D02*
X63421428Y-68267928D01*
X63173809Y-68267928D01*
X63049999Y-68329833D01*
X62988095Y-68391738D01*
X62926190Y-68515547D01*
X62926190Y-68886976D01*
X62988095Y-69010785D01*
X63049999Y-69072690D01*
X63173809Y-69134595D01*
X63421428Y-69134595D01*
X63545238Y-69072690D01*
X61811904Y-68267928D02*
X61811904Y-69134595D01*
X62369047Y-68267928D02*
X62369047Y-68948880D01*
X62307142Y-69072690D01*
X62183333Y-69134595D01*
X61997619Y-69134595D01*
X61873809Y-69072690D01*
X61811904Y-69010785D01*
X61378571Y-68267928D02*
X60883333Y-68267928D01*
X61192857Y-67834595D02*
X61192857Y-68948880D01*
X61130952Y-69072690D01*
X61007142Y-69134595D01*
X60883333Y-69134595D01*
X59645238Y-68267928D02*
X59149999Y-68267928D01*
X59459523Y-69134595D02*
X59459523Y-68020309D01*
X59397619Y-67896500D01*
X59273809Y-67834595D01*
X59149999Y-67834595D01*
X58716666Y-69134595D02*
X58716666Y-68267928D01*
X58716666Y-68515547D02*
X58654761Y-68391738D01*
X58592857Y-68329833D01*
X58469047Y-68267928D01*
X58345238Y-68267928D01*
X57726190Y-69134595D02*
X57849999Y-69072690D01*
X57911904Y-69010785D01*
X57973809Y-68886976D01*
X57973809Y-68515547D01*
X57911904Y-68391738D01*
X57849999Y-68329833D01*
X57726190Y-68267928D01*
X57540476Y-68267928D01*
X57416666Y-68329833D01*
X57354761Y-68391738D01*
X57292857Y-68515547D01*
X57292857Y-68886976D01*
X57354761Y-69010785D01*
X57416666Y-69072690D01*
X57540476Y-69134595D01*
X57726190Y-69134595D01*
X56735714Y-69134595D02*
X56735714Y-68267928D01*
X56735714Y-68391738D02*
X56673809Y-68329833D01*
X56549999Y-68267928D01*
X56364285Y-68267928D01*
X56240476Y-68329833D01*
X56178571Y-68453642D01*
X56178571Y-69134595D01*
X56178571Y-68453642D02*
X56116666Y-68329833D01*
X55992857Y-68267928D01*
X55807142Y-68267928D01*
X55683333Y-68329833D01*
X55621428Y-68453642D01*
X55621428Y-69134595D01*
X54197619Y-68267928D02*
X53702380Y-68267928D01*
X54011904Y-67834595D02*
X54011904Y-68948880D01*
X53949999Y-69072690D01*
X53826190Y-69134595D01*
X53702380Y-69134595D01*
X53269047Y-69134595D02*
X53269047Y-67834595D01*
X52711904Y-69134595D02*
X52711904Y-68453642D01*
X52773809Y-68329833D01*
X52897619Y-68267928D01*
X53083333Y-68267928D01*
X53207142Y-68329833D01*
X53269047Y-68391738D01*
X51597619Y-69072690D02*
X51721428Y-69134595D01*
X51969047Y-69134595D01*
X52092857Y-69072690D01*
X52154761Y-68948880D01*
X52154761Y-68453642D01*
X52092857Y-68329833D01*
X51969047Y-68267928D01*
X51721428Y-68267928D01*
X51597619Y-68329833D01*
X51535714Y-68453642D01*
X51535714Y-68577452D01*
X52154761Y-68701261D01*
X50049999Y-68763166D02*
X49430952Y-68763166D01*
X50173809Y-69134595D02*
X49740476Y-67834595D01*
X49307142Y-69134595D01*
X48873809Y-69134595D02*
X48873809Y-67834595D01*
X48873809Y-68453642D02*
X48130952Y-68453642D01*
X48130952Y-69134595D02*
X48130952Y-67834595D01*
X47573809Y-69072690D02*
X47388095Y-69134595D01*
X47078571Y-69134595D01*
X46954761Y-69072690D01*
X46892857Y-69010785D01*
X46830952Y-68886976D01*
X46830952Y-68763166D01*
X46892857Y-68639357D01*
X46954761Y-68577452D01*
X47078571Y-68515547D01*
X47326190Y-68453642D01*
X47449999Y-68391738D01*
X47511904Y-68329833D01*
X47573809Y-68206023D01*
X47573809Y-68082214D01*
X47511904Y-67958404D01*
X47449999Y-67896500D01*
X47326190Y-67834595D01*
X47016666Y-67834595D01*
X46830952Y-67896500D01*
X45345238Y-68763166D02*
X44726190Y-68763166D01*
X45469047Y-69134595D02*
X45035714Y-67834595D01*
X44602380Y-69134595D01*
X44169047Y-69134595D02*
X44169047Y-68267928D01*
X44169047Y-67834595D02*
X44230952Y-67896500D01*
X44169047Y-67958404D01*
X44107142Y-67896500D01*
X44169047Y-67834595D01*
X44169047Y-67958404D01*
X43549999Y-69134595D02*
X43549999Y-68267928D01*
X43549999Y-68515547D02*
X43488095Y-68391738D01*
X43426190Y-68329833D01*
X43302380Y-68267928D01*
X43178571Y-68267928D01*
X40888095Y-69258404D02*
X41011904Y-69196500D01*
X41135714Y-69072690D01*
X41321428Y-68886976D01*
X41445238Y-68825071D01*
X41569047Y-68825071D01*
X41507142Y-69134595D02*
X41630952Y-69072690D01*
X41754761Y-68948880D01*
X41816666Y-68701261D01*
X41816666Y-68267928D01*
X41754761Y-68020309D01*
X41630952Y-67896500D01*
X41507142Y-67834595D01*
X41259523Y-67834595D01*
X41135714Y-67896500D01*
X41011904Y-68020309D01*
X40949999Y-68267928D01*
X40949999Y-68701261D01*
X41011904Y-68948880D01*
X41135714Y-69072690D01*
X41259523Y-69134595D01*
X41507142Y-69134595D01*
X39835714Y-68267928D02*
X39835714Y-69134595D01*
X40392857Y-68267928D02*
X40392857Y-68948880D01*
X40330952Y-69072690D01*
X40207142Y-69134595D01*
X40021428Y-69134595D01*
X39897619Y-69072690D01*
X39835714Y-69010785D01*
X38659523Y-69134595D02*
X38659523Y-68453642D01*
X38721428Y-68329833D01*
X38845238Y-68267928D01*
X39092857Y-68267928D01*
X39216666Y-68329833D01*
X38659523Y-69072690D02*
X38783333Y-69134595D01*
X39092857Y-69134595D01*
X39216666Y-69072690D01*
X39278571Y-68948880D01*
X39278571Y-68825071D01*
X39216666Y-68701261D01*
X39092857Y-68639357D01*
X38783333Y-68639357D01*
X38659523Y-68577452D01*
X37854761Y-69134595D02*
X37978571Y-69072690D01*
X38040476Y-68948880D01*
X38040476Y-67834595D01*
X37359523Y-69134595D02*
X37359523Y-68267928D01*
X37359523Y-67834595D02*
X37421428Y-67896500D01*
X37359523Y-67958404D01*
X37297619Y-67896500D01*
X37359523Y-67834595D01*
X37359523Y-67958404D01*
X36926190Y-68267928D02*
X36430952Y-68267928D01*
X36740476Y-67834595D02*
X36740476Y-68948880D01*
X36678571Y-69072690D01*
X36554761Y-69134595D01*
X36430952Y-69134595D01*
X36121428Y-68267928D02*
X35811904Y-69134595D01*
X35502380Y-68267928D02*
X35811904Y-69134595D01*
X35935714Y-69444119D01*
X35997619Y-69506023D01*
X36121428Y-69567928D01*
X33273809Y-69010785D02*
X33335714Y-69072690D01*
X33521428Y-69134595D01*
X33645238Y-69134595D01*
X33830952Y-69072690D01*
X33954761Y-68948880D01*
X34016666Y-68825071D01*
X34078571Y-68577452D01*
X34078571Y-68391738D01*
X34016666Y-68144119D01*
X33954761Y-68020309D01*
X33830952Y-67896500D01*
X33645238Y-67834595D01*
X33521428Y-67834595D01*
X33335714Y-67896500D01*
X33273809Y-67958404D01*
X32530952Y-69134595D02*
X32654761Y-69072690D01*
X32716666Y-68948880D01*
X32716666Y-67834595D01*
X31478571Y-68267928D02*
X31478571Y-69134595D01*
X32035714Y-68267928D02*
X32035714Y-68948880D01*
X31973809Y-69072690D01*
X31849999Y-69134595D01*
X31664285Y-69134595D01*
X31540476Y-69072690D01*
X31478571Y-69010785D01*
X30859523Y-69134595D02*
X30859523Y-67834595D01*
X30859523Y-68329833D02*
X30735714Y-68267928D01*
X30488095Y-68267928D01*
X30364285Y-68329833D01*
X30302380Y-68391738D01*
X30240476Y-68515547D01*
X30240476Y-68886976D01*
X30302380Y-69010785D01*
X30364285Y-69072690D01*
X30488095Y-69134595D01*
X30735714Y-69134595D01*
X30859523Y-69072690D01*
D11*
X44864285Y-97289285D02*
X44864285Y-97825000D01*
X44900000Y-97932142D01*
X44971428Y-98003571D01*
X45078571Y-98039285D01*
X45150000Y-98039285D01*
X44150000Y-98039285D02*
X44507142Y-98039285D01*
X44507142Y-97289285D01*
X43471428Y-97967857D02*
X43507142Y-98003571D01*
X43614285Y-98039285D01*
X43685714Y-98039285D01*
X43792857Y-98003571D01*
X43864285Y-97932142D01*
X43900000Y-97860714D01*
X43935714Y-97717857D01*
X43935714Y-97610714D01*
X43900000Y-97467857D01*
X43864285Y-97396428D01*
X43792857Y-97325000D01*
X43685714Y-97289285D01*
X43614285Y-97289285D01*
X43507142Y-97325000D01*
X43471428Y-97360714D01*
X42935714Y-97289285D02*
X42935714Y-97825000D01*
X42971428Y-97932142D01*
X43042857Y-98003571D01*
X43150000Y-98039285D01*
X43221428Y-98039285D01*
X42221428Y-98039285D02*
X42578571Y-98039285D01*
X42578571Y-97289285D01*
X41542857Y-97967857D02*
X41578571Y-98003571D01*
X41685714Y-98039285D01*
X41757142Y-98039285D01*
X41864285Y-98003571D01*
X41935714Y-97932142D01*
X41971428Y-97860714D01*
X42007142Y-97717857D01*
X42007142Y-97610714D01*
X41971428Y-97467857D01*
X41935714Y-97396428D01*
X41864285Y-97325000D01*
X41757142Y-97289285D01*
X41685714Y-97289285D01*
X41578571Y-97325000D01*
X41542857Y-97360714D01*
X41007142Y-97289285D02*
X41007142Y-97825000D01*
X41042857Y-97932142D01*
X41114285Y-98003571D01*
X41221428Y-98039285D01*
X41292857Y-98039285D01*
X40292857Y-98039285D02*
X40650000Y-98039285D01*
X40650000Y-97289285D01*
X39614285Y-97967857D02*
X39650000Y-98003571D01*
X39757142Y-98039285D01*
X39828571Y-98039285D01*
X39935714Y-98003571D01*
X40007142Y-97932142D01*
X40042857Y-97860714D01*
X40078571Y-97717857D01*
X40078571Y-97610714D01*
X40042857Y-97467857D01*
X40007142Y-97396428D01*
X39935714Y-97325000D01*
X39828571Y-97289285D01*
X39757142Y-97289285D01*
X39650000Y-97325000D01*
X39614285Y-97360714D01*
X39078571Y-97289285D02*
X39078571Y-97825000D01*
X39114285Y-97932142D01*
X39185714Y-98003571D01*
X39292857Y-98039285D01*
X39364285Y-98039285D01*
X38364285Y-98039285D02*
X38721428Y-98039285D01*
X38721428Y-97289285D01*
X37685714Y-97967857D02*
X37721428Y-98003571D01*
X37828571Y-98039285D01*
X37900000Y-98039285D01*
X38007142Y-98003571D01*
X38078571Y-97932142D01*
X38114285Y-97860714D01*
X38150000Y-97717857D01*
X38150000Y-97610714D01*
X38114285Y-97467857D01*
X38078571Y-97396428D01*
X38007142Y-97325000D01*
X37900000Y-97289285D01*
X37828571Y-97289285D01*
X37721428Y-97325000D01*
X37685714Y-97360714D01*
M02*
