%TF.GenerationSoftware,KiCad,Pcbnew,(5.99.0-8928-gc255dede17)*%
%TF.CreationDate,2021-02-24T19:05:11-08:00*%
%TF.ProjectId,smbpcb,736d6270-6362-42e6-9b69-6361645f7063,rev?*%
%TF.SameCoordinates,Original*%
%TF.FileFunction,Legend,Bot*%
%TF.FilePolarity,Positive*%
%FSLAX46Y46*%
G04 Gerber Fmt 4.6, Leading zero omitted, Abs format (unit mm)*
G04 Created by KiCad (PCBNEW (5.99.0-8928-gc255dede17)) date 2021-02-24 19:05:11*
%MOMM*%
%LPD*%
G01*
G04 APERTURE LIST*
%ADD10C,0.150000*%
G04 APERTURE END LIST*
D10*
X74910714Y-97767857D02*
X74946428Y-97803571D01*
X75053571Y-97839285D01*
X75125000Y-97839285D01*
X75232142Y-97803571D01*
X75303571Y-97732142D01*
X75339285Y-97660714D01*
X75375000Y-97517857D01*
X75375000Y-97410714D01*
X75339285Y-97267857D01*
X75303571Y-97196428D01*
X75232142Y-97125000D01*
X75125000Y-97089285D01*
X75053571Y-97089285D01*
X74946428Y-97125000D01*
X74910714Y-97160714D01*
X74482142Y-97839285D02*
X74553571Y-97803571D01*
X74589285Y-97767857D01*
X74625000Y-97696428D01*
X74625000Y-97482142D01*
X74589285Y-97410714D01*
X74553571Y-97375000D01*
X74482142Y-97339285D01*
X74375000Y-97339285D01*
X74303571Y-97375000D01*
X74267857Y-97410714D01*
X74232142Y-97482142D01*
X74232142Y-97696428D01*
X74267857Y-97767857D01*
X74303571Y-97803571D01*
X74375000Y-97839285D01*
X74482142Y-97839285D01*
X73910714Y-97339285D02*
X73910714Y-98089285D01*
X73910714Y-97375000D02*
X73839285Y-97339285D01*
X73696428Y-97339285D01*
X73625000Y-97375000D01*
X73589285Y-97410714D01*
X73553571Y-97482142D01*
X73553571Y-97696428D01*
X73589285Y-97767857D01*
X73625000Y-97803571D01*
X73696428Y-97839285D01*
X73839285Y-97839285D01*
X73910714Y-97803571D01*
X73303571Y-97339285D02*
X73125000Y-97839285D01*
X72946428Y-97339285D02*
X73125000Y-97839285D01*
X73196428Y-98017857D01*
X73232142Y-98053571D01*
X73303571Y-98089285D01*
X72553571Y-97839285D02*
X72625000Y-97803571D01*
X72660714Y-97732142D01*
X72660714Y-97089285D01*
X71982142Y-97803571D02*
X72053571Y-97839285D01*
X72196428Y-97839285D01*
X72267857Y-97803571D01*
X72303571Y-97732142D01*
X72303571Y-97446428D01*
X72267857Y-97375000D01*
X72196428Y-97339285D01*
X72053571Y-97339285D01*
X71982142Y-97375000D01*
X71946428Y-97446428D01*
X71946428Y-97517857D01*
X72303571Y-97589285D01*
X71732142Y-97339285D02*
X71446428Y-97339285D01*
X71625000Y-97839285D02*
X71625000Y-97196428D01*
X71589285Y-97125000D01*
X71517857Y-97089285D01*
X71446428Y-97089285D01*
X71303571Y-97339285D02*
X71017857Y-97339285D01*
X71196428Y-97089285D02*
X71196428Y-97732142D01*
X71160714Y-97803571D01*
X71089285Y-97839285D01*
X71017857Y-97839285D01*
X70196428Y-97446428D02*
X69946428Y-97446428D01*
X69839285Y-97839285D02*
X70196428Y-97839285D01*
X70196428Y-97089285D01*
X69839285Y-97089285D01*
X69410714Y-97839285D02*
X69482142Y-97803571D01*
X69517857Y-97732142D01*
X69517857Y-97089285D01*
X68803571Y-97839285D02*
X68803571Y-97446428D01*
X68839285Y-97375000D01*
X68910714Y-97339285D01*
X69053571Y-97339285D01*
X69125000Y-97375000D01*
X68803571Y-97803571D02*
X68875000Y-97839285D01*
X69053571Y-97839285D01*
X69125000Y-97803571D01*
X69160714Y-97732142D01*
X69160714Y-97660714D01*
X69125000Y-97589285D01*
X69053571Y-97553571D01*
X68875000Y-97553571D01*
X68803571Y-97517857D01*
X68446428Y-97839285D02*
X68446428Y-97339285D01*
X68446428Y-97410714D02*
X68410714Y-97375000D01*
X68339285Y-97339285D01*
X68232142Y-97339285D01*
X68160714Y-97375000D01*
X68125000Y-97446428D01*
X68125000Y-97839285D01*
X68125000Y-97446428D02*
X68089285Y-97375000D01*
X68017857Y-97339285D01*
X67910714Y-97339285D01*
X67839285Y-97375000D01*
X67803571Y-97446428D01*
X67803571Y-97839285D01*
X66875000Y-97839285D02*
X66875000Y-97089285D01*
X66696428Y-97089285D01*
X66589285Y-97125000D01*
X66517857Y-97196428D01*
X66482142Y-97267857D01*
X66446428Y-97410714D01*
X66446428Y-97517857D01*
X66482142Y-97660714D01*
X66517857Y-97732142D01*
X66589285Y-97803571D01*
X66696428Y-97839285D01*
X66875000Y-97839285D01*
X65803571Y-97839285D02*
X65803571Y-97446428D01*
X65839285Y-97375000D01*
X65910714Y-97339285D01*
X66053571Y-97339285D01*
X66125000Y-97375000D01*
X65803571Y-97803571D02*
X65875000Y-97839285D01*
X66053571Y-97839285D01*
X66125000Y-97803571D01*
X66160714Y-97732142D01*
X66160714Y-97660714D01*
X66125000Y-97589285D01*
X66053571Y-97553571D01*
X65875000Y-97553571D01*
X65803571Y-97517857D01*
X65517857Y-97339285D02*
X65339285Y-97839285D01*
X65160714Y-97339285D02*
X65339285Y-97839285D01*
X65410714Y-98017857D01*
X65446428Y-98053571D01*
X65517857Y-98089285D01*
X64875000Y-97553571D02*
X64303571Y-97553571D01*
X63696428Y-97446428D02*
X63946428Y-97446428D01*
X63946428Y-97839285D02*
X63946428Y-97089285D01*
X63589285Y-97089285D01*
X63303571Y-97839285D02*
X63303571Y-97339285D01*
X63303571Y-97482142D02*
X63267857Y-97410714D01*
X63232142Y-97375000D01*
X63160714Y-97339285D01*
X63089285Y-97339285D01*
X62839285Y-97839285D02*
X62839285Y-97339285D01*
X62839285Y-97089285D02*
X62875000Y-97125000D01*
X62839285Y-97160714D01*
X62803571Y-97125000D01*
X62839285Y-97089285D01*
X62839285Y-97160714D01*
X62196428Y-97803571D02*
X62267857Y-97839285D01*
X62410714Y-97839285D01*
X62482142Y-97803571D01*
X62517857Y-97732142D01*
X62517857Y-97446428D01*
X62482142Y-97375000D01*
X62410714Y-97339285D01*
X62267857Y-97339285D01*
X62196428Y-97375000D01*
X62160714Y-97446428D01*
X62160714Y-97517857D01*
X62517857Y-97589285D01*
X61517857Y-97839285D02*
X61517857Y-97089285D01*
X61517857Y-97803571D02*
X61589285Y-97839285D01*
X61732142Y-97839285D01*
X61803571Y-97803571D01*
X61839285Y-97767857D01*
X61875000Y-97696428D01*
X61875000Y-97482142D01*
X61839285Y-97410714D01*
X61803571Y-97375000D01*
X61732142Y-97339285D01*
X61589285Y-97339285D01*
X61517857Y-97375000D01*
X61053571Y-97839285D02*
X61125000Y-97803571D01*
X61160714Y-97732142D01*
X61160714Y-97089285D01*
X60446428Y-97839285D02*
X60446428Y-97446428D01*
X60482142Y-97375000D01*
X60553571Y-97339285D01*
X60696428Y-97339285D01*
X60767857Y-97375000D01*
X60446428Y-97803571D02*
X60517857Y-97839285D01*
X60696428Y-97839285D01*
X60767857Y-97803571D01*
X60803571Y-97732142D01*
X60803571Y-97660714D01*
X60767857Y-97589285D01*
X60696428Y-97553571D01*
X60517857Y-97553571D01*
X60446428Y-97517857D01*
X60089285Y-97339285D02*
X60089285Y-97839285D01*
X60089285Y-97410714D02*
X60053571Y-97375000D01*
X59982142Y-97339285D01*
X59875000Y-97339285D01*
X59803571Y-97375000D01*
X59767857Y-97446428D01*
X59767857Y-97839285D01*
X59089285Y-97839285D02*
X59089285Y-97089285D01*
X59089285Y-97803571D02*
X59160714Y-97839285D01*
X59303571Y-97839285D01*
X59375000Y-97803571D01*
X59410714Y-97767857D01*
X59446428Y-97696428D01*
X59446428Y-97482142D01*
X59410714Y-97410714D01*
X59375000Y-97375000D01*
X59303571Y-97339285D01*
X59160714Y-97339285D01*
X59089285Y-97375000D01*
X58196428Y-97160714D02*
X58160714Y-97125000D01*
X58089285Y-97089285D01*
X57910714Y-97089285D01*
X57839285Y-97125000D01*
X57803571Y-97160714D01*
X57767857Y-97232142D01*
X57767857Y-97303571D01*
X57803571Y-97410714D01*
X58232142Y-97839285D01*
X57767857Y-97839285D01*
X57303571Y-97089285D02*
X57232142Y-97089285D01*
X57160714Y-97125000D01*
X57125000Y-97160714D01*
X57089285Y-97232142D01*
X57053571Y-97375000D01*
X57053571Y-97553571D01*
X57089285Y-97696428D01*
X57125000Y-97767857D01*
X57160714Y-97803571D01*
X57232142Y-97839285D01*
X57303571Y-97839285D01*
X57375000Y-97803571D01*
X57410714Y-97767857D01*
X57446428Y-97696428D01*
X57482142Y-97553571D01*
X57482142Y-97375000D01*
X57446428Y-97232142D01*
X57410714Y-97160714D01*
X57375000Y-97125000D01*
X57303571Y-97089285D01*
X56767857Y-97160714D02*
X56732142Y-97125000D01*
X56660714Y-97089285D01*
X56482142Y-97089285D01*
X56410714Y-97125000D01*
X56375000Y-97160714D01*
X56339285Y-97232142D01*
X56339285Y-97303571D01*
X56375000Y-97410714D01*
X56803571Y-97839285D01*
X56339285Y-97839285D01*
X55625000Y-97839285D02*
X56053571Y-97839285D01*
X55839285Y-97839285D02*
X55839285Y-97089285D01*
X55910714Y-97196428D01*
X55982142Y-97267857D01*
X56053571Y-97303571D01*
M02*
