M48
; DRILL file {KiCad (5.99.0-8928-gc255dede17)} date Wed Feb 24 20:07:15 2021
; FORMAT={-:-/ absolute / metric / decimal}
; #@! TF.CreationDate,2021-02-24T20:07:15-08:00
; #@! TF.GenerationSoftware,Kicad,Pcbnew,(5.99.0-8928-gc255dede17)
; #@! TF.FileFunction,Plated,1,2,PTH
FMAT,2
METRIC
T1C0.400
T2C0.500
T3C0.600
T4C0.762
T5C0.850
T6C1.000
T7C3.200
%
G90
G05
T1
X43.8Y-47.7
X45.205Y-42.675
X45.6Y-48.7
X48.2Y-69.4
X48.4Y-45.9
X49.346Y-50.645
X55.6Y-60.4
X56.0Y-64.8
X56.18Y-59.557
X59.1Y-57.1
X68.0Y-58.2
X68.4Y-77.1
X68.5Y-61.9
X69.4Y-76.2
X71.995Y-60.885
X73.525Y-45.925
X74.798Y-71.038
X76.8Y-79.0
X78.145Y-58.735
X79.045Y-54.81
X79.7Y-75.15
X79.75Y-83.15
X80.75Y-59.8
X80.8Y-72.1
X81.7Y-78.4
X82.342Y-75.94
X82.4Y-87.4
X83.545Y-48.335
X86.4Y-81.4
X86.895Y-54.885
X89.3Y-48.3
X101.4Y-47.9
X104.1Y-46.4
X106.1Y-47.8
T2
X70.2Y-82.8
T3
X39.22Y-87.46
X39.22Y-88.73
X39.22Y-90.0
X39.22Y-91.27
X39.22Y-92.54
X40.38Y-87.46
X40.38Y-88.73
X40.38Y-90.0
X40.38Y-91.27
X40.38Y-92.54
X57.7Y-45.7
X81.94Y-52.64
X86.0Y-52.5
X89.4Y-50.3
T4
X97.655Y-55.227
X97.655Y-84.438
X100.195Y-55.227
X100.195Y-84.438
X102.735Y-55.227
X102.735Y-84.438
X105.275Y-55.227
X105.275Y-84.438
X107.815Y-84.438
T5
X33.362Y-41.7
X33.362Y-46.7
T6
X37.5Y-42.525
X37.5Y-45.065
X50.775Y-39.9
X50.845Y-35.532
X53.315Y-39.9
X53.345Y-35.532
X85.0Y-88.68
X85.0Y-91.22
X85.0Y-93.76
X85.0Y-96.3
X90.0Y-88.68
X90.0Y-91.22
X90.0Y-93.76
X90.0Y-96.3
X95.0Y-88.68
X95.0Y-91.22
X95.0Y-93.76
X95.0Y-96.3
X100.0Y-88.68
X100.0Y-91.22
X100.0Y-93.76
X100.0Y-96.3
T7
X33.295Y-32.885
X33.295Y-94.885
X110.295Y-32.885
X110.295Y-94.885
T3
G00X30.312Y-40.7
M15
G01X31.012Y-40.7
M16
G05
G00X31.012Y-47.7
M15
G01X30.312Y-47.7
M16
G05
T0
M30
